<svg version="1.1" viewBox="0.0 0.0 600.0 371.0" fill="none" stroke="none" stroke-linecap="square" stroke-miterlimit="10" width="600" height="371" xmlns:xlink="http://www.w3.org/1999/xlink" xmlns="http://www.w3.org/2000/svg"><path fill="#ffffff" d="M0 0L600.0 0L600.0 371.0L0 371.0L0 0Z" fill-rule="nonzero"/><path stroke="#333333" stroke-width="1.0" stroke-linecap="butt" d="M77.5 88.5L77.5 300.5" fill-rule="nonzero"/><path stroke="#cccccc" stroke-width="1.0" stroke-linecap="butt" d="M217.5 88.5L217.5 300.5" fill-rule="nonzero"/><path stroke="#cccccc" stroke-width="1.0" stroke-linecap="butt" d="M357.5 88.5L357.5 300.5" fill-rule="nonzero"/><path stroke="#cccccc" stroke-width="1.0" stroke-linecap="butt" d="M497.5 88.5L497.5 300.5" fill-rule="nonzero"/><path stroke="#333333" stroke-width="1.0" stroke-linecap="butt" d="M77.5 300.5L581.5 300.5" fill-rule="nonzero"/><path stroke="#cccccc" stroke-width="1.0" stroke-linecap="butt" d="M77.5 229.5L581.5 229.5" fill-rule="nonzero"/><path stroke="#cccccc" stroke-width="1.0" stroke-linecap="butt" d="M77.5 159.5L581.5 159.5" fill-rule="nonzero"/><path stroke="#cccccc" stroke-width="1.0" stroke-linecap="butt" d="M77.5 88.5L581.5 88.5" fill-rule="nonzero"/><clipPath id="id_0"><path d="M77.55 88.28333L581.45 88.28333L581.45 300.45L77.55 300.45L77.55 88.28333Z" clip-rule="nonzero"/></clipPath><path stroke="#4285f4" stroke-width="2.0" stroke-linecap="butt" clip-path="url(#id_0)" d="M77.55 110.65753L119.541664 236.51672L161.53334 238.07329L203.525 245.86902L245.51666 230.74449L287.50833 249.95221L329.5 249.86551L371.49167 241.20122L413.48334 234.11664L455.475 234.76611L497.46667 247.19936L539.4583 256.05392L581.45 281.95572" fill-rule="nonzero"/><path stroke="#ea4335" stroke-width="2.0" stroke-linecap="butt" clip-path="url(#id_0)" d="M77.55 205.57822L119.541664 141.47888L161.53334 214.7867L203.525 239.48378L245.51666 230.00313L287.50833 224.30196L329.5 236.87317L371.49167 225.56398L413.48334 221.81406L455.475 234.99994L497.46667 229.79776L539.4583 216.94218L581.45 265.26834" fill-rule="nonzero"/><path fill="#000000" fill-opacity="0.0" clip-path="url(#id_0)" d="M80.55 110.65753C80.55 112.31439 79.206856 113.65753 77.55 113.65753C75.89314 113.65753 74.55 112.31439 74.55 110.65753C74.55 109.00068 75.89314 107.65753 77.55 107.65753C79.206856 107.65753 80.55 109.00068 80.55 110.65753Z" fill-rule="nonzero"/><path fill="#000000" fill-opacity="0.0" clip-path="url(#id_0)" d="M122.541664 236.51672C122.541664 238.17358 121.198524 239.51672 119.541664 239.51672C117.88481 239.51672 116.541664 238.17358 116.541664 236.51672C116.541664 234.85988 117.88481 233.51672 119.541664 233.51672C121.198524 233.51672 122.541664 234.85988 122.541664 236.51672Z" fill-rule="nonzero"/><path fill="#000000" fill-opacity="0.0" clip-path="url(#id_0)" d="M164.53334 238.07329C164.53334 239.73013 163.19019 241.07329 161.53334 241.07329C159.87648 241.07329 158.53334 239.73013 158.53334 238.07329C158.53334 236.41643 159.87648 235.07329 161.53334 235.07329C163.19019 235.07329 164.53334 236.41643 164.53334 238.07329Z" fill-rule="nonzero"/><path fill="#000000" fill-opacity="0.0" clip-path="url(#id_0)" d="M206.525 245.86902C206.525 247.52586 205.18185 248.86902 203.525 248.86902C201.86815 248.86902 200.525 247.52586 200.525 245.86902C200.525 244.21216 201.86815 242.86902 203.525 242.86902C205.18185 242.86902 206.525 244.21216 206.525 245.86902Z" fill-rule="nonzero"/><path fill="#000000" fill-opacity="0.0" clip-path="url(#id_0)" d="M248.51666 230.74449C248.51666 232.40135 247.17352 233.74449 245.51666 233.74449C243.85982 233.74449 242.51666 232.40135 242.51666 230.74449C242.51666 229.08765 243.85982 227.74449 245.51666 227.74449C247.17352 227.74449 248.51666 229.08765 248.51666 230.74449Z" fill-rule="nonzero"/><path fill="#000000" fill-opacity="0.0" clip-path="url(#id_0)" d="M290.50833 249.95221C290.50833 251.60907 289.1652 252.95221 287.50833 252.95221C285.85147 252.95221 284.50833 251.60907 284.50833 249.95221C284.50833 248.29535 285.85147 246.95221 287.50833 246.95221C289.1652 246.95221 290.50833 248.29535 290.50833 249.95221Z" fill-rule="nonzero"/><path fill="#000000" fill-opacity="0.0" clip-path="url(#id_0)" d="M332.5 249.86551C332.5 251.52237 331.15686 252.86551 329.5 252.86551C327.84314 252.86551 326.5 251.52237 326.5 249.86551C326.5 248.20866 327.84314 246.86551 329.5 246.86551C331.15686 246.86551 332.5 248.20866 332.5 249.86551Z" fill-rule="nonzero"/><path fill="#000000" fill-opacity="0.0" clip-path="url(#id_0)" d="M374.49167 241.20122C374.49167 242.85806 373.14853 244.20122 371.49167 244.20122C369.8348 244.20122 368.49167 242.85806 368.49167 241.20122C368.49167 239.54436 369.8348 238.20122 371.49167 238.20122C373.14853 238.20122 374.49167 239.54436 374.49167 241.20122Z" fill-rule="nonzero"/><path fill="#000000" fill-opacity="0.0" clip-path="url(#id_0)" d="M416.48334 234.11664C416.48334 235.7735 415.1402 237.11664 413.48334 237.11664C411.82648 237.11664 410.48334 235.7735 410.48334 234.11664C410.48334 232.45978 411.82648 231.11664 413.48334 231.11664C415.1402 231.11664 416.48334 232.45978 416.48334 234.11664Z" fill-rule="nonzero"/><path fill="#000000" fill-opacity="0.0" clip-path="url(#id_0)" d="M458.475 234.76611C458.475 236.42297 457.13187 237.76611 455.475 237.76611C453.81815 237.76611 452.475 236.42297 452.475 234.76611C452.475 233.10927 453.81815 231.76611 455.475 231.76611C457.13187 231.76611 458.475 233.10927 458.475 234.76611Z" fill-rule="nonzero"/><path fill="#000000" fill-opacity="0.0" clip-path="url(#id_0)" d="M500.46667 247.19936C500.46667 248.85622 499.12354 250.19936 497.46667 250.19936C495.8098 250.19936 494.46667 248.85622 494.46667 247.19936C494.46667 245.5425 495.8098 244.19936 497.46667 244.19936C499.12354 244.19936 500.46667 245.5425 500.46667 247.19936Z" fill-rule="nonzero"/><path fill="#000000" fill-opacity="0.0" clip-path="url(#id_0)" d="M542.4583 256.05392C542.4583 257.7108 541.1152 259.05392 539.4583 259.05392C537.80145 259.05392 536.4583 257.7108 536.4583 256.05392C536.4583 254.39706 537.80145 253.05392 539.4583 253.05392C541.1152 253.05392 542.4583 254.39706 542.4583 256.05392Z" fill-rule="nonzero"/><path fill="#000000" fill-opacity="0.0" clip-path="url(#id_0)" d="M584.45 281.95572C584.45 283.61258 583.1069 284.95572 581.45 284.95572C579.79315 284.95572 578.45 283.61258 578.45 281.95572C578.45 280.2989 579.79315 278.95572 581.45 278.95572C583.1069 278.95572 584.45 280.2989 584.45 281.95572Z" fill-rule="nonzero"/><path fill="#000000" fill-opacity="0.0" clip-path="url(#id_0)" d="M80.55 205.57822C80.55 207.23508 79.206856 208.57822 77.55 208.57822C75.89314 208.57822 74.55 207.23508 74.55 205.57822C74.55 203.92137 75.89314 202.57822 77.55 202.57822C79.206856 202.57822 80.55 203.92137 80.55 205.57822Z" fill-rule="nonzero"/><path fill="#000000" fill-opacity="0.0" clip-path="url(#id_0)" d="M122.541664 141.47888C122.541664 143.13573 121.198524 144.47888 119.541664 144.47888C117.88481 144.47888 116.541664 143.13573 116.541664 141.47888C116.541664 139.82202 117.88481 138.47888 119.541664 138.47888C121.198524 138.47888 122.541664 139.82202 122.541664 141.47888Z" fill-rule="nonzero"/><path fill="#000000" fill-opacity="0.0" clip-path="url(#id_0)" d="M164.53334 214.7867C164.53334 216.44356 163.19019 217.7867 161.53334 217.7867C159.87648 217.7867 158.53334 216.44356 158.53334 214.7867C158.53334 213.12985 159.87648 211.7867 161.53334 211.7867C163.19019 211.7867 164.53334 213.12985 164.53334 214.7867Z" fill-rule="nonzero"/><path fill="#000000" fill-opacity="0.0" clip-path="url(#id_0)" d="M206.525 239.48378C206.525 241.14064 205.18185 242.48378 203.525 242.48378C201.86815 242.48378 200.525 241.14064 200.525 239.48378C200.525 237.82693 201.86815 236.48378 203.525 236.48378C205.18185 236.48378 206.525 237.82693 206.525 239.48378Z" fill-rule="nonzero"/><path fill="#000000" fill-opacity="0.0" clip-path="url(#id_0)" d="M248.51666 230.00313C248.51666 231.65997 247.17352 233.00313 245.51666 233.00313C243.85982 233.00313 242.51666 231.65997 242.51666 230.00313C242.51666 228.34627 243.85982 227.00313 245.51666 227.00313C247.17352 227.00313 248.51666 228.34627 248.51666 230.00313Z" fill-rule="nonzero"/><path fill="#000000" fill-opacity="0.0" clip-path="url(#id_0)" d="M290.50833 224.30196C290.50833 225.9588 289.1652 227.30196 287.50833 227.30196C285.85147 227.30196 284.50833 225.9588 284.50833 224.30196C284.50833 222.6451 285.85147 221.30196 287.50833 221.30196C289.1652 221.30196 290.50833 222.6451 290.50833 224.30196Z" fill-rule="nonzero"/><path fill="#000000" fill-opacity="0.0" clip-path="url(#id_0)" d="M332.5 236.87317C332.5 238.53001 331.15686 239.87317 329.5 239.87317C327.84314 239.87317 326.5 238.53001 326.5 236.87317C326.5 235.21631 327.84314 233.87317 329.5 233.87317C331.15686 233.87317 332.5 235.21631 332.5 236.87317Z" fill-rule="nonzero"/><path fill="#000000" fill-opacity="0.0" clip-path="url(#id_0)" d="M374.49167 225.56398C374.49167 227.22084 373.14853 228.56398 371.49167 228.56398C369.8348 228.56398 368.49167 227.22084 368.49167 225.56398C368.49167 223.90714 369.8348 222.56398 371.49167 222.56398C373.14853 222.56398 374.49167 223.90714 374.49167 225.56398Z" fill-rule="nonzero"/><path fill="#000000" fill-opacity="0.0" clip-path="url(#id_0)" d="M416.48334 221.81406C416.48334 223.47092 415.1402 224.81406 413.48334 224.81406C411.82648 224.81406 410.48334 223.47092 410.48334 221.81406C410.48334 220.1572 411.82648 218.81406 413.48334 218.81406C415.1402 218.81406 416.48334 220.1572 416.48334 221.81406Z" fill-rule="nonzero"/><path fill="#000000" fill-opacity="0.0" clip-path="url(#id_0)" d="M458.475 234.99994C458.475 236.6568 457.13187 237.99994 455.475 237.99994C453.81815 237.99994 452.475 236.6568 452.475 234.99994C452.475 233.3431 453.81815 231.99994 455.475 231.99994C457.13187 231.99994 458.475 233.3431 458.475 234.99994Z" fill-rule="nonzero"/><path fill="#000000" fill-opacity="0.0" clip-path="url(#id_0)" d="M500.46667 229.79776C500.46667 231.4546 499.12354 232.79776 497.46667 232.79776C495.8098 232.79776 494.46667 231.4546 494.46667 229.79776C494.46667 228.1409 495.8098 226.79776 497.46667 226.79776C499.12354 226.79776 500.46667 228.1409 500.46667 229.79776Z" fill-rule="nonzero"/><path fill="#000000" fill-opacity="0.0" clip-path="url(#id_0)" d="M542.4583 216.94218C542.4583 218.59903 541.1152 219.94218 539.4583 219.94218C537.80145 219.94218 536.4583 218.59903 536.4583 216.94218C536.4583 215.28532 537.80145 213.94218 539.4583 213.94218C541.1152 213.94218 542.4583 215.28532 542.4583 216.94218Z" fill-rule="nonzero"/><path fill="#000000" fill-opacity="0.0" clip-path="url(#id_0)" d="M584.45 265.26834C584.45 266.92517 583.1069 268.26834 581.45 268.26834C579.79315 268.26834 578.45 266.92517 578.45 265.26834C578.45 263.61148 579.79315 262.26834 581.45 262.26834C583.1069 262.26834 584.45 263.61148 584.45 265.26834Z" fill-rule="nonzero"/><path fill="#000000" d="M264.59375 348.5125L264.75 349.4344Q264.29688 349.52814 263.95312 349.52814Q263.375 349.52814 263.0625 349.35626Q262.75 349.16876 262.60938 348.8719Q262.48438 348.575 262.48438 347.6219L262.48438 344.04376L261.71875 344.04376L261.71875 343.23126L262.48438 343.23126L262.48438 341.6844L263.53125 341.0594L263.53125 343.23126L264.59375 343.23126L264.59375 344.04376L263.53125 344.04376L263.53125 347.6844Q263.53125 348.1375 263.57812 348.2625Q263.64062 348.3875 263.76562 348.46564Q263.89062 348.54376 264.125 348.54376Q264.3125 348.54376 264.59375 348.5125ZM265.29688 342.075L265.29688 340.85626L266.35938 340.85626L266.35938 342.075L265.29688 342.075ZM265.29688 349.45L265.29688 343.23126L266.35938 343.23126L266.35938 349.45L265.29688 349.45ZM268.29688 349.45L268.29688 343.23126L269.23438 343.23126L269.23438 344.10626Q269.53125 343.6375 270.01562 343.3719Q270.5 343.09064 271.125 343.09064Q271.8125 343.09064 272.25 343.3719Q272.70312 343.65314 272.875 344.16876Q273.625 343.09064 274.79688 343.09064Q275.73438 343.09064 276.21875 343.60626Q276.71875 344.10626 276.71875 345.1844L276.71875 349.45L275.67188 349.45L275.67188 345.52814Q275.67188 344.90314 275.5625 344.6219Q275.46875 344.34064 275.20312 344.16876Q274.9375 343.9969 274.5625 343.9969Q273.90625 343.9969 273.46875 344.4344Q273.04688 344.8719 273.04688 345.84064L273.04688 349.45L271.98438 349.45L271.98438 345.40314Q271.98438 344.7 271.71875 344.35626Q271.46875 343.9969 270.89062 343.9969Q270.4375 343.9969 270.0625 344.23126Q269.6875 344.46564 269.51562 344.91876Q269.34375 345.3719 269.34375 346.21564L269.34375 349.45L268.29688 349.45ZM283.54688 347.45L284.64062 347.575Q284.39062 348.52814 283.6875 349.0594Q282.98438 349.59064 281.90625 349.59064Q280.54688 349.59064 279.73438 348.7469Q278.9375 347.90314 278.9375 346.3875Q278.9375 344.825 279.75 343.96564Q280.5625 343.09064 281.84375 343.09064Q283.09375 343.09064 283.875 343.9344Q284.67188 344.77814 284.67188 346.325Q284.67188 346.41876 284.67188 346.60626L280.03125 346.60626Q280.09375 347.6375 280.60938 348.1844Q281.125 348.71564 281.90625 348.71564Q282.48438 348.71564 282.89062 348.41876Q283.3125 348.10626 283.54688 347.45ZM280.09375 345.7469L283.5625 345.7469Q283.5 344.95 283.17188 344.5594Q282.65625 343.95 281.85938 343.95Q281.125 343.95 280.625 344.4344Q280.14062 344.91876 280.09375 345.7469ZM293.54688 347.45L294.64062 347.575Q294.39062 348.52814 293.6875 349.0594Q292.98438 349.59064 291.90625 349.59064Q290.54688 349.59064 289.73438 348.7469Q288.9375 347.90314 288.9375 346.3875Q288.9375 344.825 289.75 343.96564Q290.5625 343.09064 291.84375 343.09064Q293.09375 343.09064 293.875 343.9344Q294.67188 344.77814 294.67188 346.325Q294.67188 346.41876 294.67188 346.60626L290.03125 346.60626Q290.09375 347.6375 290.60938 348.1844Q291.125 348.71564 291.90625 348.71564Q292.48438 348.71564 292.89062 348.41876Q293.3125 348.10626 293.54688 347.45ZM290.09375 345.7469L293.5625 345.7469Q293.5 344.95 293.17188 344.5594Q292.65625 343.95 291.85938 343.95Q291.125 343.95 290.625 344.4344Q290.14062 344.91876 290.09375 345.7469ZM296.26562 349.45L296.26562 340.85626L297.32812 340.85626L297.32812 349.45L296.26562 349.45ZM303.35938 348.6844Q302.76562 349.1844 302.21875 349.3875Q301.6875 349.59064 301.0625 349.59064Q300.03125 349.59064 299.48438 349.09064Q298.9375 348.59064 298.9375 347.8094Q298.9375 347.35626 299.14062 346.98126Q299.34375 346.59064 299.6875 346.3719Q300.03125 346.1375 300.45312 346.02814Q300.75 345.9344 301.39062 345.85626Q302.65625 345.71564 303.26562 345.4969Q303.26562 345.27814 303.26562 345.23126Q303.26562 344.575 302.96875 344.3094Q302.5625 343.96564 301.76562 343.96564Q301.03125 343.96564 300.67188 344.23126Q300.3125 344.48126 300.14062 345.1375L299.10938 344.9969Q299.25 344.34064 299.57812 343.9344Q299.90625 343.52814 300.51562 343.3094Q301.125 343.09064 301.92188 343.09064Q302.71875 343.09064 303.21875 343.27814Q303.71875 343.46564 303.95312 343.7469Q304.1875 344.02814 304.28125 344.46564Q304.32812 344.73126 304.32812 345.4344L304.32812 346.84064Q304.32812 348.3094 304.39062 348.7Q304.46875 349.09064 304.67188 349.45L303.5625 349.45Q303.40625 349.1219 303.35938 348.6844ZM303.26562 346.325Q302.6875 346.5594 301.54688 346.73126Q300.89062 346.825 300.625 346.95Q300.35938 347.0594 300.20312 347.27814Q300.0625 347.4969 300.0625 347.77814Q300.0625 348.2 300.375 348.48126Q300.70312 348.7625 301.3125 348.7625Q301.92188 348.7625 302.39062 348.4969Q302.875 348.23126 303.09375 347.7625Q303.26562 347.40314 303.26562 346.71564L303.26562 346.325ZM306.29688 351.84064L306.29688 343.23126L307.25 343.23126L307.25 344.02814Q307.59375 343.5594 308.01562 343.325Q308.45312 343.09064 309.0625 343.09064Q309.85938 343.09064 310.46875 343.4969Q311.07812 343.90314 311.375 344.65314Q311.6875 345.40314 311.6875 346.29376Q311.6875 347.2469 311.34375 348.0125Q311.01562 348.77814 310.35938 349.1844Q309.70312 349.59064 308.98438 349.59064Q308.45312 349.59064 308.03125 349.3719Q307.60938 349.1375 307.34375 348.8094L307.34375 351.84064L306.29688 351.84064ZM307.25 346.3719Q307.25 347.575 307.73438 348.15314Q308.21875 348.71564 308.90625 348.71564Q309.60938 348.71564 310.10938 348.1219Q310.60938 347.52814 310.60938 346.27814Q310.60938 345.09064 310.125 344.5125Q309.64062 343.91876 308.95312 343.91876Q308.28125 343.91876 307.76562 344.54376Q307.25 345.16876 307.25 346.3719ZM312.875 347.59064L313.90625 347.4344Q314.0 348.0594 314.39062 348.3875Q314.79688 348.71564 315.53125 348.71564Q316.25 348.71564 316.59375 348.4344Q316.95312 348.1375 316.95312 347.73126Q316.95312 347.3719 316.64062 347.16876Q316.42188 347.02814 315.5625 346.8094Q314.40625 346.5125 313.95312 346.3094Q313.51562 346.09064 313.28125 345.71564Q313.04688 345.34064 313.04688 344.8719Q313.04688 344.46564 313.23438 344.10626Q313.42188 343.7469 313.75 343.5125Q314.0 343.34064 314.42188 343.21564Q314.84375 343.09064 315.34375 343.09064Q316.0625 343.09064 316.60938 343.3094Q317.17188 343.5125 317.4375 343.8719Q317.70312 344.23126 317.79688 344.825L316.76562 344.96564Q316.70312 344.4969 316.35938 344.23126Q316.03125 343.95 315.40625 343.95Q314.6875 343.95 314.375 344.2Q314.0625 344.4344 314.0625 344.7625Q314.0625 344.96564 314.1875 345.1219Q314.32812 345.29376 314.59375 345.40314Q314.75 345.46564 315.53125 345.66876Q316.65625 345.98126 317.09375 346.16876Q317.53125 346.35626 317.78125 346.71564Q318.03125 347.075 318.03125 347.6219Q318.03125 348.15314 317.71875 348.6219Q317.42188 349.075 316.84375 349.34064Q316.26562 349.59064 315.53125 349.59064Q314.3125 349.59064 313.67188 349.09064Q313.04688 348.575 312.875 347.59064ZM324.54688 347.45L325.64062 347.575Q325.39062 348.52814 324.6875 349.0594Q323.98438 349.59064 322.90625 349.59064Q321.54688 349.59064 320.73438 348.7469Q319.9375 347.90314 319.9375 346.3875Q319.9375 344.825 320.75 343.96564Q321.5625 343.09064 322.84375 343.09064Q324.09375 343.09064 324.875 343.9344Q325.67188 344.77814 325.67188 346.325Q325.67188 346.41876 325.67188 346.60626L321.03125 346.60626Q321.09375 347.6375 321.60938 348.1844Q322.125 348.71564 322.90625 348.71564Q323.48438 348.71564 323.89062 348.41876Q324.3125 348.10626 324.54688 347.45ZM321.09375 345.7469L324.5625 345.7469Q324.5 344.95 324.17188 344.5594Q323.65625 343.95 322.85938 343.95Q322.125 343.95 321.625 344.4344Q321.14062 344.91876 321.09375 345.7469ZM331.32812 349.45L331.32812 348.66876Q330.73438 349.59064 329.59375 349.59064Q328.84375 349.59064 328.21875 349.1844Q327.59375 348.7625 327.25 348.02814Q326.90625 347.29376 326.90625 346.34064Q326.90625 345.41876 327.21875 344.65314Q327.53125 343.8875 328.15625 343.4969Q328.78125 343.09064 329.54688 343.09064Q330.10938 343.09064 330.54688 343.325Q330.98438 343.5594 331.26562 343.9344L331.26562 340.85626L332.3125 340.85626L332.3125 349.45L331.32812 349.45ZM328.0 346.34064Q328.0 347.54376 328.5 348.1375Q329.0 348.71564 329.6875 348.71564Q330.375 348.71564 330.85938 348.15314Q331.34375 347.59064 331.34375 346.4344Q331.34375 345.15314 330.84375 344.5594Q330.35938 343.96564 329.64062 343.96564Q328.9375 343.96564 328.46875 344.54376Q328.0 345.10626 328.0 346.34064ZM337.29688 342.075L337.29688 340.85626L338.35938 340.85626L338.35938 342.075L337.29688 342.075ZM337.29688 349.45L337.29688 343.23126L338.35938 343.23126L338.35938 349.45L337.29688 349.45ZM340.29688 349.45L340.29688 343.23126L341.23438 343.23126L341.23438 344.10626Q341.92188 343.09064 343.21875 343.09064Q343.78125 343.09064 344.25 343.29376Q344.73438 343.4969 344.96875 343.825Q345.20312 344.15314 345.29688 344.59064Q345.34375 344.8875 345.34375 345.6219L345.34375 349.45L344.29688 349.45L344.29688 345.66876Q344.29688 345.0125 344.17188 344.7Q344.04688 344.3875 343.73438 344.2Q343.42188 343.9969 343.0 343.9969Q342.32812 343.9969 341.82812 344.4344Q341.34375 344.85626 341.34375 346.04376L341.34375 349.45L340.29688 349.45ZM349.875 347.59064L350.90625 347.4344Q351.0 348.0594 351.39062 348.3875Q351.79688 348.71564 352.53125 348.71564Q353.25 348.71564 353.59375 348.4344Q353.95312 348.1375 353.95312 347.73126Q353.95312 347.3719 353.64062 347.16876Q353.42188 347.02814 352.5625 346.8094Q351.40625 346.5125 350.95312 346.3094Q350.51562 346.09064 350.28125 345.71564Q350.04688 345.34064 350.04688 344.8719Q350.04688 344.46564 350.23438 344.10626Q350.42188 343.7469 350.75 343.5125Q351.0 343.34064 351.42188 343.21564Q351.84375 343.09064 352.34375 343.09064Q353.0625 343.09064 353.60938 343.3094Q354.17188 343.5125 354.4375 343.8719Q354.70312 344.23126 354.79688 344.825L353.76562 344.96564Q353.70312 344.4969 353.35938 344.23126Q353.03125 343.95 352.40625 343.95Q351.6875 343.95 351.375 344.2Q351.0625 344.4344 351.0625 344.7625Q351.0625 344.96564 351.1875 345.1219Q351.32812 345.29376 351.59375 345.40314Q351.75 345.46564 352.53125 345.66876Q353.65625 345.98126 354.09375 346.16876Q354.53125 346.35626 354.78125 346.71564Q355.03125 347.075 355.03125 347.6219Q355.03125 348.15314 354.71875 348.6219Q354.42188 349.075 353.84375 349.34064Q353.26562 349.59064 352.53125 349.59064Q351.3125 349.59064 350.67188 349.09064Q350.04688 348.575 349.875 347.59064ZM361.54688 347.45L362.64062 347.575Q362.39062 348.52814 361.6875 349.0594Q360.98438 349.59064 359.90625 349.59064Q358.54688 349.59064 357.73438 348.7469Q356.9375 347.90314 356.9375 346.3875Q356.9375 344.825 357.75 343.96564Q358.5625 343.09064 359.84375 343.09064Q361.09375 343.09064 361.875 343.9344Q362.67188 344.77814 362.67188 346.325Q362.67188 346.41876 362.67188 346.60626L358.03125 346.60626Q358.09375 347.6375 358.60938 348.1844Q359.125 348.71564 359.90625 348.71564Q360.48438 348.71564 360.89062 348.41876Q361.3125 348.10626 361.54688 347.45ZM358.09375 345.7469L361.5625 345.7469Q361.5 344.95 361.17188 344.5594Q360.65625 343.95 359.85938 343.95Q359.125 343.95 358.625 344.4344Q358.14062 344.91876 358.09375 345.7469ZM368.35938 347.16876L369.39062 347.3094Q369.21875 348.3719 368.51562 348.98126Q367.8125 349.59064 366.79688 349.59064Q365.51562 349.59064 364.73438 348.7625Q363.96875 347.91876 363.96875 346.35626Q363.96875 345.35626 364.29688 344.60626Q364.64062 343.84064 365.3125 343.46564Q366.0 343.09064 366.8125 343.09064Q367.8125 343.09064 368.45312 343.60626Q369.10938 344.10626 369.29688 345.0594L368.26562 345.21564Q368.125 344.59064 367.75 344.27814Q367.375 343.95 366.84375 343.95Q366.04688 343.95 365.54688 344.52814Q365.04688 345.09064 365.04688 346.325Q365.04688 347.59064 365.53125 348.15314Q366.01562 348.71564 366.78125 348.71564Q367.40625 348.71564 367.8125 348.34064Q368.23438 347.96564 368.35938 347.16876ZM369.90625 346.34064Q369.90625 344.60626 370.85938 343.77814Q371.65625 343.09064 372.8125 343.09064Q374.09375 343.09064 374.90625 343.9344Q375.73438 344.7625 375.73438 346.2469Q375.73438 347.45 375.375 348.1375Q375.01562 348.825 374.3125 349.21564Q373.625 349.59064 372.8125 349.59064Q371.51562 349.59064 370.70312 348.7625Q369.90625 347.91876 369.90625 346.34064ZM370.98438 346.34064Q370.98438 347.52814 371.5 348.1219Q372.03125 348.71564 372.8125 348.71564Q373.60938 348.71564 374.125 348.1219Q374.64062 347.52814 374.64062 346.3094Q374.64062 345.15314 374.10938 344.5594Q373.59375 343.96564 372.8125 343.96564Q372.03125 343.96564 371.5 344.5594Q370.98438 345.1375 370.98438 346.34064ZM377.29688 349.45L377.29688 343.23126L378.23438 343.23126L378.23438 344.10626Q378.92188 343.09064 380.21875 343.09064Q380.78125 343.09064 381.25 343.29376Q381.73438 343.4969 381.96875 343.825Q382.20312 344.15314 382.29688 344.59064Q382.34375 344.8875 382.34375 345.6219L382.34375 349.45L381.29688 349.45L381.29688 345.66876Q381.29688 345.0125 381.17188 344.7Q381.04688 344.3875 380.73438 344.2Q380.42188 343.9969 380.0 343.9969Q379.32812 343.9969 378.82812 344.4344Q378.34375 344.85626 378.34375 346.04376L378.34375 349.45L377.29688 349.45ZM388.32812 349.45L388.32812 348.66876Q387.73438 349.59064 386.59375 349.59064Q385.84375 349.59064 385.21875 349.1844Q384.59375 348.7625 384.25 348.02814Q383.90625 347.29376 383.90625 346.34064Q383.90625 345.41876 384.21875 344.65314Q384.53125 343.8875 385.15625 343.4969Q385.78125 343.09064 386.54688 343.09064Q387.10938 343.09064 387.54688 343.325Q387.98438 343.5594 388.26562 343.9344L388.26562 340.85626L389.3125 340.85626L389.3125 349.45L388.32812 349.45ZM385.0 346.34064Q385.0 347.54376 385.5 348.1375Q386.0 348.71564 386.6875 348.71564Q387.375 348.71564 387.85938 348.15314Q388.34375 347.59064 388.34375 346.4344Q388.34375 345.15314 387.84375 344.5594Q387.35938 343.96564 386.64062 343.96564Q385.9375 343.96564 385.46875 344.54376Q385.0 345.10626 385.0 346.34064ZM390.875 347.59064L391.90625 347.4344Q392.0 348.0594 392.39062 348.3875Q392.79688 348.71564 393.53125 348.71564Q394.25 348.71564 394.59375 348.4344Q394.95312 348.1375 394.95312 347.73126Q394.95312 347.3719 394.64062 347.16876Q394.42188 347.02814 393.5625 346.8094Q392.40625 346.5125 391.95312 346.3094Q391.51562 346.09064 391.28125 345.71564Q391.04688 345.34064 391.04688 344.8719Q391.04688 344.46564 391.23438 344.10626Q391.42188 343.7469 391.75 343.5125Q392.0 343.34064 392.42188 343.21564Q392.84375 343.09064 393.34375 343.09064Q394.0625 343.09064 394.60938 343.3094Q395.17188 343.5125 395.4375 343.8719Q395.70312 344.23126 395.79688 344.825L394.76562 344.96564Q394.70312 344.4969 394.35938 344.23126Q394.03125 343.95 393.40625 343.95Q392.6875 343.95 392.375 344.2Q392.0625 344.4344 392.0625 344.7625Q392.0625 344.96564 392.1875 345.1219Q392.32812 345.29376 392.59375 345.40314Q392.75 345.46564 393.53125 345.66876Q394.65625 345.98126 395.09375 346.16876Q395.53125 346.35626 395.78125 346.71564Q396.03125 347.075 396.03125 347.6219Q396.03125 348.15314 395.71875 348.6219Q395.42188 349.075 394.84375 349.34064Q394.26562 349.59064 393.53125 349.59064Q392.3125 349.59064 391.67188 349.09064Q391.04688 348.575 390.875 347.59064Z" fill-rule="nonzero"/><path fill="#000000" d="M29.550013 213.85104L23.331263 216.21042L23.331263 215.10104L27.050013 213.7573Q27.659388 213.55417 28.300013 213.36667Q27.815638 213.22604 27.128138 212.97604L23.331263 211.58542L23.331263 210.5073L29.550013 212.86667L29.550013 213.85104ZM26.534388 204.30417L26.831263 203.17917Q28.221888 203.53854 28.956263 204.46042Q29.690638 205.3823 29.690638 206.72604Q29.690638 208.11667 29.128138 208.99167Q28.565638 209.86667 27.503138 210.3198Q26.425013 210.77292 25.190638 210.77292Q23.846888 210.77292 22.846888 210.2573Q21.846888 209.74167 21.331263 208.80417Q20.815638 207.85104 20.815638 206.71042Q20.815638 205.42917 21.471888 204.55417Q22.128138 203.66354 23.315638 203.3198L23.581263 204.4448Q22.643763 204.74167 22.221888 205.3198Q21.784388 205.8823 21.784388 206.74167Q21.784388 207.72604 22.268763 208.39792Q22.737513 209.05417 23.534388 209.33542Q24.331263 209.60104 25.190638 209.60104Q26.284388 209.60104 27.096888 209.28854Q27.909388 208.96042 28.315638 208.28854Q28.721888 207.61667 28.721888 206.8198Q28.721888 205.86667 28.175013 205.21042Q27.628138 204.53854 26.534388 204.30417ZM29.550013 201.4448L20.956263 201.4448L20.956263 198.1948Q20.956263 197.35104 21.034388 196.89792Q21.143763 196.2573 21.440638 195.83542Q21.737513 195.39792 22.268763 195.14792Q22.800013 194.8823 23.440638 194.8823Q24.534388 194.8823 25.300013 195.58542Q26.050013 196.27292 26.050013 198.10104L26.050013 200.30417L29.550013 200.30417L29.550013 201.4448ZM25.050013 200.30417L25.050013 198.08542Q25.050013 196.97604 24.643763 196.52292Q24.221888 196.05417 23.471888 196.05417Q22.940638 196.05417 22.565638 196.33542Q22.175013 196.60104 22.050013 197.03854Q21.971888 197.33542 21.971888 198.10104L21.971888 200.30417L25.050013 200.30417ZM20.956263 187.80417L20.956263 186.66354L25.925013 186.66354Q27.221888 186.66354 27.987513 186.96042Q28.737513 187.2573 29.221888 188.02292Q29.690638 188.78854 29.690638 190.02292Q29.690638 191.22604 29.284388 192.0073Q28.862513 192.77292 28.081263 193.10104Q27.284388 193.42917 25.925013 193.42917L20.956263 193.42917L20.956263 192.28854L25.909388 192.28854Q27.034388 192.28854 27.565638 192.08542Q28.096888 191.86667 28.393763 191.36667Q28.675013 190.85104 28.675013 190.11667Q28.675013 188.86667 28.112513 188.33542Q27.534388 187.80417 25.909388 187.80417L20.956263 187.80417Z" fill-rule="nonzero"/><path fill="#000000" d="M55.05 300.21564Q55.05 298.6844 55.3625 297.7625Q55.675 296.825 56.284374 296.325Q56.909374 295.825 57.846874 295.825Q58.534374 295.825 59.05 296.10626Q59.58125 296.3875 59.925 296.91876Q60.26875 297.4344 60.45625 298.1844Q60.64375 298.9344 60.64375 300.21564Q60.64375 301.73126 60.33125 302.65314Q60.034374 303.575 59.409374 304.09064Q58.8 304.59064 57.846874 304.59064Q56.6125 304.59064 55.89375 303.7Q55.05 302.6375 55.05 300.21564ZM56.128124 300.21564Q56.128124 302.325 56.628124 303.02814Q57.128124 303.73126 57.846874 303.73126Q58.58125 303.73126 59.065624 303.02814Q59.565624 302.325 59.565624 300.21564Q59.565624 298.09064 59.065624 297.40314Q58.58125 296.7 57.83125 296.7Q57.1125 296.7 56.675 297.3094Q56.128124 298.09064 56.128124 300.21564ZM62.64375 304.45L62.64375 303.2469L63.846874 303.2469L63.846874 304.45L62.64375 304.45ZM65.05 300.21564Q65.05 298.6844 65.3625 297.7625Q65.675 296.825 66.28438 296.325Q66.90938 295.825 67.84688 295.825Q68.53438 295.825 69.05 296.10626Q69.58125 296.3875 69.925 296.91876Q70.26875 297.4344 70.45625 298.1844Q70.64375 298.9344 70.64375 300.21564Q70.64375 301.73126 70.33125 302.65314Q70.03438 303.575 69.40938 304.09064Q68.8 304.59064 67.84688 304.59064Q66.6125 304.59064 65.89375 303.7Q65.05 302.6375 65.05 300.21564ZM66.12813 300.21564Q66.12813 302.325 66.62813 303.02814Q67.12813 303.73126 67.84688 303.73126Q68.58125 303.73126 69.06563 303.02814Q69.56563 302.325 69.56563 300.21564Q69.56563 298.09064 69.06563 297.40314Q68.58125 296.7 67.83125 296.7Q67.1125 296.7 66.675 297.3094Q66.12813 298.09064 66.12813 300.21564Z" fill-rule="nonzero"/><path fill="#000000" d="M55.05 229.49341Q55.05 227.96216 55.3625 227.04028Q55.675 226.10278 56.284374 225.60278Q56.909374 225.10278 57.846874 225.10278Q58.534374 225.10278 59.05 225.38403Q59.58125 225.66528 59.925 226.19653Q60.26875 226.71216 60.45625 227.46216Q60.64375 228.21216 60.64375 229.49341Q60.64375 231.00903 60.33125 231.93091Q60.034374 232.85278 59.409374 233.36841Q58.8 233.86841 57.846874 233.86841Q56.6125 233.86841 55.89375 232.97778Q55.05 231.91528 55.05 229.49341ZM56.128124 229.49341Q56.128124 231.60278 56.628124 232.30591Q57.128124 233.00903 57.846874 233.00903Q58.58125 233.00903 59.065624 232.30591Q59.565624 231.60278 59.565624 229.49341Q59.565624 227.36841 59.065624 226.68091Q58.58125 225.97778 57.83125 225.97778Q57.1125 225.97778 56.675 226.58716Q56.128124 227.36841 56.128124 229.49341ZM62.64375 233.72778L62.64375 232.52466L63.846874 232.52466L63.846874 233.72778L62.64375 233.72778ZM65.05 231.47778L66.15938 231.38403Q66.28438 232.19653 66.72188 232.60278Q67.175 233.00903 67.81563 233.00903Q68.56563 233.00903 69.09688 232.43091Q69.62813 231.85278 69.62813 230.91528Q69.62813 230.00903 69.1125 229.49341Q68.6125 228.96216 67.78438 228.96216Q67.28438 228.96216 66.8625 229.19653Q66.45625 229.43091 66.22188 229.79028L65.2375 229.66528L66.06563 225.25903L70.34688 225.25903L70.34688 226.25903L66.90938 226.25903L66.45625 228.57153Q67.22188 228.02466 68.06563 228.02466Q69.19063 228.02466 69.95625 228.80591Q70.7375 229.58716 70.7375 230.82153Q70.7375 231.97778 70.06563 232.83716Q69.2375 233.86841 67.81563 233.86841Q66.64375 233.86841 65.89375 233.21216Q65.15938 232.55591 65.05 231.47778Z" fill-rule="nonzero"/><path fill="#000000" d="M59.01875 163.00555L57.971874 163.00555L57.971874 156.2868Q57.58125 156.64618 56.95625 157.02118Q56.346874 157.38055 55.8625 157.55243L55.8625 156.5368Q56.7375 156.11493 57.39375 155.5368Q58.065624 154.94305 58.346874 154.38055L59.01875 154.38055L59.01875 163.00555ZM62.64375 163.00555L62.64375 161.80243L63.846874 161.80243L63.846874 163.00555L62.64375 163.00555ZM65.05 158.77118Q65.05 157.23993 65.3625 156.31805Q65.675 155.38055 66.28438 154.88055Q66.90938 154.38055 67.84688 154.38055Q68.53438 154.38055 69.05 154.6618Q69.58125 154.94305 69.925 155.4743Q70.26875 155.98993 70.45625 156.73993Q70.64375 157.48993 70.64375 158.77118Q70.64375 160.2868 70.33125 161.20868Q70.03438 162.13055 69.40938 162.64618Q68.8 163.14618 67.84688 163.14618Q66.6125 163.14618 65.89375 162.25555Q65.05 161.19305 65.05 158.77118ZM66.12813 158.77118Q66.12813 160.88055 66.62813 161.58368Q67.12813 162.2868 67.84688 162.2868Q68.58125 162.2868 69.06563 161.58368Q69.56563 160.88055 69.56563 158.77118Q69.56563 156.64618 69.06563 155.95868Q68.58125 155.25555 67.83125 155.25555Q67.1125 155.25555 66.675 155.86493Q66.12813 156.64618 66.12813 158.77118Z" fill-rule="nonzero"/><path fill="#000000" d="M59.01875 92.28333L57.971874 92.28333L57.971874 85.56458Q57.58125 85.92396 56.95625 86.29896Q56.346874 86.65833 55.8625 86.83021L55.8625 85.81458Q56.7375 85.39271 57.39375 84.81458Q58.065624 84.22083 58.346874 83.65833L59.01875 83.65833L59.01875 92.28333ZM62.64375 92.28333L62.64375 91.08021L63.846874 91.08021L63.846874 92.28333L62.64375 92.28333ZM65.05 90.03333L66.15938 89.93958Q66.28438 90.75208 66.72188 91.15833Q67.175 91.56458 67.81563 91.56458Q68.56563 91.56458 69.09688 90.98646Q69.62813 90.40833 69.62813 89.47083Q69.62813 88.56458 69.1125 88.04896Q68.6125 87.51771 67.78438 87.51771Q67.28438 87.51771 66.8625 87.75208Q66.45625 87.98646 66.22188 88.34583L65.2375 88.22083L66.06563 83.81458L70.34688 83.81458L70.34688 84.81458L66.90938 84.81458L66.45625 87.12708Q67.22188 86.58021 68.06563 86.58021Q69.19063 86.58021 69.95625 87.36146Q70.7375 88.14271 70.7375 89.37708Q70.7375 90.53333 70.06563 91.39271Q69.2375 92.42396 67.81563 92.42396Q66.64375 92.42396 65.89375 91.76771Q65.15938 91.11146 65.05 90.03333Z" fill-rule="nonzero"/><path fill="#000000" d="M74.55 313.21564Q74.55 311.6844 74.8625 310.7625Q75.175 309.825 75.78438 309.325Q76.40938 308.825 77.34688 308.825Q78.03438 308.825 78.55 309.10626Q79.08125 309.3875 79.425 309.91876Q79.76875 310.4344 79.95625 311.1844Q80.14375 311.9344 80.14375 313.21564Q80.14375 314.73126 79.83125 315.65314Q79.53438 316.575 78.90938 317.09064Q78.3 317.59064 77.34688 317.59064Q76.1125 317.59064 75.39375 316.7Q74.55 315.6375 74.55 313.21564ZM75.62813 313.21564Q75.62813 315.325 76.12813 316.02814Q76.62813 316.73126 77.34688 316.73126Q78.08125 316.73126 78.56563 316.02814Q79.06563 315.325 79.06563 313.21564Q79.06563 311.09064 78.56563 310.40314Q78.08125 309.7 77.33125 309.7Q76.6125 309.7 76.175 310.3094Q75.62813 311.09064 75.62813 313.21564Z" fill-rule="nonzero"/><path fill="#000000" d="M211.49097 317.45L210.44409 317.45L210.44409 310.73126Q210.05347 311.09064 209.42847 311.46564Q208.81909 311.825 208.33472 311.9969L208.33472 310.98126Q209.20972 310.5594 209.86597 309.98126Q210.53784 309.3875 210.81909 308.825L211.49097 308.825L211.49097 317.45ZM214.52222 313.21564Q214.52222 311.6844 214.83472 310.7625Q215.14722 309.825 215.75659 309.325Q216.38159 308.825 217.31909 308.825Q218.00659 308.825 218.52222 309.10626Q219.05347 309.3875 219.39722 309.91876Q219.74097 310.4344 219.92847 311.1844Q220.11597 311.9344 220.11597 313.21564Q220.11597 314.73126 219.80347 315.65314Q219.50659 316.575 218.88159 317.09064Q218.27222 317.59064 217.31909 317.59064Q216.08472 317.59064 215.36597 316.7Q214.52222 315.6375 214.52222 313.21564ZM215.60034 313.21564Q215.60034 315.325 216.10034 316.02814Q216.60034 316.73126 217.31909 316.73126Q218.05347 316.73126 218.53784 316.02814Q219.03784 315.325 219.03784 313.21564Q219.03784 311.09064 218.53784 310.40314Q218.05347 309.7 217.30347 309.7Q216.58472 309.7 216.14722 310.3094Q215.60034 311.09064 215.60034 313.21564ZM221.52222 313.21564Q221.52222 311.6844 221.83472 310.7625Q222.14722 309.825 222.75659 309.325Q223.38159 308.825 224.31909 308.825Q225.00659 308.825 225.52222 309.10626Q226.05347 309.3875 226.39722 309.91876Q226.74097 310.4344 226.92847 311.1844Q227.11597 311.9344 227.11597 313.21564Q227.11597 314.73126 226.80347 315.65314Q226.50659 316.575 225.88159 317.09064Q225.27222 317.59064 224.31909 317.59064Q223.08472 317.59064 222.36597 316.7Q221.52222 315.6375 221.52222 313.21564ZM222.60034 313.21564Q222.60034 315.325 223.10034 316.02814Q223.60034 316.73126 224.31909 316.73126Q225.05347 316.73126 225.53784 316.02814Q226.03784 315.325 226.03784 313.21564Q226.03784 311.09064 225.53784 310.40314Q225.05347 309.7 224.30347 309.7Q223.58472 309.7 223.14722 310.3094Q222.60034 311.09064 222.60034 313.21564Z" fill-rule="nonzero"/><path fill="#000000" d="M353.04132 316.4344L353.04132 317.45L347.35382 317.45Q347.35382 317.075 347.47882 316.71564Q347.69757 316.1375 348.16632 315.575Q348.6507 315.0125 349.55695 314.27814Q350.9632 313.1219 351.44757 312.45Q351.94757 311.77814 351.94757 311.1844Q351.94757 310.5594 351.49445 310.1375Q351.04132 309.7 350.32257 309.7Q349.55695 309.7 349.10382 310.15314Q348.6507 310.60626 348.63507 311.41876L347.55695 311.3094Q347.66632 310.09064 348.38507 309.46564Q349.11945 308.825 350.35382 308.825Q351.5882 308.825 352.30695 309.5125Q353.0257 310.2 353.0257 311.21564Q353.0257 311.73126 352.80695 312.23126Q352.60382 312.71564 352.10382 313.27814Q351.61945 313.825 350.49445 314.77814Q349.54132 315.575 349.26007 315.8719Q348.99445 316.15314 348.82257 316.4344L353.04132 316.4344ZM354.49445 313.21564Q354.49445 311.6844 354.80695 310.7625Q355.11945 309.825 355.72882 309.325Q356.35382 308.825 357.29132 308.825Q357.97882 308.825 358.49445 309.10626Q359.0257 309.3875 359.36945 309.91876Q359.7132 310.4344 359.9007 311.1844Q360.0882 311.9344 360.0882 313.21564Q360.0882 314.73126 359.7757 315.65314Q359.47882 316.575 358.85382 317.09064Q358.24445 317.59064 357.29132 317.59064Q356.05695 317.59064 355.3382 316.7Q354.49445 315.6375 354.49445 313.21564ZM355.57257 313.21564Q355.57257 315.325 356.07257 316.02814Q356.57257 316.73126 357.29132 316.73126Q358.0257 316.73126 358.51007 316.02814Q359.01007 315.325 359.01007 313.21564Q359.01007 311.09064 358.51007 310.40314Q358.0257 309.7 357.2757 309.7Q356.55695 309.7 356.11945 310.3094Q355.57257 311.09064 355.57257 313.21564ZM361.49445 313.21564Q361.49445 311.6844 361.80695 310.7625Q362.11945 309.825 362.72882 309.325Q363.35382 308.825 364.29132 308.825Q364.97882 308.825 365.49445 309.10626Q366.0257 309.3875 366.36945 309.91876Q366.7132 310.4344 366.9007 311.1844Q367.0882 311.9344 367.0882 313.21564Q367.0882 314.73126 366.7757 315.65314Q366.47882 316.575 365.85382 317.09064Q365.24445 317.59064 364.29132 317.59064Q363.05695 317.59064 362.3382 316.7Q361.49445 315.6375 361.49445 313.21564ZM362.57257 313.21564Q362.57257 315.325 363.07257 316.02814Q363.57257 316.73126 364.29132 316.73126Q365.0257 316.73126 365.51007 316.02814Q366.01007 315.325 366.01007 313.21564Q366.01007 311.09064 365.51007 310.40314Q365.0257 309.7 364.2757 309.7Q363.55695 309.7 363.11945 310.3094Q362.57257 311.09064 362.57257 313.21564Z" fill-rule="nonzero"/><path fill="#000000" d="M487.46667 315.1844L488.52917 315.04376Q488.70105 315.9344 489.13855 316.34064Q489.57605 316.73126 490.20105 316.73126Q490.95105 316.73126 491.46667 316.21564Q491.9823 315.7 491.9823 314.9344Q491.9823 314.21564 491.49792 313.7469Q491.02917 313.2625 490.2948 313.2625Q489.99792 313.2625 489.5448 313.3875L489.6698 312.45Q489.77917 312.46564 489.84167 312.46564Q490.51355 312.46564 491.0448 312.1219Q491.59167 311.7625 491.59167 311.02814Q491.59167 310.45 491.20105 310.075Q490.81042 309.6844 490.18542 309.6844Q489.57605 309.6844 489.15417 310.075Q488.74792 310.46564 488.63855 311.23126L487.57605 311.04376Q487.76355 309.9969 488.45105 309.41876Q489.13855 308.825 490.15417 308.825Q490.8573 308.825 491.45105 309.1375Q492.0448 309.4344 492.3573 309.95Q492.6698 310.46564 492.6698 311.0594Q492.6698 311.60626 492.37292 312.075Q492.07605 312.52814 491.49792 312.79376Q492.24792 312.96564 492.6698 313.52814Q493.09167 314.075 493.09167 314.91876Q493.09167 316.04376 492.26355 316.825Q491.45105 317.60626 490.20105 317.60626Q489.07605 317.60626 488.32605 316.9344Q487.57605 316.2469 487.46667 315.1844ZM494.46667 313.21564Q494.46667 311.6844 494.77917 310.7625Q495.09167 309.825 495.70105 309.325Q496.32605 308.825 497.26355 308.825Q497.95105 308.825 498.46667 309.10626Q498.99792 309.3875 499.34167 309.91876Q499.68542 310.4344 499.87292 311.1844Q500.06042 311.9344 500.06042 313.21564Q500.06042 314.73126 499.74792 315.65314Q499.45105 316.575 498.82605 317.09064Q498.21667 317.59064 497.26355 317.59064Q496.02917 317.59064 495.31042 316.7Q494.46667 315.6375 494.46667 313.21564ZM495.5448 313.21564Q495.5448 315.325 496.0448 316.02814Q496.5448 316.73126 497.26355 316.73126Q497.99792 316.73126 498.4823 316.02814Q498.9823 315.325 498.9823 313.21564Q498.9823 311.09064 498.4823 310.40314Q497.99792 309.7 497.24792 309.7Q496.52917 309.7 496.09167 310.3094Q495.5448 311.09064 495.5448 313.21564ZM501.46667 313.21564Q501.46667 311.6844 501.77917 310.7625Q502.09167 309.825 502.70105 309.325Q503.32605 308.825 504.26355 308.825Q504.95105 308.825 505.46667 309.10626Q505.99792 309.3875 506.34167 309.91876Q506.68542 310.4344 506.87292 311.1844Q507.06042 311.9344 507.06042 313.21564Q507.06042 314.73126 506.74792 315.65314Q506.45105 316.575 505.82605 317.09064Q505.21667 317.59064 504.26355 317.59064Q503.02917 317.59064 502.31042 316.7Q501.46667 315.6375 501.46667 313.21564ZM502.5448 313.21564Q502.5448 315.325 503.0448 316.02814Q503.5448 316.73126 504.26355 316.73126Q504.99792 316.73126 505.4823 316.02814Q505.9823 315.325 505.9823 313.21564Q505.9823 311.09064 505.4823 310.40314Q504.99792 309.7 504.24792 309.7Q503.52917 309.7 503.09167 310.3094Q502.5448 311.09064 502.5448 313.21564Z" fill-rule="nonzero"/><path stroke="#4285f4" stroke-width="4.0" stroke-linecap="butt" d="M230.0 61.916668L242.0 61.916668" fill-rule="nonzero"/><path fill="#1a1a1a" d="M250.79688 65.916664L250.79688 57.322914L251.85938 57.322914L251.85938 62.229164L254.34375 59.697914L255.71875 59.697914L253.32812 61.99479L255.95312 65.916664L254.65625 65.916664L252.59375 62.729164L251.85938 63.447914L251.85938 65.916664L250.79688 65.916664ZM256.5 63.65104L257.5625 63.510414Q257.73438 64.40104 258.17188 64.80729Q258.60938 65.197914 259.23438 65.197914Q259.98438 65.197914 260.5 64.68229Q261.01562 64.166664 261.01562 63.40104Q261.01562 62.68229 260.53125 62.21354Q260.0625 61.729164 259.32812 61.729164Q259.03125 61.729164 258.57812 61.854164L258.70312 60.916664Q258.8125 60.93229 258.875 60.93229Q259.54688 60.93229 260.07812 60.58854Q260.625 60.229164 260.625 59.49479Q260.625 58.916664 260.23438 58.541664Q259.84375 58.15104 259.21875 58.15104Q258.60938 58.15104 258.1875 58.541664Q257.78125 58.93229 257.67188 59.697914L256.60938 59.510414Q256.79688 58.46354 257.48438 57.885414Q258.17188 57.291664 259.1875 57.291664Q259.89062 57.291664 260.48438 57.604164Q261.07812 57.90104 261.39062 58.416664Q261.70312 58.93229 261.70312 59.52604Q261.70312 60.072914 261.40625 60.541664Q261.10938 60.99479 260.53125 61.260414Q261.28125 61.43229 261.70312 61.99479Q262.125 62.541664 262.125 63.385414Q262.125 64.510414 261.29688 65.291664Q260.48438 66.072914 259.23438 66.072914Q258.10938 66.072914 257.35938 65.40104Q256.60938 64.71354 256.5 63.65104ZM263.375 64.05729L264.40625 63.90104Q264.5 64.52604 264.89062 64.854164Q265.29688 65.18229 266.03125 65.18229Q266.75 65.18229 267.09375 64.90104Q267.45312 64.604164 267.45312 64.197914Q267.45312 63.83854 267.14062 63.635414Q266.92188 63.49479 266.0625 63.27604Q264.90625 62.979164 264.45312 62.77604Q264.01562 62.55729 263.78125 62.18229Q263.54688 61.80729 263.54688 61.33854Q263.54688 60.93229 263.73438 60.572914Q263.92188 60.21354 264.25 59.979164Q264.5 59.80729 264.92188 59.68229Q265.34375 59.55729 265.84375 59.55729Q266.5625 59.55729 267.10938 59.77604Q267.67188 59.979164 267.9375 60.33854Q268.20312 60.697914 268.29688 61.291664L267.26562 61.43229Q267.20312 60.96354 266.85938 60.697914Q266.53125 60.416664 265.90625 60.416664Q265.1875 60.416664 264.875 60.666664Q264.5625 60.90104 264.5625 61.229164Q264.5625 61.43229 264.6875 61.58854Q264.82812 61.760414 265.09375 61.86979Q265.25 61.93229 266.03125 62.135414Q267.15625 62.447914 267.59375 62.635414Q268.03125 62.822914 268.28125 63.18229Q268.53125 63.541664 268.53125 64.08854Q268.53125 64.61979 268.21875 65.08854Q267.92188 65.541664 267.34375 65.80729Q266.76562 66.05729 266.03125 66.05729Q264.8125 66.05729 264.17188 65.55729Q263.54688 65.041664 263.375 64.05729ZM273.79688 68.30729L273.79688 59.697914L274.75 59.697914L274.75 60.49479Q275.09375 60.02604 275.51562 59.791664Q275.95312 59.55729 276.5625 59.55729Q277.35938 59.55729 277.96875 59.96354Q278.57812 60.36979 278.875 61.11979Q279.1875 61.86979 279.1875 62.760414Q279.1875 63.71354 278.84375 64.479164Q278.51562 65.24479 277.85938 65.65104Q277.20312 66.05729 276.48438 66.05729Q275.95312 66.05729 275.53125 65.83854Q275.10938 65.604164 274.84375 65.27604L274.84375 68.30729L273.79688 68.30729ZM274.75 62.83854Q274.75 64.041664 275.23438 64.61979Q275.71875 65.18229 276.40625 65.18229Q277.10938 65.18229 277.60938 64.58854Q278.10938 63.99479 278.10938 62.74479Q278.10938 61.55729 277.625 60.979164Q277.14062 60.385414 276.45312 60.385414Q275.78125 60.385414 275.26562 61.010414Q274.75 61.635414 274.75 62.83854ZM280.78125 65.916664L280.78125 59.697914L281.73438 59.697914L281.73438 60.635414Q282.09375 59.979164 282.39062 59.77604Q282.70312 59.55729 283.07812 59.55729Q283.60938 59.55729 284.15625 59.885414L283.79688 60.86979Q283.40625 60.635414 283.03125 60.635414Q282.67188 60.635414 282.39062 60.854164Q282.125 61.05729 282.01562 61.43229Q281.82812 61.99479 281.82812 62.65104L281.82812 65.916664L280.78125 65.916664ZM284.40625 62.80729Q284.40625 61.072914 285.35938 60.24479Q286.15625 59.55729 287.3125 59.55729Q288.59375 59.55729 289.40625 60.40104Q290.23438 61.229164 290.23438 62.71354Q290.23438 63.916664 289.875 64.604164Q289.51562 65.291664 288.8125 65.68229Q288.125 66.05729 287.3125 66.05729Q286.01562 66.05729 285.20312 65.229164Q284.40625 64.385414 284.40625 62.80729ZM285.48438 62.80729Q285.48438 63.99479 286.0 64.58854Q286.53125 65.18229 287.3125 65.18229Q288.10938 65.18229 288.625 64.58854Q289.14062 63.99479 289.14062 62.77604Q289.14062 61.61979 288.60938 61.02604Q288.09375 60.43229 287.3125 60.43229Q286.53125 60.43229 286.0 61.02604Q285.48438 61.604164 285.48438 62.80729ZM294.5 63.65104L295.5625 63.510414Q295.73438 64.40104 296.17188 64.80729Q296.60938 65.197914 297.23438 65.197914Q297.98438 65.197914 298.5 64.68229Q299.01562 64.166664 299.01562 63.40104Q299.01562 62.68229 298.53125 62.21354Q298.0625 61.729164 297.32812 61.729164Q297.03125 61.729164 296.57812 61.854164L296.70312 60.916664Q296.8125 60.93229 296.875 60.93229Q297.54688 60.93229 298.07812 60.58854Q298.625 60.229164 298.625 59.49479Q298.625 58.916664 298.23438 58.541664Q297.84375 58.15104 297.21875 58.15104Q296.60938 58.15104 296.1875 58.541664Q295.78125 58.93229 295.67188 59.697914L294.60938 59.510414Q294.79688 58.46354 295.48438 57.885414Q296.17188 57.291664 297.1875 57.291664Q297.89062 57.291664 298.48438 57.604164Q299.07812 57.90104 299.39062 58.416664Q299.70312 58.93229 299.70312 59.52604Q299.70312 60.072914 299.40625 60.541664Q299.10938 60.99479 298.53125 61.260414Q299.28125 61.43229 299.70312 61.99479Q300.125 62.541664 300.125 63.385414Q300.125 64.510414 299.29688 65.291664Q298.48438 66.072914 297.23438 66.072914Q296.10938 66.072914 295.35938 65.40104Q294.60938 64.71354 294.5 63.65104Z" fill-rule="nonzero"/><path stroke="#ea4335" stroke-width="4.0" stroke-linecap="butt" d="M320.0 61.916668L332.0 61.916668" fill-rule="nonzero"/><path fill="#1a1a1a" d="M340.79688 65.916664L340.79688 57.322914L341.85938 57.322914L341.85938 62.229164L344.34375 59.697914L345.71875 59.697914L343.32812 61.99479L345.95312 65.916664L344.65625 65.916664L342.59375 62.729164L341.85938 63.447914L341.85938 65.916664L340.79688 65.916664ZM348.125 61.260414Q347.46875 61.010414 347.14062 60.572914Q346.82812 60.11979 346.82812 59.510414Q346.82812 58.572914 347.5 57.93229Q348.1875 57.291664 349.29688 57.291664Q350.42188 57.291664 351.10938 57.947914Q351.79688 58.604164 351.79688 59.541664Q351.79688 60.135414 351.48438 60.572914Q351.17188 61.010414 350.53125 61.260414Q351.32812 61.510414 351.73438 62.08854Q352.14062 62.666664 352.14062 63.46354Q352.14062 64.55729 351.35938 65.30729Q350.59375 66.05729 349.3125 66.05729Q348.04688 66.05729 347.26562 65.30729Q346.48438 64.55729 346.48438 63.43229Q346.48438 62.58854 346.90625 62.02604Q347.34375 61.46354 348.125 61.260414ZM347.90625 59.46354Q347.90625 60.072914 348.29688 60.46354Q348.70312 60.854164 349.32812 60.854164Q349.9375 60.854164 350.32812 60.479164Q350.71875 60.08854 350.71875 59.52604Q350.71875 58.947914 350.3125 58.55729Q349.90625 58.15104 349.3125 58.15104Q348.70312 58.15104 348.29688 58.541664Q347.90625 58.93229 347.90625 59.46354ZM347.57812 63.43229Q347.57812 63.885414 347.78125 64.30729Q348.0 64.729164 348.42188 64.96354Q348.84375 65.197914 349.32812 65.197914Q350.07812 65.197914 350.5625 64.71354Q351.0625 64.229164 351.0625 63.479164Q351.0625 62.71354 350.5625 62.21354Q350.0625 61.71354 349.29688 61.71354Q348.54688 61.71354 348.0625 62.21354Q347.57812 62.697914 347.57812 63.43229ZM353.375 64.05729L354.40625 63.90104Q354.5 64.52604 354.89062 64.854164Q355.29688 65.18229 356.03125 65.18229Q356.75 65.18229 357.09375 64.90104Q357.45312 64.604164 357.45312 64.197914Q357.45312 63.83854 357.14062 63.635414Q356.92188 63.49479 356.0625 63.27604Q354.90625 62.979164 354.45312 62.77604Q354.01562 62.55729 353.78125 62.18229Q353.54688 61.80729 353.54688 61.33854Q353.54688 60.93229 353.73438 60.572914Q353.92188 60.21354 354.25 59.979164Q354.5 59.80729 354.92188 59.68229Q355.34375 59.55729 355.84375 59.55729Q356.5625 59.55729 357.10938 59.77604Q357.67188 59.979164 357.9375 60.33854Q358.20312 60.697914 358.29688 61.291664L357.26562 61.43229Q357.20312 60.96354 356.85938 60.697914Q356.53125 60.416664 355.90625 60.416664Q355.1875 60.416664 354.875 60.666664Q354.5625 60.90104 354.5625 61.229164Q354.5625 61.43229 354.6875 61.58854Q354.82812 61.760414 355.09375 61.86979Q355.25 61.93229 356.03125 62.135414Q357.15625 62.447914 357.59375 62.635414Q358.03125 62.822914 358.28125 63.18229Q358.53125 63.541664 358.53125 64.08854Q358.53125 64.61979 358.21875 65.08854Q357.92188 65.541664 357.34375 65.80729Q356.76562 66.05729 356.03125 66.05729Q354.8125 66.05729 354.17188 65.55729Q353.54688 65.041664 353.375 64.05729ZM363.5 63.65104L364.5625 63.510414Q364.73438 64.40104 365.17188 64.80729Q365.60938 65.197914 366.23438 65.197914Q366.98438 65.197914 367.5 64.68229Q368.01562 64.166664 368.01562 63.40104Q368.01562 62.68229 367.53125 62.21354Q367.0625 61.729164 366.32812 61.729164Q366.03125 61.729164 365.57812 61.854164L365.70312 60.916664Q365.8125 60.93229 365.875 60.93229Q366.54688 60.93229 367.07812 60.58854Q367.625 60.229164 367.625 59.49479Q367.625 58.916664 367.23438 58.541664Q366.84375 58.15104 366.21875 58.15104Q365.60938 58.15104 365.1875 58.541664Q364.78125 58.93229 364.67188 59.697914L363.60938 59.510414Q363.79688 58.46354 364.48438 57.885414Q365.17188 57.291664 366.1875 57.291664Q366.89062 57.291664 367.48438 57.604164Q368.07812 57.90104 368.39062 58.416664Q368.70312 58.93229 368.70312 59.52604Q368.70312 60.072914 368.40625 60.541664Q368.10938 60.99479 367.53125 61.260414Q368.28125 61.43229 368.70312 61.99479Q369.125 62.541664 369.125 63.385414Q369.125 64.510414 368.29688 65.291664Q367.48438 66.072914 366.23438 66.072914Q365.10938 66.072914 364.35938 65.40104Q363.60938 64.71354 363.5 63.65104Z" fill-rule="nonzero"/><path fill="#757575" d="M26.64375 33.753124L28.3625 33.971874Q28.08125 35.76875 26.909374 36.784374Q25.753124 37.784374 24.05 37.784374Q21.925 37.784374 20.628124 36.39375Q19.33125 35.003124 19.33125 32.409374Q19.33125 30.721874 19.878124 29.471874Q20.440624 28.20625 21.58125 27.58125Q22.721874 26.940624 24.065624 26.940624Q25.753124 26.940624 26.815624 27.8Q27.89375 28.659374 28.20625 30.221874L26.4875 30.4875Q26.253124 29.440624 25.628124 28.925Q25.003124 28.39375 24.128124 28.39375Q22.8 28.39375 21.971874 29.346874Q21.14375 30.3 21.14375 32.346874Q21.14375 34.440624 21.940624 35.39375Q22.7375 36.33125 24.034374 36.33125Q25.065624 36.33125 25.753124 35.70625Q26.45625 35.065624 26.64375 33.753124ZM29.8625 41.51875L29.8625 27.175L31.471874 27.175L31.471874 28.51875Q32.034374 27.7375 32.7375 27.346874Q33.45625 26.940624 34.471874 26.940624Q35.8 26.940624 36.815624 27.628124Q37.83125 28.315624 38.346874 29.565624Q38.878124 30.8 38.878124 32.284374Q38.878124 33.878124 38.3 35.159374Q37.7375 36.425 36.64375 37.1125Q35.55 37.784374 34.346874 37.784374Q33.471874 37.784374 32.76875 37.409374Q32.08125 37.034374 31.628124 36.471874L31.628124 41.51875L29.8625 41.51875ZM31.45625 32.425Q31.45625 34.425 32.26875 35.378124Q33.08125 36.33125 34.2375 36.33125Q35.409374 36.33125 36.2375 35.346874Q37.08125 34.3625 37.08125 32.26875Q37.08125 30.3 36.253124 29.315624Q35.440624 28.315624 34.315624 28.315624Q33.190624 28.315624 32.315624 29.378124Q31.45625 30.425 31.45625 32.425ZM47.659374 37.55L47.659374 36.01875Q46.45625 37.784374 44.378124 37.784374Q43.45625 37.784374 42.659374 37.440624Q41.8625 37.08125 41.471874 36.55Q41.096874 36.01875 40.940624 35.2375Q40.83125 34.721874 40.83125 33.596874L40.83125 27.175L42.58125 27.175L42.58125 32.925Q42.58125 34.3 42.690624 34.784374Q42.8625 35.471874 43.39375 35.878124Q43.940624 36.26875 44.721874 36.26875Q45.51875 36.26875 46.20625 35.8625Q46.909374 35.45625 47.190624 34.76875Q47.4875 34.065624 47.4875 32.7375L47.4875 27.175L49.2375 27.175L49.2375 37.55L47.659374 37.55ZM63.659374 37.55L63.659374 36.01875Q62.45625 37.784374 60.378124 37.784374Q59.45625 37.784374 58.659374 37.440624Q57.8625 37.08125 57.471874 36.55Q57.096874 36.01875 56.940624 35.2375Q56.83125 34.721874 56.83125 33.596874L56.83125 27.175L58.58125 27.175L58.58125 32.925Q58.58125 34.3 58.690624 34.784374Q58.8625 35.471874 59.39375 35.878124Q59.940624 36.26875 60.721874 36.26875Q61.51875 36.26875 62.20625 35.8625Q62.909374 35.45625 63.190624 34.76875Q63.4875 34.065624 63.4875 32.7375L63.4875 27.175L65.2375 27.175L65.2375 37.55L63.659374 37.55ZM66.15938 34.45625L67.90938 34.175Q68.05 35.221874 68.72188 35.784374Q69.39375 36.33125 70.59688 36.33125Q71.8 36.33125 72.37813 35.846874Q72.97188 35.346874 72.97188 34.690624Q72.97188 34.096874 72.45625 33.753124Q72.09688 33.51875 70.65938 33.159374Q68.72188 32.659374 67.97188 32.315624Q67.2375 31.95625 66.84688 31.33125Q66.45625 30.690624 66.45625 29.925Q66.45625 29.2375 66.76875 28.64375Q67.09688 28.05 67.64375 27.659374Q68.05 27.3625 68.75313 27.159374Q69.47188 26.940624 70.28438 26.940624Q71.50313 26.940624 72.425 27.3Q73.34688 27.64375 73.78438 28.253124Q74.22188 28.846874 74.39375 29.846874L72.675 30.08125Q72.55 29.284374 71.9875 28.846874Q71.425 28.39375 70.40938 28.39375Q69.19063 28.39375 68.675 28.8Q68.15938 29.190624 68.15938 29.721874Q68.15938 30.065624 68.37813 30.346874Q68.58125 30.628124 69.05 30.815624Q69.31563 30.909374 70.59688 31.253124Q72.47188 31.753124 73.20625 32.08125Q73.94063 32.39375 74.3625 33.003124Q74.78438 33.596874 74.78438 34.503124Q74.78438 35.378124 74.26875 36.159374Q73.75313 36.940624 72.78438 37.3625Q71.81563 37.784374 70.59688 37.784374Q68.58125 37.784374 67.51875 36.940624Q66.45625 36.096874 66.15938 34.45625ZM83.64375 36.26875Q82.65938 37.096874 81.75313 37.440624Q80.84688 37.784374 79.81563 37.784374Q78.1125 37.784374 77.19063 36.95625Q76.26875 36.1125 76.26875 34.815624Q76.26875 34.05 76.6125 33.425Q76.97188 32.8 77.53438 32.425Q78.09688 32.034374 78.8 31.83125Q79.31563 31.70625 80.3625 31.565624Q82.4875 31.315624 83.4875 30.971874Q83.50313 30.6125 83.50313 30.503124Q83.50313 29.440624 83.00313 28.9875Q82.33125 28.39375 81.00313 28.39375Q79.75313 28.39375 79.15938 28.83125Q78.58125 29.26875 78.3 30.378124L76.58125 30.14375Q76.81563 29.034374 77.34688 28.3625Q77.87813 27.675 78.89375 27.315624Q79.90938 26.940624 81.25313 26.940624Q82.58125 26.940624 83.40938 27.253124Q84.2375 27.565624 84.62813 28.05Q85.01875 28.51875 85.175 29.2375Q85.26875 29.690624 85.26875 30.8625L85.26875 33.20625Q85.26875 35.659374 85.37813 36.315624Q85.4875 36.95625 85.83125 37.55L83.9875 37.55Q83.72188 37.003124 83.64375 36.26875ZM83.4875 32.346874Q82.53438 32.7375 80.6125 33.003124Q79.53438 33.159374 79.08125 33.3625Q78.64375 33.55 78.39375 33.925Q78.14375 34.3 78.14375 34.76875Q78.14375 35.471874 78.675 35.940624Q79.20625 36.409374 80.2375 36.409374Q81.25313 36.409374 82.03438 35.971874Q82.83125 35.51875 83.20625 34.753124Q83.4875 34.14375 83.4875 32.9875L83.4875 32.346874ZM87.55 38.409374L89.25313 38.659374Q89.3625 39.45625 89.84688 39.815624Q90.50313 40.3 91.64375 40.3Q92.8625 40.3 93.51875 39.815624Q94.19063 39.33125 94.425 38.45625Q94.56563 37.909374 94.55 36.190624Q93.39375 37.55 91.675 37.55Q89.53438 37.55 88.3625 36.003124Q87.19063 34.45625 87.19063 32.3Q87.19063 30.815624 87.72188 29.565624Q88.26875 28.315624 89.28438 27.628124Q90.31563 26.940624 91.69063 26.940624Q93.51875 26.940624 94.72188 28.425L94.72188 27.175L96.33125 27.175L96.33125 36.14375Q96.33125 38.565624 95.83125 39.565624Q95.34688 40.58125 94.26875 41.159374Q93.20625 41.753124 91.64375 41.753124Q89.8 41.753124 88.64375 40.925Q87.50313 40.096874 87.55 38.409374ZM89.00313 32.175Q89.00313 34.221874 89.81563 35.159374Q90.62813 36.096874 91.84688 36.096874Q93.05 36.096874 93.8625 35.159374Q94.69063 34.221874 94.69063 32.2375Q94.69063 30.33125 93.84688 29.3625Q93.00313 28.39375 91.81563 28.39375Q90.64375 28.39375 89.81563 29.346874Q89.00313 30.3 89.00313 32.175ZM105.97188 34.20625L107.78438 34.440624Q107.3625 36.01875 106.19063 36.909374Q105.03438 37.784374 103.22188 37.784374Q100.95625 37.784374 99.6125 36.39375Q98.28438 34.9875 98.28438 32.45625Q98.28438 29.83125 99.62813 28.39375Q100.97188 26.940624 103.12813 26.940624Q105.20625 26.940624 106.51875 28.3625Q107.84688 29.76875 107.84688 32.346874Q107.84688 32.503124 107.83125 32.815624L100.09688 32.815624Q100.19063 34.51875 101.06563 35.425Q101.94063 36.33125 103.2375 36.33125Q104.20625 36.33125 104.87813 35.83125Q105.56563 35.315624 105.97188 34.20625ZM100.19063 31.3625L105.9875 31.3625Q105.87813 30.065624 105.33125 29.409374Q104.4875 28.39375 103.14375 28.39375Q101.94063 28.39375 101.1125 29.20625Q100.28438 30.003124 100.19063 31.3625ZM115.22188 32.3625Q115.22188 29.4875 116.81563 28.096874Q118.15938 26.940624 120.08125 26.940624Q122.22188 26.940624 123.56563 28.346874Q124.925 29.753124 124.925 32.221874Q124.925 34.221874 124.33125 35.378124Q123.7375 36.51875 122.58125 37.159374Q121.44063 37.784374 120.08125 37.784374Q117.89375 37.784374 116.55 36.39375Q115.22188 34.9875 115.22188 32.3625ZM117.01875 32.3625Q117.01875 34.3625 117.87813 35.346874Q118.75313 36.33125 120.08125 36.33125Q121.39375 36.33125 122.25313 35.346874Q123.12813 34.346874 123.12813 32.3Q123.12813 30.378124 122.25313 29.39375Q121.37813 28.39375 120.08125 28.39375Q118.75313 28.39375 117.87813 29.39375Q117.01875 30.378124 117.01875 32.3625ZM129.75313 37.55L125.8 27.175L127.65938 27.175L129.89375 33.39375Q130.25313 34.39375 130.55 35.471874Q130.78438 34.659374 131.20625 33.503124L133.50313 27.175L135.31563 27.175L131.39375 37.55L129.75313 37.55ZM142.97188 34.20625L144.78438 34.440624Q144.3625 36.01875 143.19063 36.909374Q142.03438 37.784374 140.22188 37.784374Q137.95625 37.784374 136.6125 36.39375Q135.28438 34.9875 135.28438 32.45625Q135.28438 29.83125 136.62813 28.39375Q137.97188 26.940624 140.12813 26.940624Q142.20625 26.940624 143.51875 28.3625Q144.84688 29.76875 144.84688 32.346874Q144.84688 32.503124 144.83125 32.815624L137.09688 32.815624Q137.19063 34.51875 138.06563 35.425Q138.94063 36.33125 140.2375 36.33125Q141.20625 36.33125 141.87813 35.83125Q142.56563 35.315624 142.97188 34.20625ZM137.19063 31.3625L142.9875 31.3625Q142.87813 30.065624 142.33125 29.409374Q141.4875 28.39375 140.14375 28.39375Q138.94063 28.39375 138.1125 29.20625Q137.28438 30.003124 137.19063 31.3625ZM146.84688 37.55L146.84688 27.175L148.425 27.175L148.425 28.753124Q149.03438 27.64375 149.55 27.3Q150.06563 26.940624 150.675 26.940624Q151.56563 26.940624 152.4875 27.503124L151.87813 29.14375Q151.2375 28.753124 150.59688 28.753124Q150.01875 28.753124 149.55 29.1125Q149.09688 29.45625 148.89375 30.065624Q148.6125 31.003124 148.6125 32.1125L148.6125 37.55L146.84688 37.55ZM163.70625 35.971874L163.95625 37.534374Q163.22188 37.690624 162.62813 37.690624Q161.675 37.690624 161.14375 37.39375Q160.62813 37.08125 160.40938 36.596874Q160.19063 36.096874 160.19063 34.51875L160.19063 28.55L158.90938 28.55L158.90938 27.175L160.19063 27.175L160.19063 24.6125L161.94063 23.55L161.94063 27.175L163.70625 27.175L163.70625 28.55L161.94063 28.55L161.94063 34.6125Q161.94063 35.3625 162.03438 35.58125Q162.12813 35.784374 162.33125 35.925Q162.55 36.05 162.94063 36.05Q163.22188 36.05 163.70625 35.971874ZM165.87813 25.253124L165.87813 23.2375L167.64375 23.2375L167.64375 25.253124L165.87813 25.253124ZM165.87813 37.55L165.87813 27.175L167.64375 27.175L167.64375 37.55L165.87813 37.55ZM169.8625 37.55L169.8625 27.175L171.44063 27.175L171.44063 28.628124Q171.925 27.878124 172.7375 27.409374Q173.55 26.940624 174.58125 26.940624Q175.7375 26.940624 176.47188 27.425Q177.20625 27.89375 177.51875 28.753124Q178.75313 26.940624 180.72188 26.940624Q182.26875 26.940624 183.09688 27.8Q183.925 28.659374 183.925 30.425L183.925 37.55L182.175 37.55L182.175 31.01875Q182.175 29.95625 182.00313 29.503124Q181.83125 29.034374 181.37813 28.753124Q180.94063 28.471874 180.33125 28.471874Q179.2375 28.471874 178.50313 29.20625Q177.78438 29.925 177.78438 31.51875L177.78438 37.55L176.03438 37.55L176.03438 30.815624Q176.03438 29.64375 175.59688 29.065624Q175.175 28.471874 174.19063 28.471874Q173.45625 28.471874 172.81563 28.8625Q172.19063 29.253124 171.90938 30.003124Q171.62813 30.753124 171.62813 32.175L171.62813 37.55L169.8625 37.55ZM192.97188 34.20625L194.78438 34.440624Q194.3625 36.01875 193.19063 36.909374Q192.03438 37.784374 190.22188 37.784374Q187.95625 37.784374 186.6125 36.39375Q185.28438 34.9875 185.28438 32.45625Q185.28438 29.83125 186.62813 28.39375Q187.97188 26.940624 190.12813 26.940624Q192.20625 26.940624 193.51875 28.3625Q194.84688 29.76875 194.84688 32.346874Q194.84688 32.503124 194.83125 32.815624L187.09688 32.815624Q187.19063 34.51875 188.06563 35.425Q188.94063 36.33125 190.2375 36.33125Q191.20625 36.33125 191.87813 35.83125Q192.56563 35.315624 192.97188 34.20625ZM187.19063 31.3625L192.9875 31.3625Q192.87813 30.065624 192.33125 29.409374Q191.4875 28.39375 190.14375 28.39375Q188.94063 28.39375 188.1125 29.20625Q187.28438 30.003124 187.19063 31.3625ZM202.87813 25.253124L202.87813 23.2375L204.64375 23.2375L204.64375 25.253124L202.87813 25.253124ZM202.87813 37.55L202.87813 27.175L204.64375 27.175L204.64375 37.55L202.87813 37.55ZM206.8625 37.55L206.8625 27.175L208.45625 27.175L208.45625 28.659374Q209.59688 26.940624 211.75313 26.940624Q212.69063 26.940624 213.47188 27.284374Q214.26875 27.6125 214.65938 28.159374Q215.05 28.70625 215.20625 29.45625Q215.3 29.95625 215.3 31.175L215.3 37.55L213.53438 37.55L213.53438 31.2375Q213.53438 30.159374 213.33125 29.628124Q213.12813 29.096874 212.59688 28.784374Q212.08125 28.471874 211.37813 28.471874Q210.25313 28.471874 209.44063 29.190624Q208.62813 29.89375 208.62813 31.878124L208.62813 37.55L206.8625 37.55ZM222.15938 34.45625L223.90938 34.175Q224.05 35.221874 224.72188 35.784374Q225.39375 36.33125 226.59688 36.33125Q227.8 36.33125 228.37813 35.846874Q228.97188 35.346874 228.97188 34.690624Q228.97188 34.096874 228.45625 33.753124Q228.09688 33.51875 226.65938 33.159374Q224.72188 32.659374 223.97188 32.315624Q223.2375 31.95625 222.84688 31.33125Q222.45625 30.690624 222.45625 29.925Q222.45625 29.2375 222.76875 28.64375Q223.09688 28.05 223.64375 27.659374Q224.05 27.3625 224.75313 27.159374Q225.47188 26.940624 226.28438 26.940624Q227.50313 26.940624 228.425 27.3Q229.34688 27.64375 229.78438 28.253124Q230.22188 28.846874 230.39375 29.846874L228.675 30.08125Q228.55 29.284374 227.9875 28.846874Q227.425 28.39375 226.40938 28.39375Q225.19063 28.39375 224.675 28.8Q224.15938 29.190624 224.15938 29.721874Q224.15938 30.065624 224.37813 30.346874Q224.58125 30.628124 225.05 30.815624Q225.31563 30.909374 226.59688 31.253124Q228.47188 31.753124 229.20625 32.08125Q229.94063 32.39375 230.3625 33.003124Q230.78438 33.596874 230.78438 34.503124Q230.78438 35.378124 230.26875 36.159374Q229.75313 36.940624 228.78438 37.3625Q227.81563 37.784374 226.59688 37.784374Q224.58125 37.784374 223.51875 36.940624Q222.45625 36.096874 222.15938 34.45625ZM242.22188 41.753124Q240.76875 39.925 239.76875 37.471874Q238.76875 35.003124 238.76875 32.3625Q238.76875 30.034374 239.51875 27.909374Q240.39375 25.440624 242.22188 22.9875L243.4875 22.9875Q242.3 25.01875 241.925 25.89375Q241.33125 27.2375 240.9875 28.70625Q240.56563 30.534374 240.56563 32.378124Q240.56563 37.065624 243.4875 41.753124L242.22188 41.753124ZM245.87813 25.253124L245.87813 23.2375L247.64375 23.2375L247.64375 25.253124L245.87813 25.253124ZM245.87813 37.55L245.87813 27.175L247.64375 27.175L247.64375 37.55L245.87813 37.55ZM249.8625 37.55L249.8625 27.175L251.45625 27.175L251.45625 28.659374Q252.59688 26.940624 254.75313 26.940624Q255.69063 26.940624 256.47186 27.284374Q257.26874 27.6125 257.65936 28.159374Q258.05 28.70625 258.20624 29.45625Q258.3 29.95625 258.3 31.175L258.3 37.55L256.53436 37.55L256.53436 31.2375Q256.53436 30.159374 256.33124 29.628124Q256.1281 29.096874 255.59688 28.784374Q255.08125 28.471874 254.37813 28.471874Q253.25313 28.471874 252.44063 29.190624Q251.62813 29.89375 251.62813 31.878124L251.62813 37.55L249.8625 37.55ZM272.64374 33.753124L274.3625 33.971874Q274.08124 35.76875 272.90936 36.784374Q271.7531 37.784374 270.05 37.784374Q267.925 37.784374 266.6281 36.39375Q265.33124 35.003124 265.33124 32.409374Q265.33124 30.721874 265.8781 29.471874Q266.4406 28.20625 267.58124 27.58125Q268.72186 26.940624 270.0656 26.940624Q271.7531 26.940624 272.8156 27.8Q273.89374 28.659374 274.20624 30.221874L272.4875 30.4875Q272.2531 29.440624 271.6281 28.925Q271.0031 28.39375 270.1281 28.39375Q268.8 28.39375 267.97186 29.346874Q267.14374 30.3 267.14374 32.346874Q267.14374 34.440624 267.9406 35.39375Q268.7375 36.33125 270.03436 36.33125Q271.0656 36.33125 271.7531 35.70625Q272.45624 35.065624 272.64374 33.753124ZM275.8625 41.51875L275.8625 27.175L277.47186 27.175L277.47186 28.51875Q278.03436 27.7375 278.7375 27.346874Q279.45624 26.940624 280.47186 26.940624Q281.8 26.940624 282.8156 27.628124Q283.83124 28.315624 284.34686 29.565624Q284.8781 30.8 284.8781 32.284374Q284.8781 33.878124 284.3 35.159374Q283.7375 36.425 282.64374 37.1125Q281.55 37.784374 280.34686 37.784374Q279.47186 37.784374 278.76874 37.409374Q278.08124 37.034374 277.6281 36.471874L277.6281 41.51875L275.8625 41.51875ZM277.45624 32.425Q277.45624 34.425 278.26874 35.378124Q279.08124 36.33125 280.2375 36.33125Q281.40936 36.33125 282.2375 35.346874Q283.08124 34.3625 283.08124 32.26875Q283.08124 30.3 282.2531 29.315624Q281.4406 28.315624 280.3156 28.315624Q279.1906 28.315624 278.3156 29.378124Q277.45624 30.425 277.45624 32.425ZM293.65936 37.55L293.65936 36.01875Q292.45624 37.784374 290.3781 37.784374Q289.45624 37.784374 288.65936 37.440624Q287.8625 37.08125 287.47186 36.55Q287.09686 36.01875 286.9406 35.2375Q286.83124 34.721874 286.83124 33.596874L286.83124 27.175L288.58124 27.175L288.58124 32.925Q288.58124 34.3 288.6906 34.784374Q288.8625 35.471874 289.39374 35.878124Q289.9406 36.26875 290.72186 36.26875Q291.51874 36.26875 292.20624 35.8625Q292.90936 35.45625 293.1906 34.76875Q293.4875 34.065624 293.4875 32.7375L293.4875 27.175L295.2375 27.175L295.2375 37.55L293.65936 37.55ZM309.65936 37.55L309.65936 36.01875Q308.45624 37.784374 306.3781 37.784374Q305.45624 37.784374 304.65936 37.440624Q303.8625 37.08125 303.47186 36.55Q303.09686 36.01875 302.9406 35.2375Q302.83124 34.721874 302.83124 33.596874L302.83124 27.175L304.58124 27.175L304.58124 32.925Q304.58124 34.3 304.6906 34.784374Q304.8625 35.471874 305.39374 35.878124Q305.9406 36.26875 306.72186 36.26875Q307.51874 36.26875 308.20624 35.8625Q308.90936 35.45625 309.1906 34.76875Q309.4875 34.065624 309.4875 32.7375L309.4875 27.175L311.2375 27.175L311.2375 37.55L309.65936 37.55ZM312.15936 34.45625L313.90936 34.175Q314.05 35.221874 314.72186 35.784374Q315.39374 36.33125 316.59686 36.33125Q317.8 36.33125 318.3781 35.846874Q318.97186 35.346874 318.97186 34.690624Q318.97186 34.096874 318.45624 33.753124Q318.09686 33.51875 316.65936 33.159374Q314.72186 32.659374 313.97186 32.315624Q313.2375 31.95625 312.84686 31.33125Q312.45624 30.690624 312.45624 29.925Q312.45624 29.2375 312.76874 28.64375Q313.09686 28.05 313.64374 27.659374Q314.05 27.3625 314.7531 27.159374Q315.47186 26.940624 316.28436 26.940624Q317.5031 26.940624 318.425 27.3Q319.34686 27.64375 319.78436 28.253124Q320.22186 28.846874 320.39374 29.846874L318.675 30.08125Q318.55 29.284374 317.9875 28.846874Q317.425 28.39375 316.40936 28.39375Q315.1906 28.39375 314.675 28.8Q314.15936 29.190624 314.15936 29.721874Q314.15936 30.065624 314.3781 30.346874Q314.58124 30.628124 315.05 30.815624Q315.3156 30.909374 316.59686 31.253124Q318.47186 31.753124 319.20624 32.08125Q319.9406 32.39375 320.3625 33.003124Q320.78436 33.596874 320.78436 34.503124Q320.78436 35.378124 320.26874 36.159374Q319.7531 36.940624 318.78436 37.3625Q317.8156 37.784374 316.59686 37.784374Q314.58124 37.784374 313.51874 36.940624Q312.45624 36.096874 312.15936 34.45625ZM329.97186 34.20625L331.78436 34.440624Q331.3625 36.01875 330.1906 36.909374Q329.03436 37.784374 327.22186 37.784374Q324.95624 37.784374 323.6125 36.39375Q322.28436 34.9875 322.28436 32.45625Q322.28436 29.83125 323.6281 28.39375Q324.97186 26.940624 327.1281 26.940624Q329.20624 26.940624 330.51874 28.3625Q331.84686 29.76875 331.84686 32.346874Q331.84686 32.503124 331.83124 32.815624L324.09686 32.815624Q324.1906 34.51875 325.0656 35.425Q325.9406 36.33125 327.2375 36.33125Q328.20624 36.33125 328.8781 35.83125Q329.5656 35.315624 329.97186 34.20625ZM324.1906 31.3625L329.9875 31.3625Q329.8781 30.065624 329.33124 29.409374Q328.4875 28.39375 327.14374 28.39375Q325.9406 28.39375 325.1125 29.20625Q324.28436 30.003124 324.1906 31.3625ZM340.59686 37.55L340.59686 36.2375Q339.6125 37.784374 337.6906 37.784374Q336.45624 37.784374 335.40936 37.096874Q334.3781 36.409374 333.8 35.190624Q333.2375 33.971874 333.2375 32.378124Q333.2375 30.815624 333.7531 29.55Q334.26874 28.284374 335.3 27.6125Q336.34686 26.940624 337.6125 26.940624Q338.55 26.940624 339.28436 27.346874Q340.01874 27.7375 340.4875 28.3625L340.4875 23.2375L342.22186 23.2375L342.22186 37.55L340.59686 37.55ZM335.03436 32.378124Q335.03436 34.3625 335.8781 35.346874Q336.72186 36.33125 337.8625 36.33125Q339.01874 36.33125 339.8156 35.39375Q340.6281 34.45625 340.6281 32.51875Q340.6281 30.39375 339.8 29.39375Q338.9875 28.39375 337.78436 28.39375Q336.6125 28.39375 335.8156 29.3625Q335.03436 30.315624 335.03436 32.378124ZM346.01874 41.753124L344.76874 41.753124Q347.675 37.065624 347.675 32.378124Q347.675 30.534374 347.26874 28.7375Q346.925 27.26875 346.33124 25.925Q345.95624 25.034374 344.76874 22.9875L346.01874 22.9875Q347.8625 25.440624 348.7375 27.909374Q349.4875 30.034374 349.4875 32.3625Q349.4875 35.003124 348.47186 37.471874Q347.47186 39.925 346.01874 41.753124ZM357.8781 25.253124L357.8781 23.2375L359.64374 23.2375L359.64374 25.253124L357.8781 25.253124ZM357.8781 37.55L357.8781 27.175L359.64374 27.175L359.64374 37.55L357.8781 37.55ZM361.8625 37.55L361.8625 27.175L363.45624 27.175L363.45624 28.659374Q364.59686 26.940624 366.7531 26.940624Q367.6906 26.940624 368.47186 27.284374Q369.26874 27.6125 369.65936 28.159374Q370.05 28.70625 370.20624 29.45625Q370.3 29.95625 370.3 31.175L370.3 37.55L368.53436 37.55L368.53436 31.2375Q368.53436 30.159374 368.33124 29.628124Q368.1281 29.096874 367.59686 28.784374Q367.08124 28.471874 366.3781 28.471874Q365.2531 28.471874 364.4406 29.190624Q363.6281 29.89375 363.6281 31.878124L363.6281 37.55L361.8625 37.55ZM375.70624 35.971874L375.95624 37.534374Q375.22186 37.690624 374.6281 37.690624Q373.675 37.690624 373.14374 37.39375Q372.6281 37.08125 372.40936 36.596874Q372.1906 36.096874 372.1906 34.51875L372.1906 28.55L370.90936 28.55L370.90936 27.175L372.1906 27.175L372.1906 24.6125L373.9406 23.55L373.9406 27.175L375.70624 27.175L375.70624 28.55L373.9406 28.55L373.9406 34.6125Q373.9406 35.3625 374.03436 35.58125Q374.1281 35.784374 374.33124 35.925Q374.55 36.05 374.9406 36.05Q375.22186 36.05 375.70624 35.971874ZM384.97186 34.20625L386.78436 34.440624Q386.3625 36.01875 385.1906 36.909374Q384.03436 37.784374 382.22186 37.784374Q379.95624 37.784374 378.6125 36.39375Q377.28436 34.9875 377.28436 32.45625Q377.28436 29.83125 378.6281 28.39375Q379.97186 26.940624 382.1281 26.940624Q384.20624 26.940624 385.51874 28.3625Q386.84686 29.76875 386.84686 32.346874Q386.84686 32.503124 386.83124 32.815624L379.09686 32.815624Q379.1906 34.51875 380.0656 35.425Q380.9406 36.33125 382.2375 36.33125Q383.20624 36.33125 383.8781 35.83125Q384.5656 35.315624 384.97186 34.20625ZM379.1906 31.3625L384.9875 31.3625Q384.8781 30.065624 384.33124 29.409374Q383.4875 28.39375 382.14374 28.39375Q380.9406 28.39375 380.1125 29.20625Q379.28436 30.003124 379.1906 31.3625ZM388.8625 37.55L388.8625 27.175L390.45624 27.175L390.45624 28.659374Q391.59686 26.940624 393.7531 26.940624Q394.6906 26.940624 395.47186 27.284374Q396.26874 27.6125 396.65936 28.159374Q397.05 28.70625 397.20624 29.45625Q397.3 29.95625 397.3 31.175L397.3 37.55L395.53436 37.55L395.53436 31.2375Q395.53436 30.159374 395.33124 29.628124Q395.1281 29.096874 394.59686 28.784374Q394.08124 28.471874 393.3781 28.471874Q392.2531 28.471874 391.4406 29.190624Q390.6281 29.89375 390.6281 31.878124L390.6281 37.55L388.8625 37.55ZM398.15936 34.45625L399.90936 34.175Q400.05 35.221874 400.72186 35.784374Q401.39374 36.33125 402.59686 36.33125Q403.8 36.33125 404.3781 35.846874Q404.97186 35.346874 404.97186 34.690624Q404.97186 34.096874 404.45624 33.753124Q404.09686 33.51875 402.65936 33.159374Q400.72186 32.659374 399.97186 32.315624Q399.2375 31.95625 398.84686 31.33125Q398.45624 30.690624 398.45624 29.925Q398.45624 29.2375 398.76874 28.64375Q399.09686 28.05 399.64374 27.659374Q400.05 27.3625 400.7531 27.159374Q401.47186 26.940624 402.28436 26.940624Q403.5031 26.940624 404.425 27.3Q405.34686 27.64375 405.78436 28.253124Q406.22186 28.846874 406.39374 29.846874L404.675 30.08125Q404.55 29.284374 403.9875 28.846874Q403.425 28.39375 402.40936 28.39375Q401.1906 28.39375 400.675 28.8Q400.15936 29.190624 400.15936 29.721874Q400.15936 30.065624 400.3781 30.346874Q400.58124 30.628124 401.05 30.815624Q401.3156 30.909374 402.59686 31.253124Q404.47186 31.753124 405.20624 32.08125Q405.9406 32.39375 406.3625 33.003124Q406.78436 33.596874 406.78436 34.503124Q406.78436 35.378124 406.26874 36.159374Q405.7531 36.940624 404.78436 37.3625Q403.8156 37.784374 402.59686 37.784374Q400.58124 37.784374 399.51874 36.940624Q398.45624 36.096874 398.15936 34.45625ZM408.8781 25.253124L408.8781 23.2375L410.64374 23.2375L410.64374 25.253124L408.8781 25.253124ZM408.8781 37.55L408.8781 27.175L410.64374 27.175L410.64374 37.55L408.8781 37.55ZM415.7531 37.55L411.8 27.175L413.65936 27.175L415.89374 33.39375Q416.2531 34.39375 416.55 35.471874Q416.78436 34.659374 417.20624 33.503124L419.5031 27.175L421.3156 27.175L417.39374 37.55L415.7531 37.55ZM428.97186 34.20625L430.78436 34.440624Q430.3625 36.01875 429.1906 36.909374Q428.03436 37.784374 426.22186 37.784374Q423.95624 37.784374 422.6125 36.39375Q421.28436 34.9875 421.28436 32.45625Q421.28436 29.83125 422.6281 28.39375Q423.97186 26.940624 426.1281 26.940624Q428.20624 26.940624 429.51874 28.3625Q430.84686 29.76875 430.84686 32.346874Q430.84686 32.503124 430.83124 32.815624L423.09686 32.815624Q423.1906 34.51875 424.0656 35.425Q424.9406 36.33125 426.2375 36.33125Q427.20624 36.33125 427.8781 35.83125Q428.5656 35.315624 428.97186 34.20625ZM423.1906 31.3625L428.9875 31.3625Q428.8781 30.065624 428.33124 29.409374Q427.4875 28.39375 426.14374 28.39375Q424.9406 28.39375 424.1125 29.20625Q423.28436 30.003124 423.1906 31.3625ZM445.65936 37.55L445.65936 36.01875Q444.45624 37.784374 442.3781 37.784374Q441.45624 37.784374 440.65936 37.440624Q439.8625 37.08125 439.47186 36.55Q439.09686 36.01875 438.9406 35.2375Q438.83124 34.721874 438.83124 33.596874L438.83124 27.175L440.58124 27.175L440.58124 32.925Q440.58124 34.3 440.6906 34.784374Q440.8625 35.471874 441.39374 35.878124Q441.9406 36.26875 442.72186 36.26875Q443.51874 36.26875 444.20624 35.8625Q444.90936 35.45625 445.1906 34.76875Q445.4875 34.065624 445.4875 32.7375L445.4875 27.175L447.2375 27.175L447.2375 37.55L445.65936 37.55ZM448.15936 34.45625L449.90936 34.175Q450.05 35.221874 450.72186 35.784374Q451.39374 36.33125 452.59686 36.33125Q453.8 36.33125 454.3781 35.846874Q454.97186 35.346874 454.97186 34.690624Q454.97186 34.096874 454.45624 33.753124Q454.09686 33.51875 452.65936 33.159374Q450.72186 32.659374 449.97186 32.315624Q449.2375 31.95625 448.84686 31.33125Q448.45624 30.690624 448.45624 29.925Q448.45624 29.2375 448.76874 28.64375Q449.09686 28.05 449.64374 27.659374Q450.05 27.3625 450.7531 27.159374Q451.47186 26.940624 452.28436 26.940624Q453.5031 26.940624 454.425 27.3Q455.34686 27.64375 455.78436 28.253124Q456.22186 28.846874 456.39374 29.846874L454.675 30.08125Q454.55 29.284374 453.9875 28.846874Q453.425 28.39375 452.40936 28.39375Q451.1906 28.39375 450.675 28.8Q450.15936 29.190624 450.15936 29.721874Q450.15936 30.065624 450.3781 30.346874Q450.58124 30.628124 451.05 30.815624Q451.3156 30.909374 452.59686 31.253124Q454.47186 31.753124 455.20624 32.08125Q455.9406 32.39375 456.3625 33.003124Q456.78436 33.596874 456.78436 34.503124Q456.78436 35.378124 456.26874 36.159374Q455.7531 36.940624 454.78436 37.3625Q453.8156 37.784374 452.59686 37.784374Q450.58124 37.784374 449.51874 36.940624Q448.45624 36.096874 448.15936 34.45625ZM465.64374 36.26875Q464.65936 37.096874 463.7531 37.440624Q462.84686 37.784374 461.8156 37.784374Q460.1125 37.784374 459.1906 36.95625Q458.26874 36.1125 458.26874 34.815624Q458.26874 34.05 458.6125 33.425Q458.97186 32.8 459.53436 32.425Q460.09686 32.034374 460.8 31.83125Q461.3156 31.70625 462.3625 31.565624Q464.4875 31.315624 465.4875 30.971874Q465.5031 30.6125 465.5031 30.503124Q465.5031 29.440624 465.0031 28.9875Q464.33124 28.39375 463.0031 28.39375Q461.7531 28.39375 461.15936 28.83125Q460.58124 29.26875 460.3 30.378124L458.58124 30.14375Q458.8156 29.034374 459.34686 28.3625Q459.8781 27.675 460.89374 27.315624Q461.90936 26.940624 463.2531 26.940624Q464.58124 26.940624 465.40936 27.253124Q466.2375 27.565624 466.6281 28.05Q467.01874 28.51875 467.175 29.2375Q467.26874 29.690624 467.26874 30.8625L467.26874 33.20625Q467.26874 35.659374 467.3781 36.315624Q467.4875 36.95625 467.83124 37.55L465.9875 37.55Q465.72186 37.003124 465.64374 36.26875ZM465.4875 32.346874Q464.53436 32.7375 462.6125 33.003124Q461.53436 33.159374 461.08124 33.3625Q460.64374 33.55 460.39374 33.925Q460.14374 34.3 460.14374 34.76875Q460.14374 35.471874 460.675 35.940624Q461.20624 36.409374 462.2375 36.409374Q463.2531 36.409374 464.03436 35.971874Q464.83124 35.51875 465.20624 34.753124Q465.4875 34.14375 465.4875 32.9875L465.4875 32.346874ZM469.55 38.409374L471.2531 38.659374Q471.3625 39.45625 471.84686 39.815624Q472.5031 40.3 473.64374 40.3Q474.8625 40.3 475.51874 39.815624Q476.1906 39.33125 476.425 38.45625Q476.5656 37.909374 476.55 36.190624Q475.39374 37.55 473.675 37.55Q471.53436 37.55 470.3625 36.003124Q469.1906 34.45625 469.1906 32.3Q469.1906 30.815624 469.72186 29.565624Q470.26874 28.315624 471.28436 27.628124Q472.3156 26.940624 473.6906 26.940624Q475.51874 26.940624 476.72186 28.425L476.72186 27.175L478.33124 27.175L478.33124 36.14375Q478.33124 38.565624 477.83124 39.565624Q477.34686 40.58125 476.26874 41.159374Q475.20624 41.753124 473.64374 41.753124Q471.8 41.753124 470.64374 40.925Q469.5031 40.096874 469.55 38.409374ZM471.0031 32.175Q471.0031 34.221874 471.8156 35.159374Q472.6281 36.096874 473.84686 36.096874Q475.05 36.096874 475.8625 35.159374Q476.6906 34.221874 476.6906 32.2375Q476.6906 30.33125 475.84686 29.3625Q475.0031 28.39375 473.8156 28.39375Q472.64374 28.39375 471.8156 29.346874Q471.0031 30.3 471.0031 32.175ZM487.97186 34.20625L489.78436 34.440624Q489.3625 36.01875 488.1906 36.909374Q487.03436 37.784374 485.22186 37.784374Q482.95624 37.784374 481.6125 36.39375Q480.28436 34.9875 480.28436 32.45625Q480.28436 29.83125 481.6281 28.39375Q482.97186 26.940624 485.1281 26.940624Q487.20624 26.940624 488.51874 28.3625Q489.84686 29.76875 489.84686 32.346874Q489.84686 32.503124 489.83124 32.815624L482.09686 32.815624Q482.1906 34.51875 483.0656 35.425Q483.9406 36.33125 485.2375 36.33125Q486.20624 36.33125 486.8781 35.83125Q487.5656 35.315624 487.97186 34.20625ZM482.1906 31.3625L487.9875 31.3625Q487.8781 30.065624 487.33124 29.409374Q486.4875 28.39375 485.14374 28.39375Q483.9406 28.39375 483.1125 29.20625Q482.28436 30.003124 482.1906 31.3625Z" fill-rule="nonzero"/></svg>