<svg version="1.1" viewBox="0.0 0.0 600.0 371.0" fill="none" stroke="none" stroke-linecap="square" stroke-miterlimit="10" width="600" height="371" xmlns:xlink="http://www.w3.org/1999/xlink" xmlns="http://www.w3.org/2000/svg"><path fill="#ffffff" d="M0 0L600.0 0L600.0 371.0L0 371.0L0 0Z" fill-rule="nonzero"/><path stroke="#333333" stroke-width="1.0" stroke-linecap="butt" d="M80.5 88.5L80.5 300.5" fill-rule="nonzero"/><path stroke="#cccccc" stroke-width="1.0" stroke-linecap="butt" d="M219.5 88.5L219.5 300.5" fill-rule="nonzero"/><path stroke="#cccccc" stroke-width="1.0" stroke-linecap="butt" d="M358.5 88.5L358.5 300.5" fill-rule="nonzero"/><path stroke="#cccccc" stroke-width="1.0" stroke-linecap="butt" d="M497.5 88.5L497.5 300.5" fill-rule="nonzero"/><path stroke="#333333" stroke-width="1.0" stroke-linecap="butt" d="M80.5 300.5L581.5 300.5" fill-rule="nonzero"/><path stroke="#cccccc" stroke-width="1.0" stroke-linecap="butt" d="M80.5 258.5L581.5 258.5" fill-rule="nonzero"/><path stroke="#cccccc" stroke-width="1.0" stroke-linecap="butt" d="M80.5 215.5L581.5 215.5" fill-rule="nonzero"/><path stroke="#cccccc" stroke-width="1.0" stroke-linecap="butt" d="M80.5 173.5L581.5 173.5" fill-rule="nonzero"/><path stroke="#cccccc" stroke-width="1.0" stroke-linecap="butt" d="M80.5 130.5L581.5 130.5" fill-rule="nonzero"/><path stroke="#cccccc" stroke-width="1.0" stroke-linecap="butt" d="M80.5 88.5L581.5 88.5" fill-rule="nonzero"/><clipPath id="id_0"><path d="M80.55 88.28333L581.45 88.28333L581.45 300.45L80.55 300.45L80.55 88.28333Z" clip-rule="nonzero"/></clipPath><path stroke="#4285f4" stroke-width="2.0" stroke-linecap="butt" clip-path="url(#id_0)" d="M80.55 292.5985L122.291664 171.15523L164.03334 239.16133L205.775 248.97581L247.51666 270.1338L289.25833 262.01266L331.0 258.11545L372.74167 286.63464L414.48334 255.55841L456.225 235.986L497.96667 296.25656L539.7083 244.8783L581.45 293.95316" fill-rule="nonzero"/><path stroke="#ea4335" stroke-width="2.0" stroke-linecap="butt" clip-path="url(#id_0)" d="M80.55 293.77744L122.291664 155.54044L164.03334 191.7351L205.775 273.63376L247.51666 241.10756L289.25833 237.62619L331.0 201.2313L372.74167 197.07016L414.48334 225.13829L456.225 220.46474L497.96667 218.59789L539.7083 214.07713L581.45 296.20392" fill-rule="nonzero"/><path stroke="#fbbc04" stroke-width="2.0" stroke-linecap="butt" clip-path="url(#id_0)" d="M80.55 272.71832L122.291664 151.44473L164.03334 244.04169L205.775 267.65024L247.51666 265.67328L289.25833 269.0929L331.0 261.51874L372.74167 254.89388L414.48334 270.21875L456.225 253.89133L497.96667 259.6433L539.7083 269.4496L581.45 295.43378" fill-rule="nonzero"/><path stroke="#34a853" stroke-width="2.0" stroke-linecap="butt" clip-path="url(#id_0)" d="M80.55 277.4711L122.291664 95.68837L164.03334 260.89658L205.775 248.56108L247.51666 256.29593L289.25833 271.84238L331.0 245.8718L372.74167 257.77756L414.48334 263.57413L456.225 266.02484L497.96667 260.2799L539.7083 238.99532L581.45 293.80643" fill-rule="nonzero"/><path fill="#000000" fill-opacity="0.0" clip-path="url(#id_0)" d="M83.55 292.5985C83.55 294.25537 82.206856 295.5985 80.55 295.5985C78.89314 295.5985 77.55 294.25537 77.55 292.5985C77.55 290.94165 78.89314 289.5985 80.55 289.5985C82.206856 289.5985 83.55 290.94165 83.55 292.5985Z" fill-rule="nonzero"/><path fill="#000000" fill-opacity="0.0" clip-path="url(#id_0)" d="M125.291664 171.15523C125.291664 172.81209 123.948524 174.15523 122.291664 174.15523C120.63481 174.15523 119.291664 172.81209 119.291664 171.15523C119.291664 169.49838 120.63481 168.15523 122.291664 168.15523C123.948524 168.15523 125.291664 169.49838 125.291664 171.15523Z" fill-rule="nonzero"/><path fill="#000000" fill-opacity="0.0" clip-path="url(#id_0)" d="M167.03334 239.16133C167.03334 240.81819 165.69019 242.16133 164.03334 242.16133C162.37648 242.16133 161.03334 240.81819 161.03334 239.16133C161.03334 237.50449 162.37648 236.16133 164.03334 236.16133C165.69019 236.16133 167.03334 237.50449 167.03334 239.16133Z" fill-rule="nonzero"/><path fill="#000000" fill-opacity="0.0" clip-path="url(#id_0)" d="M208.775 248.97581C208.775 250.63266 207.43185 251.97581 205.775 251.97581C204.11815 251.97581 202.775 250.63266 202.775 248.97581C202.775 247.31895 204.11815 245.97581 205.775 245.97581C207.43185 245.97581 208.775 247.31895 208.775 248.97581Z" fill-rule="nonzero"/><path fill="#000000" fill-opacity="0.0" clip-path="url(#id_0)" d="M250.51666 270.1338C250.51666 271.79065 249.17352 273.1338 247.51666 273.1338C245.85982 273.1338 244.51666 271.79065 244.51666 270.1338C244.51666 268.47693 245.85982 267.1338 247.51666 267.1338C249.17352 267.1338 250.51666 268.47693 250.51666 270.1338Z" fill-rule="nonzero"/><path fill="#000000" fill-opacity="0.0" clip-path="url(#id_0)" d="M292.25833 262.01266C292.25833 263.66953 290.9152 265.01266 289.25833 265.01266C287.60147 265.01266 286.25833 263.66953 286.25833 262.01266C286.25833 260.3558 287.60147 259.01266 289.25833 259.01266C290.9152 259.01266 292.25833 260.3558 292.25833 262.01266Z" fill-rule="nonzero"/><path fill="#000000" fill-opacity="0.0" clip-path="url(#id_0)" d="M334.0 258.11545C334.0 259.7723 332.65686 261.11545 331.0 261.11545C329.34314 261.11545 328.0 259.7723 328.0 258.11545C328.0 256.4586 329.34314 255.11545 331.0 255.11545C332.65686 255.11545 334.0 256.4586 334.0 258.11545Z" fill-rule="nonzero"/><path fill="#000000" fill-opacity="0.0" clip-path="url(#id_0)" d="M375.74167 286.63464C375.74167 288.2915 374.39853 289.63464 372.74167 289.63464C371.0848 289.63464 369.74167 288.2915 369.74167 286.63464C369.74167 284.97778 371.0848 283.63464 372.74167 283.63464C374.39853 283.63464 375.74167 284.97778 375.74167 286.63464Z" fill-rule="nonzero"/><path fill="#000000" fill-opacity="0.0" clip-path="url(#id_0)" d="M417.48334 255.55841C417.48334 257.21527 416.1402 258.5584 414.48334 258.5584C412.82648 258.5584 411.48334 257.21527 411.48334 255.55841C411.48334 253.90157 412.82648 252.55841 414.48334 252.55841C416.1402 252.55841 417.48334 253.90157 417.48334 255.55841Z" fill-rule="nonzero"/><path fill="#000000" fill-opacity="0.0" clip-path="url(#id_0)" d="M459.225 235.986C459.225 237.64284 457.88187 238.986 456.225 238.986C454.56815 238.986 453.225 237.64284 453.225 235.986C453.225 234.32913 454.56815 232.986 456.225 232.986C457.88187 232.986 459.225 234.32913 459.225 235.986Z" fill-rule="nonzero"/><path fill="#000000" fill-opacity="0.0" clip-path="url(#id_0)" d="M500.96667 296.25656C500.96667 297.91342 499.62354 299.25656 497.96667 299.25656C496.3098 299.25656 494.96667 297.91342 494.96667 296.25656C494.96667 294.5997 496.3098 293.25656 497.96667 293.25656C499.62354 293.25656 500.96667 294.5997 500.96667 296.25656Z" fill-rule="nonzero"/><path fill="#000000" fill-opacity="0.0" clip-path="url(#id_0)" d="M542.7083 244.8783C542.7083 246.53514 541.3652 247.8783 539.7083 247.8783C538.05145 247.8783 536.7083 246.53514 536.7083 244.8783C536.7083 243.22144 538.05145 241.8783 539.7083 241.8783C541.3652 241.8783 542.7083 243.22144 542.7083 244.8783Z" fill-rule="nonzero"/><path fill="#000000" fill-opacity="0.0" clip-path="url(#id_0)" d="M584.45 293.95316C584.45 295.61002 583.1069 296.95316 581.45 296.95316C579.79315 296.95316 578.45 295.61002 578.45 293.95316C578.45 292.29633 579.79315 290.95316 581.45 290.95316C583.1069 290.95316 584.45 292.29633 584.45 293.95316Z" fill-rule="nonzero"/><path fill="#000000" fill-opacity="0.0" clip-path="url(#id_0)" d="M83.55 293.77744C83.55 295.43427 82.206856 296.77744 80.55 296.77744C78.89314 296.77744 77.55 295.43427 77.55 293.77744C77.55 292.12057 78.89314 290.77744 80.55 290.77744C82.206856 290.77744 83.55 292.12057 83.55 293.77744Z" fill-rule="nonzero"/><path fill="#000000" fill-opacity="0.0" clip-path="url(#id_0)" d="M125.291664 155.54044C125.291664 157.1973 123.948524 158.54044 122.291664 158.54044C120.63481 158.54044 119.291664 157.1973 119.291664 155.54044C119.291664 153.88358 120.63481 152.54044 122.291664 152.54044C123.948524 152.54044 125.291664 153.88358 125.291664 155.54044Z" fill-rule="nonzero"/><path fill="#000000" fill-opacity="0.0" clip-path="url(#id_0)" d="M167.03334 191.7351C167.03334 193.39195 165.69019 194.7351 164.03334 194.7351C162.37648 194.7351 161.03334 193.39195 161.03334 191.7351C161.03334 190.07825 162.37648 188.7351 164.03334 188.7351C165.69019 188.7351 167.03334 190.07825 167.03334 191.7351Z" fill-rule="nonzero"/><path fill="#000000" fill-opacity="0.0" clip-path="url(#id_0)" d="M208.775 273.63376C208.775 275.29062 207.43185 276.63376 205.775 276.63376C204.11815 276.63376 202.775 275.29062 202.775 273.63376C202.775 271.9769 204.11815 270.63376 205.775 270.63376C207.43185 270.63376 208.775 271.9769 208.775 273.63376Z" fill-rule="nonzero"/><path fill="#000000" fill-opacity="0.0" clip-path="url(#id_0)" d="M250.51666 241.10756C250.51666 242.7644 249.17352 244.10756 247.51666 244.10756C245.85982 244.10756 244.51666 242.7644 244.51666 241.10756C244.51666 239.4507 245.85982 238.10756 247.51666 238.10756C249.17352 238.10756 250.51666 239.4507 250.51666 241.10756Z" fill-rule="nonzero"/><path fill="#000000" fill-opacity="0.0" clip-path="url(#id_0)" d="M292.25833 237.62619C292.25833 239.28304 290.9152 240.62619 289.25833 240.62619C287.60147 240.62619 286.25833 239.28304 286.25833 237.62619C286.25833 235.96933 287.60147 234.62619 289.25833 234.62619C290.9152 234.62619 292.25833 235.96933 292.25833 237.62619Z" fill-rule="nonzero"/><path fill="#000000" fill-opacity="0.0" clip-path="url(#id_0)" d="M334.0 201.2313C334.0 202.88814 332.65686 204.2313 331.0 204.2313C329.34314 204.2313 328.0 202.88814 328.0 201.2313C328.0 199.57443 329.34314 198.2313 331.0 198.2313C332.65686 198.2313 334.0 199.57443 334.0 201.2313Z" fill-rule="nonzero"/><path fill="#000000" fill-opacity="0.0" clip-path="url(#id_0)" d="M375.74167 197.07016C375.74167 198.727 374.39853 200.07016 372.74167 200.07016C371.0848 200.07016 369.74167 198.727 369.74167 197.07016C369.74167 195.4133 371.0848 194.07016 372.74167 194.07016C374.39853 194.07016 375.74167 195.4133 375.74167 197.07016Z" fill-rule="nonzero"/><path fill="#000000" fill-opacity="0.0" clip-path="url(#id_0)" d="M417.48334 225.13829C417.48334 226.79515 416.1402 228.13829 414.48334 228.13829C412.82648 228.13829 411.48334 226.79515 411.48334 225.13829C411.48334 223.48145 412.82648 222.13829 414.48334 222.13829C416.1402 222.13829 417.48334 223.48145 417.48334 225.13829Z" fill-rule="nonzero"/><path fill="#000000" fill-opacity="0.0" clip-path="url(#id_0)" d="M459.225 220.46474C459.225 222.12158 457.88187 223.46474 456.225 223.46474C454.56815 223.46474 453.225 222.12158 453.225 220.46474C453.225 218.80788 454.56815 217.46474 456.225 217.46474C457.88187 217.46474 459.225 218.80788 459.225 220.46474Z" fill-rule="nonzero"/><path fill="#000000" fill-opacity="0.0" clip-path="url(#id_0)" d="M500.96667 218.59789C500.96667 220.25475 499.62354 221.59789 497.96667 221.59789C496.3098 221.59789 494.96667 220.25475 494.96667 218.59789C494.96667 216.94102 496.3098 215.59789 497.96667 215.59789C499.62354 215.59789 500.96667 216.94102 500.96667 218.59789Z" fill-rule="nonzero"/><path fill="#000000" fill-opacity="0.0" clip-path="url(#id_0)" d="M542.7083 214.07713C542.7083 215.73398 541.3652 217.07713 539.7083 217.07713C538.05145 217.07713 536.7083 215.73398 536.7083 214.07713C536.7083 212.42027 538.05145 211.07713 539.7083 211.07713C541.3652 211.07713 542.7083 212.42027 542.7083 214.07713Z" fill-rule="nonzero"/><path fill="#000000" fill-opacity="0.0" clip-path="url(#id_0)" d="M584.45 296.20392C584.45 297.86078 583.1069 299.20392 581.45 299.20392C579.79315 299.20392 578.45 297.86078 578.45 296.20392C578.45 294.54706 579.79315 293.20392 581.45 293.20392C583.1069 293.20392 584.45 294.54706 584.45 296.20392Z" fill-rule="nonzero"/><path fill="#000000" fill-opacity="0.0" clip-path="url(#id_0)" d="M83.55 272.71832C83.55 274.37518 82.206856 275.71832 80.55 275.71832C78.89314 275.71832 77.55 274.37518 77.55 272.71832C77.55 271.06146 78.89314 269.71832 80.55 269.71832C82.206856 269.71832 83.55 271.06146 83.55 272.71832Z" fill-rule="nonzero"/><path fill="#000000" fill-opacity="0.0" clip-path="url(#id_0)" d="M125.291664 151.44473C125.291664 153.10158 123.948524 154.44473 122.291664 154.44473C120.63481 154.44473 119.291664 153.10158 119.291664 151.44473C119.291664 149.78787 120.63481 148.44473 122.291664 148.44473C123.948524 148.44473 125.291664 149.78787 125.291664 151.44473Z" fill-rule="nonzero"/><path fill="#000000" fill-opacity="0.0" clip-path="url(#id_0)" d="M167.03334 244.04169C167.03334 245.69855 165.69019 247.04169 164.03334 247.04169C162.37648 247.04169 161.03334 245.69855 161.03334 244.04169C161.03334 242.38484 162.37648 241.04169 164.03334 241.04169C165.69019 241.04169 167.03334 242.38484 167.03334 244.04169Z" fill-rule="nonzero"/><path fill="#000000" fill-opacity="0.0" clip-path="url(#id_0)" d="M208.775 267.65024C208.775 269.3071 207.43185 270.65024 205.775 270.65024C204.11815 270.65024 202.775 269.3071 202.775 267.65024C202.775 265.99338 204.11815 264.65024 205.775 264.65024C207.43185 264.65024 208.775 265.99338 208.775 267.65024Z" fill-rule="nonzero"/><path fill="#000000" fill-opacity="0.0" clip-path="url(#id_0)" d="M250.51666 265.67328C250.51666 267.33014 249.17352 268.67328 247.51666 268.67328C245.85982 268.67328 244.51666 267.33014 244.51666 265.67328C244.51666 264.01642 245.85982 262.67328 247.51666 262.67328C249.17352 262.67328 250.51666 264.01642 250.51666 265.67328Z" fill-rule="nonzero"/><path fill="#000000" fill-opacity="0.0" clip-path="url(#id_0)" d="M292.25833 269.0929C292.25833 270.74976 290.9152 272.0929 289.25833 272.0929C287.60147 272.0929 286.25833 270.74976 286.25833 269.0929C286.25833 267.43604 287.60147 266.0929 289.25833 266.0929C290.9152 266.0929 292.25833 267.43604 292.25833 269.0929Z" fill-rule="nonzero"/><path fill="#000000" fill-opacity="0.0" clip-path="url(#id_0)" d="M334.0 261.51874C334.0 263.1756 332.65686 264.51874 331.0 264.51874C329.34314 264.51874 328.0 263.1756 328.0 261.51874C328.0 259.86188 329.34314 258.51874 331.0 258.51874C332.65686 258.51874 334.0 259.86188 334.0 261.51874Z" fill-rule="nonzero"/><path fill="#000000" fill-opacity="0.0" clip-path="url(#id_0)" d="M375.74167 254.89388C375.74167 256.55072 374.39853 257.8939 372.74167 257.8939C371.0848 257.8939 369.74167 256.55072 369.74167 254.89388C369.74167 253.23703 371.0848 251.89388 372.74167 251.89388C374.39853 251.89388 375.74167 253.23703 375.74167 254.89388Z" fill-rule="nonzero"/><path fill="#000000" fill-opacity="0.0" clip-path="url(#id_0)" d="M417.48334 270.21875C417.48334 271.8756 416.1402 273.21875 414.48334 273.21875C412.82648 273.21875 411.48334 271.8756 411.48334 270.21875C411.48334 268.5619 412.82648 267.21875 414.48334 267.21875C416.1402 267.21875 417.48334 268.5619 417.48334 270.21875Z" fill-rule="nonzero"/><path fill="#000000" fill-opacity="0.0" clip-path="url(#id_0)" d="M459.225 253.89133C459.225 255.54819 457.88187 256.89133 456.225 256.89133C454.56815 256.89133 453.225 255.54819 453.225 253.89133C453.225 252.23448 454.56815 250.89133 456.225 250.89133C457.88187 250.89133 459.225 252.23448 459.225 253.89133Z" fill-rule="nonzero"/><path fill="#000000" fill-opacity="0.0" clip-path="url(#id_0)" d="M500.96667 259.6433C500.96667 261.30017 499.62354 262.6433 497.96667 262.6433C496.3098 262.6433 494.96667 261.30017 494.96667 259.6433C494.96667 257.98645 496.3098 256.6433 497.96667 256.6433C499.62354 256.6433 500.96667 257.98645 500.96667 259.6433Z" fill-rule="nonzero"/><path fill="#000000" fill-opacity="0.0" clip-path="url(#id_0)" d="M542.7083 269.4496C542.7083 271.10645 541.3652 272.4496 539.7083 272.4496C538.05145 272.4496 536.7083 271.10645 536.7083 269.4496C536.7083 267.79272 538.05145 266.4496 539.7083 266.4496C541.3652 266.4496 542.7083 267.79272 542.7083 269.4496Z" fill-rule="nonzero"/><path fill="#000000" fill-opacity="0.0" clip-path="url(#id_0)" d="M584.45 295.43378C584.45 297.0906 583.1069 298.43378 581.45 298.43378C579.79315 298.43378 578.45 297.0906 578.45 295.43378C578.45 293.77692 579.79315 292.43378 581.45 292.43378C583.1069 292.43378 584.45 293.77692 584.45 295.43378Z" fill-rule="nonzero"/><path fill="#000000" fill-opacity="0.0" clip-path="url(#id_0)" d="M83.55 277.4711C83.55 279.12796 82.206856 280.4711 80.55 280.4711C78.89314 280.4711 77.55 279.12796 77.55 277.4711C77.55 275.81424 78.89314 274.4711 80.55 274.4711C82.206856 274.4711 83.55 275.81424 83.55 277.4711Z" fill-rule="nonzero"/><path fill="#000000" fill-opacity="0.0" clip-path="url(#id_0)" d="M125.291664 95.68837C125.291664 97.34522 123.948524 98.68837 122.291664 98.68837C120.63481 98.68837 119.291664 97.34522 119.291664 95.68837C119.291664 94.03151 120.63481 92.68837 122.291664 92.68837C123.948524 92.68837 125.291664 94.03151 125.291664 95.68837Z" fill-rule="nonzero"/><path fill="#000000" fill-opacity="0.0" clip-path="url(#id_0)" d="M167.03334 260.89658C167.03334 262.55344 165.69019 263.89658 164.03334 263.89658C162.37648 263.89658 161.03334 262.55344 161.03334 260.89658C161.03334 259.23972 162.37648 257.89658 164.03334 257.89658C165.69019 257.89658 167.03334 259.23972 167.03334 260.89658Z" fill-rule="nonzero"/><path fill="#000000" fill-opacity="0.0" clip-path="url(#id_0)" d="M208.775 248.56108C208.775 250.21794 207.43185 251.56108 205.775 251.56108C204.11815 251.56108 202.775 250.21794 202.775 248.56108C202.775 246.90424 204.11815 245.56108 205.775 245.56108C207.43185 245.56108 208.775 246.90424 208.775 248.56108Z" fill-rule="nonzero"/><path fill="#000000" fill-opacity="0.0" clip-path="url(#id_0)" d="M250.51666 256.29593C250.51666 257.9528 249.17352 259.29593 247.51666 259.29593C245.85982 259.29593 244.51666 257.9528 244.51666 256.29593C244.51666 254.63908 245.85982 253.29593 247.51666 253.29593C249.17352 253.29593 250.51666 254.63908 250.51666 256.29593Z" fill-rule="nonzero"/><path fill="#000000" fill-opacity="0.0" clip-path="url(#id_0)" d="M292.25833 271.84238C292.25833 273.49924 290.9152 274.84238 289.25833 274.84238C287.60147 274.84238 286.25833 273.49924 286.25833 271.84238C286.25833 270.18552 287.60147 268.84238 289.25833 268.84238C290.9152 268.84238 292.25833 270.18552 292.25833 271.84238Z" fill-rule="nonzero"/><path fill="#000000" fill-opacity="0.0" clip-path="url(#id_0)" d="M334.0 245.8718C334.0 247.52866 332.65686 248.8718 331.0 248.8718C329.34314 248.8718 328.0 247.52866 328.0 245.8718C328.0 244.21494 329.34314 242.8718 331.0 242.8718C332.65686 242.8718 334.0 244.21494 334.0 245.8718Z" fill-rule="nonzero"/><path fill="#000000" fill-opacity="0.0" clip-path="url(#id_0)" d="M375.74167 257.77756C375.74167 259.43442 374.39853 260.77756 372.74167 260.77756C371.0848 260.77756 369.74167 259.43442 369.74167 257.77756C369.74167 256.1207 371.0848 254.77756 372.74167 254.77756C374.39853 254.77756 375.74167 256.1207 375.74167 257.77756Z" fill-rule="nonzero"/><path fill="#000000" fill-opacity="0.0" clip-path="url(#id_0)" d="M417.48334 263.57413C417.48334 265.231 416.1402 266.57413 414.48334 266.57413C412.82648 266.57413 411.48334 265.231 411.48334 263.57413C411.48334 261.9173 412.82648 260.57413 414.48334 260.57413C416.1402 260.57413 417.48334 261.9173 417.48334 263.57413Z" fill-rule="nonzero"/><path fill="#000000" fill-opacity="0.0" clip-path="url(#id_0)" d="M459.225 266.02484C459.225 267.6817 457.88187 269.02484 456.225 269.02484C454.56815 269.02484 453.225 267.6817 453.225 266.02484C453.225 264.36798 454.56815 263.02484 456.225 263.02484C457.88187 263.02484 459.225 264.36798 459.225 266.02484Z" fill-rule="nonzero"/><path fill="#000000" fill-opacity="0.0" clip-path="url(#id_0)" d="M500.96667 260.2799C500.96667 261.93674 499.62354 263.2799 497.96667 263.2799C496.3098 263.2799 494.96667 261.93674 494.96667 260.2799C494.96667 258.62305 496.3098 257.2799 497.96667 257.2799C499.62354 257.2799 500.96667 258.62305 500.96667 260.2799Z" fill-rule="nonzero"/><path fill="#000000" fill-opacity="0.0" clip-path="url(#id_0)" d="M542.7083 238.99532C542.7083 240.65216 541.3652 241.99532 539.7083 241.99532C538.05145 241.99532 536.7083 240.65216 536.7083 238.99532C536.7083 237.33846 538.05145 235.99532 539.7083 235.99532C541.3652 235.99532 542.7083 237.33846 542.7083 238.99532Z" fill-rule="nonzero"/><path fill="#000000" fill-opacity="0.0" clip-path="url(#id_0)" d="M584.45 293.80643C584.45 295.4633 583.1069 296.80643 581.45 296.80643C579.79315 296.80643 578.45 295.4633 578.45 293.80643C578.45 292.1496 579.79315 290.80643 581.45 290.80643C583.1069 290.80643 584.45 292.1496 584.45 293.80643Z" fill-rule="nonzero"/><path fill="#000000" d="M266.09375 348.5125L266.25 349.4344Q265.79688 349.52814 265.45312 349.52814Q264.875 349.52814 264.5625 349.35626Q264.25 349.16876 264.10938 348.8719Q263.98438 348.575 263.98438 347.6219L263.98438 344.04376L263.21875 344.04376L263.21875 343.23126L263.98438 343.23126L263.98438 341.6844L265.03125 341.0594L265.03125 343.23126L266.09375 343.23126L266.09375 344.04376L265.03125 344.04376L265.03125 347.6844Q265.03125 348.1375 265.07812 348.2625Q265.14062 348.3875 265.26562 348.46564Q265.39062 348.54376 265.625 348.54376Q265.8125 348.54376 266.09375 348.5125ZM266.79688 342.075L266.79688 340.85626L267.85938 340.85626L267.85938 342.075L266.79688 342.075ZM266.79688 349.45L266.79688 343.23126L267.85938 343.23126L267.85938 349.45L266.79688 349.45ZM269.79688 349.45L269.79688 343.23126L270.73438 343.23126L270.73438 344.10626Q271.03125 343.6375 271.51562 343.3719Q272.0 343.09064 272.625 343.09064Q273.3125 343.09064 273.75 343.3719Q274.20312 343.65314 274.375 344.16876Q275.125 343.09064 276.29688 343.09064Q277.23438 343.09064 277.71875 343.60626Q278.21875 344.10626 278.21875 345.1844L278.21875 349.45L277.17188 349.45L277.17188 345.52814Q277.17188 344.90314 277.0625 344.6219Q276.96875 344.34064 276.70312 344.16876Q276.4375 343.9969 276.0625 343.9969Q275.40625 343.9969 274.96875 344.4344Q274.54688 344.8719 274.54688 345.84064L274.54688 349.45L273.48438 349.45L273.48438 345.40314Q273.48438 344.7 273.21875 344.35626Q272.96875 343.9969 272.39062 343.9969Q271.9375 343.9969 271.5625 344.23126Q271.1875 344.46564 271.01562 344.91876Q270.84375 345.3719 270.84375 346.21564L270.84375 349.45L269.79688 349.45ZM285.04688 347.45L286.14062 347.575Q285.89062 348.52814 285.1875 349.0594Q284.48438 349.59064 283.40625 349.59064Q282.04688 349.59064 281.23438 348.7469Q280.4375 347.90314 280.4375 346.3875Q280.4375 344.825 281.25 343.96564Q282.0625 343.09064 283.34375 343.09064Q284.59375 343.09064 285.375 343.9344Q286.17188 344.77814 286.17188 346.325Q286.17188 346.41876 286.17188 346.60626L281.53125 346.60626Q281.59375 347.6375 282.10938 348.1844Q282.625 348.71564 283.40625 348.71564Q283.98438 348.71564 284.39062 348.41876Q284.8125 348.10626 285.04688 347.45ZM281.59375 345.7469L285.0625 345.7469Q285.0 344.95 284.67188 344.5594Q284.15625 343.95 283.35938 343.95Q282.625 343.95 282.125 344.4344Q281.64062 344.91876 281.59375 345.7469ZM295.04688 347.45L296.14062 347.575Q295.89062 348.52814 295.1875 349.0594Q294.48438 349.59064 293.40625 349.59064Q292.04688 349.59064 291.23438 348.7469Q290.4375 347.90314 290.4375 346.3875Q290.4375 344.825 291.25 343.96564Q292.0625 343.09064 293.34375 343.09064Q294.59375 343.09064 295.375 343.9344Q296.17188 344.77814 296.17188 346.325Q296.17188 346.41876 296.17188 346.60626L291.53125 346.60626Q291.59375 347.6375 292.10938 348.1844Q292.625 348.71564 293.40625 348.71564Q293.98438 348.71564 294.39062 348.41876Q294.8125 348.10626 295.04688 347.45ZM291.59375 345.7469L295.0625 345.7469Q295.0 344.95 294.67188 344.5594Q294.15625 343.95 293.35938 343.95Q292.625 343.95 292.125 344.4344Q291.64062 344.91876 291.59375 345.7469ZM297.76562 349.45L297.76562 340.85626L298.82812 340.85626L298.82812 349.45L297.76562 349.45ZM304.85938 348.6844Q304.26562 349.1844 303.71875 349.3875Q303.1875 349.59064 302.5625 349.59064Q301.53125 349.59064 300.98438 349.09064Q300.4375 348.59064 300.4375 347.8094Q300.4375 347.35626 300.64062 346.98126Q300.84375 346.59064 301.1875 346.3719Q301.53125 346.1375 301.95312 346.02814Q302.25 345.9344 302.89062 345.85626Q304.15625 345.71564 304.76562 345.4969Q304.76562 345.27814 304.76562 345.23126Q304.76562 344.575 304.46875 344.3094Q304.0625 343.96564 303.26562 343.96564Q302.53125 343.96564 302.17188 344.23126Q301.8125 344.48126 301.64062 345.1375L300.60938 344.9969Q300.75 344.34064 301.07812 343.9344Q301.40625 343.52814 302.01562 343.3094Q302.625 343.09064 303.42188 343.09064Q304.21875 343.09064 304.71875 343.27814Q305.21875 343.46564 305.45312 343.7469Q305.6875 344.02814 305.78125 344.46564Q305.82812 344.73126 305.82812 345.4344L305.82812 346.84064Q305.82812 348.3094 305.89062 348.7Q305.96875 349.09064 306.17188 349.45L305.0625 349.45Q304.90625 349.1219 304.85938 348.6844ZM304.76562 346.325Q304.1875 346.5594 303.04688 346.73126Q302.39062 346.825 302.125 346.95Q301.85938 347.0594 301.70312 347.27814Q301.5625 347.4969 301.5625 347.77814Q301.5625 348.2 301.875 348.48126Q302.20312 348.7625 302.8125 348.7625Q303.42188 348.7625 303.89062 348.4969Q304.375 348.23126 304.59375 347.7625Q304.76562 347.40314 304.76562 346.71564L304.76562 346.325ZM307.79688 351.84064L307.79688 343.23126L308.75 343.23126L308.75 344.02814Q309.09375 343.5594 309.51562 343.325Q309.95312 343.09064 310.5625 343.09064Q311.35938 343.09064 311.96875 343.4969Q312.57812 343.90314 312.875 344.65314Q313.1875 345.40314 313.1875 346.29376Q313.1875 347.2469 312.84375 348.0125Q312.51562 348.77814 311.85938 349.1844Q311.20312 349.59064 310.48438 349.59064Q309.95312 349.59064 309.53125 349.3719Q309.10938 349.1375 308.84375 348.8094L308.84375 351.84064L307.79688 351.84064ZM308.75 346.3719Q308.75 347.575 309.23438 348.15314Q309.71875 348.71564 310.40625 348.71564Q311.10938 348.71564 311.60938 348.1219Q312.10938 347.52814 312.10938 346.27814Q312.10938 345.09064 311.625 344.5125Q311.14062 343.91876 310.45312 343.91876Q309.78125 343.91876 309.26562 344.54376Q308.75 345.16876 308.75 346.3719ZM314.375 347.59064L315.40625 347.4344Q315.5 348.0594 315.89062 348.3875Q316.29688 348.71564 317.03125 348.71564Q317.75 348.71564 318.09375 348.4344Q318.45312 348.1375 318.45312 347.73126Q318.45312 347.3719 318.14062 347.16876Q317.92188 347.02814 317.0625 346.8094Q315.90625 346.5125 315.45312 346.3094Q315.01562 346.09064 314.78125 345.71564Q314.54688 345.34064 314.54688 344.8719Q314.54688 344.46564 314.73438 344.10626Q314.92188 343.7469 315.25 343.5125Q315.5 343.34064 315.92188 343.21564Q316.34375 343.09064 316.84375 343.09064Q317.5625 343.09064 318.10938 343.3094Q318.67188 343.5125 318.9375 343.8719Q319.20312 344.23126 319.29688 344.825L318.26562 344.96564Q318.20312 344.4969 317.85938 344.23126Q317.53125 343.95 316.90625 343.95Q316.1875 343.95 315.875 344.2Q315.5625 344.4344 315.5625 344.7625Q315.5625 344.96564 315.6875 345.1219Q315.82812 345.29376 316.09375 345.40314Q316.25 345.46564 317.03125 345.66876Q318.15625 345.98126 318.59375 346.16876Q319.03125 346.35626 319.28125 346.71564Q319.53125 347.075 319.53125 347.6219Q319.53125 348.15314 319.21875 348.6219Q318.92188 349.075 318.34375 349.34064Q317.76562 349.59064 317.03125 349.59064Q315.8125 349.59064 315.17188 349.09064Q314.54688 348.575 314.375 347.59064ZM326.04688 347.45L327.14062 347.575Q326.89062 348.52814 326.1875 349.0594Q325.48438 349.59064 324.40625 349.59064Q323.04688 349.59064 322.23438 348.7469Q321.4375 347.90314 321.4375 346.3875Q321.4375 344.825 322.25 343.96564Q323.0625 343.09064 324.34375 343.09064Q325.59375 343.09064 326.375 343.9344Q327.17188 344.77814 327.17188 346.325Q327.17188 346.41876 327.17188 346.60626L322.53125 346.60626Q322.59375 347.6375 323.10938 348.1844Q323.625 348.71564 324.40625 348.71564Q324.98438 348.71564 325.39062 348.41876Q325.8125 348.10626 326.04688 347.45ZM322.59375 345.7469L326.0625 345.7469Q326.0 344.95 325.67188 344.5594Q325.15625 343.95 324.35938 343.95Q323.625 343.95 323.125 344.4344Q322.64062 344.91876 322.59375 345.7469ZM332.82812 349.45L332.82812 348.66876Q332.23438 349.59064 331.09375 349.59064Q330.34375 349.59064 329.71875 349.1844Q329.09375 348.7625 328.75 348.02814Q328.40625 347.29376 328.40625 346.34064Q328.40625 345.41876 328.71875 344.65314Q329.03125 343.8875 329.65625 343.4969Q330.28125 343.09064 331.04688 343.09064Q331.60938 343.09064 332.04688 343.325Q332.48438 343.5594 332.76562 343.9344L332.76562 340.85626L333.8125 340.85626L333.8125 349.45L332.82812 349.45ZM329.5 346.34064Q329.5 347.54376 330.0 348.1375Q330.5 348.71564 331.1875 348.71564Q331.875 348.71564 332.35938 348.15314Q332.84375 347.59064 332.84375 346.4344Q332.84375 345.15314 332.34375 344.5594Q331.85938 343.96564 331.14062 343.96564Q330.4375 343.96564 329.96875 344.54376Q329.5 345.10626 329.5 346.34064ZM338.79688 342.075L338.79688 340.85626L339.85938 340.85626L339.85938 342.075L338.79688 342.075ZM338.79688 349.45L338.79688 343.23126L339.85938 343.23126L339.85938 349.45L338.79688 349.45ZM341.79688 349.45L341.79688 343.23126L342.73438 343.23126L342.73438 344.10626Q343.42188 343.09064 344.71875 343.09064Q345.28125 343.09064 345.75 343.29376Q346.23438 343.4969 346.46875 343.825Q346.70312 344.15314 346.79688 344.59064Q346.84375 344.8875 346.84375 345.6219L346.84375 349.45L345.79688 349.45L345.79688 345.66876Q345.79688 345.0125 345.67188 344.7Q345.54688 344.3875 345.23438 344.2Q344.92188 343.9969 344.5 343.9969Q343.82812 343.9969 343.32812 344.4344Q342.84375 344.85626 342.84375 346.04376L342.84375 349.45L341.79688 349.45ZM351.375 347.59064L352.40625 347.4344Q352.5 348.0594 352.89062 348.3875Q353.29688 348.71564 354.03125 348.71564Q354.75 348.71564 355.09375 348.4344Q355.45312 348.1375 355.45312 347.73126Q355.45312 347.3719 355.14062 347.16876Q354.92188 347.02814 354.0625 346.8094Q352.90625 346.5125 352.45312 346.3094Q352.01562 346.09064 351.78125 345.71564Q351.54688 345.34064 351.54688 344.8719Q351.54688 344.46564 351.73438 344.10626Q351.92188 343.7469 352.25 343.5125Q352.5 343.34064 352.92188 343.21564Q353.34375 343.09064 353.84375 343.09064Q354.5625 343.09064 355.10938 343.3094Q355.67188 343.5125 355.9375 343.8719Q356.20312 344.23126 356.29688 344.825L355.26562 344.96564Q355.20312 344.4969 354.85938 344.23126Q354.53125 343.95 353.90625 343.95Q353.1875 343.95 352.875 344.2Q352.5625 344.4344 352.5625 344.7625Q352.5625 344.96564 352.6875 345.1219Q352.82812 345.29376 353.09375 345.40314Q353.25 345.46564 354.03125 345.66876Q355.15625 345.98126 355.59375 346.16876Q356.03125 346.35626 356.28125 346.71564Q356.53125 347.075 356.53125 347.6219Q356.53125 348.15314 356.21875 348.6219Q355.92188 349.075 355.34375 349.34064Q354.76562 349.59064 354.03125 349.59064Q352.8125 349.59064 352.17188 349.09064Q351.54688 348.575 351.375 347.59064ZM363.04688 347.45L364.14062 347.575Q363.89062 348.52814 363.1875 349.0594Q362.48438 349.59064 361.40625 349.59064Q360.04688 349.59064 359.23438 348.7469Q358.4375 347.90314 358.4375 346.3875Q358.4375 344.825 359.25 343.96564Q360.0625 343.09064 361.34375 343.09064Q362.59375 343.09064 363.375 343.9344Q364.17188 344.77814 364.17188 346.325Q364.17188 346.41876 364.17188 346.60626L359.53125 346.60626Q359.59375 347.6375 360.10938 348.1844Q360.625 348.71564 361.40625 348.71564Q361.98438 348.71564 362.39062 348.41876Q362.8125 348.10626 363.04688 347.45ZM359.59375 345.7469L363.0625 345.7469Q363.0 344.95 362.67188 344.5594Q362.15625 343.95 361.35938 343.95Q360.625 343.95 360.125 344.4344Q359.64062 344.91876 359.59375 345.7469ZM369.85938 347.16876L370.89062 347.3094Q370.71875 348.3719 370.01562 348.98126Q369.3125 349.59064 368.29688 349.59064Q367.01562 349.59064 366.23438 348.7625Q365.46875 347.91876 365.46875 346.35626Q365.46875 345.35626 365.79688 344.60626Q366.14062 343.84064 366.8125 343.46564Q367.5 343.09064 368.3125 343.09064Q369.3125 343.09064 369.95312 343.60626Q370.60938 344.10626 370.79688 345.0594L369.76562 345.21564Q369.625 344.59064 369.25 344.27814Q368.875 343.95 368.34375 343.95Q367.54688 343.95 367.04688 344.52814Q366.54688 345.09064 366.54688 346.325Q366.54688 347.59064 367.03125 348.15314Q367.51562 348.71564 368.28125 348.71564Q368.90625 348.71564 369.3125 348.34064Q369.73438 347.96564 369.85938 347.16876ZM371.40625 346.34064Q371.40625 344.60626 372.35938 343.77814Q373.15625 343.09064 374.3125 343.09064Q375.59375 343.09064 376.40625 343.9344Q377.23438 344.7625 377.23438 346.2469Q377.23438 347.45 376.875 348.1375Q376.51562 348.825 375.8125 349.21564Q375.125 349.59064 374.3125 349.59064Q373.01562 349.59064 372.20312 348.7625Q371.40625 347.91876 371.40625 346.34064ZM372.48438 346.34064Q372.48438 347.52814 373.0 348.1219Q373.53125 348.71564 374.3125 348.71564Q375.10938 348.71564 375.625 348.1219Q376.14062 347.52814 376.14062 346.3094Q376.14062 345.15314 375.60938 344.5594Q375.09375 343.96564 374.3125 343.96564Q373.53125 343.96564 373.0 344.5594Q372.48438 345.1375 372.48438 346.34064ZM378.79688 349.45L378.79688 343.23126L379.73438 343.23126L379.73438 344.10626Q380.42188 343.09064 381.71875 343.09064Q382.28125 343.09064 382.75 343.29376Q383.23438 343.4969 383.46875 343.825Q383.70312 344.15314 383.79688 344.59064Q383.84375 344.8875 383.84375 345.6219L383.84375 349.45L382.79688 349.45L382.79688 345.66876Q382.79688 345.0125 382.67188 344.7Q382.54688 344.3875 382.23438 344.2Q381.92188 343.9969 381.5 343.9969Q380.82812 343.9969 380.32812 344.4344Q379.84375 344.85626 379.84375 346.04376L379.84375 349.45L378.79688 349.45ZM389.82812 349.45L389.82812 348.66876Q389.23438 349.59064 388.09375 349.59064Q387.34375 349.59064 386.71875 349.1844Q386.09375 348.7625 385.75 348.02814Q385.40625 347.29376 385.40625 346.34064Q385.40625 345.41876 385.71875 344.65314Q386.03125 343.8875 386.65625 343.4969Q387.28125 343.09064 388.04688 343.09064Q388.60938 343.09064 389.04688 343.325Q389.48438 343.5594 389.76562 343.9344L389.76562 340.85626L390.8125 340.85626L390.8125 349.45L389.82812 349.45ZM386.5 346.34064Q386.5 347.54376 387.0 348.1375Q387.5 348.71564 388.1875 348.71564Q388.875 348.71564 389.35938 348.15314Q389.84375 347.59064 389.84375 346.4344Q389.84375 345.15314 389.34375 344.5594Q388.85938 343.96564 388.14062 343.96564Q387.4375 343.96564 386.96875 344.54376Q386.5 345.10626 386.5 346.34064ZM392.375 347.59064L393.40625 347.4344Q393.5 348.0594 393.89062 348.3875Q394.29688 348.71564 395.03125 348.71564Q395.75 348.71564 396.09375 348.4344Q396.45312 348.1375 396.45312 347.73126Q396.45312 347.3719 396.14062 347.16876Q395.92188 347.02814 395.0625 346.8094Q393.90625 346.5125 393.45312 346.3094Q393.01562 346.09064 392.78125 345.71564Q392.54688 345.34064 392.54688 344.8719Q392.54688 344.46564 392.73438 344.10626Q392.92188 343.7469 393.25 343.5125Q393.5 343.34064 393.92188 343.21564Q394.34375 343.09064 394.84375 343.09064Q395.5625 343.09064 396.10938 343.3094Q396.67188 343.5125 396.9375 343.8719Q397.20312 344.23126 397.29688 344.825L396.26562 344.96564Q396.20312 344.4969 395.85938 344.23126Q395.53125 343.95 394.90625 343.95Q394.1875 343.95 393.875 344.2Q393.5625 344.4344 393.5625 344.7625Q393.5625 344.96564 393.6875 345.1219Q393.82812 345.29376 394.09375 345.40314Q394.25 345.46564 395.03125 345.66876Q396.15625 345.98126 396.59375 346.16876Q397.03125 346.35626 397.28125 346.71564Q397.53125 347.075 397.53125 347.6219Q397.53125 348.15314 397.21875 348.6219Q396.92188 349.075 396.34375 349.34064Q395.76562 349.59064 395.03125 349.59064Q393.8125 349.59064 393.17188 349.09064Q392.54688 348.575 392.375 347.59064Z" fill-rule="nonzero"/><path fill="#000000" d="M29.550013 213.85104L23.331263 216.21042L23.331263 215.10104L27.050013 213.7573Q27.659388 213.55417 28.300013 213.36667Q27.815638 213.22604 27.128138 212.97604L23.331263 211.58542L23.331263 210.5073L29.550013 212.86667L29.550013 213.85104ZM26.534388 204.30417L26.831263 203.17917Q28.221888 203.53854 28.956263 204.46042Q29.690638 205.3823 29.690638 206.72604Q29.690638 208.11667 29.128138 208.99167Q28.565638 209.86667 27.503138 210.3198Q26.425013 210.77292 25.190638 210.77292Q23.846888 210.77292 22.846888 210.2573Q21.846888 209.74167 21.331263 208.80417Q20.815638 207.85104 20.815638 206.71042Q20.815638 205.42917 21.471888 204.55417Q22.128138 203.66354 23.315638 203.3198L23.581263 204.4448Q22.643763 204.74167 22.221888 205.3198Q21.784388 205.8823 21.784388 206.74167Q21.784388 207.72604 22.268763 208.39792Q22.737513 209.05417 23.534388 209.33542Q24.331263 209.60104 25.190638 209.60104Q26.284388 209.60104 27.096888 209.28854Q27.909388 208.96042 28.315638 208.28854Q28.721888 207.61667 28.721888 206.8198Q28.721888 205.86667 28.175013 205.21042Q27.628138 204.53854 26.534388 204.30417ZM29.550013 201.4448L20.956263 201.4448L20.956263 198.1948Q20.956263 197.35104 21.034388 196.89792Q21.143763 196.2573 21.440638 195.83542Q21.737513 195.39792 22.268763 195.14792Q22.800013 194.8823 23.440638 194.8823Q24.534388 194.8823 25.300013 195.58542Q26.050013 196.27292 26.050013 198.10104L26.050013 200.30417L29.550013 200.30417L29.550013 201.4448ZM25.050013 200.30417L25.050013 198.08542Q25.050013 196.97604 24.643763 196.52292Q24.221888 196.05417 23.471888 196.05417Q22.940638 196.05417 22.565638 196.33542Q22.175013 196.60104 22.050013 197.03854Q21.971888 197.33542 21.971888 198.10104L21.971888 200.30417L25.050013 200.30417ZM20.956263 187.80417L20.956263 186.66354L25.925013 186.66354Q27.221888 186.66354 27.987513 186.96042Q28.737513 187.2573 29.221888 188.02292Q29.690638 188.78854 29.690638 190.02292Q29.690638 191.22604 29.284388 192.0073Q28.862513 192.77292 28.081263 193.10104Q27.284388 193.42917 25.925013 193.42917L20.956263 193.42917L20.956263 192.28854L25.909388 192.28854Q27.034388 192.28854 27.565638 192.08542Q28.096888 191.86667 28.393763 191.36667Q28.675013 190.85104 28.675013 190.11667Q28.675013 188.86667 28.112513 188.33542Q27.534388 187.80417 25.909388 187.80417L20.956263 187.80417Z" fill-rule="nonzero"/><path fill="#000000" d="M51.05 300.21564Q51.05 298.6844 51.3625 297.7625Q51.675 296.825 52.284374 296.325Q52.909374 295.825 53.846874 295.825Q54.534374 295.825 55.05 296.10626Q55.58125 296.3875 55.925 296.91876Q56.26875 297.4344 56.45625 298.1844Q56.64375 298.9344 56.64375 300.21564Q56.64375 301.73126 56.33125 302.65314Q56.034374 303.575 55.409374 304.09064Q54.8 304.59064 53.846874 304.59064Q52.6125 304.59064 51.89375 303.7Q51.05 302.6375 51.05 300.21564ZM52.128124 300.21564Q52.128124 302.325 52.628124 303.02814Q53.128124 303.73126 53.846874 303.73126Q54.58125 303.73126 55.065624 303.02814Q55.565624 302.325 55.565624 300.21564Q55.565624 298.09064 55.065624 297.40314Q54.58125 296.7 53.83125 296.7Q53.1125 296.7 52.675 297.3094Q52.128124 298.09064 52.128124 300.21564ZM58.64375 304.45L58.64375 303.2469L59.846874 303.2469L59.846874 304.45L58.64375 304.45ZM61.05 300.21564Q61.05 298.6844 61.3625 297.7625Q61.675 296.825 62.284374 296.325Q62.909374 295.825 63.846874 295.825Q64.53438 295.825 65.05 296.10626Q65.58125 296.3875 65.925 296.91876Q66.26875 297.4344 66.45625 298.1844Q66.64375 298.9344 66.64375 300.21564Q66.64375 301.73126 66.33125 302.65314Q66.03438 303.575 65.40938 304.09064Q64.8 304.59064 63.846874 304.59064Q62.6125 304.59064 61.89375 303.7Q61.05 302.6375 61.05 300.21564ZM62.128124 300.21564Q62.128124 302.325 62.628124 303.02814Q63.128124 303.73126 63.846874 303.73126Q64.58125 303.73126 65.06563 303.02814Q65.56563 302.325 65.56563 300.21564Q65.56563 298.09064 65.06563 297.40314Q64.58125 296.7 63.83125 296.7Q63.1125 296.7 62.675 297.3094Q62.128124 298.09064 62.128124 300.21564ZM68.05 300.21564Q68.05 298.6844 68.3625 297.7625Q68.675 296.825 69.28438 296.325Q69.90938 295.825 70.84688 295.825Q71.53438 295.825 72.05 296.10626Q72.58125 296.3875 72.925 296.91876Q73.26875 297.4344 73.45625 298.1844Q73.64375 298.9344 73.64375 300.21564Q73.64375 301.73126 73.33125 302.65314Q73.03438 303.575 72.40938 304.09064Q71.8 304.59064 70.84688 304.59064Q69.6125 304.59064 68.89375 303.7Q68.05 302.6375 68.05 300.21564ZM69.12813 300.21564Q69.12813 302.325 69.62813 303.02814Q70.12813 303.73126 70.84688 303.73126Q71.58125 303.73126 72.06563 303.02814Q72.56563 302.325 72.56563 300.21564Q72.56563 298.09064 72.06563 297.40314Q71.58125 296.7 70.83125 296.7Q70.1125 296.7 69.675 297.3094Q69.12813 298.09064 69.12813 300.21564Z" fill-rule="nonzero"/><path fill="#000000" d="M51.05 257.7823Q51.05 256.25104 51.3625 255.32916Q51.675 254.39166 52.284374 253.89166Q52.909374 253.39166 53.846874 253.39166Q54.534374 253.39166 55.05 253.67291Q55.58125 253.95416 55.925 254.48541Q56.26875 255.00104 56.45625 255.75104Q56.64375 256.50104 56.64375 257.7823Q56.64375 259.2979 56.33125 260.2198Q56.034374 261.14166 55.409374 261.6573Q54.8 262.1573 53.846874 262.1573Q52.6125 262.1573 51.89375 261.26666Q51.05 260.20416 51.05 257.7823ZM52.128124 257.7823Q52.128124 259.89166 52.628124 260.5948Q53.128124 261.2979 53.846874 261.2979Q54.58125 261.2979 55.065624 260.5948Q55.565624 259.89166 55.565624 257.7823Q55.565624 255.65729 55.065624 254.96979Q54.58125 254.26666 53.83125 254.26666Q53.1125 254.26666 52.675 254.87604Q52.128124 255.65729 52.128124 257.7823ZM58.64375 262.01666L58.64375 260.81354L59.846874 260.81354L59.846874 262.01666L58.64375 262.01666ZM66.59688 261.00104L66.59688 262.01666L60.909374 262.01666Q60.909374 261.64166 61.034374 261.2823Q61.253124 260.70416 61.721874 260.14166Q62.20625 259.57916 63.1125 258.8448Q64.51875 257.68854 65.00313 257.01666Q65.50313 256.3448 65.50313 255.75104Q65.50313 255.12604 65.05 254.70416Q64.59688 254.26666 63.878124 254.26666Q63.1125 254.26666 62.659374 254.71979Q62.20625 255.17291 62.190624 255.98541L61.1125 255.87604Q61.221874 254.65729 61.940624 254.03229Q62.675 253.39166 63.909374 253.39166Q65.14375 253.39166 65.8625 254.07916Q66.58125 254.76666 66.58125 255.78229Q66.58125 256.2979 66.3625 256.7979Q66.15938 257.2823 65.65938 257.8448Q65.175 258.39166 64.05 259.3448Q63.096874 260.14166 62.815624 260.43854Q62.55 260.7198 62.378124 261.00104L66.59688 261.00104ZM68.05 259.76666L69.15938 259.6729Q69.28438 260.4854 69.72188 260.89166Q70.175 261.2979 70.81563 261.2979Q71.56563 261.2979 72.09688 260.7198Q72.62813 260.14166 72.62813 259.20416Q72.62813 258.2979 72.1125 257.7823Q71.6125 257.25104 70.78438 257.25104Q70.28438 257.25104 69.8625 257.4854Q69.45625 257.7198 69.22188 258.07916L68.2375 257.95416L69.06563 253.54791L73.34688 253.54791L73.34688 254.54791L69.90938 254.54791L69.45625 256.8604Q70.22188 256.31354 71.06563 256.31354Q72.19063 256.31354 72.95625 257.0948Q73.7375 257.87604 73.7375 259.1104Q73.7375 260.26666 73.06563 261.12604Q72.2375 262.1573 70.81563 262.1573Q69.64375 262.1573 68.89375 261.50104Q68.15938 260.8448 68.05 259.76666Z" fill-rule="nonzero"/><path fill="#000000" d="M51.05 215.34895Q51.05 213.8177 51.3625 212.89583Q51.675 211.95833 52.284374 211.45833Q52.909374 210.95833 53.846874 210.95833Q54.534374 210.95833 55.05 211.23958Q55.58125 211.52083 55.925 212.05208Q56.26875 212.5677 56.45625 213.3177Q56.64375 214.0677 56.64375 215.34895Q56.64375 216.86458 56.33125 217.78645Q56.034374 218.70833 55.409374 219.22395Q54.8 219.72395 53.846874 219.72395Q52.6125 219.72395 51.89375 218.83333Q51.05 217.77083 51.05 215.34895ZM52.128124 215.34895Q52.128124 217.45833 52.628124 218.16145Q53.128124 218.86458 53.846874 218.86458Q54.58125 218.86458 55.065624 218.16145Q55.565624 217.45833 55.565624 215.34895Q55.565624 213.22395 55.065624 212.53645Q54.58125 211.83333 53.83125 211.83333Q53.1125 211.83333 52.675 212.4427Q52.128124 213.22395 52.128124 215.34895ZM58.64375 219.58333L58.64375 218.3802L59.846874 218.3802L59.846874 219.58333L58.64375 219.58333ZM61.05 217.33333L62.159374 217.23958Q62.284374 218.05208 62.721874 218.45833Q63.175 218.86458 63.815624 218.86458Q64.56563 218.86458 65.09688 218.28645Q65.62813 217.70833 65.62813 216.77083Q65.62813 215.86458 65.1125 215.34895Q64.6125 214.8177 63.784374 214.8177Q63.284374 214.8177 62.8625 215.05208Q62.45625 215.28645 62.221874 215.64583L61.2375 215.52083L62.065624 211.11458L66.34688 211.11458L66.34688 212.11458L62.909374 212.11458L62.45625 214.42708Q63.221874 213.8802 64.06563 213.8802Q65.19063 213.8802 65.95625 214.66145Q66.7375 215.4427 66.7375 216.67708Q66.7375 217.83333 66.06563 218.6927Q65.2375 219.72395 63.815624 219.72395Q62.64375 219.72395 61.89375 219.0677Q61.159374 218.41145 61.05 217.33333ZM68.05 215.34895Q68.05 213.8177 68.3625 212.89583Q68.675 211.95833 69.28438 211.45833Q69.90938 210.95833 70.84688 210.95833Q71.53438 210.95833 72.05 211.23958Q72.58125 211.52083 72.925 212.05208Q73.26875 212.5677 73.45625 213.3177Q73.64375 214.0677 73.64375 215.34895Q73.64375 216.86458 73.33125 217.78645Q73.03438 218.70833 72.40938 219.22395Q71.8 219.72395 70.84688 219.72395Q69.6125 219.72395 68.89375 218.83333Q68.05 217.77083 68.05 215.34895ZM69.12813 215.34895Q69.12813 217.45833 69.62813 218.16145Q70.12813 218.86458 70.84688 218.86458Q71.58125 218.86458 72.06563 218.16145Q72.56563 217.45833 72.56563 215.34895Q72.56563 213.22395 72.06563 212.53645Q71.58125 211.83333 70.83125 211.83333Q70.1125 211.83333 69.675 212.4427Q69.12813 213.22395 69.12813 215.34895Z" fill-rule="nonzero"/><path fill="#000000" d="M51.05 172.91562Q51.05 171.38437 51.3625 170.4625Q51.675 169.525 52.284374 169.025Q52.909374 168.525 53.846874 168.525Q54.534374 168.525 55.05 168.80624Q55.58125 169.0875 55.925 169.61874Q56.26875 170.13437 56.45625 170.88437Q56.64375 171.63437 56.64375 172.91562Q56.64375 174.43124 56.33125 175.35312Q56.034374 176.275 55.409374 176.79062Q54.8 177.29062 53.846874 177.29062Q52.6125 177.29062 51.89375 176.4Q51.05 175.3375 51.05 172.91562ZM52.128124 172.91562Q52.128124 175.025 52.628124 175.72812Q53.128124 176.43124 53.846874 176.43124Q54.58125 176.43124 55.065624 175.72812Q55.565624 175.025 55.565624 172.91562Q55.565624 170.79062 55.065624 170.10312Q54.58125 169.4 53.83125 169.4Q53.1125 169.4 52.675 170.00937Q52.128124 170.79062 52.128124 172.91562ZM58.64375 177.15L58.64375 175.94687L59.846874 175.94687L59.846874 177.15L58.64375 177.15ZM61.1125 169.68124L61.1125 168.66562L66.675 168.66562L66.675 169.49374Q65.8625 170.36874 65.05 171.82187Q64.25313 173.25937 63.815624 174.79062Q63.4875 175.86874 63.409374 177.15L62.315624 177.15Q62.33125 176.13437 62.70625 174.69687Q63.096874 173.25937 63.8 171.93124Q64.51875 170.60312 65.33125 169.68124L61.1125 169.68124ZM68.05 174.9L69.15938 174.80624Q69.28438 175.61874 69.72188 176.025Q70.175 176.43124 70.81563 176.43124Q71.56563 176.43124 72.09688 175.85312Q72.62813 175.275 72.62813 174.3375Q72.62813 173.43124 72.1125 172.91562Q71.6125 172.38437 70.78438 172.38437Q70.28438 172.38437 69.8625 172.61874Q69.45625 172.85312 69.22188 173.2125L68.2375 173.0875L69.06563 168.68124L73.34688 168.68124L73.34688 169.68124L69.90938 169.68124L69.45625 171.99374Q70.22188 171.44687 71.06563 171.44687Q72.19063 171.44687 72.95625 172.22812Q73.7375 173.00937 73.7375 174.24374Q73.7375 175.4 73.06563 176.25937Q72.2375 177.29062 70.81563 177.29062Q69.64375 177.29062 68.89375 176.63437Q68.15938 175.97812 68.05 174.9Z" fill-rule="nonzero"/><path fill="#000000" d="M55.01875 134.71666L53.971874 134.71666L53.971874 127.99791Q53.58125 128.35728 52.95625 128.73228Q52.346874 129.09166 51.8625 129.26353L51.8625 128.24791Q52.7375 127.826035 53.39375 127.24791Q54.065624 126.65416 54.346874 126.09166L55.01875 126.09166L55.01875 134.71666ZM58.64375 134.71666L58.64375 133.51353L59.846874 133.51353L59.846874 134.71666L58.64375 134.71666ZM61.05 130.48228Q61.05 128.95103 61.3625 128.02916Q61.675 127.09166 62.284374 126.59166Q62.909374 126.09166 63.846874 126.09166Q64.53438 126.09166 65.05 126.37291Q65.58125 126.65416 65.925 127.18541Q66.26875 127.701035 66.45625 128.45103Q66.64375 129.20103 66.64375 130.48228Q66.64375 131.99791 66.33125 132.91978Q66.03438 133.84166 65.40938 134.35728Q64.8 134.85728 63.846874 134.85728Q62.6125 134.85728 61.89375 133.96666Q61.05 132.90416 61.05 130.48228ZM62.128124 130.48228Q62.128124 132.59166 62.628124 133.29478Q63.128124 133.99791 63.846874 133.99791Q64.58125 133.99791 65.06563 133.29478Q65.56563 132.59166 65.56563 130.48228Q65.56563 128.35728 65.06563 127.669785Q64.58125 126.96666 63.83125 126.96666Q63.1125 126.96666 62.675 127.576035Q62.128124 128.35728 62.128124 130.48228ZM68.05 130.48228Q68.05 128.95103 68.3625 128.02916Q68.675 127.09166 69.28438 126.59166Q69.90938 126.09166 70.84688 126.09166Q71.53438 126.09166 72.05 126.37291Q72.58125 126.65416 72.925 127.18541Q73.26875 127.701035 73.45625 128.45103Q73.64375 129.20103 73.64375 130.48228Q73.64375 131.99791 73.33125 132.91978Q73.03438 133.84166 72.40938 134.35728Q71.8 134.85728 70.84688 134.85728Q69.6125 134.85728 68.89375 133.96666Q68.05 132.90416 68.05 130.48228ZM69.12813 130.48228Q69.12813 132.59166 69.62813 133.29478Q70.12813 133.99791 70.84688 133.99791Q71.58125 133.99791 72.06563 133.29478Q72.56563 132.59166 72.56563 130.48228Q72.56563 128.35728 72.06563 127.669785Q71.58125 126.96666 70.83125 126.96666Q70.1125 126.96666 69.675 127.576035Q69.12813 128.35728 69.12813 130.48228Z" fill-rule="nonzero"/><path fill="#000000" d="M55.01875 92.28333L53.971874 92.28333L53.971874 85.56458Q53.58125 85.92396 52.95625 86.29896Q52.346874 86.65833 51.8625 86.83021L51.8625 85.81458Q52.7375 85.39271 53.39375 84.81458Q54.065624 84.22083 54.346874 83.65833L55.01875 83.65833L55.01875 92.28333ZM58.64375 92.28333L58.64375 91.08021L59.846874 91.08021L59.846874 92.28333L58.64375 92.28333ZM66.59688 91.26771L66.59688 92.28333L60.909374 92.28333Q60.909374 91.90833 61.034374 91.54896Q61.253124 90.97083 61.721874 90.40833Q62.20625 89.84583 63.1125 89.11146Q64.51875 87.95521 65.00313 87.28333Q65.50313 86.61146 65.50313 86.01771Q65.50313 85.39271 65.05 84.97083Q64.59688 84.53333 63.878124 84.53333Q63.1125 84.53333 62.659374 84.98646Q62.20625 85.43958 62.190624 86.25208L61.1125 86.14271Q61.221874 84.92396 61.940624 84.29896Q62.675 83.65833 63.909374 83.65833Q65.14375 83.65833 65.8625 84.34583Q66.58125 85.03333 66.58125 86.04896Q66.58125 86.56458 66.3625 87.06458Q66.15938 87.54896 65.65938 88.11146Q65.175 88.65833 64.05 89.61146Q63.096874 90.40833 62.815624 90.70521Q62.55 90.98646 62.378124 91.26771L66.59688 91.26771ZM68.05 90.03333L69.15938 89.93958Q69.28438 90.75208 69.72188 91.15833Q70.175 91.56458 70.81563 91.56458Q71.56563 91.56458 72.09688 90.98646Q72.62813 90.40833 72.62813 89.47083Q72.62813 88.56458 72.1125 88.04896Q71.6125 87.51771 70.78438 87.51771Q70.28438 87.51771 69.8625 87.75208Q69.45625 87.98646 69.22188 88.34583L68.2375 88.22083L69.06563 83.81458L73.34688 83.81458L73.34688 84.81458L69.90938 84.81458L69.45625 87.12708Q70.22188 86.58021 71.06563 86.58021Q72.19063 86.58021 72.95625 87.36146Q73.7375 88.14271 73.7375 89.37708Q73.7375 90.53333 73.06563 91.39271Q72.2375 92.42396 70.81563 92.42396Q69.64375 92.42396 68.89375 91.76771Q68.15938 91.11146 68.05 90.03333Z" fill-rule="nonzero"/><path fill="#000000" d="M77.55 313.21564Q77.55 311.6844 77.8625 310.7625Q78.175 309.825 78.78438 309.325Q79.40938 308.825 80.34688 308.825Q81.03438 308.825 81.55 309.10626Q82.08125 309.3875 82.425 309.91876Q82.76875 310.4344 82.95625 311.1844Q83.14375 311.9344 83.14375 313.21564Q83.14375 314.73126 82.83125 315.65314Q82.53438 316.575 81.90938 317.09064Q81.3 317.59064 80.34688 317.59064Q79.1125 317.59064 78.39375 316.7Q77.55 315.6375 77.55 313.21564ZM78.62813 313.21564Q78.62813 315.325 79.12813 316.02814Q79.62813 316.73126 80.34688 316.73126Q81.08125 316.73126 81.56563 316.02814Q82.06563 315.325 82.06563 313.21564Q82.06563 311.09064 81.56563 310.40314Q81.08125 309.7 80.33125 309.7Q79.6125 309.7 79.175 310.3094Q78.62813 311.09064 78.62813 313.21564Z" fill-rule="nonzero"/><path fill="#000000" d="M213.65764 317.45L212.61076 317.45L212.61076 310.73126Q212.22014 311.09064 211.59514 311.46564Q210.98576 311.825 210.50139 311.9969L210.50139 310.98126Q211.37639 310.5594 212.03264 309.98126Q212.70451 309.3875 212.98576 308.825L213.65764 308.825L213.65764 317.45ZM216.68889 313.21564Q216.68889 311.6844 217.00139 310.7625Q217.31389 309.825 217.92326 309.325Q218.54826 308.825 219.48576 308.825Q220.17326 308.825 220.68889 309.10626Q221.22014 309.3875 221.56389 309.91876Q221.90764 310.4344 222.09514 311.1844Q222.28264 311.9344 222.28264 313.21564Q222.28264 314.73126 221.97014 315.65314Q221.67326 316.575 221.04826 317.09064Q220.43889 317.59064 219.48576 317.59064Q218.25139 317.59064 217.53264 316.7Q216.68889 315.6375 216.68889 313.21564ZM217.76701 313.21564Q217.76701 315.325 218.26701 316.02814Q218.76701 316.73126 219.48576 316.73126Q220.22014 316.73126 220.70451 316.02814Q221.20451 315.325 221.20451 313.21564Q221.20451 311.09064 220.70451 310.40314Q220.22014 309.7 219.47014 309.7Q218.75139 309.7 218.31389 310.3094Q217.76701 311.09064 217.76701 313.21564ZM223.68889 313.21564Q223.68889 311.6844 224.00139 310.7625Q224.31389 309.825 224.92326 309.325Q225.54826 308.825 226.48576 308.825Q227.17326 308.825 227.68889 309.10626Q228.22014 309.3875 228.56389 309.91876Q228.90764 310.4344 229.09514 311.1844Q229.28264 311.9344 229.28264 313.21564Q229.28264 314.73126 228.97014 315.65314Q228.67326 316.575 228.04826 317.09064Q227.43889 317.59064 226.48576 317.59064Q225.25139 317.59064 224.53264 316.7Q223.68889 315.6375 223.68889 313.21564ZM224.76701 313.21564Q224.76701 315.325 225.26701 316.02814Q225.76701 316.73126 226.48576 316.73126Q227.22014 316.73126 227.70451 316.02814Q228.20451 315.325 228.20451 313.21564Q228.20451 311.09064 227.70451 310.40314Q227.22014 309.7 226.47014 309.7Q225.75139 309.7 225.31389 310.3094Q224.76701 311.09064 224.76701 313.21564Z" fill-rule="nonzero"/><path fill="#000000" d="M354.37466 316.4344L354.37466 317.45L348.68716 317.45Q348.68716 317.075 348.81216 316.71564Q349.0309 316.1375 349.49966 315.575Q349.98404 315.0125 350.8903 314.27814Q352.29654 313.1219 352.7809 312.45Q353.2809 311.77814 353.2809 311.1844Q353.2809 310.5594 352.8278 310.1375Q352.37466 309.7 351.6559 309.7Q350.8903 309.7 350.43716 310.15314Q349.98404 310.60626 349.9684 311.41876L348.8903 311.3094Q348.99966 310.09064 349.7184 309.46564Q350.4528 308.825 351.68716 308.825Q352.92154 308.825 353.6403 309.5125Q354.35904 310.2 354.35904 311.21564Q354.35904 311.73126 354.1403 312.23126Q353.93716 312.71564 353.43716 313.27814Q352.9528 313.825 351.8278 314.77814Q350.87466 315.575 350.5934 315.8719Q350.3278 316.15314 350.1559 316.4344L354.37466 316.4344ZM355.8278 313.21564Q355.8278 311.6844 356.1403 310.7625Q356.4528 309.825 357.06216 309.325Q357.68716 308.825 358.62466 308.825Q359.31216 308.825 359.8278 309.10626Q360.35904 309.3875 360.7028 309.91876Q361.04654 310.4344 361.23404 311.1844Q361.42154 311.9344 361.42154 313.21564Q361.42154 314.73126 361.10904 315.65314Q360.81216 316.575 360.18716 317.09064Q359.5778 317.59064 358.62466 317.59064Q357.3903 317.59064 356.67154 316.7Q355.8278 315.6375 355.8278 313.21564ZM356.9059 313.21564Q356.9059 315.325 357.4059 316.02814Q357.9059 316.73126 358.62466 316.73126Q359.35904 316.73126 359.8434 316.02814Q360.3434 315.325 360.3434 313.21564Q360.3434 311.09064 359.8434 310.40314Q359.35904 309.7 358.60904 309.7Q357.8903 309.7 357.4528 310.3094Q356.9059 311.09064 356.9059 313.21564ZM362.8278 313.21564Q362.8278 311.6844 363.1403 310.7625Q363.4528 309.825 364.06216 309.325Q364.68716 308.825 365.62466 308.825Q366.31216 308.825 366.8278 309.10626Q367.35904 309.3875 367.7028 309.91876Q368.04654 310.4344 368.23404 311.1844Q368.42154 311.9344 368.42154 313.21564Q368.42154 314.73126 368.10904 315.65314Q367.81216 316.575 367.18716 317.09064Q366.5778 317.59064 365.62466 317.59064Q364.3903 317.59064 363.67154 316.7Q362.8278 315.6375 362.8278 313.21564ZM363.9059 313.21564Q363.9059 315.325 364.4059 316.02814Q364.9059 316.73126 365.62466 316.73126Q366.35904 316.73126 366.8434 316.02814Q367.3434 315.325 367.3434 313.21564Q367.3434 311.09064 366.8434 310.40314Q366.35904 309.7 365.60904 309.7Q364.8903 309.7 364.4528 310.3094Q363.9059 311.09064 363.9059 313.21564Z" fill-rule="nonzero"/><path fill="#000000" d="M487.96667 315.1844L489.02917 315.04376Q489.20105 315.9344 489.63855 316.34064Q490.07605 316.73126 490.70105 316.73126Q491.45105 316.73126 491.96667 316.21564Q492.4823 315.7 492.4823 314.9344Q492.4823 314.21564 491.99792 313.7469Q491.52917 313.2625 490.7948 313.2625Q490.49792 313.2625 490.0448 313.3875L490.1698 312.45Q490.27917 312.46564 490.34167 312.46564Q491.01355 312.46564 491.5448 312.1219Q492.09167 311.7625 492.09167 311.02814Q492.09167 310.45 491.70105 310.075Q491.31042 309.6844 490.68542 309.6844Q490.07605 309.6844 489.65417 310.075Q489.24792 310.46564 489.13855 311.23126L488.07605 311.04376Q488.26355 309.9969 488.95105 309.41876Q489.63855 308.825 490.65417 308.825Q491.3573 308.825 491.95105 309.1375Q492.5448 309.4344 492.8573 309.95Q493.1698 310.46564 493.1698 311.0594Q493.1698 311.60626 492.87292 312.075Q492.57605 312.52814 491.99792 312.79376Q492.74792 312.96564 493.1698 313.52814Q493.59167 314.075 493.59167 314.91876Q493.59167 316.04376 492.76355 316.825Q491.95105 317.60626 490.70105 317.60626Q489.57605 317.60626 488.82605 316.9344Q488.07605 316.2469 487.96667 315.1844ZM494.96667 313.21564Q494.96667 311.6844 495.27917 310.7625Q495.59167 309.825 496.20105 309.325Q496.82605 308.825 497.76355 308.825Q498.45105 308.825 498.96667 309.10626Q499.49792 309.3875 499.84167 309.91876Q500.18542 310.4344 500.37292 311.1844Q500.56042 311.9344 500.56042 313.21564Q500.56042 314.73126 500.24792 315.65314Q499.95105 316.575 499.32605 317.09064Q498.71667 317.59064 497.76355 317.59064Q496.52917 317.59064 495.81042 316.7Q494.96667 315.6375 494.96667 313.21564ZM496.0448 313.21564Q496.0448 315.325 496.5448 316.02814Q497.0448 316.73126 497.76355 316.73126Q498.49792 316.73126 498.9823 316.02814Q499.4823 315.325 499.4823 313.21564Q499.4823 311.09064 498.9823 310.40314Q498.49792 309.7 497.74792 309.7Q497.02917 309.7 496.59167 310.3094Q496.0448 311.09064 496.0448 313.21564ZM501.96667 313.21564Q501.96667 311.6844 502.27917 310.7625Q502.59167 309.825 503.20105 309.325Q503.82605 308.825 504.76355 308.825Q505.45105 308.825 505.96667 309.10626Q506.49792 309.3875 506.84167 309.91876Q507.18542 310.4344 507.37292 311.1844Q507.56042 311.9344 507.56042 313.21564Q507.56042 314.73126 507.24792 315.65314Q506.95105 316.575 506.32605 317.09064Q505.71667 317.59064 504.76355 317.59064Q503.52917 317.59064 502.81042 316.7Q501.96667 315.6375 501.96667 313.21564ZM503.0448 313.21564Q503.0448 315.325 503.5448 316.02814Q504.0448 316.73126 504.76355 316.73126Q505.49792 316.73126 505.9823 316.02814Q506.4823 315.325 506.4823 313.21564Q506.4823 311.09064 505.9823 310.40314Q505.49792 309.7 504.74792 309.7Q504.02917 309.7 503.59167 310.3094Q503.0448 311.09064 503.0448 313.21564Z" fill-rule="nonzero"/><path stroke="#4285f4" stroke-width="4.0" stroke-linecap="butt" d="M168.5 61.916668L180.5 61.916668" fill-rule="nonzero"/><path fill="#1a1a1a" d="M189.29688 65.916664L189.29688 57.322914L190.35938 57.322914L190.35938 62.229164L192.84375 59.697914L194.21875 59.697914L191.82812 61.99479L194.45312 65.916664L193.15625 65.916664L191.09375 62.729164L190.35938 63.447914L190.35938 65.916664L189.29688 65.916664ZM195.0 63.65104L196.0625 63.510414Q196.23438 64.40104 196.67188 64.80729Q197.10938 65.197914 197.73438 65.197914Q198.48438 65.197914 199.0 64.68229Q199.51562 64.166664 199.51562 63.40104Q199.51562 62.68229 199.03125 62.21354Q198.5625 61.729164 197.82812 61.729164Q197.53125 61.729164 197.07812 61.854164L197.20312 60.916664Q197.3125 60.93229 197.375 60.93229Q198.04688 60.93229 198.57812 60.58854Q199.125 60.229164 199.125 59.49479Q199.125 58.916664 198.73438 58.541664Q198.34375 58.15104 197.71875 58.15104Q197.10938 58.15104 196.6875 58.541664Q196.28125 58.93229 196.17188 59.697914L195.10938 59.510414Q195.29688 58.46354 195.98438 57.885414Q196.67188 57.291664 197.6875 57.291664Q198.39062 57.291664 198.98438 57.604164Q199.57812 57.90104 199.89062 58.416664Q200.20312 58.93229 200.20312 59.52604Q200.20312 60.072914 199.90625 60.541664Q199.60938 60.99479 199.03125 61.260414Q199.78125 61.43229 200.20312 61.99479Q200.625 62.541664 200.625 63.385414Q200.625 64.510414 199.79688 65.291664Q198.98438 66.072914 197.73438 66.072914Q196.60938 66.072914 195.85938 65.40104Q195.10938 64.71354 195.0 63.65104ZM201.875 64.05729L202.90625 63.90104Q203.0 64.52604 203.39062 64.854164Q203.79688 65.18229 204.53125 65.18229Q205.25 65.18229 205.59375 64.90104Q205.95312 64.604164 205.95312 64.197914Q205.95312 63.83854 205.64062 63.635414Q205.42188 63.49479 204.5625 63.27604Q203.40625 62.979164 202.95312 62.77604Q202.51562 62.55729 202.28125 62.18229Q202.04688 61.80729 202.04688 61.33854Q202.04688 60.93229 202.23438 60.572914Q202.42188 60.21354 202.75 59.979164Q203.0 59.80729 203.42188 59.68229Q203.84375 59.55729 204.34375 59.55729Q205.0625 59.55729 205.60938 59.77604Q206.17188 59.979164 206.4375 60.33854Q206.70312 60.697914 206.79688 61.291664L205.76562 61.43229Q205.70312 60.96354 205.35938 60.697914Q205.03125 60.416664 204.40625 60.416664Q203.6875 60.416664 203.375 60.666664Q203.0625 60.90104 203.0625 61.229164Q203.0625 61.43229 203.1875 61.58854Q203.32812 61.760414 203.59375 61.86979Q203.75 61.93229 204.53125 62.135414Q205.65625 62.447914 206.09375 62.635414Q206.53125 62.822914 206.78125 63.18229Q207.03125 63.541664 207.03125 64.08854Q207.03125 64.61979 206.71875 65.08854Q206.42188 65.541664 205.84375 65.80729Q205.26562 66.05729 204.53125 66.05729Q203.3125 66.05729 202.67188 65.55729Q202.04688 65.041664 201.875 64.05729ZM212.29688 68.30729L212.29688 59.697914L213.25 59.697914L213.25 60.49479Q213.59375 60.02604 214.01562 59.791664Q214.45312 59.55729 215.0625 59.55729Q215.85938 59.55729 216.46875 59.96354Q217.07812 60.36979 217.375 61.11979Q217.6875 61.86979 217.6875 62.760414Q217.6875 63.71354 217.34375 64.479164Q217.01562 65.24479 216.35938 65.65104Q215.70312 66.05729 214.98438 66.05729Q214.45312 66.05729 214.03125 65.83854Q213.60938 65.604164 213.34375 65.27604L213.34375 68.30729L212.29688 68.30729ZM213.25 62.83854Q213.25 64.041664 213.73438 64.61979Q214.21875 65.18229 214.90625 65.18229Q215.60938 65.18229 216.10938 64.58854Q216.60938 63.99479 216.60938 62.74479Q216.60938 61.55729 216.125 60.979164Q215.64062 60.385414 214.95312 60.385414Q214.28125 60.385414 213.76562 61.010414Q213.25 61.635414 213.25 62.83854ZM219.28125 65.916664L219.28125 59.697914L220.23438 59.697914L220.23438 60.635414Q220.59375 59.979164 220.89062 59.77604Q221.20312 59.55729 221.57812 59.55729Q222.10938 59.55729 222.65625 59.885414L222.29688 60.86979Q221.90625 60.635414 221.53125 60.635414Q221.17188 60.635414 220.89062 60.854164Q220.625 61.05729 220.51562 61.43229Q220.32812 61.99479 220.32812 62.65104L220.32812 65.916664L219.28125 65.916664ZM222.90625 62.80729Q222.90625 61.072914 223.85938 60.24479Q224.65625 59.55729 225.8125 59.55729Q227.09375 59.55729 227.90625 60.40104Q228.73438 61.229164 228.73438 62.71354Q228.73438 63.916664 228.375 64.604164Q228.01562 65.291664 227.3125 65.68229Q226.625 66.05729 225.8125 66.05729Q224.51562 66.05729 223.70312 65.229164Q222.90625 64.385414 222.90625 62.80729ZM223.98438 62.80729Q223.98438 63.99479 224.5 64.58854Q225.03125 65.18229 225.8125 65.18229Q226.60938 65.18229 227.125 64.58854Q227.64062 63.99479 227.64062 62.77604Q227.64062 61.61979 227.10938 61.02604Q226.59375 60.43229 225.8125 60.43229Q225.03125 60.43229 224.5 61.02604Q223.98438 61.604164 223.98438 62.80729ZM236.96875 65.916664L235.92188 65.916664L235.92188 59.197914Q235.53125 59.55729 234.90625 59.93229Q234.29688 60.291664 233.8125 60.46354L233.8125 59.447914Q234.6875 59.02604 235.34375 58.447914Q236.01562 57.854164 236.29688 57.291664L236.96875 57.291664L236.96875 65.916664Z" fill-rule="nonzero"/><path stroke="#ea4335" stroke-width="4.0" stroke-linecap="butt" d="M255.5 61.916668L267.5 61.916668" fill-rule="nonzero"/><path fill="#1a1a1a" d="M276.29688 65.916664L276.29688 57.322914L277.35938 57.322914L277.35938 62.229164L279.84375 59.697914L281.21875 59.697914L278.82812 61.99479L281.45312 65.916664L280.15625 65.916664L278.09375 62.729164L277.35938 63.447914L277.35938 65.916664L276.29688 65.916664ZM282.0 63.65104L283.0625 63.510414Q283.23438 64.40104 283.67188 64.80729Q284.10938 65.197914 284.73438 65.197914Q285.48438 65.197914 286.0 64.68229Q286.51562 64.166664 286.51562 63.40104Q286.51562 62.68229 286.03125 62.21354Q285.5625 61.729164 284.82812 61.729164Q284.53125 61.729164 284.07812 61.854164L284.20312 60.916664Q284.3125 60.93229 284.375 60.93229Q285.04688 60.93229 285.57812 60.58854Q286.125 60.229164 286.125 59.49479Q286.125 58.916664 285.73438 58.541664Q285.34375 58.15104 284.71875 58.15104Q284.10938 58.15104 283.6875 58.541664Q283.28125 58.93229 283.17188 59.697914L282.10938 59.510414Q282.29688 58.46354 282.98438 57.885414Q283.67188 57.291664 284.6875 57.291664Q285.39062 57.291664 285.98438 57.604164Q286.57812 57.90104 286.89062 58.416664Q287.20312 58.93229 287.20312 59.52604Q287.20312 60.072914 286.90625 60.541664Q286.60938 60.99479 286.03125 61.260414Q286.78125 61.43229 287.20312 61.99479Q287.625 62.541664 287.625 63.385414Q287.625 64.510414 286.79688 65.291664Q285.98438 66.072914 284.73438 66.072914Q283.60938 66.072914 282.85938 65.40104Q282.10938 64.71354 282.0 63.65104ZM288.875 64.05729L289.90625 63.90104Q290.0 64.52604 290.39062 64.854164Q290.79688 65.18229 291.53125 65.18229Q292.25 65.18229 292.59375 64.90104Q292.95312 64.604164 292.95312 64.197914Q292.95312 63.83854 292.64062 63.635414Q292.42188 63.49479 291.5625 63.27604Q290.40625 62.979164 289.95312 62.77604Q289.51562 62.55729 289.28125 62.18229Q289.04688 61.80729 289.04688 61.33854Q289.04688 60.93229 289.23438 60.572914Q289.42188 60.21354 289.75 59.979164Q290.0 59.80729 290.42188 59.68229Q290.84375 59.55729 291.34375 59.55729Q292.0625 59.55729 292.60938 59.77604Q293.17188 59.979164 293.4375 60.33854Q293.70312 60.697914 293.79688 61.291664L292.76562 61.43229Q292.70312 60.96354 292.35938 60.697914Q292.03125 60.416664 291.40625 60.416664Q290.6875 60.416664 290.375 60.666664Q290.0625 60.90104 290.0625 61.229164Q290.0625 61.43229 290.1875 61.58854Q290.32812 61.760414 290.59375 61.86979Q290.75 61.93229 291.53125 62.135414Q292.65625 62.447914 293.09375 62.635414Q293.53125 62.822914 293.78125 63.18229Q294.03125 63.541664 294.03125 64.08854Q294.03125 64.61979 293.71875 65.08854Q293.42188 65.541664 292.84375 65.80729Q292.26562 66.05729 291.53125 66.05729Q290.3125 66.05729 289.67188 65.55729Q289.04688 65.041664 288.875 64.05729ZM298.90625 62.80729Q298.90625 61.072914 299.85938 60.24479Q300.65625 59.55729 301.8125 59.55729Q303.09375 59.55729 303.90625 60.40104Q304.73438 61.229164 304.73438 62.71354Q304.73438 63.916664 304.375 64.604164Q304.01562 65.291664 303.3125 65.68229Q302.625 66.05729 301.8125 66.05729Q300.51562 66.05729 299.70312 65.229164Q298.90625 64.385414 298.90625 62.80729ZM299.98438 62.80729Q299.98438 63.99479 300.5 64.58854Q301.03125 65.18229 301.8125 65.18229Q302.60938 65.18229 303.125 64.58854Q303.64062 63.99479 303.64062 62.77604Q303.64062 61.61979 303.10938 61.02604Q302.59375 60.43229 301.8125 60.43229Q301.03125 60.43229 300.5 61.02604Q299.98438 61.604164 299.98438 62.80729ZM305.875 64.05729L306.90625 63.90104Q307.0 64.52604 307.39062 64.854164Q307.79688 65.18229 308.53125 65.18229Q309.25 65.18229 309.59375 64.90104Q309.95312 64.604164 309.95312 64.197914Q309.95312 63.83854 309.64062 63.635414Q309.42188 63.49479 308.5625 63.27604Q307.40625 62.979164 306.95312 62.77604Q306.51562 62.55729 306.28125 62.18229Q306.04688 61.80729 306.04688 61.33854Q306.04688 60.93229 306.23438 60.572914Q306.42188 60.21354 306.75 59.979164Q307.0 59.80729 307.42188 59.68229Q307.84375 59.55729 308.34375 59.55729Q309.0625 59.55729 309.60938 59.77604Q310.17188 59.979164 310.4375 60.33854Q310.70312 60.697914 310.79688 61.291664L309.76562 61.43229Q309.70312 60.96354 309.35938 60.697914Q309.03125 60.416664 308.40625 60.416664Q307.6875 60.416664 307.375 60.666664Q307.0625 60.90104 307.0625 61.229164Q307.0625 61.43229 307.1875 61.58854Q307.32812 61.760414 307.59375 61.86979Q307.75 61.93229 308.53125 62.135414Q309.65625 62.447914 310.09375 62.635414Q310.53125 62.822914 310.78125 63.18229Q311.03125 63.541664 311.03125 64.08854Q311.03125 64.61979 310.71875 65.08854Q310.42188 65.541664 309.84375 65.80729Q309.26562 66.05729 308.53125 66.05729Q307.3125 66.05729 306.67188 65.55729Q306.04688 65.041664 305.875 64.05729ZM312.875 64.05729L313.90625 63.90104Q314.0 64.52604 314.39062 64.854164Q314.79688 65.18229 315.53125 65.18229Q316.25 65.18229 316.59375 64.90104Q316.95312 64.604164 316.95312 64.197914Q316.95312 63.83854 316.64062 63.635414Q316.42188 63.49479 315.5625 63.27604Q314.40625 62.979164 313.95312 62.77604Q313.51562 62.55729 313.28125 62.18229Q313.04688 61.80729 313.04688 61.33854Q313.04688 60.93229 313.23438 60.572914Q313.42188 60.21354 313.75 59.979164Q314.0 59.80729 314.42188 59.68229Q314.84375 59.55729 315.34375 59.55729Q316.0625 59.55729 316.60938 59.77604Q317.17188 59.979164 317.4375 60.33854Q317.70312 60.697914 317.79688 61.291664L316.76562 61.43229Q316.70312 60.96354 316.35938 60.697914Q316.03125 60.416664 315.40625 60.416664Q314.6875 60.416664 314.375 60.666664Q314.0625 60.90104 314.0625 61.229164Q314.0625 61.43229 314.1875 61.58854Q314.32812 61.760414 314.59375 61.86979Q314.75 61.93229 315.53125 62.135414Q316.65625 62.447914 317.09375 62.635414Q317.53125 62.822914 317.78125 63.18229Q318.03125 63.541664 318.03125 64.08854Q318.03125 64.61979 317.71875 65.08854Q317.42188 65.541664 316.84375 65.80729Q316.26562 66.05729 315.53125 66.05729Q314.3125 66.05729 313.67188 65.55729Q313.04688 65.041664 312.875 64.05729Z" fill-rule="nonzero"/><path stroke="#fbbc04" stroke-width="4.0" stroke-linecap="butt" d="M335.5 61.916668L347.5 61.916668" fill-rule="nonzero"/><path fill="#1a1a1a" d="M356.29688 65.916664L356.29688 57.322914L357.35938 57.322914L357.35938 62.229164L359.84375 59.697914L361.21875 59.697914L358.82812 61.99479L361.45312 65.916664L360.15625 65.916664L358.09375 62.729164L357.35938 63.447914L357.35938 65.916664L356.29688 65.916664ZM362.0 61.68229Q362.0 60.15104 362.3125 59.229164Q362.625 58.291664 363.23438 57.791664Q363.85938 57.291664 364.79688 57.291664Q365.48438 57.291664 366.0 57.572914Q366.53125 57.854164 366.875 58.385414Q367.21875 58.90104 367.40625 59.65104Q367.59375 60.40104 367.59375 61.68229Q367.59375 63.197914 367.28125 64.11979Q366.98438 65.041664 366.35938 65.55729Q365.75 66.05729 364.79688 66.05729Q363.5625 66.05729 362.84375 65.166664Q362.0 64.104164 362.0 61.68229ZM363.07812 61.68229Q363.07812 63.791664 363.57812 64.49479Q364.07812 65.197914 364.79688 65.197914Q365.53125 65.197914 366.01562 64.49479Q366.51562 63.791664 366.51562 61.68229Q366.51562 59.55729 366.01562 58.86979Q365.53125 58.166664 364.78125 58.166664Q364.0625 58.166664 363.625 58.77604Q363.07812 59.55729 363.07812 61.68229ZM368.875 64.05729L369.90625 63.90104Q370.0 64.52604 370.39062 64.854164Q370.79688 65.18229 371.53125 65.18229Q372.25 65.18229 372.59375 64.90104Q372.95312 64.604164 372.95312 64.197914Q372.95312 63.83854 372.64062 63.635414Q372.42188 63.49479 371.5625 63.27604Q370.40625 62.979164 369.95312 62.77604Q369.51562 62.55729 369.28125 62.18229Q369.04688 61.80729 369.04688 61.33854Q369.04688 60.93229 369.23438 60.572914Q369.42188 60.21354 369.75 59.979164Q370.0 59.80729 370.42188 59.68229Q370.84375 59.55729 371.34375 59.55729Q372.0625 59.55729 372.60938 59.77604Q373.17188 59.979164 373.4375 60.33854Q373.70312 60.697914 373.79688 61.291664L372.76562 61.43229Q372.70312 60.96354 372.35938 60.697914Q372.03125 60.416664 371.40625 60.416664Q370.6875 60.416664 370.375 60.666664Q370.0625 60.90104 370.0625 61.229164Q370.0625 61.43229 370.1875 61.58854Q370.32812 61.760414 370.59375 61.86979Q370.75 61.93229 371.53125 62.135414Q372.65625 62.447914 373.09375 62.635414Q373.53125 62.822914 373.78125 63.18229Q374.03125 63.541664 374.03125 64.08854Q374.03125 64.61979 373.71875 65.08854Q373.42188 65.541664 372.84375 65.80729Q372.26562 66.05729 371.53125 66.05729Q370.3125 66.05729 369.67188 65.55729Q369.04688 65.041664 368.875 64.05729Z" fill-rule="nonzero"/><path stroke="#34a853" stroke-width="4.0" stroke-linecap="butt" d="M391.5 61.916668L403.5 61.916668" fill-rule="nonzero"/><path fill="#1a1a1a" d="M412.29688 65.916664L412.29688 57.322914L413.35938 57.322914L413.35938 62.229164L415.84375 59.697914L417.21875 59.697914L414.82812 61.99479L417.45312 65.916664L416.15625 65.916664L414.09375 62.729164L413.35938 63.447914L413.35938 65.916664L412.29688 65.916664ZM419.625 61.260414Q418.96875 61.010414 418.64062 60.572914Q418.32812 60.11979 418.32812 59.510414Q418.32812 58.572914 419.0 57.93229Q419.6875 57.291664 420.79688 57.291664Q421.92188 57.291664 422.60938 57.947914Q423.29688 58.604164 423.29688 59.541664Q423.29688 60.135414 422.98438 60.572914Q422.67188 61.010414 422.03125 61.260414Q422.82812 61.510414 423.23438 62.08854Q423.64062 62.666664 423.64062 63.46354Q423.64062 64.55729 422.85938 65.30729Q422.09375 66.05729 420.8125 66.05729Q419.54688 66.05729 418.76562 65.30729Q417.98438 64.55729 417.98438 63.43229Q417.98438 62.58854 418.40625 62.02604Q418.84375 61.46354 419.625 61.260414ZM419.40625 59.46354Q419.40625 60.072914 419.79688 60.46354Q420.20312 60.854164 420.82812 60.854164Q421.4375 60.854164 421.82812 60.479164Q422.21875 60.08854 422.21875 59.52604Q422.21875 58.947914 421.8125 58.55729Q421.40625 58.15104 420.8125 58.15104Q420.20312 58.15104 419.79688 58.541664Q419.40625 58.93229 419.40625 59.46354ZM419.07812 63.43229Q419.07812 63.885414 419.28125 64.30729Q419.5 64.729164 419.92188 64.96354Q420.34375 65.197914 420.82812 65.197914Q421.57812 65.197914 422.0625 64.71354Q422.5625 64.229164 422.5625 63.479164Q422.5625 62.71354 422.0625 62.21354Q421.5625 61.71354 420.79688 61.71354Q420.04688 61.71354 419.5625 62.21354Q419.07812 62.697914 419.07812 63.43229ZM424.875 64.05729L425.90625 63.90104Q426.0 64.52604 426.39062 64.854164Q426.79688 65.18229 427.53125 65.18229Q428.25 65.18229 428.59375 64.90104Q428.95312 64.604164 428.95312 64.197914Q428.95312 63.83854 428.64062 63.635414Q428.42188 63.49479 427.5625 63.27604Q426.40625 62.979164 425.95312 62.77604Q425.51562 62.55729 425.28125 62.18229Q425.04688 61.80729 425.04688 61.33854Q425.04688 60.93229 425.23438 60.572914Q425.42188 60.21354 425.75 59.979164Q426.0 59.80729 426.42188 59.68229Q426.84375 59.55729 427.34375 59.55729Q428.0625 59.55729 428.60938 59.77604Q429.17188 59.979164 429.4375 60.33854Q429.70312 60.697914 429.79688 61.291664L428.76562 61.43229Q428.70312 60.96354 428.35938 60.697914Q428.03125 60.416664 427.40625 60.416664Q426.6875 60.416664 426.375 60.666664Q426.0625 60.90104 426.0625 61.229164Q426.0625 61.43229 426.1875 61.58854Q426.32812 61.760414 426.59375 61.86979Q426.75 61.93229 427.53125 62.135414Q428.65625 62.447914 429.09375 62.635414Q429.53125 62.822914 429.78125 63.18229Q430.03125 63.541664 430.03125 64.08854Q430.03125 64.61979 429.71875 65.08854Q429.42188 65.541664 428.84375 65.80729Q428.26562 66.05729 427.53125 66.05729Q426.3125 66.05729 425.67188 65.55729Q425.04688 65.041664 424.875 64.05729Z" fill-rule="nonzero"/><path fill="#757575" d="M26.64375 33.753124L28.3625 33.971874Q28.08125 35.76875 26.909374 36.784374Q25.753124 37.784374 24.05 37.784374Q21.925 37.784374 20.628124 36.39375Q19.33125 35.003124 19.33125 32.409374Q19.33125 30.721874 19.878124 29.471874Q20.440624 28.20625 21.58125 27.58125Q22.721874 26.940624 24.065624 26.940624Q25.753124 26.940624 26.815624 27.8Q27.89375 28.659374 28.20625 30.221874L26.4875 30.4875Q26.253124 29.440624 25.628124 28.925Q25.003124 28.39375 24.128124 28.39375Q22.8 28.39375 21.971874 29.346874Q21.14375 30.3 21.14375 32.346874Q21.14375 34.440624 21.940624 35.39375Q22.7375 36.33125 24.034374 36.33125Q25.065624 36.33125 25.753124 35.70625Q26.45625 35.065624 26.64375 33.753124ZM29.8625 41.51875L29.8625 27.175L31.471874 27.175L31.471874 28.51875Q32.034374 27.7375 32.7375 27.346874Q33.45625 26.940624 34.471874 26.940624Q35.8 26.940624 36.815624 27.628124Q37.83125 28.315624 38.346874 29.565624Q38.878124 30.8 38.878124 32.284374Q38.878124 33.878124 38.3 35.159374Q37.7375 36.425 36.64375 37.1125Q35.55 37.784374 34.346874 37.784374Q33.471874 37.784374 32.76875 37.409374Q32.08125 37.034374 31.628124 36.471874L31.628124 41.51875L29.8625 41.51875ZM31.45625 32.425Q31.45625 34.425 32.26875 35.378124Q33.08125 36.33125 34.2375 36.33125Q35.409374 36.33125 36.2375 35.346874Q37.08125 34.3625 37.08125 32.26875Q37.08125 30.3 36.253124 29.315624Q35.440624 28.315624 34.315624 28.315624Q33.190624 28.315624 32.315624 29.378124Q31.45625 30.425 31.45625 32.425ZM47.659374 37.55L47.659374 36.01875Q46.45625 37.784374 44.378124 37.784374Q43.45625 37.784374 42.659374 37.440624Q41.8625 37.08125 41.471874 36.55Q41.096874 36.01875 40.940624 35.2375Q40.83125 34.721874 40.83125 33.596874L40.83125 27.175L42.58125 27.175L42.58125 32.925Q42.58125 34.3 42.690624 34.784374Q42.8625 35.471874 43.39375 35.878124Q43.940624 36.26875 44.721874 36.26875Q45.51875 36.26875 46.20625 35.8625Q46.909374 35.45625 47.190624 34.76875Q47.4875 34.065624 47.4875 32.7375L47.4875 27.175L49.2375 27.175L49.2375 37.55L47.659374 37.55ZM63.659374 37.55L63.659374 36.01875Q62.45625 37.784374 60.378124 37.784374Q59.45625 37.784374 58.659374 37.440624Q57.8625 37.08125 57.471874 36.55Q57.096874 36.01875 56.940624 35.2375Q56.83125 34.721874 56.83125 33.596874L56.83125 27.175L58.58125 27.175L58.58125 32.925Q58.58125 34.3 58.690624 34.784374Q58.8625 35.471874 59.39375 35.878124Q59.940624 36.26875 60.721874 36.26875Q61.51875 36.26875 62.20625 35.8625Q62.909374 35.45625 63.190624 34.76875Q63.4875 34.065624 63.4875 32.7375L63.4875 27.175L65.2375 27.175L65.2375 37.55L63.659374 37.55ZM66.15938 34.45625L67.90938 34.175Q68.05 35.221874 68.72188 35.784374Q69.39375 36.33125 70.59688 36.33125Q71.8 36.33125 72.37813 35.846874Q72.97188 35.346874 72.97188 34.690624Q72.97188 34.096874 72.45625 33.753124Q72.09688 33.51875 70.65938 33.159374Q68.72188 32.659374 67.97188 32.315624Q67.2375 31.95625 66.84688 31.33125Q66.45625 30.690624 66.45625 29.925Q66.45625 29.2375 66.76875 28.64375Q67.09688 28.05 67.64375 27.659374Q68.05 27.3625 68.75313 27.159374Q69.47188 26.940624 70.28438 26.940624Q71.50313 26.940624 72.425 27.3Q73.34688 27.64375 73.78438 28.253124Q74.22188 28.846874 74.39375 29.846874L72.675 30.08125Q72.55 29.284374 71.9875 28.846874Q71.425 28.39375 70.40938 28.39375Q69.19063 28.39375 68.675 28.8Q68.15938 29.190624 68.15938 29.721874Q68.15938 30.065624 68.37813 30.346874Q68.58125 30.628124 69.05 30.815624Q69.31563 30.909374 70.59688 31.253124Q72.47188 31.753124 73.20625 32.08125Q73.94063 32.39375 74.3625 33.003124Q74.78438 33.596874 74.78438 34.503124Q74.78438 35.378124 74.26875 36.159374Q73.75313 36.940624 72.78438 37.3625Q71.81563 37.784374 70.59688 37.784374Q68.58125 37.784374 67.51875 36.940624Q66.45625 36.096874 66.15938 34.45625ZM83.64375 36.26875Q82.65938 37.096874 81.75313 37.440624Q80.84688 37.784374 79.81563 37.784374Q78.1125 37.784374 77.19063 36.95625Q76.26875 36.1125 76.26875 34.815624Q76.26875 34.05 76.6125 33.425Q76.97188 32.8 77.53438 32.425Q78.09688 32.034374 78.8 31.83125Q79.31563 31.70625 80.3625 31.565624Q82.4875 31.315624 83.4875 30.971874Q83.50313 30.6125 83.50313 30.503124Q83.50313 29.440624 83.00313 28.9875Q82.33125 28.39375 81.00313 28.39375Q79.75313 28.39375 79.15938 28.83125Q78.58125 29.26875 78.3 30.378124L76.58125 30.14375Q76.81563 29.034374 77.34688 28.3625Q77.87813 27.675 78.89375 27.315624Q79.90938 26.940624 81.25313 26.940624Q82.58125 26.940624 83.40938 27.253124Q84.2375 27.565624 84.62813 28.05Q85.01875 28.51875 85.175 29.2375Q85.26875 29.690624 85.26875 30.8625L85.26875 33.20625Q85.26875 35.659374 85.37813 36.315624Q85.4875 36.95625 85.83125 37.55L83.9875 37.55Q83.72188 37.003124 83.64375 36.26875ZM83.4875 32.346874Q82.53438 32.7375 80.6125 33.003124Q79.53438 33.159374 79.08125 33.3625Q78.64375 33.55 78.39375 33.925Q78.14375 34.3 78.14375 34.76875Q78.14375 35.471874 78.675 35.940624Q79.20625 36.409374 80.2375 36.409374Q81.25313 36.409374 82.03438 35.971874Q82.83125 35.51875 83.20625 34.753124Q83.4875 34.14375 83.4875 32.9875L83.4875 32.346874ZM87.55 38.409374L89.25313 38.659374Q89.3625 39.45625 89.84688 39.815624Q90.50313 40.3 91.64375 40.3Q92.8625 40.3 93.51875 39.815624Q94.19063 39.33125 94.425 38.45625Q94.56563 37.909374 94.55 36.190624Q93.39375 37.55 91.675 37.55Q89.53438 37.55 88.3625 36.003124Q87.19063 34.45625 87.19063 32.3Q87.19063 30.815624 87.72188 29.565624Q88.26875 28.315624 89.28438 27.628124Q90.31563 26.940624 91.69063 26.940624Q93.51875 26.940624 94.72188 28.425L94.72188 27.175L96.33125 27.175L96.33125 36.14375Q96.33125 38.565624 95.83125 39.565624Q95.34688 40.58125 94.26875 41.159374Q93.20625 41.753124 91.64375 41.753124Q89.8 41.753124 88.64375 40.925Q87.50313 40.096874 87.55 38.409374ZM89.00313 32.175Q89.00313 34.221874 89.81563 35.159374Q90.62813 36.096874 91.84688 36.096874Q93.05 36.096874 93.8625 35.159374Q94.69063 34.221874 94.69063 32.2375Q94.69063 30.33125 93.84688 29.3625Q93.00313 28.39375 91.81563 28.39375Q90.64375 28.39375 89.81563 29.346874Q89.00313 30.3 89.00313 32.175ZM105.97188 34.20625L107.78438 34.440624Q107.3625 36.01875 106.19063 36.909374Q105.03438 37.784374 103.22188 37.784374Q100.95625 37.784374 99.6125 36.39375Q98.28438 34.9875 98.28438 32.45625Q98.28438 29.83125 99.62813 28.39375Q100.97188 26.940624 103.12813 26.940624Q105.20625 26.940624 106.51875 28.3625Q107.84688 29.76875 107.84688 32.346874Q107.84688 32.503124 107.83125 32.815624L100.09688 32.815624Q100.19063 34.51875 101.06563 35.425Q101.94063 36.33125 103.2375 36.33125Q104.20625 36.33125 104.87813 35.83125Q105.56563 35.315624 105.97188 34.20625ZM100.19063 31.3625L105.9875 31.3625Q105.87813 30.065624 105.33125 29.409374Q104.4875 28.39375 103.14375 28.39375Q101.94063 28.39375 101.1125 29.20625Q100.28438 30.003124 100.19063 31.3625ZM115.22188 32.3625Q115.22188 29.4875 116.81563 28.096874Q118.15938 26.940624 120.08125 26.940624Q122.22188 26.940624 123.56563 28.346874Q124.925 29.753124 124.925 32.221874Q124.925 34.221874 124.33125 35.378124Q123.7375 36.51875 122.58125 37.159374Q121.44063 37.784374 120.08125 37.784374Q117.89375 37.784374 116.55 36.39375Q115.22188 34.9875 115.22188 32.3625ZM117.01875 32.3625Q117.01875 34.3625 117.87813 35.346874Q118.75313 36.33125 120.08125 36.33125Q121.39375 36.33125 122.25313 35.346874Q123.12813 34.346874 123.12813 32.3Q123.12813 30.378124 122.25313 29.39375Q121.37813 28.39375 120.08125 28.39375Q118.75313 28.39375 117.87813 29.39375Q117.01875 30.378124 117.01875 32.3625ZM129.75313 37.55L125.8 27.175L127.65938 27.175L129.89375 33.39375Q130.25313 34.39375 130.55 35.471874Q130.78438 34.659374 131.20625 33.503124L133.50313 27.175L135.31563 27.175L131.39375 37.55L129.75313 37.55ZM142.97188 34.20625L144.78438 34.440624Q144.3625 36.01875 143.19063 36.909374Q142.03438 37.784374 140.22188 37.784374Q137.95625 37.784374 136.6125 36.39375Q135.28438 34.9875 135.28438 32.45625Q135.28438 29.83125 136.62813 28.39375Q137.97188 26.940624 140.12813 26.940624Q142.20625 26.940624 143.51875 28.3625Q144.84688 29.76875 144.84688 32.346874Q144.84688 32.503124 144.83125 32.815624L137.09688 32.815624Q137.19063 34.51875 138.06563 35.425Q138.94063 36.33125 140.2375 36.33125Q141.20625 36.33125 141.87813 35.83125Q142.56563 35.315624 142.97188 34.20625ZM137.19063 31.3625L142.9875 31.3625Q142.87813 30.065624 142.33125 29.409374Q141.4875 28.39375 140.14375 28.39375Q138.94063 28.39375 138.1125 29.20625Q137.28438 30.003124 137.19063 31.3625ZM146.84688 37.55L146.84688 27.175L148.425 27.175L148.425 28.753124Q149.03438 27.64375 149.55 27.3Q150.06563 26.940624 150.675 26.940624Q151.56563 26.940624 152.4875 27.503124L151.87813 29.14375Q151.2375 28.753124 150.59688 28.753124Q150.01875 28.753124 149.55 29.1125Q149.09688 29.45625 148.89375 30.065624Q148.6125 31.003124 148.6125 32.1125L148.6125 37.55L146.84688 37.55ZM163.70625 35.971874L163.95625 37.534374Q163.22188 37.690624 162.62813 37.690624Q161.675 37.690624 161.14375 37.39375Q160.62813 37.08125 160.40938 36.596874Q160.19063 36.096874 160.19063 34.51875L160.19063 28.55L158.90938 28.55L158.90938 27.175L160.19063 27.175L160.19063 24.6125L161.94063 23.55L161.94063 27.175L163.70625 27.175L163.70625 28.55L161.94063 28.55L161.94063 34.6125Q161.94063 35.3625 162.03438 35.58125Q162.12813 35.784374 162.33125 35.925Q162.55 36.05 162.94063 36.05Q163.22188 36.05 163.70625 35.971874ZM165.87813 25.253124L165.87813 23.2375L167.64375 23.2375L167.64375 25.253124L165.87813 25.253124ZM165.87813 37.55L165.87813 27.175L167.64375 27.175L167.64375 37.55L165.87813 37.55ZM169.8625 37.55L169.8625 27.175L171.44063 27.175L171.44063 28.628124Q171.925 27.878124 172.7375 27.409374Q173.55 26.940624 174.58125 26.940624Q175.7375 26.940624 176.47188 27.425Q177.20625 27.89375 177.51875 28.753124Q178.75313 26.940624 180.72188 26.940624Q182.26875 26.940624 183.09688 27.8Q183.925 28.659374 183.925 30.425L183.925 37.55L182.175 37.55L182.175 31.01875Q182.175 29.95625 182.00313 29.503124Q181.83125 29.034374 181.37813 28.753124Q180.94063 28.471874 180.33125 28.471874Q179.2375 28.471874 178.50313 29.20625Q177.78438 29.925 177.78438 31.51875L177.78438 37.55L176.03438 37.55L176.03438 30.815624Q176.03438 29.64375 175.59688 29.065624Q175.175 28.471874 174.19063 28.471874Q173.45625 28.471874 172.81563 28.8625Q172.19063 29.253124 171.90938 30.003124Q171.62813 30.753124 171.62813 32.175L171.62813 37.55L169.8625 37.55ZM192.97188 34.20625L194.78438 34.440624Q194.3625 36.01875 193.19063 36.909374Q192.03438 37.784374 190.22188 37.784374Q187.95625 37.784374 186.6125 36.39375Q185.28438 34.9875 185.28438 32.45625Q185.28438 29.83125 186.62813 28.39375Q187.97188 26.940624 190.12813 26.940624Q192.20625 26.940624 193.51875 28.3625Q194.84688 29.76875 194.84688 32.346874Q194.84688 32.503124 194.83125 32.815624L187.09688 32.815624Q187.19063 34.51875 188.06563 35.425Q188.94063 36.33125 190.2375 36.33125Q191.20625 36.33125 191.87813 35.83125Q192.56563 35.315624 192.97188 34.20625ZM187.19063 31.3625L192.9875 31.3625Q192.87813 30.065624 192.33125 29.409374Q191.4875 28.39375 190.14375 28.39375Q188.94063 28.39375 188.1125 29.20625Q187.28438 30.003124 187.19063 31.3625ZM206.22188 41.753124Q204.76875 39.925 203.76875 37.471874Q202.76875 35.003124 202.76875 32.3625Q202.76875 30.034374 203.51875 27.909374Q204.39375 25.440624 206.22188 22.9875L207.4875 22.9875Q206.3 25.01875 205.925 25.89375Q205.33125 27.2375 204.9875 28.70625Q204.56563 30.534374 204.56563 32.378124Q204.56563 37.065624 207.4875 41.753124L206.22188 41.753124ZM209.87813 25.253124L209.87813 23.2375L211.64375 23.2375L211.64375 25.253124L209.87813 25.253124ZM209.87813 37.55L209.87813 27.175L211.64375 27.175L211.64375 37.55L209.87813 37.55ZM213.8625 37.55L213.8625 27.175L215.45625 27.175L215.45625 28.659374Q216.59688 26.940624 218.75313 26.940624Q219.69063 26.940624 220.47188 27.284374Q221.26875 27.6125 221.65938 28.159374Q222.05 28.70625 222.20625 29.45625Q222.3 29.95625 222.3 31.175L222.3 37.55L220.53438 37.55L220.53438 31.2375Q220.53438 30.159374 220.33125 29.628124Q220.12813 29.096874 219.59688 28.784374Q219.08125 28.471874 218.37813 28.471874Q217.25313 28.471874 216.44063 29.190624Q215.62813 29.89375 215.62813 31.878124L215.62813 37.55L213.8625 37.55ZM236.64375 33.753124L238.3625 33.971874Q238.08125 35.76875 236.90938 36.784374Q235.75313 37.784374 234.05 37.784374Q231.925 37.784374 230.62813 36.39375Q229.33125 35.003124 229.33125 32.409374Q229.33125 30.721874 229.87813 29.471874Q230.44063 28.20625 231.58125 27.58125Q232.72188 26.940624 234.06563 26.940624Q235.75313 26.940624 236.81563 27.8Q237.89375 28.659374 238.20625 30.221874L236.4875 30.4875Q236.25313 29.440624 235.62813 28.925Q235.00313 28.39375 234.12813 28.39375Q232.8 28.39375 231.97188 29.346874Q231.14375 30.3 231.14375 32.346874Q231.14375 34.440624 231.94063 35.39375Q232.7375 36.33125 234.03438 36.33125Q235.06563 36.33125 235.75313 35.70625Q236.45625 35.065624 236.64375 33.753124ZM239.8625 41.51875L239.8625 27.175L241.47188 27.175L241.47188 28.51875Q242.03438 27.7375 242.7375 27.346874Q243.45625 26.940624 244.47188 26.940624Q245.8 26.940624 246.81563 27.628124Q247.83125 28.315624 248.34688 29.565624Q248.87813 30.8 248.87813 32.284374Q248.87813 33.878124 248.3 35.159374Q247.7375 36.425 246.64375 37.1125Q245.55 37.784374 244.34688 37.784374Q243.47188 37.784374 242.76875 37.409374Q242.08125 37.034374 241.62813 36.471874L241.62813 41.51875L239.8625 41.51875ZM241.45625 32.425Q241.45625 34.425 242.26875 35.378124Q243.08125 36.33125 244.2375 36.33125Q245.40938 36.33125 246.2375 35.346874Q247.08125 34.3625 247.08125 32.26875Q247.08125 30.3 246.25313 29.315624Q245.44063 28.315624 244.31563 28.315624Q243.19063 28.315624 242.31563 29.378124Q241.45625 30.425 241.45625 32.425ZM257.65936 37.55L257.65936 36.01875Q256.45624 37.784374 254.37813 37.784374Q253.45625 37.784374 252.65938 37.440624Q251.8625 37.08125 251.47188 36.55Q251.09688 36.01875 250.94063 35.2375Q250.83125 34.721874 250.83125 33.596874L250.83125 27.175L252.58125 27.175L252.58125 32.925Q252.58125 34.3 252.69063 34.784374Q252.8625 35.471874 253.39375 35.878124Q253.94063 36.26875 254.72188 36.26875Q255.51875 36.26875 256.20624 35.8625Q256.90936 35.45625 257.1906 34.76875Q257.4875 34.065624 257.4875 32.7375L257.4875 27.175L259.2375 27.175L259.2375 37.55L257.65936 37.55ZM262.01874 41.753124L260.76874 41.753124Q263.675 37.065624 263.675 32.378124Q263.675 30.534374 263.26874 28.7375Q262.925 27.26875 262.33124 25.925Q261.95624 25.034374 260.76874 22.9875L262.01874 22.9875Q263.8625 25.440624 264.7375 27.909374Q265.4875 30.034374 265.4875 32.3625Q265.4875 35.003124 264.47186 37.471874Q263.47186 39.925 262.01874 41.753124ZM277.22186 41.753124Q275.76874 39.925 274.76874 37.471874Q273.76874 35.003124 273.76874 32.3625Q273.76874 30.034374 274.51874 27.909374Q275.39374 25.440624 277.22186 22.9875L278.4875 22.9875Q277.3 25.01875 276.925 25.89375Q276.33124 27.2375 275.9875 28.70625Q275.5656 30.534374 275.5656 32.378124Q275.5656 37.065624 278.4875 41.753124L277.22186 41.753124ZM280.8781 25.253124L280.8781 23.2375L282.64374 23.2375L282.64374 25.253124L280.8781 25.253124ZM280.8781 37.55L280.8781 27.175L282.64374 27.175L282.64374 37.55L280.8781 37.55ZM284.8625 37.55L284.8625 27.175L286.45624 27.175L286.45624 28.659374Q287.59686 26.940624 289.7531 26.940624Q290.6906 26.940624 291.47186 27.284374Q292.26874 27.6125 292.65936 28.159374Q293.05 28.70625 293.20624 29.45625Q293.3 29.95625 293.3 31.175L293.3 37.55L291.53436 37.55L291.53436 31.2375Q291.53436 30.159374 291.33124 29.628124Q291.1281 29.096874 290.59686 28.784374Q290.08124 28.471874 289.3781 28.471874Q288.2531 28.471874 287.4406 29.190624Q286.6281 29.89375 286.6281 31.878124L286.6281 37.55L284.8625 37.55ZM298.70624 35.971874L298.95624 37.534374Q298.22186 37.690624 297.6281 37.690624Q296.675 37.690624 296.14374 37.39375Q295.6281 37.08125 295.40936 36.596874Q295.1906 36.096874 295.1906 34.51875L295.1906 28.55L293.90936 28.55L293.90936 27.175L295.1906 27.175L295.1906 24.6125L296.9406 23.55L296.9406 27.175L298.70624 27.175L298.70624 28.55L296.9406 28.55L296.9406 34.6125Q296.9406 35.3625 297.03436 35.58125Q297.1281 35.784374 297.33124 35.925Q297.55 36.05 297.9406 36.05Q298.22186 36.05 298.70624 35.971874ZM307.97186 34.20625L309.78436 34.440624Q309.3625 36.01875 308.1906 36.909374Q307.03436 37.784374 305.22186 37.784374Q302.95624 37.784374 301.6125 36.39375Q300.28436 34.9875 300.28436 32.45625Q300.28436 29.83125 301.6281 28.39375Q302.97186 26.940624 305.1281 26.940624Q307.20624 26.940624 308.51874 28.3625Q309.84686 29.76875 309.84686 32.346874Q309.84686 32.503124 309.83124 32.815624L302.09686 32.815624Q302.1906 34.51875 303.0656 35.425Q303.9406 36.33125 305.2375 36.33125Q306.20624 36.33125 306.8781 35.83125Q307.5656 35.315624 307.97186 34.20625ZM302.1906 31.3625L307.9875 31.3625Q307.8781 30.065624 307.33124 29.409374Q306.4875 28.39375 305.14374 28.39375Q303.9406 28.39375 303.1125 29.20625Q302.28436 30.003124 302.1906 31.3625ZM311.8625 37.55L311.8625 27.175L313.45624 27.175L313.45624 28.659374Q314.59686 26.940624 316.7531 26.940624Q317.6906 26.940624 318.47186 27.284374Q319.26874 27.6125 319.65936 28.159374Q320.05 28.70625 320.20624 29.45625Q320.3 29.95625 320.3 31.175L320.3 37.55L318.53436 37.55L318.53436 31.2375Q318.53436 30.159374 318.33124 29.628124Q318.1281 29.096874 317.59686 28.784374Q317.08124 28.471874 316.3781 28.471874Q315.2531 28.471874 314.4406 29.190624Q313.6281 29.89375 313.6281 31.878124L313.6281 37.55L311.8625 37.55ZM321.15936 34.45625L322.90936 34.175Q323.05 35.221874 323.72186 35.784374Q324.39374 36.33125 325.59686 36.33125Q326.8 36.33125 327.3781 35.846874Q327.97186 35.346874 327.97186 34.690624Q327.97186 34.096874 327.45624 33.753124Q327.09686 33.51875 325.65936 33.159374Q323.72186 32.659374 322.97186 32.315624Q322.2375 31.95625 321.84686 31.33125Q321.45624 30.690624 321.45624 29.925Q321.45624 29.2375 321.76874 28.64375Q322.09686 28.05 322.64374 27.659374Q323.05 27.3625 323.7531 27.159374Q324.47186 26.940624 325.28436 26.940624Q326.5031 26.940624 327.425 27.3Q328.34686 27.64375 328.78436 28.253124Q329.22186 28.846874 329.39374 29.846874L327.675 30.08125Q327.55 29.284374 326.9875 28.846874Q326.425 28.39375 325.40936 28.39375Q324.1906 28.39375 323.675 28.8Q323.15936 29.190624 323.15936 29.721874Q323.15936 30.065624 323.3781 30.346874Q323.58124 30.628124 324.05 30.815624Q324.3156 30.909374 325.59686 31.253124Q327.47186 31.753124 328.20624 32.08125Q328.9406 32.39375 329.3625 33.003124Q329.78436 33.596874 329.78436 34.503124Q329.78436 35.378124 329.26874 36.159374Q328.7531 36.940624 327.78436 37.3625Q326.8156 37.784374 325.59686 37.784374Q323.58124 37.784374 322.51874 36.940624Q321.45624 36.096874 321.15936 34.45625ZM331.8781 25.253124L331.8781 23.2375L333.64374 23.2375L333.64374 25.253124L331.8781 25.253124ZM331.8781 37.55L331.8781 27.175L333.64374 27.175L333.64374 37.55L331.8781 37.55ZM338.7531 37.55L334.8 27.175L336.65936 27.175L338.89374 33.39375Q339.2531 34.39375 339.55 35.471874Q339.78436 34.659374 340.20624 33.503124L342.5031 27.175L344.3156 27.175L340.39374 37.55L338.7531 37.55ZM351.97186 34.20625L353.78436 34.440624Q353.3625 36.01875 352.1906 36.909374Q351.03436 37.784374 349.22186 37.784374Q346.95624 37.784374 345.6125 36.39375Q344.28436 34.9875 344.28436 32.45625Q344.28436 29.83125 345.6281 28.39375Q346.97186 26.940624 349.1281 26.940624Q351.20624 26.940624 352.51874 28.3625Q353.84686 29.76875 353.84686 32.346874Q353.84686 32.503124 353.83124 32.815624L346.09686 32.815624Q346.1906 34.51875 347.0656 35.425Q347.9406 36.33125 349.2375 36.33125Q350.20624 36.33125 350.8781 35.83125Q351.5656 35.315624 351.97186 34.20625ZM346.1906 31.3625L351.9875 31.3625Q351.8781 30.065624 351.33124 29.409374Q350.4875 28.39375 349.14374 28.39375Q347.9406 28.39375 347.1125 29.20625Q346.28436 30.003124 346.1906 31.3625ZM357.01874 41.753124L355.76874 41.753124Q358.675 37.065624 358.675 32.378124Q358.675 30.534374 358.26874 28.7375Q357.925 27.26875 357.33124 25.925Q356.95624 25.034374 355.76874 22.9875L357.01874 22.9875Q358.8625 25.440624 359.7375 27.909374Q360.4875 30.034374 360.4875 32.3625Q360.4875 35.003124 359.47186 37.471874Q358.47186 39.925 357.01874 41.753124Z" fill-rule="nonzero"/></svg>