<svg version="1.1" viewBox="0.0 0.0 600.0 371.0" fill="none" stroke="none" stroke-linecap="square" stroke-miterlimit="10" width="600" height="371" xmlns:xlink="http://www.w3.org/1999/xlink" xmlns="http://www.w3.org/2000/svg"><path fill="#ffffff" d="M0 0L600.0 0L600.0 371.0L0 371.0L0 0Z" fill-rule="nonzero"/><path stroke="#333333" stroke-width="1.0" stroke-linecap="butt" d="M77.5 88.5L77.5 300.5" fill-rule="nonzero"/><path stroke="#cccccc" stroke-width="1.0" stroke-linecap="butt" d="M217.5 88.5L217.5 300.5" fill-rule="nonzero"/><path stroke="#cccccc" stroke-width="1.0" stroke-linecap="butt" d="M357.5 88.5L357.5 300.5" fill-rule="nonzero"/><path stroke="#cccccc" stroke-width="1.0" stroke-linecap="butt" d="M497.5 88.5L497.5 300.5" fill-rule="nonzero"/><path stroke="#333333" stroke-width="1.0" stroke-linecap="butt" d="M77.5 300.5L581.5 300.5" fill-rule="nonzero"/><path stroke="#cccccc" stroke-width="1.0" stroke-linecap="butt" d="M77.5 247.5L581.5 247.5" fill-rule="nonzero"/><path stroke="#cccccc" stroke-width="1.0" stroke-linecap="butt" d="M77.5 194.5L581.5 194.5" fill-rule="nonzero"/><path stroke="#cccccc" stroke-width="1.0" stroke-linecap="butt" d="M77.5 141.5L581.5 141.5" fill-rule="nonzero"/><path stroke="#cccccc" stroke-width="1.0" stroke-linecap="butt" d="M77.5 88.5L581.5 88.5" fill-rule="nonzero"/><clipPath id="id_0"><path d="M77.55 88.28333L581.45 88.28333L581.45 300.45L77.55 300.45L77.55 88.28333Z" clip-rule="nonzero"/></clipPath><path stroke="#4285f4" stroke-width="2.0" stroke-linecap="butt" clip-path="url(#id_0)" d="M77.55 250.93784L119.541664 243.35442L161.53334 241.02432L203.525 238.64207L245.51666 237.37329L287.50833 235.42557L329.5 233.77548L371.49167 232.95425L413.48334 231.17816L455.475 228.80461L497.46667 228.65253L539.4583 226.1823L581.45 300.42175" fill-rule="nonzero"/><path stroke="#ea4335" stroke-width="2.0" stroke-linecap="butt" clip-path="url(#id_0)" d="M77.55 297.80814L119.541664 297.80814L161.53334 252.1534L203.525 230.39168L245.51666 225.86185L287.50833 214.90114L329.5 203.55916L371.49167 185.87973L413.48334 170.94102L455.475 159.5936L497.46667 147.86598L539.4583 137.03455L581.45 125.75014" fill-rule="nonzero"/><path stroke="#fbbc04" stroke-width="2.0" stroke-linecap="butt" clip-path="url(#id_0)" d="M77.55 256.24084L119.541664 256.6145L161.53334 246.32722L203.525 243.94615L245.51666 242.6767L287.50833 240.72803L329.5 239.07846L371.49167 238.25592L413.48334 236.48119L455.475 234.10823L497.46667 233.95453L539.4583 231.486L581.45 231.48468" fill-rule="nonzero"/><path stroke="#34a853" stroke-width="2.0" stroke-linecap="butt" clip-path="url(#id_0)" d="M77.55 263.61487L119.541664 263.0978L161.53334 254.91693L203.525 253.60577L245.51666 252.03607L287.50833 250.0851L329.5 249.60603L371.49167 247.3107L413.48334 246.13425L455.475 244.89804L497.46667 243.67705L539.4583 242.1269L581.45 239.99126" fill-rule="nonzero"/><path fill="#000000" fill-opacity="0.0" clip-path="url(#id_0)" d="M80.55 250.93784C80.55 252.5947 79.206856 253.93784 77.55 253.93784C75.89314 253.93784 74.55 252.5947 74.55 250.93784C74.55 249.28098 75.89314 247.93784 77.55 247.93784C79.206856 247.93784 80.55 249.28098 80.55 250.93784Z" fill-rule="nonzero"/><path fill="#000000" fill-opacity="0.0" clip-path="url(#id_0)" d="M122.541664 243.35442C122.541664 245.01128 121.198524 246.35442 119.541664 246.35442C117.88481 246.35442 116.541664 245.01128 116.541664 243.35442C116.541664 241.69757 117.88481 240.35442 119.541664 240.35442C121.198524 240.35442 122.541664 241.69757 122.541664 243.35442Z" fill-rule="nonzero"/><path fill="#000000" fill-opacity="0.0" clip-path="url(#id_0)" d="M164.53334 241.02432C164.53334 242.68118 163.19019 244.02432 161.53334 244.02432C159.87648 244.02432 158.53334 242.68118 158.53334 241.02432C158.53334 239.36746 159.87648 238.02432 161.53334 238.02432C163.19019 238.02432 164.53334 239.36746 164.53334 241.02432Z" fill-rule="nonzero"/><path fill="#000000" fill-opacity="0.0" clip-path="url(#id_0)" d="M206.525 238.64207C206.525 240.29893 205.18185 241.64207 203.525 241.64207C201.86815 241.64207 200.525 240.29893 200.525 238.64207C200.525 236.98523 201.86815 235.64207 203.525 235.64207C205.18185 235.64207 206.525 236.98523 206.525 238.64207Z" fill-rule="nonzero"/><path fill="#000000" fill-opacity="0.0" clip-path="url(#id_0)" d="M248.51666 237.37329C248.51666 239.03015 247.17352 240.37329 245.51666 240.37329C243.85982 240.37329 242.51666 239.03015 242.51666 237.37329C242.51666 235.71643 243.85982 234.37329 245.51666 234.37329C247.17352 234.37329 248.51666 235.71643 248.51666 237.37329Z" fill-rule="nonzero"/><path fill="#000000" fill-opacity="0.0" clip-path="url(#id_0)" d="M290.50833 235.42557C290.50833 237.08243 289.1652 238.42557 287.50833 238.42557C285.85147 238.42557 284.50833 237.08243 284.50833 235.42557C284.50833 233.7687 285.85147 232.42557 287.50833 232.42557C289.1652 232.42557 290.50833 233.7687 290.50833 235.42557Z" fill-rule="nonzero"/><path fill="#000000" fill-opacity="0.0" clip-path="url(#id_0)" d="M332.5 233.77548C332.5 235.43234 331.15686 236.77548 329.5 236.77548C327.84314 236.77548 326.5 235.43234 326.5 233.77548C326.5 232.11864 327.84314 230.77548 329.5 230.77548C331.15686 230.77548 332.5 232.11864 332.5 233.77548Z" fill-rule="nonzero"/><path fill="#000000" fill-opacity="0.0" clip-path="url(#id_0)" d="M374.49167 232.95425C374.49167 234.6111 373.14853 235.95425 371.49167 235.95425C369.8348 235.95425 368.49167 234.6111 368.49167 232.95425C368.49167 231.2974 369.8348 229.95425 371.49167 229.95425C373.14853 229.95425 374.49167 231.2974 374.49167 232.95425Z" fill-rule="nonzero"/><path fill="#000000" fill-opacity="0.0" clip-path="url(#id_0)" d="M416.48334 231.17816C416.48334 232.83502 415.1402 234.17816 413.48334 234.17816C411.82648 234.17816 410.48334 232.83502 410.48334 231.17816C410.48334 229.5213 411.82648 228.17816 413.48334 228.17816C415.1402 228.17816 416.48334 229.5213 416.48334 231.17816Z" fill-rule="nonzero"/><path fill="#000000" fill-opacity="0.0" clip-path="url(#id_0)" d="M458.475 228.80461C458.475 230.46146 457.13187 231.80461 455.475 231.80461C453.81815 231.80461 452.475 230.46146 452.475 228.80461C452.475 227.14775 453.81815 225.80461 455.475 225.80461C457.13187 225.80461 458.475 227.14775 458.475 228.80461Z" fill-rule="nonzero"/><path fill="#000000" fill-opacity="0.0" clip-path="url(#id_0)" d="M500.46667 228.65253C500.46667 230.30939 499.12354 231.65253 497.46667 231.65253C495.8098 231.65253 494.46667 230.30939 494.46667 228.65253C494.46667 226.99568 495.8098 225.65253 497.46667 225.65253C499.12354 225.65253 500.46667 226.99568 500.46667 228.65253Z" fill-rule="nonzero"/><path fill="#000000" fill-opacity="0.0" clip-path="url(#id_0)" d="M542.4583 226.1823C542.4583 227.83916 541.1152 229.1823 539.4583 229.1823C537.80145 229.1823 536.4583 227.83916 536.4583 226.1823C536.4583 224.52544 537.80145 223.1823 539.4583 223.1823C541.1152 223.1823 542.4583 224.52544 542.4583 226.1823Z" fill-rule="nonzero"/><path fill="#000000" fill-opacity="0.0" clip-path="url(#id_0)" d="M584.45 300.42175C584.45 302.0786 583.1069 303.42175 581.45 303.42175C579.79315 303.42175 578.45 302.0786 578.45 300.42175C578.45 298.7649 579.79315 297.42175 581.45 297.42175C583.1069 297.42175 584.45 298.7649 584.45 300.42175Z" fill-rule="nonzero"/><path fill="#000000" fill-opacity="0.0" clip-path="url(#id_0)" d="M80.55 297.80814C80.55 299.465 79.206856 300.80814 77.55 300.80814C75.89314 300.80814 74.55 299.465 74.55 297.80814C74.55 296.15128 75.89314 294.80814 77.55 294.80814C79.206856 294.80814 80.55 296.15128 80.55 297.80814Z" fill-rule="nonzero"/><path fill="#000000" fill-opacity="0.0" clip-path="url(#id_0)" d="M122.541664 297.80814C122.541664 299.465 121.198524 300.80814 119.541664 300.80814C117.88481 300.80814 116.541664 299.465 116.541664 297.80814C116.541664 296.15128 117.88481 294.80814 119.541664 294.80814C121.198524 294.80814 122.541664 296.15128 122.541664 297.80814Z" fill-rule="nonzero"/><path fill="#000000" fill-opacity="0.0" clip-path="url(#id_0)" d="M164.53334 252.1534C164.53334 253.81026 163.19019 255.1534 161.53334 255.1534C159.87648 255.1534 158.53334 253.81026 158.53334 252.1534C158.53334 250.49655 159.87648 249.1534 161.53334 249.1534C163.19019 249.1534 164.53334 250.49655 164.53334 252.1534Z" fill-rule="nonzero"/><path fill="#000000" fill-opacity="0.0" clip-path="url(#id_0)" d="M206.525 230.39168C206.525 232.04854 205.18185 233.39168 203.525 233.39168C201.86815 233.39168 200.525 232.04854 200.525 230.39168C200.525 228.73483 201.86815 227.39168 203.525 227.39168C205.18185 227.39168 206.525 228.73483 206.525 230.39168Z" fill-rule="nonzero"/><path fill="#000000" fill-opacity="0.0" clip-path="url(#id_0)" d="M248.51666 225.86185C248.51666 227.51869 247.17352 228.86185 245.51666 228.86185C243.85982 228.86185 242.51666 227.51869 242.51666 225.86185C242.51666 224.20499 243.85982 222.86185 245.51666 222.86185C247.17352 222.86185 248.51666 224.20499 248.51666 225.86185Z" fill-rule="nonzero"/><path fill="#000000" fill-opacity="0.0" clip-path="url(#id_0)" d="M290.50833 214.90114C290.50833 216.558 289.1652 217.90114 287.50833 217.90114C285.85147 217.90114 284.50833 216.558 284.50833 214.90114C284.50833 213.2443 285.85147 211.90114 287.50833 211.90114C289.1652 211.90114 290.50833 213.2443 290.50833 214.90114Z" fill-rule="nonzero"/><path fill="#000000" fill-opacity="0.0" clip-path="url(#id_0)" d="M332.5 203.55916C332.5 205.216 331.15686 206.55916 329.5 206.55916C327.84314 206.55916 326.5 205.216 326.5 203.55916C326.5 201.9023 327.84314 200.55916 329.5 200.55916C331.15686 200.55916 332.5 201.9023 332.5 203.55916Z" fill-rule="nonzero"/><path fill="#000000" fill-opacity="0.0" clip-path="url(#id_0)" d="M374.49167 185.87973C374.49167 187.53658 373.14853 188.87973 371.49167 188.87973C369.8348 188.87973 368.49167 187.53658 368.49167 185.87973C368.49167 184.22287 369.8348 182.87973 371.49167 182.87973C373.14853 182.87973 374.49167 184.22287 374.49167 185.87973Z" fill-rule="nonzero"/><path fill="#000000" fill-opacity="0.0" clip-path="url(#id_0)" d="M416.48334 170.94102C416.48334 172.59787 415.1402 173.94102 413.48334 173.94102C411.82648 173.94102 410.48334 172.59787 410.48334 170.94102C410.48334 169.28416 411.82648 167.94102 413.48334 167.94102C415.1402 167.94102 416.48334 169.28416 416.48334 170.94102Z" fill-rule="nonzero"/><path fill="#000000" fill-opacity="0.0" clip-path="url(#id_0)" d="M458.475 159.5936C458.475 161.25046 457.13187 162.5936 455.475 162.5936C453.81815 162.5936 452.475 161.25046 452.475 159.5936C452.475 157.93675 453.81815 156.5936 455.475 156.5936C457.13187 156.5936 458.475 157.93675 458.475 159.5936Z" fill-rule="nonzero"/><path fill="#000000" fill-opacity="0.0" clip-path="url(#id_0)" d="M500.46667 147.86598C500.46667 149.52283 499.12354 150.86598 497.46667 150.86598C495.8098 150.86598 494.46667 149.52283 494.46667 147.86598C494.46667 146.20912 495.8098 144.86598 497.46667 144.86598C499.12354 144.86598 500.46667 146.20912 500.46667 147.86598Z" fill-rule="nonzero"/><path fill="#000000" fill-opacity="0.0" clip-path="url(#id_0)" d="M542.4583 137.03455C542.4583 138.6914 541.1152 140.03455 539.4583 140.03455C537.80145 140.03455 536.4583 138.6914 536.4583 137.03455C536.4583 135.3777 537.80145 134.03455 539.4583 134.03455C541.1152 134.03455 542.4583 135.3777 542.4583 137.03455Z" fill-rule="nonzero"/><path fill="#000000" fill-opacity="0.0" clip-path="url(#id_0)" d="M584.45 125.75014C584.45 127.40699 583.1069 128.75014 581.45 128.75014C579.79315 128.75014 578.45 127.40699 578.45 125.75014C578.45 124.09328 579.79315 122.75014 581.45 122.75014C583.1069 122.75014 584.45 124.09328 584.45 125.75014Z" fill-rule="nonzero"/><path fill="#000000" fill-opacity="0.0" clip-path="url(#id_0)" d="M80.55 256.24084C80.55 257.89767 79.206856 259.24084 77.55 259.24084C75.89314 259.24084 74.55 257.89767 74.55 256.24084C74.55 254.58398 75.89314 253.24083 77.55 253.24083C79.206856 253.24083 80.55 254.58398 80.55 256.24084Z" fill-rule="nonzero"/><path fill="#000000" fill-opacity="0.0" clip-path="url(#id_0)" d="M122.541664 256.6145C122.541664 258.27136 121.198524 259.6145 119.541664 259.6145C117.88481 259.6145 116.541664 258.27136 116.541664 256.6145C116.541664 254.95766 117.88481 253.61452 119.541664 253.61452C121.198524 253.61452 122.541664 254.95766 122.541664 256.6145Z" fill-rule="nonzero"/><path fill="#000000" fill-opacity="0.0" clip-path="url(#id_0)" d="M164.53334 246.32722C164.53334 247.98407 163.19019 249.32722 161.53334 249.32722C159.87648 249.32722 158.53334 247.98407 158.53334 246.32722C158.53334 244.67036 159.87648 243.32722 161.53334 243.32722C163.19019 243.32722 164.53334 244.67036 164.53334 246.32722Z" fill-rule="nonzero"/><path fill="#000000" fill-opacity="0.0" clip-path="url(#id_0)" d="M206.525 243.94615C206.525 245.60301 205.18185 246.94615 203.525 246.94615C201.86815 246.94615 200.525 245.60301 200.525 243.94615C200.525 242.28929 201.86815 240.94615 203.525 240.94615C205.18185 240.94615 206.525 242.28929 206.525 243.94615Z" fill-rule="nonzero"/><path fill="#000000" fill-opacity="0.0" clip-path="url(#id_0)" d="M248.51666 242.6767C248.51666 244.33354 247.17352 245.6767 245.51666 245.6767C243.85982 245.6767 242.51666 244.33354 242.51666 242.6767C242.51666 241.01984 243.85982 239.6767 245.51666 239.6767C247.17352 239.6767 248.51666 241.01984 248.51666 242.6767Z" fill-rule="nonzero"/><path fill="#000000" fill-opacity="0.0" clip-path="url(#id_0)" d="M290.50833 240.72803C290.50833 242.38487 289.1652 243.72803 287.50833 243.72803C285.85147 243.72803 284.50833 242.38487 284.50833 240.72803C284.50833 239.07117 285.85147 237.72803 287.50833 237.72803C289.1652 237.72803 290.50833 239.07117 290.50833 240.72803Z" fill-rule="nonzero"/><path fill="#000000" fill-opacity="0.0" clip-path="url(#id_0)" d="M332.5 239.07846C332.5 240.7353 331.15686 242.07846 329.5 242.07846C327.84314 242.07846 326.5 240.7353 326.5 239.07846C326.5 237.4216 327.84314 236.07846 329.5 236.07846C331.15686 236.07846 332.5 237.4216 332.5 239.07846Z" fill-rule="nonzero"/><path fill="#000000" fill-opacity="0.0" clip-path="url(#id_0)" d="M374.49167 238.25592C374.49167 239.91278 373.14853 241.25592 371.49167 241.25592C369.8348 241.25592 368.49167 239.91278 368.49167 238.25592C368.49167 236.59908 369.8348 235.25592 371.49167 235.25592C373.14853 235.25592 374.49167 236.59908 374.49167 238.25592Z" fill-rule="nonzero"/><path fill="#000000" fill-opacity="0.0" clip-path="url(#id_0)" d="M416.48334 236.48119C416.48334 238.13805 415.1402 239.48119 413.48334 239.48119C411.82648 239.48119 410.48334 238.13805 410.48334 236.48119C410.48334 234.82434 411.82648 233.48119 413.48334 233.48119C415.1402 233.48119 416.48334 234.82434 416.48334 236.48119Z" fill-rule="nonzero"/><path fill="#000000" fill-opacity="0.0" clip-path="url(#id_0)" d="M458.475 234.10823C458.475 235.76508 457.13187 237.10823 455.475 237.10823C453.81815 237.10823 452.475 235.76508 452.475 234.10823C452.475 232.45137 453.81815 231.10823 455.475 231.10823C457.13187 231.10823 458.475 232.45137 458.475 234.10823Z" fill-rule="nonzero"/><path fill="#000000" fill-opacity="0.0" clip-path="url(#id_0)" d="M500.46667 233.95453C500.46667 235.61137 499.12354 236.95453 497.46667 236.95453C495.8098 236.95453 494.46667 235.61137 494.46667 233.95453C494.46667 232.29767 495.8098 230.95453 497.46667 230.95453C499.12354 230.95453 500.46667 232.29767 500.46667 233.95453Z" fill-rule="nonzero"/><path fill="#000000" fill-opacity="0.0" clip-path="url(#id_0)" d="M542.4583 231.486C542.4583 233.14284 541.1152 234.486 539.4583 234.486C537.80145 234.486 536.4583 233.14284 536.4583 231.486C536.4583 229.82913 537.80145 228.486 539.4583 228.486C541.1152 228.486 542.4583 229.82913 542.4583 231.486Z" fill-rule="nonzero"/><path fill="#000000" fill-opacity="0.0" clip-path="url(#id_0)" d="M584.45 231.48468C584.45 233.14154 583.1069 234.48468 581.45 234.48468C579.79315 234.48468 578.45 233.14154 578.45 231.48468C578.45 229.82784 579.79315 228.48468 581.45 228.48468C583.1069 228.48468 584.45 229.82784 584.45 231.48468Z" fill-rule="nonzero"/><path fill="#000000" fill-opacity="0.0" clip-path="url(#id_0)" d="M80.55 263.61487C80.55 265.27173 79.206856 266.61487 77.55 266.61487C75.89314 266.61487 74.55 265.27173 74.55 263.61487C74.55 261.95804 75.89314 260.61487 77.55 260.61487C79.206856 260.61487 80.55 261.95804 80.55 263.61487Z" fill-rule="nonzero"/><path fill="#000000" fill-opacity="0.0" clip-path="url(#id_0)" d="M122.541664 263.0978C122.541664 264.75467 121.198524 266.0978 119.541664 266.0978C117.88481 266.0978 116.541664 264.75467 116.541664 263.0978C116.541664 261.44095 117.88481 260.0978 119.541664 260.0978C121.198524 260.0978 122.541664 261.44095 122.541664 263.0978Z" fill-rule="nonzero"/><path fill="#000000" fill-opacity="0.0" clip-path="url(#id_0)" d="M164.53334 254.91693C164.53334 256.5738 163.19019 257.91693 161.53334 257.91693C159.87648 257.91693 158.53334 256.5738 158.53334 254.91693C158.53334 253.26007 159.87648 251.91693 161.53334 251.91693C163.19019 251.91693 164.53334 253.26007 164.53334 254.91693Z" fill-rule="nonzero"/><path fill="#000000" fill-opacity="0.0" clip-path="url(#id_0)" d="M206.525 253.60577C206.525 255.26263 205.18185 256.60577 203.525 256.60577C201.86815 256.60577 200.525 255.26263 200.525 253.60577C200.525 251.94891 201.86815 250.60577 203.525 250.60577C205.18185 250.60577 206.525 251.94891 206.525 253.60577Z" fill-rule="nonzero"/><path fill="#000000" fill-opacity="0.0" clip-path="url(#id_0)" d="M248.51666 252.03607C248.51666 253.69293 247.17352 255.03607 245.51666 255.03607C243.85982 255.03607 242.51666 253.69293 242.51666 252.03607C242.51666 250.37923 243.85982 249.03607 245.51666 249.03607C247.17352 249.03607 248.51666 250.37923 248.51666 252.03607Z" fill-rule="nonzero"/><path fill="#000000" fill-opacity="0.0" clip-path="url(#id_0)" d="M290.50833 250.0851C290.50833 251.74194 289.1652 253.0851 287.50833 253.0851C285.85147 253.0851 284.50833 251.74194 284.50833 250.0851C284.50833 248.42824 285.85147 247.0851 287.50833 247.0851C289.1652 247.0851 290.50833 248.42824 290.50833 250.0851Z" fill-rule="nonzero"/><path fill="#000000" fill-opacity="0.0" clip-path="url(#id_0)" d="M332.5 249.60603C332.5 251.2629 331.15686 252.60603 329.5 252.60603C327.84314 252.60603 326.5 251.2629 326.5 249.60603C326.5 247.94919 327.84314 246.60603 329.5 246.60603C331.15686 246.60603 332.5 247.94919 332.5 249.60603Z" fill-rule="nonzero"/><path fill="#000000" fill-opacity="0.0" clip-path="url(#id_0)" d="M374.49167 247.3107C374.49167 248.96756 373.14853 250.3107 371.49167 250.3107C369.8348 250.3107 368.49167 248.96756 368.49167 247.3107C368.49167 245.65385 369.8348 244.3107 371.49167 244.3107C373.14853 244.3107 374.49167 245.65385 374.49167 247.3107Z" fill-rule="nonzero"/><path fill="#000000" fill-opacity="0.0" clip-path="url(#id_0)" d="M416.48334 246.13425C416.48334 247.7911 415.1402 249.13425 413.48334 249.13425C411.82648 249.13425 410.48334 247.7911 410.48334 246.13425C410.48334 244.47739 411.82648 243.13425 413.48334 243.13425C415.1402 243.13425 416.48334 244.47739 416.48334 246.13425Z" fill-rule="nonzero"/><path fill="#000000" fill-opacity="0.0" clip-path="url(#id_0)" d="M458.475 244.89804C458.475 246.5549 457.13187 247.89804 455.475 247.89804C453.81815 247.89804 452.475 246.5549 452.475 244.89804C452.475 243.2412 453.81815 241.89804 455.475 241.89804C457.13187 241.89804 458.475 243.2412 458.475 244.89804Z" fill-rule="nonzero"/><path fill="#000000" fill-opacity="0.0" clip-path="url(#id_0)" d="M500.46667 243.67705C500.46667 245.33391 499.12354 246.67705 497.46667 246.67705C495.8098 246.67705 494.46667 245.33391 494.46667 243.67705C494.46667 242.0202 495.8098 240.67705 497.46667 240.67705C499.12354 240.67705 500.46667 242.0202 500.46667 243.67705Z" fill-rule="nonzero"/><path fill="#000000" fill-opacity="0.0" clip-path="url(#id_0)" d="M542.4583 242.1269C542.4583 243.78377 541.1152 245.1269 539.4583 245.1269C537.80145 245.1269 536.4583 243.78377 536.4583 242.1269C536.4583 240.47006 537.80145 239.1269 539.4583 239.1269C541.1152 239.1269 542.4583 240.47006 542.4583 242.1269Z" fill-rule="nonzero"/><path fill="#000000" fill-opacity="0.0" clip-path="url(#id_0)" d="M584.45 239.99126C584.45 241.64812 583.1069 242.99126 581.45 242.99126C579.79315 242.99126 578.45 241.64812 578.45 239.99126C578.45 238.3344 579.79315 236.99126 581.45 236.99126C583.1069 236.99126 584.45 238.3344 584.45 239.99126Z" fill-rule="nonzero"/><path fill="#000000" d="M311.04688 349.45L311.04688 344.04376L310.10938 344.04376L310.10938 343.23126L311.04688 343.23126L311.04688 342.5594Q311.04688 341.9344 311.15625 341.6375Q311.3125 341.21564 311.6875 340.96564Q312.07812 340.71564 312.76562 340.71564Q313.21875 340.71564 313.75 340.825L313.59375 341.73126Q313.26562 341.6844 312.96875 341.6844Q312.48438 341.6844 312.28125 341.8875Q312.09375 342.09064 312.09375 342.65314L312.09375 343.23126L313.3125 343.23126L313.3125 344.04376L312.09375 344.04376L312.09375 349.45L311.04688 349.45ZM313.375 347.59064L314.40625 347.4344Q314.5 348.0594 314.89062 348.3875Q315.29688 348.71564 316.03125 348.71564Q316.75 348.71564 317.09375 348.4344Q317.45312 348.1375 317.45312 347.73126Q317.45312 347.3719 317.14062 347.16876Q316.92188 347.02814 316.0625 346.8094Q314.90625 346.5125 314.45312 346.3094Q314.01562 346.09064 313.78125 345.71564Q313.54688 345.34064 313.54688 344.8719Q313.54688 344.46564 313.73438 344.10626Q313.92188 343.7469 314.25 343.5125Q314.5 343.34064 314.92188 343.21564Q315.34375 343.09064 315.84375 343.09064Q316.5625 343.09064 317.10938 343.3094Q317.67188 343.5125 317.9375 343.8719Q318.20312 344.23126 318.29688 344.825L317.26562 344.96564Q317.20312 344.4969 316.85938 344.23126Q316.53125 343.95 315.90625 343.95Q315.1875 343.95 314.875 344.2Q314.5625 344.4344 314.5625 344.7625Q314.5625 344.96564 314.6875 345.1219Q314.82812 345.29376 315.09375 345.40314Q315.25 345.46564 316.03125 345.66876Q317.15625 345.98126 317.59375 346.16876Q318.03125 346.35626 318.28125 346.71564Q318.53125 347.075 318.53125 347.6219Q318.53125 348.15314 318.21875 348.6219Q317.92188 349.075 317.34375 349.34064Q316.76562 349.59064 316.03125 349.59064Q314.8125 349.59064 314.17188 349.09064Q313.54688 348.575 313.375 347.59064ZM324.9375 349.45L323.03125 343.23126L324.125 343.23126L325.10938 346.825L325.48438 348.15314Q325.51562 348.0594 325.8125 346.8719L326.79688 343.23126L327.875 343.23126L328.8125 346.84064L329.125 348.02814L329.48438 346.825L330.54688 343.23126L331.57812 343.23126L329.625 349.45L328.53125 349.45L327.54688 345.71564L327.29688 344.66876L326.04688 349.45L324.9375 349.45ZM332.78125 349.45L332.78125 343.23126L333.73438 343.23126L333.73438 344.16876Q334.09375 343.5125 334.39062 343.3094Q334.70312 343.09064 335.07812 343.09064Q335.60938 343.09064 336.15625 343.41876L335.79688 344.40314Q335.40625 344.16876 335.03125 344.16876Q334.67188 344.16876 334.39062 344.3875Q334.125 344.59064 334.01562 344.96564Q333.82812 345.52814 333.82812 346.1844L333.82812 349.45L332.78125 349.45ZM336.79688 342.075L336.79688 340.85626L337.85938 340.85626L337.85938 342.075L336.79688 342.075ZM336.79688 349.45L336.79688 343.23126L337.85938 343.23126L337.85938 349.45L336.79688 349.45ZM342.09375 348.5125L342.25 349.4344Q341.79688 349.52814 341.45312 349.52814Q340.875 349.52814 340.5625 349.35626Q340.25 349.16876 340.10938 348.8719Q339.98438 348.575 339.98438 347.6219L339.98438 344.04376L339.21875 344.04376L339.21875 343.23126L339.98438 343.23126L339.98438 341.6844L341.03125 341.0594L341.03125 343.23126L342.09375 343.23126L342.09375 344.04376L341.03125 344.04376L341.03125 347.6844Q341.03125 348.1375 341.07812 348.2625Q341.14062 348.3875 341.26562 348.46564Q341.39062 348.54376 341.625 348.54376Q341.8125 348.54376 342.09375 348.5125ZM347.04688 347.45L348.14062 347.575Q347.89062 348.52814 347.1875 349.0594Q346.48438 349.59064 345.40625 349.59064Q344.04688 349.59064 343.23438 348.7469Q342.4375 347.90314 342.4375 346.3875Q342.4375 344.825 343.25 343.96564Q344.0625 343.09064 345.34375 343.09064Q346.59375 343.09064 347.375 343.9344Q348.17188 344.77814 348.17188 346.325Q348.17188 346.41876 348.17188 346.60626L343.53125 346.60626Q343.59375 347.6375 344.10938 348.1844Q344.625 348.71564 345.40625 348.71564Q345.98438 348.71564 346.39062 348.41876Q346.8125 348.10626 347.04688 347.45ZM343.59375 345.7469L347.0625 345.7469Q347.0 344.95 346.67188 344.5594Q346.15625 343.95 345.35938 343.95Q344.625 343.95 344.125 344.4344Q343.64062 344.91876 343.59375 345.7469Z" fill-rule="nonzero"/><path fill="#000000" d="M29.550013 213.47604L20.956263 213.47604L20.956263 211.7573L27.034388 209.72604Q27.893763 209.4448 28.315638 209.3198Q27.846888 209.17917 26.940638 208.86667L20.956263 206.80417L20.956263 205.27292L29.550013 205.27292L29.550013 206.36667L22.362513 206.36667L29.550013 208.86667L29.550013 209.89792L22.237513 212.3823L29.550013 212.3823L29.550013 213.47604ZM29.550013 204.49167L20.956263 204.49167L20.956263 201.2573Q20.956263 200.27292 21.221888 199.67917Q21.487513 199.08542 22.034388 198.7573Q22.565638 198.41354 23.159388 198.41354Q23.706263 198.41354 24.190638 198.71042Q24.675013 199.0073 24.971888 199.61667Q25.206263 198.83542 25.768763 198.42917Q26.315638 198.0073 27.065638 198.0073Q27.659388 198.0073 28.190638 198.2573Q28.706263 198.5073 28.987513 198.8823Q29.268763 199.2573 29.409388 199.83542Q29.550013 200.39792 29.550013 201.21042L29.550013 204.49167ZM24.565638 203.35104L24.565638 201.49167Q24.565638 200.74167 24.471888 200.41354Q24.346888 199.97604 24.050013 199.7573Q23.737513 199.53854 23.284388 199.53854Q22.862513 199.53854 22.534388 199.74167Q22.206263 199.9448 22.096888 200.33542Q21.971888 200.71042 21.971888 201.6323L21.971888 203.35104L24.565638 203.35104ZM28.534388 203.35104L28.534388 201.21042Q28.534388 200.66354 28.487513 200.4448Q28.425013 200.03854 28.268763 199.78854Q28.096888 199.52292 27.784388 199.35104Q27.471888 199.17917 27.065638 199.17917Q26.581263 199.17917 26.221888 199.42917Q25.862513 199.66354 25.721888 200.10104Q25.581263 200.53854 25.581263 201.36667L25.581263 203.35104L28.534388 203.35104ZM29.690638 197.36667L20.815638 194.8823L20.815638 194.03854L29.690638 196.52292L29.690638 197.36667ZM27.690638 193.99167L27.534388 192.96042Q28.159388 192.86667 28.487513 192.47604Q28.815638 192.0698 28.815638 191.33542Q28.815638 190.61667 28.534388 190.27292Q28.237513 189.91354 27.831263 189.91354Q27.471888 189.91354 27.268763 190.22604Q27.128138 190.4448 26.909388 191.30417Q26.612513 192.46042 26.409388 192.91354Q26.190638 193.35104 25.815638 193.58542Q25.440638 193.8198 24.971888 193.8198Q24.565638 193.8198 24.206263 193.6323Q23.846888 193.4448 23.612513 193.11667Q23.440638 192.86667 23.315638 192.4448Q23.190638 192.02292 23.190638 191.52292Q23.190638 190.80417 23.409388 190.2573Q23.612513 189.6948 23.971888 189.42917Q24.331263 189.16354 24.925013 189.0698L25.065638 190.10104Q24.596888 190.16354 24.331263 190.5073Q24.050013 190.83542 24.050013 191.46042Q24.050013 192.17917 24.300013 192.49167Q24.534388 192.80417 24.862513 192.80417Q25.065638 192.80417 25.221888 192.67917Q25.393763 192.53854 25.503138 192.27292Q25.565638 192.11667 25.768763 191.33542Q26.081263 190.21042 26.268763 189.77292Q26.456263 189.33542 26.815638 189.08542Q27.175013 188.83542 27.721888 188.83542Q28.253138 188.83542 28.721888 189.14792Q29.175013 189.4448 29.440638 190.02292Q29.690638 190.60104 29.690638 191.33542Q29.690638 192.55417 29.190638 193.1948Q28.675013 193.8198 27.690638 193.99167Z" fill-rule="nonzero"/><path fill="#000000" d="M65.05 300.21564Q65.05 298.6844 65.3625 297.7625Q65.675 296.825 66.28438 296.325Q66.90938 295.825 67.84688 295.825Q68.53438 295.825 69.05 296.10626Q69.58125 296.3875 69.925 296.91876Q70.26875 297.4344 70.45625 298.1844Q70.64375 298.9344 70.64375 300.21564Q70.64375 301.73126 70.33125 302.65314Q70.03438 303.575 69.40938 304.09064Q68.8 304.59064 67.84688 304.59064Q66.6125 304.59064 65.89375 303.7Q65.05 302.6375 65.05 300.21564ZM66.12813 300.21564Q66.12813 302.325 66.62813 303.02814Q67.12813 303.73126 67.84688 303.73126Q68.58125 303.73126 69.06563 303.02814Q69.56563 302.325 69.56563 300.21564Q69.56563 298.09064 69.06563 297.40314Q68.58125 296.7 67.83125 296.7Q67.1125 296.7 66.675 297.3094Q66.12813 298.09064 66.12813 300.21564Z" fill-rule="nonzero"/><path fill="#000000" d="M56.596874 250.39272L56.596874 251.40834L50.909374 251.40834Q50.909374 251.03334 51.034374 250.67397Q51.253124 250.09584 51.721874 249.53334Q52.20625 248.97084 53.1125 248.23647Q54.51875 247.08022 55.003124 246.40834Q55.503124 245.73647 55.503124 245.14272Q55.503124 244.51772 55.05 244.09584Q54.596874 243.65834 53.878124 243.65834Q53.1125 243.65834 52.659374 244.11147Q52.20625 244.56459 52.190624 245.37709L51.1125 245.26772Q51.221874 244.04897 51.940624 243.42397Q52.675 242.78334 53.909374 242.78334Q55.14375 242.78334 55.8625 243.47084Q56.58125 244.15834 56.58125 245.17397Q56.58125 245.68959 56.3625 246.18959Q56.159374 246.67397 55.659374 247.23647Q55.175 247.78334 54.05 248.73647Q53.096874 249.53334 52.815624 249.83022Q52.55 250.11147 52.378124 250.39272L56.596874 250.39272ZM58.05 247.17397Q58.05 245.64272 58.3625 244.72084Q58.675 243.78334 59.284374 243.28334Q59.909374 242.78334 60.846874 242.78334Q61.534374 242.78334 62.05 243.06459Q62.58125 243.34584 62.925 243.87709Q63.26875 244.39272 63.45625 245.14272Q63.64375 245.89272 63.64375 247.17397Q63.64375 248.68959 63.33125 249.61147Q63.034374 250.53334 62.409374 251.04897Q61.8 251.54897 60.846874 251.54897Q59.6125 251.54897 58.89375 250.65834Q58.05 249.59584 58.05 247.17397ZM59.128124 247.17397Q59.128124 249.28334 59.628124 249.98647Q60.128124 250.68959 60.846874 250.68959Q61.58125 250.68959 62.065624 249.98647Q62.565624 249.28334 62.565624 247.17397Q62.565624 245.04897 62.065624 244.36147Q61.58125 243.65834 60.83125 243.65834Q60.1125 243.65834 59.675 244.26772Q59.128124 245.04897 59.128124 247.17397ZM65.05 247.17397Q65.05 245.64272 65.3625 244.72084Q65.675 243.78334 66.28438 243.28334Q66.90938 242.78334 67.84688 242.78334Q68.53438 242.78334 69.05 243.06459Q69.58125 243.34584 69.925 243.87709Q70.26875 244.39272 70.45625 245.14272Q70.64375 245.89272 70.64375 247.17397Q70.64375 248.68959 70.33125 249.61147Q70.03438 250.53334 69.40938 251.04897Q68.8 251.54897 67.84688 251.54897Q66.6125 251.54897 65.89375 250.65834Q65.05 249.59584 65.05 247.17397ZM66.12813 247.17397Q66.12813 249.28334 66.62813 249.98647Q67.12813 250.68959 67.84688 250.68959Q68.58125 250.68959 69.06563 249.98647Q69.56563 249.28334 69.56563 247.17397Q69.56563 245.04897 69.06563 244.36147Q68.58125 243.65834 67.83125 243.65834Q67.1125 243.65834 66.675 244.26772Q66.12813 245.04897 66.12813 247.17397Z" fill-rule="nonzero"/><path fill="#000000" d="M54.425 198.36667L54.425 196.30417L50.70625 196.30417L50.70625 195.33542L54.628124 189.77292L55.4875 189.77292L55.4875 195.33542L56.64375 195.33542L56.64375 196.30417L55.4875 196.30417L55.4875 198.36667L54.425 198.36667ZM54.425 195.33542L54.425 191.47604L51.7375 195.33542L54.425 195.33542ZM58.05 194.1323Q58.05 192.60104 58.3625 191.67917Q58.675 190.74167 59.284374 190.24167Q59.909374 189.74167 60.846874 189.74167Q61.534374 189.74167 62.05 190.02292Q62.58125 190.30417 62.925 190.83542Q63.26875 191.35104 63.45625 192.10104Q63.64375 192.85104 63.64375 194.1323Q63.64375 195.64792 63.33125 196.5698Q63.034374 197.49167 62.409374 198.0073Q61.8 198.5073 60.846874 198.5073Q59.6125 198.5073 58.89375 197.61667Q58.05 196.55417 58.05 194.1323ZM59.128124 194.1323Q59.128124 196.24167 59.628124 196.9448Q60.128124 197.64792 60.846874 197.64792Q61.58125 197.64792 62.065624 196.9448Q62.565624 196.24167 62.565624 194.1323Q62.565624 192.0073 62.065624 191.3198Q61.58125 190.61667 60.83125 190.61667Q60.1125 190.61667 59.675 191.22604Q59.128124 192.0073 59.128124 194.1323ZM65.05 194.1323Q65.05 192.60104 65.3625 191.67917Q65.675 190.74167 66.28438 190.24167Q66.90938 189.74167 67.84688 189.74167Q68.53438 189.74167 69.05 190.02292Q69.58125 190.30417 69.925 190.83542Q70.26875 191.35104 70.45625 192.10104Q70.64375 192.85104 70.64375 194.1323Q70.64375 195.64792 70.33125 196.5698Q70.03438 197.49167 69.40938 198.0073Q68.8 198.5073 67.84688 198.5073Q66.6125 198.5073 65.89375 197.61667Q65.05 196.55417 65.05 194.1323ZM66.12813 194.1323Q66.12813 196.24167 66.62813 196.9448Q67.12813 197.64792 67.84688 197.64792Q68.58125 197.64792 69.06563 196.9448Q69.56563 196.24167 69.56563 194.1323Q69.56563 192.0073 69.06563 191.3198Q68.58125 190.61667 67.83125 190.61667Q67.1125 190.61667 66.675 191.22604Q66.12813 192.0073 66.12813 194.1323Z" fill-rule="nonzero"/><path fill="#000000" d="M56.51875 138.84062L55.471874 138.91875Q55.33125 138.29375 55.08125 138.0125Q54.64375 137.55937 54.01875 137.55937Q53.51875 137.55937 53.128124 137.84062Q52.64375 138.21562 52.346874 138.91875Q52.065624 139.60625 52.05 140.8875Q52.425 140.30937 52.971874 140.02812Q53.534374 139.74687 54.14375 139.74687Q55.190624 139.74687 55.925 140.52812Q56.675 141.30937 56.675 142.52812Q56.675 143.34062 56.315624 144.04375Q55.971874 144.73125 55.3625 145.10625Q54.753124 145.46562 53.9875 145.46562Q52.659374 145.46562 51.83125 144.49687Q51.003124 143.52812 51.003124 141.30937Q51.003124 138.80937 51.925 137.68437Q52.721874 136.7 54.08125 136.7Q55.096874 136.7 55.7375 137.27812Q56.39375 137.84062 56.51875 138.84062ZM52.221874 142.54375Q52.221874 143.09062 52.440624 143.59062Q52.675 144.075 53.08125 144.34062Q53.503124 144.60625 53.971874 144.60625Q54.628124 144.60625 55.1125 144.075Q55.596874 143.52812 55.596874 142.60625Q55.596874 141.71562 55.1125 141.2Q54.64375 140.68437 53.925 140.68437Q53.20625 140.68437 52.70625 141.2Q52.221874 141.71562 52.221874 142.54375ZM58.05 141.09062Q58.05 139.55937 58.3625 138.6375Q58.675 137.7 59.284374 137.2Q59.909374 136.7 60.846874 136.7Q61.534374 136.7 62.05 136.98125Q62.58125 137.2625 62.925 137.79375Q63.26875 138.30937 63.45625 139.05937Q63.64375 139.80937 63.64375 141.09062Q63.64375 142.60625 63.33125 143.52812Q63.034374 144.45 62.409374 144.96562Q61.8 145.46562 60.846874 145.46562Q59.6125 145.46562 58.89375 144.575Q58.05 143.5125 58.05 141.09062ZM59.128124 141.09062Q59.128124 143.2 59.628124 143.90312Q60.128124 144.60625 60.846874 144.60625Q61.58125 144.60625 62.065624 143.90312Q62.565624 143.2 62.565624 141.09062Q62.565624 138.96562 62.065624 138.27812Q61.58125 137.575 60.83125 137.575Q60.1125 137.575 59.675 138.18437Q59.128124 138.96562 59.128124 141.09062ZM65.05 141.09062Q65.05 139.55937 65.3625 138.6375Q65.675 137.7 66.28438 137.2Q66.90938 136.7 67.84688 136.7Q68.53438 136.7 69.05 136.98125Q69.58125 137.2625 69.925 137.79375Q70.26875 138.30937 70.45625 139.05937Q70.64375 139.80937 70.64375 141.09062Q70.64375 142.60625 70.33125 143.52812Q70.03438 144.45 69.40938 144.96562Q68.8 145.46562 67.84688 145.46562Q66.6125 145.46562 65.89375 144.575Q65.05 143.5125 65.05 141.09062ZM66.12813 141.09062Q66.12813 143.2 66.62813 143.90312Q67.12813 144.60625 67.84688 144.60625Q68.58125 144.60625 69.06563 143.90312Q69.56563 143.2 69.56563 141.09062Q69.56563 138.96562 69.06563 138.27812Q68.58125 137.575 67.83125 137.575Q67.1125 137.575 66.675 138.18437Q66.12813 138.96562 66.12813 141.09062Z" fill-rule="nonzero"/><path fill="#000000" d="M52.675 87.62708Q52.01875 87.37708 51.690624 86.93958Q51.378124 86.48646 51.378124 85.87708Q51.378124 84.93958 52.05 84.29896Q52.7375 83.65833 53.846874 83.65833Q54.971874 83.65833 55.659374 84.31458Q56.346874 84.97083 56.346874 85.90833Q56.346874 86.50208 56.034374 86.93958Q55.721874 87.37708 55.08125 87.62708Q55.878124 87.87708 56.284374 88.45521Q56.690624 89.03333 56.690624 89.83021Q56.690624 90.92396 55.909374 91.67396Q55.14375 92.42396 53.8625 92.42396Q52.596874 92.42396 51.815624 91.67396Q51.034374 90.92396 51.034374 89.79896Q51.034374 88.95521 51.45625 88.39271Q51.89375 87.83021 52.675 87.62708ZM52.45625 85.83021Q52.45625 86.43958 52.846874 86.83021Q53.253124 87.22083 53.878124 87.22083Q54.4875 87.22083 54.878124 86.84583Q55.26875 86.45521 55.26875 85.89271Q55.26875 85.31458 54.8625 84.92396Q54.45625 84.51771 53.8625 84.51771Q53.253124 84.51771 52.846874 84.90833Q52.45625 85.29896 52.45625 85.83021ZM52.128124 89.79896Q52.128124 90.25208 52.33125 90.67396Q52.55 91.09583 52.971874 91.33021Q53.39375 91.56458 53.878124 91.56458Q54.628124 91.56458 55.1125 91.08021Q55.6125 90.59583 55.6125 89.84583Q55.6125 89.08021 55.1125 88.58021Q54.6125 88.08021 53.846874 88.08021Q53.096874 88.08021 52.6125 88.58021Q52.128124 89.06458 52.128124 89.79896ZM58.05 88.04896Q58.05 86.51771 58.3625 85.59583Q58.675 84.65833 59.284374 84.15833Q59.909374 83.65833 60.846874 83.65833Q61.534374 83.65833 62.05 83.93958Q62.58125 84.22083 62.925 84.75208Q63.26875 85.26771 63.45625 86.01771Q63.64375 86.76771 63.64375 88.04896Q63.64375 89.56458 63.33125 90.48646Q63.034374 91.40833 62.409374 91.92396Q61.8 92.42396 60.846874 92.42396Q59.6125 92.42396 58.89375 91.53333Q58.05 90.47083 58.05 88.04896ZM59.128124 88.04896Q59.128124 90.15833 59.628124 90.86146Q60.128124 91.56458 60.846874 91.56458Q61.58125 91.56458 62.065624 90.86146Q62.565624 90.15833 62.565624 88.04896Q62.565624 85.92396 62.065624 85.23646Q61.58125 84.53333 60.83125 84.53333Q60.1125 84.53333 59.675 85.14271Q59.128124 85.92396 59.128124 88.04896ZM65.05 88.04896Q65.05 86.51771 65.3625 85.59583Q65.675 84.65833 66.28438 84.15833Q66.90938 83.65833 67.84688 83.65833Q68.53438 83.65833 69.05 83.93958Q69.58125 84.22083 69.925 84.75208Q70.26875 85.26771 70.45625 86.01771Q70.64375 86.76771 70.64375 88.04896Q70.64375 89.56458 70.33125 90.48646Q70.03438 91.40833 69.40938 91.92396Q68.8 92.42396 67.84688 92.42396Q66.6125 92.42396 65.89375 91.53333Q65.05 90.47083 65.05 88.04896ZM66.12813 88.04896Q66.12813 90.15833 66.62813 90.86146Q67.12813 91.56458 67.84688 91.56458Q68.58125 91.56458 69.06563 90.86146Q69.56563 90.15833 69.56563 88.04896Q69.56563 85.92396 69.06563 85.23646Q68.58125 84.53333 67.83125 84.53333Q67.1125 84.53333 66.675 85.14271Q66.12813 85.92396 66.12813 88.04896Z" fill-rule="nonzero"/><path fill="#000000" d="M74.55 313.21564Q74.55 311.6844 74.8625 310.7625Q75.175 309.825 75.78438 309.325Q76.40938 308.825 77.34688 308.825Q78.03438 308.825 78.55 309.10626Q79.08125 309.3875 79.425 309.91876Q79.76875 310.4344 79.95625 311.1844Q80.14375 311.9344 80.14375 313.21564Q80.14375 314.73126 79.83125 315.65314Q79.53438 316.575 78.90938 317.09064Q78.3 317.59064 77.34688 317.59064Q76.1125 317.59064 75.39375 316.7Q74.55 315.6375 74.55 313.21564ZM75.62813 313.21564Q75.62813 315.325 76.12813 316.02814Q76.62813 316.73126 77.34688 316.73126Q78.08125 316.73126 78.56563 316.02814Q79.06563 315.325 79.06563 313.21564Q79.06563 311.09064 78.56563 310.40314Q78.08125 309.7 77.33125 309.7Q76.6125 309.7 76.175 310.3094Q75.62813 311.09064 75.62813 313.21564Z" fill-rule="nonzero"/><path fill="#000000" d="M211.49097 317.45L210.44409 317.45L210.44409 310.73126Q210.05347 311.09064 209.42847 311.46564Q208.81909 311.825 208.33472 311.9969L208.33472 310.98126Q209.20972 310.5594 209.86597 309.98126Q210.53784 309.3875 210.81909 308.825L211.49097 308.825L211.49097 317.45ZM214.52222 313.21564Q214.52222 311.6844 214.83472 310.7625Q215.14722 309.825 215.75659 309.325Q216.38159 308.825 217.31909 308.825Q218.00659 308.825 218.52222 309.10626Q219.05347 309.3875 219.39722 309.91876Q219.74097 310.4344 219.92847 311.1844Q220.11597 311.9344 220.11597 313.21564Q220.11597 314.73126 219.80347 315.65314Q219.50659 316.575 218.88159 317.09064Q218.27222 317.59064 217.31909 317.59064Q216.08472 317.59064 215.36597 316.7Q214.52222 315.6375 214.52222 313.21564ZM215.60034 313.21564Q215.60034 315.325 216.10034 316.02814Q216.60034 316.73126 217.31909 316.73126Q218.05347 316.73126 218.53784 316.02814Q219.03784 315.325 219.03784 313.21564Q219.03784 311.09064 218.53784 310.40314Q218.05347 309.7 217.30347 309.7Q216.58472 309.7 216.14722 310.3094Q215.60034 311.09064 215.60034 313.21564ZM221.52222 313.21564Q221.52222 311.6844 221.83472 310.7625Q222.14722 309.825 222.75659 309.325Q223.38159 308.825 224.31909 308.825Q225.00659 308.825 225.52222 309.10626Q226.05347 309.3875 226.39722 309.91876Q226.74097 310.4344 226.92847 311.1844Q227.11597 311.9344 227.11597 313.21564Q227.11597 314.73126 226.80347 315.65314Q226.50659 316.575 225.88159 317.09064Q225.27222 317.59064 224.31909 317.59064Q223.08472 317.59064 222.36597 316.7Q221.52222 315.6375 221.52222 313.21564ZM222.60034 313.21564Q222.60034 315.325 223.10034 316.02814Q223.60034 316.73126 224.31909 316.73126Q225.05347 316.73126 225.53784 316.02814Q226.03784 315.325 226.03784 313.21564Q226.03784 311.09064 225.53784 310.40314Q225.05347 309.7 224.30347 309.7Q223.58472 309.7 223.14722 310.3094Q222.60034 311.09064 222.60034 313.21564Z" fill-rule="nonzero"/><path fill="#000000" d="M353.04132 316.4344L353.04132 317.45L347.35382 317.45Q347.35382 317.075 347.47882 316.71564Q347.69757 316.1375 348.16632 315.575Q348.6507 315.0125 349.55695 314.27814Q350.9632 313.1219 351.44757 312.45Q351.94757 311.77814 351.94757 311.1844Q351.94757 310.5594 351.49445 310.1375Q351.04132 309.7 350.32257 309.7Q349.55695 309.7 349.10382 310.15314Q348.6507 310.60626 348.63507 311.41876L347.55695 311.3094Q347.66632 310.09064 348.38507 309.46564Q349.11945 308.825 350.35382 308.825Q351.5882 308.825 352.30695 309.5125Q353.0257 310.2 353.0257 311.21564Q353.0257 311.73126 352.80695 312.23126Q352.60382 312.71564 352.10382 313.27814Q351.61945 313.825 350.49445 314.77814Q349.54132 315.575 349.26007 315.8719Q348.99445 316.15314 348.82257 316.4344L353.04132 316.4344ZM354.49445 313.21564Q354.49445 311.6844 354.80695 310.7625Q355.11945 309.825 355.72882 309.325Q356.35382 308.825 357.29132 308.825Q357.97882 308.825 358.49445 309.10626Q359.0257 309.3875 359.36945 309.91876Q359.7132 310.4344 359.9007 311.1844Q360.0882 311.9344 360.0882 313.21564Q360.0882 314.73126 359.7757 315.65314Q359.47882 316.575 358.85382 317.09064Q358.24445 317.59064 357.29132 317.59064Q356.05695 317.59064 355.3382 316.7Q354.49445 315.6375 354.49445 313.21564ZM355.57257 313.21564Q355.57257 315.325 356.07257 316.02814Q356.57257 316.73126 357.29132 316.73126Q358.0257 316.73126 358.51007 316.02814Q359.01007 315.325 359.01007 313.21564Q359.01007 311.09064 358.51007 310.40314Q358.0257 309.7 357.2757 309.7Q356.55695 309.7 356.11945 310.3094Q355.57257 311.09064 355.57257 313.21564ZM361.49445 313.21564Q361.49445 311.6844 361.80695 310.7625Q362.11945 309.825 362.72882 309.325Q363.35382 308.825 364.29132 308.825Q364.97882 308.825 365.49445 309.10626Q366.0257 309.3875 366.36945 309.91876Q366.7132 310.4344 366.9007 311.1844Q367.0882 311.9344 367.0882 313.21564Q367.0882 314.73126 366.7757 315.65314Q366.47882 316.575 365.85382 317.09064Q365.24445 317.59064 364.29132 317.59064Q363.05695 317.59064 362.3382 316.7Q361.49445 315.6375 361.49445 313.21564ZM362.57257 313.21564Q362.57257 315.325 363.07257 316.02814Q363.57257 316.73126 364.29132 316.73126Q365.0257 316.73126 365.51007 316.02814Q366.01007 315.325 366.01007 313.21564Q366.01007 311.09064 365.51007 310.40314Q365.0257 309.7 364.2757 309.7Q363.55695 309.7 363.11945 310.3094Q362.57257 311.09064 362.57257 313.21564Z" fill-rule="nonzero"/><path fill="#000000" d="M487.46667 315.1844L488.52917 315.04376Q488.70105 315.9344 489.13855 316.34064Q489.57605 316.73126 490.20105 316.73126Q490.95105 316.73126 491.46667 316.21564Q491.9823 315.7 491.9823 314.9344Q491.9823 314.21564 491.49792 313.7469Q491.02917 313.2625 490.2948 313.2625Q489.99792 313.2625 489.5448 313.3875L489.6698 312.45Q489.77917 312.46564 489.84167 312.46564Q490.51355 312.46564 491.0448 312.1219Q491.59167 311.7625 491.59167 311.02814Q491.59167 310.45 491.20105 310.075Q490.81042 309.6844 490.18542 309.6844Q489.57605 309.6844 489.15417 310.075Q488.74792 310.46564 488.63855 311.23126L487.57605 311.04376Q487.76355 309.9969 488.45105 309.41876Q489.13855 308.825 490.15417 308.825Q490.8573 308.825 491.45105 309.1375Q492.0448 309.4344 492.3573 309.95Q492.6698 310.46564 492.6698 311.0594Q492.6698 311.60626 492.37292 312.075Q492.07605 312.52814 491.49792 312.79376Q492.24792 312.96564 492.6698 313.52814Q493.09167 314.075 493.09167 314.91876Q493.09167 316.04376 492.26355 316.825Q491.45105 317.60626 490.20105 317.60626Q489.07605 317.60626 488.32605 316.9344Q487.57605 316.2469 487.46667 315.1844ZM494.46667 313.21564Q494.46667 311.6844 494.77917 310.7625Q495.09167 309.825 495.70105 309.325Q496.32605 308.825 497.26355 308.825Q497.95105 308.825 498.46667 309.10626Q498.99792 309.3875 499.34167 309.91876Q499.68542 310.4344 499.87292 311.1844Q500.06042 311.9344 500.06042 313.21564Q500.06042 314.73126 499.74792 315.65314Q499.45105 316.575 498.82605 317.09064Q498.21667 317.59064 497.26355 317.59064Q496.02917 317.59064 495.31042 316.7Q494.46667 315.6375 494.46667 313.21564ZM495.5448 313.21564Q495.5448 315.325 496.0448 316.02814Q496.5448 316.73126 497.26355 316.73126Q497.99792 316.73126 498.4823 316.02814Q498.9823 315.325 498.9823 313.21564Q498.9823 311.09064 498.4823 310.40314Q497.99792 309.7 497.24792 309.7Q496.52917 309.7 496.09167 310.3094Q495.5448 311.09064 495.5448 313.21564ZM501.46667 313.21564Q501.46667 311.6844 501.77917 310.7625Q502.09167 309.825 502.70105 309.325Q503.32605 308.825 504.26355 308.825Q504.95105 308.825 505.46667 309.10626Q505.99792 309.3875 506.34167 309.91876Q506.68542 310.4344 506.87292 311.1844Q507.06042 311.9344 507.06042 313.21564Q507.06042 314.73126 506.74792 315.65314Q506.45105 316.575 505.82605 317.09064Q505.21667 317.59064 504.26355 317.59064Q503.02917 317.59064 502.31042 316.7Q501.46667 315.6375 501.46667 313.21564ZM502.5448 313.21564Q502.5448 315.325 503.0448 316.02814Q503.5448 316.73126 504.26355 316.73126Q504.99792 316.73126 505.4823 316.02814Q505.9823 315.325 505.9823 313.21564Q505.9823 311.09064 505.4823 310.40314Q504.99792 309.7 504.24792 309.7Q503.52917 309.7 503.09167 310.3094Q502.5448 311.09064 502.5448 313.21564Z" fill-rule="nonzero"/><path stroke="#4285f4" stroke-width="4.0" stroke-linecap="butt" d="M172.0 61.916668L184.0 61.916668" fill-rule="nonzero"/><path fill="#1a1a1a" d="M192.79688 65.916664L192.79688 57.322914L193.85938 57.322914L193.85938 62.229164L196.34375 59.697914L197.71875 59.697914L195.32812 61.99479L197.95312 65.916664L196.65625 65.916664L194.59375 62.729164L193.85938 63.447914L193.85938 65.916664L192.79688 65.916664ZM198.5 63.65104L199.5625 63.510414Q199.73438 64.40104 200.17188 64.80729Q200.60938 65.197914 201.23438 65.197914Q201.98438 65.197914 202.5 64.68229Q203.01562 64.166664 203.01562 63.40104Q203.01562 62.68229 202.53125 62.21354Q202.0625 61.729164 201.32812 61.729164Q201.03125 61.729164 200.57812 61.854164L200.70312 60.916664Q200.8125 60.93229 200.875 60.93229Q201.54688 60.93229 202.07812 60.58854Q202.625 60.229164 202.625 59.49479Q202.625 58.916664 202.23438 58.541664Q201.84375 58.15104 201.21875 58.15104Q200.60938 58.15104 200.1875 58.541664Q199.78125 58.93229 199.67188 59.697914L198.60938 59.510414Q198.79688 58.46354 199.48438 57.885414Q200.17188 57.291664 201.1875 57.291664Q201.89062 57.291664 202.48438 57.604164Q203.07812 57.90104 203.39062 58.416664Q203.70312 58.93229 203.70312 59.52604Q203.70312 60.072914 203.40625 60.541664Q203.10938 60.99479 202.53125 61.260414Q203.28125 61.43229 203.70312 61.99479Q204.125 62.541664 204.125 63.385414Q204.125 64.510414 203.29688 65.291664Q202.48438 66.072914 201.23438 66.072914Q200.10938 66.072914 199.35938 65.40104Q198.60938 64.71354 198.5 63.65104ZM205.375 64.05729L206.40625 63.90104Q206.5 64.52604 206.89062 64.854164Q207.29688 65.18229 208.03125 65.18229Q208.75 65.18229 209.09375 64.90104Q209.45312 64.604164 209.45312 64.197914Q209.45312 63.83854 209.14062 63.635414Q208.92188 63.49479 208.0625 63.27604Q206.90625 62.979164 206.45312 62.77604Q206.01562 62.55729 205.78125 62.18229Q205.54688 61.80729 205.54688 61.33854Q205.54688 60.93229 205.73438 60.572914Q205.92188 60.21354 206.25 59.979164Q206.5 59.80729 206.92188 59.68229Q207.34375 59.55729 207.84375 59.55729Q208.5625 59.55729 209.10938 59.77604Q209.67188 59.979164 209.9375 60.33854Q210.20312 60.697914 210.29688 61.291664L209.26562 61.43229Q209.20312 60.96354 208.85938 60.697914Q208.53125 60.416664 207.90625 60.416664Q207.1875 60.416664 206.875 60.666664Q206.5625 60.90104 206.5625 61.229164Q206.5625 61.43229 206.6875 61.58854Q206.82812 61.760414 207.09375 61.86979Q207.25 61.93229 208.03125 62.135414Q209.15625 62.447914 209.59375 62.635414Q210.03125 62.822914 210.28125 63.18229Q210.53125 63.541664 210.53125 64.08854Q210.53125 64.61979 210.21875 65.08854Q209.92188 65.541664 209.34375 65.80729Q208.76562 66.05729 208.03125 66.05729Q206.8125 66.05729 206.17188 65.55729Q205.54688 65.041664 205.375 64.05729ZM215.79688 68.30729L215.79688 59.697914L216.75 59.697914L216.75 60.49479Q217.09375 60.02604 217.51562 59.791664Q217.95312 59.55729 218.5625 59.55729Q219.35938 59.55729 219.96875 59.96354Q220.57812 60.36979 220.875 61.11979Q221.1875 61.86979 221.1875 62.760414Q221.1875 63.71354 220.84375 64.479164Q220.51562 65.24479 219.85938 65.65104Q219.20312 66.05729 218.48438 66.05729Q217.95312 66.05729 217.53125 65.83854Q217.10938 65.604164 216.84375 65.27604L216.84375 68.30729L215.79688 68.30729ZM216.75 62.83854Q216.75 64.041664 217.23438 64.61979Q217.71875 65.18229 218.40625 65.18229Q219.10938 65.18229 219.60938 64.58854Q220.10938 63.99479 220.10938 62.74479Q220.10938 61.55729 219.625 60.979164Q219.14062 60.385414 218.45312 60.385414Q217.78125 60.385414 217.26562 61.010414Q216.75 61.635414 216.75 62.83854ZM222.78125 65.916664L222.78125 59.697914L223.73438 59.697914L223.73438 60.635414Q224.09375 59.979164 224.39062 59.77604Q224.70312 59.55729 225.07812 59.55729Q225.60938 59.55729 226.15625 59.885414L225.79688 60.86979Q225.40625 60.635414 225.03125 60.635414Q224.67188 60.635414 224.39062 60.854164Q224.125 61.05729 224.01562 61.43229Q223.82812 61.99479 223.82812 62.65104L223.82812 65.916664L222.78125 65.916664ZM226.40625 62.80729Q226.40625 61.072914 227.35938 60.24479Q228.15625 59.55729 229.3125 59.55729Q230.59375 59.55729 231.40625 60.40104Q232.23438 61.229164 232.23438 62.71354Q232.23438 63.916664 231.875 64.604164Q231.51562 65.291664 230.8125 65.68229Q230.125 66.05729 229.3125 66.05729Q228.01562 66.05729 227.20312 65.229164Q226.40625 64.385414 226.40625 62.80729ZM227.48438 62.80729Q227.48438 63.99479 228.0 64.58854Q228.53125 65.18229 229.3125 65.18229Q230.10938 65.18229 230.625 64.58854Q231.14062 63.99479 231.14062 62.77604Q231.14062 61.61979 230.60938 61.02604Q230.09375 60.43229 229.3125 60.43229Q228.53125 60.43229 228.0 61.02604Q227.48438 61.604164 227.48438 62.80729Z" fill-rule="nonzero"/><path stroke="#ea4335" stroke-width="4.0" stroke-linecap="butt" d="M252.0 61.916668L264.0 61.916668" fill-rule="nonzero"/><path fill="#1a1a1a" d="M272.79688 65.916664L272.79688 57.322914L273.85938 57.322914L273.85938 62.229164L276.34375 59.697914L277.71875 59.697914L275.32812 61.99479L277.95312 65.916664L276.65625 65.916664L274.59375 62.729164L273.85938 63.447914L273.85938 65.916664L272.79688 65.916664ZM278.5 63.65104L279.5625 63.510414Q279.73438 64.40104 280.17188 64.80729Q280.60938 65.197914 281.23438 65.197914Q281.98438 65.197914 282.5 64.68229Q283.01562 64.166664 283.01562 63.40104Q283.01562 62.68229 282.53125 62.21354Q282.0625 61.729164 281.32812 61.729164Q281.03125 61.729164 280.57812 61.854164L280.70312 60.916664Q280.8125 60.93229 280.875 60.93229Q281.54688 60.93229 282.07812 60.58854Q282.625 60.229164 282.625 59.49479Q282.625 58.916664 282.23438 58.541664Q281.84375 58.15104 281.21875 58.15104Q280.60938 58.15104 280.1875 58.541664Q279.78125 58.93229 279.67188 59.697914L278.60938 59.510414Q278.79688 58.46354 279.48438 57.885414Q280.17188 57.291664 281.1875 57.291664Q281.89062 57.291664 282.48438 57.604164Q283.07812 57.90104 283.39062 58.416664Q283.70312 58.93229 283.70312 59.52604Q283.70312 60.072914 283.40625 60.541664Q283.10938 60.99479 282.53125 61.260414Q283.28125 61.43229 283.70312 61.99479Q284.125 62.541664 284.125 63.385414Q284.125 64.510414 283.29688 65.291664Q282.48438 66.072914 281.23438 66.072914Q280.10938 66.072914 279.35938 65.40104Q278.60938 64.71354 278.5 63.65104ZM285.375 64.05729L286.40625 63.90104Q286.5 64.52604 286.89062 64.854164Q287.29688 65.18229 288.03125 65.18229Q288.75 65.18229 289.09375 64.90104Q289.45312 64.604164 289.45312 64.197914Q289.45312 63.83854 289.14062 63.635414Q288.92188 63.49479 288.0625 63.27604Q286.90625 62.979164 286.45312 62.77604Q286.01562 62.55729 285.78125 62.18229Q285.54688 61.80729 285.54688 61.33854Q285.54688 60.93229 285.73438 60.572914Q285.92188 60.21354 286.25 59.979164Q286.5 59.80729 286.92188 59.68229Q287.34375 59.55729 287.84375 59.55729Q288.5625 59.55729 289.10938 59.77604Q289.67188 59.979164 289.9375 60.33854Q290.20312 60.697914 290.29688 61.291664L289.26562 61.43229Q289.20312 60.96354 288.85938 60.697914Q288.53125 60.416664 287.90625 60.416664Q287.1875 60.416664 286.875 60.666664Q286.5625 60.90104 286.5625 61.229164Q286.5625 61.43229 286.6875 61.58854Q286.82812 61.760414 287.09375 61.86979Q287.25 61.93229 288.03125 62.135414Q289.15625 62.447914 289.59375 62.635414Q290.03125 62.822914 290.28125 63.18229Q290.53125 63.541664 290.53125 64.08854Q290.53125 64.61979 290.21875 65.08854Q289.92188 65.541664 289.34375 65.80729Q288.76562 66.05729 288.03125 66.05729Q286.8125 66.05729 286.17188 65.55729Q285.54688 65.041664 285.375 64.05729ZM295.40625 62.80729Q295.40625 61.072914 296.35938 60.24479Q297.15625 59.55729 298.3125 59.55729Q299.59375 59.55729 300.40625 60.40104Q301.23438 61.229164 301.23438 62.71354Q301.23438 63.916664 300.875 64.604164Q300.51562 65.291664 299.8125 65.68229Q299.125 66.05729 298.3125 66.05729Q297.01562 66.05729 296.20312 65.229164Q295.40625 64.385414 295.40625 62.80729ZM296.48438 62.80729Q296.48438 63.99479 297.0 64.58854Q297.53125 65.18229 298.3125 65.18229Q299.10938 65.18229 299.625 64.58854Q300.14062 63.99479 300.14062 62.77604Q300.14062 61.61979 299.60938 61.02604Q299.09375 60.43229 298.3125 60.43229Q297.53125 60.43229 297.0 61.02604Q296.48438 61.604164 296.48438 62.80729ZM302.375 64.05729L303.40625 63.90104Q303.5 64.52604 303.89062 64.854164Q304.29688 65.18229 305.03125 65.18229Q305.75 65.18229 306.09375 64.90104Q306.45312 64.604164 306.45312 64.197914Q306.45312 63.83854 306.14062 63.635414Q305.92188 63.49479 305.0625 63.27604Q303.90625 62.979164 303.45312 62.77604Q303.01562 62.55729 302.78125 62.18229Q302.54688 61.80729 302.54688 61.33854Q302.54688 60.93229 302.73438 60.572914Q302.92188 60.21354 303.25 59.979164Q303.5 59.80729 303.92188 59.68229Q304.34375 59.55729 304.84375 59.55729Q305.5625 59.55729 306.10938 59.77604Q306.67188 59.979164 306.9375 60.33854Q307.20312 60.697914 307.29688 61.291664L306.26562 61.43229Q306.20312 60.96354 305.85938 60.697914Q305.53125 60.416664 304.90625 60.416664Q304.1875 60.416664 303.875 60.666664Q303.5625 60.90104 303.5625 61.229164Q303.5625 61.43229 303.6875 61.58854Q303.82812 61.760414 304.09375 61.86979Q304.25 61.93229 305.03125 62.135414Q306.15625 62.447914 306.59375 62.635414Q307.03125 62.822914 307.28125 63.18229Q307.53125 63.541664 307.53125 64.08854Q307.53125 64.61979 307.21875 65.08854Q306.92188 65.541664 306.34375 65.80729Q305.76562 66.05729 305.03125 66.05729Q303.8125 66.05729 303.17188 65.55729Q302.54688 65.041664 302.375 64.05729ZM309.375 64.05729L310.40625 63.90104Q310.5 64.52604 310.89062 64.854164Q311.29688 65.18229 312.03125 65.18229Q312.75 65.18229 313.09375 64.90104Q313.45312 64.604164 313.45312 64.197914Q313.45312 63.83854 313.14062 63.635414Q312.92188 63.49479 312.0625 63.27604Q310.90625 62.979164 310.45312 62.77604Q310.01562 62.55729 309.78125 62.18229Q309.54688 61.80729 309.54688 61.33854Q309.54688 60.93229 309.73438 60.572914Q309.92188 60.21354 310.25 59.979164Q310.5 59.80729 310.92188 59.68229Q311.34375 59.55729 311.84375 59.55729Q312.5625 59.55729 313.10938 59.77604Q313.67188 59.979164 313.9375 60.33854Q314.20312 60.697914 314.29688 61.291664L313.26562 61.43229Q313.20312 60.96354 312.85938 60.697914Q312.53125 60.416664 311.90625 60.416664Q311.1875 60.416664 310.875 60.666664Q310.5625 60.90104 310.5625 61.229164Q310.5625 61.43229 310.6875 61.58854Q310.82812 61.760414 311.09375 61.86979Q311.25 61.93229 312.03125 62.135414Q313.15625 62.447914 313.59375 62.635414Q314.03125 62.822914 314.28125 63.18229Q314.53125 63.541664 314.53125 64.08854Q314.53125 64.61979 314.21875 65.08854Q313.92188 65.541664 313.34375 65.80729Q312.76562 66.05729 312.03125 66.05729Q310.8125 66.05729 310.17188 65.55729Q309.54688 65.041664 309.375 64.05729Z" fill-rule="nonzero"/><path stroke="#fbbc04" stroke-width="4.0" stroke-linecap="butt" d="M332.0 61.916668L344.0 61.916668" fill-rule="nonzero"/><path fill="#1a1a1a" d="M352.79688 65.916664L352.79688 57.322914L353.85938 57.322914L353.85938 62.229164L356.34375 59.697914L357.71875 59.697914L355.32812 61.99479L357.95312 65.916664L356.65625 65.916664L354.59375 62.729164L353.85938 63.447914L353.85938 65.916664L352.79688 65.916664ZM358.5 61.68229Q358.5 60.15104 358.8125 59.229164Q359.125 58.291664 359.73438 57.791664Q360.35938 57.291664 361.29688 57.291664Q361.98438 57.291664 362.5 57.572914Q363.03125 57.854164 363.375 58.385414Q363.71875 58.90104 363.90625 59.65104Q364.09375 60.40104 364.09375 61.68229Q364.09375 63.197914 363.78125 64.11979Q363.48438 65.041664 362.85938 65.55729Q362.25 66.05729 361.29688 66.05729Q360.0625 66.05729 359.34375 65.166664Q358.5 64.104164 358.5 61.68229ZM359.57812 61.68229Q359.57812 63.791664 360.07812 64.49479Q360.57812 65.197914 361.29688 65.197914Q362.03125 65.197914 362.51562 64.49479Q363.01562 63.791664 363.01562 61.68229Q363.01562 59.55729 362.51562 58.86979Q362.03125 58.166664 361.28125 58.166664Q360.5625 58.166664 360.125 58.77604Q359.57812 59.55729 359.57812 61.68229ZM365.375 64.05729L366.40625 63.90104Q366.5 64.52604 366.89062 64.854164Q367.29688 65.18229 368.03125 65.18229Q368.75 65.18229 369.09375 64.90104Q369.45312 64.604164 369.45312 64.197914Q369.45312 63.83854 369.14062 63.635414Q368.92188 63.49479 368.0625 63.27604Q366.90625 62.979164 366.45312 62.77604Q366.01562 62.55729 365.78125 62.18229Q365.54688 61.80729 365.54688 61.33854Q365.54688 60.93229 365.73438 60.572914Q365.92188 60.21354 366.25 59.979164Q366.5 59.80729 366.92188 59.68229Q367.34375 59.55729 367.84375 59.55729Q368.5625 59.55729 369.10938 59.77604Q369.67188 59.979164 369.9375 60.33854Q370.20312 60.697914 370.29688 61.291664L369.26562 61.43229Q369.20312 60.96354 368.85938 60.697914Q368.53125 60.416664 367.90625 60.416664Q367.1875 60.416664 366.875 60.666664Q366.5625 60.90104 366.5625 61.229164Q366.5625 61.43229 366.6875 61.58854Q366.82812 61.760414 367.09375 61.86979Q367.25 61.93229 368.03125 62.135414Q369.15625 62.447914 369.59375 62.635414Q370.03125 62.822914 370.28125 63.18229Q370.53125 63.541664 370.53125 64.08854Q370.53125 64.61979 370.21875 65.08854Q369.92188 65.541664 369.34375 65.80729Q368.76562 66.05729 368.03125 66.05729Q366.8125 66.05729 366.17188 65.55729Q365.54688 65.041664 365.375 64.05729Z" fill-rule="nonzero"/><path stroke="#34a853" stroke-width="4.0" stroke-linecap="butt" d="M388.0 61.916668L400.0 61.916668" fill-rule="nonzero"/><path fill="#1a1a1a" d="M408.79688 65.916664L408.79688 57.322914L409.85938 57.322914L409.85938 62.229164L412.34375 59.697914L413.71875 59.697914L411.32812 61.99479L413.95312 65.916664L412.65625 65.916664L410.59375 62.729164L409.85938 63.447914L409.85938 65.916664L408.79688 65.916664ZM416.125 61.260414Q415.46875 61.010414 415.14062 60.572914Q414.82812 60.11979 414.82812 59.510414Q414.82812 58.572914 415.5 57.93229Q416.1875 57.291664 417.29688 57.291664Q418.42188 57.291664 419.10938 57.947914Q419.79688 58.604164 419.79688 59.541664Q419.79688 60.135414 419.48438 60.572914Q419.17188 61.010414 418.53125 61.260414Q419.32812 61.510414 419.73438 62.08854Q420.14062 62.666664 420.14062 63.46354Q420.14062 64.55729 419.35938 65.30729Q418.59375 66.05729 417.3125 66.05729Q416.04688 66.05729 415.26562 65.30729Q414.48438 64.55729 414.48438 63.43229Q414.48438 62.58854 414.90625 62.02604Q415.34375 61.46354 416.125 61.260414ZM415.90625 59.46354Q415.90625 60.072914 416.29688 60.46354Q416.70312 60.854164 417.32812 60.854164Q417.9375 60.854164 418.32812 60.479164Q418.71875 60.08854 418.71875 59.52604Q418.71875 58.947914 418.3125 58.55729Q417.90625 58.15104 417.3125 58.15104Q416.70312 58.15104 416.29688 58.541664Q415.90625 58.93229 415.90625 59.46354ZM415.57812 63.43229Q415.57812 63.885414 415.78125 64.30729Q416.0 64.729164 416.42188 64.96354Q416.84375 65.197914 417.32812 65.197914Q418.07812 65.197914 418.5625 64.71354Q419.0625 64.229164 419.0625 63.479164Q419.0625 62.71354 418.5625 62.21354Q418.0625 61.71354 417.29688 61.71354Q416.54688 61.71354 416.0625 62.21354Q415.57812 62.697914 415.57812 63.43229ZM421.375 64.05729L422.40625 63.90104Q422.5 64.52604 422.89062 64.854164Q423.29688 65.18229 424.03125 65.18229Q424.75 65.18229 425.09375 64.90104Q425.45312 64.604164 425.45312 64.197914Q425.45312 63.83854 425.14062 63.635414Q424.92188 63.49479 424.0625 63.27604Q422.90625 62.979164 422.45312 62.77604Q422.01562 62.55729 421.78125 62.18229Q421.54688 61.80729 421.54688 61.33854Q421.54688 60.93229 421.73438 60.572914Q421.92188 60.21354 422.25 59.979164Q422.5 59.80729 422.92188 59.68229Q423.34375 59.55729 423.84375 59.55729Q424.5625 59.55729 425.10938 59.77604Q425.67188 59.979164 425.9375 60.33854Q426.20312 60.697914 426.29688 61.291664L425.26562 61.43229Q425.20312 60.96354 424.85938 60.697914Q424.53125 60.416664 423.90625 60.416664Q423.1875 60.416664 422.875 60.666664Q422.5625 60.90104 422.5625 61.229164Q422.5625 61.43229 422.6875 61.58854Q422.82812 61.760414 423.09375 61.86979Q423.25 61.93229 424.03125 62.135414Q425.15625 62.447914 425.59375 62.635414Q426.03125 62.822914 426.28125 63.18229Q426.53125 63.541664 426.53125 64.08854Q426.53125 64.61979 426.21875 65.08854Q425.92188 65.541664 425.34375 65.80729Q424.76562 66.05729 424.03125 66.05729Q422.8125 66.05729 422.17188 65.55729Q421.54688 65.041664 421.375 64.05729Z" fill-rule="nonzero"/><path fill="#757575" d="M20.284374 37.55L20.284374 28.55L18.7375 28.55L18.7375 27.175L20.284374 27.175L20.284374 26.08125Q20.284374 25.034374 20.471874 24.51875Q20.721874 23.83125 21.3625 23.409374Q22.003124 22.9875 23.159374 22.9875Q23.909374 22.9875 24.8 23.159374L24.534374 24.690624Q23.9875 24.596874 23.503124 24.596874Q22.70625 24.596874 22.3625 24.940624Q22.034374 25.284374 22.034374 26.221874L22.034374 27.175L24.065624 27.175L24.065624 28.55L22.034374 28.55L22.034374 37.55L20.284374 37.55ZM25.159374 34.45625L26.909374 34.175Q27.05 35.221874 27.721874 35.784374Q28.39375 36.33125 29.596874 36.33125Q30.8 36.33125 31.378124 35.846874Q31.971874 35.346874 31.971874 34.690624Q31.971874 34.096874 31.45625 33.753124Q31.096874 33.51875 29.659374 33.159374Q27.721874 32.659374 26.971874 32.315624Q26.2375 31.95625 25.846874 31.33125Q25.45625 30.690624 25.45625 29.925Q25.45625 29.2375 25.76875 28.64375Q26.096874 28.05 26.64375 27.659374Q27.05 27.3625 27.753124 27.159374Q28.471874 26.940624 29.284374 26.940624Q30.503124 26.940624 31.425 27.3Q32.346874 27.64375 32.784374 28.253124Q33.221874 28.846874 33.39375 29.846874L31.675 30.08125Q31.55 29.284374 30.9875 28.846874Q30.425 28.39375 29.409374 28.39375Q28.190624 28.39375 27.675 28.8Q27.159374 29.190624 27.159374 29.721874Q27.159374 30.065624 27.378124 30.346874Q27.58125 30.628124 28.05 30.815624Q28.315624 30.909374 29.596874 31.253124Q31.471874 31.753124 32.20625 32.08125Q32.940624 32.39375 33.3625 33.003124Q33.784374 33.596874 33.784374 34.503124Q33.784374 35.378124 33.26875 36.159374Q32.753124 36.940624 31.784374 37.3625Q30.815624 37.784374 29.596874 37.784374Q27.58125 37.784374 26.51875 36.940624Q25.45625 36.096874 25.159374 34.45625ZM43.784374 37.55L40.6125 27.175L42.425 27.175L44.08125 33.159374L44.690624 35.39375Q44.7375 35.221874 45.221874 33.253124L46.878124 27.175L48.690624 27.175L50.2375 33.190624L50.753124 35.175L51.346874 33.175L53.128124 27.175L54.83125 27.175L51.596874 37.55L49.76875 37.55L48.1125 31.33125L47.721874 29.565624L45.6125 37.55L43.784374 37.55ZM56.846874 37.55L56.846874 27.175L58.425 27.175L58.425 28.753124Q59.034374 27.64375 59.55 27.3Q60.065624 26.940624 60.675 26.940624Q61.565624 26.940624 62.4875 27.503124L61.878124 29.14375Q61.2375 28.753124 60.596874 28.753124Q60.01875 28.753124 59.55 29.1125Q59.096874 29.45625 58.89375 30.065624Q58.6125 31.003124 58.6125 32.1125L58.6125 37.55L56.846874 37.55ZM63.878124 25.253124L63.878124 23.2375L65.64375 23.2375L65.64375 25.253124L63.878124 25.253124ZM63.878124 37.55L63.878124 27.175L65.64375 27.175L65.64375 37.55L63.878124 37.55ZM71.70625 35.971874L71.95625 37.534374Q71.22188 37.690624 70.62813 37.690624Q69.675 37.690624 69.14375 37.39375Q68.62813 37.08125 68.40938 36.596874Q68.19063 36.096874 68.19063 34.51875L68.19063 28.55L66.90938 28.55L66.90938 27.175L68.19063 27.175L68.19063 24.6125L69.94063 23.55L69.94063 27.175L71.70625 27.175L71.70625 28.55L69.94063 28.55L69.94063 34.6125Q69.94063 35.3625 70.03438 35.58125Q70.12813 35.784374 70.33125 35.925Q70.55 36.05 70.94063 36.05Q71.22188 36.05 71.70625 35.971874ZM80.97188 34.20625L82.78438 34.440624Q82.3625 36.01875 81.19063 36.909374Q80.03438 37.784374 78.22188 37.784374Q75.95625 37.784374 74.6125 36.39375Q73.28438 34.9875 73.28438 32.45625Q73.28438 29.83125 74.62813 28.39375Q75.97188 26.940624 78.12813 26.940624Q80.20625 26.940624 81.51875 28.3625Q82.84688 29.76875 82.84688 32.346874Q82.84688 32.503124 82.83125 32.815624L75.09688 32.815624Q75.19063 34.51875 76.06563 35.425Q76.94063 36.33125 78.2375 36.33125Q79.20625 36.33125 79.87813 35.83125Q80.56563 35.315624 80.97188 34.20625ZM75.19063 31.3625L80.9875 31.3625Q80.87813 30.065624 80.33125 29.409374Q79.4875 28.39375 78.14375 28.39375Q76.94063 28.39375 76.1125 29.20625Q75.28438 30.003124 75.19063 31.3625ZM90.22188 32.3625Q90.22188 29.4875 91.81563 28.096874Q93.15938 26.940624 95.08125 26.940624Q97.22188 26.940624 98.56563 28.346874Q99.925 29.753124 99.925 32.221874Q99.925 34.221874 99.33125 35.378124Q98.7375 36.51875 97.58125 37.159374Q96.44063 37.784374 95.08125 37.784374Q92.89375 37.784374 91.55 36.39375Q90.22188 34.9875 90.22188 32.3625ZM92.01875 32.3625Q92.01875 34.3625 92.87813 35.346874Q93.75313 36.33125 95.08125 36.33125Q96.39375 36.33125 97.25313 35.346874Q98.12813 34.346874 98.12813 32.3Q98.12813 30.378124 97.25313 29.39375Q96.37813 28.39375 95.08125 28.39375Q93.75313 28.39375 92.87813 29.39375Q92.01875 30.378124 92.01875 32.3625ZM104.75313 37.55L100.8 27.175L102.65938 27.175L104.89375 33.39375Q105.25313 34.39375 105.55 35.471874Q105.78438 34.659374 106.20625 33.503124L108.50313 27.175L110.31563 27.175L106.39375 37.55L104.75313 37.55ZM117.97188 34.20625L119.78438 34.440624Q119.3625 36.01875 118.19063 36.909374Q117.03438 37.784374 115.22188 37.784374Q112.95625 37.784374 111.6125 36.39375Q110.28438 34.9875 110.28438 32.45625Q110.28438 29.83125 111.62813 28.39375Q112.97188 26.940624 115.12813 26.940624Q117.20625 26.940624 118.51875 28.3625Q119.84688 29.76875 119.84688 32.346874Q119.84688 32.503124 119.83125 32.815624L112.09688 32.815624Q112.19063 34.51875 113.06563 35.425Q113.94063 36.33125 115.2375 36.33125Q116.20625 36.33125 116.87813 35.83125Q117.56563 35.315624 117.97188 34.20625ZM112.19063 31.3625L117.9875 31.3625Q117.87813 30.065624 117.33125 29.409374Q116.4875 28.39375 115.14375 28.39375Q113.94063 28.39375 113.1125 29.20625Q112.28438 30.003124 112.19063 31.3625ZM121.84688 37.55L121.84688 27.175L123.425 27.175L123.425 28.753124Q124.03438 27.64375 124.55 27.3Q125.06563 26.940624 125.675 26.940624Q126.56563 26.940624 127.4875 27.503124L126.87813 29.14375Q126.2375 28.753124 125.59688 28.753124Q125.01875 28.753124 124.55 29.1125Q124.09688 29.45625 123.89375 30.065624Q123.6125 31.003124 123.6125 32.1125L123.6125 37.55L121.84688 37.55ZM138.70625 35.971874L138.95625 37.534374Q138.22188 37.690624 137.62813 37.690624Q136.675 37.690624 136.14375 37.39375Q135.62813 37.08125 135.40938 36.596874Q135.19063 36.096874 135.19063 34.51875L135.19063 28.55L133.90938 28.55L133.90938 27.175L135.19063 27.175L135.19063 24.6125L136.94063 23.55L136.94063 27.175L138.70625 27.175L138.70625 28.55L136.94063 28.55L136.94063 34.6125Q136.94063 35.3625 137.03438 35.58125Q137.12813 35.784374 137.33125 35.925Q137.55 36.05 137.94063 36.05Q138.22188 36.05 138.70625 35.971874ZM140.87813 25.253124L140.87813 23.2375L142.64375 23.2375L142.64375 25.253124L140.87813 25.253124ZM140.87813 37.55L140.87813 27.175L142.64375 27.175L142.64375 37.55L140.87813 37.55ZM144.8625 37.55L144.8625 27.175L146.44063 27.175L146.44063 28.628124Q146.925 27.878124 147.7375 27.409374Q148.55 26.940624 149.58125 26.940624Q150.7375 26.940624 151.47188 27.425Q152.20625 27.89375 152.51875 28.753124Q153.75313 26.940624 155.72188 26.940624Q157.26875 26.940624 158.09688 27.8Q158.925 28.659374 158.925 30.425L158.925 37.55L157.175 37.55L157.175 31.01875Q157.175 29.95625 157.00313 29.503124Q156.83125 29.034374 156.37813 28.753124Q155.94063 28.471874 155.33125 28.471874Q154.2375 28.471874 153.50313 29.20625Q152.78438 29.925 152.78438 31.51875L152.78438 37.55L151.03438 37.55L151.03438 30.815624Q151.03438 29.64375 150.59688 29.065624Q150.175 28.471874 149.19063 28.471874Q148.45625 28.471874 147.81563 28.8625Q147.19063 29.253124 146.90938 30.003124Q146.62813 30.753124 146.62813 32.175L146.62813 37.55L144.8625 37.55ZM167.97188 34.20625L169.78438 34.440624Q169.3625 36.01875 168.19063 36.909374Q167.03438 37.784374 165.22188 37.784374Q162.95625 37.784374 161.6125 36.39375Q160.28438 34.9875 160.28438 32.45625Q160.28438 29.83125 161.62813 28.39375Q162.97188 26.940624 165.12813 26.940624Q167.20625 26.940624 168.51875 28.3625Q169.84688 29.76875 169.84688 32.346874Q169.84688 32.503124 169.83125 32.815624L162.09688 32.815624Q162.19063 34.51875 163.06563 35.425Q163.94063 36.33125 165.2375 36.33125Q166.20625 36.33125 166.87813 35.83125Q167.56563 35.315624 167.97188 34.20625ZM162.19063 31.3625L167.9875 31.3625Q167.87813 30.065624 167.33125 29.409374Q166.4875 28.39375 165.14375 28.39375Q163.94063 28.39375 163.1125 29.20625Q162.28438 30.003124 162.19063 31.3625ZM181.22188 41.753124Q179.76875 39.925 178.76875 37.471874Q177.76875 35.003124 177.76875 32.3625Q177.76875 30.034374 178.51875 27.909374Q179.39375 25.440624 181.22188 22.9875L182.4875 22.9875Q181.3 25.01875 180.925 25.89375Q180.33125 27.2375 179.9875 28.70625Q179.56563 30.534374 179.56563 32.378124Q179.56563 37.065624 182.4875 41.753124L181.22188 41.753124ZM184.87813 25.253124L184.87813 23.2375L186.64375 23.2375L186.64375 25.253124L184.87813 25.253124ZM184.87813 37.55L184.87813 27.175L186.64375 27.175L186.64375 37.55L184.87813 37.55ZM188.8625 37.55L188.8625 27.175L190.45625 27.175L190.45625 28.659374Q191.59688 26.940624 193.75313 26.940624Q194.69063 26.940624 195.47188 27.284374Q196.26875 27.6125 196.65938 28.159374Q197.05 28.70625 197.20625 29.45625Q197.3 29.95625 197.3 31.175L197.3 37.55L195.53438 37.55L195.53438 31.2375Q195.53438 30.159374 195.33125 29.628124Q195.12813 29.096874 194.59688 28.784374Q194.08125 28.471874 193.37813 28.471874Q192.25313 28.471874 191.44063 29.190624Q190.62813 29.89375 190.62813 31.878124L190.62813 37.55L188.8625 37.55ZM205.03438 37.55L205.03438 23.2375L207.89375 23.2375L211.26875 33.3625Q211.7375 34.784374 211.95625 35.4875Q212.20625 34.70625 212.72188 33.190624L216.14375 23.2375L218.69063 23.2375L218.69063 37.55L216.87813 37.55L216.87813 25.565624L212.70625 37.55L211.00313 37.55L206.8625 25.3625L206.8625 37.55L205.03438 37.55ZM222.01875 37.55L222.01875 23.2375L227.39375 23.2375Q229.03438 23.2375 230.01875 23.675Q231.00313 24.096874 231.56563 25.003124Q232.12813 25.909374 232.12813 26.89375Q232.12813 27.815624 231.62813 28.628124Q231.14375 29.440624 230.12813 29.925Q231.425 30.315624 232.12813 31.2375Q232.83125 32.14375 232.83125 33.39375Q232.83125 34.409374 232.39375 35.26875Q231.97188 36.128124 231.34688 36.596874Q230.72188 37.065624 229.78438 37.315624Q228.84688 37.55 227.47188 37.55L222.01875 37.55ZM223.90938 29.253124L227.00313 29.253124Q228.26875 29.253124 228.81563 29.08125Q229.53438 28.8625 229.89375 28.378124Q230.26875 27.878124 230.26875 27.1125Q230.26875 26.409374 229.925 25.8625Q229.58125 25.315624 228.94063 25.128124Q228.31563 24.925 226.76875 24.925L223.90938 24.925L223.90938 29.253124ZM223.90938 35.8625L227.47188 35.8625Q228.39375 35.8625 228.76875 35.784374Q229.425 35.675 229.8625 35.409374Q230.3 35.128124 230.58125 34.6125Q230.8625 34.08125 230.8625 33.39375Q230.8625 32.596874 230.45625 32.003124Q230.05 31.409374 229.31563 31.175Q228.58125 30.940624 227.22188 30.940624L223.90938 30.940624L223.90938 35.8625ZM233.55 37.8L237.70625 22.9875L239.1125 22.9875L234.97188 37.8L233.55 37.8ZM240.15938 34.45625L241.90938 34.175Q242.05 35.221874 242.72188 35.784374Q243.39375 36.33125 244.59688 36.33125Q245.8 36.33125 246.37813 35.846874Q246.97188 35.346874 246.97188 34.690624Q246.97188 34.096874 246.45625 33.753124Q246.09688 33.51875 244.65938 33.159374Q242.72188 32.659374 241.97188 32.315624Q241.2375 31.95625 240.84688 31.33125Q240.45625 30.690624 240.45625 29.925Q240.45625 29.2375 240.76875 28.64375Q241.09688 28.05 241.64375 27.659374Q242.05 27.3625 242.75313 27.159374Q243.47188 26.940624 244.28438 26.940624Q245.50313 26.940624 246.425 27.3Q247.34688 27.64375 247.78438 28.253124Q248.22188 28.846874 248.39375 29.846874L246.675 30.08125Q246.55 29.284374 245.9875 28.846874Q245.425 28.39375 244.40938 28.39375Q243.19063 28.39375 242.675 28.8Q242.15938 29.190624 242.15938 29.721874Q242.15938 30.065624 242.37813 30.346874Q242.58125 30.628124 243.05 30.815624Q243.31563 30.909374 244.59688 31.253124Q246.47188 31.753124 247.20625 32.08125Q247.94063 32.39375 248.3625 33.003124Q248.78438 33.596874 248.78438 34.503124Q248.78438 35.378124 248.26875 36.159374Q247.75313 36.940624 246.78438 37.3625Q245.81563 37.784374 244.59688 37.784374Q242.58125 37.784374 241.51875 36.940624Q240.45625 36.096874 240.15938 34.45625ZM252.01875 41.753124L250.76875 41.753124Q253.675 37.065624 253.675 32.378124Q253.675 30.534374 253.26875 28.7375Q252.925 27.26875 252.33125 25.925Q251.95625 25.034374 250.76875 22.9875L252.01875 22.9875Q253.8625 25.440624 254.7375 27.909374Q255.4875 30.034374 255.4875 32.3625Q255.4875 35.003124 254.47188 37.471874Q253.47188 39.925 252.01875 41.753124ZM267.22186 41.753124Q265.76874 39.925 264.76874 37.471874Q263.76874 35.003124 263.76874 32.3625Q263.76874 30.034374 264.51874 27.909374Q265.39374 25.440624 267.22186 22.9875L268.4875 22.9875Q267.3 25.01875 266.925 25.89375Q266.33124 27.2375 265.9875 28.70625Q265.5656 30.534374 265.5656 32.378124Q265.5656 37.065624 268.4875 41.753124L267.22186 41.753124ZM270.8781 25.253124L270.8781 23.2375L272.64374 23.2375L272.64374 25.253124L270.8781 25.253124ZM270.8781 37.55L270.8781 27.175L272.64374 27.175L272.64374 37.55L270.8781 37.55ZM274.8625 37.55L274.8625 27.175L276.45624 27.175L276.45624 28.659374Q277.59686 26.940624 279.7531 26.940624Q280.6906 26.940624 281.47186 27.284374Q282.26874 27.6125 282.65936 28.159374Q283.05 28.70625 283.20624 29.45625Q283.3 29.95625 283.3 31.175L283.3 37.55L281.53436 37.55L281.53436 31.2375Q281.53436 30.159374 281.33124 29.628124Q281.1281 29.096874 280.59686 28.784374Q280.08124 28.471874 279.3781 28.471874Q278.2531 28.471874 277.4406 29.190624Q276.6281 29.89375 276.6281 31.878124L276.6281 37.55L274.8625 37.55ZM288.70624 35.971874L288.95624 37.534374Q288.22186 37.690624 287.6281 37.690624Q286.675 37.690624 286.14374 37.39375Q285.6281 37.08125 285.40936 36.596874Q285.1906 36.096874 285.1906 34.51875L285.1906 28.55L283.90936 28.55L283.90936 27.175L285.1906 27.175L285.1906 24.6125L286.9406 23.55L286.9406 27.175L288.70624 27.175L288.70624 28.55L286.9406 28.55L286.9406 34.6125Q286.9406 35.3625 287.03436 35.58125Q287.1281 35.784374 287.33124 35.925Q287.55 36.05 287.9406 36.05Q288.22186 36.05 288.70624 35.971874ZM297.97186 34.20625L299.78436 34.440624Q299.3625 36.01875 298.1906 36.909374Q297.03436 37.784374 295.22186 37.784374Q292.95624 37.784374 291.6125 36.39375Q290.28436 34.9875 290.28436 32.45625Q290.28436 29.83125 291.6281 28.39375Q292.97186 26.940624 295.1281 26.940624Q297.20624 26.940624 298.51874 28.3625Q299.84686 29.76875 299.84686 32.346874Q299.84686 32.503124 299.83124 32.815624L292.09686 32.815624Q292.1906 34.51875 293.0656 35.425Q293.9406 36.33125 295.2375 36.33125Q296.20624 36.33125 296.8781 35.83125Q297.5656 35.315624 297.97186 34.20625ZM292.1906 31.3625L297.9875 31.3625Q297.8781 30.065624 297.33124 29.409374Q296.4875 28.39375 295.14374 28.39375Q293.9406 28.39375 293.1125 29.20625Q292.28436 30.003124 292.1906 31.3625ZM301.8625 37.55L301.8625 27.175L303.45624 27.175L303.45624 28.659374Q304.59686 26.940624 306.7531 26.940624Q307.6906 26.940624 308.47186 27.284374Q309.26874 27.6125 309.65936 28.159374Q310.05 28.70625 310.20624 29.45625Q310.3 29.95625 310.3 31.175L310.3 37.55L308.53436 37.55L308.53436 31.2375Q308.53436 30.159374 308.33124 29.628124Q308.1281 29.096874 307.59686 28.784374Q307.08124 28.471874 306.3781 28.471874Q305.2531 28.471874 304.4406 29.190624Q303.6281 29.89375 303.6281 31.878124L303.6281 37.55L301.8625 37.55ZM311.15936 34.45625L312.90936 34.175Q313.05 35.221874 313.72186 35.784374Q314.39374 36.33125 315.59686 36.33125Q316.8 36.33125 317.3781 35.846874Q317.97186 35.346874 317.97186 34.690624Q317.97186 34.096874 317.45624 33.753124Q317.09686 33.51875 315.65936 33.159374Q313.72186 32.659374 312.97186 32.315624Q312.2375 31.95625 311.84686 31.33125Q311.45624 30.690624 311.45624 29.925Q311.45624 29.2375 311.76874 28.64375Q312.09686 28.05 312.64374 27.659374Q313.05 27.3625 313.7531 27.159374Q314.47186 26.940624 315.28436 26.940624Q316.5031 26.940624 317.425 27.3Q318.34686 27.64375 318.78436 28.253124Q319.22186 28.846874 319.39374 29.846874L317.675 30.08125Q317.55 29.284374 316.9875 28.846874Q316.425 28.39375 315.40936 28.39375Q314.1906 28.39375 313.675 28.8Q313.15936 29.190624 313.15936 29.721874Q313.15936 30.065624 313.3781 30.346874Q313.58124 30.628124 314.05 30.815624Q314.3156 30.909374 315.59686 31.253124Q317.47186 31.753124 318.20624 32.08125Q318.9406 32.39375 319.3625 33.003124Q319.78436 33.596874 319.78436 34.503124Q319.78436 35.378124 319.26874 36.159374Q318.7531 36.940624 317.78436 37.3625Q316.8156 37.784374 315.59686 37.784374Q313.58124 37.784374 312.51874 36.940624Q311.45624 36.096874 311.15936 34.45625ZM321.8781 25.253124L321.8781 23.2375L323.64374 23.2375L323.64374 25.253124L321.8781 25.253124ZM321.8781 37.55L321.8781 27.175L323.64374 27.175L323.64374 37.55L321.8781 37.55ZM328.7531 37.55L324.8 27.175L326.65936 27.175L328.89374 33.39375Q329.2531 34.39375 329.55 35.471874Q329.78436 34.659374 330.20624 33.503124L332.5031 27.175L334.3156 27.175L330.39374 37.55L328.7531 37.55ZM341.97186 34.20625L343.78436 34.440624Q343.3625 36.01875 342.1906 36.909374Q341.03436 37.784374 339.22186 37.784374Q336.95624 37.784374 335.6125 36.39375Q334.28436 34.9875 334.28436 32.45625Q334.28436 29.83125 335.6281 28.39375Q336.97186 26.940624 339.1281 26.940624Q341.20624 26.940624 342.51874 28.3625Q343.84686 29.76875 343.84686 32.346874Q343.84686 32.503124 343.83124 32.815624L336.09686 32.815624Q336.1906 34.51875 337.0656 35.425Q337.9406 36.33125 339.2375 36.33125Q340.20624 36.33125 340.8781 35.83125Q341.5656 35.315624 341.97186 34.20625ZM336.1906 31.3625L341.9875 31.3625Q341.8781 30.065624 341.33124 29.409374Q340.4875 28.39375 339.14374 28.39375Q337.9406 28.39375 337.1125 29.20625Q336.28436 30.003124 336.1906 31.3625ZM358.65936 37.55L358.65936 36.01875Q357.45624 37.784374 355.3781 37.784374Q354.45624 37.784374 353.65936 37.440624Q352.8625 37.08125 352.47186 36.55Q352.09686 36.01875 351.9406 35.2375Q351.83124 34.721874 351.83124 33.596874L351.83124 27.175L353.58124 27.175L353.58124 32.925Q353.58124 34.3 353.6906 34.784374Q353.8625 35.471874 354.39374 35.878124Q354.9406 36.26875 355.72186 36.26875Q356.51874 36.26875 357.20624 35.8625Q357.90936 35.45625 358.1906 34.76875Q358.4875 34.065624 358.4875 32.7375L358.4875 27.175L360.2375 27.175L360.2375 37.55L358.65936 37.55ZM361.15936 34.45625L362.90936 34.175Q363.05 35.221874 363.72186 35.784374Q364.39374 36.33125 365.59686 36.33125Q366.8 36.33125 367.3781 35.846874Q367.97186 35.346874 367.97186 34.690624Q367.97186 34.096874 367.45624 33.753124Q367.09686 33.51875 365.65936 33.159374Q363.72186 32.659374 362.97186 32.315624Q362.2375 31.95625 361.84686 31.33125Q361.45624 30.690624 361.45624 29.925Q361.45624 29.2375 361.76874 28.64375Q362.09686 28.05 362.64374 27.659374Q363.05 27.3625 363.7531 27.159374Q364.47186 26.940624 365.28436 26.940624Q366.5031 26.940624 367.425 27.3Q368.34686 27.64375 368.78436 28.253124Q369.22186 28.846874 369.39374 29.846874L367.675 30.08125Q367.55 29.284374 366.9875 28.846874Q366.425 28.39375 365.40936 28.39375Q364.1906 28.39375 363.675 28.8Q363.15936 29.190624 363.15936 29.721874Q363.15936 30.065624 363.3781 30.346874Q363.58124 30.628124 364.05 30.815624Q364.3156 30.909374 365.59686 31.253124Q367.47186 31.753124 368.20624 32.08125Q368.9406 32.39375 369.3625 33.003124Q369.78436 33.596874 369.78436 34.503124Q369.78436 35.378124 369.26874 36.159374Q368.7531 36.940624 367.78436 37.3625Q366.8156 37.784374 365.59686 37.784374Q363.58124 37.784374 362.51874 36.940624Q361.45624 36.096874 361.15936 34.45625ZM378.64374 36.26875Q377.65936 37.096874 376.7531 37.440624Q375.84686 37.784374 374.8156 37.784374Q373.1125 37.784374 372.1906 36.95625Q371.26874 36.1125 371.26874 34.815624Q371.26874 34.05 371.6125 33.425Q371.97186 32.8 372.53436 32.425Q373.09686 32.034374 373.8 31.83125Q374.3156 31.70625 375.3625 31.565624Q377.4875 31.315624 378.4875 30.971874Q378.5031 30.6125 378.5031 30.503124Q378.5031 29.440624 378.0031 28.9875Q377.33124 28.39375 376.0031 28.39375Q374.7531 28.39375 374.15936 28.83125Q373.58124 29.26875 373.3 30.378124L371.58124 30.14375Q371.8156 29.034374 372.34686 28.3625Q372.8781 27.675 373.89374 27.315624Q374.90936 26.940624 376.2531 26.940624Q377.58124 26.940624 378.40936 27.253124Q379.2375 27.565624 379.6281 28.05Q380.01874 28.51875 380.175 29.2375Q380.26874 29.690624 380.26874 30.8625L380.26874 33.20625Q380.26874 35.659374 380.3781 36.315624Q380.4875 36.95625 380.83124 37.55L378.9875 37.55Q378.72186 37.003124 378.64374 36.26875ZM378.4875 32.346874Q377.53436 32.7375 375.6125 33.003124Q374.53436 33.159374 374.08124 33.3625Q373.64374 33.55 373.39374 33.925Q373.14374 34.3 373.14374 34.76875Q373.14374 35.471874 373.675 35.940624Q374.20624 36.409374 375.2375 36.409374Q376.2531 36.409374 377.03436 35.971874Q377.83124 35.51875 378.20624 34.753124Q378.4875 34.14375 378.4875 32.9875L378.4875 32.346874ZM382.55 38.409374L384.2531 38.659374Q384.3625 39.45625 384.84686 39.815624Q385.5031 40.3 386.64374 40.3Q387.8625 40.3 388.51874 39.815624Q389.1906 39.33125 389.425 38.45625Q389.5656 37.909374 389.55 36.190624Q388.39374 37.55 386.675 37.55Q384.53436 37.55 383.3625 36.003124Q382.1906 34.45625 382.1906 32.3Q382.1906 30.815624 382.72186 29.565624Q383.26874 28.315624 384.28436 27.628124Q385.3156 26.940624 386.6906 26.940624Q388.51874 26.940624 389.72186 28.425L389.72186 27.175L391.33124 27.175L391.33124 36.14375Q391.33124 38.565624 390.83124 39.565624Q390.34686 40.58125 389.26874 41.159374Q388.20624 41.753124 386.64374 41.753124Q384.8 41.753124 383.64374 40.925Q382.5031 40.096874 382.55 38.409374ZM384.0031 32.175Q384.0031 34.221874 384.8156 35.159374Q385.6281 36.096874 386.84686 36.096874Q388.05 36.096874 388.8625 35.159374Q389.6906 34.221874 389.6906 32.2375Q389.6906 30.33125 388.84686 29.3625Q388.0031 28.39375 386.8156 28.39375Q385.64374 28.39375 384.8156 29.346874Q384.0031 30.3 384.0031 32.175ZM400.97186 34.20625L402.78436 34.440624Q402.3625 36.01875 401.1906 36.909374Q400.03436 37.784374 398.22186 37.784374Q395.95624 37.784374 394.6125 36.39375Q393.28436 34.9875 393.28436 32.45625Q393.28436 29.83125 394.6281 28.39375Q395.97186 26.940624 398.1281 26.940624Q400.20624 26.940624 401.51874 28.3625Q402.84686 29.76875 402.84686 32.346874Q402.84686 32.503124 402.83124 32.815624L395.09686 32.815624Q395.1906 34.51875 396.0656 35.425Q396.9406 36.33125 398.2375 36.33125Q399.20624 36.33125 399.8781 35.83125Q400.5656 35.315624 400.97186 34.20625ZM395.1906 31.3625L400.9875 31.3625Q400.8781 30.065624 400.33124 29.409374Q399.4875 28.39375 398.14374 28.39375Q396.9406 28.39375 396.1125 29.20625Q395.28436 30.003124 395.1906 31.3625ZM406.01874 41.753124L404.76874 41.753124Q407.675 37.065624 407.675 32.378124Q407.675 30.534374 407.26874 28.7375Q406.925 27.26875 406.33124 25.925Q405.95624 25.034374 404.76874 22.9875L406.01874 22.9875Q407.8625 25.440624 408.7375 27.909374Q409.4875 30.034374 409.4875 32.3625Q409.4875 35.003124 408.47186 37.471874Q407.47186 39.925 406.01874 41.753124Z" fill-rule="nonzero"/></svg>