<svg width="144" height="72" viewBox="0 0 144 72" fill="none" xmlns="http://www.w3.org/2000/svg">
<path d="M0.730469 52V0.999993H9.73047V52C9.73047 54.4 9.99714 56.3667 10.5305 57.9C11.1305 59.3667 12.0305 60.4333 13.2305 61.1C14.4305 61.7 15.5971 62.1 16.7305 62.3C17.8638 62.5 19.3638 62.6 21.2305 62.6V71C13.7638 71 8.4638 69.5667 5.33047 66.7C2.2638 63.8333 0.730469 58.9333 0.730469 52Z" fill="#00BDFF"/>
<path d="M33.1836 29.3C37.8503 24.4333 43.6836 22 50.6836 22C54.0836 22 57.2503 22.6667 60.1836 24C63.1836 25.2667 65.7836 27.0333 67.9836 29.3C70.2503 31.5667 72.0169 34.2333 73.2836 37.3C74.5503 40.3 75.1836 43.5333 75.1836 47C75.1836 50.4667 74.5503 53.7333 73.2836 56.8C72.0836 59.8 70.3836 62.4333 68.1836 64.7C65.9836 66.9667 63.3836 68.7667 60.3836 70.1C57.3836 71.3667 54.1503 72 50.6836 72C47.1503 72 43.8836 71.3667 40.8836 70.1C37.9503 68.7667 35.3836 66.9667 33.1836 64.7C30.9836 62.4333 29.2503 59.8 27.9836 56.8C26.7836 53.7333 26.1836 50.4667 26.1836 47C26.1836 39.9333 28.5169 34.0333 33.1836 29.3ZM50.6836 30.4C46.0169 30.4 42.2503 31.9333 39.3836 35C36.5836 38.0667 35.1836 42.0667 35.1836 47C35.1836 51.9333 36.5836 55.9333 39.3836 59C42.2503 62.0667 46.0169 63.6 50.6836 63.6C55.4169 63.6 59.1836 62.0667 61.9836 59C64.7836 55.8667 66.1836 51.8667 66.1836 47C66.1836 42.1333 64.7836 38.1667 61.9836 35.1C59.1836 31.9667 55.4169 30.4 50.6836 30.4Z" fill="#00BDFF"/>
<path d="M109.291 31.4H97.7914V71H88.7914V31.4H81.9914L85.9914 23H88.7914C88.7914 16.2 91.0914 10.8333 95.6914 6.89999C100.291 2.89999 106.158 0.899994 113.291 0.899994V9.29999C102.958 9.29999 97.7914 13.8667 97.7914 23H109.291V31.4Z" fill="#00BDFF"/>
<path d="M112.332 31.4L130.232 13.5V23H143.732V31.4H130.232V52C130.232 54.3333 130.599 56.2667 131.332 57.8C132.132 59.3333 133.265 60.4333 134.732 61.1C136.199 61.7 137.565 62.1 138.832 62.3C140.165 62.5 141.799 62.6 143.732 62.6V71C136.065 71 130.399 69.5333 126.732 66.6C123.065 63.6667 121.232 58.8 121.232 52V31.4H112.332Z" fill="#00BDFF"/>
<path fill-rule="evenodd" clip-rule="evenodd" d="M49.0839 1.3697C50.0698 0.876766 51.2302 0.876766 52.2161 1.3697L78.3634 14.4434C80.0933 15.3083 80.7945 17.4118 79.9295 19.1416C79.0646 20.8715 76.9611 21.5727 75.2313 20.7077L50.65 8.41709L26.0687 20.7077C24.3389 21.5727 22.2354 20.8715 21.3705 19.1416C20.5055 17.4118 21.2067 15.3083 22.9366 14.4434L49.0839 1.3697Z" fill="#00BDFF"/>
</svg>
