<svg version="1.1" viewBox="0.0 0.0 600.0 371.0" fill="none" stroke="none" stroke-linecap="square" stroke-miterlimit="10" width="600" height="371" xmlns:xlink="http://www.w3.org/1999/xlink" xmlns="http://www.w3.org/2000/svg"><path fill="#ffffff" d="M0 0L600.0 0L600.0 371.0L0 371.0L0 0Z" fill-rule="nonzero"/><path stroke="#333333" stroke-width="1.0" stroke-linecap="butt" d="M80.5 88.5L80.5 300.5" fill-rule="nonzero"/><path stroke="#cccccc" stroke-width="1.0" stroke-linecap="butt" d="M208.5 88.5L208.5 300.5" fill-rule="nonzero"/><path stroke="#cccccc" stroke-width="1.0" stroke-linecap="butt" d="M337.5 88.5L337.5 300.5" fill-rule="nonzero"/><path stroke="#cccccc" stroke-width="1.0" stroke-linecap="butt" d="M465.5 88.5L465.5 300.5" fill-rule="nonzero"/><path stroke="#333333" stroke-width="1.0" stroke-linecap="butt" d="M80.5 300.5L581.5 300.5" fill-rule="nonzero"/><path stroke="#cccccc" stroke-width="1.0" stroke-linecap="butt" d="M80.5 247.5L581.5 247.5" fill-rule="nonzero"/><path stroke="#cccccc" stroke-width="1.0" stroke-linecap="butt" d="M80.5 194.5L581.5 194.5" fill-rule="nonzero"/><path stroke="#cccccc" stroke-width="1.0" stroke-linecap="butt" d="M80.5 141.5L581.5 141.5" fill-rule="nonzero"/><path stroke="#cccccc" stroke-width="1.0" stroke-linecap="butt" d="M80.5 88.5L581.5 88.5" fill-rule="nonzero"/><clipPath id="id_0"><path d="M80.55 88.28333L581.45 88.28333L581.45 300.45L80.55 300.45L80.55 88.28333Z" clip-rule="nonzero"/></clipPath><path stroke="#4285f4" stroke-width="2.0" stroke-linecap="butt" clip-path="url(#id_0)" d="M80.55 147.45558L119.08077 147.45558L157.61154 147.45558L196.1423 135.40642L234.67308 134.28188L273.20386 133.39894L311.73462 133.39894L350.26538 132.26746L388.79614 132.2466L427.32693 132.2466L465.8577 132.2466L504.38846 132.2466L542.91925 132.2466L581.45 132.2466" fill-rule="nonzero"/><path stroke="#ea4335" stroke-width="2.0" stroke-linecap="butt" clip-path="url(#id_0)" d="M80.55 222.92776L119.08077 222.92776L157.61154 195.0048L196.1423 162.47684L234.67308 148.67831L273.20386 140.68059L311.73462 140.68059L350.26538 140.68059L388.79614 140.68059L427.32693 140.68059L465.8577 137.94052L504.38846 133.54407L542.91925 133.00787L581.45 133.00787" fill-rule="nonzero"/><path stroke="#fbbc04" stroke-width="2.0" stroke-linecap="butt" clip-path="url(#id_0)" d="M80.55 174.90752L119.08077 174.90752L157.61154 174.90752L196.1423 174.49733L234.67308 173.73953L273.20386 173.37106L311.73462 173.37106L350.26538 170.30423L388.79614 163.86469L427.32693 163.3989L465.8577 163.3989L504.38846 163.33719L542.91925 163.33545L581.45 163.33458" fill-rule="nonzero"/><path stroke="#34a853" stroke-width="2.0" stroke-linecap="butt" clip-path="url(#id_0)" d="M80.55 168.70956L119.08077 166.0199L157.61154 147.92226L196.1423 139.90106L234.67308 134.02031L273.20386 128.81044L311.73462 127.57989L350.26538 126.85598L388.79614 123.59015L427.32693 122.86363L465.8577 121.01433L504.38846 119.20934L542.91925 119.20934L581.45 119.20934" fill-rule="nonzero"/><path fill="#000000" fill-opacity="0.0" clip-path="url(#id_0)" d="M83.55 147.45558C83.55 149.11243 82.206856 150.45558 80.55 150.45558C78.89314 150.45558 77.55 149.11243 77.55 147.45558C77.55 145.79872 78.89314 144.45558 80.55 144.45558C82.206856 144.45558 83.55 145.79872 83.55 147.45558Z" fill-rule="nonzero"/><path fill="#000000" fill-opacity="0.0" clip-path="url(#id_0)" d="M122.08077 147.45558C122.08077 149.11243 120.737625 150.45558 119.08077 150.45558C117.42391 150.45558 116.08077 149.11243 116.08077 147.45558C116.08077 145.79872 117.42391 144.45558 119.08077 144.45558C120.737625 144.45558 122.08077 145.79872 122.08077 147.45558Z" fill-rule="nonzero"/><path fill="#000000" fill-opacity="0.0" clip-path="url(#id_0)" d="M160.61154 147.45558C160.61154 149.11243 159.26839 150.45558 157.61154 150.45558C155.95468 150.45558 154.61154 149.11243 154.61154 147.45558C154.61154 145.79872 155.95468 144.45558 157.61154 144.45558C159.26839 144.45558 160.61154 145.79872 160.61154 147.45558Z" fill-rule="nonzero"/><path fill="#000000" fill-opacity="0.0" clip-path="url(#id_0)" d="M199.1423 135.40642C199.1423 137.06326 197.79916 138.40642 196.1423 138.40642C194.48546 138.40642 193.1423 137.06326 193.1423 135.40642C193.1423 133.74956 194.48546 132.40642 196.1423 132.40642C197.79916 132.40642 199.1423 133.74956 199.1423 135.40642Z" fill-rule="nonzero"/><path fill="#000000" fill-opacity="0.0" clip-path="url(#id_0)" d="M237.67308 134.28188C237.67308 135.93874 236.32993 137.28188 234.67308 137.28188C233.01622 137.28188 231.67308 135.93874 231.67308 134.28188C231.67308 132.62503 233.01622 131.28188 234.67308 131.28188C236.32993 131.28188 237.67308 132.62503 237.67308 134.28188Z" fill-rule="nonzero"/><path fill="#000000" fill-opacity="0.0" clip-path="url(#id_0)" d="M276.20386 133.39894C276.20386 135.0558 274.8607 136.39894 273.20386 136.39894C271.547 136.39894 270.20386 135.0558 270.20386 133.39894C270.20386 131.74208 271.547 130.39894 273.20386 130.39894C274.8607 130.39894 276.20386 131.74208 276.20386 133.39894Z" fill-rule="nonzero"/><path fill="#000000" fill-opacity="0.0" clip-path="url(#id_0)" d="M314.73462 133.39894C314.73462 135.0558 313.39148 136.39894 311.73462 136.39894C310.07776 136.39894 308.73462 135.0558 308.73462 133.39894C308.73462 131.74208 310.07776 130.39894 311.73462 130.39894C313.39148 130.39894 314.73462 131.74208 314.73462 133.39894Z" fill-rule="nonzero"/><path fill="#000000" fill-opacity="0.0" clip-path="url(#id_0)" d="M353.26538 132.26746C353.26538 133.92432 351.92224 135.26746 350.26538 135.26746C348.60852 135.26746 347.26538 133.92432 347.26538 132.26746C347.26538 130.61061 348.60852 129.26746 350.26538 129.26746C351.92224 129.26746 353.26538 130.61061 353.26538 132.26746Z" fill-rule="nonzero"/><path fill="#000000" fill-opacity="0.0" clip-path="url(#id_0)" d="M391.79614 132.2466C391.79614 133.90346 390.453 135.2466 388.79614 135.2466C387.1393 135.2466 385.79614 133.90346 385.79614 132.2466C385.79614 130.58975 387.1393 129.2466 388.79614 129.2466C390.453 129.2466 391.79614 130.58975 391.79614 132.2466Z" fill-rule="nonzero"/><path fill="#000000" fill-opacity="0.0" clip-path="url(#id_0)" d="M430.32693 132.2466C430.32693 133.90346 428.98376 135.2466 427.32693 135.2466C425.67007 135.2466 424.32693 133.90346 424.32693 132.2466C424.32693 130.58975 425.67007 129.2466 427.32693 129.2466C428.98376 129.2466 430.32693 130.58975 430.32693 132.2466Z" fill-rule="nonzero"/><path fill="#000000" fill-opacity="0.0" clip-path="url(#id_0)" d="M468.8577 132.2466C468.8577 133.90346 467.51456 135.2466 465.8577 135.2466C464.20084 135.2466 462.8577 133.90346 462.8577 132.2466C462.8577 130.58975 464.20084 129.2466 465.8577 129.2466C467.51456 129.2466 468.8577 130.58975 468.8577 132.2466Z" fill-rule="nonzero"/><path fill="#000000" fill-opacity="0.0" clip-path="url(#id_0)" d="M507.38846 132.2466C507.38846 133.90346 506.04532 135.2466 504.38846 135.2466C502.7316 135.2466 501.38846 133.90346 501.38846 132.2466C501.38846 130.58975 502.7316 129.2466 504.38846 129.2466C506.04532 129.2466 507.38846 130.58975 507.38846 132.2466Z" fill-rule="nonzero"/><path fill="#000000" fill-opacity="0.0" clip-path="url(#id_0)" d="M545.91925 132.2466C545.91925 133.90346 544.5761 135.2466 542.91925 135.2466C541.2624 135.2466 539.91925 133.90346 539.91925 132.2466C539.91925 130.58975 541.2624 129.2466 542.91925 129.2466C544.5761 129.2466 545.91925 130.58975 545.91925 132.2466Z" fill-rule="nonzero"/><path fill="#000000" fill-opacity="0.0" clip-path="url(#id_0)" d="M584.45 132.2466C584.45 133.90346 583.1069 135.2466 581.45 135.2466C579.79315 135.2466 578.45 133.90346 578.45 132.2466C578.45 130.58975 579.79315 129.2466 581.45 129.2466C583.1069 129.2466 584.45 130.58975 584.45 132.2466Z" fill-rule="nonzero"/><path fill="#000000" fill-opacity="0.0" clip-path="url(#id_0)" d="M83.55 222.92776C83.55 224.58461 82.206856 225.92776 80.55 225.92776C78.89314 225.92776 77.55 224.58461 77.55 222.92776C77.55 221.2709 78.89314 219.92776 80.55 219.92776C82.206856 219.92776 83.55 221.2709 83.55 222.92776Z" fill-rule="nonzero"/><path fill="#000000" fill-opacity="0.0" clip-path="url(#id_0)" d="M122.08077 222.92776C122.08077 224.58461 120.737625 225.92776 119.08077 225.92776C117.42391 225.92776 116.08077 224.58461 116.08077 222.92776C116.08077 221.2709 117.42391 219.92776 119.08077 219.92776C120.737625 219.92776 122.08077 221.2709 122.08077 222.92776Z" fill-rule="nonzero"/><path fill="#000000" fill-opacity="0.0" clip-path="url(#id_0)" d="M160.61154 195.0048C160.61154 196.66167 159.26839 198.0048 157.61154 198.0048C155.95468 198.0048 154.61154 196.66167 154.61154 195.0048C154.61154 193.34796 155.95468 192.0048 157.61154 192.0048C159.26839 192.0048 160.61154 193.34796 160.61154 195.0048Z" fill-rule="nonzero"/><path fill="#000000" fill-opacity="0.0" clip-path="url(#id_0)" d="M199.1423 162.47684C199.1423 164.1337 197.79916 165.47684 196.1423 165.47684C194.48546 165.47684 193.1423 164.1337 193.1423 162.47684C193.1423 160.81999 194.48546 159.47684 196.1423 159.47684C197.79916 159.47684 199.1423 160.81999 199.1423 162.47684Z" fill-rule="nonzero"/><path fill="#000000" fill-opacity="0.0" clip-path="url(#id_0)" d="M237.67308 148.67831C237.67308 150.33516 236.32993 151.67831 234.67308 151.67831C233.01622 151.67831 231.67308 150.33516 231.67308 148.67831C231.67308 147.02145 233.01622 145.67831 234.67308 145.67831C236.32993 145.67831 237.67308 147.02145 237.67308 148.67831Z" fill-rule="nonzero"/><path fill="#000000" fill-opacity="0.0" clip-path="url(#id_0)" d="M276.20386 140.68059C276.20386 142.33743 274.8607 143.68059 273.20386 143.68059C271.547 143.68059 270.20386 142.33743 270.20386 140.68059C270.20386 139.02373 271.547 137.68059 273.20386 137.68059C274.8607 137.68059 276.20386 139.02373 276.20386 140.68059Z" fill-rule="nonzero"/><path fill="#000000" fill-opacity="0.0" clip-path="url(#id_0)" d="M314.73462 140.68059C314.73462 142.33743 313.39148 143.68059 311.73462 143.68059C310.07776 143.68059 308.73462 142.33743 308.73462 140.68059C308.73462 139.02373 310.07776 137.68059 311.73462 137.68059C313.39148 137.68059 314.73462 139.02373 314.73462 140.68059Z" fill-rule="nonzero"/><path fill="#000000" fill-opacity="0.0" clip-path="url(#id_0)" d="M353.26538 140.68059C353.26538 142.33743 351.92224 143.68059 350.26538 143.68059C348.60852 143.68059 347.26538 142.33743 347.26538 140.68059C347.26538 139.02373 348.60852 137.68059 350.26538 137.68059C351.92224 137.68059 353.26538 139.02373 353.26538 140.68059Z" fill-rule="nonzero"/><path fill="#000000" fill-opacity="0.0" clip-path="url(#id_0)" d="M391.79614 140.68059C391.79614 142.33743 390.453 143.68059 388.79614 143.68059C387.1393 143.68059 385.79614 142.33743 385.79614 140.68059C385.79614 139.02373 387.1393 137.68059 388.79614 137.68059C390.453 137.68059 391.79614 139.02373 391.79614 140.68059Z" fill-rule="nonzero"/><path fill="#000000" fill-opacity="0.0" clip-path="url(#id_0)" d="M430.32693 140.68059C430.32693 142.33743 428.98376 143.68059 427.32693 143.68059C425.67007 143.68059 424.32693 142.33743 424.32693 140.68059C424.32693 139.02373 425.67007 137.68059 427.32693 137.68059C428.98376 137.68059 430.32693 139.02373 430.32693 140.68059Z" fill-rule="nonzero"/><path fill="#000000" fill-opacity="0.0" clip-path="url(#id_0)" d="M468.8577 137.94052C468.8577 139.59737 467.51456 140.94052 465.8577 140.94052C464.20084 140.94052 462.8577 139.59737 462.8577 137.94052C462.8577 136.28366 464.20084 134.94052 465.8577 134.94052C467.51456 134.94052 468.8577 136.28366 468.8577 137.94052Z" fill-rule="nonzero"/><path fill="#000000" fill-opacity="0.0" clip-path="url(#id_0)" d="M507.38846 133.54407C507.38846 135.20093 506.04532 136.54407 504.38846 136.54407C502.7316 136.54407 501.38846 135.20093 501.38846 133.54407C501.38846 131.88722 502.7316 130.54407 504.38846 130.54407C506.04532 130.54407 507.38846 131.88722 507.38846 133.54407Z" fill-rule="nonzero"/><path fill="#000000" fill-opacity="0.0" clip-path="url(#id_0)" d="M545.91925 133.00787C545.91925 134.66473 544.5761 136.00787 542.91925 136.00787C541.2624 136.00787 539.91925 134.66473 539.91925 133.00787C539.91925 131.35103 541.2624 130.00787 542.91925 130.00787C544.5761 130.00787 545.91925 131.35103 545.91925 133.00787Z" fill-rule="nonzero"/><path fill="#000000" fill-opacity="0.0" clip-path="url(#id_0)" d="M584.45 133.00787C584.45 134.66473 583.1069 136.00787 581.45 136.00787C579.79315 136.00787 578.45 134.66473 578.45 133.00787C578.45 131.35103 579.79315 130.00787 581.45 130.00787C583.1069 130.00787 584.45 131.35103 584.45 133.00787Z" fill-rule="nonzero"/><path fill="#000000" fill-opacity="0.0" clip-path="url(#id_0)" d="M83.55 174.90752C83.55 176.56436 82.206856 177.90752 80.55 177.90752C78.89314 177.90752 77.55 176.56436 77.55 174.90752C77.55 173.25066 78.89314 171.90752 80.55 171.90752C82.206856 171.90752 83.55 173.25066 83.55 174.90752Z" fill-rule="nonzero"/><path fill="#000000" fill-opacity="0.0" clip-path="url(#id_0)" d="M122.08077 174.90752C122.08077 176.56436 120.737625 177.90752 119.08077 177.90752C117.42391 177.90752 116.08077 176.56436 116.08077 174.90752C116.08077 173.25066 117.42391 171.90752 119.08077 171.90752C120.737625 171.90752 122.08077 173.25066 122.08077 174.90752Z" fill-rule="nonzero"/><path fill="#000000" fill-opacity="0.0" clip-path="url(#id_0)" d="M160.61154 174.90752C160.61154 176.56436 159.26839 177.90752 157.61154 177.90752C155.95468 177.90752 154.61154 176.56436 154.61154 174.90752C154.61154 173.25066 155.95468 171.90752 157.61154 171.90752C159.26839 171.90752 160.61154 173.25066 160.61154 174.90752Z" fill-rule="nonzero"/><path fill="#000000" fill-opacity="0.0" clip-path="url(#id_0)" d="M199.1423 174.49733C199.1423 176.15419 197.79916 177.49733 196.1423 177.49733C194.48546 177.49733 193.1423 176.15419 193.1423 174.49733C193.1423 172.84047 194.48546 171.49733 196.1423 171.49733C197.79916 171.49733 199.1423 172.84047 199.1423 174.49733Z" fill-rule="nonzero"/><path fill="#000000" fill-opacity="0.0" clip-path="url(#id_0)" d="M237.67308 173.73953C237.67308 175.3964 236.32993 176.73953 234.67308 176.73953C233.01622 176.73953 231.67308 175.3964 231.67308 173.73953C231.67308 172.08267 233.01622 170.73953 234.67308 170.73953C236.32993 170.73953 237.67308 172.08267 237.67308 173.73953Z" fill-rule="nonzero"/><path fill="#000000" fill-opacity="0.0" clip-path="url(#id_0)" d="M276.20386 173.37106C276.20386 175.02791 274.8607 176.37106 273.20386 176.37106C271.547 176.37106 270.20386 175.02791 270.20386 173.37106C270.20386 171.7142 271.547 170.37106 273.20386 170.37106C274.8607 170.37106 276.20386 171.7142 276.20386 173.37106Z" fill-rule="nonzero"/><path fill="#000000" fill-opacity="0.0" clip-path="url(#id_0)" d="M314.73462 173.37106C314.73462 175.02791 313.39148 176.37106 311.73462 176.37106C310.07776 176.37106 308.73462 175.02791 308.73462 173.37106C308.73462 171.7142 310.07776 170.37106 311.73462 170.37106C313.39148 170.37106 314.73462 171.7142 314.73462 173.37106Z" fill-rule="nonzero"/><path fill="#000000" fill-opacity="0.0" clip-path="url(#id_0)" d="M353.26538 170.30423C353.26538 171.96109 351.92224 173.30423 350.26538 173.30423C348.60852 173.30423 347.26538 171.96109 347.26538 170.30423C347.26538 168.64738 348.60852 167.30423 350.26538 167.30423C351.92224 167.30423 353.26538 168.64738 353.26538 170.30423Z" fill-rule="nonzero"/><path fill="#000000" fill-opacity="0.0" clip-path="url(#id_0)" d="M391.79614 163.86469C391.79614 165.52155 390.453 166.86469 388.79614 166.86469C387.1393 166.86469 385.79614 165.52155 385.79614 163.86469C385.79614 162.20784 387.1393 160.86469 388.79614 160.86469C390.453 160.86469 391.79614 162.20784 391.79614 163.86469Z" fill-rule="nonzero"/><path fill="#000000" fill-opacity="0.0" clip-path="url(#id_0)" d="M430.32693 163.3989C430.32693 165.05574 428.98376 166.3989 427.32693 166.3989C425.67007 166.3989 424.32693 165.05574 424.32693 163.3989C424.32693 161.74203 425.67007 160.3989 427.32693 160.3989C428.98376 160.3989 430.32693 161.74203 430.32693 163.3989Z" fill-rule="nonzero"/><path fill="#000000" fill-opacity="0.0" clip-path="url(#id_0)" d="M468.8577 163.3989C468.8577 165.05574 467.51456 166.3989 465.8577 166.3989C464.20084 166.3989 462.8577 165.05574 462.8577 163.3989C462.8577 161.74203 464.20084 160.3989 465.8577 160.3989C467.51456 160.3989 468.8577 161.74203 468.8577 163.3989Z" fill-rule="nonzero"/><path fill="#000000" fill-opacity="0.0" clip-path="url(#id_0)" d="M507.38846 163.33719C507.38846 164.99403 506.04532 166.33719 504.38846 166.33719C502.7316 166.33719 501.38846 164.99403 501.38846 163.33719C501.38846 161.68033 502.7316 160.33719 504.38846 160.33719C506.04532 160.33719 507.38846 161.68033 507.38846 163.33719Z" fill-rule="nonzero"/><path fill="#000000" fill-opacity="0.0" clip-path="url(#id_0)" d="M545.91925 163.33545C545.91925 164.99231 544.5761 166.33545 542.91925 166.33545C541.2624 166.33545 539.91925 164.99231 539.91925 163.33545C539.91925 161.67859 541.2624 160.33545 542.91925 160.33545C544.5761 160.33545 545.91925 161.67859 545.91925 163.33545Z" fill-rule="nonzero"/><path fill="#000000" fill-opacity="0.0" clip-path="url(#id_0)" d="M584.45 163.33458C584.45 164.99144 583.1069 166.33458 581.45 166.33458C579.79315 166.33458 578.45 164.99144 578.45 163.33458C578.45 161.67772 579.79315 160.33458 581.45 160.33458C583.1069 160.33458 584.45 161.67772 584.45 163.33458Z" fill-rule="nonzero"/><path fill="#000000" fill-opacity="0.0" clip-path="url(#id_0)" d="M83.55 168.70956C83.55 170.36641 82.206856 171.70956 80.55 171.70956C78.89314 171.70956 77.55 170.36641 77.55 168.70956C77.55 167.0527 78.89314 165.70956 80.55 165.70956C82.206856 165.70956 83.55 167.0527 83.55 168.70956Z" fill-rule="nonzero"/><path fill="#000000" fill-opacity="0.0" clip-path="url(#id_0)" d="M122.08077 166.0199C122.08077 167.67676 120.737625 169.0199 119.08077 169.0199C117.42391 169.0199 116.08077 167.67676 116.08077 166.0199C116.08077 164.36304 117.42391 163.0199 119.08077 163.0199C120.737625 163.0199 122.08077 164.36304 122.08077 166.0199Z" fill-rule="nonzero"/><path fill="#000000" fill-opacity="0.0" clip-path="url(#id_0)" d="M160.61154 147.92226C160.61154 149.5791 159.26839 150.92226 157.61154 150.92226C155.95468 150.92226 154.61154 149.5791 154.61154 147.92226C154.61154 146.2654 155.95468 144.92226 157.61154 144.92226C159.26839 144.92226 160.61154 146.2654 160.61154 147.92226Z" fill-rule="nonzero"/><path fill="#000000" fill-opacity="0.0" clip-path="url(#id_0)" d="M199.1423 139.90106C199.1423 141.5579 197.79916 142.90106 196.1423 142.90106C194.48546 142.90106 193.1423 141.5579 193.1423 139.90106C193.1423 138.2442 194.48546 136.90106 196.1423 136.90106C197.79916 136.90106 199.1423 138.2442 199.1423 139.90106Z" fill-rule="nonzero"/><path fill="#000000" fill-opacity="0.0" clip-path="url(#id_0)" d="M237.67308 134.02031C237.67308 135.67715 236.32993 137.02031 234.67308 137.02031C233.01622 137.02031 231.67308 135.67715 231.67308 134.02031C231.67308 132.36345 233.01622 131.02031 234.67308 131.02031C236.32993 131.02031 237.67308 132.36345 237.67308 134.02031Z" fill-rule="nonzero"/><path fill="#000000" fill-opacity="0.0" clip-path="url(#id_0)" d="M276.20386 128.81044C276.20386 130.4673 274.8607 131.81044 273.20386 131.81044C271.547 131.81044 270.20386 130.4673 270.20386 128.81044C270.20386 127.15359 271.547 125.81044 273.20386 125.81044C274.8607 125.81044 276.20386 127.15359 276.20386 128.81044Z" fill-rule="nonzero"/><path fill="#000000" fill-opacity="0.0" clip-path="url(#id_0)" d="M314.73462 127.57989C314.73462 129.23674 313.39148 130.57988 311.73462 130.57988C310.07776 130.57988 308.73462 129.23674 308.73462 127.57989C308.73462 125.923035 310.07776 124.57989 311.73462 124.57989C313.39148 124.57989 314.73462 125.923035 314.73462 127.57989Z" fill-rule="nonzero"/><path fill="#000000" fill-opacity="0.0" clip-path="url(#id_0)" d="M353.26538 126.85598C353.26538 128.51283 351.92224 129.85599 350.26538 129.85599C348.60852 129.85599 347.26538 128.51283 347.26538 126.85598C347.26538 125.19913 348.60852 123.85598 350.26538 123.85598C351.92224 123.85598 353.26538 125.19913 353.26538 126.85598Z" fill-rule="nonzero"/><path fill="#000000" fill-opacity="0.0" clip-path="url(#id_0)" d="M391.79614 123.59015C391.79614 125.247 390.453 126.59015 388.79614 126.59015C387.1393 126.59015 385.79614 125.247 385.79614 123.59015C385.79614 121.9333 387.1393 120.59015 388.79614 120.59015C390.453 120.59015 391.79614 121.9333 391.79614 123.59015Z" fill-rule="nonzero"/><path fill="#000000" fill-opacity="0.0" clip-path="url(#id_0)" d="M430.32693 122.86363C430.32693 124.52049 428.98376 125.86363 427.32693 125.86363C425.67007 125.86363 424.32693 124.52049 424.32693 122.86363C424.32693 121.20678 425.67007 119.86363 427.32693 119.86363C428.98376 119.86363 430.32693 121.20678 430.32693 122.86363Z" fill-rule="nonzero"/><path fill="#000000" fill-opacity="0.0" clip-path="url(#id_0)" d="M468.8577 121.01433C468.8577 122.67118 467.51456 124.01433 465.8577 124.01433C464.20084 124.01433 462.8577 122.67118 462.8577 121.01433C462.8577 119.357475 464.20084 118.01433 465.8577 118.01433C467.51456 118.01433 468.8577 119.357475 468.8577 121.01433Z" fill-rule="nonzero"/><path fill="#000000" fill-opacity="0.0" clip-path="url(#id_0)" d="M507.38846 119.20934C507.38846 120.866196 506.04532 122.20934 504.38846 122.20934C502.7316 122.20934 501.38846 120.866196 501.38846 119.20934C501.38846 117.55249 502.7316 116.20934 504.38846 116.20934C506.04532 116.20934 507.38846 117.55249 507.38846 119.20934Z" fill-rule="nonzero"/><path fill="#000000" fill-opacity="0.0" clip-path="url(#id_0)" d="M545.91925 119.20934C545.91925 120.866196 544.5761 122.20934 542.91925 122.20934C541.2624 122.20934 539.91925 120.866196 539.91925 119.20934C539.91925 117.55249 541.2624 116.20934 542.91925 116.20934C544.5761 116.20934 545.91925 117.55249 545.91925 119.20934Z" fill-rule="nonzero"/><path fill="#000000" fill-opacity="0.0" clip-path="url(#id_0)" d="M584.45 119.20934C584.45 120.866196 583.1069 122.20934 581.45 122.20934C579.79315 122.20934 578.45 120.866196 578.45 119.20934C578.45 117.55249 579.79315 116.20934 581.45 116.20934C583.1069 116.20934 584.45 117.55249 584.45 119.20934Z" fill-rule="nonzero"/><path fill="#000000" d="M282.59375 348.5125L282.75 349.4344Q282.29688 349.52814 281.95312 349.52814Q281.375 349.52814 281.0625 349.35626Q280.75 349.16876 280.60938 348.8719Q280.48438 348.575 280.48438 347.6219L280.48438 344.04376L279.71875 344.04376L279.71875 343.23126L280.48438 343.23126L280.48438 341.6844L281.53125 341.0594L281.53125 343.23126L282.59375 343.23126L282.59375 344.04376L281.53125 344.04376L281.53125 347.6844Q281.53125 348.1375 281.57812 348.2625Q281.64062 348.3875 281.76562 348.46564Q281.89062 348.54376 282.125 348.54376Q282.3125 348.54376 282.59375 348.5125ZM283.29688 342.075L283.29688 340.85626L284.35938 340.85626L284.35938 342.075L283.29688 342.075ZM283.29688 349.45L283.29688 343.23126L284.35938 343.23126L284.35938 349.45L283.29688 349.45ZM286.29688 349.45L286.29688 343.23126L287.23438 343.23126L287.23438 344.10626Q287.53125 343.6375 288.01562 343.3719Q288.5 343.09064 289.125 343.09064Q289.8125 343.09064 290.25 343.3719Q290.70312 343.65314 290.875 344.16876Q291.625 343.09064 292.79688 343.09064Q293.73438 343.09064 294.21875 343.60626Q294.71875 344.10626 294.71875 345.1844L294.71875 349.45L293.67188 349.45L293.67188 345.52814Q293.67188 344.90314 293.5625 344.6219Q293.46875 344.34064 293.20312 344.16876Q292.9375 343.9969 292.5625 343.9969Q291.90625 343.9969 291.46875 344.4344Q291.04688 344.8719 291.04688 345.84064L291.04688 349.45L289.98438 349.45L289.98438 345.40314Q289.98438 344.7 289.71875 344.35626Q289.46875 343.9969 288.89062 343.9969Q288.4375 343.9969 288.0625 344.23126Q287.6875 344.46564 287.51562 344.91876Q287.34375 345.3719 287.34375 346.21564L287.34375 349.45L286.29688 349.45ZM301.54688 347.45L302.64062 347.575Q302.39062 348.52814 301.6875 349.0594Q300.98438 349.59064 299.90625 349.59064Q298.54688 349.59064 297.73438 348.7469Q296.9375 347.90314 296.9375 346.3875Q296.9375 344.825 297.75 343.96564Q298.5625 343.09064 299.84375 343.09064Q301.09375 343.09064 301.875 343.9344Q302.67188 344.77814 302.67188 346.325Q302.67188 346.41876 302.67188 346.60626L298.03125 346.60626Q298.09375 347.6375 298.60938 348.1844Q299.125 348.71564 299.90625 348.71564Q300.48438 348.71564 300.89062 348.41876Q301.3125 348.10626 301.54688 347.45ZM298.09375 345.7469L301.5625 345.7469Q301.5 344.95 301.17188 344.5594Q300.65625 343.95 299.85938 343.95Q299.125 343.95 298.625 344.4344Q298.14062 344.91876 298.09375 345.7469ZM311.54688 347.45L312.64062 347.575Q312.39062 348.52814 311.6875 349.0594Q310.98438 349.59064 309.90625 349.59064Q308.54688 349.59064 307.73438 348.7469Q306.9375 347.90314 306.9375 346.3875Q306.9375 344.825 307.75 343.96564Q308.5625 343.09064 309.84375 343.09064Q311.09375 343.09064 311.875 343.9344Q312.67188 344.77814 312.67188 346.325Q312.67188 346.41876 312.67188 346.60626L308.03125 346.60626Q308.09375 347.6375 308.60938 348.1844Q309.125 348.71564 309.90625 348.71564Q310.48438 348.71564 310.89062 348.41876Q311.3125 348.10626 311.54688 347.45ZM308.09375 345.7469L311.5625 345.7469Q311.5 344.95 311.17188 344.5594Q310.65625 343.95 309.85938 343.95Q309.125 343.95 308.625 344.4344Q308.14062 344.91876 308.09375 345.7469ZM314.26562 349.45L314.26562 340.85626L315.32812 340.85626L315.32812 349.45L314.26562 349.45ZM321.35938 348.6844Q320.76562 349.1844 320.21875 349.3875Q319.6875 349.59064 319.0625 349.59064Q318.03125 349.59064 317.48438 349.09064Q316.9375 348.59064 316.9375 347.8094Q316.9375 347.35626 317.14062 346.98126Q317.34375 346.59064 317.6875 346.3719Q318.03125 346.1375 318.45312 346.02814Q318.75 345.9344 319.39062 345.85626Q320.65625 345.71564 321.26562 345.4969Q321.26562 345.27814 321.26562 345.23126Q321.26562 344.575 320.96875 344.3094Q320.5625 343.96564 319.76562 343.96564Q319.03125 343.96564 318.67188 344.23126Q318.3125 344.48126 318.14062 345.1375L317.10938 344.9969Q317.25 344.34064 317.57812 343.9344Q317.90625 343.52814 318.51562 343.3094Q319.125 343.09064 319.92188 343.09064Q320.71875 343.09064 321.21875 343.27814Q321.71875 343.46564 321.95312 343.7469Q322.1875 344.02814 322.28125 344.46564Q322.32812 344.73126 322.32812 345.4344L322.32812 346.84064Q322.32812 348.3094 322.39062 348.7Q322.46875 349.09064 322.67188 349.45L321.5625 349.45Q321.40625 349.1219 321.35938 348.6844ZM321.26562 346.325Q320.6875 346.5594 319.54688 346.73126Q318.89062 346.825 318.625 346.95Q318.35938 347.0594 318.20312 347.27814Q318.0625 347.4969 318.0625 347.77814Q318.0625 348.2 318.375 348.48126Q318.70312 348.7625 319.3125 348.7625Q319.92188 348.7625 320.39062 348.4969Q320.875 348.23126 321.09375 347.7625Q321.26562 347.40314 321.26562 346.71564L321.26562 346.325ZM324.29688 351.84064L324.29688 343.23126L325.25 343.23126L325.25 344.02814Q325.59375 343.5594 326.01562 343.325Q326.45312 343.09064 327.0625 343.09064Q327.85938 343.09064 328.46875 343.4969Q329.07812 343.90314 329.375 344.65314Q329.6875 345.40314 329.6875 346.29376Q329.6875 347.2469 329.34375 348.0125Q329.01562 348.77814 328.35938 349.1844Q327.70312 349.59064 326.98438 349.59064Q326.45312 349.59064 326.03125 349.3719Q325.60938 349.1375 325.34375 348.8094L325.34375 351.84064L324.29688 351.84064ZM325.25 346.3719Q325.25 347.575 325.73438 348.15314Q326.21875 348.71564 326.90625 348.71564Q327.60938 348.71564 328.10938 348.1219Q328.60938 347.52814 328.60938 346.27814Q328.60938 345.09064 328.125 344.5125Q327.64062 343.91876 326.95312 343.91876Q326.28125 343.91876 325.76562 344.54376Q325.25 345.16876 325.25 346.3719ZM330.875 347.59064L331.90625 347.4344Q332.0 348.0594 332.39062 348.3875Q332.79688 348.71564 333.53125 348.71564Q334.25 348.71564 334.59375 348.4344Q334.95312 348.1375 334.95312 347.73126Q334.95312 347.3719 334.64062 347.16876Q334.42188 347.02814 333.5625 346.8094Q332.40625 346.5125 331.95312 346.3094Q331.51562 346.09064 331.28125 345.71564Q331.04688 345.34064 331.04688 344.8719Q331.04688 344.46564 331.23438 344.10626Q331.42188 343.7469 331.75 343.5125Q332.0 343.34064 332.42188 343.21564Q332.84375 343.09064 333.34375 343.09064Q334.0625 343.09064 334.60938 343.3094Q335.17188 343.5125 335.4375 343.8719Q335.70312 344.23126 335.79688 344.825L334.76562 344.96564Q334.70312 344.4969 334.35938 344.23126Q334.03125 343.95 333.40625 343.95Q332.6875 343.95 332.375 344.2Q332.0625 344.4344 332.0625 344.7625Q332.0625 344.96564 332.1875 345.1219Q332.32812 345.29376 332.59375 345.40314Q332.75 345.46564 333.53125 345.66876Q334.65625 345.98126 335.09375 346.16876Q335.53125 346.35626 335.78125 346.71564Q336.03125 347.075 336.03125 347.6219Q336.03125 348.15314 335.71875 348.6219Q335.42188 349.075 334.84375 349.34064Q334.26562 349.59064 333.53125 349.59064Q332.3125 349.59064 331.67188 349.09064Q331.04688 348.575 330.875 347.59064ZM342.54688 347.45L343.64062 347.575Q343.39062 348.52814 342.6875 349.0594Q341.98438 349.59064 340.90625 349.59064Q339.54688 349.59064 338.73438 348.7469Q337.9375 347.90314 337.9375 346.3875Q337.9375 344.825 338.75 343.96564Q339.5625 343.09064 340.84375 343.09064Q342.09375 343.09064 342.875 343.9344Q343.67188 344.77814 343.67188 346.325Q343.67188 346.41876 343.67188 346.60626L339.03125 346.60626Q339.09375 347.6375 339.60938 348.1844Q340.125 348.71564 340.90625 348.71564Q341.48438 348.71564 341.89062 348.41876Q342.3125 348.10626 342.54688 347.45ZM339.09375 345.7469L342.5625 345.7469Q342.5 344.95 342.17188 344.5594Q341.65625 343.95 340.85938 343.95Q340.125 343.95 339.625 344.4344Q339.14062 344.91876 339.09375 345.7469ZM349.32812 349.45L349.32812 348.66876Q348.73438 349.59064 347.59375 349.59064Q346.84375 349.59064 346.21875 349.1844Q345.59375 348.7625 345.25 348.02814Q344.90625 347.29376 344.90625 346.34064Q344.90625 345.41876 345.21875 344.65314Q345.53125 343.8875 346.15625 343.4969Q346.78125 343.09064 347.54688 343.09064Q348.10938 343.09064 348.54688 343.325Q348.98438 343.5594 349.26562 343.9344L349.26562 340.85626L350.3125 340.85626L350.3125 349.45L349.32812 349.45ZM346.0 346.34064Q346.0 347.54376 346.5 348.1375Q347.0 348.71564 347.6875 348.71564Q348.375 348.71564 348.85938 348.15314Q349.34375 347.59064 349.34375 346.4344Q349.34375 345.15314 348.84375 344.5594Q348.35938 343.96564 347.64062 343.96564Q346.9375 343.96564 346.46875 344.54376Q346.0 345.10626 346.0 346.34064ZM357.3125 351.98126Q356.4375 350.8719 355.82812 349.40314Q355.23438 347.91876 355.23438 346.34064Q355.23438 344.95 355.67188 343.66876Q356.20312 342.1844 357.3125 340.71564L358.0625 340.71564Q357.35938 341.9344 357.125 342.45Q356.76562 343.2625 356.5625 344.1375Q356.3125 345.23126 356.3125 346.34064Q356.3125 349.16876 358.0625 351.98126L357.3125 351.98126ZM359.29688 342.075L359.29688 340.85626L360.35938 340.85626L360.35938 342.075L359.29688 342.075ZM359.29688 349.45L359.29688 343.23126L360.35938 343.23126L360.35938 349.45L359.29688 349.45ZM362.29688 349.45L362.29688 343.23126L363.23438 343.23126L363.23438 344.10626Q363.92188 343.09064 365.21875 343.09064Q365.78125 343.09064 366.25 343.29376Q366.73438 343.4969 366.96875 343.825Q367.20312 344.15314 367.29688 344.59064Q367.34375 344.8875 367.34375 345.6219L367.34375 349.45L366.29688 349.45L366.29688 345.66876Q366.29688 345.0125 366.17188 344.7Q366.04688 344.3875 365.73438 344.2Q365.42188 343.9969 365.0 343.9969Q364.32812 343.9969 363.82812 344.4344Q363.34375 344.85626 363.34375 346.04376L363.34375 349.45L362.29688 349.45ZM371.875 347.59064L372.90625 347.4344Q373.0 348.0594 373.39062 348.3875Q373.79688 348.71564 374.53125 348.71564Q375.25 348.71564 375.59375 348.4344Q375.95312 348.1375 375.95312 347.73126Q375.95312 347.3719 375.64062 347.16876Q375.42188 347.02814 374.5625 346.8094Q373.40625 346.5125 372.95312 346.3094Q372.51562 346.09064 372.28125 345.71564Q372.04688 345.34064 372.04688 344.8719Q372.04688 344.46564 372.23438 344.10626Q372.42188 343.7469 372.75 343.5125Q373.0 343.34064 373.42188 343.21564Q373.84375 343.09064 374.34375 343.09064Q375.0625 343.09064 375.60938 343.3094Q376.17188 343.5125 376.4375 343.8719Q376.70312 344.23126 376.79688 344.825L375.76562 344.96564Q375.70312 344.4969 375.35938 344.23126Q375.03125 343.95 374.40625 343.95Q373.6875 343.95 373.375 344.2Q373.0625 344.4344 373.0625 344.7625Q373.0625 344.96564 373.1875 345.1219Q373.32812 345.29376 373.59375 345.40314Q373.75 345.46564 374.53125 345.66876Q375.65625 345.98126 376.09375 346.16876Q376.53125 346.35626 376.78125 346.71564Q377.03125 347.075 377.03125 347.6219Q377.03125 348.15314 376.71875 348.6219Q376.42188 349.075 375.84375 349.34064Q375.26562 349.59064 374.53125 349.59064Q373.3125 349.59064 372.67188 349.09064Q372.04688 348.575 371.875 347.59064ZM379.98438 351.98126L379.23438 351.98126Q380.98438 349.16876 380.98438 346.34064Q380.98438 345.2469 380.73438 344.15314Q380.53125 343.27814 380.17188 342.46564Q379.9375 341.95 379.23438 340.71564L379.98438 340.71564Q381.07812 342.1844 381.60938 343.66876Q382.0625 344.95 382.0625 346.34064Q382.0625 347.91876 381.45312 349.40314Q380.84375 350.8719 379.98438 351.98126Z" fill-rule="nonzero"/><path fill="#000000" d="M26.175013 204.41354L25.175013 204.41354L25.159388 200.78854L28.346888 200.78854Q29.018763 201.61667 29.362513 202.5073Q29.690638 203.39792 29.690638 204.33542Q29.690638 205.60104 29.159388 206.64792Q28.612513 207.67917 27.596888 208.21042Q26.565638 208.72604 25.300013 208.72604Q24.034388 208.72604 22.956263 208.21042Q21.862513 207.67917 21.346888 206.6948Q20.815638 205.71042 20.815638 204.42917Q20.815638 203.49167 21.112513 202.74167Q21.409388 201.99167 21.956263 201.5698Q22.487513 201.1323 23.362513 200.91354L23.643763 201.92917Q22.987513 202.1323 22.612513 202.42917Q22.237513 202.71042 22.018763 203.24167Q21.784388 203.77292 21.784388 204.41354Q21.784388 205.1948 22.018763 205.77292Q22.253138 206.33542 22.643763 206.6948Q23.034388 207.03854 23.503138 207.22604Q24.300013 207.55417 25.221888 207.55417Q26.378138 207.55417 27.159388 207.16354Q27.925013 206.7573 28.300013 206.0073Q28.675013 205.2573 28.675013 204.39792Q28.675013 203.66354 28.393763 202.96042Q28.096888 202.2573 27.784388 201.89792L26.175013 201.89792L26.175013 204.41354ZM29.550013 199.49167L20.956263 199.49167L20.956263 196.2573Q20.956263 195.27292 21.221888 194.67917Q21.487513 194.08542 22.034388 193.7573Q22.565638 193.41354 23.159388 193.41354Q23.706263 193.41354 24.190638 193.71042Q24.675013 194.0073 24.971888 194.61667Q25.206263 193.83542 25.768763 193.42917Q26.315638 193.0073 27.065638 193.0073Q27.659388 193.0073 28.190638 193.2573Q28.706263 193.5073 28.987513 193.8823Q29.268763 194.2573 29.409388 194.83542Q29.550013 195.39792 29.550013 196.21042L29.550013 199.49167ZM24.565638 198.35104L24.565638 196.49167Q24.565638 195.74167 24.471888 195.41354Q24.346888 194.97604 24.050013 194.7573Q23.737513 194.53854 23.284388 194.53854Q22.862513 194.53854 22.534388 194.74167Q22.206263 194.9448 22.096888 195.33542Q21.971888 195.71042 21.971888 196.6323L21.971888 198.35104L24.565638 198.35104ZM28.534388 198.35104L28.534388 196.21042Q28.534388 195.66354 28.487513 195.4448Q28.425013 195.03854 28.268763 194.78854Q28.096888 194.52292 27.784388 194.35104Q27.471888 194.17917 27.065638 194.17917Q26.581263 194.17917 26.221888 194.42917Q25.862513 194.66354 25.721888 195.10104Q25.581263 195.53854 25.581263 196.36667L25.581263 198.35104L28.534388 198.35104Z" fill-rule="nonzero"/><path fill="#000000" d="M51.05 300.21564Q51.05 298.6844 51.3625 297.7625Q51.675 296.825 52.284374 296.325Q52.909374 295.825 53.846874 295.825Q54.534374 295.825 55.05 296.10626Q55.58125 296.3875 55.925 296.91876Q56.26875 297.4344 56.45625 298.1844Q56.64375 298.9344 56.64375 300.21564Q56.64375 301.73126 56.33125 302.65314Q56.034374 303.575 55.409374 304.09064Q54.8 304.59064 53.846874 304.59064Q52.6125 304.59064 51.89375 303.7Q51.05 302.6375 51.05 300.21564ZM52.128124 300.21564Q52.128124 302.325 52.628124 303.02814Q53.128124 303.73126 53.846874 303.73126Q54.58125 303.73126 55.065624 303.02814Q55.565624 302.325 55.565624 300.21564Q55.565624 298.09064 55.065624 297.40314Q54.58125 296.7 53.83125 296.7Q53.1125 296.7 52.675 297.3094Q52.128124 298.09064 52.128124 300.21564ZM58.64375 304.45L58.64375 303.2469L59.846874 303.2469L59.846874 304.45L58.64375 304.45ZM61.05 300.21564Q61.05 298.6844 61.3625 297.7625Q61.675 296.825 62.284374 296.325Q62.909374 295.825 63.846874 295.825Q64.53438 295.825 65.05 296.10626Q65.58125 296.3875 65.925 296.91876Q66.26875 297.4344 66.45625 298.1844Q66.64375 298.9344 66.64375 300.21564Q66.64375 301.73126 66.33125 302.65314Q66.03438 303.575 65.40938 304.09064Q64.8 304.59064 63.846874 304.59064Q62.6125 304.59064 61.89375 303.7Q61.05 302.6375 61.05 300.21564ZM62.128124 300.21564Q62.128124 302.325 62.628124 303.02814Q63.128124 303.73126 63.846874 303.73126Q64.58125 303.73126 65.06563 303.02814Q65.56563 302.325 65.56563 300.21564Q65.56563 298.09064 65.06563 297.40314Q64.58125 296.7 63.83125 296.7Q63.1125 296.7 62.675 297.3094Q62.128124 298.09064 62.128124 300.21564ZM68.05 300.21564Q68.05 298.6844 68.3625 297.7625Q68.675 296.825 69.28438 296.325Q69.90938 295.825 70.84688 295.825Q71.53438 295.825 72.05 296.10626Q72.58125 296.3875 72.925 296.91876Q73.26875 297.4344 73.45625 298.1844Q73.64375 298.9344 73.64375 300.21564Q73.64375 301.73126 73.33125 302.65314Q73.03438 303.575 72.40938 304.09064Q71.8 304.59064 70.84688 304.59064Q69.6125 304.59064 68.89375 303.7Q68.05 302.6375 68.05 300.21564ZM69.12813 300.21564Q69.12813 302.325 69.62813 303.02814Q70.12813 303.73126 70.84688 303.73126Q71.58125 303.73126 72.06563 303.02814Q72.56563 302.325 72.56563 300.21564Q72.56563 298.09064 72.06563 297.40314Q71.58125 296.7 70.83125 296.7Q70.1125 296.7 69.675 297.3094Q69.12813 298.09064 69.12813 300.21564Z" fill-rule="nonzero"/><path fill="#000000" d="M51.05 247.17397Q51.05 245.64272 51.3625 244.72084Q51.675 243.78334 52.284374 243.28334Q52.909374 242.78334 53.846874 242.78334Q54.534374 242.78334 55.05 243.06459Q55.58125 243.34584 55.925 243.87709Q56.26875 244.39272 56.45625 245.14272Q56.64375 245.89272 56.64375 247.17397Q56.64375 248.68959 56.33125 249.61147Q56.034374 250.53334 55.409374 251.04897Q54.8 251.54897 53.846874 251.54897Q52.6125 251.54897 51.89375 250.65834Q51.05 249.59584 51.05 247.17397ZM52.128124 247.17397Q52.128124 249.28334 52.628124 249.98647Q53.128124 250.68959 53.846874 250.68959Q54.58125 250.68959 55.065624 249.98647Q55.565624 249.28334 55.565624 247.17397Q55.565624 245.04897 55.065624 244.36147Q54.58125 243.65834 53.83125 243.65834Q53.1125 243.65834 52.675 244.26772Q52.128124 245.04897 52.128124 247.17397ZM58.64375 251.40834L58.64375 250.20522L59.846874 250.20522L59.846874 251.40834L58.64375 251.40834ZM66.59688 250.39272L66.59688 251.40834L60.909374 251.40834Q60.909374 251.03334 61.034374 250.67397Q61.253124 250.09584 61.721874 249.53334Q62.20625 248.97084 63.1125 248.23647Q64.51875 247.08022 65.00313 246.40834Q65.50313 245.73647 65.50313 245.14272Q65.50313 244.51772 65.05 244.09584Q64.59688 243.65834 63.878124 243.65834Q63.1125 243.65834 62.659374 244.11147Q62.20625 244.56459 62.190624 245.37709L61.1125 245.26772Q61.221874 244.04897 61.940624 243.42397Q62.675 242.78334 63.909374 242.78334Q65.14375 242.78334 65.8625 243.47084Q66.58125 244.15834 66.58125 245.17397Q66.58125 245.68959 66.3625 246.18959Q66.15938 246.67397 65.65938 247.23647Q65.175 247.78334 64.05 248.73647Q63.096874 249.53334 62.815624 249.83022Q62.55 250.11147 62.378124 250.39272L66.59688 250.39272ZM68.05 249.15834L69.15938 249.06459Q69.28438 249.87709 69.72188 250.28334Q70.175 250.68959 70.81563 250.68959Q71.56563 250.68959 72.09688 250.11147Q72.62813 249.53334 72.62813 248.59584Q72.62813 247.68959 72.1125 247.17397Q71.6125 246.64272 70.78438 246.64272Q70.28438 246.64272 69.8625 246.87709Q69.45625 247.11147 69.22188 247.47084L68.2375 247.34584L69.06563 242.93959L73.34688 242.93959L73.34688 243.93959L69.90938 243.93959L69.45625 246.25209Q70.22188 245.70522 71.06563 245.70522Q72.19063 245.70522 72.95625 246.48647Q73.7375 247.26772 73.7375 248.50209Q73.7375 249.65834 73.06563 250.51772Q72.2375 251.54897 70.81563 251.54897Q69.64375 251.54897 68.89375 250.89272Q68.15938 250.23647 68.05 249.15834Z" fill-rule="nonzero"/><path fill="#000000" d="M51.05 194.1323Q51.05 192.60104 51.3625 191.67917Q51.675 190.74167 52.284374 190.24167Q52.909374 189.74167 53.846874 189.74167Q54.534374 189.74167 55.05 190.02292Q55.58125 190.30417 55.925 190.83542Q56.26875 191.35104 56.45625 192.10104Q56.64375 192.85104 56.64375 194.1323Q56.64375 195.64792 56.33125 196.5698Q56.034374 197.49167 55.409374 198.0073Q54.8 198.5073 53.846874 198.5073Q52.6125 198.5073 51.89375 197.61667Q51.05 196.55417 51.05 194.1323ZM52.128124 194.1323Q52.128124 196.24167 52.628124 196.9448Q53.128124 197.64792 53.846874 197.64792Q54.58125 197.64792 55.065624 196.9448Q55.565624 196.24167 55.565624 194.1323Q55.565624 192.0073 55.065624 191.3198Q54.58125 190.61667 53.83125 190.61667Q53.1125 190.61667 52.675 191.22604Q52.128124 192.0073 52.128124 194.1323ZM58.64375 198.36667L58.64375 197.16354L59.846874 197.16354L59.846874 198.36667L58.64375 198.36667ZM61.05 196.11667L62.159374 196.02292Q62.284374 196.83542 62.721874 197.24167Q63.175 197.64792 63.815624 197.64792Q64.56563 197.64792 65.09688 197.0698Q65.62813 196.49167 65.62813 195.55417Q65.62813 194.64792 65.1125 194.1323Q64.6125 193.60104 63.784374 193.60104Q63.284374 193.60104 62.8625 193.83542Q62.45625 194.0698 62.221874 194.42917L61.2375 194.30417L62.065624 189.89792L66.34688 189.89792L66.34688 190.89792L62.909374 190.89792L62.45625 193.21042Q63.221874 192.66354 64.06563 192.66354Q65.19063 192.66354 65.95625 193.4448Q66.7375 194.22604 66.7375 195.46042Q66.7375 196.61667 66.06563 197.47604Q65.2375 198.5073 63.815624 198.5073Q62.64375 198.5073 61.89375 197.85104Q61.159374 197.1948 61.05 196.11667ZM68.05 194.1323Q68.05 192.60104 68.3625 191.67917Q68.675 190.74167 69.28438 190.24167Q69.90938 189.74167 70.84688 189.74167Q71.53438 189.74167 72.05 190.02292Q72.58125 190.30417 72.925 190.83542Q73.26875 191.35104 73.45625 192.10104Q73.64375 192.85104 73.64375 194.1323Q73.64375 195.64792 73.33125 196.5698Q73.03438 197.49167 72.40938 198.0073Q71.8 198.5073 70.84688 198.5073Q69.6125 198.5073 68.89375 197.61667Q68.05 196.55417 68.05 194.1323ZM69.12813 194.1323Q69.12813 196.24167 69.62813 196.9448Q70.12813 197.64792 70.84688 197.64792Q71.58125 197.64792 72.06563 196.9448Q72.56563 196.24167 72.56563 194.1323Q72.56563 192.0073 72.06563 191.3198Q71.58125 190.61667 70.83125 190.61667Q70.1125 190.61667 69.675 191.22604Q69.12813 192.0073 69.12813 194.1323Z" fill-rule="nonzero"/><path fill="#000000" d="M51.05 141.09062Q51.05 139.55937 51.3625 138.6375Q51.675 137.7 52.284374 137.2Q52.909374 136.7 53.846874 136.7Q54.534374 136.7 55.05 136.98125Q55.58125 137.2625 55.925 137.79375Q56.26875 138.30937 56.45625 139.05937Q56.64375 139.80937 56.64375 141.09062Q56.64375 142.60625 56.33125 143.52812Q56.034374 144.45 55.409374 144.96562Q54.8 145.46562 53.846874 145.46562Q52.6125 145.46562 51.89375 144.575Q51.05 143.5125 51.05 141.09062ZM52.128124 141.09062Q52.128124 143.2 52.628124 143.90312Q53.128124 144.60625 53.846874 144.60625Q54.58125 144.60625 55.065624 143.90312Q55.565624 143.2 55.565624 141.09062Q55.565624 138.96562 55.065624 138.27812Q54.58125 137.575 53.83125 137.575Q53.1125 137.575 52.675 138.18437Q52.128124 138.96562 52.128124 141.09062ZM58.64375 145.325L58.64375 144.12187L59.846874 144.12187L59.846874 145.325L58.64375 145.325ZM61.1125 137.85625L61.1125 136.84062L66.675 136.84062L66.675 137.66875Q65.8625 138.54375 65.05 139.99687Q64.25313 141.43437 63.815624 142.96562Q63.4875 144.04375 63.409374 145.325L62.315624 145.325Q62.33125 144.30937 62.70625 142.87187Q63.096874 141.43437 63.8 140.10625Q64.51875 138.77812 65.33125 137.85625L61.1125 137.85625ZM68.05 143.075L69.15938 142.98125Q69.28438 143.79375 69.72188 144.2Q70.175 144.60625 70.81563 144.60625Q71.56563 144.60625 72.09688 144.02812Q72.62813 143.45 72.62813 142.5125Q72.62813 141.60625 72.1125 141.09062Q71.6125 140.55937 70.78438 140.55937Q70.28438 140.55937 69.8625 140.79375Q69.45625 141.02812 69.22188 141.3875L68.2375 141.2625L69.06563 136.85625L73.34688 136.85625L73.34688 137.85625L69.90938 137.85625L69.45625 140.16875Q70.22188 139.62187 71.06563 139.62187Q72.19063 139.62187 72.95625 140.40312Q73.7375 141.18437 73.7375 142.41875Q73.7375 143.575 73.06563 144.43437Q72.2375 145.46562 70.81563 145.46562Q69.64375 145.46562 68.89375 144.80937Q68.15938 144.15312 68.05 143.075Z" fill-rule="nonzero"/><path fill="#000000" d="M55.01875 92.28333L53.971874 92.28333L53.971874 85.56458Q53.58125 85.92396 52.95625 86.29896Q52.346874 86.65833 51.8625 86.83021L51.8625 85.81458Q52.7375 85.39271 53.39375 84.81458Q54.065624 84.22083 54.346874 83.65833L55.01875 83.65833L55.01875 92.28333ZM58.64375 92.28333L58.64375 91.08021L59.846874 91.08021L59.846874 92.28333L58.64375 92.28333ZM61.05 88.04896Q61.05 86.51771 61.3625 85.59583Q61.675 84.65833 62.284374 84.15833Q62.909374 83.65833 63.846874 83.65833Q64.53438 83.65833 65.05 83.93958Q65.58125 84.22083 65.925 84.75208Q66.26875 85.26771 66.45625 86.01771Q66.64375 86.76771 66.64375 88.04896Q66.64375 89.56458 66.33125 90.48646Q66.03438 91.40833 65.40938 91.92396Q64.8 92.42396 63.846874 92.42396Q62.6125 92.42396 61.89375 91.53333Q61.05 90.47083 61.05 88.04896ZM62.128124 88.04896Q62.128124 90.15833 62.628124 90.86146Q63.128124 91.56458 63.846874 91.56458Q64.58125 91.56458 65.06563 90.86146Q65.56563 90.15833 65.56563 88.04896Q65.56563 85.92396 65.06563 85.23646Q64.58125 84.53333 63.83125 84.53333Q63.1125 84.53333 62.675 85.14271Q62.128124 85.92396 62.128124 88.04896ZM68.05 88.04896Q68.05 86.51771 68.3625 85.59583Q68.675 84.65833 69.28438 84.15833Q69.90938 83.65833 70.84688 83.65833Q71.53438 83.65833 72.05 83.93958Q72.58125 84.22083 72.925 84.75208Q73.26875 85.26771 73.45625 86.01771Q73.64375 86.76771 73.64375 88.04896Q73.64375 89.56458 73.33125 90.48646Q73.03438 91.40833 72.40938 91.92396Q71.8 92.42396 70.84688 92.42396Q69.6125 92.42396 68.89375 91.53333Q68.05 90.47083 68.05 88.04896ZM69.12813 88.04896Q69.12813 90.15833 69.62813 90.86146Q70.12813 91.56458 70.84688 91.56458Q71.58125 91.56458 72.06563 90.86146Q72.56563 90.15833 72.56563 88.04896Q72.56563 85.92396 72.06563 85.23646Q71.58125 84.53333 70.83125 84.53333Q70.1125 84.53333 69.675 85.14271Q69.12813 85.92396 69.12813 88.04896Z" fill-rule="nonzero"/><path fill="#000000" d="M77.55 313.21564Q77.55 311.6844 77.8625 310.7625Q78.175 309.825 78.78438 309.325Q79.40938 308.825 80.34688 308.825Q81.03438 308.825 81.55 309.10626Q82.08125 309.3875 82.425 309.91876Q82.76875 310.4344 82.95625 311.1844Q83.14375 311.9344 83.14375 313.21564Q83.14375 314.73126 82.83125 315.65314Q82.53438 316.575 81.90938 317.09064Q81.3 317.59064 80.34688 317.59064Q79.1125 317.59064 78.39375 316.7Q77.55 315.6375 77.55 313.21564ZM78.62813 313.21564Q78.62813 315.325 79.12813 316.02814Q79.62813 316.73126 80.34688 316.73126Q81.08125 316.73126 81.56563 316.02814Q82.06563 315.325 82.06563 313.21564Q82.06563 311.09064 81.56563 310.40314Q81.08125 309.7 80.33125 309.7Q79.6125 309.7 79.175 310.3094Q78.62813 311.09064 78.62813 313.21564Z" fill-rule="nonzero"/><path fill="#000000" d="M202.95465 317.45L201.90778 317.45L201.90778 310.73126Q201.51715 311.09064 200.89215 311.46564Q200.28278 311.825 199.7984 311.9969L199.7984 310.98126Q200.6734 310.5594 201.32965 309.98126Q202.00153 309.3875 202.28278 308.825L202.95465 308.825L202.95465 317.45ZM205.9859 313.21564Q205.9859 311.6844 206.2984 310.7625Q206.6109 309.825 207.22028 309.325Q207.84528 308.825 208.78278 308.825Q209.47028 308.825 209.9859 309.10626Q210.51715 309.3875 210.8609 309.91876Q211.20465 310.4344 211.39215 311.1844Q211.57965 311.9344 211.57965 313.21564Q211.57965 314.73126 211.26715 315.65314Q210.97028 316.575 210.34528 317.09064Q209.7359 317.59064 208.78278 317.59064Q207.5484 317.59064 206.82965 316.7Q205.9859 315.6375 205.9859 313.21564ZM207.06403 313.21564Q207.06403 315.325 207.56403 316.02814Q208.06403 316.73126 208.78278 316.73126Q209.51715 316.73126 210.00153 316.02814Q210.50153 315.325 210.50153 313.21564Q210.50153 311.09064 210.00153 310.40314Q209.51715 309.7 208.76715 309.7Q208.0484 309.7 207.6109 310.3094Q207.06403 311.09064 207.06403 313.21564ZM212.9859 313.21564Q212.9859 311.6844 213.2984 310.7625Q213.6109 309.825 214.22028 309.325Q214.84528 308.825 215.78278 308.825Q216.47028 308.825 216.9859 309.10626Q217.51715 309.3875 217.8609 309.91876Q218.20465 310.4344 218.39215 311.1844Q218.57965 311.9344 218.57965 313.21564Q218.57965 314.73126 218.26715 315.65314Q217.97028 316.575 217.34528 317.09064Q216.7359 317.59064 215.78278 317.59064Q214.5484 317.59064 213.82965 316.7Q212.9859 315.6375 212.9859 313.21564ZM214.06403 313.21564Q214.06403 315.325 214.56403 316.02814Q215.06403 316.73126 215.78278 316.73126Q216.51715 316.73126 217.00153 316.02814Q217.50153 315.325 217.50153 313.21564Q217.50153 311.09064 217.00153 310.40314Q216.51715 309.7 215.76715 309.7Q215.0484 309.7 214.6109 310.3094Q214.06403 311.09064 214.06403 313.21564Z" fill-rule="nonzero"/><path fill="#000000" d="M332.96866 316.4344L332.96866 317.45L327.28116 317.45Q327.28116 317.075 327.40616 316.71564Q327.6249 316.1375 328.09366 315.575Q328.57803 315.0125 329.48428 314.27814Q330.89053 313.1219 331.3749 312.45Q331.8749 311.77814 331.8749 311.1844Q331.8749 310.5594 331.42178 310.1375Q330.96866 309.7 330.2499 309.7Q329.48428 309.7 329.03116 310.15314Q328.57803 310.60626 328.5624 311.41876L327.48428 311.3094Q327.59366 310.09064 328.3124 309.46564Q329.04678 308.825 330.28116 308.825Q331.51553 308.825 332.23428 309.5125Q332.95303 310.2 332.95303 311.21564Q332.95303 311.73126 332.73428 312.23126Q332.53116 312.71564 332.03116 313.27814Q331.54678 313.825 330.42178 314.77814Q329.46866 315.575 329.1874 315.8719Q328.92178 316.15314 328.7499 316.4344L332.96866 316.4344ZM334.42178 313.21564Q334.42178 311.6844 334.73428 310.7625Q335.04678 309.825 335.65616 309.325Q336.28116 308.825 337.21866 308.825Q337.90616 308.825 338.42178 309.10626Q338.95303 309.3875 339.29678 309.91876Q339.64053 310.4344 339.82803 311.1844Q340.01553 311.9344 340.01553 313.21564Q340.01553 314.73126 339.70303 315.65314Q339.40616 316.575 338.78116 317.09064Q338.17178 317.59064 337.21866 317.59064Q335.98428 317.59064 335.26553 316.7Q334.42178 315.6375 334.42178 313.21564ZM335.4999 313.21564Q335.4999 315.325 335.9999 316.02814Q336.4999 316.73126 337.21866 316.73126Q337.95303 316.73126 338.4374 316.02814Q338.9374 315.325 338.9374 313.21564Q338.9374 311.09064 338.4374 310.40314Q337.95303 309.7 337.20303 309.7Q336.48428 309.7 336.04678 310.3094Q335.4999 311.09064 335.4999 313.21564ZM341.42178 313.21564Q341.42178 311.6844 341.73428 310.7625Q342.04678 309.825 342.65616 309.325Q343.28116 308.825 344.21866 308.825Q344.90616 308.825 345.42178 309.10626Q345.95303 309.3875 346.29678 309.91876Q346.64053 310.4344 346.82803 311.1844Q347.01553 311.9344 347.01553 313.21564Q347.01553 314.73126 346.70303 315.65314Q346.40616 316.575 345.78116 317.09064Q345.17178 317.59064 344.21866 317.59064Q342.98428 317.59064 342.26553 316.7Q341.42178 315.6375 341.42178 313.21564ZM342.4999 313.21564Q342.4999 315.325 342.9999 316.02814Q343.4999 316.73126 344.21866 316.73126Q344.95303 316.73126 345.4374 316.02814Q345.9374 315.325 345.9374 313.21564Q345.9374 311.09064 345.4374 310.40314Q344.95303 309.7 344.20303 309.7Q343.48428 309.7 343.04678 310.3094Q342.4999 311.09064 342.4999 313.21564Z" fill-rule="nonzero"/><path fill="#000000" d="M455.8577 315.1844L456.9202 315.04376Q457.09207 315.9344 457.52957 316.34064Q457.96707 316.73126 458.59207 316.73126Q459.34207 316.73126 459.8577 316.21564Q460.37332 315.7 460.37332 314.9344Q460.37332 314.21564 459.88895 313.7469Q459.4202 313.2625 458.68582 313.2625Q458.38895 313.2625 457.93582 313.3875L458.06082 312.45Q458.1702 312.46564 458.2327 312.46564Q458.90457 312.46564 459.43582 312.1219Q459.9827 311.7625 459.9827 311.02814Q459.9827 310.45 459.59207 310.075Q459.20145 309.6844 458.57645 309.6844Q457.96707 309.6844 457.5452 310.075Q457.13895 310.46564 457.02957 311.23126L455.96707 311.04376Q456.15457 309.9969 456.84207 309.41876Q457.52957 308.825 458.5452 308.825Q459.24832 308.825 459.84207 309.1375Q460.43582 309.4344 460.74832 309.95Q461.06082 310.46564 461.06082 311.0594Q461.06082 311.60626 460.76395 312.075Q460.46707 312.52814 459.88895 312.79376Q460.63895 312.96564 461.06082 313.52814Q461.4827 314.075 461.4827 314.91876Q461.4827 316.04376 460.65457 316.825Q459.84207 317.60626 458.59207 317.60626Q457.46707 317.60626 456.71707 316.9344Q455.96707 316.2469 455.8577 315.1844ZM462.8577 313.21564Q462.8577 311.6844 463.1702 310.7625Q463.4827 309.825 464.09207 309.325Q464.71707 308.825 465.65457 308.825Q466.34207 308.825 466.8577 309.10626Q467.38895 309.3875 467.7327 309.91876Q468.07645 310.4344 468.26395 311.1844Q468.45145 311.9344 468.45145 313.21564Q468.45145 314.73126 468.13895 315.65314Q467.84207 316.575 467.21707 317.09064Q466.6077 317.59064 465.65457 317.59064Q464.4202 317.59064 463.70145 316.7Q462.8577 315.6375 462.8577 313.21564ZM463.93582 313.21564Q463.93582 315.325 464.43582 316.02814Q464.93582 316.73126 465.65457 316.73126Q466.38895 316.73126 466.87332 316.02814Q467.37332 315.325 467.37332 313.21564Q467.37332 311.09064 466.87332 310.40314Q466.38895 309.7 465.63895 309.7Q464.9202 309.7 464.4827 310.3094Q463.93582 311.09064 463.93582 313.21564ZM469.8577 313.21564Q469.8577 311.6844 470.1702 310.7625Q470.4827 309.825 471.09207 309.325Q471.71707 308.825 472.65457 308.825Q473.34207 308.825 473.8577 309.10626Q474.38895 309.3875 474.7327 309.91876Q475.07645 310.4344 475.26395 311.1844Q475.45145 311.9344 475.45145 313.21564Q475.45145 314.73126 475.13895 315.65314Q474.84207 316.575 474.21707 317.09064Q473.6077 317.59064 472.65457 317.59064Q471.4202 317.59064 470.70145 316.7Q469.8577 315.6375 469.8577 313.21564ZM470.93582 313.21564Q470.93582 315.325 471.43582 316.02814Q471.93582 316.73126 472.65457 316.73126Q473.38895 316.73126 473.87332 316.02814Q474.37332 315.325 474.37332 313.21564Q474.37332 311.09064 473.87332 310.40314Q473.38895 309.7 472.63895 309.7Q471.9202 309.7 471.4827 310.3094Q470.93582 311.09064 470.93582 313.21564Z" fill-rule="nonzero"/><path stroke="#4285f4" stroke-width="4.0" stroke-linecap="butt" d="M164.0 61.916668L176.0 61.916668" fill-rule="nonzero"/><path fill="#1a1a1a" d="M184.79688 65.916664L184.79688 57.322914L185.85938 57.322914L185.85938 62.229164L188.34375 59.697914L189.71875 59.697914L187.32812 61.99479L189.95312 65.916664L188.65625 65.916664L186.59375 62.729164L185.85938 63.447914L185.85938 65.916664L184.79688 65.916664ZM190.5 63.65104L191.5625 63.510414Q191.73438 64.40104 192.17188 64.80729Q192.60938 65.197914 193.23438 65.197914Q193.98438 65.197914 194.5 64.68229Q195.01562 64.166664 195.01562 63.40104Q195.01562 62.68229 194.53125 62.21354Q194.0625 61.729164 193.32812 61.729164Q193.03125 61.729164 192.57812 61.854164L192.70312 60.916664Q192.8125 60.93229 192.875 60.93229Q193.54688 60.93229 194.07812 60.58854Q194.625 60.229164 194.625 59.49479Q194.625 58.916664 194.23438 58.541664Q193.84375 58.15104 193.21875 58.15104Q192.60938 58.15104 192.1875 58.541664Q191.78125 58.93229 191.67188 59.697914L190.60938 59.510414Q190.79688 58.46354 191.48438 57.885414Q192.17188 57.291664 193.1875 57.291664Q193.89062 57.291664 194.48438 57.604164Q195.07812 57.90104 195.39062 58.416664Q195.70312 58.93229 195.70312 59.52604Q195.70312 60.072914 195.40625 60.541664Q195.10938 60.99479 194.53125 61.260414Q195.28125 61.43229 195.70312 61.99479Q196.125 62.541664 196.125 63.385414Q196.125 64.510414 195.29688 65.291664Q194.48438 66.072914 193.23438 66.072914Q192.10938 66.072914 191.35938 65.40104Q190.60938 64.71354 190.5 63.65104ZM197.375 64.05729L198.40625 63.90104Q198.5 64.52604 198.89062 64.854164Q199.29688 65.18229 200.03125 65.18229Q200.75 65.18229 201.09375 64.90104Q201.45312 64.604164 201.45312 64.197914Q201.45312 63.83854 201.14062 63.635414Q200.92188 63.49479 200.0625 63.27604Q198.90625 62.979164 198.45312 62.77604Q198.01562 62.55729 197.78125 62.18229Q197.54688 61.80729 197.54688 61.33854Q197.54688 60.93229 197.73438 60.572914Q197.92188 60.21354 198.25 59.979164Q198.5 59.80729 198.92188 59.68229Q199.34375 59.55729 199.84375 59.55729Q200.5625 59.55729 201.10938 59.77604Q201.67188 59.979164 201.9375 60.33854Q202.20312 60.697914 202.29688 61.291664L201.26562 61.43229Q201.20312 60.96354 200.85938 60.697914Q200.53125 60.416664 199.90625 60.416664Q199.1875 60.416664 198.875 60.666664Q198.5625 60.90104 198.5625 61.229164Q198.5625 61.43229 198.6875 61.58854Q198.82812 61.760414 199.09375 61.86979Q199.25 61.93229 200.03125 62.135414Q201.15625 62.447914 201.59375 62.635414Q202.03125 62.822914 202.28125 63.18229Q202.53125 63.541664 202.53125 64.08854Q202.53125 64.61979 202.21875 65.08854Q201.92188 65.541664 201.34375 65.80729Q200.76562 66.05729 200.03125 66.05729Q198.8125 66.05729 198.17188 65.55729Q197.54688 65.041664 197.375 64.05729ZM207.79688 68.30729L207.79688 59.697914L208.75 59.697914L208.75 60.49479Q209.09375 60.02604 209.51562 59.791664Q209.95312 59.55729 210.5625 59.55729Q211.35938 59.55729 211.96875 59.96354Q212.57812 60.36979 212.875 61.11979Q213.1875 61.86979 213.1875 62.760414Q213.1875 63.71354 212.84375 64.479164Q212.51562 65.24479 211.85938 65.65104Q211.20312 66.05729 210.48438 66.05729Q209.95312 66.05729 209.53125 65.83854Q209.10938 65.604164 208.84375 65.27604L208.84375 68.30729L207.79688 68.30729ZM208.75 62.83854Q208.75 64.041664 209.23438 64.61979Q209.71875 65.18229 210.40625 65.18229Q211.10938 65.18229 211.60938 64.58854Q212.10938 63.99479 212.10938 62.74479Q212.10938 61.55729 211.625 60.979164Q211.14062 60.385414 210.45312 60.385414Q209.78125 60.385414 209.26562 61.010414Q208.75 61.635414 208.75 62.83854ZM214.78125 65.916664L214.78125 59.697914L215.73438 59.697914L215.73438 60.635414Q216.09375 59.979164 216.39062 59.77604Q216.70312 59.55729 217.07812 59.55729Q217.60938 59.55729 218.15625 59.885414L217.79688 60.86979Q217.40625 60.635414 217.03125 60.635414Q216.67188 60.635414 216.39062 60.854164Q216.125 61.05729 216.01562 61.43229Q215.82812 61.99479 215.82812 62.65104L215.82812 65.916664L214.78125 65.916664ZM218.40625 62.80729Q218.40625 61.072914 219.35938 60.24479Q220.15625 59.55729 221.3125 59.55729Q222.59375 59.55729 223.40625 60.40104Q224.23438 61.229164 224.23438 62.71354Q224.23438 63.916664 223.875 64.604164Q223.51562 65.291664 222.8125 65.68229Q222.125 66.05729 221.3125 66.05729Q220.01562 66.05729 219.20312 65.229164Q218.40625 64.385414 218.40625 62.80729ZM219.48438 62.80729Q219.48438 63.99479 220.0 64.58854Q220.53125 65.18229 221.3125 65.18229Q222.10938 65.18229 222.625 64.58854Q223.14062 63.99479 223.14062 62.77604Q223.14062 61.61979 222.60938 61.02604Q222.09375 60.43229 221.3125 60.43229Q220.53125 60.43229 220.0 61.02604Q219.48438 61.604164 219.48438 62.80729Z" fill-rule="nonzero"/><path stroke="#ea4335" stroke-width="4.0" stroke-linecap="butt" d="M244.0 61.916668L256.0 61.916668" fill-rule="nonzero"/><path fill="#1a1a1a" d="M264.79688 65.916664L264.79688 57.322914L265.85938 57.322914L265.85938 62.229164L268.34375 59.697914L269.71875 59.697914L267.32812 61.99479L269.95312 65.916664L268.65625 65.916664L266.59375 62.729164L265.85938 63.447914L265.85938 65.916664L264.79688 65.916664ZM270.5 63.65104L271.5625 63.510414Q271.73438 64.40104 272.17188 64.80729Q272.60938 65.197914 273.23438 65.197914Q273.98438 65.197914 274.5 64.68229Q275.01562 64.166664 275.01562 63.40104Q275.01562 62.68229 274.53125 62.21354Q274.0625 61.729164 273.32812 61.729164Q273.03125 61.729164 272.57812 61.854164L272.70312 60.916664Q272.8125 60.93229 272.875 60.93229Q273.54688 60.93229 274.07812 60.58854Q274.625 60.229164 274.625 59.49479Q274.625 58.916664 274.23438 58.541664Q273.84375 58.15104 273.21875 58.15104Q272.60938 58.15104 272.1875 58.541664Q271.78125 58.93229 271.67188 59.697914L270.60938 59.510414Q270.79688 58.46354 271.48438 57.885414Q272.17188 57.291664 273.1875 57.291664Q273.89062 57.291664 274.48438 57.604164Q275.07812 57.90104 275.39062 58.416664Q275.70312 58.93229 275.70312 59.52604Q275.70312 60.072914 275.40625 60.541664Q275.10938 60.99479 274.53125 61.260414Q275.28125 61.43229 275.70312 61.99479Q276.125 62.541664 276.125 63.385414Q276.125 64.510414 275.29688 65.291664Q274.48438 66.072914 273.23438 66.072914Q272.10938 66.072914 271.35938 65.40104Q270.60938 64.71354 270.5 63.65104ZM277.375 64.05729L278.40625 63.90104Q278.5 64.52604 278.89062 64.854164Q279.29688 65.18229 280.03125 65.18229Q280.75 65.18229 281.09375 64.90104Q281.45312 64.604164 281.45312 64.197914Q281.45312 63.83854 281.14062 63.635414Q280.92188 63.49479 280.0625 63.27604Q278.90625 62.979164 278.45312 62.77604Q278.01562 62.55729 277.78125 62.18229Q277.54688 61.80729 277.54688 61.33854Q277.54688 60.93229 277.73438 60.572914Q277.92188 60.21354 278.25 59.979164Q278.5 59.80729 278.92188 59.68229Q279.34375 59.55729 279.84375 59.55729Q280.5625 59.55729 281.10938 59.77604Q281.67188 59.979164 281.9375 60.33854Q282.20312 60.697914 282.29688 61.291664L281.26562 61.43229Q281.20312 60.96354 280.85938 60.697914Q280.53125 60.416664 279.90625 60.416664Q279.1875 60.416664 278.875 60.666664Q278.5625 60.90104 278.5625 61.229164Q278.5625 61.43229 278.6875 61.58854Q278.82812 61.760414 279.09375 61.86979Q279.25 61.93229 280.03125 62.135414Q281.15625 62.447914 281.59375 62.635414Q282.03125 62.822914 282.28125 63.18229Q282.53125 63.541664 282.53125 64.08854Q282.53125 64.61979 282.21875 65.08854Q281.92188 65.541664 281.34375 65.80729Q280.76562 66.05729 280.03125 66.05729Q278.8125 66.05729 278.17188 65.55729Q277.54688 65.041664 277.375 64.05729ZM287.40625 62.80729Q287.40625 61.072914 288.35938 60.24479Q289.15625 59.55729 290.3125 59.55729Q291.59375 59.55729 292.40625 60.40104Q293.23438 61.229164 293.23438 62.71354Q293.23438 63.916664 292.875 64.604164Q292.51562 65.291664 291.8125 65.68229Q291.125 66.05729 290.3125 66.05729Q289.01562 66.05729 288.20312 65.229164Q287.40625 64.385414 287.40625 62.80729ZM288.48438 62.80729Q288.48438 63.99479 289.0 64.58854Q289.53125 65.18229 290.3125 65.18229Q291.10938 65.18229 291.625 64.58854Q292.14062 63.99479 292.14062 62.77604Q292.14062 61.61979 291.60938 61.02604Q291.09375 60.43229 290.3125 60.43229Q289.53125 60.43229 289.0 61.02604Q288.48438 61.604164 288.48438 62.80729ZM294.375 64.05729L295.40625 63.90104Q295.5 64.52604 295.89062 64.854164Q296.29688 65.18229 297.03125 65.18229Q297.75 65.18229 298.09375 64.90104Q298.45312 64.604164 298.45312 64.197914Q298.45312 63.83854 298.14062 63.635414Q297.92188 63.49479 297.0625 63.27604Q295.90625 62.979164 295.45312 62.77604Q295.01562 62.55729 294.78125 62.18229Q294.54688 61.80729 294.54688 61.33854Q294.54688 60.93229 294.73438 60.572914Q294.92188 60.21354 295.25 59.979164Q295.5 59.80729 295.92188 59.68229Q296.34375 59.55729 296.84375 59.55729Q297.5625 59.55729 298.10938 59.77604Q298.67188 59.979164 298.9375 60.33854Q299.20312 60.697914 299.29688 61.291664L298.26562 61.43229Q298.20312 60.96354 297.85938 60.697914Q297.53125 60.416664 296.90625 60.416664Q296.1875 60.416664 295.875 60.666664Q295.5625 60.90104 295.5625 61.229164Q295.5625 61.43229 295.6875 61.58854Q295.82812 61.760414 296.09375 61.86979Q296.25 61.93229 297.03125 62.135414Q298.15625 62.447914 298.59375 62.635414Q299.03125 62.822914 299.28125 63.18229Q299.53125 63.541664 299.53125 64.08854Q299.53125 64.61979 299.21875 65.08854Q298.92188 65.541664 298.34375 65.80729Q297.76562 66.05729 297.03125 66.05729Q295.8125 66.05729 295.17188 65.55729Q294.54688 65.041664 294.375 64.05729ZM301.375 64.05729L302.40625 63.90104Q302.5 64.52604 302.89062 64.854164Q303.29688 65.18229 304.03125 65.18229Q304.75 65.18229 305.09375 64.90104Q305.45312 64.604164 305.45312 64.197914Q305.45312 63.83854 305.14062 63.635414Q304.92188 63.49479 304.0625 63.27604Q302.90625 62.979164 302.45312 62.77604Q302.01562 62.55729 301.78125 62.18229Q301.54688 61.80729 301.54688 61.33854Q301.54688 60.93229 301.73438 60.572914Q301.92188 60.21354 302.25 59.979164Q302.5 59.80729 302.92188 59.68229Q303.34375 59.55729 303.84375 59.55729Q304.5625 59.55729 305.10938 59.77604Q305.67188 59.979164 305.9375 60.33854Q306.20312 60.697914 306.29688 61.291664L305.26562 61.43229Q305.20312 60.96354 304.85938 60.697914Q304.53125 60.416664 303.90625 60.416664Q303.1875 60.416664 302.875 60.666664Q302.5625 60.90104 302.5625 61.229164Q302.5625 61.43229 302.6875 61.58854Q302.82812 61.760414 303.09375 61.86979Q303.25 61.93229 304.03125 62.135414Q305.15625 62.447914 305.59375 62.635414Q306.03125 62.822914 306.28125 63.18229Q306.53125 63.541664 306.53125 64.08854Q306.53125 64.61979 306.21875 65.08854Q305.92188 65.541664 305.34375 65.80729Q304.76562 66.05729 304.03125 66.05729Q302.8125 66.05729 302.17188 65.55729Q301.54688 65.041664 301.375 64.05729Z" fill-rule="nonzero"/><path stroke="#fbbc04" stroke-width="4.0" stroke-linecap="butt" d="M327.0 61.916668L339.0 61.916668" fill-rule="nonzero"/><path fill="#1a1a1a" d="M347.79688 65.916664L347.79688 57.322914L348.85938 57.322914L348.85938 62.229164L351.34375 59.697914L352.71875 59.697914L350.32812 61.99479L352.95312 65.916664L351.65625 65.916664L349.59375 62.729164L348.85938 63.447914L348.85938 65.916664L347.79688 65.916664ZM355.125 61.260414Q354.46875 61.010414 354.14062 60.572914Q353.82812 60.11979 353.82812 59.510414Q353.82812 58.572914 354.5 57.93229Q355.1875 57.291664 356.29688 57.291664Q357.42188 57.291664 358.10938 57.947914Q358.79688 58.604164 358.79688 59.541664Q358.79688 60.135414 358.48438 60.572914Q358.17188 61.010414 357.53125 61.260414Q358.32812 61.510414 358.73438 62.08854Q359.14062 62.666664 359.14062 63.46354Q359.14062 64.55729 358.35938 65.30729Q357.59375 66.05729 356.3125 66.05729Q355.04688 66.05729 354.26562 65.30729Q353.48438 64.55729 353.48438 63.43229Q353.48438 62.58854 353.90625 62.02604Q354.34375 61.46354 355.125 61.260414ZM354.90625 59.46354Q354.90625 60.072914 355.29688 60.46354Q355.70312 60.854164 356.32812 60.854164Q356.9375 60.854164 357.32812 60.479164Q357.71875 60.08854 357.71875 59.52604Q357.71875 58.947914 357.3125 58.55729Q356.90625 58.15104 356.3125 58.15104Q355.70312 58.15104 355.29688 58.541664Q354.90625 58.93229 354.90625 59.46354ZM354.57812 63.43229Q354.57812 63.885414 354.78125 64.30729Q355.0 64.729164 355.42188 64.96354Q355.84375 65.197914 356.32812 65.197914Q357.07812 65.197914 357.5625 64.71354Q358.0625 64.229164 358.0625 63.479164Q358.0625 62.71354 357.5625 62.21354Q357.0625 61.71354 356.29688 61.71354Q355.54688 61.71354 355.0625 62.21354Q354.57812 62.697914 354.57812 63.43229ZM360.375 64.05729L361.40625 63.90104Q361.5 64.52604 361.89062 64.854164Q362.29688 65.18229 363.03125 65.18229Q363.75 65.18229 364.09375 64.90104Q364.45312 64.604164 364.45312 64.197914Q364.45312 63.83854 364.14062 63.635414Q363.92188 63.49479 363.0625 63.27604Q361.90625 62.979164 361.45312 62.77604Q361.01562 62.55729 360.78125 62.18229Q360.54688 61.80729 360.54688 61.33854Q360.54688 60.93229 360.73438 60.572914Q360.92188 60.21354 361.25 59.979164Q361.5 59.80729 361.92188 59.68229Q362.34375 59.55729 362.84375 59.55729Q363.5625 59.55729 364.10938 59.77604Q364.67188 59.979164 364.9375 60.33854Q365.20312 60.697914 365.29688 61.291664L364.26562 61.43229Q364.20312 60.96354 363.85938 60.697914Q363.53125 60.416664 362.90625 60.416664Q362.1875 60.416664 361.875 60.666664Q361.5625 60.90104 361.5625 61.229164Q361.5625 61.43229 361.6875 61.58854Q361.82812 61.760414 362.09375 61.86979Q362.25 61.93229 363.03125 62.135414Q364.15625 62.447914 364.59375 62.635414Q365.03125 62.822914 365.28125 63.18229Q365.53125 63.541664 365.53125 64.08854Q365.53125 64.61979 365.21875 65.08854Q364.92188 65.541664 364.34375 65.80729Q363.76562 66.05729 363.03125 66.05729Q361.8125 66.05729 361.17188 65.55729Q360.54688 65.041664 360.375 64.05729ZM374.46875 65.916664L373.42188 65.916664L373.42188 59.197914Q373.03125 59.55729 372.40625 59.93229Q371.79688 60.291664 371.3125 60.46354L371.3125 59.447914Q372.1875 59.02604 372.84375 58.447914Q373.51562 57.854164 373.79688 57.291664L374.46875 57.291664L374.46875 65.916664Z" fill-rule="nonzero"/><path stroke="#34a853" stroke-width="4.0" stroke-linecap="butt" d="M396.0 61.916668L408.0 61.916668" fill-rule="nonzero"/><path fill="#1a1a1a" d="M416.79688 65.916664L416.79688 57.322914L417.85938 57.322914L417.85938 62.229164L420.34375 59.697914L421.71875 59.697914L419.32812 61.99479L421.95312 65.916664L420.65625 65.916664L418.59375 62.729164L417.85938 63.447914L417.85938 65.916664L416.79688 65.916664ZM422.5 61.68229Q422.5 60.15104 422.8125 59.229164Q423.125 58.291664 423.73438 57.791664Q424.35938 57.291664 425.29688 57.291664Q425.98438 57.291664 426.5 57.572914Q427.03125 57.854164 427.375 58.385414Q427.71875 58.90104 427.90625 59.65104Q428.09375 60.40104 428.09375 61.68229Q428.09375 63.197914 427.78125 64.11979Q427.48438 65.041664 426.85938 65.55729Q426.25 66.05729 425.29688 66.05729Q424.0625 66.05729 423.34375 65.166664Q422.5 64.104164 422.5 61.68229ZM423.57812 61.68229Q423.57812 63.791664 424.07812 64.49479Q424.57812 65.197914 425.29688 65.197914Q426.03125 65.197914 426.51562 64.49479Q427.01562 63.791664 427.01562 61.68229Q427.01562 59.55729 426.51562 58.86979Q426.03125 58.166664 425.28125 58.166664Q424.5625 58.166664 424.125 58.77604Q423.57812 59.55729 423.57812 61.68229ZM429.375 64.05729L430.40625 63.90104Q430.5 64.52604 430.89062 64.854164Q431.29688 65.18229 432.03125 65.18229Q432.75 65.18229 433.09375 64.90104Q433.45312 64.604164 433.45312 64.197914Q433.45312 63.83854 433.14062 63.635414Q432.92188 63.49479 432.0625 63.27604Q430.90625 62.979164 430.45312 62.77604Q430.01562 62.55729 429.78125 62.18229Q429.54688 61.80729 429.54688 61.33854Q429.54688 60.93229 429.73438 60.572914Q429.92188 60.21354 430.25 59.979164Q430.5 59.80729 430.92188 59.68229Q431.34375 59.55729 431.84375 59.55729Q432.5625 59.55729 433.10938 59.77604Q433.67188 59.979164 433.9375 60.33854Q434.20312 60.697914 434.29688 61.291664L433.26562 61.43229Q433.20312 60.96354 432.85938 60.697914Q432.53125 60.416664 431.90625 60.416664Q431.1875 60.416664 430.875 60.666664Q430.5625 60.90104 430.5625 61.229164Q430.5625 61.43229 430.6875 61.58854Q430.82812 61.760414 431.09375 61.86979Q431.25 61.93229 432.03125 62.135414Q433.15625 62.447914 433.59375 62.635414Q434.03125 62.822914 434.28125 63.18229Q434.53125 63.541664 434.53125 64.08854Q434.53125 64.61979 434.21875 65.08854Q433.92188 65.541664 433.34375 65.80729Q432.76562 66.05729 432.03125 66.05729Q430.8125 66.05729 430.17188 65.55729Q429.54688 65.041664 429.375 64.05729Z" fill-rule="nonzero"/><path fill="#757575" d="M20.8625 37.55L20.8625 27.175L22.440624 27.175L22.440624 28.628124Q22.925 27.878124 23.7375 27.409374Q24.55 26.940624 25.58125 26.940624Q26.7375 26.940624 27.471874 27.425Q28.20625 27.89375 28.51875 28.753124Q29.753124 26.940624 31.721874 26.940624Q33.26875 26.940624 34.096874 27.8Q34.925 28.659374 34.925 30.425L34.925 37.55L33.175 37.55L33.175 31.01875Q33.175 29.95625 33.003124 29.503124Q32.83125 29.034374 32.378124 28.753124Q31.940624 28.471874 31.33125 28.471874Q30.2375 28.471874 29.503124 29.20625Q28.784374 29.925 28.784374 31.51875L28.784374 37.55L27.034374 37.55L27.034374 30.815624Q27.034374 29.64375 26.596874 29.065624Q26.175 28.471874 25.190624 28.471874Q24.45625 28.471874 23.815624 28.8625Q23.190624 29.253124 22.909374 30.003124Q22.628124 30.753124 22.628124 32.175L22.628124 37.55L20.8625 37.55ZM43.971874 34.20625L45.784374 34.440624Q45.3625 36.01875 44.190624 36.909374Q43.034374 37.784374 41.221874 37.784374Q38.95625 37.784374 37.6125 36.39375Q36.284374 34.9875 36.284374 32.45625Q36.284374 29.83125 37.628124 28.39375Q38.971874 26.940624 41.128124 26.940624Q43.20625 26.940624 44.51875 28.3625Q45.846874 29.76875 45.846874 32.346874Q45.846874 32.503124 45.83125 32.815624L38.096874 32.815624Q38.190624 34.51875 39.065624 35.425Q39.940624 36.33125 41.2375 36.33125Q42.20625 36.33125 42.878124 35.83125Q43.565624 35.315624 43.971874 34.20625ZM38.190624 31.3625L43.9875 31.3625Q43.878124 30.065624 43.33125 29.409374Q42.4875 28.39375 41.14375 28.39375Q39.940624 28.39375 39.1125 29.20625Q38.284374 30.003124 38.190624 31.3625ZM47.8625 37.55L47.8625 27.175L49.440624 27.175L49.440624 28.628124Q49.925 27.878124 50.7375 27.409374Q51.55 26.940624 52.58125 26.940624Q53.7375 26.940624 54.471874 27.425Q55.20625 27.89375 55.51875 28.753124Q56.753124 26.940624 58.721874 26.940624Q60.26875 26.940624 61.096874 27.8Q61.925 28.659374 61.925 30.425L61.925 37.55L60.175 37.55L60.175 31.01875Q60.175 29.95625 60.003124 29.503124Q59.83125 29.034374 59.378124 28.753124Q58.940624 28.471874 58.33125 28.471874Q57.2375 28.471874 56.503124 29.20625Q55.784374 29.925 55.784374 31.51875L55.784374 37.55L54.034374 37.55L54.034374 30.815624Q54.034374 29.64375 53.596874 29.065624Q53.175 28.471874 52.190624 28.471874Q51.45625 28.471874 50.815624 28.8625Q50.190624 29.253124 49.909374 30.003124Q49.628124 30.753124 49.628124 32.175L49.628124 37.55L47.8625 37.55ZM63.221874 32.3625Q63.221874 29.4875 64.81563 28.096874Q66.15938 26.940624 68.08125 26.940624Q70.22188 26.940624 71.56563 28.346874Q72.925 29.753124 72.925 32.221874Q72.925 34.221874 72.33125 35.378124Q71.7375 36.51875 70.58125 37.159374Q69.44063 37.784374 68.08125 37.784374Q65.89375 37.784374 64.55 36.39375Q63.221874 34.9875 63.221874 32.3625ZM65.01875 32.3625Q65.01875 34.3625 65.87813 35.346874Q66.75313 36.33125 68.08125 36.33125Q69.39375 36.33125 70.25313 35.346874Q71.12813 34.346874 71.12813 32.3Q71.12813 30.378124 70.25313 29.39375Q69.37813 28.39375 68.08125 28.39375Q66.75313 28.39375 65.87813 29.39375Q65.01875 30.378124 65.01875 32.3625ZM74.84688 37.55L74.84688 27.175L76.425 27.175L76.425 28.753124Q77.03438 27.64375 77.55 27.3Q78.06563 26.940624 78.675 26.940624Q79.56563 26.940624 80.4875 27.503124L79.87813 29.14375Q79.2375 28.753124 78.59688 28.753124Q78.01875 28.753124 77.55 29.1125Q77.09688 29.45625 76.89375 30.065624Q76.6125 31.003124 76.6125 32.1125L76.6125 37.55L74.84688 37.55ZM81.78438 41.55L81.59688 39.89375Q82.175 40.05 82.59688 40.05Q83.19063 40.05 83.53438 39.846874Q83.89375 39.659374 84.1125 39.315624Q84.28438 39.05 84.65938 38.003124Q84.70625 37.846874 84.81563 37.565624L80.87813 27.175L82.76875 27.175L84.925 33.190624Q85.34688 34.33125 85.675 35.58125Q85.9875 34.378124 86.39375 33.221874L88.6125 27.175L90.37813 27.175L86.425 37.721874Q85.8 39.440624 85.44063 40.08125Q84.97188 40.95625 84.3625 41.346874Q83.76875 41.753124 82.925 41.753124Q82.40938 41.753124 81.78438 41.55ZM104.65938 37.55L104.65938 36.01875Q103.45625 37.784374 101.37813 37.784374Q100.45625 37.784374 99.65938 37.440624Q98.8625 37.08125 98.47188 36.55Q98.09688 36.01875 97.94063 35.2375Q97.83125 34.721874 97.83125 33.596874L97.83125 27.175L99.58125 27.175L99.58125 32.925Q99.58125 34.3 99.69063 34.784374Q99.8625 35.471874 100.39375 35.878124Q100.94063 36.26875 101.72188 36.26875Q102.51875 36.26875 103.20625 35.8625Q103.90938 35.45625 104.19063 34.76875Q104.4875 34.065624 104.4875 32.7375L104.4875 27.175L106.2375 27.175L106.2375 37.55L104.65938 37.55ZM107.15938 34.45625L108.90938 34.175Q109.05 35.221874 109.72188 35.784374Q110.39375 36.33125 111.59688 36.33125Q112.8 36.33125 113.37813 35.846874Q113.97188 35.346874 113.97188 34.690624Q113.97188 34.096874 113.45625 33.753124Q113.09688 33.51875 111.65938 33.159374Q109.72188 32.659374 108.97188 32.315624Q108.2375 31.95625 107.84688 31.33125Q107.45625 30.690624 107.45625 29.925Q107.45625 29.2375 107.76875 28.64375Q108.09688 28.05 108.64375 27.659374Q109.05 27.3625 109.75313 27.159374Q110.47188 26.940624 111.28438 26.940624Q112.50313 26.940624 113.425 27.3Q114.34688 27.64375 114.78438 28.253124Q115.22188 28.846874 115.39375 29.846874L113.675 30.08125Q113.55 29.284374 112.9875 28.846874Q112.425 28.39375 111.40938 28.39375Q110.19063 28.39375 109.675 28.8Q109.15938 29.190624 109.15938 29.721874Q109.15938 30.065624 109.37813 30.346874Q109.58125 30.628124 110.05 30.815624Q110.31563 30.909374 111.59688 31.253124Q113.47188 31.753124 114.20625 32.08125Q114.94063 32.39375 115.3625 33.003124Q115.78438 33.596874 115.78438 34.503124Q115.78438 35.378124 115.26875 36.159374Q114.75313 36.940624 113.78438 37.3625Q112.81563 37.784374 111.59688 37.784374Q109.58125 37.784374 108.51875 36.940624Q107.45625 36.096874 107.15938 34.45625ZM124.64375 36.26875Q123.65938 37.096874 122.75313 37.440624Q121.84688 37.784374 120.81563 37.784374Q119.1125 37.784374 118.19063 36.95625Q117.26875 36.1125 117.26875 34.815624Q117.26875 34.05 117.6125 33.425Q117.97188 32.8 118.53438 32.425Q119.09688 32.034374 119.8 31.83125Q120.31563 31.70625 121.3625 31.565624Q123.4875 31.315624 124.4875 30.971874Q124.50313 30.6125 124.50313 30.503124Q124.50313 29.440624 124.00313 28.9875Q123.33125 28.39375 122.00313 28.39375Q120.75313 28.39375 120.15938 28.83125Q119.58125 29.26875 119.3 30.378124L117.58125 30.14375Q117.81563 29.034374 118.34688 28.3625Q118.87813 27.675 119.89375 27.315624Q120.90938 26.940624 122.25313 26.940624Q123.58125 26.940624 124.40938 27.253124Q125.2375 27.565624 125.62813 28.05Q126.01875 28.51875 126.175 29.2375Q126.26875 29.690624 126.26875 30.8625L126.26875 33.20625Q126.26875 35.659374 126.37813 36.315624Q126.4875 36.95625 126.83125 37.55L124.9875 37.55Q124.72188 37.003124 124.64375 36.26875ZM124.4875 32.346874Q123.53438 32.7375 121.6125 33.003124Q120.53438 33.159374 120.08125 33.3625Q119.64375 33.55 119.39375 33.925Q119.14375 34.3 119.14375 34.76875Q119.14375 35.471874 119.675 35.940624Q120.20625 36.409374 121.2375 36.409374Q122.25313 36.409374 123.03438 35.971874Q123.83125 35.51875 124.20625 34.753124Q124.4875 34.14375 124.4875 32.9875L124.4875 32.346874ZM128.55 38.409374L130.25313 38.659374Q130.3625 39.45625 130.84688 39.815624Q131.50313 40.3 132.64375 40.3Q133.8625 40.3 134.51875 39.815624Q135.19063 39.33125 135.425 38.45625Q135.56563 37.909374 135.55 36.190624Q134.39375 37.55 132.675 37.55Q130.53438 37.55 129.3625 36.003124Q128.19063 34.45625 128.19063 32.3Q128.19063 30.815624 128.72188 29.565624Q129.26875 28.315624 130.28438 27.628124Q131.31563 26.940624 132.69063 26.940624Q134.51875 26.940624 135.72188 28.425L135.72188 27.175L137.33125 27.175L137.33125 36.14375Q137.33125 38.565624 136.83125 39.565624Q136.34688 40.58125 135.26875 41.159374Q134.20625 41.753124 132.64375 41.753124Q130.8 41.753124 129.64375 40.925Q128.50313 40.096874 128.55 38.409374ZM130.00313 32.175Q130.00313 34.221874 130.81563 35.159374Q131.62813 36.096874 132.84688 36.096874Q134.05 36.096874 134.8625 35.159374Q135.69063 34.221874 135.69063 32.2375Q135.69063 30.33125 134.84688 29.3625Q134.00313 28.39375 132.81563 28.39375Q131.64375 28.39375 130.81563 29.346874Q130.00313 30.3 130.00313 32.175ZM146.97188 34.20625L148.78438 34.440624Q148.3625 36.01875 147.19063 36.909374Q146.03438 37.784374 144.22188 37.784374Q141.95625 37.784374 140.6125 36.39375Q139.28438 34.9875 139.28438 32.45625Q139.28438 29.83125 140.62813 28.39375Q141.97188 26.940624 144.12813 26.940624Q146.20625 26.940624 147.51875 28.3625Q148.84688 29.76875 148.84688 32.346874Q148.84688 32.503124 148.83125 32.815624L141.09688 32.815624Q141.19063 34.51875 142.06563 35.425Q142.94063 36.33125 144.2375 36.33125Q145.20625 36.33125 145.87813 35.83125Q146.56563 35.315624 146.97188 34.20625ZM141.19063 31.3625L146.9875 31.3625Q146.87813 30.065624 146.33125 29.409374Q145.4875 28.39375 144.14375 28.39375Q142.94063 28.39375 142.1125 29.20625Q141.28438 30.003124 141.19063 31.3625ZM156.22188 32.3625Q156.22188 29.4875 157.81563 28.096874Q159.15938 26.940624 161.08125 26.940624Q163.22188 26.940624 164.56563 28.346874Q165.925 29.753124 165.925 32.221874Q165.925 34.221874 165.33125 35.378124Q164.7375 36.51875 163.58125 37.159374Q162.44063 37.784374 161.08125 37.784374Q158.89375 37.784374 157.55 36.39375Q156.22188 34.9875 156.22188 32.3625ZM158.01875 32.3625Q158.01875 34.3625 158.87813 35.346874Q159.75313 36.33125 161.08125 36.33125Q162.39375 36.33125 163.25313 35.346874Q164.12813 34.346874 164.12813 32.3Q164.12813 30.378124 163.25313 29.39375Q162.37813 28.39375 161.08125 28.39375Q159.75313 28.39375 158.87813 29.39375Q158.01875 30.378124 158.01875 32.3625ZM170.75313 37.55L166.8 27.175L168.65938 27.175L170.89375 33.39375Q171.25313 34.39375 171.55 35.471874Q171.78438 34.659374 172.20625 33.503124L174.50313 27.175L176.31563 27.175L172.39375 37.55L170.75313 37.55ZM183.97188 34.20625L185.78438 34.440624Q185.3625 36.01875 184.19063 36.909374Q183.03438 37.784374 181.22188 37.784374Q178.95625 37.784374 177.6125 36.39375Q176.28438 34.9875 176.28438 32.45625Q176.28438 29.83125 177.62813 28.39375Q178.97188 26.940624 181.12813 26.940624Q183.20625 26.940624 184.51875 28.3625Q185.84688 29.76875 185.84688 32.346874Q185.84688 32.503124 185.83125 32.815624L178.09688 32.815624Q178.19063 34.51875 179.06563 35.425Q179.94063 36.33125 181.2375 36.33125Q182.20625 36.33125 182.87813 35.83125Q183.56563 35.315624 183.97188 34.20625ZM178.19063 31.3625L183.9875 31.3625Q183.87813 30.065624 183.33125 29.409374Q182.4875 28.39375 181.14375 28.39375Q179.94063 28.39375 179.1125 29.20625Q178.28438 30.003124 178.19063 31.3625ZM187.84688 37.55L187.84688 27.175L189.425 27.175L189.425 28.753124Q190.03438 27.64375 190.55 27.3Q191.06563 26.940624 191.675 26.940624Q192.56563 26.940624 193.4875 27.503124L192.87813 29.14375Q192.2375 28.753124 191.59688 28.753124Q191.01875 28.753124 190.55 29.1125Q190.09688 29.45625 189.89375 30.065624Q189.6125 31.003124 189.6125 32.1125L189.6125 37.55L187.84688 37.55ZM204.70625 35.971874L204.95625 37.534374Q204.22188 37.690624 203.62813 37.690624Q202.675 37.690624 202.14375 37.39375Q201.62813 37.08125 201.40938 36.596874Q201.19063 36.096874 201.19063 34.51875L201.19063 28.55L199.90938 28.55L199.90938 27.175L201.19063 27.175L201.19063 24.6125L202.94063 23.55L202.94063 27.175L204.70625 27.175L204.70625 28.55L202.94063 28.55L202.94063 34.6125Q202.94063 35.3625 203.03438 35.58125Q203.12813 35.784374 203.33125 35.925Q203.55 36.05 203.94063 36.05Q204.22188 36.05 204.70625 35.971874ZM206.87813 25.253124L206.87813 23.2375L208.64375 23.2375L208.64375 25.253124L206.87813 25.253124ZM206.87813 37.55L206.87813 27.175L208.64375 27.175L208.64375 37.55L206.87813 37.55ZM210.8625 37.55L210.8625 27.175L212.44063 27.175L212.44063 28.628124Q212.925 27.878124 213.7375 27.409374Q214.55 26.940624 215.58125 26.940624Q216.7375 26.940624 217.47188 27.425Q218.20625 27.89375 218.51875 28.753124Q219.75313 26.940624 221.72188 26.940624Q223.26875 26.940624 224.09688 27.8Q224.925 28.659374 224.925 30.425L224.925 37.55L223.175 37.55L223.175 31.01875Q223.175 29.95625 223.00313 29.503124Q222.83125 29.034374 222.37813 28.753124Q221.94063 28.471874 221.33125 28.471874Q220.2375 28.471874 219.50313 29.20625Q218.78438 29.925 218.78438 31.51875L218.78438 37.55L217.03438 37.55L217.03438 30.815624Q217.03438 29.64375 216.59688 29.065624Q216.175 28.471874 215.19063 28.471874Q214.45625 28.471874 213.81563 28.8625Q213.19063 29.253124 212.90938 30.003124Q212.62813 30.753124 212.62813 32.175L212.62813 37.55L210.8625 37.55ZM233.97188 34.20625L235.78438 34.440624Q235.3625 36.01875 234.19063 36.909374Q233.03438 37.784374 231.22188 37.784374Q228.95625 37.784374 227.6125 36.39375Q226.28438 34.9875 226.28438 32.45625Q226.28438 29.83125 227.62813 28.39375Q228.97188 26.940624 231.12813 26.940624Q233.20625 26.940624 234.51875 28.3625Q235.84688 29.76875 235.84688 32.346874Q235.84688 32.503124 235.83125 32.815624L228.09688 32.815624Q228.19063 34.51875 229.06563 35.425Q229.94063 36.33125 231.2375 36.33125Q232.20625 36.33125 232.87813 35.83125Q233.56563 35.315624 233.97188 34.20625ZM228.19063 31.3625L233.9875 31.3625Q233.87813 30.065624 233.33125 29.409374Q232.4875 28.39375 231.14375 28.39375Q229.94063 28.39375 229.1125 29.20625Q228.28438 30.003124 228.19063 31.3625ZM247.22188 41.753124Q245.76875 39.925 244.76875 37.471874Q243.76875 35.003124 243.76875 32.3625Q243.76875 30.034374 244.51875 27.909374Q245.39375 25.440624 247.22188 22.9875L248.4875 22.9875Q247.3 25.01875 246.925 25.89375Q246.33125 27.2375 245.9875 28.70625Q245.56563 30.534374 245.56563 32.378124Q245.56563 37.065624 248.4875 41.753124L247.22188 41.753124ZM250.87813 25.253124L250.87813 23.2375L252.64375 23.2375L252.64375 25.253124L250.87813 25.253124ZM250.87813 37.55L250.87813 27.175L252.64375 27.175L252.64375 37.55L250.87813 37.55ZM254.8625 37.55L254.8625 27.175L256.45624 27.175L256.45624 28.659374Q257.59686 26.940624 259.7531 26.940624Q260.6906 26.940624 261.47186 27.284374Q262.26874 27.6125 262.65936 28.159374Q263.05 28.70625 263.20624 29.45625Q263.3 29.95625 263.3 31.175L263.3 37.55L261.53436 37.55L261.53436 31.2375Q261.53436 30.159374 261.33124 29.628124Q261.1281 29.096874 260.59686 28.784374Q260.08124 28.471874 259.3781 28.471874Q258.2531 28.471874 257.4406 29.190624Q256.6281 29.89375 256.6281 31.878124L256.6281 37.55L254.8625 37.55ZM268.70624 35.971874L268.95624 37.534374Q268.22186 37.690624 267.6281 37.690624Q266.675 37.690624 266.14374 37.39375Q265.6281 37.08125 265.40936 36.596874Q265.1906 36.096874 265.1906 34.51875L265.1906 28.55L263.90936 28.55L263.90936 27.175L265.1906 27.175L265.1906 24.6125L266.9406 23.55L266.9406 27.175L268.70624 27.175L268.70624 28.55L266.9406 28.55L266.9406 34.6125Q266.9406 35.3625 267.03436 35.58125Q267.1281 35.784374 267.33124 35.925Q267.55 36.05 267.9406 36.05Q268.22186 36.05 268.70624 35.971874ZM277.97186 34.20625L279.78436 34.440624Q279.3625 36.01875 278.1906 36.909374Q277.03436 37.784374 275.22186 37.784374Q272.95624 37.784374 271.6125 36.39375Q270.28436 34.9875 270.28436 32.45625Q270.28436 29.83125 271.6281 28.39375Q272.97186 26.940624 275.1281 26.940624Q277.20624 26.940624 278.51874 28.3625Q279.84686 29.76875 279.84686 32.346874Q279.84686 32.503124 279.83124 32.815624L272.09686 32.815624Q272.1906 34.51875 273.0656 35.425Q273.9406 36.33125 275.2375 36.33125Q276.20624 36.33125 276.8781 35.83125Q277.5656 35.315624 277.97186 34.20625ZM272.1906 31.3625L277.9875 31.3625Q277.8781 30.065624 277.33124 29.409374Q276.4875 28.39375 275.14374 28.39375Q273.9406 28.39375 273.1125 29.20625Q272.28436 30.003124 272.1906 31.3625ZM281.8625 37.55L281.8625 27.175L283.45624 27.175L283.45624 28.659374Q284.59686 26.940624 286.7531 26.940624Q287.6906 26.940624 288.47186 27.284374Q289.26874 27.6125 289.65936 28.159374Q290.05 28.70625 290.20624 29.45625Q290.3 29.95625 290.3 31.175L290.3 37.55L288.53436 37.55L288.53436 31.2375Q288.53436 30.159374 288.33124 29.628124Q288.1281 29.096874 287.59686 28.784374Q287.08124 28.471874 286.3781 28.471874Q285.2531 28.471874 284.4406 29.190624Q283.6281 29.89375 283.6281 31.878124L283.6281 37.55L281.8625 37.55ZM291.15936 34.45625L292.90936 34.175Q293.05 35.221874 293.72186 35.784374Q294.39374 36.33125 295.59686 36.33125Q296.8 36.33125 297.3781 35.846874Q297.97186 35.346874 297.97186 34.690624Q297.97186 34.096874 297.45624 33.753124Q297.09686 33.51875 295.65936 33.159374Q293.72186 32.659374 292.97186 32.315624Q292.2375 31.95625 291.84686 31.33125Q291.45624 30.690624 291.45624 29.925Q291.45624 29.2375 291.76874 28.64375Q292.09686 28.05 292.64374 27.659374Q293.05 27.3625 293.7531 27.159374Q294.47186 26.940624 295.28436 26.940624Q296.5031 26.940624 297.425 27.3Q298.34686 27.64375 298.78436 28.253124Q299.22186 28.846874 299.39374 29.846874L297.675 30.08125Q297.55 29.284374 296.9875 28.846874Q296.425 28.39375 295.40936 28.39375Q294.1906 28.39375 293.675 28.8Q293.15936 29.190624 293.15936 29.721874Q293.15936 30.065624 293.3781 30.346874Q293.58124 30.628124 294.05 30.815624Q294.3156 30.909374 295.59686 31.253124Q297.47186 31.753124 298.20624 32.08125Q298.9406 32.39375 299.3625 33.003124Q299.78436 33.596874 299.78436 34.503124Q299.78436 35.378124 299.26874 36.159374Q298.7531 36.940624 297.78436 37.3625Q296.8156 37.784374 295.59686 37.784374Q293.58124 37.784374 292.51874 36.940624Q291.45624 36.096874 291.15936 34.45625ZM301.8781 25.253124L301.8781 23.2375L303.64374 23.2375L303.64374 25.253124L301.8781 25.253124ZM301.8781 37.55L301.8781 27.175L303.64374 27.175L303.64374 37.55L301.8781 37.55ZM308.7531 37.55L304.8 27.175L306.65936 27.175L308.89374 33.39375Q309.2531 34.39375 309.55 35.471874Q309.78436 34.659374 310.20624 33.503124L312.5031 27.175L314.3156 27.175L310.39374 37.55L308.7531 37.55ZM321.97186 34.20625L323.78436 34.440624Q323.3625 36.01875 322.1906 36.909374Q321.03436 37.784374 319.22186 37.784374Q316.95624 37.784374 315.6125 36.39375Q314.28436 34.9875 314.28436 32.45625Q314.28436 29.83125 315.6281 28.39375Q316.97186 26.940624 319.1281 26.940624Q321.20624 26.940624 322.51874 28.3625Q323.84686 29.76875 323.84686 32.346874Q323.84686 32.503124 323.83124 32.815624L316.09686 32.815624Q316.1906 34.51875 317.0656 35.425Q317.9406 36.33125 319.2375 36.33125Q320.20624 36.33125 320.8781 35.83125Q321.5656 35.315624 321.97186 34.20625ZM316.1906 31.3625L321.9875 31.3625Q321.8781 30.065624 321.33124 29.409374Q320.4875 28.39375 319.14374 28.39375Q317.9406 28.39375 317.1125 29.20625Q316.28436 30.003124 316.1906 31.3625ZM327.01874 41.753124L325.76874 41.753124Q328.675 37.065624 328.675 32.378124Q328.675 30.534374 328.26874 28.7375Q327.925 27.26875 327.33124 25.925Q326.95624 25.034374 325.76874 22.9875L327.01874 22.9875Q328.8625 25.440624 329.7375 27.909374Q330.4875 30.034374 330.4875 32.3625Q330.4875 35.003124 329.47186 37.471874Q328.47186 39.925 327.01874 41.753124Z" fill-rule="nonzero"/></svg>