<svg version="1.1" viewBox="0.0 0.0 600.0 371.0" fill="none" stroke="none" stroke-linecap="square" stroke-miterlimit="10" width="600" height="371" xmlns:xlink="http://www.w3.org/1999/xlink" xmlns="http://www.w3.org/2000/svg"><path fill="#ffffff" d="M0 0L600.0 0L600.0 371.0L0 371.0L0 0Z" fill-rule="nonzero"/><path stroke="#333333" stroke-width="1.0" stroke-linecap="butt" d="M77.5 88.5L77.5 300.5" fill-rule="nonzero"/><path stroke="#cccccc" stroke-width="1.0" stroke-linecap="butt" d="M217.5 88.5L217.5 300.5" fill-rule="nonzero"/><path stroke="#cccccc" stroke-width="1.0" stroke-linecap="butt" d="M357.5 88.5L357.5 300.5" fill-rule="nonzero"/><path stroke="#cccccc" stroke-width="1.0" stroke-linecap="butt" d="M497.5 88.5L497.5 300.5" fill-rule="nonzero"/><path stroke="#333333" stroke-width="1.0" stroke-linecap="butt" d="M77.5 300.5L581.5 300.5" fill-rule="nonzero"/><path stroke="#cccccc" stroke-width="1.0" stroke-linecap="butt" d="M77.5 247.5L581.5 247.5" fill-rule="nonzero"/><path stroke="#cccccc" stroke-width="1.0" stroke-linecap="butt" d="M77.5 194.5L581.5 194.5" fill-rule="nonzero"/><path stroke="#cccccc" stroke-width="1.0" stroke-linecap="butt" d="M77.5 141.5L581.5 141.5" fill-rule="nonzero"/><path stroke="#cccccc" stroke-width="1.0" stroke-linecap="butt" d="M77.5 88.5L581.5 88.5" fill-rule="nonzero"/><clipPath id="id_0"><path d="M77.55 88.28333L581.45 88.28333L581.45 300.45L77.55 300.45L77.55 88.28333Z" clip-rule="nonzero"/></clipPath><path stroke="#4285f4" stroke-width="2.0" stroke-linecap="butt" clip-path="url(#id_0)" d="M77.55 191.4096L119.541664 187.38467L161.53334 173.26505L203.525 164.27226L245.51666 161.93977L287.50833 159.61989L329.5 156.92197L371.49167 156.43445L413.48334 155.81395L455.475 155.09787L497.46667 154.61859L539.4583 152.9974L581.45 150.68361" fill-rule="nonzero"/><path stroke="#ea4335" stroke-width="2.0" stroke-linecap="butt" clip-path="url(#id_0)" d="M77.55 169.47865L119.541664 156.04729L161.53334 148.97205L203.525 141.81902L245.51666 138.39459L287.50833 131.23244L329.5 129.0164L371.49167 127.85885L413.48334 121.18162L455.475 115.28044L497.46667 114.46572L539.4583 113.91866L581.45 113.06353" fill-rule="nonzero"/><path fill="#000000" fill-opacity="0.0" clip-path="url(#id_0)" d="M80.55 191.4096C80.55 193.06647 79.206856 194.4096 77.55 194.4096C75.89314 194.4096 74.55 193.06647 74.55 191.4096C74.55 189.75276 75.89314 188.4096 77.55 188.4096C79.206856 188.4096 80.55 189.75276 80.55 191.4096Z" fill-rule="nonzero"/><path fill="#000000" fill-opacity="0.0" clip-path="url(#id_0)" d="M122.541664 187.38467C122.541664 189.04153 121.198524 190.38467 119.541664 190.38467C117.88481 190.38467 116.541664 189.04153 116.541664 187.38467C116.541664 185.72783 117.88481 184.38467 119.541664 184.38467C121.198524 184.38467 122.541664 185.72783 122.541664 187.38467Z" fill-rule="nonzero"/><path fill="#000000" fill-opacity="0.0" clip-path="url(#id_0)" d="M164.53334 173.26505C164.53334 174.92189 163.19019 176.26505 161.53334 176.26505C159.87648 176.26505 158.53334 174.92189 158.53334 173.26505C158.53334 171.60818 159.87648 170.26505 161.53334 170.26505C163.19019 170.26505 164.53334 171.60818 164.53334 173.26505Z" fill-rule="nonzero"/><path fill="#000000" fill-opacity="0.0" clip-path="url(#id_0)" d="M206.525 164.27226C206.525 165.92912 205.18185 167.27226 203.525 167.27226C201.86815 167.27226 200.525 165.92912 200.525 164.27226C200.525 162.61542 201.86815 161.27226 203.525 161.27226C205.18185 161.27226 206.525 162.61542 206.525 164.27226Z" fill-rule="nonzero"/><path fill="#000000" fill-opacity="0.0" clip-path="url(#id_0)" d="M248.51666 161.93977C248.51666 163.59663 247.17352 164.93977 245.51666 164.93977C243.85982 164.93977 242.51666 163.59663 242.51666 161.93977C242.51666 160.28293 243.85982 158.93977 245.51666 158.93977C247.17352 158.93977 248.51666 160.28293 248.51666 161.93977Z" fill-rule="nonzero"/><path fill="#000000" fill-opacity="0.0" clip-path="url(#id_0)" d="M290.50833 159.61989C290.50833 161.27675 289.1652 162.61989 287.50833 162.61989C285.85147 162.61989 284.50833 161.27675 284.50833 159.61989C284.50833 157.96304 285.85147 156.61989 287.50833 156.61989C289.1652 156.61989 290.50833 157.96304 290.50833 159.61989Z" fill-rule="nonzero"/><path fill="#000000" fill-opacity="0.0" clip-path="url(#id_0)" d="M332.5 156.92197C332.5 158.57883 331.15686 159.92197 329.5 159.92197C327.84314 159.92197 326.5 158.57883 326.5 156.92197C326.5 155.26512 327.84314 153.92197 329.5 153.92197C331.15686 153.92197 332.5 155.26512 332.5 156.92197Z" fill-rule="nonzero"/><path fill="#000000" fill-opacity="0.0" clip-path="url(#id_0)" d="M374.49167 156.43445C374.49167 158.0913 373.14853 159.43445 371.49167 159.43445C369.8348 159.43445 368.49167 158.0913 368.49167 156.43445C368.49167 154.77759 369.8348 153.43445 371.49167 153.43445C373.14853 153.43445 374.49167 154.77759 374.49167 156.43445Z" fill-rule="nonzero"/><path fill="#000000" fill-opacity="0.0" clip-path="url(#id_0)" d="M416.48334 155.81395C416.48334 157.47081 415.1402 158.81395 413.48334 158.81395C411.82648 158.81395 410.48334 157.47081 410.48334 155.81395C410.48334 154.1571 411.82648 152.81395 413.48334 152.81395C415.1402 152.81395 416.48334 154.1571 416.48334 155.81395Z" fill-rule="nonzero"/><path fill="#000000" fill-opacity="0.0" clip-path="url(#id_0)" d="M458.475 155.09787C458.475 156.75473 457.13187 158.09787 455.475 158.09787C453.81815 158.09787 452.475 156.75473 452.475 155.09787C452.475 153.44101 453.81815 152.09787 455.475 152.09787C457.13187 152.09787 458.475 153.44101 458.475 155.09787Z" fill-rule="nonzero"/><path fill="#000000" fill-opacity="0.0" clip-path="url(#id_0)" d="M500.46667 154.61859C500.46667 156.27545 499.12354 157.61859 497.46667 157.61859C495.8098 157.61859 494.46667 156.27545 494.46667 154.61859C494.46667 152.96175 495.8098 151.61859 497.46667 151.61859C499.12354 151.61859 500.46667 152.96175 500.46667 154.61859Z" fill-rule="nonzero"/><path fill="#000000" fill-opacity="0.0" clip-path="url(#id_0)" d="M542.4583 152.9974C542.4583 154.65427 541.1152 155.9974 539.4583 155.9974C537.80145 155.9974 536.4583 154.65427 536.4583 152.9974C536.4583 151.34056 537.80145 149.9974 539.4583 149.9974C541.1152 149.9974 542.4583 151.34056 542.4583 152.9974Z" fill-rule="nonzero"/><path fill="#000000" fill-opacity="0.0" clip-path="url(#id_0)" d="M584.45 150.68361C584.45 152.34045 583.1069 153.68361 581.45 153.68361C579.79315 153.68361 578.45 152.34045 578.45 150.68361C578.45 149.02675 579.79315 147.68361 581.45 147.68361C583.1069 147.68361 584.45 149.02675 584.45 150.68361Z" fill-rule="nonzero"/><path fill="#000000" fill-opacity="0.0" clip-path="url(#id_0)" d="M80.55 169.47865C80.55 171.13551 79.206856 172.47865 77.55 172.47865C75.89314 172.47865 74.55 171.13551 74.55 169.47865C74.55 167.8218 75.89314 166.47865 77.55 166.47865C79.206856 166.47865 80.55 167.8218 80.55 169.47865Z" fill-rule="nonzero"/><path fill="#000000" fill-opacity="0.0" clip-path="url(#id_0)" d="M122.541664 156.04729C122.541664 157.70415 121.198524 159.04729 119.541664 159.04729C117.88481 159.04729 116.541664 157.70415 116.541664 156.04729C116.541664 154.39044 117.88481 153.04729 119.541664 153.04729C121.198524 153.04729 122.541664 154.39044 122.541664 156.04729Z" fill-rule="nonzero"/><path fill="#000000" fill-opacity="0.0" clip-path="url(#id_0)" d="M164.53334 148.97205C164.53334 150.62889 163.19019 151.97205 161.53334 151.97205C159.87648 151.97205 158.53334 150.62889 158.53334 148.97205C158.53334 147.31519 159.87648 145.97205 161.53334 145.97205C163.19019 145.97205 164.53334 147.31519 164.53334 148.97205Z" fill-rule="nonzero"/><path fill="#000000" fill-opacity="0.0" clip-path="url(#id_0)" d="M206.525 141.81902C206.525 143.47588 205.18185 144.81902 203.525 144.81902C201.86815 144.81902 200.525 143.47588 200.525 141.81902C200.525 140.16217 201.86815 138.81902 203.525 138.81902C205.18185 138.81902 206.525 140.16217 206.525 141.81902Z" fill-rule="nonzero"/><path fill="#000000" fill-opacity="0.0" clip-path="url(#id_0)" d="M248.51666 138.39459C248.51666 140.05144 247.17352 141.39459 245.51666 141.39459C243.85982 141.39459 242.51666 140.05144 242.51666 138.39459C242.51666 136.73773 243.85982 135.39459 245.51666 135.39459C247.17352 135.39459 248.51666 136.73773 248.51666 138.39459Z" fill-rule="nonzero"/><path fill="#000000" fill-opacity="0.0" clip-path="url(#id_0)" d="M290.50833 131.23244C290.50833 132.8893 289.1652 134.23244 287.50833 134.23244C285.85147 134.23244 284.50833 132.8893 284.50833 131.23244C284.50833 129.57559 285.85147 128.23244 287.50833 128.23244C289.1652 128.23244 290.50833 129.57559 290.50833 131.23244Z" fill-rule="nonzero"/><path fill="#000000" fill-opacity="0.0" clip-path="url(#id_0)" d="M332.5 129.0164C332.5 130.67325 331.15686 132.0164 329.5 132.0164C327.84314 132.0164 326.5 130.67325 326.5 129.0164C326.5 127.35954 327.84314 126.0164 329.5 126.0164C331.15686 126.0164 332.5 127.35954 332.5 129.0164Z" fill-rule="nonzero"/><path fill="#000000" fill-opacity="0.0" clip-path="url(#id_0)" d="M374.49167 127.85885C374.49167 129.5157 373.14853 130.85884 371.49167 130.85884C369.8348 130.85884 368.49167 129.5157 368.49167 127.85885C368.49167 126.20199 369.8348 124.85885 371.49167 124.85885C373.14853 124.85885 374.49167 126.20199 374.49167 127.85885Z" fill-rule="nonzero"/><path fill="#000000" fill-opacity="0.0" clip-path="url(#id_0)" d="M416.48334 121.18162C416.48334 122.83847 415.1402 124.18162 413.48334 124.18162C411.82648 124.18162 410.48334 122.83847 410.48334 121.18162C410.48334 119.524765 411.82648 118.18162 413.48334 118.18162C415.1402 118.18162 416.48334 119.524765 416.48334 121.18162Z" fill-rule="nonzero"/><path fill="#000000" fill-opacity="0.0" clip-path="url(#id_0)" d="M458.475 115.28044C458.475 116.937294 457.13187 118.28044 455.475 118.28044C453.81815 118.28044 452.475 116.937294 452.475 115.28044C452.475 113.62358 453.81815 112.28044 455.475 112.28044C457.13187 112.28044 458.475 113.62358 458.475 115.28044Z" fill-rule="nonzero"/><path fill="#000000" fill-opacity="0.0" clip-path="url(#id_0)" d="M500.46667 114.46572C500.46667 116.122574 499.12354 117.46572 497.46667 117.46572C495.8098 117.46572 494.46667 116.122574 494.46667 114.46572C494.46667 112.80886 495.8098 111.46572 497.46667 111.46572C499.12354 111.46572 500.46667 112.80886 500.46667 114.46572Z" fill-rule="nonzero"/><path fill="#000000" fill-opacity="0.0" clip-path="url(#id_0)" d="M542.4583 113.91866C542.4583 115.575516 541.1152 116.91866 539.4583 116.91866C537.80145 116.91866 536.4583 115.575516 536.4583 113.91866C536.4583 112.26181 537.80145 110.91866 539.4583 110.91866C541.1152 110.91866 542.4583 112.26181 542.4583 113.91866Z" fill-rule="nonzero"/><path fill="#000000" fill-opacity="0.0" clip-path="url(#id_0)" d="M584.45 113.06353C584.45 114.72038 583.1069 116.06353 581.45 116.06353C579.79315 116.06353 578.45 114.72038 578.45 113.06353C578.45 111.40668 579.79315 110.06353 581.45 110.06353C583.1069 110.06353 584.45 111.40668 584.45 113.06353Z" fill-rule="nonzero"/><path fill="#000000" d="M281.09375 348.5125L281.25 349.4344Q280.79688 349.52814 280.45312 349.52814Q279.875 349.52814 279.5625 349.35626Q279.25 349.16876 279.10938 348.8719Q278.98438 348.575 278.98438 347.6219L278.98438 344.04376L278.21875 344.04376L278.21875 343.23126L278.98438 343.23126L278.98438 341.6844L280.03125 341.0594L280.03125 343.23126L281.09375 343.23126L281.09375 344.04376L280.03125 344.04376L280.03125 347.6844Q280.03125 348.1375 280.07812 348.2625Q280.14062 348.3875 280.26562 348.46564Q280.39062 348.54376 280.625 348.54376Q280.8125 348.54376 281.09375 348.5125ZM281.79688 342.075L281.79688 340.85626L282.85938 340.85626L282.85938 342.075L281.79688 342.075ZM281.79688 349.45L281.79688 343.23126L282.85938 343.23126L282.85938 349.45L281.79688 349.45ZM284.79688 349.45L284.79688 343.23126L285.73438 343.23126L285.73438 344.10626Q286.03125 343.6375 286.51562 343.3719Q287.0 343.09064 287.625 343.09064Q288.3125 343.09064 288.75 343.3719Q289.20312 343.65314 289.375 344.16876Q290.125 343.09064 291.29688 343.09064Q292.23438 343.09064 292.71875 343.60626Q293.21875 344.10626 293.21875 345.1844L293.21875 349.45L292.17188 349.45L292.17188 345.52814Q292.17188 344.90314 292.0625 344.6219Q291.96875 344.34064 291.70312 344.16876Q291.4375 343.9969 291.0625 343.9969Q290.40625 343.9969 289.96875 344.4344Q289.54688 344.8719 289.54688 345.84064L289.54688 349.45L288.48438 349.45L288.48438 345.40314Q288.48438 344.7 288.21875 344.35626Q287.96875 343.9969 287.39062 343.9969Q286.9375 343.9969 286.5625 344.23126Q286.1875 344.46564 286.01562 344.91876Q285.84375 345.3719 285.84375 346.21564L285.84375 349.45L284.79688 349.45ZM300.04688 347.45L301.14062 347.575Q300.89062 348.52814 300.1875 349.0594Q299.48438 349.59064 298.40625 349.59064Q297.04688 349.59064 296.23438 348.7469Q295.4375 347.90314 295.4375 346.3875Q295.4375 344.825 296.25 343.96564Q297.0625 343.09064 298.34375 343.09064Q299.59375 343.09064 300.375 343.9344Q301.17188 344.77814 301.17188 346.325Q301.17188 346.41876 301.17188 346.60626L296.53125 346.60626Q296.59375 347.6375 297.10938 348.1844Q297.625 348.71564 298.40625 348.71564Q298.98438 348.71564 299.39062 348.41876Q299.8125 348.10626 300.04688 347.45ZM296.59375 345.7469L300.0625 345.7469Q300.0 344.95 299.67188 344.5594Q299.15625 343.95 298.35938 343.95Q297.625 343.95 297.125 344.4344Q296.64062 344.91876 296.59375 345.7469ZM310.04688 347.45L311.14062 347.575Q310.89062 348.52814 310.1875 349.0594Q309.48438 349.59064 308.40625 349.59064Q307.04688 349.59064 306.23438 348.7469Q305.4375 347.90314 305.4375 346.3875Q305.4375 344.825 306.25 343.96564Q307.0625 343.09064 308.34375 343.09064Q309.59375 343.09064 310.375 343.9344Q311.17188 344.77814 311.17188 346.325Q311.17188 346.41876 311.17188 346.60626L306.53125 346.60626Q306.59375 347.6375 307.10938 348.1844Q307.625 348.71564 308.40625 348.71564Q308.98438 348.71564 309.39062 348.41876Q309.8125 348.10626 310.04688 347.45ZM306.59375 345.7469L310.0625 345.7469Q310.0 344.95 309.67188 344.5594Q309.15625 343.95 308.35938 343.95Q307.625 343.95 307.125 344.4344Q306.64062 344.91876 306.59375 345.7469ZM312.76562 349.45L312.76562 340.85626L313.82812 340.85626L313.82812 349.45L312.76562 349.45ZM319.85938 348.6844Q319.26562 349.1844 318.71875 349.3875Q318.1875 349.59064 317.5625 349.59064Q316.53125 349.59064 315.98438 349.09064Q315.4375 348.59064 315.4375 347.8094Q315.4375 347.35626 315.64062 346.98126Q315.84375 346.59064 316.1875 346.3719Q316.53125 346.1375 316.95312 346.02814Q317.25 345.9344 317.89062 345.85626Q319.15625 345.71564 319.76562 345.4969Q319.76562 345.27814 319.76562 345.23126Q319.76562 344.575 319.46875 344.3094Q319.0625 343.96564 318.26562 343.96564Q317.53125 343.96564 317.17188 344.23126Q316.8125 344.48126 316.64062 345.1375L315.60938 344.9969Q315.75 344.34064 316.07812 343.9344Q316.40625 343.52814 317.01562 343.3094Q317.625 343.09064 318.42188 343.09064Q319.21875 343.09064 319.71875 343.27814Q320.21875 343.46564 320.45312 343.7469Q320.6875 344.02814 320.78125 344.46564Q320.82812 344.73126 320.82812 345.4344L320.82812 346.84064Q320.82812 348.3094 320.89062 348.7Q320.96875 349.09064 321.17188 349.45L320.0625 349.45Q319.90625 349.1219 319.85938 348.6844ZM319.76562 346.325Q319.1875 346.5594 318.04688 346.73126Q317.39062 346.825 317.125 346.95Q316.85938 347.0594 316.70312 347.27814Q316.5625 347.4969 316.5625 347.77814Q316.5625 348.2 316.875 348.48126Q317.20312 348.7625 317.8125 348.7625Q318.42188 348.7625 318.89062 348.4969Q319.375 348.23126 319.59375 347.7625Q319.76562 347.40314 319.76562 346.71564L319.76562 346.325ZM322.79688 351.84064L322.79688 343.23126L323.75 343.23126L323.75 344.02814Q324.09375 343.5594 324.51562 343.325Q324.95312 343.09064 325.5625 343.09064Q326.35938 343.09064 326.96875 343.4969Q327.57812 343.90314 327.875 344.65314Q328.1875 345.40314 328.1875 346.29376Q328.1875 347.2469 327.84375 348.0125Q327.51562 348.77814 326.85938 349.1844Q326.20312 349.59064 325.48438 349.59064Q324.95312 349.59064 324.53125 349.3719Q324.10938 349.1375 323.84375 348.8094L323.84375 351.84064L322.79688 351.84064ZM323.75 346.3719Q323.75 347.575 324.23438 348.15314Q324.71875 348.71564 325.40625 348.71564Q326.10938 348.71564 326.60938 348.1219Q327.10938 347.52814 327.10938 346.27814Q327.10938 345.09064 326.625 344.5125Q326.14062 343.91876 325.45312 343.91876Q324.78125 343.91876 324.26562 344.54376Q323.75 345.16876 323.75 346.3719ZM329.375 347.59064L330.40625 347.4344Q330.5 348.0594 330.89062 348.3875Q331.29688 348.71564 332.03125 348.71564Q332.75 348.71564 333.09375 348.4344Q333.45312 348.1375 333.45312 347.73126Q333.45312 347.3719 333.14062 347.16876Q332.92188 347.02814 332.0625 346.8094Q330.90625 346.5125 330.45312 346.3094Q330.01562 346.09064 329.78125 345.71564Q329.54688 345.34064 329.54688 344.8719Q329.54688 344.46564 329.73438 344.10626Q329.92188 343.7469 330.25 343.5125Q330.5 343.34064 330.92188 343.21564Q331.34375 343.09064 331.84375 343.09064Q332.5625 343.09064 333.10938 343.3094Q333.67188 343.5125 333.9375 343.8719Q334.20312 344.23126 334.29688 344.825L333.26562 344.96564Q333.20312 344.4969 332.85938 344.23126Q332.53125 343.95 331.90625 343.95Q331.1875 343.95 330.875 344.2Q330.5625 344.4344 330.5625 344.7625Q330.5625 344.96564 330.6875 345.1219Q330.82812 345.29376 331.09375 345.40314Q331.25 345.46564 332.03125 345.66876Q333.15625 345.98126 333.59375 346.16876Q334.03125 346.35626 334.28125 346.71564Q334.53125 347.075 334.53125 347.6219Q334.53125 348.15314 334.21875 348.6219Q333.92188 349.075 333.34375 349.34064Q332.76562 349.59064 332.03125 349.59064Q330.8125 349.59064 330.17188 349.09064Q329.54688 348.575 329.375 347.59064ZM341.04688 347.45L342.14062 347.575Q341.89062 348.52814 341.1875 349.0594Q340.48438 349.59064 339.40625 349.59064Q338.04688 349.59064 337.23438 348.7469Q336.4375 347.90314 336.4375 346.3875Q336.4375 344.825 337.25 343.96564Q338.0625 343.09064 339.34375 343.09064Q340.59375 343.09064 341.375 343.9344Q342.17188 344.77814 342.17188 346.325Q342.17188 346.41876 342.17188 346.60626L337.53125 346.60626Q337.59375 347.6375 338.10938 348.1844Q338.625 348.71564 339.40625 348.71564Q339.98438 348.71564 340.39062 348.41876Q340.8125 348.10626 341.04688 347.45ZM337.59375 345.7469L341.0625 345.7469Q341.0 344.95 340.67188 344.5594Q340.15625 343.95 339.35938 343.95Q338.625 343.95 338.125 344.4344Q337.64062 344.91876 337.59375 345.7469ZM347.82812 349.45L347.82812 348.66876Q347.23438 349.59064 346.09375 349.59064Q345.34375 349.59064 344.71875 349.1844Q344.09375 348.7625 343.75 348.02814Q343.40625 347.29376 343.40625 346.34064Q343.40625 345.41876 343.71875 344.65314Q344.03125 343.8875 344.65625 343.4969Q345.28125 343.09064 346.04688 343.09064Q346.60938 343.09064 347.04688 343.325Q347.48438 343.5594 347.76562 343.9344L347.76562 340.85626L348.8125 340.85626L348.8125 349.45L347.82812 349.45ZM344.5 346.34064Q344.5 347.54376 345.0 348.1375Q345.5 348.71564 346.1875 348.71564Q346.875 348.71564 347.35938 348.15314Q347.84375 347.59064 347.84375 346.4344Q347.84375 345.15314 347.34375 344.5594Q346.85938 343.96564 346.14062 343.96564Q345.4375 343.96564 344.96875 344.54376Q344.5 345.10626 344.5 346.34064ZM355.8125 351.98126Q354.9375 350.8719 354.32812 349.40314Q353.73438 347.91876 353.73438 346.34064Q353.73438 344.95 354.17188 343.66876Q354.70312 342.1844 355.8125 340.71564L356.5625 340.71564Q355.85938 341.9344 355.625 342.45Q355.26562 343.2625 355.0625 344.1375Q354.8125 345.23126 354.8125 346.34064Q354.8125 349.16876 356.5625 351.98126L355.8125 351.98126ZM357.79688 342.075L357.79688 340.85626L358.85938 340.85626L358.85938 342.075L357.79688 342.075ZM357.79688 349.45L357.79688 343.23126L358.85938 343.23126L358.85938 349.45L357.79688 349.45ZM360.79688 349.45L360.79688 343.23126L361.73438 343.23126L361.73438 344.10626Q362.42188 343.09064 363.71875 343.09064Q364.28125 343.09064 364.75 343.29376Q365.23438 343.4969 365.46875 343.825Q365.70312 344.15314 365.79688 344.59064Q365.84375 344.8875 365.84375 345.6219L365.84375 349.45L364.79688 349.45L364.79688 345.66876Q364.79688 345.0125 364.67188 344.7Q364.54688 344.3875 364.23438 344.2Q363.92188 343.9969 363.5 343.9969Q362.82812 343.9969 362.32812 344.4344Q361.84375 344.85626 361.84375 346.04376L361.84375 349.45L360.79688 349.45ZM370.375 347.59064L371.40625 347.4344Q371.5 348.0594 371.89062 348.3875Q372.29688 348.71564 373.03125 348.71564Q373.75 348.71564 374.09375 348.4344Q374.45312 348.1375 374.45312 347.73126Q374.45312 347.3719 374.14062 347.16876Q373.92188 347.02814 373.0625 346.8094Q371.90625 346.5125 371.45312 346.3094Q371.01562 346.09064 370.78125 345.71564Q370.54688 345.34064 370.54688 344.8719Q370.54688 344.46564 370.73438 344.10626Q370.92188 343.7469 371.25 343.5125Q371.5 343.34064 371.92188 343.21564Q372.34375 343.09064 372.84375 343.09064Q373.5625 343.09064 374.10938 343.3094Q374.67188 343.5125 374.9375 343.8719Q375.20312 344.23126 375.29688 344.825L374.26562 344.96564Q374.20312 344.4969 373.85938 344.23126Q373.53125 343.95 372.90625 343.95Q372.1875 343.95 371.875 344.2Q371.5625 344.4344 371.5625 344.7625Q371.5625 344.96564 371.6875 345.1219Q371.82812 345.29376 372.09375 345.40314Q372.25 345.46564 373.03125 345.66876Q374.15625 345.98126 374.59375 346.16876Q375.03125 346.35626 375.28125 346.71564Q375.53125 347.075 375.53125 347.6219Q375.53125 348.15314 375.21875 348.6219Q374.92188 349.075 374.34375 349.34064Q373.76562 349.59064 373.03125 349.59064Q371.8125 349.59064 371.17188 349.09064Q370.54688 348.575 370.375 347.59064ZM378.48438 351.98126L377.73438 351.98126Q379.48438 349.16876 379.48438 346.34064Q379.48438 345.2469 379.23438 344.15314Q379.03125 343.27814 378.67188 342.46564Q378.4375 341.95 377.73438 340.71564L378.48438 340.71564Q379.57812 342.1844 380.10938 343.66876Q380.5625 344.95 380.5625 346.34064Q380.5625 347.91876 379.95312 349.40314Q379.34375 350.8719 378.48438 351.98126Z" fill-rule="nonzero"/><path fill="#000000" d="M26.175013 204.41354L25.175013 204.41354L25.159388 200.78854L28.346888 200.78854Q29.018763 201.61667 29.362513 202.5073Q29.690638 203.39792 29.690638 204.33542Q29.690638 205.60104 29.159388 206.64792Q28.612513 207.67917 27.596888 208.21042Q26.565638 208.72604 25.300013 208.72604Q24.034388 208.72604 22.956263 208.21042Q21.862513 207.67917 21.346888 206.6948Q20.815638 205.71042 20.815638 204.42917Q20.815638 203.49167 21.112513 202.74167Q21.409388 201.99167 21.956263 201.5698Q22.487513 201.1323 23.362513 200.91354L23.643763 201.92917Q22.987513 202.1323 22.612513 202.42917Q22.237513 202.71042 22.018763 203.24167Q21.784388 203.77292 21.784388 204.41354Q21.784388 205.1948 22.018763 205.77292Q22.253138 206.33542 22.643763 206.6948Q23.034388 207.03854 23.503138 207.22604Q24.300013 207.55417 25.221888 207.55417Q26.378138 207.55417 27.159388 207.16354Q27.925013 206.7573 28.300013 206.0073Q28.675013 205.2573 28.675013 204.39792Q28.675013 203.66354 28.393763 202.96042Q28.096888 202.2573 27.784388 201.89792L26.175013 201.89792L26.175013 204.41354ZM29.550013 199.49167L20.956263 199.49167L20.956263 196.2573Q20.956263 195.27292 21.221888 194.67917Q21.487513 194.08542 22.034388 193.7573Q22.565638 193.41354 23.159388 193.41354Q23.706263 193.41354 24.190638 193.71042Q24.675013 194.0073 24.971888 194.61667Q25.206263 193.83542 25.768763 193.42917Q26.315638 193.0073 27.065638 193.0073Q27.659388 193.0073 28.190638 193.2573Q28.706263 193.5073 28.987513 193.8823Q29.268763 194.2573 29.409388 194.83542Q29.550013 195.39792 29.550013 196.21042L29.550013 199.49167ZM24.565638 198.35104L24.565638 196.49167Q24.565638 195.74167 24.471888 195.41354Q24.346888 194.97604 24.050013 194.7573Q23.737513 194.53854 23.284388 194.53854Q22.862513 194.53854 22.534388 194.74167Q22.206263 194.9448 22.096888 195.33542Q21.971888 195.71042 21.971888 196.6323L21.971888 198.35104L24.565638 198.35104ZM28.534388 198.35104L28.534388 196.21042Q28.534388 195.66354 28.487513 195.4448Q28.425013 195.03854 28.268763 194.78854Q28.096888 194.52292 27.784388 194.35104Q27.471888 194.17917 27.065638 194.17917Q26.581263 194.17917 26.221888 194.42917Q25.862513 194.66354 25.721888 195.10104Q25.581263 195.53854 25.581263 196.36667L25.581263 198.35104L28.534388 198.35104Z" fill-rule="nonzero"/><path fill="#000000" d="M55.05 300.21564Q55.05 298.6844 55.3625 297.7625Q55.675 296.825 56.284374 296.325Q56.909374 295.825 57.846874 295.825Q58.534374 295.825 59.05 296.10626Q59.58125 296.3875 59.925 296.91876Q60.26875 297.4344 60.45625 298.1844Q60.64375 298.9344 60.64375 300.21564Q60.64375 301.73126 60.33125 302.65314Q60.034374 303.575 59.409374 304.09064Q58.8 304.59064 57.846874 304.59064Q56.6125 304.59064 55.89375 303.7Q55.05 302.6375 55.05 300.21564ZM56.128124 300.21564Q56.128124 302.325 56.628124 303.02814Q57.128124 303.73126 57.846874 303.73126Q58.58125 303.73126 59.065624 303.02814Q59.565624 302.325 59.565624 300.21564Q59.565624 298.09064 59.065624 297.40314Q58.58125 296.7 57.83125 296.7Q57.1125 296.7 56.675 297.3094Q56.128124 298.09064 56.128124 300.21564ZM62.64375 304.45L62.64375 303.2469L63.846874 303.2469L63.846874 304.45L62.64375 304.45ZM65.05 300.21564Q65.05 298.6844 65.3625 297.7625Q65.675 296.825 66.28438 296.325Q66.90938 295.825 67.84688 295.825Q68.53438 295.825 69.05 296.10626Q69.58125 296.3875 69.925 296.91876Q70.26875 297.4344 70.45625 298.1844Q70.64375 298.9344 70.64375 300.21564Q70.64375 301.73126 70.33125 302.65314Q70.03438 303.575 69.40938 304.09064Q68.8 304.59064 67.84688 304.59064Q66.6125 304.59064 65.89375 303.7Q65.05 302.6375 65.05 300.21564ZM66.12813 300.21564Q66.12813 302.325 66.62813 303.02814Q67.12813 303.73126 67.84688 303.73126Q68.58125 303.73126 69.06563 303.02814Q69.56563 302.325 69.56563 300.21564Q69.56563 298.09064 69.06563 297.40314Q68.58125 296.7 67.83125 296.7Q67.1125 296.7 66.675 297.3094Q66.12813 298.09064 66.12813 300.21564Z" fill-rule="nonzero"/><path fill="#000000" d="M55.05 247.17397Q55.05 245.64272 55.3625 244.72084Q55.675 243.78334 56.284374 243.28334Q56.909374 242.78334 57.846874 242.78334Q58.534374 242.78334 59.05 243.06459Q59.58125 243.34584 59.925 243.87709Q60.26875 244.39272 60.45625 245.14272Q60.64375 245.89272 60.64375 247.17397Q60.64375 248.68959 60.33125 249.61147Q60.034374 250.53334 59.409374 251.04897Q58.8 251.54897 57.846874 251.54897Q56.6125 251.54897 55.89375 250.65834Q55.05 249.59584 55.05 247.17397ZM56.128124 247.17397Q56.128124 249.28334 56.628124 249.98647Q57.128124 250.68959 57.846874 250.68959Q58.58125 250.68959 59.065624 249.98647Q59.565624 249.28334 59.565624 247.17397Q59.565624 245.04897 59.065624 244.36147Q58.58125 243.65834 57.83125 243.65834Q57.1125 243.65834 56.675 244.26772Q56.128124 245.04897 56.128124 247.17397ZM62.64375 251.40834L62.64375 250.20522L63.846874 250.20522L63.846874 251.40834L62.64375 251.40834ZM65.05 249.15834L66.15938 249.06459Q66.28438 249.87709 66.72188 250.28334Q67.175 250.68959 67.81563 250.68959Q68.56563 250.68959 69.09688 250.11147Q69.62813 249.53334 69.62813 248.59584Q69.62813 247.68959 69.1125 247.17397Q68.6125 246.64272 67.78438 246.64272Q67.28438 246.64272 66.8625 246.87709Q66.45625 247.11147 66.22188 247.47084L65.2375 247.34584L66.06563 242.93959L70.34688 242.93959L70.34688 243.93959L66.90938 243.93959L66.45625 246.25209Q67.22188 245.70522 68.06563 245.70522Q69.19063 245.70522 69.95625 246.48647Q70.7375 247.26772 70.7375 248.50209Q70.7375 249.65834 70.06563 250.51772Q69.2375 251.54897 67.81563 251.54897Q66.64375 251.54897 65.89375 250.89272Q65.15938 250.23647 65.05 249.15834Z" fill-rule="nonzero"/><path fill="#000000" d="M59.01875 198.36667L57.971874 198.36667L57.971874 191.64792Q57.58125 192.0073 56.95625 192.3823Q56.346874 192.74167 55.8625 192.91354L55.8625 191.89792Q56.7375 191.47604 57.39375 190.89792Q58.065624 190.30417 58.346874 189.74167L59.01875 189.74167L59.01875 198.36667ZM62.64375 198.36667L62.64375 197.16354L63.846874 197.16354L63.846874 198.36667L62.64375 198.36667ZM65.05 194.1323Q65.05 192.60104 65.3625 191.67917Q65.675 190.74167 66.28438 190.24167Q66.90938 189.74167 67.84688 189.74167Q68.53438 189.74167 69.05 190.02292Q69.58125 190.30417 69.925 190.83542Q70.26875 191.35104 70.45625 192.10104Q70.64375 192.85104 70.64375 194.1323Q70.64375 195.64792 70.33125 196.5698Q70.03438 197.49167 69.40938 198.0073Q68.8 198.5073 67.84688 198.5073Q66.6125 198.5073 65.89375 197.61667Q65.05 196.55417 65.05 194.1323ZM66.12813 194.1323Q66.12813 196.24167 66.62813 196.9448Q67.12813 197.64792 67.84688 197.64792Q68.58125 197.64792 69.06563 196.9448Q69.56563 196.24167 69.56563 194.1323Q69.56563 192.0073 69.06563 191.3198Q68.58125 190.61667 67.83125 190.61667Q67.1125 190.61667 66.675 191.22604Q66.12813 192.0073 66.12813 194.1323Z" fill-rule="nonzero"/><path fill="#000000" d="M59.01875 145.325L57.971874 145.325L57.971874 138.60625Q57.58125 138.96562 56.95625 139.34062Q56.346874 139.7 55.8625 139.87187L55.8625 138.85625Q56.7375 138.43437 57.39375 137.85625Q58.065624 137.2625 58.346874 136.7L59.01875 136.7L59.01875 145.325ZM62.64375 145.325L62.64375 144.12187L63.846874 144.12187L63.846874 145.325L62.64375 145.325ZM65.05 143.075L66.15938 142.98125Q66.28438 143.79375 66.72188 144.2Q67.175 144.60625 67.81563 144.60625Q68.56563 144.60625 69.09688 144.02812Q69.62813 143.45 69.62813 142.5125Q69.62813 141.60625 69.1125 141.09062Q68.6125 140.55937 67.78438 140.55937Q67.28438 140.55937 66.8625 140.79375Q66.45625 141.02812 66.22188 141.3875L65.2375 141.2625L66.06563 136.85625L70.34688 136.85625L70.34688 137.85625L66.90938 137.85625L66.45625 140.16875Q67.22188 139.62187 68.06563 139.62187Q69.19063 139.62187 69.95625 140.40312Q70.7375 141.18437 70.7375 142.41875Q70.7375 143.575 70.06563 144.43437Q69.2375 145.46562 67.81563 145.46562Q66.64375 145.46562 65.89375 144.80937Q65.15938 144.15312 65.05 143.075Z" fill-rule="nonzero"/><path fill="#000000" d="M60.596874 91.26771L60.596874 92.28333L54.909374 92.28333Q54.909374 91.90833 55.034374 91.54896Q55.253124 90.97083 55.721874 90.40833Q56.20625 89.84583 57.1125 89.11146Q58.51875 87.95521 59.003124 87.28333Q59.503124 86.61146 59.503124 86.01771Q59.503124 85.39271 59.05 84.97083Q58.596874 84.53333 57.878124 84.53333Q57.1125 84.53333 56.659374 84.98646Q56.20625 85.43958 56.190624 86.25208L55.1125 86.14271Q55.221874 84.92396 55.940624 84.29896Q56.675 83.65833 57.909374 83.65833Q59.14375 83.65833 59.8625 84.34583Q60.58125 85.03333 60.58125 86.04896Q60.58125 86.56458 60.3625 87.06458Q60.159374 87.54896 59.659374 88.11146Q59.175 88.65833 58.05 89.61146Q57.096874 90.40833 56.815624 90.70521Q56.55 90.98646 56.378124 91.26771L60.596874 91.26771ZM62.64375 92.28333L62.64375 91.08021L63.846874 91.08021L63.846874 92.28333L62.64375 92.28333ZM65.05 88.04896Q65.05 86.51771 65.3625 85.59583Q65.675 84.65833 66.28438 84.15833Q66.90938 83.65833 67.84688 83.65833Q68.53438 83.65833 69.05 83.93958Q69.58125 84.22083 69.925 84.75208Q70.26875 85.26771 70.45625 86.01771Q70.64375 86.76771 70.64375 88.04896Q70.64375 89.56458 70.33125 90.48646Q70.03438 91.40833 69.40938 91.92396Q68.8 92.42396 67.84688 92.42396Q66.6125 92.42396 65.89375 91.53333Q65.05 90.47083 65.05 88.04896ZM66.12813 88.04896Q66.12813 90.15833 66.62813 90.86146Q67.12813 91.56458 67.84688 91.56458Q68.58125 91.56458 69.06563 90.86146Q69.56563 90.15833 69.56563 88.04896Q69.56563 85.92396 69.06563 85.23646Q68.58125 84.53333 67.83125 84.53333Q67.1125 84.53333 66.675 85.14271Q66.12813 85.92396 66.12813 88.04896Z" fill-rule="nonzero"/><path fill="#000000" d="M74.55 313.21564Q74.55 311.6844 74.8625 310.7625Q75.175 309.825 75.78438 309.325Q76.40938 308.825 77.34688 308.825Q78.03438 308.825 78.55 309.10626Q79.08125 309.3875 79.425 309.91876Q79.76875 310.4344 79.95625 311.1844Q80.14375 311.9344 80.14375 313.21564Q80.14375 314.73126 79.83125 315.65314Q79.53438 316.575 78.90938 317.09064Q78.3 317.59064 77.34688 317.59064Q76.1125 317.59064 75.39375 316.7Q74.55 315.6375 74.55 313.21564ZM75.62813 313.21564Q75.62813 315.325 76.12813 316.02814Q76.62813 316.73126 77.34688 316.73126Q78.08125 316.73126 78.56563 316.02814Q79.06563 315.325 79.06563 313.21564Q79.06563 311.09064 78.56563 310.40314Q78.08125 309.7 77.33125 309.7Q76.6125 309.7 76.175 310.3094Q75.62813 311.09064 75.62813 313.21564Z" fill-rule="nonzero"/><path fill="#000000" d="M211.49097 317.45L210.44409 317.45L210.44409 310.73126Q210.05347 311.09064 209.42847 311.46564Q208.81909 311.825 208.33472 311.9969L208.33472 310.98126Q209.20972 310.5594 209.86597 309.98126Q210.53784 309.3875 210.81909 308.825L211.49097 308.825L211.49097 317.45ZM214.52222 313.21564Q214.52222 311.6844 214.83472 310.7625Q215.14722 309.825 215.75659 309.325Q216.38159 308.825 217.31909 308.825Q218.00659 308.825 218.52222 309.10626Q219.05347 309.3875 219.39722 309.91876Q219.74097 310.4344 219.92847 311.1844Q220.11597 311.9344 220.11597 313.21564Q220.11597 314.73126 219.80347 315.65314Q219.50659 316.575 218.88159 317.09064Q218.27222 317.59064 217.31909 317.59064Q216.08472 317.59064 215.36597 316.7Q214.52222 315.6375 214.52222 313.21564ZM215.60034 313.21564Q215.60034 315.325 216.10034 316.02814Q216.60034 316.73126 217.31909 316.73126Q218.05347 316.73126 218.53784 316.02814Q219.03784 315.325 219.03784 313.21564Q219.03784 311.09064 218.53784 310.40314Q218.05347 309.7 217.30347 309.7Q216.58472 309.7 216.14722 310.3094Q215.60034 311.09064 215.60034 313.21564ZM221.52222 313.21564Q221.52222 311.6844 221.83472 310.7625Q222.14722 309.825 222.75659 309.325Q223.38159 308.825 224.31909 308.825Q225.00659 308.825 225.52222 309.10626Q226.05347 309.3875 226.39722 309.91876Q226.74097 310.4344 226.92847 311.1844Q227.11597 311.9344 227.11597 313.21564Q227.11597 314.73126 226.80347 315.65314Q226.50659 316.575 225.88159 317.09064Q225.27222 317.59064 224.31909 317.59064Q223.08472 317.59064 222.36597 316.7Q221.52222 315.6375 221.52222 313.21564ZM222.60034 313.21564Q222.60034 315.325 223.10034 316.02814Q223.60034 316.73126 224.31909 316.73126Q225.05347 316.73126 225.53784 316.02814Q226.03784 315.325 226.03784 313.21564Q226.03784 311.09064 225.53784 310.40314Q225.05347 309.7 224.30347 309.7Q223.58472 309.7 223.14722 310.3094Q222.60034 311.09064 222.60034 313.21564Z" fill-rule="nonzero"/><path fill="#000000" d="M353.04132 316.4344L353.04132 317.45L347.35382 317.45Q347.35382 317.075 347.47882 316.71564Q347.69757 316.1375 348.16632 315.575Q348.6507 315.0125 349.55695 314.27814Q350.9632 313.1219 351.44757 312.45Q351.94757 311.77814 351.94757 311.1844Q351.94757 310.5594 351.49445 310.1375Q351.04132 309.7 350.32257 309.7Q349.55695 309.7 349.10382 310.15314Q348.6507 310.60626 348.63507 311.41876L347.55695 311.3094Q347.66632 310.09064 348.38507 309.46564Q349.11945 308.825 350.35382 308.825Q351.5882 308.825 352.30695 309.5125Q353.0257 310.2 353.0257 311.21564Q353.0257 311.73126 352.80695 312.23126Q352.60382 312.71564 352.10382 313.27814Q351.61945 313.825 350.49445 314.77814Q349.54132 315.575 349.26007 315.8719Q348.99445 316.15314 348.82257 316.4344L353.04132 316.4344ZM354.49445 313.21564Q354.49445 311.6844 354.80695 310.7625Q355.11945 309.825 355.72882 309.325Q356.35382 308.825 357.29132 308.825Q357.97882 308.825 358.49445 309.10626Q359.0257 309.3875 359.36945 309.91876Q359.7132 310.4344 359.9007 311.1844Q360.0882 311.9344 360.0882 313.21564Q360.0882 314.73126 359.7757 315.65314Q359.47882 316.575 358.85382 317.09064Q358.24445 317.59064 357.29132 317.59064Q356.05695 317.59064 355.3382 316.7Q354.49445 315.6375 354.49445 313.21564ZM355.57257 313.21564Q355.57257 315.325 356.07257 316.02814Q356.57257 316.73126 357.29132 316.73126Q358.0257 316.73126 358.51007 316.02814Q359.01007 315.325 359.01007 313.21564Q359.01007 311.09064 358.51007 310.40314Q358.0257 309.7 357.2757 309.7Q356.55695 309.7 356.11945 310.3094Q355.57257 311.09064 355.57257 313.21564ZM361.49445 313.21564Q361.49445 311.6844 361.80695 310.7625Q362.11945 309.825 362.72882 309.325Q363.35382 308.825 364.29132 308.825Q364.97882 308.825 365.49445 309.10626Q366.0257 309.3875 366.36945 309.91876Q366.7132 310.4344 366.9007 311.1844Q367.0882 311.9344 367.0882 313.21564Q367.0882 314.73126 366.7757 315.65314Q366.47882 316.575 365.85382 317.09064Q365.24445 317.59064 364.29132 317.59064Q363.05695 317.59064 362.3382 316.7Q361.49445 315.6375 361.49445 313.21564ZM362.57257 313.21564Q362.57257 315.325 363.07257 316.02814Q363.57257 316.73126 364.29132 316.73126Q365.0257 316.73126 365.51007 316.02814Q366.01007 315.325 366.01007 313.21564Q366.01007 311.09064 365.51007 310.40314Q365.0257 309.7 364.2757 309.7Q363.55695 309.7 363.11945 310.3094Q362.57257 311.09064 362.57257 313.21564Z" fill-rule="nonzero"/><path fill="#000000" d="M487.46667 315.1844L488.52917 315.04376Q488.70105 315.9344 489.13855 316.34064Q489.57605 316.73126 490.20105 316.73126Q490.95105 316.73126 491.46667 316.21564Q491.9823 315.7 491.9823 314.9344Q491.9823 314.21564 491.49792 313.7469Q491.02917 313.2625 490.2948 313.2625Q489.99792 313.2625 489.5448 313.3875L489.6698 312.45Q489.77917 312.46564 489.84167 312.46564Q490.51355 312.46564 491.0448 312.1219Q491.59167 311.7625 491.59167 311.02814Q491.59167 310.45 491.20105 310.075Q490.81042 309.6844 490.18542 309.6844Q489.57605 309.6844 489.15417 310.075Q488.74792 310.46564 488.63855 311.23126L487.57605 311.04376Q487.76355 309.9969 488.45105 309.41876Q489.13855 308.825 490.15417 308.825Q490.8573 308.825 491.45105 309.1375Q492.0448 309.4344 492.3573 309.95Q492.6698 310.46564 492.6698 311.0594Q492.6698 311.60626 492.37292 312.075Q492.07605 312.52814 491.49792 312.79376Q492.24792 312.96564 492.6698 313.52814Q493.09167 314.075 493.09167 314.91876Q493.09167 316.04376 492.26355 316.825Q491.45105 317.60626 490.20105 317.60626Q489.07605 317.60626 488.32605 316.9344Q487.57605 316.2469 487.46667 315.1844ZM494.46667 313.21564Q494.46667 311.6844 494.77917 310.7625Q495.09167 309.825 495.70105 309.325Q496.32605 308.825 497.26355 308.825Q497.95105 308.825 498.46667 309.10626Q498.99792 309.3875 499.34167 309.91876Q499.68542 310.4344 499.87292 311.1844Q500.06042 311.9344 500.06042 313.21564Q500.06042 314.73126 499.74792 315.65314Q499.45105 316.575 498.82605 317.09064Q498.21667 317.59064 497.26355 317.59064Q496.02917 317.59064 495.31042 316.7Q494.46667 315.6375 494.46667 313.21564ZM495.5448 313.21564Q495.5448 315.325 496.0448 316.02814Q496.5448 316.73126 497.26355 316.73126Q497.99792 316.73126 498.4823 316.02814Q498.9823 315.325 498.9823 313.21564Q498.9823 311.09064 498.4823 310.40314Q497.99792 309.7 497.24792 309.7Q496.52917 309.7 496.09167 310.3094Q495.5448 311.09064 495.5448 313.21564ZM501.46667 313.21564Q501.46667 311.6844 501.77917 310.7625Q502.09167 309.825 502.70105 309.325Q503.32605 308.825 504.26355 308.825Q504.95105 308.825 505.46667 309.10626Q505.99792 309.3875 506.34167 309.91876Q506.68542 310.4344 506.87292 311.1844Q507.06042 311.9344 507.06042 313.21564Q507.06042 314.73126 506.74792 315.65314Q506.45105 316.575 505.82605 317.09064Q505.21667 317.59064 504.26355 317.59064Q503.02917 317.59064 502.31042 316.7Q501.46667 315.6375 501.46667 313.21564ZM502.5448 313.21564Q502.5448 315.325 503.0448 316.02814Q503.5448 316.73126 504.26355 316.73126Q504.99792 316.73126 505.4823 316.02814Q505.9823 315.325 505.9823 313.21564Q505.9823 311.09064 505.4823 310.40314Q504.99792 309.7 504.24792 309.7Q503.52917 309.7 503.09167 310.3094Q502.5448 311.09064 502.5448 313.21564Z" fill-rule="nonzero"/><path stroke="#4285f4" stroke-width="4.0" stroke-linecap="butt" d="M231.5 61.916668L243.5 61.916668" fill-rule="nonzero"/><path fill="#1a1a1a" d="M252.29688 65.916664L252.29688 57.322914L253.35938 57.322914L253.35938 62.229164L255.84375 59.697914L257.21875 59.697914L254.82812 61.99479L257.45312 65.916664L256.15625 65.916664L254.09375 62.729164L253.35938 63.447914L253.35938 65.916664L252.29688 65.916664ZM259.625 61.260414Q258.96875 61.010414 258.64062 60.572914Q258.32812 60.11979 258.32812 59.510414Q258.32812 58.572914 259.0 57.93229Q259.6875 57.291664 260.79688 57.291664Q261.92188 57.291664 262.60938 57.947914Q263.29688 58.604164 263.29688 59.541664Q263.29688 60.135414 262.98438 60.572914Q262.67188 61.010414 262.03125 61.260414Q262.82812 61.510414 263.23438 62.08854Q263.64062 62.666664 263.64062 63.46354Q263.64062 64.55729 262.85938 65.30729Q262.09375 66.05729 260.8125 66.05729Q259.54688 66.05729 258.76562 65.30729Q257.98438 64.55729 257.98438 63.43229Q257.98438 62.58854 258.40625 62.02604Q258.84375 61.46354 259.625 61.260414ZM259.40625 59.46354Q259.40625 60.072914 259.79688 60.46354Q260.20312 60.854164 260.82812 60.854164Q261.4375 60.854164 261.82812 60.479164Q262.21875 60.08854 262.21875 59.52604Q262.21875 58.947914 261.8125 58.55729Q261.40625 58.15104 260.8125 58.15104Q260.20312 58.15104 259.79688 58.541664Q259.40625 58.93229 259.40625 59.46354ZM259.07812 63.43229Q259.07812 63.885414 259.28125 64.30729Q259.5 64.729164 259.92188 64.96354Q260.34375 65.197914 260.82812 65.197914Q261.57812 65.197914 262.0625 64.71354Q262.5625 64.229164 262.5625 63.479164Q262.5625 62.71354 262.0625 62.21354Q261.5625 61.71354 260.79688 61.71354Q260.04688 61.71354 259.5625 62.21354Q259.07812 62.697914 259.07812 63.43229ZM264.875 64.05729L265.90625 63.90104Q266.0 64.52604 266.39062 64.854164Q266.79688 65.18229 267.53125 65.18229Q268.25 65.18229 268.59375 64.90104Q268.95312 64.604164 268.95312 64.197914Q268.95312 63.83854 268.64062 63.635414Q268.42188 63.49479 267.5625 63.27604Q266.40625 62.979164 265.95312 62.77604Q265.51562 62.55729 265.28125 62.18229Q265.04688 61.80729 265.04688 61.33854Q265.04688 60.93229 265.23438 60.572914Q265.42188 60.21354 265.75 59.979164Q266.0 59.80729 266.42188 59.68229Q266.84375 59.55729 267.34375 59.55729Q268.0625 59.55729 268.60938 59.77604Q269.17188 59.979164 269.4375 60.33854Q269.70312 60.697914 269.79688 61.291664L268.76562 61.43229Q268.70312 60.96354 268.35938 60.697914Q268.03125 60.416664 267.40625 60.416664Q266.6875 60.416664 266.375 60.666664Q266.0625 60.90104 266.0625 61.229164Q266.0625 61.43229 266.1875 61.58854Q266.32812 61.760414 266.59375 61.86979Q266.75 61.93229 267.53125 62.135414Q268.65625 62.447914 269.09375 62.635414Q269.53125 62.822914 269.78125 63.18229Q270.03125 63.541664 270.03125 64.08854Q270.03125 64.61979 269.71875 65.08854Q269.42188 65.541664 268.84375 65.80729Q268.26562 66.05729 267.53125 66.05729Q266.3125 66.05729 265.67188 65.55729Q265.04688 65.041664 264.875 64.05729ZM275.0 63.65104L276.0625 63.510414Q276.23438 64.40104 276.67188 64.80729Q277.10938 65.197914 277.73438 65.197914Q278.48438 65.197914 279.0 64.68229Q279.51562 64.166664 279.51562 63.40104Q279.51562 62.68229 279.03125 62.21354Q278.5625 61.729164 277.82812 61.729164Q277.53125 61.729164 277.07812 61.854164L277.20312 60.916664Q277.3125 60.93229 277.375 60.93229Q278.04688 60.93229 278.57812 60.58854Q279.125 60.229164 279.125 59.49479Q279.125 58.916664 278.73438 58.541664Q278.34375 58.15104 277.71875 58.15104Q277.10938 58.15104 276.6875 58.541664Q276.28125 58.93229 276.17188 59.697914L275.10938 59.510414Q275.29688 58.46354 275.98438 57.885414Q276.67188 57.291664 277.6875 57.291664Q278.39062 57.291664 278.98438 57.604164Q279.57812 57.90104 279.89062 58.416664Q280.20312 58.93229 280.20312 59.52604Q280.20312 60.072914 279.90625 60.541664Q279.60938 60.99479 279.03125 61.260414Q279.78125 61.43229 280.20312 61.99479Q280.625 62.541664 280.625 63.385414Q280.625 64.510414 279.79688 65.291664Q278.98438 66.072914 277.73438 66.072914Q276.60938 66.072914 275.85938 65.40104Q275.10938 64.71354 275.0 63.65104Z" fill-rule="nonzero"/><path stroke="#ea4335" stroke-width="4.0" stroke-linecap="butt" d="M297.5 61.916668L309.5 61.916668" fill-rule="nonzero"/><path fill="#1a1a1a" d="M318.29688 65.916664L318.29688 57.322914L319.35938 57.322914L319.35938 62.229164L321.84375 59.697914L323.21875 59.697914L320.82812 61.99479L323.45312 65.916664L322.15625 65.916664L320.09375 62.729164L319.35938 63.447914L319.35938 65.916664L318.29688 65.916664ZM324.0 63.65104L325.0625 63.510414Q325.23438 64.40104 325.67188 64.80729Q326.10938 65.197914 326.73438 65.197914Q327.48438 65.197914 328.0 64.68229Q328.51562 64.166664 328.51562 63.40104Q328.51562 62.68229 328.03125 62.21354Q327.5625 61.729164 326.82812 61.729164Q326.53125 61.729164 326.07812 61.854164L326.20312 60.916664Q326.3125 60.93229 326.375 60.93229Q327.04688 60.93229 327.57812 60.58854Q328.125 60.229164 328.125 59.49479Q328.125 58.916664 327.73438 58.541664Q327.34375 58.15104 326.71875 58.15104Q326.10938 58.15104 325.6875 58.541664Q325.28125 58.93229 325.17188 59.697914L324.10938 59.510414Q324.29688 58.46354 324.98438 57.885414Q325.67188 57.291664 326.6875 57.291664Q327.39062 57.291664 327.98438 57.604164Q328.57812 57.90104 328.89062 58.416664Q329.20312 58.93229 329.20312 59.52604Q329.20312 60.072914 328.90625 60.541664Q328.60938 60.99479 328.03125 61.260414Q328.78125 61.43229 329.20312 61.99479Q329.625 62.541664 329.625 63.385414Q329.625 64.510414 328.79688 65.291664Q327.98438 66.072914 326.73438 66.072914Q325.60938 66.072914 324.85938 65.40104Q324.10938 64.71354 324.0 63.65104ZM330.875 64.05729L331.90625 63.90104Q332.0 64.52604 332.39062 64.854164Q332.79688 65.18229 333.53125 65.18229Q334.25 65.18229 334.59375 64.90104Q334.95312 64.604164 334.95312 64.197914Q334.95312 63.83854 334.64062 63.635414Q334.42188 63.49479 333.5625 63.27604Q332.40625 62.979164 331.95312 62.77604Q331.51562 62.55729 331.28125 62.18229Q331.04688 61.80729 331.04688 61.33854Q331.04688 60.93229 331.23438 60.572914Q331.42188 60.21354 331.75 59.979164Q332.0 59.80729 332.42188 59.68229Q332.84375 59.55729 333.34375 59.55729Q334.0625 59.55729 334.60938 59.77604Q335.17188 59.979164 335.4375 60.33854Q335.70312 60.697914 335.79688 61.291664L334.76562 61.43229Q334.70312 60.96354 334.35938 60.697914Q334.03125 60.416664 333.40625 60.416664Q332.6875 60.416664 332.375 60.666664Q332.0625 60.90104 332.0625 61.229164Q332.0625 61.43229 332.1875 61.58854Q332.32812 61.760414 332.59375 61.86979Q332.75 61.93229 333.53125 62.135414Q334.65625 62.447914 335.09375 62.635414Q335.53125 62.822914 335.78125 63.18229Q336.03125 63.541664 336.03125 64.08854Q336.03125 64.61979 335.71875 65.08854Q335.42188 65.541664 334.84375 65.80729Q334.26562 66.05729 333.53125 66.05729Q332.3125 66.05729 331.67188 65.55729Q331.04688 65.041664 330.875 64.05729ZM341.29688 68.30729L341.29688 59.697914L342.25 59.697914L342.25 60.49479Q342.59375 60.02604 343.01562 59.791664Q343.45312 59.55729 344.0625 59.55729Q344.85938 59.55729 345.46875 59.96354Q346.07812 60.36979 346.375 61.11979Q346.6875 61.86979 346.6875 62.760414Q346.6875 63.71354 346.34375 64.479164Q346.01562 65.24479 345.35938 65.65104Q344.70312 66.05729 343.98438 66.05729Q343.45312 66.05729 343.03125 65.83854Q342.60938 65.604164 342.34375 65.27604L342.34375 68.30729L341.29688 68.30729ZM342.25 62.83854Q342.25 64.041664 342.73438 64.61979Q343.21875 65.18229 343.90625 65.18229Q344.60938 65.18229 345.10938 64.58854Q345.60938 63.99479 345.60938 62.74479Q345.60938 61.55729 345.125 60.979164Q344.64062 60.385414 343.95312 60.385414Q343.28125 60.385414 342.76562 61.010414Q342.25 61.635414 342.25 62.83854ZM348.28125 65.916664L348.28125 59.697914L349.23438 59.697914L349.23438 60.635414Q349.59375 59.979164 349.89062 59.77604Q350.20312 59.55729 350.57812 59.55729Q351.10938 59.55729 351.65625 59.885414L351.29688 60.86979Q350.90625 60.635414 350.53125 60.635414Q350.17188 60.635414 349.89062 60.854164Q349.625 61.05729 349.51562 61.43229Q349.32812 61.99479 349.32812 62.65104L349.32812 65.916664L348.28125 65.916664ZM351.90625 62.80729Q351.90625 61.072914 352.85938 60.24479Q353.65625 59.55729 354.8125 59.55729Q356.09375 59.55729 356.90625 60.40104Q357.73438 61.229164 357.73438 62.71354Q357.73438 63.916664 357.375 64.604164Q357.01562 65.291664 356.3125 65.68229Q355.625 66.05729 354.8125 66.05729Q353.51562 66.05729 352.70312 65.229164Q351.90625 64.385414 351.90625 62.80729ZM352.98438 62.80729Q352.98438 63.99479 353.5 64.58854Q354.03125 65.18229 354.8125 65.18229Q355.60938 65.18229 356.125 64.58854Q356.64062 63.99479 356.64062 62.77604Q356.64062 61.61979 356.10938 61.02604Q355.59375 60.43229 354.8125 60.43229Q354.03125 60.43229 353.5 61.02604Q352.98438 61.604164 352.98438 62.80729ZM362.0 63.65104L363.0625 63.510414Q363.23438 64.40104 363.67188 64.80729Q364.10938 65.197914 364.73438 65.197914Q365.48438 65.197914 366.0 64.68229Q366.51562 64.166664 366.51562 63.40104Q366.51562 62.68229 366.03125 62.21354Q365.5625 61.729164 364.82812 61.729164Q364.53125 61.729164 364.07812 61.854164L364.20312 60.916664Q364.3125 60.93229 364.375 60.93229Q365.04688 60.93229 365.57812 60.58854Q366.125 60.229164 366.125 59.49479Q366.125 58.916664 365.73438 58.541664Q365.34375 58.15104 364.71875 58.15104Q364.10938 58.15104 363.6875 58.541664Q363.28125 58.93229 363.17188 59.697914L362.10938 59.510414Q362.29688 58.46354 362.98438 57.885414Q363.67188 57.291664 364.6875 57.291664Q365.39062 57.291664 365.98438 57.604164Q366.57812 57.90104 366.89062 58.416664Q367.20312 58.93229 367.20312 59.52604Q367.20312 60.072914 366.90625 60.541664Q366.60938 60.99479 366.03125 61.260414Q366.78125 61.43229 367.20312 61.99479Q367.625 62.541664 367.625 63.385414Q367.625 64.510414 366.79688 65.291664Q365.98438 66.072914 364.73438 66.072914Q363.60938 66.072914 362.85938 65.40104Q362.10938 64.71354 362.0 63.65104Z" fill-rule="nonzero"/><path fill="#757575" d="M19.8625 37.55L19.8625 27.175L21.440624 27.175L21.440624 28.628124Q21.925 27.878124 22.7375 27.409374Q23.55 26.940624 24.58125 26.940624Q25.7375 26.940624 26.471874 27.425Q27.20625 27.89375 27.51875 28.753124Q28.753124 26.940624 30.721874 26.940624Q32.26875 26.940624 33.096874 27.8Q33.925 28.659374 33.925 30.425L33.925 37.55L32.175 37.55L32.175 31.01875Q32.175 29.95625 32.003124 29.503124Q31.83125 29.034374 31.378124 28.753124Q30.940624 28.471874 30.33125 28.471874Q29.2375 28.471874 28.503124 29.20625Q27.784374 29.925 27.784374 31.51875L27.784374 37.55L26.034374 37.55L26.034374 30.815624Q26.034374 29.64375 25.596874 29.065624Q25.175 28.471874 24.190624 28.471874Q23.45625 28.471874 22.815624 28.8625Q22.190624 29.253124 21.909374 30.003124Q21.628124 30.753124 21.628124 32.175L21.628124 37.55L19.8625 37.55ZM42.971874 34.20625L44.784374 34.440624Q44.3625 36.01875 43.190624 36.909374Q42.034374 37.784374 40.221874 37.784374Q37.95625 37.784374 36.6125 36.39375Q35.284374 34.9875 35.284374 32.45625Q35.284374 29.83125 36.628124 28.39375Q37.971874 26.940624 40.128124 26.940624Q42.20625 26.940624 43.51875 28.3625Q44.846874 29.76875 44.846874 32.346874Q44.846874 32.503124 44.83125 32.815624L37.096874 32.815624Q37.190624 34.51875 38.065624 35.425Q38.940624 36.33125 40.2375 36.33125Q41.20625 36.33125 41.878124 35.83125Q42.565624 35.315624 42.971874 34.20625ZM37.190624 31.3625L42.9875 31.3625Q42.878124 30.065624 42.33125 29.409374Q41.4875 28.39375 40.14375 28.39375Q38.940624 28.39375 38.1125 29.20625Q37.284374 30.003124 37.190624 31.3625ZM46.8625 37.55L46.8625 27.175L48.440624 27.175L48.440624 28.628124Q48.925 27.878124 49.7375 27.409374Q50.55 26.940624 51.58125 26.940624Q52.7375 26.940624 53.471874 27.425Q54.20625 27.89375 54.51875 28.753124Q55.753124 26.940624 57.721874 26.940624Q59.26875 26.940624 60.096874 27.8Q60.925 28.659374 60.925 30.425L60.925 37.55L59.175 37.55L59.175 31.01875Q59.175 29.95625 59.003124 29.503124Q58.83125 29.034374 58.378124 28.753124Q57.940624 28.471874 57.33125 28.471874Q56.2375 28.471874 55.503124 29.20625Q54.784374 29.925 54.784374 31.51875L54.784374 37.55L53.034374 37.55L53.034374 30.815624Q53.034374 29.64375 52.596874 29.065624Q52.175 28.471874 51.190624 28.471874Q50.45625 28.471874 49.815624 28.8625Q49.190624 29.253124 48.909374 30.003124Q48.628124 30.753124 48.628124 32.175L48.628124 37.55L46.8625 37.55ZM62.221874 32.3625Q62.221874 29.4875 63.815624 28.096874Q65.15938 26.940624 67.08125 26.940624Q69.22188 26.940624 70.56563 28.346874Q71.925 29.753124 71.925 32.221874Q71.925 34.221874 71.33125 35.378124Q70.7375 36.51875 69.58125 37.159374Q68.44063 37.784374 67.08125 37.784374Q64.89375 37.784374 63.55 36.39375Q62.221874 34.9875 62.221874 32.3625ZM64.01875 32.3625Q64.01875 34.3625 64.87813 35.346874Q65.75313 36.33125 67.08125 36.33125Q68.39375 36.33125 69.25313 35.346874Q70.12813 34.346874 70.12813 32.3Q70.12813 30.378124 69.25313 29.39375Q68.37813 28.39375 67.08125 28.39375Q65.75313 28.39375 64.87813 29.39375Q64.01875 30.378124 64.01875 32.3625ZM73.84688 37.55L73.84688 27.175L75.425 27.175L75.425 28.753124Q76.03438 27.64375 76.55 27.3Q77.06563 26.940624 77.675 26.940624Q78.56563 26.940624 79.4875 27.503124L78.87813 29.14375Q78.2375 28.753124 77.59688 28.753124Q77.01875 28.753124 76.55 29.1125Q76.09688 29.45625 75.89375 30.065624Q75.6125 31.003124 75.6125 32.1125L75.6125 37.55L73.84688 37.55ZM80.78438 41.55L80.59688 39.89375Q81.175 40.05 81.59688 40.05Q82.19063 40.05 82.53438 39.846874Q82.89375 39.659374 83.1125 39.315624Q83.28438 39.05 83.65938 38.003124Q83.70625 37.846874 83.81563 37.565624L79.87813 27.175L81.76875 27.175L83.925 33.190624Q84.34688 34.33125 84.675 35.58125Q84.9875 34.378124 85.39375 33.221874L87.6125 27.175L89.37813 27.175L85.425 37.721874Q84.8 39.440624 84.44063 40.08125Q83.97188 40.95625 83.3625 41.346874Q82.76875 41.753124 81.925 41.753124Q81.40938 41.753124 80.78438 41.55ZM103.65938 37.55L103.65938 36.01875Q102.45625 37.784374 100.37813 37.784374Q99.45625 37.784374 98.65938 37.440624Q97.8625 37.08125 97.47188 36.55Q97.09688 36.01875 96.94063 35.2375Q96.83125 34.721874 96.83125 33.596874L96.83125 27.175L98.58125 27.175L98.58125 32.925Q98.58125 34.3 98.69063 34.784374Q98.8625 35.471874 99.39375 35.878124Q99.94063 36.26875 100.72188 36.26875Q101.51875 36.26875 102.20625 35.8625Q102.90938 35.45625 103.19063 34.76875Q103.4875 34.065624 103.4875 32.7375L103.4875 27.175L105.2375 27.175L105.2375 37.55L103.65938 37.55ZM106.15938 34.45625L107.90938 34.175Q108.05 35.221874 108.72188 35.784374Q109.39375 36.33125 110.59688 36.33125Q111.8 36.33125 112.37813 35.846874Q112.97188 35.346874 112.97188 34.690624Q112.97188 34.096874 112.45625 33.753124Q112.09688 33.51875 110.65938 33.159374Q108.72188 32.659374 107.97188 32.315624Q107.2375 31.95625 106.84688 31.33125Q106.45625 30.690624 106.45625 29.925Q106.45625 29.2375 106.76875 28.64375Q107.09688 28.05 107.64375 27.659374Q108.05 27.3625 108.75313 27.159374Q109.47188 26.940624 110.28438 26.940624Q111.50313 26.940624 112.425 27.3Q113.34688 27.64375 113.78438 28.253124Q114.22188 28.846874 114.39375 29.846874L112.675 30.08125Q112.55 29.284374 111.9875 28.846874Q111.425 28.39375 110.40938 28.39375Q109.19063 28.39375 108.675 28.8Q108.15938 29.190624 108.15938 29.721874Q108.15938 30.065624 108.37813 30.346874Q108.58125 30.628124 109.05 30.815624Q109.31563 30.909374 110.59688 31.253124Q112.47188 31.753124 113.20625 32.08125Q113.94063 32.39375 114.3625 33.003124Q114.78438 33.596874 114.78438 34.503124Q114.78438 35.378124 114.26875 36.159374Q113.75313 36.940624 112.78438 37.3625Q111.81563 37.784374 110.59688 37.784374Q108.58125 37.784374 107.51875 36.940624Q106.45625 36.096874 106.15938 34.45625ZM123.64375 36.26875Q122.65938 37.096874 121.75313 37.440624Q120.84688 37.784374 119.81563 37.784374Q118.1125 37.784374 117.19063 36.95625Q116.26875 36.1125 116.26875 34.815624Q116.26875 34.05 116.6125 33.425Q116.97188 32.8 117.53438 32.425Q118.09688 32.034374 118.8 31.83125Q119.31563 31.70625 120.3625 31.565624Q122.4875 31.315624 123.4875 30.971874Q123.50313 30.6125 123.50313 30.503124Q123.50313 29.440624 123.00313 28.9875Q122.33125 28.39375 121.00313 28.39375Q119.75313 28.39375 119.15938 28.83125Q118.58125 29.26875 118.3 30.378124L116.58125 30.14375Q116.81563 29.034374 117.34688 28.3625Q117.87813 27.675 118.89375 27.315624Q119.90938 26.940624 121.25313 26.940624Q122.58125 26.940624 123.40938 27.253124Q124.2375 27.565624 124.62813 28.05Q125.01875 28.51875 125.175 29.2375Q125.26875 29.690624 125.26875 30.8625L125.26875 33.20625Q125.26875 35.659374 125.37813 36.315624Q125.4875 36.95625 125.83125 37.55L123.9875 37.55Q123.72188 37.003124 123.64375 36.26875ZM123.4875 32.346874Q122.53438 32.7375 120.6125 33.003124Q119.53438 33.159374 119.08125 33.3625Q118.64375 33.55 118.39375 33.925Q118.14375 34.3 118.14375 34.76875Q118.14375 35.471874 118.675 35.940624Q119.20625 36.409374 120.2375 36.409374Q121.25313 36.409374 122.03438 35.971874Q122.83125 35.51875 123.20625 34.753124Q123.4875 34.14375 123.4875 32.9875L123.4875 32.346874ZM127.55 38.409374L129.25313 38.659374Q129.3625 39.45625 129.84688 39.815624Q130.50313 40.3 131.64375 40.3Q132.8625 40.3 133.51875 39.815624Q134.19063 39.33125 134.425 38.45625Q134.56563 37.909374 134.55 36.190624Q133.39375 37.55 131.675 37.55Q129.53438 37.55 128.3625 36.003124Q127.19063 34.45625 127.19063 32.3Q127.19063 30.815624 127.72188 29.565624Q128.26875 28.315624 129.28438 27.628124Q130.31563 26.940624 131.69063 26.940624Q133.51875 26.940624 134.72188 28.425L134.72188 27.175L136.33125 27.175L136.33125 36.14375Q136.33125 38.565624 135.83125 39.565624Q135.34688 40.58125 134.26875 41.159374Q133.20625 41.753124 131.64375 41.753124Q129.8 41.753124 128.64375 40.925Q127.50313 40.096874 127.55 38.409374ZM129.00313 32.175Q129.00313 34.221874 129.81563 35.159374Q130.62813 36.096874 131.84688 36.096874Q133.05 36.096874 133.8625 35.159374Q134.69063 34.221874 134.69063 32.2375Q134.69063 30.33125 133.84688 29.3625Q133.00313 28.39375 131.81563 28.39375Q130.64375 28.39375 129.81563 29.346874Q129.00313 30.3 129.00313 32.175ZM145.97188 34.20625L147.78438 34.440624Q147.3625 36.01875 146.19063 36.909374Q145.03438 37.784374 143.22188 37.784374Q140.95625 37.784374 139.6125 36.39375Q138.28438 34.9875 138.28438 32.45625Q138.28438 29.83125 139.62813 28.39375Q140.97188 26.940624 143.12813 26.940624Q145.20625 26.940624 146.51875 28.3625Q147.84688 29.76875 147.84688 32.346874Q147.84688 32.503124 147.83125 32.815624L140.09688 32.815624Q140.19063 34.51875 141.06563 35.425Q141.94063 36.33125 143.2375 36.33125Q144.20625 36.33125 144.87813 35.83125Q145.56563 35.315624 145.97188 34.20625ZM140.19063 31.3625L145.9875 31.3625Q145.87813 30.065624 145.33125 29.409374Q144.4875 28.39375 143.14375 28.39375Q141.94063 28.39375 141.1125 29.20625Q140.28438 30.003124 140.19063 31.3625ZM155.22188 32.3625Q155.22188 29.4875 156.81563 28.096874Q158.15938 26.940624 160.08125 26.940624Q162.22188 26.940624 163.56563 28.346874Q164.925 29.753124 164.925 32.221874Q164.925 34.221874 164.33125 35.378124Q163.7375 36.51875 162.58125 37.159374Q161.44063 37.784374 160.08125 37.784374Q157.89375 37.784374 156.55 36.39375Q155.22188 34.9875 155.22188 32.3625ZM157.01875 32.3625Q157.01875 34.3625 157.87813 35.346874Q158.75313 36.33125 160.08125 36.33125Q161.39375 36.33125 162.25313 35.346874Q163.12813 34.346874 163.12813 32.3Q163.12813 30.378124 162.25313 29.39375Q161.37813 28.39375 160.08125 28.39375Q158.75313 28.39375 157.87813 29.39375Q157.01875 30.378124 157.01875 32.3625ZM169.75313 37.55L165.8 27.175L167.65938 27.175L169.89375 33.39375Q170.25313 34.39375 170.55 35.471874Q170.78438 34.659374 171.20625 33.503124L173.50313 27.175L175.31563 27.175L171.39375 37.55L169.75313 37.55ZM182.97188 34.20625L184.78438 34.440624Q184.3625 36.01875 183.19063 36.909374Q182.03438 37.784374 180.22188 37.784374Q177.95625 37.784374 176.6125 36.39375Q175.28438 34.9875 175.28438 32.45625Q175.28438 29.83125 176.62813 28.39375Q177.97188 26.940624 180.12813 26.940624Q182.20625 26.940624 183.51875 28.3625Q184.84688 29.76875 184.84688 32.346874Q184.84688 32.503124 184.83125 32.815624L177.09688 32.815624Q177.19063 34.51875 178.06563 35.425Q178.94063 36.33125 180.2375 36.33125Q181.20625 36.33125 181.87813 35.83125Q182.56563 35.315624 182.97188 34.20625ZM177.19063 31.3625L182.9875 31.3625Q182.87813 30.065624 182.33125 29.409374Q181.4875 28.39375 180.14375 28.39375Q178.94063 28.39375 178.1125 29.20625Q177.28438 30.003124 177.19063 31.3625ZM186.84688 37.55L186.84688 27.175L188.425 27.175L188.425 28.753124Q189.03438 27.64375 189.55 27.3Q190.06563 26.940624 190.675 26.940624Q191.56563 26.940624 192.4875 27.503124L191.87813 29.14375Q191.2375 28.753124 190.59688 28.753124Q190.01875 28.753124 189.55 29.1125Q189.09688 29.45625 188.89375 30.065624Q188.6125 31.003124 188.6125 32.1125L188.6125 37.55L186.84688 37.55ZM203.70625 35.971874L203.95625 37.534374Q203.22188 37.690624 202.62813 37.690624Q201.675 37.690624 201.14375 37.39375Q200.62813 37.08125 200.40938 36.596874Q200.19063 36.096874 200.19063 34.51875L200.19063 28.55L198.90938 28.55L198.90938 27.175L200.19063 27.175L200.19063 24.6125L201.94063 23.55L201.94063 27.175L203.70625 27.175L203.70625 28.55L201.94063 28.55L201.94063 34.6125Q201.94063 35.3625 202.03438 35.58125Q202.12813 35.784374 202.33125 35.925Q202.55 36.05 202.94063 36.05Q203.22188 36.05 203.70625 35.971874ZM205.87813 25.253124L205.87813 23.2375L207.64375 23.2375L207.64375 25.253124L205.87813 25.253124ZM205.87813 37.55L205.87813 27.175L207.64375 27.175L207.64375 37.55L205.87813 37.55ZM209.8625 37.55L209.8625 27.175L211.44063 27.175L211.44063 28.628124Q211.925 27.878124 212.7375 27.409374Q213.55 26.940624 214.58125 26.940624Q215.7375 26.940624 216.47188 27.425Q217.20625 27.89375 217.51875 28.753124Q218.75313 26.940624 220.72188 26.940624Q222.26875 26.940624 223.09688 27.8Q223.925 28.659374 223.925 30.425L223.925 37.55L222.175 37.55L222.175 31.01875Q222.175 29.95625 222.00313 29.503124Q221.83125 29.034374 221.37813 28.753124Q220.94063 28.471874 220.33125 28.471874Q219.2375 28.471874 218.50313 29.20625Q217.78438 29.925 217.78438 31.51875L217.78438 37.55L216.03438 37.55L216.03438 30.815624Q216.03438 29.64375 215.59688 29.065624Q215.175 28.471874 214.19063 28.471874Q213.45625 28.471874 212.81563 28.8625Q212.19063 29.253124 211.90938 30.003124Q211.62813 30.753124 211.62813 32.175L211.62813 37.55L209.8625 37.55ZM232.97188 34.20625L234.78438 34.440624Q234.3625 36.01875 233.19063 36.909374Q232.03438 37.784374 230.22188 37.784374Q227.95625 37.784374 226.6125 36.39375Q225.28438 34.9875 225.28438 32.45625Q225.28438 29.83125 226.62813 28.39375Q227.97188 26.940624 230.12813 26.940624Q232.20625 26.940624 233.51875 28.3625Q234.84688 29.76875 234.84688 32.346874Q234.84688 32.503124 234.83125 32.815624L227.09688 32.815624Q227.19063 34.51875 228.06563 35.425Q228.94063 36.33125 230.2375 36.33125Q231.20625 36.33125 231.87813 35.83125Q232.56563 35.315624 232.97188 34.20625ZM227.19063 31.3625L232.9875 31.3625Q232.87813 30.065624 232.33125 29.409374Q231.4875 28.39375 230.14375 28.39375Q228.94063 28.39375 228.1125 29.20625Q227.28438 30.003124 227.19063 31.3625ZM246.22188 41.753124Q244.76875 39.925 243.76875 37.471874Q242.76875 35.003124 242.76875 32.3625Q242.76875 30.034374 243.51875 27.909374Q244.39375 25.440624 246.22188 22.9875L247.4875 22.9875Q246.3 25.01875 245.925 25.89375Q245.33125 27.2375 244.9875 28.70625Q244.56563 30.534374 244.56563 32.378124Q244.56563 37.065624 247.4875 41.753124L246.22188 41.753124ZM249.87813 25.253124L249.87813 23.2375L251.64375 23.2375L251.64375 25.253124L249.87813 25.253124ZM249.87813 37.55L249.87813 27.175L251.64375 27.175L251.64375 37.55L249.87813 37.55ZM253.8625 37.55L253.8625 27.175L255.45625 27.175L255.45625 28.659374Q256.59686 26.940624 258.7531 26.940624Q259.6906 26.940624 260.47186 27.284374Q261.26874 27.6125 261.65936 28.159374Q262.05 28.70625 262.20624 29.45625Q262.3 29.95625 262.3 31.175L262.3 37.55L260.53436 37.55L260.53436 31.2375Q260.53436 30.159374 260.33124 29.628124Q260.1281 29.096874 259.59686 28.784374Q259.08124 28.471874 258.3781 28.471874Q257.2531 28.471874 256.4406 29.190624Q255.62813 29.89375 255.62813 31.878124L255.62813 37.55L253.8625 37.55ZM267.70624 35.971874L267.95624 37.534374Q267.22186 37.690624 266.6281 37.690624Q265.675 37.690624 265.14374 37.39375Q264.6281 37.08125 264.40936 36.596874Q264.1906 36.096874 264.1906 34.51875L264.1906 28.55L262.90936 28.55L262.90936 27.175L264.1906 27.175L264.1906 24.6125L265.9406 23.55L265.9406 27.175L267.70624 27.175L267.70624 28.55L265.9406 28.55L265.9406 34.6125Q265.9406 35.3625 266.03436 35.58125Q266.1281 35.784374 266.33124 35.925Q266.55 36.05 266.9406 36.05Q267.22186 36.05 267.70624 35.971874ZM276.97186 34.20625L278.78436 34.440624Q278.3625 36.01875 277.1906 36.909374Q276.03436 37.784374 274.22186 37.784374Q271.95624 37.784374 270.6125 36.39375Q269.28436 34.9875 269.28436 32.45625Q269.28436 29.83125 270.6281 28.39375Q271.97186 26.940624 274.1281 26.940624Q276.20624 26.940624 277.51874 28.3625Q278.84686 29.76875 278.84686 32.346874Q278.84686 32.503124 278.83124 32.815624L271.09686 32.815624Q271.1906 34.51875 272.0656 35.425Q272.9406 36.33125 274.2375 36.33125Q275.20624 36.33125 275.8781 35.83125Q276.5656 35.315624 276.97186 34.20625ZM271.1906 31.3625L276.9875 31.3625Q276.8781 30.065624 276.33124 29.409374Q275.4875 28.39375 274.14374 28.39375Q272.9406 28.39375 272.1125 29.20625Q271.28436 30.003124 271.1906 31.3625ZM280.8625 37.55L280.8625 27.175L282.45624 27.175L282.45624 28.659374Q283.59686 26.940624 285.7531 26.940624Q286.6906 26.940624 287.47186 27.284374Q288.26874 27.6125 288.65936 28.159374Q289.05 28.70625 289.20624 29.45625Q289.3 29.95625 289.3 31.175L289.3 37.55L287.53436 37.55L287.53436 31.2375Q287.53436 30.159374 287.33124 29.628124Q287.1281 29.096874 286.59686 28.784374Q286.08124 28.471874 285.3781 28.471874Q284.2531 28.471874 283.4406 29.190624Q282.6281 29.89375 282.6281 31.878124L282.6281 37.55L280.8625 37.55ZM290.15936 34.45625L291.90936 34.175Q292.05 35.221874 292.72186 35.784374Q293.39374 36.33125 294.59686 36.33125Q295.8 36.33125 296.3781 35.846874Q296.97186 35.346874 296.97186 34.690624Q296.97186 34.096874 296.45624 33.753124Q296.09686 33.51875 294.65936 33.159374Q292.72186 32.659374 291.97186 32.315624Q291.2375 31.95625 290.84686 31.33125Q290.45624 30.690624 290.45624 29.925Q290.45624 29.2375 290.76874 28.64375Q291.09686 28.05 291.64374 27.659374Q292.05 27.3625 292.7531 27.159374Q293.47186 26.940624 294.28436 26.940624Q295.5031 26.940624 296.425 27.3Q297.34686 27.64375 297.78436 28.253124Q298.22186 28.846874 298.39374 29.846874L296.675 30.08125Q296.55 29.284374 295.9875 28.846874Q295.425 28.39375 294.40936 28.39375Q293.1906 28.39375 292.675 28.8Q292.15936 29.190624 292.15936 29.721874Q292.15936 30.065624 292.3781 30.346874Q292.58124 30.628124 293.05 30.815624Q293.3156 30.909374 294.59686 31.253124Q296.47186 31.753124 297.20624 32.08125Q297.9406 32.39375 298.3625 33.003124Q298.78436 33.596874 298.78436 34.503124Q298.78436 35.378124 298.26874 36.159374Q297.7531 36.940624 296.78436 37.3625Q295.8156 37.784374 294.59686 37.784374Q292.58124 37.784374 291.51874 36.940624Q290.45624 36.096874 290.15936 34.45625ZM300.8781 25.253124L300.8781 23.2375L302.64374 23.2375L302.64374 25.253124L300.8781 25.253124ZM300.8781 37.55L300.8781 27.175L302.64374 27.175L302.64374 37.55L300.8781 37.55ZM307.7531 37.55L303.8 27.175L305.65936 27.175L307.89374 33.39375Q308.2531 34.39375 308.55 35.471874Q308.78436 34.659374 309.20624 33.503124L311.5031 27.175L313.3156 27.175L309.39374 37.55L307.7531 37.55ZM320.97186 34.20625L322.78436 34.440624Q322.3625 36.01875 321.1906 36.909374Q320.03436 37.784374 318.22186 37.784374Q315.95624 37.784374 314.6125 36.39375Q313.28436 34.9875 313.28436 32.45625Q313.28436 29.83125 314.6281 28.39375Q315.97186 26.940624 318.1281 26.940624Q320.20624 26.940624 321.51874 28.3625Q322.84686 29.76875 322.84686 32.346874Q322.84686 32.503124 322.83124 32.815624L315.09686 32.815624Q315.1906 34.51875 316.0656 35.425Q316.9406 36.33125 318.2375 36.33125Q319.20624 36.33125 319.8781 35.83125Q320.5656 35.315624 320.97186 34.20625ZM315.1906 31.3625L320.9875 31.3625Q320.8781 30.065624 320.33124 29.409374Q319.4875 28.39375 318.14374 28.39375Q316.9406 28.39375 316.1125 29.20625Q315.28436 30.003124 315.1906 31.3625ZM326.01874 41.753124L324.76874 41.753124Q327.675 37.065624 327.675 32.378124Q327.675 30.534374 327.26874 28.7375Q326.925 27.26875 326.33124 25.925Q325.95624 25.034374 324.76874 22.9875L326.01874 22.9875Q327.8625 25.440624 328.7375 27.909374Q329.4875 30.034374 329.4875 32.3625Q329.4875 35.003124 328.47186 37.471874Q327.47186 39.925 326.01874 41.753124ZM337.8625 37.55L337.8625 23.2375L339.6281 23.2375L339.6281 28.3625Q340.8625 26.940624 342.7375 26.940624Q343.8781 26.940624 344.72186 27.39375Q345.58124 27.846874 345.9406 28.659374Q346.3156 29.45625 346.3156 30.971874L346.3156 37.55L344.5656 37.55L344.5656 30.971874Q344.5656 29.659374 343.9875 29.065624Q343.40936 28.45625 342.3781 28.45625Q341.59686 28.45625 340.89374 28.8625Q340.20624 29.26875 339.90936 29.971874Q339.6281 30.659374 339.6281 31.878124L339.6281 37.55L337.8625 37.55ZM347.8781 25.253124L347.8781 23.2375L349.64374 23.2375L349.64374 25.253124L347.8781 25.253124ZM347.8781 37.55L347.8781 27.175L349.64374 27.175L349.64374 37.55L347.8781 37.55ZM351.55 38.409374L353.2531 38.659374Q353.3625 39.45625 353.84686 39.815624Q354.5031 40.3 355.64374 40.3Q356.8625 40.3 357.51874 39.815624Q358.1906 39.33125 358.425 38.45625Q358.5656 37.909374 358.55 36.190624Q357.39374 37.55 355.675 37.55Q353.53436 37.55 352.3625 36.003124Q351.1906 34.45625 351.1906 32.3Q351.1906 30.815624 351.72186 29.565624Q352.26874 28.315624 353.28436 27.628124Q354.3156 26.940624 355.6906 26.940624Q357.51874 26.940624 358.72186 28.425L358.72186 27.175L360.33124 27.175L360.33124 36.14375Q360.33124 38.565624 359.83124 39.565624Q359.34686 40.58125 358.26874 41.159374Q357.20624 41.753124 355.64374 41.753124Q353.8 41.753124 352.64374 40.925Q351.5031 40.096874 351.55 38.409374ZM353.0031 32.175Q353.0031 34.221874 353.8156 35.159374Q354.6281 36.096874 355.84686 36.096874Q357.05 36.096874 357.8625 35.159374Q358.6906 34.221874 358.6906 32.2375Q358.6906 30.33125 357.84686 29.3625Q357.0031 28.39375 355.8156 28.39375Q354.64374 28.39375 353.8156 29.346874Q353.0031 30.3 353.0031 32.175ZM362.8625 37.55L362.8625 23.2375L364.6281 23.2375L364.6281 28.3625Q365.8625 26.940624 367.7375 26.940624Q368.8781 26.940624 369.72186 27.39375Q370.58124 27.846874 370.9406 28.659374Q371.3156 29.45625 371.3156 30.971874L371.3156 37.55L369.5656 37.55L369.5656 30.971874Q369.5656 29.659374 368.9875 29.065624Q368.40936 28.45625 367.3781 28.45625Q366.59686 28.45625 365.89374 28.8625Q365.20624 29.26875 364.90936 29.971874Q364.6281 30.659374 364.6281 31.878124L364.6281 37.55L362.8625 37.55ZM385.64374 36.26875Q384.65936 37.096874 383.7531 37.440624Q382.84686 37.784374 381.8156 37.784374Q380.1125 37.784374 379.1906 36.95625Q378.26874 36.1125 378.26874 34.815624Q378.26874 34.05 378.6125 33.425Q378.97186 32.8 379.53436 32.425Q380.09686 32.034374 380.8 31.83125Q381.3156 31.70625 382.3625 31.565624Q384.4875 31.315624 385.4875 30.971874Q385.5031 30.6125 385.5031 30.503124Q385.5031 29.440624 385.0031 28.9875Q384.33124 28.39375 383.0031 28.39375Q381.7531 28.39375 381.15936 28.83125Q380.58124 29.26875 380.3 30.378124L378.58124 30.14375Q378.8156 29.034374 379.34686 28.3625Q379.8781 27.675 380.89374 27.315624Q381.90936 26.940624 383.2531 26.940624Q384.58124 26.940624 385.40936 27.253124Q386.2375 27.565624 386.6281 28.05Q387.01874 28.51875 387.175 29.2375Q387.26874 29.690624 387.26874 30.8625L387.26874 33.20625Q387.26874 35.659374 387.3781 36.315624Q387.4875 36.95625 387.83124 37.55L385.9875 37.55Q385.72186 37.003124 385.64374 36.26875ZM385.4875 32.346874Q384.53436 32.7375 382.6125 33.003124Q381.53436 33.159374 381.08124 33.3625Q380.64374 33.55 380.39374 33.925Q380.14374 34.3 380.14374 34.76875Q380.14374 35.471874 380.675 35.940624Q381.20624 36.409374 382.2375 36.409374Q383.2531 36.409374 384.03436 35.971874Q384.83124 35.51875 385.20624 34.753124Q385.4875 34.14375 385.4875 32.9875L385.4875 32.346874ZM392.7531 37.55L388.8 27.175L390.65936 27.175L392.89374 33.39375Q393.2531 34.39375 393.55 35.471874Q393.78436 34.659374 394.20624 33.503124L396.5031 27.175L398.3156 27.175L394.39374 37.55L392.7531 37.55ZM405.64374 36.26875Q404.65936 37.096874 403.7531 37.440624Q402.84686 37.784374 401.8156 37.784374Q400.1125 37.784374 399.1906 36.95625Q398.26874 36.1125 398.26874 34.815624Q398.26874 34.05 398.6125 33.425Q398.97186 32.8 399.53436 32.425Q400.09686 32.034374 400.8 31.83125Q401.3156 31.70625 402.3625 31.565624Q404.4875 31.315624 405.4875 30.971874Q405.5031 30.6125 405.5031 30.503124Q405.5031 29.440624 405.0031 28.9875Q404.33124 28.39375 403.0031 28.39375Q401.7531 28.39375 401.15936 28.83125Q400.58124 29.26875 400.3 30.378124L398.58124 30.14375Q398.8156 29.034374 399.34686 28.3625Q399.8781 27.675 400.89374 27.315624Q401.90936 26.940624 403.2531 26.940624Q404.58124 26.940624 405.40936 27.253124Q406.2375 27.565624 406.6281 28.05Q407.01874 28.51875 407.175 29.2375Q407.26874 29.690624 407.26874 30.8625L407.26874 33.20625Q407.26874 35.659374 407.3781 36.315624Q407.4875 36.95625 407.83124 37.55L405.9875 37.55Q405.72186 37.003124 405.64374 36.26875ZM405.4875 32.346874Q404.53436 32.7375 402.6125 33.003124Q401.53436 33.159374 401.08124 33.3625Q400.64374 33.55 400.39374 33.925Q400.14374 34.3 400.14374 34.76875Q400.14374 35.471874 400.675 35.940624Q401.20624 36.409374 402.2375 36.409374Q403.2531 36.409374 404.03436 35.971874Q404.83124 35.51875 405.20624 34.753124Q405.4875 34.14375 405.4875 32.9875L405.4875 32.346874ZM409.8781 25.253124L409.8781 23.2375L411.64374 23.2375L411.64374 25.253124L409.8781 25.253124ZM409.8781 37.55L409.8781 27.175L411.64374 27.175L411.64374 37.55L409.8781 37.55ZM413.83124 37.55L413.83124 23.2375L415.58124 23.2375L415.58124 37.55L413.83124 37.55ZM424.64374 36.26875Q423.65936 37.096874 422.7531 37.440624Q421.84686 37.784374 420.8156 37.784374Q419.1125 37.784374 418.1906 36.95625Q417.26874 36.1125 417.26874 34.815624Q417.26874 34.05 417.6125 33.425Q417.97186 32.8 418.53436 32.425Q419.09686 32.034374 419.8 31.83125Q420.3156 31.70625 421.3625 31.565624Q423.4875 31.315624 424.4875 30.971874Q424.5031 30.6125 424.5031 30.503124Q424.5031 29.440624 424.0031 28.9875Q423.33124 28.39375 422.0031 28.39375Q420.7531 28.39375 420.15936 28.83125Q419.58124 29.26875 419.3 30.378124L417.58124 30.14375Q417.8156 29.034374 418.34686 28.3625Q418.8781 27.675 419.89374 27.315624Q420.90936 26.940624 422.2531 26.940624Q423.58124 26.940624 424.40936 27.253124Q425.2375 27.565624 425.6281 28.05Q426.01874 28.51875 426.175 29.2375Q426.26874 29.690624 426.26874 30.8625L426.26874 33.20625Q426.26874 35.659374 426.3781 36.315624Q426.4875 36.95625 426.83124 37.55L424.9875 37.55Q424.72186 37.003124 424.64374 36.26875ZM424.4875 32.346874Q423.53436 32.7375 421.6125 33.003124Q420.53436 33.159374 420.08124 33.3625Q419.64374 33.55 419.39374 33.925Q419.14374 34.3 419.14374 34.76875Q419.14374 35.471874 419.675 35.940624Q420.20624 36.409374 421.2375 36.409374Q422.2531 36.409374 423.03436 35.971874Q423.83124 35.51875 424.20624 34.753124Q424.4875 34.14375 424.4875 32.9875L424.4875 32.346874ZM430.4875 37.55L428.8625 37.55L428.8625 23.2375L430.6125 23.2375L430.6125 28.346874Q431.7375 26.940624 433.45624 26.940624Q434.40936 26.940624 435.26874 27.33125Q436.1281 27.721874 436.675 28.425Q437.22186 29.1125 437.53436 30.096874Q437.84686 31.08125 437.84686 32.20625Q437.84686 34.878124 436.53436 36.33125Q435.22186 37.784374 433.3781 37.784374Q431.53436 37.784374 430.4875 36.253124L430.4875 37.55ZM430.47186 32.284374Q430.47186 34.14375 430.97186 34.9875Q431.8156 36.33125 433.22186 36.33125Q434.3781 36.33125 435.20624 35.33125Q436.05 34.33125 436.05 32.346874Q436.05 30.315624 435.2375 29.3625Q434.4406 28.39375 433.3 28.39375Q432.14374 28.39375 431.3 29.39375Q430.47186 30.39375 430.47186 32.284374ZM439.8781 25.253124L439.8781 23.2375L441.64374 23.2375L441.64374 25.253124L439.8781 25.253124ZM439.8781 37.55L439.8781 27.175L441.64374 27.175L441.64374 37.55L439.8781 37.55ZM443.83124 37.55L443.83124 23.2375L445.58124 23.2375L445.58124 37.55L443.83124 37.55ZM447.8781 25.253124L447.8781 23.2375L449.64374 23.2375L449.64374 25.253124L447.8781 25.253124ZM447.8781 37.55L447.8781 27.175L449.64374 27.175L449.64374 37.55L447.8781 37.55ZM455.70624 35.971874L455.95624 37.534374Q455.22186 37.690624 454.6281 37.690624Q453.675 37.690624 453.14374 37.39375Q452.6281 37.08125 452.40936 36.596874Q452.1906 36.096874 452.1906 34.51875L452.1906 28.55L450.90936 28.55L450.90936 27.175L452.1906 27.175L452.1906 24.6125L453.9406 23.55L453.9406 27.175L455.70624 27.175L455.70624 28.55L453.9406 28.55L453.9406 34.6125Q453.9406 35.3625 454.03436 35.58125Q454.1281 35.784374 454.33124 35.925Q454.55 36.05 454.9406 36.05Q455.22186 36.05 455.70624 35.971874ZM457.78436 41.55L457.59686 39.89375Q458.175 40.05 458.59686 40.05Q459.1906 40.05 459.53436 39.846874Q459.89374 39.659374 460.1125 39.315624Q460.28436 39.05 460.65936 38.003124Q460.70624 37.846874 460.8156 37.565624L456.8781 27.175L458.76874 27.175L460.925 33.190624Q461.34686 34.33125 461.675 35.58125Q461.9875 34.378124 462.39374 33.221874L464.6125 27.175L466.3781 27.175L462.425 37.721874Q461.8 39.440624 461.4406 40.08125Q460.97186 40.95625 460.3625 41.346874Q459.76874 41.753124 458.925 41.753124Q458.40936 41.753124 457.78436 41.55Z" fill-rule="nonzero"/></svg>