<svg version="1.1" viewBox="0.0 0.0 600.0 371.0" fill="none" stroke="none" stroke-linecap="square" stroke-miterlimit="10" width="600" height="371" xmlns:xlink="http://www.w3.org/1999/xlink" xmlns="http://www.w3.org/2000/svg"><path fill="#ffffff" d="M0 0L600.0 0L600.0 371.0L0 371.0L0 0Z" fill-rule="nonzero"/><path stroke="#333333" stroke-width="1.0" stroke-linecap="butt" d="M77.5 88.5L77.5 300.5" fill-rule="nonzero"/><path stroke="#cccccc" stroke-width="1.0" stroke-linecap="butt" d="M206.5 88.5L206.5 300.5" fill-rule="nonzero"/><path stroke="#cccccc" stroke-width="1.0" stroke-linecap="butt" d="M335.5 88.5L335.5 300.5" fill-rule="nonzero"/><path stroke="#cccccc" stroke-width="1.0" stroke-linecap="butt" d="M465.5 88.5L465.5 300.5" fill-rule="nonzero"/><path stroke="#333333" stroke-width="1.0" stroke-linecap="butt" d="M77.5 300.5L581.5 300.5" fill-rule="nonzero"/><path stroke="#cccccc" stroke-width="1.0" stroke-linecap="butt" d="M77.5 258.5L581.5 258.5" fill-rule="nonzero"/><path stroke="#cccccc" stroke-width="1.0" stroke-linecap="butt" d="M77.5 215.5L581.5 215.5" fill-rule="nonzero"/><path stroke="#cccccc" stroke-width="1.0" stroke-linecap="butt" d="M77.5 173.5L581.5 173.5" fill-rule="nonzero"/><path stroke="#cccccc" stroke-width="1.0" stroke-linecap="butt" d="M77.5 130.5L581.5 130.5" fill-rule="nonzero"/><path stroke="#cccccc" stroke-width="1.0" stroke-linecap="butt" d="M77.5 88.5L581.5 88.5" fill-rule="nonzero"/><clipPath id="id_0"><path d="M77.55 88.28333L581.45 88.28333L581.45 300.45L77.55 300.45L77.55 88.28333Z" clip-rule="nonzero"/></clipPath><path stroke="#4285f4" stroke-width="2.0" stroke-linecap="butt" clip-path="url(#id_0)" d="M77.55 266.62524L116.31154 266.16544L155.07307 260.63107L193.83461 259.702L232.59616 258.2061L271.3577 257.15466L310.11923 255.90851L348.88077 255.06554L387.6423 253.5724L426.40384 252.51266L465.16537 251.41061L503.9269 250.55464L542.6885 248.743L581.45 248.1344" fill-rule="nonzero"/><path stroke="#ea4335" stroke-width="2.0" stroke-linecap="butt" clip-path="url(#id_0)" d="M77.55 297.7445L116.31154 297.2362L155.07307 292.5274L193.83461 290.9842L232.59616 289.89432L271.3577 289.04538L310.11923 288.00412L348.88077 286.96683L387.6423 285.9174L426.40384 284.88165L465.16537 283.80008L503.9269 282.23816L542.6885 281.1055L581.45 280.52975" fill-rule="nonzero"/><path stroke="#fbbc04" stroke-width="2.0" stroke-linecap="butt" clip-path="url(#id_0)" d="M77.55 252.50067L116.31154 251.5697L155.07307 246.38687L193.83461 245.01309L232.59616 243.9709L271.3577 242.99025L310.11923 241.97926L348.88077 240.57442L387.6423 239.55835L426.40384 238.75613L465.16537 237.58601L503.9269 236.20135L542.6885 235.19702L581.45 234.64384" fill-rule="nonzero"/><path stroke="#34a853" stroke-width="2.0" stroke-linecap="butt" clip-path="url(#id_0)" d="M77.55 151.84406L116.31154 148.9289L155.07307 132.96338L193.83461 126.4948L232.59616 123.030945L271.3577 119.537766L310.11923 116.341606L348.88077 112.840416L387.6423 109.44736L426.40384 103.13697L465.16537 99.59307L503.9269 94.96353L542.6885 89.59406L581.45 88.783646" fill-rule="nonzero"/><path fill="#000000" fill-opacity="0.0" clip-path="url(#id_0)" d="M80.55 266.62524C80.55 268.2821 79.206856 269.62524 77.55 269.62524C75.89314 269.62524 74.55 268.2821 74.55 266.62524C74.55 264.96838 75.89314 263.62524 77.55 263.62524C79.206856 263.62524 80.55 264.96838 80.55 266.62524Z" fill-rule="nonzero"/><path fill="#000000" fill-opacity="0.0" clip-path="url(#id_0)" d="M119.31154 266.16544C119.31154 267.8223 117.96839 269.16544 116.31154 269.16544C114.654686 269.16544 113.31154 267.8223 113.31154 266.16544C113.31154 264.5086 114.654686 263.16544 116.31154 263.16544C117.96839 263.16544 119.31154 264.5086 119.31154 266.16544Z" fill-rule="nonzero"/><path fill="#000000" fill-opacity="0.0" clip-path="url(#id_0)" d="M158.07307 260.63107C158.07307 262.28793 156.72993 263.63107 155.07307 263.63107C153.41623 263.63107 152.07307 262.28793 152.07307 260.63107C152.07307 258.9742 153.41623 257.63107 155.07307 257.63107C156.72993 257.63107 158.07307 258.9742 158.07307 260.63107Z" fill-rule="nonzero"/><path fill="#000000" fill-opacity="0.0" clip-path="url(#id_0)" d="M196.83461 259.702C196.83461 261.35886 195.49147 262.702 193.83461 262.702C192.17776 262.702 190.83461 261.35886 190.83461 259.702C190.83461 258.04514 192.17776 256.702 193.83461 256.702C195.49147 256.702 196.83461 258.04514 196.83461 259.702Z" fill-rule="nonzero"/><path fill="#000000" fill-opacity="0.0" clip-path="url(#id_0)" d="M235.59616 258.2061C235.59616 259.86295 234.253 261.2061 232.59616 261.2061C230.9393 261.2061 229.59616 259.86295 229.59616 258.2061C229.59616 256.54922 230.9393 255.20609 232.59616 255.20609C234.253 255.20609 235.59616 256.54922 235.59616 258.2061Z" fill-rule="nonzero"/><path fill="#000000" fill-opacity="0.0" clip-path="url(#id_0)" d="M274.3577 257.15466C274.3577 258.81152 273.01456 260.15466 271.3577 260.15466C269.70084 260.15466 268.3577 258.81152 268.3577 257.15466C268.3577 255.49782 269.70084 254.15468 271.3577 254.15468C273.01456 254.15468 274.3577 255.49782 274.3577 257.15466Z" fill-rule="nonzero"/><path fill="#000000" fill-opacity="0.0" clip-path="url(#id_0)" d="M313.11923 255.90851C313.11923 257.56537 311.7761 258.9085 310.11923 258.9085C308.46237 258.9085 307.11923 257.56537 307.11923 255.90851C307.11923 254.25165 308.46237 252.90851 310.11923 252.90851C311.7761 252.90851 313.11923 254.25165 313.11923 255.90851Z" fill-rule="nonzero"/><path fill="#000000" fill-opacity="0.0" clip-path="url(#id_0)" d="M351.88077 255.06554C351.88077 256.72238 350.53763 258.06555 348.88077 258.06555C347.2239 258.06555 345.88077 256.72238 345.88077 255.06554C345.88077 253.40869 347.2239 252.06554 348.88077 252.06554C350.53763 252.06554 351.88077 253.40869 351.88077 255.06554Z" fill-rule="nonzero"/><path fill="#000000" fill-opacity="0.0" clip-path="url(#id_0)" d="M390.6423 253.5724C390.6423 255.22926 389.29916 256.57242 387.6423 256.57242C385.98544 256.57242 384.6423 255.22926 384.6423 253.5724C384.6423 251.91554 385.98544 250.5724 387.6423 250.5724C389.29916 250.5724 390.6423 251.91554 390.6423 253.5724Z" fill-rule="nonzero"/><path fill="#000000" fill-opacity="0.0" clip-path="url(#id_0)" d="M429.40384 252.51266C429.40384 254.16953 428.0607 255.51266 426.40384 255.51266C424.74698 255.51266 423.40384 254.16953 423.40384 252.51266C423.40384 250.8558 424.74698 249.51266 426.40384 249.51266C428.0607 249.51266 429.40384 250.8558 429.40384 252.51266Z" fill-rule="nonzero"/><path fill="#000000" fill-opacity="0.0" clip-path="url(#id_0)" d="M468.16537 251.41061C468.16537 253.06747 466.82224 254.41061 465.16537 254.41061C463.50854 254.41061 462.16537 253.06747 462.16537 251.41061C462.16537 249.75377 463.50854 248.41061 465.16537 248.41061C466.82224 248.41061 468.16537 249.75377 468.16537 251.41061Z" fill-rule="nonzero"/><path fill="#000000" fill-opacity="0.0" clip-path="url(#id_0)" d="M506.9269 250.55464C506.9269 252.2115 505.58377 253.55464 503.9269 253.55464C502.27008 253.55464 500.9269 252.2115 500.9269 250.55464C500.9269 248.89778 502.27008 247.55464 503.9269 247.55464C505.58377 247.55464 506.9269 248.89778 506.9269 250.55464Z" fill-rule="nonzero"/><path fill="#000000" fill-opacity="0.0" clip-path="url(#id_0)" d="M545.6885 248.743C545.6885 250.39986 544.34534 251.743 542.6885 251.743C541.0316 251.743 539.6885 250.39986 539.6885 248.743C539.6885 247.08615 541.0316 245.743 542.6885 245.743C544.34534 245.743 545.6885 247.08615 545.6885 248.743Z" fill-rule="nonzero"/><path fill="#000000" fill-opacity="0.0" clip-path="url(#id_0)" d="M584.45 248.1344C584.45 249.79124 583.1069 251.1344 581.45 251.1344C579.79315 251.1344 578.45 249.79124 578.45 248.1344C578.45 246.47754 579.79315 245.1344 581.45 245.1344C583.1069 245.1344 584.45 246.47754 584.45 248.1344Z" fill-rule="nonzero"/><path fill="#000000" fill-opacity="0.0" clip-path="url(#id_0)" d="M80.55 297.7445C80.55 299.40137 79.206856 300.7445 77.55 300.7445C75.89314 300.7445 74.55 299.40137 74.55 297.7445C74.55 296.08765 75.89314 294.7445 77.55 294.7445C79.206856 294.7445 80.55 296.08765 80.55 297.7445Z" fill-rule="nonzero"/><path fill="#000000" fill-opacity="0.0" clip-path="url(#id_0)" d="M119.31154 297.2362C119.31154 298.89304 117.96839 300.2362 116.31154 300.2362C114.654686 300.2362 113.31154 298.89304 113.31154 297.2362C113.31154 295.57935 114.654686 294.2362 116.31154 294.2362C117.96839 294.2362 119.31154 295.57935 119.31154 297.2362Z" fill-rule="nonzero"/><path fill="#000000" fill-opacity="0.0" clip-path="url(#id_0)" d="M158.07307 292.5274C158.07307 294.18427 156.72993 295.5274 155.07307 295.5274C153.41623 295.5274 152.07307 294.18427 152.07307 292.5274C152.07307 290.87054 153.41623 289.5274 155.07307 289.5274C156.72993 289.5274 158.07307 290.87054 158.07307 292.5274Z" fill-rule="nonzero"/><path fill="#000000" fill-opacity="0.0" clip-path="url(#id_0)" d="M196.83461 290.9842C196.83461 292.64105 195.49147 293.9842 193.83461 293.9842C192.17776 293.9842 190.83461 292.64105 190.83461 290.9842C190.83461 289.32736 192.17776 287.9842 193.83461 287.9842C195.49147 287.9842 196.83461 289.32736 196.83461 290.9842Z" fill-rule="nonzero"/><path fill="#000000" fill-opacity="0.0" clip-path="url(#id_0)" d="M235.59616 289.89432C235.59616 291.55115 234.253 292.89432 232.59616 292.89432C230.9393 292.89432 229.59616 291.55115 229.59616 289.89432C229.59616 288.23746 230.9393 286.89432 232.59616 286.89432C234.253 286.89432 235.59616 288.23746 235.59616 289.89432Z" fill-rule="nonzero"/><path fill="#000000" fill-opacity="0.0" clip-path="url(#id_0)" d="M274.3577 289.04538C274.3577 290.7022 273.01456 292.04538 271.3577 292.04538C269.70084 292.04538 268.3577 290.7022 268.3577 289.04538C268.3577 287.38852 269.70084 286.04538 271.3577 286.04538C273.01456 286.04538 274.3577 287.38852 274.3577 289.04538Z" fill-rule="nonzero"/><path fill="#000000" fill-opacity="0.0" clip-path="url(#id_0)" d="M313.11923 288.00412C313.11923 289.66095 311.7761 291.00412 310.11923 291.00412C308.46237 291.00412 307.11923 289.66095 307.11923 288.00412C307.11923 286.34726 308.46237 285.00412 310.11923 285.00412C311.7761 285.00412 313.11923 286.34726 313.11923 288.00412Z" fill-rule="nonzero"/><path fill="#000000" fill-opacity="0.0" clip-path="url(#id_0)" d="M351.88077 286.96683C351.88077 288.6237 350.53763 289.96683 348.88077 289.96683C347.2239 289.96683 345.88077 288.6237 345.88077 286.96683C345.88077 285.30997 347.2239 283.96683 348.88077 283.96683C350.53763 283.96683 351.88077 285.30997 351.88077 286.96683Z" fill-rule="nonzero"/><path fill="#000000" fill-opacity="0.0" clip-path="url(#id_0)" d="M390.6423 285.9174C390.6423 287.57425 389.29916 288.9174 387.6423 288.9174C385.98544 288.9174 384.6423 287.57425 384.6423 285.9174C384.6423 284.26053 385.98544 282.9174 387.6423 282.9174C389.29916 282.9174 390.6423 284.26053 390.6423 285.9174Z" fill-rule="nonzero"/><path fill="#000000" fill-opacity="0.0" clip-path="url(#id_0)" d="M429.40384 284.88165C429.40384 286.5385 428.0607 287.88165 426.40384 287.88165C424.74698 287.88165 423.40384 286.5385 423.40384 284.88165C423.40384 283.22482 424.74698 281.88165 426.40384 281.88165C428.0607 281.88165 429.40384 283.22482 429.40384 284.88165Z" fill-rule="nonzero"/><path fill="#000000" fill-opacity="0.0" clip-path="url(#id_0)" d="M468.16537 283.80008C468.16537 285.45694 466.82224 286.80008 465.16537 286.80008C463.50854 286.80008 462.16537 285.45694 462.16537 283.80008C462.16537 282.14322 463.50854 280.80008 465.16537 280.80008C466.82224 280.80008 468.16537 282.14322 468.16537 283.80008Z" fill-rule="nonzero"/><path fill="#000000" fill-opacity="0.0" clip-path="url(#id_0)" d="M506.9269 282.23816C506.9269 283.895 505.58377 285.23816 503.9269 285.23816C502.27008 285.23816 500.9269 283.895 500.9269 282.23816C500.9269 280.5813 502.27008 279.23816 503.9269 279.23816C505.58377 279.23816 506.9269 280.5813 506.9269 282.23816Z" fill-rule="nonzero"/><path fill="#000000" fill-opacity="0.0" clip-path="url(#id_0)" d="M545.6885 281.1055C545.6885 282.76233 544.34534 284.1055 542.6885 284.1055C541.0316 284.1055 539.6885 282.76233 539.6885 281.1055C539.6885 279.44864 541.0316 278.1055 542.6885 278.1055C544.34534 278.1055 545.6885 279.44864 545.6885 281.1055Z" fill-rule="nonzero"/><path fill="#000000" fill-opacity="0.0" clip-path="url(#id_0)" d="M584.45 280.52975C584.45 282.1866 583.1069 283.52975 581.45 283.52975C579.79315 283.52975 578.45 282.1866 578.45 280.52975C578.45 278.87292 579.79315 277.52975 581.45 277.52975C583.1069 277.52975 584.45 278.87292 584.45 280.52975Z" fill-rule="nonzero"/><path fill="#000000" fill-opacity="0.0" clip-path="url(#id_0)" d="M80.55 252.50067C80.55 254.15753 79.206856 255.50067 77.55 255.50067C75.89314 255.50067 74.55 254.15753 74.55 252.50067C74.55 250.84381 75.89314 249.50067 77.55 249.50067C79.206856 249.50067 80.55 250.84381 80.55 252.50067Z" fill-rule="nonzero"/><path fill="#000000" fill-opacity="0.0" clip-path="url(#id_0)" d="M119.31154 251.5697C119.31154 253.22656 117.96839 254.5697 116.31154 254.5697C114.654686 254.5697 113.31154 253.22656 113.31154 251.5697C113.31154 249.91284 114.654686 248.5697 116.31154 248.5697C117.96839 248.5697 119.31154 249.91284 119.31154 251.5697Z" fill-rule="nonzero"/><path fill="#000000" fill-opacity="0.0" clip-path="url(#id_0)" d="M158.07307 246.38687C158.07307 248.04372 156.72993 249.38687 155.07307 249.38687C153.41623 249.38687 152.07307 248.04372 152.07307 246.38687C152.07307 244.73001 153.41623 243.38687 155.07307 243.38687C156.72993 243.38687 158.07307 244.73001 158.07307 246.38687Z" fill-rule="nonzero"/><path fill="#000000" fill-opacity="0.0" clip-path="url(#id_0)" d="M196.83461 245.01309C196.83461 246.66995 195.49147 248.01309 193.83461 248.01309C192.17776 248.01309 190.83461 246.66995 190.83461 245.01309C190.83461 243.35623 192.17776 242.01309 193.83461 242.01309C195.49147 242.01309 196.83461 243.35623 196.83461 245.01309Z" fill-rule="nonzero"/><path fill="#000000" fill-opacity="0.0" clip-path="url(#id_0)" d="M235.59616 243.9709C235.59616 245.62776 234.253 246.9709 232.59616 246.9709C230.9393 246.9709 229.59616 245.62776 229.59616 243.9709C229.59616 242.31404 230.9393 240.9709 232.59616 240.9709C234.253 240.9709 235.59616 242.31404 235.59616 243.9709Z" fill-rule="nonzero"/><path fill="#000000" fill-opacity="0.0" clip-path="url(#id_0)" d="M274.3577 242.99025C274.3577 244.6471 273.01456 245.99025 271.3577 245.99025C269.70084 245.99025 268.3577 244.6471 268.3577 242.99025C268.3577 241.33339 269.70084 239.99025 271.3577 239.99025C273.01456 239.99025 274.3577 241.33339 274.3577 242.99025Z" fill-rule="nonzero"/><path fill="#000000" fill-opacity="0.0" clip-path="url(#id_0)" d="M313.11923 241.97926C313.11923 243.63612 311.7761 244.97926 310.11923 244.97926C308.46237 244.97926 307.11923 243.63612 307.11923 241.97926C307.11923 240.32242 308.46237 238.97926 310.11923 238.97926C311.7761 238.97926 313.11923 240.32242 313.11923 241.97926Z" fill-rule="nonzero"/><path fill="#000000" fill-opacity="0.0" clip-path="url(#id_0)" d="M351.88077 240.57442C351.88077 242.23126 350.53763 243.57442 348.88077 243.57442C347.2239 243.57442 345.88077 242.23126 345.88077 240.57442C345.88077 238.91756 347.2239 237.57442 348.88077 237.57442C350.53763 237.57442 351.88077 238.91756 351.88077 240.57442Z" fill-rule="nonzero"/><path fill="#000000" fill-opacity="0.0" clip-path="url(#id_0)" d="M390.6423 239.55835C390.6423 241.21521 389.29916 242.55835 387.6423 242.55835C385.98544 242.55835 384.6423 241.21521 384.6423 239.55835C384.6423 237.9015 385.98544 236.55835 387.6423 236.55835C389.29916 236.55835 390.6423 237.9015 390.6423 239.55835Z" fill-rule="nonzero"/><path fill="#000000" fill-opacity="0.0" clip-path="url(#id_0)" d="M429.40384 238.75613C429.40384 240.413 428.0607 241.75613 426.40384 241.75613C424.74698 241.75613 423.40384 240.413 423.40384 238.75613C423.40384 237.09929 424.74698 235.75613 426.40384 235.75613C428.0607 235.75613 429.40384 237.09929 429.40384 238.75613Z" fill-rule="nonzero"/><path fill="#000000" fill-opacity="0.0" clip-path="url(#id_0)" d="M468.16537 237.58601C468.16537 239.24286 466.82224 240.58601 465.16537 240.58601C463.50854 240.58601 462.16537 239.24286 462.16537 237.58601C462.16537 235.92915 463.50854 234.58601 465.16537 234.58601C466.82224 234.58601 468.16537 235.92915 468.16537 237.58601Z" fill-rule="nonzero"/><path fill="#000000" fill-opacity="0.0" clip-path="url(#id_0)" d="M506.9269 236.20135C506.9269 237.8582 505.58377 239.20135 503.9269 239.20135C502.27008 239.20135 500.9269 237.8582 500.9269 236.20135C500.9269 234.5445 502.27008 233.20135 503.9269 233.20135C505.58377 233.20135 506.9269 234.5445 506.9269 236.20135Z" fill-rule="nonzero"/><path fill="#000000" fill-opacity="0.0" clip-path="url(#id_0)" d="M545.6885 235.19702C545.6885 236.85388 544.34534 238.19702 542.6885 238.19702C541.0316 238.19702 539.6885 236.85388 539.6885 235.19702C539.6885 233.54018 541.0316 232.19702 542.6885 232.19702C544.34534 232.19702 545.6885 233.54018 545.6885 235.19702Z" fill-rule="nonzero"/><path fill="#000000" fill-opacity="0.0" clip-path="url(#id_0)" d="M584.45 234.64384C584.45 236.30069 583.1069 237.64384 581.45 237.64384C579.79315 237.64384 578.45 236.30069 578.45 234.64384C578.45 232.98698 579.79315 231.64384 581.45 231.64384C583.1069 231.64384 584.45 232.98698 584.45 234.64384Z" fill-rule="nonzero"/><path fill="#000000" fill-opacity="0.0" clip-path="url(#id_0)" d="M80.55 151.84406C80.55 153.50092 79.206856 154.84406 77.55 154.84406C75.89314 154.84406 74.55 153.50092 74.55 151.84406C74.55 150.18721 75.89314 148.84406 77.55 148.84406C79.206856 148.84406 80.55 150.18721 80.55 151.84406Z" fill-rule="nonzero"/><path fill="#000000" fill-opacity="0.0" clip-path="url(#id_0)" d="M119.31154 148.9289C119.31154 150.58575 117.96839 151.9289 116.31154 151.9289C114.654686 151.9289 113.31154 150.58575 113.31154 148.9289C113.31154 147.27203 114.654686 145.9289 116.31154 145.9289C117.96839 145.9289 119.31154 147.27203 119.31154 148.9289Z" fill-rule="nonzero"/><path fill="#000000" fill-opacity="0.0" clip-path="url(#id_0)" d="M158.07307 132.96338C158.07307 134.62024 156.72993 135.96338 155.07307 135.96338C153.41623 135.96338 152.07307 134.62024 152.07307 132.96338C152.07307 131.30653 153.41623 129.96338 155.07307 129.96338C156.72993 129.96338 158.07307 131.30653 158.07307 132.96338Z" fill-rule="nonzero"/><path fill="#000000" fill-opacity="0.0" clip-path="url(#id_0)" d="M196.83461 126.4948C196.83461 128.15166 195.49147 129.4948 193.83461 129.4948C192.17776 129.4948 190.83461 128.15166 190.83461 126.4948C190.83461 124.837944 192.17776 123.4948 193.83461 123.4948C195.49147 123.4948 196.83461 124.837944 196.83461 126.4948Z" fill-rule="nonzero"/><path fill="#000000" fill-opacity="0.0" clip-path="url(#id_0)" d="M235.59616 123.030945C235.59616 124.687805 234.253 126.030945 232.59616 126.030945C230.9393 126.030945 229.59616 124.687805 229.59616 123.030945C229.59616 121.37409 230.9393 120.030945 232.59616 120.030945C234.253 120.030945 235.59616 121.37409 235.59616 123.030945Z" fill-rule="nonzero"/><path fill="#000000" fill-opacity="0.0" clip-path="url(#id_0)" d="M274.3577 119.537766C274.3577 121.19462 273.01456 122.537766 271.3577 122.537766C269.70084 122.537766 268.3577 121.19462 268.3577 119.537766C268.3577 117.880905 269.70084 116.537766 271.3577 116.537766C273.01456 116.537766 274.3577 117.880905 274.3577 119.537766Z" fill-rule="nonzero"/><path fill="#000000" fill-opacity="0.0" clip-path="url(#id_0)" d="M313.11923 116.341606C313.11923 117.99846 311.7761 119.341606 310.11923 119.341606C308.46237 119.341606 307.11923 117.99846 307.11923 116.341606C307.11923 114.68475 308.46237 113.341606 310.11923 113.341606C311.7761 113.341606 313.11923 114.68475 313.11923 116.341606Z" fill-rule="nonzero"/><path fill="#000000" fill-opacity="0.0" clip-path="url(#id_0)" d="M351.88077 112.840416C351.88077 114.49727 350.53763 115.840416 348.88077 115.840416C347.2239 115.840416 345.88077 114.49727 345.88077 112.840416C345.88077 111.18356 347.2239 109.840416 348.88077 109.840416C350.53763 109.840416 351.88077 111.18356 351.88077 112.840416Z" fill-rule="nonzero"/><path fill="#000000" fill-opacity="0.0" clip-path="url(#id_0)" d="M390.6423 109.44736C390.6423 111.10422 389.29916 112.44736 387.6423 112.44736C385.98544 112.44736 384.6423 111.10422 384.6423 109.44736C384.6423 107.790504 385.98544 106.44736 387.6423 106.44736C389.29916 106.44736 390.6423 107.790504 390.6423 109.44736Z" fill-rule="nonzero"/><path fill="#000000" fill-opacity="0.0" clip-path="url(#id_0)" d="M429.40384 103.13697C429.40384 104.79383 428.0607 106.13697 426.40384 106.13697C424.74698 106.13697 423.40384 104.79383 423.40384 103.13697C423.40384 101.48012 424.74698 100.13697 426.40384 100.13697C428.0607 100.13697 429.40384 101.48012 429.40384 103.13697Z" fill-rule="nonzero"/><path fill="#000000" fill-opacity="0.0" clip-path="url(#id_0)" d="M468.16537 99.59307C468.16537 101.24992 466.82224 102.59307 465.16537 102.59307C463.50854 102.59307 462.16537 101.24992 462.16537 99.59307C462.16537 97.93622 463.50854 96.59307 465.16537 96.59307C466.82224 96.59307 468.16537 97.93622 468.16537 99.59307Z" fill-rule="nonzero"/><path fill="#000000" fill-opacity="0.0" clip-path="url(#id_0)" d="M506.9269 94.96353C506.9269 96.620384 505.58377 97.96353 503.9269 97.96353C502.27008 97.96353 500.9269 96.620384 500.9269 94.96353C500.9269 93.30668 502.27008 91.96353 503.9269 91.96353C505.58377 91.96353 506.9269 93.30668 506.9269 94.96353Z" fill-rule="nonzero"/><path fill="#000000" fill-opacity="0.0" clip-path="url(#id_0)" d="M545.6885 89.59406C545.6885 91.250916 544.34534 92.59406 542.6885 92.59406C541.0316 92.59406 539.6885 91.250916 539.6885 89.59406C539.6885 87.9372 541.0316 86.59406 542.6885 86.59406C544.34534 86.59406 545.6885 87.9372 545.6885 89.59406Z" fill-rule="nonzero"/><path fill="#000000" fill-opacity="0.0" clip-path="url(#id_0)" d="M584.45 88.783646C584.45 90.4405 583.1069 91.783646 581.45 91.783646C579.79315 91.783646 578.45 90.4405 578.45 88.783646C578.45 87.12679 579.79315 85.783646 581.45 85.783646C583.1069 85.783646 584.45 87.12679 584.45 88.783646Z" fill-rule="nonzero"/><path fill="#000000" d="M264.59375 348.5125L264.75 349.4344Q264.29688 349.52814 263.95312 349.52814Q263.375 349.52814 263.0625 349.35626Q262.75 349.16876 262.60938 348.8719Q262.48438 348.575 262.48438 347.6219L262.48438 344.04376L261.71875 344.04376L261.71875 343.23126L262.48438 343.23126L262.48438 341.6844L263.53125 341.0594L263.53125 343.23126L264.59375 343.23126L264.59375 344.04376L263.53125 344.04376L263.53125 347.6844Q263.53125 348.1375 263.57812 348.2625Q263.64062 348.3875 263.76562 348.46564Q263.89062 348.54376 264.125 348.54376Q264.3125 348.54376 264.59375 348.5125ZM265.29688 342.075L265.29688 340.85626L266.35938 340.85626L266.35938 342.075L265.29688 342.075ZM265.29688 349.45L265.29688 343.23126L266.35938 343.23126L266.35938 349.45L265.29688 349.45ZM268.29688 349.45L268.29688 343.23126L269.23438 343.23126L269.23438 344.10626Q269.53125 343.6375 270.01562 343.3719Q270.5 343.09064 271.125 343.09064Q271.8125 343.09064 272.25 343.3719Q272.70312 343.65314 272.875 344.16876Q273.625 343.09064 274.79688 343.09064Q275.73438 343.09064 276.21875 343.60626Q276.71875 344.10626 276.71875 345.1844L276.71875 349.45L275.67188 349.45L275.67188 345.52814Q275.67188 344.90314 275.5625 344.6219Q275.46875 344.34064 275.20312 344.16876Q274.9375 343.9969 274.5625 343.9969Q273.90625 343.9969 273.46875 344.4344Q273.04688 344.8719 273.04688 345.84064L273.04688 349.45L271.98438 349.45L271.98438 345.40314Q271.98438 344.7 271.71875 344.35626Q271.46875 343.9969 270.89062 343.9969Q270.4375 343.9969 270.0625 344.23126Q269.6875 344.46564 269.51562 344.91876Q269.34375 345.3719 269.34375 346.21564L269.34375 349.45L268.29688 349.45ZM283.54688 347.45L284.64062 347.575Q284.39062 348.52814 283.6875 349.0594Q282.98438 349.59064 281.90625 349.59064Q280.54688 349.59064 279.73438 348.7469Q278.9375 347.90314 278.9375 346.3875Q278.9375 344.825 279.75 343.96564Q280.5625 343.09064 281.84375 343.09064Q283.09375 343.09064 283.875 343.9344Q284.67188 344.77814 284.67188 346.325Q284.67188 346.41876 284.67188 346.60626L280.03125 346.60626Q280.09375 347.6375 280.60938 348.1844Q281.125 348.71564 281.90625 348.71564Q282.48438 348.71564 282.89062 348.41876Q283.3125 348.10626 283.54688 347.45ZM280.09375 345.7469L283.5625 345.7469Q283.5 344.95 283.17188 344.5594Q282.65625 343.95 281.85938 343.95Q281.125 343.95 280.625 344.4344Q280.14062 344.91876 280.09375 345.7469ZM293.54688 347.45L294.64062 347.575Q294.39062 348.52814 293.6875 349.0594Q292.98438 349.59064 291.90625 349.59064Q290.54688 349.59064 289.73438 348.7469Q288.9375 347.90314 288.9375 346.3875Q288.9375 344.825 289.75 343.96564Q290.5625 343.09064 291.84375 343.09064Q293.09375 343.09064 293.875 343.9344Q294.67188 344.77814 294.67188 346.325Q294.67188 346.41876 294.67188 346.60626L290.03125 346.60626Q290.09375 347.6375 290.60938 348.1844Q291.125 348.71564 291.90625 348.71564Q292.48438 348.71564 292.89062 348.41876Q293.3125 348.10626 293.54688 347.45ZM290.09375 345.7469L293.5625 345.7469Q293.5 344.95 293.17188 344.5594Q292.65625 343.95 291.85938 343.95Q291.125 343.95 290.625 344.4344Q290.14062 344.91876 290.09375 345.7469ZM296.26562 349.45L296.26562 340.85626L297.32812 340.85626L297.32812 349.45L296.26562 349.45ZM303.35938 348.6844Q302.76562 349.1844 302.21875 349.3875Q301.6875 349.59064 301.0625 349.59064Q300.03125 349.59064 299.48438 349.09064Q298.9375 348.59064 298.9375 347.8094Q298.9375 347.35626 299.14062 346.98126Q299.34375 346.59064 299.6875 346.3719Q300.03125 346.1375 300.45312 346.02814Q300.75 345.9344 301.39062 345.85626Q302.65625 345.71564 303.26562 345.4969Q303.26562 345.27814 303.26562 345.23126Q303.26562 344.575 302.96875 344.3094Q302.5625 343.96564 301.76562 343.96564Q301.03125 343.96564 300.67188 344.23126Q300.3125 344.48126 300.14062 345.1375L299.10938 344.9969Q299.25 344.34064 299.57812 343.9344Q299.90625 343.52814 300.51562 343.3094Q301.125 343.09064 301.92188 343.09064Q302.71875 343.09064 303.21875 343.27814Q303.71875 343.46564 303.95312 343.7469Q304.1875 344.02814 304.28125 344.46564Q304.32812 344.73126 304.32812 345.4344L304.32812 346.84064Q304.32812 348.3094 304.39062 348.7Q304.46875 349.09064 304.67188 349.45L303.5625 349.45Q303.40625 349.1219 303.35938 348.6844ZM303.26562 346.325Q302.6875 346.5594 301.54688 346.73126Q300.89062 346.825 300.625 346.95Q300.35938 347.0594 300.20312 347.27814Q300.0625 347.4969 300.0625 347.77814Q300.0625 348.2 300.375 348.48126Q300.70312 348.7625 301.3125 348.7625Q301.92188 348.7625 302.39062 348.4969Q302.875 348.23126 303.09375 347.7625Q303.26562 347.40314 303.26562 346.71564L303.26562 346.325ZM306.29688 351.84064L306.29688 343.23126L307.25 343.23126L307.25 344.02814Q307.59375 343.5594 308.01562 343.325Q308.45312 343.09064 309.0625 343.09064Q309.85938 343.09064 310.46875 343.4969Q311.07812 343.90314 311.375 344.65314Q311.6875 345.40314 311.6875 346.29376Q311.6875 347.2469 311.34375 348.0125Q311.01562 348.77814 310.35938 349.1844Q309.70312 349.59064 308.98438 349.59064Q308.45312 349.59064 308.03125 349.3719Q307.60938 349.1375 307.34375 348.8094L307.34375 351.84064L306.29688 351.84064ZM307.25 346.3719Q307.25 347.575 307.73438 348.15314Q308.21875 348.71564 308.90625 348.71564Q309.60938 348.71564 310.10938 348.1219Q310.60938 347.52814 310.60938 346.27814Q310.60938 345.09064 310.125 344.5125Q309.64062 343.91876 308.95312 343.91876Q308.28125 343.91876 307.76562 344.54376Q307.25 345.16876 307.25 346.3719ZM312.875 347.59064L313.90625 347.4344Q314.0 348.0594 314.39062 348.3875Q314.79688 348.71564 315.53125 348.71564Q316.25 348.71564 316.59375 348.4344Q316.95312 348.1375 316.95312 347.73126Q316.95312 347.3719 316.64062 347.16876Q316.42188 347.02814 315.5625 346.8094Q314.40625 346.5125 313.95312 346.3094Q313.51562 346.09064 313.28125 345.71564Q313.04688 345.34064 313.04688 344.8719Q313.04688 344.46564 313.23438 344.10626Q313.42188 343.7469 313.75 343.5125Q314.0 343.34064 314.42188 343.21564Q314.84375 343.09064 315.34375 343.09064Q316.0625 343.09064 316.60938 343.3094Q317.17188 343.5125 317.4375 343.8719Q317.70312 344.23126 317.79688 344.825L316.76562 344.96564Q316.70312 344.4969 316.35938 344.23126Q316.03125 343.95 315.40625 343.95Q314.6875 343.95 314.375 344.2Q314.0625 344.4344 314.0625 344.7625Q314.0625 344.96564 314.1875 345.1219Q314.32812 345.29376 314.59375 345.40314Q314.75 345.46564 315.53125 345.66876Q316.65625 345.98126 317.09375 346.16876Q317.53125 346.35626 317.78125 346.71564Q318.03125 347.075 318.03125 347.6219Q318.03125 348.15314 317.71875 348.6219Q317.42188 349.075 316.84375 349.34064Q316.26562 349.59064 315.53125 349.59064Q314.3125 349.59064 313.67188 349.09064Q313.04688 348.575 312.875 347.59064ZM324.54688 347.45L325.64062 347.575Q325.39062 348.52814 324.6875 349.0594Q323.98438 349.59064 322.90625 349.59064Q321.54688 349.59064 320.73438 348.7469Q319.9375 347.90314 319.9375 346.3875Q319.9375 344.825 320.75 343.96564Q321.5625 343.09064 322.84375 343.09064Q324.09375 343.09064 324.875 343.9344Q325.67188 344.77814 325.67188 346.325Q325.67188 346.41876 325.67188 346.60626L321.03125 346.60626Q321.09375 347.6375 321.60938 348.1844Q322.125 348.71564 322.90625 348.71564Q323.48438 348.71564 323.89062 348.41876Q324.3125 348.10626 324.54688 347.45ZM321.09375 345.7469L324.5625 345.7469Q324.5 344.95 324.17188 344.5594Q323.65625 343.95 322.85938 343.95Q322.125 343.95 321.625 344.4344Q321.14062 344.91876 321.09375 345.7469ZM331.32812 349.45L331.32812 348.66876Q330.73438 349.59064 329.59375 349.59064Q328.84375 349.59064 328.21875 349.1844Q327.59375 348.7625 327.25 348.02814Q326.90625 347.29376 326.90625 346.34064Q326.90625 345.41876 327.21875 344.65314Q327.53125 343.8875 328.15625 343.4969Q328.78125 343.09064 329.54688 343.09064Q330.10938 343.09064 330.54688 343.325Q330.98438 343.5594 331.26562 343.9344L331.26562 340.85626L332.3125 340.85626L332.3125 349.45L331.32812 349.45ZM328.0 346.34064Q328.0 347.54376 328.5 348.1375Q329.0 348.71564 329.6875 348.71564Q330.375 348.71564 330.85938 348.15314Q331.34375 347.59064 331.34375 346.4344Q331.34375 345.15314 330.84375 344.5594Q330.35938 343.96564 329.64062 343.96564Q328.9375 343.96564 328.46875 344.54376Q328.0 345.10626 328.0 346.34064ZM337.29688 342.075L337.29688 340.85626L338.35938 340.85626L338.35938 342.075L337.29688 342.075ZM337.29688 349.45L337.29688 343.23126L338.35938 343.23126L338.35938 349.45L337.29688 349.45ZM340.29688 349.45L340.29688 343.23126L341.23438 343.23126L341.23438 344.10626Q341.92188 343.09064 343.21875 343.09064Q343.78125 343.09064 344.25 343.29376Q344.73438 343.4969 344.96875 343.825Q345.20312 344.15314 345.29688 344.59064Q345.34375 344.8875 345.34375 345.6219L345.34375 349.45L344.29688 349.45L344.29688 345.66876Q344.29688 345.0125 344.17188 344.7Q344.04688 344.3875 343.73438 344.2Q343.42188 343.9969 343.0 343.9969Q342.32812 343.9969 341.82812 344.4344Q341.34375 344.85626 341.34375 346.04376L341.34375 349.45L340.29688 349.45ZM349.875 347.59064L350.90625 347.4344Q351.0 348.0594 351.39062 348.3875Q351.79688 348.71564 352.53125 348.71564Q353.25 348.71564 353.59375 348.4344Q353.95312 348.1375 353.95312 347.73126Q353.95312 347.3719 353.64062 347.16876Q353.42188 347.02814 352.5625 346.8094Q351.40625 346.5125 350.95312 346.3094Q350.51562 346.09064 350.28125 345.71564Q350.04688 345.34064 350.04688 344.8719Q350.04688 344.46564 350.23438 344.10626Q350.42188 343.7469 350.75 343.5125Q351.0 343.34064 351.42188 343.21564Q351.84375 343.09064 352.34375 343.09064Q353.0625 343.09064 353.60938 343.3094Q354.17188 343.5125 354.4375 343.8719Q354.70312 344.23126 354.79688 344.825L353.76562 344.96564Q353.70312 344.4969 353.35938 344.23126Q353.03125 343.95 352.40625 343.95Q351.6875 343.95 351.375 344.2Q351.0625 344.4344 351.0625 344.7625Q351.0625 344.96564 351.1875 345.1219Q351.32812 345.29376 351.59375 345.40314Q351.75 345.46564 352.53125 345.66876Q353.65625 345.98126 354.09375 346.16876Q354.53125 346.35626 354.78125 346.71564Q355.03125 347.075 355.03125 347.6219Q355.03125 348.15314 354.71875 348.6219Q354.42188 349.075 353.84375 349.34064Q353.26562 349.59064 352.53125 349.59064Q351.3125 349.59064 350.67188 349.09064Q350.04688 348.575 349.875 347.59064ZM361.54688 347.45L362.64062 347.575Q362.39062 348.52814 361.6875 349.0594Q360.98438 349.59064 359.90625 349.59064Q358.54688 349.59064 357.73438 348.7469Q356.9375 347.90314 356.9375 346.3875Q356.9375 344.825 357.75 343.96564Q358.5625 343.09064 359.84375 343.09064Q361.09375 343.09064 361.875 343.9344Q362.67188 344.77814 362.67188 346.325Q362.67188 346.41876 362.67188 346.60626L358.03125 346.60626Q358.09375 347.6375 358.60938 348.1844Q359.125 348.71564 359.90625 348.71564Q360.48438 348.71564 360.89062 348.41876Q361.3125 348.10626 361.54688 347.45ZM358.09375 345.7469L361.5625 345.7469Q361.5 344.95 361.17188 344.5594Q360.65625 343.95 359.85938 343.95Q359.125 343.95 358.625 344.4344Q358.14062 344.91876 358.09375 345.7469ZM368.35938 347.16876L369.39062 347.3094Q369.21875 348.3719 368.51562 348.98126Q367.8125 349.59064 366.79688 349.59064Q365.51562 349.59064 364.73438 348.7625Q363.96875 347.91876 363.96875 346.35626Q363.96875 345.35626 364.29688 344.60626Q364.64062 343.84064 365.3125 343.46564Q366.0 343.09064 366.8125 343.09064Q367.8125 343.09064 368.45312 343.60626Q369.10938 344.10626 369.29688 345.0594L368.26562 345.21564Q368.125 344.59064 367.75 344.27814Q367.375 343.95 366.84375 343.95Q366.04688 343.95 365.54688 344.52814Q365.04688 345.09064 365.04688 346.325Q365.04688 347.59064 365.53125 348.15314Q366.01562 348.71564 366.78125 348.71564Q367.40625 348.71564 367.8125 348.34064Q368.23438 347.96564 368.35938 347.16876ZM369.90625 346.34064Q369.90625 344.60626 370.85938 343.77814Q371.65625 343.09064 372.8125 343.09064Q374.09375 343.09064 374.90625 343.9344Q375.73438 344.7625 375.73438 346.2469Q375.73438 347.45 375.375 348.1375Q375.01562 348.825 374.3125 349.21564Q373.625 349.59064 372.8125 349.59064Q371.51562 349.59064 370.70312 348.7625Q369.90625 347.91876 369.90625 346.34064ZM370.98438 346.34064Q370.98438 347.52814 371.5 348.1219Q372.03125 348.71564 372.8125 348.71564Q373.60938 348.71564 374.125 348.1219Q374.64062 347.52814 374.64062 346.3094Q374.64062 345.15314 374.10938 344.5594Q373.59375 343.96564 372.8125 343.96564Q372.03125 343.96564 371.5 344.5594Q370.98438 345.1375 370.98438 346.34064ZM377.29688 349.45L377.29688 343.23126L378.23438 343.23126L378.23438 344.10626Q378.92188 343.09064 380.21875 343.09064Q380.78125 343.09064 381.25 343.29376Q381.73438 343.4969 381.96875 343.825Q382.20312 344.15314 382.29688 344.59064Q382.34375 344.8875 382.34375 345.6219L382.34375 349.45L381.29688 349.45L381.29688 345.66876Q381.29688 345.0125 381.17188 344.7Q381.04688 344.3875 380.73438 344.2Q380.42188 343.9969 380.0 343.9969Q379.32812 343.9969 378.82812 344.4344Q378.34375 344.85626 378.34375 346.04376L378.34375 349.45L377.29688 349.45ZM388.32812 349.45L388.32812 348.66876Q387.73438 349.59064 386.59375 349.59064Q385.84375 349.59064 385.21875 349.1844Q384.59375 348.7625 384.25 348.02814Q383.90625 347.29376 383.90625 346.34064Q383.90625 345.41876 384.21875 344.65314Q384.53125 343.8875 385.15625 343.4969Q385.78125 343.09064 386.54688 343.09064Q387.10938 343.09064 387.54688 343.325Q387.98438 343.5594 388.26562 343.9344L388.26562 340.85626L389.3125 340.85626L389.3125 349.45L388.32812 349.45ZM385.0 346.34064Q385.0 347.54376 385.5 348.1375Q386.0 348.71564 386.6875 348.71564Q387.375 348.71564 387.85938 348.15314Q388.34375 347.59064 388.34375 346.4344Q388.34375 345.15314 387.84375 344.5594Q387.35938 343.96564 386.64062 343.96564Q385.9375 343.96564 385.46875 344.54376Q385.0 345.10626 385.0 346.34064ZM390.875 347.59064L391.90625 347.4344Q392.0 348.0594 392.39062 348.3875Q392.79688 348.71564 393.53125 348.71564Q394.25 348.71564 394.59375 348.4344Q394.95312 348.1375 394.95312 347.73126Q394.95312 347.3719 394.64062 347.16876Q394.42188 347.02814 393.5625 346.8094Q392.40625 346.5125 391.95312 346.3094Q391.51562 346.09064 391.28125 345.71564Q391.04688 345.34064 391.04688 344.8719Q391.04688 344.46564 391.23438 344.10626Q391.42188 343.7469 391.75 343.5125Q392.0 343.34064 392.42188 343.21564Q392.84375 343.09064 393.34375 343.09064Q394.0625 343.09064 394.60938 343.3094Q395.17188 343.5125 395.4375 343.8719Q395.70312 344.23126 395.79688 344.825L394.76562 344.96564Q394.70312 344.4969 394.35938 344.23126Q394.03125 343.95 393.40625 343.95Q392.6875 343.95 392.375 344.2Q392.0625 344.4344 392.0625 344.7625Q392.0625 344.96564 392.1875 345.1219Q392.32812 345.29376 392.59375 345.40314Q392.75 345.46564 393.53125 345.66876Q394.65625 345.98126 395.09375 346.16876Q395.53125 346.35626 395.78125 346.71564Q396.03125 347.075 396.03125 347.6219Q396.03125 348.15314 395.71875 348.6219Q395.42188 349.075 394.84375 349.34064Q394.26562 349.59064 393.53125 349.59064Q392.3125 349.59064 391.67188 349.09064Q391.04688 348.575 390.875 347.59064Z" fill-rule="nonzero"/><path fill="#000000" d="M29.550013 213.47604L20.956263 213.47604L20.956263 211.7573L27.034388 209.72604Q27.893763 209.4448 28.315638 209.3198Q27.846888 209.17917 26.940638 208.86667L20.956263 206.80417L20.956263 205.27292L29.550013 205.27292L29.550013 206.36667L22.362513 206.36667L29.550013 208.86667L29.550013 209.89792L22.237513 212.3823L29.550013 212.3823L29.550013 213.47604ZM29.550013 204.49167L20.956263 204.49167L20.956263 201.2573Q20.956263 200.27292 21.221888 199.67917Q21.487513 199.08542 22.034388 198.7573Q22.565638 198.41354 23.159388 198.41354Q23.706263 198.41354 24.190638 198.71042Q24.675013 199.0073 24.971888 199.61667Q25.206263 198.83542 25.768763 198.42917Q26.315638 198.0073 27.065638 198.0073Q27.659388 198.0073 28.190638 198.2573Q28.706263 198.5073 28.987513 198.8823Q29.268763 199.2573 29.409388 199.83542Q29.550013 200.39792 29.550013 201.21042L29.550013 204.49167ZM24.565638 203.35104L24.565638 201.49167Q24.565638 200.74167 24.471888 200.41354Q24.346888 199.97604 24.050013 199.7573Q23.737513 199.53854 23.284388 199.53854Q22.862513 199.53854 22.534388 199.74167Q22.206263 199.9448 22.096888 200.33542Q21.971888 200.71042 21.971888 201.6323L21.971888 203.35104L24.565638 203.35104ZM28.534388 203.35104L28.534388 201.21042Q28.534388 200.66354 28.487513 200.4448Q28.425013 200.03854 28.268763 199.78854Q28.096888 199.52292 27.784388 199.35104Q27.471888 199.17917 27.065638 199.17917Q26.581263 199.17917 26.221888 199.42917Q25.862513 199.66354 25.721888 200.10104Q25.581263 200.53854 25.581263 201.36667L25.581263 203.35104L28.534388 203.35104ZM29.690638 197.36667L20.815638 194.8823L20.815638 194.03854L29.690638 196.52292L29.690638 197.36667ZM27.690638 193.99167L27.534388 192.96042Q28.159388 192.86667 28.487513 192.47604Q28.815638 192.0698 28.815638 191.33542Q28.815638 190.61667 28.534388 190.27292Q28.237513 189.91354 27.831263 189.91354Q27.471888 189.91354 27.268763 190.22604Q27.128138 190.4448 26.909388 191.30417Q26.612513 192.46042 26.409388 192.91354Q26.190638 193.35104 25.815638 193.58542Q25.440638 193.8198 24.971888 193.8198Q24.565638 193.8198 24.206263 193.6323Q23.846888 193.4448 23.612513 193.11667Q23.440638 192.86667 23.315638 192.4448Q23.190638 192.02292 23.190638 191.52292Q23.190638 190.80417 23.409388 190.2573Q23.612513 189.6948 23.971888 189.42917Q24.331263 189.16354 24.925013 189.0698L25.065638 190.10104Q24.596888 190.16354 24.331263 190.5073Q24.050013 190.83542 24.050013 191.46042Q24.050013 192.17917 24.300013 192.49167Q24.534388 192.80417 24.862513 192.80417Q25.065638 192.80417 25.221888 192.67917Q25.393763 192.53854 25.503138 192.27292Q25.565638 192.11667 25.768763 191.33542Q26.081263 190.21042 26.268763 189.77292Q26.456263 189.33542 26.815638 189.08542Q27.175013 188.83542 27.721888 188.83542Q28.253138 188.83542 28.721888 189.14792Q29.175013 189.4448 29.440638 190.02292Q29.690638 190.60104 29.690638 191.33542Q29.690638 192.55417 29.190638 193.1948Q28.675013 193.8198 27.690638 193.99167Z" fill-rule="nonzero"/><path fill="#000000" d="M65.05 300.21564Q65.05 298.6844 65.3625 297.7625Q65.675 296.825 66.28438 296.325Q66.90938 295.825 67.84688 295.825Q68.53438 295.825 69.05 296.10626Q69.58125 296.3875 69.925 296.91876Q70.26875 297.4344 70.45625 298.1844Q70.64375 298.9344 70.64375 300.21564Q70.64375 301.73126 70.33125 302.65314Q70.03438 303.575 69.40938 304.09064Q68.8 304.59064 67.84688 304.59064Q66.6125 304.59064 65.89375 303.7Q65.05 302.6375 65.05 300.21564ZM66.12813 300.21564Q66.12813 302.325 66.62813 303.02814Q67.12813 303.73126 67.84688 303.73126Q68.58125 303.73126 69.06563 303.02814Q69.56563 302.325 69.56563 300.21564Q69.56563 298.09064 69.06563 297.40314Q68.58125 296.7 67.83125 296.7Q67.1125 296.7 66.675 297.3094Q66.12813 298.09064 66.12813 300.21564Z" fill-rule="nonzero"/><path fill="#000000" d="M58.05 259.76666L59.159374 259.6729Q59.284374 260.4854 59.721874 260.89166Q60.175 261.2979 60.815624 261.2979Q61.565624 261.2979 62.096874 260.7198Q62.628124 260.14166 62.628124 259.20416Q62.628124 258.2979 62.1125 257.7823Q61.6125 257.25104 60.784374 257.25104Q60.284374 257.25104 59.8625 257.4854Q59.45625 257.7198 59.221874 258.07916L58.2375 257.95416L59.065624 253.54791L63.346874 253.54791L63.346874 254.54791L59.909374 254.54791L59.45625 256.8604Q60.221874 256.31354 61.065624 256.31354Q62.190624 256.31354 62.95625 257.0948Q63.7375 257.87604 63.7375 259.1104Q63.7375 260.26666 63.065624 261.12604Q62.2375 262.1573 60.815624 262.1573Q59.64375 262.1573 58.89375 261.50104Q58.159374 260.8448 58.05 259.76666ZM65.05 257.7823Q65.05 256.25104 65.3625 255.32916Q65.675 254.39166 66.28438 253.89166Q66.90938 253.39166 67.84688 253.39166Q68.53438 253.39166 69.05 253.67291Q69.58125 253.95416 69.925 254.48541Q70.26875 255.00104 70.45625 255.75104Q70.64375 256.50104 70.64375 257.7823Q70.64375 259.2979 70.33125 260.2198Q70.03438 261.14166 69.40938 261.6573Q68.8 262.1573 67.84688 262.1573Q66.6125 262.1573 65.89375 261.26666Q65.05 260.20416 65.05 257.7823ZM66.12813 257.7823Q66.12813 259.89166 66.62813 260.5948Q67.12813 261.2979 67.84688 261.2979Q68.58125 261.2979 69.06563 260.5948Q69.56563 259.89166 69.56563 257.7823Q69.56563 255.65729 69.06563 254.96979Q68.58125 254.26666 67.83125 254.26666Q67.1125 254.26666 66.675 254.87604Q66.12813 255.65729 66.12813 257.7823Z" fill-rule="nonzero"/><path fill="#000000" d="M55.01875 219.58333L53.971874 219.58333L53.971874 212.86458Q53.58125 213.22395 52.95625 213.59895Q52.346874 213.95833 51.8625 214.1302L51.8625 213.11458Q52.7375 212.6927 53.39375 212.11458Q54.065624 211.52083 54.346874 210.95833L55.01875 210.95833L55.01875 219.58333ZM58.05 215.34895Q58.05 213.8177 58.3625 212.89583Q58.675 211.95833 59.284374 211.45833Q59.909374 210.95833 60.846874 210.95833Q61.534374 210.95833 62.05 211.23958Q62.58125 211.52083 62.925 212.05208Q63.26875 212.5677 63.45625 213.3177Q63.64375 214.0677 63.64375 215.34895Q63.64375 216.86458 63.33125 217.78645Q63.034374 218.70833 62.409374 219.22395Q61.8 219.72395 60.846874 219.72395Q59.6125 219.72395 58.89375 218.83333Q58.05 217.77083 58.05 215.34895ZM59.128124 215.34895Q59.128124 217.45833 59.628124 218.16145Q60.128124 218.86458 60.846874 218.86458Q61.58125 218.86458 62.065624 218.16145Q62.565624 217.45833 62.565624 215.34895Q62.565624 213.22395 62.065624 212.53645Q61.58125 211.83333 60.83125 211.83333Q60.1125 211.83333 59.675 212.4427Q59.128124 213.22395 59.128124 215.34895ZM65.05 215.34895Q65.05 213.8177 65.3625 212.89583Q65.675 211.95833 66.28438 211.45833Q66.90938 210.95833 67.84688 210.95833Q68.53438 210.95833 69.05 211.23958Q69.58125 211.52083 69.925 212.05208Q70.26875 212.5677 70.45625 213.3177Q70.64375 214.0677 70.64375 215.34895Q70.64375 216.86458 70.33125 217.78645Q70.03438 218.70833 69.40938 219.22395Q68.8 219.72395 67.84688 219.72395Q66.6125 219.72395 65.89375 218.83333Q65.05 217.77083 65.05 215.34895ZM66.12813 215.34895Q66.12813 217.45833 66.62813 218.16145Q67.12813 218.86458 67.84688 218.86458Q68.58125 218.86458 69.06563 218.16145Q69.56563 217.45833 69.56563 215.34895Q69.56563 213.22395 69.06563 212.53645Q68.58125 211.83333 67.83125 211.83333Q67.1125 211.83333 66.675 212.4427Q66.12813 213.22395 66.12813 215.34895Z" fill-rule="nonzero"/><path fill="#000000" d="M55.01875 177.15L53.971874 177.15L53.971874 170.43124Q53.58125 170.79062 52.95625 171.16562Q52.346874 171.525 51.8625 171.69687L51.8625 170.68124Q52.7375 170.25937 53.39375 169.68124Q54.065624 169.0875 54.346874 168.525L55.01875 168.525L55.01875 177.15ZM58.05 174.9L59.159374 174.80624Q59.284374 175.61874 59.721874 176.025Q60.175 176.43124 60.815624 176.43124Q61.565624 176.43124 62.096874 175.85312Q62.628124 175.275 62.628124 174.3375Q62.628124 173.43124 62.1125 172.91562Q61.6125 172.38437 60.784374 172.38437Q60.284374 172.38437 59.8625 172.61874Q59.45625 172.85312 59.221874 173.2125L58.2375 173.0875L59.065624 168.68124L63.346874 168.68124L63.346874 169.68124L59.909374 169.68124L59.45625 171.99374Q60.221874 171.44687 61.065624 171.44687Q62.190624 171.44687 62.95625 172.22812Q63.7375 173.00937 63.7375 174.24374Q63.7375 175.4 63.065624 176.25937Q62.2375 177.29062 60.815624 177.29062Q59.64375 177.29062 58.89375 176.63437Q58.159374 175.97812 58.05 174.9ZM65.05 172.91562Q65.05 171.38437 65.3625 170.4625Q65.675 169.525 66.28438 169.025Q66.90938 168.525 67.84688 168.525Q68.53438 168.525 69.05 168.80624Q69.58125 169.0875 69.925 169.61874Q70.26875 170.13437 70.45625 170.88437Q70.64375 171.63437 70.64375 172.91562Q70.64375 174.43124 70.33125 175.35312Q70.03438 176.275 69.40938 176.79062Q68.8 177.29062 67.84688 177.29062Q66.6125 177.29062 65.89375 176.4Q65.05 175.3375 65.05 172.91562ZM66.12813 172.91562Q66.12813 175.025 66.62813 175.72812Q67.12813 176.43124 67.84688 176.43124Q68.58125 176.43124 69.06563 175.72812Q69.56563 175.025 69.56563 172.91562Q69.56563 170.79062 69.06563 170.10312Q68.58125 169.4 67.83125 169.4Q67.1125 169.4 66.675 170.00937Q66.12813 170.79062 66.12813 172.91562Z" fill-rule="nonzero"/><path fill="#000000" d="M56.596874 133.70103L56.596874 134.71666L50.909374 134.71666Q50.909374 134.34166 51.034374 133.98228Q51.253124 133.40416 51.721874 132.84166Q52.20625 132.27916 53.1125 131.54478Q54.51875 130.38853 55.003124 129.71666Q55.503124 129.04478 55.503124 128.45103Q55.503124 127.826035 55.05 127.40416Q54.596874 126.96666 53.878124 126.96666Q53.1125 126.96666 52.659374 127.419785Q52.20625 127.87291 52.190624 128.68541L51.1125 128.57603Q51.221874 127.357285 51.940624 126.732285Q52.675 126.09166 53.909374 126.09166Q55.14375 126.09166 55.8625 126.77916Q56.58125 127.46666 56.58125 128.48228Q56.58125 128.99791 56.3625 129.49791Q56.159374 129.98228 55.659374 130.54478Q55.175 131.09166 54.05 132.04478Q53.096874 132.84166 52.815624 133.13853Q52.55 133.41978 52.378124 133.70103L56.596874 133.70103ZM58.05 130.48228Q58.05 128.95103 58.3625 128.02916Q58.675 127.09166 59.284374 126.59166Q59.909374 126.09166 60.846874 126.09166Q61.534374 126.09166 62.05 126.37291Q62.58125 126.65416 62.925 127.18541Q63.26875 127.701035 63.45625 128.45103Q63.64375 129.20103 63.64375 130.48228Q63.64375 131.99791 63.33125 132.91978Q63.034374 133.84166 62.409374 134.35728Q61.8 134.85728 60.846874 134.85728Q59.6125 134.85728 58.89375 133.96666Q58.05 132.90416 58.05 130.48228ZM59.128124 130.48228Q59.128124 132.59166 59.628124 133.29478Q60.128124 133.99791 60.846874 133.99791Q61.58125 133.99791 62.065624 133.29478Q62.565624 132.59166 62.565624 130.48228Q62.565624 128.35728 62.065624 127.669785Q61.58125 126.96666 60.83125 126.96666Q60.1125 126.96666 59.675 127.576035Q59.128124 128.35728 59.128124 130.48228ZM65.05 130.48228Q65.05 128.95103 65.3625 128.02916Q65.675 127.09166 66.28438 126.59166Q66.90938 126.09166 67.84688 126.09166Q68.53438 126.09166 69.05 126.37291Q69.58125 126.65416 69.925 127.18541Q70.26875 127.701035 70.45625 128.45103Q70.64375 129.20103 70.64375 130.48228Q70.64375 131.99791 70.33125 132.91978Q70.03438 133.84166 69.40938 134.35728Q68.8 134.85728 67.84688 134.85728Q66.6125 134.85728 65.89375 133.96666Q65.05 132.90416 65.05 130.48228ZM66.12813 130.48228Q66.12813 132.59166 66.62813 133.29478Q67.12813 133.99791 67.84688 133.99791Q68.58125 133.99791 69.06563 133.29478Q69.56563 132.59166 69.56563 130.48228Q69.56563 128.35728 69.06563 127.669785Q68.58125 126.96666 67.83125 126.96666Q67.1125 126.96666 66.675 127.576035Q66.12813 128.35728 66.12813 130.48228Z" fill-rule="nonzero"/><path fill="#000000" d="M56.596874 91.26771L56.596874 92.28333L50.909374 92.28333Q50.909374 91.90833 51.034374 91.54896Q51.253124 90.97083 51.721874 90.40833Q52.20625 89.84583 53.1125 89.11146Q54.51875 87.95521 55.003124 87.28333Q55.503124 86.61146 55.503124 86.01771Q55.503124 85.39271 55.05 84.97083Q54.596874 84.53333 53.878124 84.53333Q53.1125 84.53333 52.659374 84.98646Q52.20625 85.43958 52.190624 86.25208L51.1125 86.14271Q51.221874 84.92396 51.940624 84.29896Q52.675 83.65833 53.909374 83.65833Q55.14375 83.65833 55.8625 84.34583Q56.58125 85.03333 56.58125 86.04896Q56.58125 86.56458 56.3625 87.06458Q56.159374 87.54896 55.659374 88.11146Q55.175 88.65833 54.05 89.61146Q53.096874 90.40833 52.815624 90.70521Q52.55 90.98646 52.378124 91.26771L56.596874 91.26771ZM58.05 90.03333L59.159374 89.93958Q59.284374 90.75208 59.721874 91.15833Q60.175 91.56458 60.815624 91.56458Q61.565624 91.56458 62.096874 90.98646Q62.628124 90.40833 62.628124 89.47083Q62.628124 88.56458 62.1125 88.04896Q61.6125 87.51771 60.784374 87.51771Q60.284374 87.51771 59.8625 87.75208Q59.45625 87.98646 59.221874 88.34583L58.2375 88.22083L59.065624 83.81458L63.346874 83.81458L63.346874 84.81458L59.909374 84.81458L59.45625 87.12708Q60.221874 86.58021 61.065624 86.58021Q62.190624 86.58021 62.95625 87.36146Q63.7375 88.14271 63.7375 89.37708Q63.7375 90.53333 63.065624 91.39271Q62.2375 92.42396 60.815624 92.42396Q59.64375 92.42396 58.89375 91.76771Q58.159374 91.11146 58.05 90.03333ZM65.05 88.04896Q65.05 86.51771 65.3625 85.59583Q65.675 84.65833 66.28438 84.15833Q66.90938 83.65833 67.84688 83.65833Q68.53438 83.65833 69.05 83.93958Q69.58125 84.22083 69.925 84.75208Q70.26875 85.26771 70.45625 86.01771Q70.64375 86.76771 70.64375 88.04896Q70.64375 89.56458 70.33125 90.48646Q70.03438 91.40833 69.40938 91.92396Q68.8 92.42396 67.84688 92.42396Q66.6125 92.42396 65.89375 91.53333Q65.05 90.47083 65.05 88.04896ZM66.12813 88.04896Q66.12813 90.15833 66.62813 90.86146Q67.12813 91.56458 67.84688 91.56458Q68.58125 91.56458 69.06563 90.86146Q69.56563 90.15833 69.56563 88.04896Q69.56563 85.92396 69.06563 85.23646Q68.58125 84.53333 67.83125 84.53333Q67.1125 84.53333 66.675 85.14271Q66.12813 85.92396 66.12813 88.04896Z" fill-rule="nonzero"/><path fill="#000000" d="M74.55 313.21564Q74.55 311.6844 74.8625 310.7625Q75.175 309.825 75.78438 309.325Q76.40938 308.825 77.34688 308.825Q78.03438 308.825 78.55 309.10626Q79.08125 309.3875 79.425 309.91876Q79.76875 310.4344 79.95625 311.1844Q80.14375 311.9344 80.14375 313.21564Q80.14375 314.73126 79.83125 315.65314Q79.53438 316.575 78.90938 317.09064Q78.3 317.59064 77.34688 317.59064Q76.1125 317.59064 75.39375 316.7Q74.55 315.6375 74.55 313.21564ZM75.62813 313.21564Q75.62813 315.325 76.12813 316.02814Q76.62813 316.73126 77.34688 316.73126Q78.08125 316.73126 78.56563 316.02814Q79.06563 315.325 79.06563 313.21564Q79.06563 311.09064 78.56563 310.40314Q78.08125 309.7 77.33125 309.7Q76.6125 309.7 76.175 310.3094Q75.62813 311.09064 75.62813 313.21564Z" fill-rule="nonzero"/><path fill="#000000" d="M200.72388 317.45L199.677 317.45L199.677 310.73126Q199.28638 311.09064 198.66138 311.46564Q198.052 311.825 197.56763 311.9969L197.56763 310.98126Q198.44263 310.5594 199.09888 309.98126Q199.77075 309.3875 200.052 308.825L200.72388 308.825L200.72388 317.45ZM203.75513 313.21564Q203.75513 311.6844 204.06763 310.7625Q204.38013 309.825 204.9895 309.325Q205.6145 308.825 206.552 308.825Q207.2395 308.825 207.75513 309.10626Q208.28638 309.3875 208.63013 309.91876Q208.97388 310.4344 209.16138 311.1844Q209.34888 311.9344 209.34888 313.21564Q209.34888 314.73126 209.03638 315.65314Q208.7395 316.575 208.1145 317.09064Q207.50513 317.59064 206.552 317.59064Q205.31763 317.59064 204.59888 316.7Q203.75513 315.6375 203.75513 313.21564ZM204.83325 313.21564Q204.83325 315.325 205.33325 316.02814Q205.83325 316.73126 206.552 316.73126Q207.28638 316.73126 207.77075 316.02814Q208.27075 315.325 208.27075 313.21564Q208.27075 311.09064 207.77075 310.40314Q207.28638 309.7 206.53638 309.7Q205.81763 309.7 205.38013 310.3094Q204.83325 311.09064 204.83325 313.21564ZM210.75513 313.21564Q210.75513 311.6844 211.06763 310.7625Q211.38013 309.825 211.9895 309.325Q212.6145 308.825 213.552 308.825Q214.2395 308.825 214.75513 309.10626Q215.28638 309.3875 215.63013 309.91876Q215.97388 310.4344 216.16138 311.1844Q216.34888 311.9344 216.34888 313.21564Q216.34888 314.73126 216.03638 315.65314Q215.7395 316.575 215.1145 317.09064Q214.50513 317.59064 213.552 317.59064Q212.31763 317.59064 211.59888 316.7Q210.75513 315.6375 210.75513 313.21564ZM211.83325 313.21564Q211.83325 315.325 212.33325 316.02814Q212.83325 316.73126 213.552 316.73126Q214.28638 316.73126 214.77075 316.02814Q215.27075 315.325 215.27075 313.21564Q215.27075 311.09064 214.77075 310.40314Q214.28638 309.7 213.53638 309.7Q212.81763 309.7 212.38013 310.3094Q211.83325 311.09064 211.83325 313.21564Z" fill-rule="nonzero"/><path fill="#000000" d="M331.50714 316.4344L331.50714 317.45L325.81964 317.45Q325.81964 317.075 325.94464 316.71564Q326.1634 316.1375 326.63214 315.575Q327.11652 315.0125 328.02277 314.27814Q329.42902 313.1219 329.9134 312.45Q330.4134 311.77814 330.4134 311.1844Q330.4134 310.5594 329.96027 310.1375Q329.50714 309.7 328.7884 309.7Q328.02277 309.7 327.56964 310.15314Q327.11652 310.60626 327.1009 311.41876L326.02277 311.3094Q326.13214 310.09064 326.8509 309.46564Q327.58527 308.825 328.81964 308.825Q330.05402 308.825 330.77277 309.5125Q331.49152 310.2 331.49152 311.21564Q331.49152 311.73126 331.27277 312.23126Q331.06964 312.71564 330.56964 313.27814Q330.08527 313.825 328.96027 314.77814Q328.00714 315.575 327.7259 315.8719Q327.46027 316.15314 327.2884 316.4344L331.50714 316.4344ZM332.96027 313.21564Q332.96027 311.6844 333.27277 310.7625Q333.58527 309.825 334.19464 309.325Q334.81964 308.825 335.75714 308.825Q336.44464 308.825 336.96027 309.10626Q337.49152 309.3875 337.83527 309.91876Q338.17902 310.4344 338.36652 311.1844Q338.55402 311.9344 338.55402 313.21564Q338.55402 314.73126 338.24152 315.65314Q337.94464 316.575 337.31964 317.09064Q336.71027 317.59064 335.75714 317.59064Q334.52277 317.59064 333.80402 316.7Q332.96027 315.6375 332.96027 313.21564ZM334.0384 313.21564Q334.0384 315.325 334.5384 316.02814Q335.0384 316.73126 335.75714 316.73126Q336.49152 316.73126 336.9759 316.02814Q337.4759 315.325 337.4759 313.21564Q337.4759 311.09064 336.9759 310.40314Q336.49152 309.7 335.74152 309.7Q335.02277 309.7 334.58527 310.3094Q334.0384 311.09064 334.0384 313.21564ZM339.96027 313.21564Q339.96027 311.6844 340.27277 310.7625Q340.58527 309.825 341.19464 309.325Q341.81964 308.825 342.75714 308.825Q343.44464 308.825 343.96027 309.10626Q344.49152 309.3875 344.83527 309.91876Q345.17902 310.4344 345.36652 311.1844Q345.55402 311.9344 345.55402 313.21564Q345.55402 314.73126 345.24152 315.65314Q344.94464 316.575 344.31964 317.09064Q343.71027 317.59064 342.75714 317.59064Q341.52277 317.59064 340.80402 316.7Q339.96027 315.6375 339.96027 313.21564ZM341.0384 313.21564Q341.0384 315.325 341.5384 316.02814Q342.0384 316.73126 342.75714 316.73126Q343.49152 316.73126 343.9759 316.02814Q344.4759 315.325 344.4759 313.21564Q344.4759 311.09064 343.9759 310.40314Q343.49152 309.7 342.74152 309.7Q342.02277 309.7 341.58527 310.3094Q341.0384 311.09064 341.0384 313.21564Z" fill-rule="nonzero"/><path fill="#000000" d="M455.16537 315.1844L456.22787 315.04376Q456.39975 315.9344 456.83725 316.34064Q457.27475 316.73126 457.89975 316.73126Q458.64975 316.73126 459.16537 316.21564Q459.681 315.7 459.681 314.9344Q459.681 314.21564 459.19662 313.7469Q458.72787 313.2625 457.9935 313.2625Q457.69662 313.2625 457.2435 313.3875L457.3685 312.45Q457.47787 312.46564 457.54037 312.46564Q458.21225 312.46564 458.7435 312.1219Q459.29037 311.7625 459.29037 311.02814Q459.29037 310.45 458.89975 310.075Q458.50912 309.6844 457.88412 309.6844Q457.27475 309.6844 456.85287 310.075Q456.44662 310.46564 456.33725 311.23126L455.27475 311.04376Q455.46225 309.9969 456.14975 309.41876Q456.83725 308.825 457.85287 308.825Q458.556 308.825 459.14975 309.1375Q459.7435 309.4344 460.056 309.95Q460.3685 310.46564 460.3685 311.0594Q460.3685 311.60626 460.07162 312.075Q459.77475 312.52814 459.19662 312.79376Q459.94662 312.96564 460.3685 313.52814Q460.79037 314.075 460.79037 314.91876Q460.79037 316.04376 459.96225 316.825Q459.14975 317.60626 457.89975 317.60626Q456.77475 317.60626 456.02475 316.9344Q455.27475 316.2469 455.16537 315.1844ZM462.16537 313.21564Q462.16537 311.6844 462.47787 310.7625Q462.79037 309.825 463.39975 309.325Q464.02475 308.825 464.96225 308.825Q465.64975 308.825 466.16537 309.10626Q466.69662 309.3875 467.04037 309.91876Q467.38412 310.4344 467.57162 311.1844Q467.75912 311.9344 467.75912 313.21564Q467.75912 314.73126 467.44662 315.65314Q467.14975 316.575 466.52475 317.09064Q465.91537 317.59064 464.96225 317.59064Q463.72787 317.59064 463.00912 316.7Q462.16537 315.6375 462.16537 313.21564ZM463.2435 313.21564Q463.2435 315.325 463.7435 316.02814Q464.2435 316.73126 464.96225 316.73126Q465.69662 316.73126 466.181 316.02814Q466.681 315.325 466.681 313.21564Q466.681 311.09064 466.181 310.40314Q465.69662 309.7 464.94662 309.7Q464.22787 309.7 463.79037 310.3094Q463.2435 311.09064 463.2435 313.21564ZM469.16537 313.21564Q469.16537 311.6844 469.47787 310.7625Q469.79037 309.825 470.39975 309.325Q471.02475 308.825 471.96225 308.825Q472.64975 308.825 473.16537 309.10626Q473.69662 309.3875 474.04037 309.91876Q474.38412 310.4344 474.57162 311.1844Q474.75912 311.9344 474.75912 313.21564Q474.75912 314.73126 474.44662 315.65314Q474.14975 316.575 473.52475 317.09064Q472.91537 317.59064 471.96225 317.59064Q470.72787 317.59064 470.00912 316.7Q469.16537 315.6375 469.16537 313.21564ZM470.2435 313.21564Q470.2435 315.325 470.7435 316.02814Q471.2435 316.73126 471.96225 316.73126Q472.69662 316.73126 473.181 316.02814Q473.681 315.325 473.681 313.21564Q473.681 311.09064 473.181 310.40314Q472.69662 309.7 471.94662 309.7Q471.22787 309.7 470.79037 310.3094Q470.2435 311.09064 470.2435 313.21564Z" fill-rule="nonzero"/><path stroke="#4285f4" stroke-width="4.0" stroke-linecap="butt" d="M172.0 61.916668L184.0 61.916668" fill-rule="nonzero"/><path fill="#1a1a1a" d="M192.79688 65.916664L192.79688 57.322914L193.85938 57.322914L193.85938 62.229164L196.34375 59.697914L197.71875 59.697914L195.32812 61.99479L197.95312 65.916664L196.65625 65.916664L194.59375 62.729164L193.85938 63.447914L193.85938 65.916664L192.79688 65.916664ZM198.5 63.65104L199.5625 63.510414Q199.73438 64.40104 200.17188 64.80729Q200.60938 65.197914 201.23438 65.197914Q201.98438 65.197914 202.5 64.68229Q203.01562 64.166664 203.01562 63.40104Q203.01562 62.68229 202.53125 62.21354Q202.0625 61.729164 201.32812 61.729164Q201.03125 61.729164 200.57812 61.854164L200.70312 60.916664Q200.8125 60.93229 200.875 60.93229Q201.54688 60.93229 202.07812 60.58854Q202.625 60.229164 202.625 59.49479Q202.625 58.916664 202.23438 58.541664Q201.84375 58.15104 201.21875 58.15104Q200.60938 58.15104 200.1875 58.541664Q199.78125 58.93229 199.67188 59.697914L198.60938 59.510414Q198.79688 58.46354 199.48438 57.885414Q200.17188 57.291664 201.1875 57.291664Q201.89062 57.291664 202.48438 57.604164Q203.07812 57.90104 203.39062 58.416664Q203.70312 58.93229 203.70312 59.52604Q203.70312 60.072914 203.40625 60.541664Q203.10938 60.99479 202.53125 61.260414Q203.28125 61.43229 203.70312 61.99479Q204.125 62.541664 204.125 63.385414Q204.125 64.510414 203.29688 65.291664Q202.48438 66.072914 201.23438 66.072914Q200.10938 66.072914 199.35938 65.40104Q198.60938 64.71354 198.5 63.65104ZM205.375 64.05729L206.40625 63.90104Q206.5 64.52604 206.89062 64.854164Q207.29688 65.18229 208.03125 65.18229Q208.75 65.18229 209.09375 64.90104Q209.45312 64.604164 209.45312 64.197914Q209.45312 63.83854 209.14062 63.635414Q208.92188 63.49479 208.0625 63.27604Q206.90625 62.979164 206.45312 62.77604Q206.01562 62.55729 205.78125 62.18229Q205.54688 61.80729 205.54688 61.33854Q205.54688 60.93229 205.73438 60.572914Q205.92188 60.21354 206.25 59.979164Q206.5 59.80729 206.92188 59.68229Q207.34375 59.55729 207.84375 59.55729Q208.5625 59.55729 209.10938 59.77604Q209.67188 59.979164 209.9375 60.33854Q210.20312 60.697914 210.29688 61.291664L209.26562 61.43229Q209.20312 60.96354 208.85938 60.697914Q208.53125 60.416664 207.90625 60.416664Q207.1875 60.416664 206.875 60.666664Q206.5625 60.90104 206.5625 61.229164Q206.5625 61.43229 206.6875 61.58854Q206.82812 61.760414 207.09375 61.86979Q207.25 61.93229 208.03125 62.135414Q209.15625 62.447914 209.59375 62.635414Q210.03125 62.822914 210.28125 63.18229Q210.53125 63.541664 210.53125 64.08854Q210.53125 64.61979 210.21875 65.08854Q209.92188 65.541664 209.34375 65.80729Q208.76562 66.05729 208.03125 66.05729Q206.8125 66.05729 206.17188 65.55729Q205.54688 65.041664 205.375 64.05729ZM215.79688 68.30729L215.79688 59.697914L216.75 59.697914L216.75 60.49479Q217.09375 60.02604 217.51562 59.791664Q217.95312 59.55729 218.5625 59.55729Q219.35938 59.55729 219.96875 59.96354Q220.57812 60.36979 220.875 61.11979Q221.1875 61.86979 221.1875 62.760414Q221.1875 63.71354 220.84375 64.479164Q220.51562 65.24479 219.85938 65.65104Q219.20312 66.05729 218.48438 66.05729Q217.95312 66.05729 217.53125 65.83854Q217.10938 65.604164 216.84375 65.27604L216.84375 68.30729L215.79688 68.30729ZM216.75 62.83854Q216.75 64.041664 217.23438 64.61979Q217.71875 65.18229 218.40625 65.18229Q219.10938 65.18229 219.60938 64.58854Q220.10938 63.99479 220.10938 62.74479Q220.10938 61.55729 219.625 60.979164Q219.14062 60.385414 218.45312 60.385414Q217.78125 60.385414 217.26562 61.010414Q216.75 61.635414 216.75 62.83854ZM222.78125 65.916664L222.78125 59.697914L223.73438 59.697914L223.73438 60.635414Q224.09375 59.979164 224.39062 59.77604Q224.70312 59.55729 225.07812 59.55729Q225.60938 59.55729 226.15625 59.885414L225.79688 60.86979Q225.40625 60.635414 225.03125 60.635414Q224.67188 60.635414 224.39062 60.854164Q224.125 61.05729 224.01562 61.43229Q223.82812 61.99479 223.82812 62.65104L223.82812 65.916664L222.78125 65.916664ZM226.40625 62.80729Q226.40625 61.072914 227.35938 60.24479Q228.15625 59.55729 229.3125 59.55729Q230.59375 59.55729 231.40625 60.40104Q232.23438 61.229164 232.23438 62.71354Q232.23438 63.916664 231.875 64.604164Q231.51562 65.291664 230.8125 65.68229Q230.125 66.05729 229.3125 66.05729Q228.01562 66.05729 227.20312 65.229164Q226.40625 64.385414 226.40625 62.80729ZM227.48438 62.80729Q227.48438 63.99479 228.0 64.58854Q228.53125 65.18229 229.3125 65.18229Q230.10938 65.18229 230.625 64.58854Q231.14062 63.99479 231.14062 62.77604Q231.14062 61.61979 230.60938 61.02604Q230.09375 60.43229 229.3125 60.43229Q228.53125 60.43229 228.0 61.02604Q227.48438 61.604164 227.48438 62.80729Z" fill-rule="nonzero"/><path stroke="#ea4335" stroke-width="4.0" stroke-linecap="butt" d="M252.0 61.916668L264.0 61.916668" fill-rule="nonzero"/><path fill="#1a1a1a" d="M272.79688 65.916664L272.79688 57.322914L273.85938 57.322914L273.85938 62.229164L276.34375 59.697914L277.71875 59.697914L275.32812 61.99479L277.95312 65.916664L276.65625 65.916664L274.59375 62.729164L273.85938 63.447914L273.85938 65.916664L272.79688 65.916664ZM278.5 63.65104L279.5625 63.510414Q279.73438 64.40104 280.17188 64.80729Q280.60938 65.197914 281.23438 65.197914Q281.98438 65.197914 282.5 64.68229Q283.01562 64.166664 283.01562 63.40104Q283.01562 62.68229 282.53125 62.21354Q282.0625 61.729164 281.32812 61.729164Q281.03125 61.729164 280.57812 61.854164L280.70312 60.916664Q280.8125 60.93229 280.875 60.93229Q281.54688 60.93229 282.07812 60.58854Q282.625 60.229164 282.625 59.49479Q282.625 58.916664 282.23438 58.541664Q281.84375 58.15104 281.21875 58.15104Q280.60938 58.15104 280.1875 58.541664Q279.78125 58.93229 279.67188 59.697914L278.60938 59.510414Q278.79688 58.46354 279.48438 57.885414Q280.17188 57.291664 281.1875 57.291664Q281.89062 57.291664 282.48438 57.604164Q283.07812 57.90104 283.39062 58.416664Q283.70312 58.93229 283.70312 59.52604Q283.70312 60.072914 283.40625 60.541664Q283.10938 60.99479 282.53125 61.260414Q283.28125 61.43229 283.70312 61.99479Q284.125 62.541664 284.125 63.385414Q284.125 64.510414 283.29688 65.291664Q282.48438 66.072914 281.23438 66.072914Q280.10938 66.072914 279.35938 65.40104Q278.60938 64.71354 278.5 63.65104ZM285.375 64.05729L286.40625 63.90104Q286.5 64.52604 286.89062 64.854164Q287.29688 65.18229 288.03125 65.18229Q288.75 65.18229 289.09375 64.90104Q289.45312 64.604164 289.45312 64.197914Q289.45312 63.83854 289.14062 63.635414Q288.92188 63.49479 288.0625 63.27604Q286.90625 62.979164 286.45312 62.77604Q286.01562 62.55729 285.78125 62.18229Q285.54688 61.80729 285.54688 61.33854Q285.54688 60.93229 285.73438 60.572914Q285.92188 60.21354 286.25 59.979164Q286.5 59.80729 286.92188 59.68229Q287.34375 59.55729 287.84375 59.55729Q288.5625 59.55729 289.10938 59.77604Q289.67188 59.979164 289.9375 60.33854Q290.20312 60.697914 290.29688 61.291664L289.26562 61.43229Q289.20312 60.96354 288.85938 60.697914Q288.53125 60.416664 287.90625 60.416664Q287.1875 60.416664 286.875 60.666664Q286.5625 60.90104 286.5625 61.229164Q286.5625 61.43229 286.6875 61.58854Q286.82812 61.760414 287.09375 61.86979Q287.25 61.93229 288.03125 62.135414Q289.15625 62.447914 289.59375 62.635414Q290.03125 62.822914 290.28125 63.18229Q290.53125 63.541664 290.53125 64.08854Q290.53125 64.61979 290.21875 65.08854Q289.92188 65.541664 289.34375 65.80729Q288.76562 66.05729 288.03125 66.05729Q286.8125 66.05729 286.17188 65.55729Q285.54688 65.041664 285.375 64.05729ZM295.40625 62.80729Q295.40625 61.072914 296.35938 60.24479Q297.15625 59.55729 298.3125 59.55729Q299.59375 59.55729 300.40625 60.40104Q301.23438 61.229164 301.23438 62.71354Q301.23438 63.916664 300.875 64.604164Q300.51562 65.291664 299.8125 65.68229Q299.125 66.05729 298.3125 66.05729Q297.01562 66.05729 296.20312 65.229164Q295.40625 64.385414 295.40625 62.80729ZM296.48438 62.80729Q296.48438 63.99479 297.0 64.58854Q297.53125 65.18229 298.3125 65.18229Q299.10938 65.18229 299.625 64.58854Q300.14062 63.99479 300.14062 62.77604Q300.14062 61.61979 299.60938 61.02604Q299.09375 60.43229 298.3125 60.43229Q297.53125 60.43229 297.0 61.02604Q296.48438 61.604164 296.48438 62.80729ZM302.375 64.05729L303.40625 63.90104Q303.5 64.52604 303.89062 64.854164Q304.29688 65.18229 305.03125 65.18229Q305.75 65.18229 306.09375 64.90104Q306.45312 64.604164 306.45312 64.197914Q306.45312 63.83854 306.14062 63.635414Q305.92188 63.49479 305.0625 63.27604Q303.90625 62.979164 303.45312 62.77604Q303.01562 62.55729 302.78125 62.18229Q302.54688 61.80729 302.54688 61.33854Q302.54688 60.93229 302.73438 60.572914Q302.92188 60.21354 303.25 59.979164Q303.5 59.80729 303.92188 59.68229Q304.34375 59.55729 304.84375 59.55729Q305.5625 59.55729 306.10938 59.77604Q306.67188 59.979164 306.9375 60.33854Q307.20312 60.697914 307.29688 61.291664L306.26562 61.43229Q306.20312 60.96354 305.85938 60.697914Q305.53125 60.416664 304.90625 60.416664Q304.1875 60.416664 303.875 60.666664Q303.5625 60.90104 303.5625 61.229164Q303.5625 61.43229 303.6875 61.58854Q303.82812 61.760414 304.09375 61.86979Q304.25 61.93229 305.03125 62.135414Q306.15625 62.447914 306.59375 62.635414Q307.03125 62.822914 307.28125 63.18229Q307.53125 63.541664 307.53125 64.08854Q307.53125 64.61979 307.21875 65.08854Q306.92188 65.541664 306.34375 65.80729Q305.76562 66.05729 305.03125 66.05729Q303.8125 66.05729 303.17188 65.55729Q302.54688 65.041664 302.375 64.05729ZM309.375 64.05729L310.40625 63.90104Q310.5 64.52604 310.89062 64.854164Q311.29688 65.18229 312.03125 65.18229Q312.75 65.18229 313.09375 64.90104Q313.45312 64.604164 313.45312 64.197914Q313.45312 63.83854 313.14062 63.635414Q312.92188 63.49479 312.0625 63.27604Q310.90625 62.979164 310.45312 62.77604Q310.01562 62.55729 309.78125 62.18229Q309.54688 61.80729 309.54688 61.33854Q309.54688 60.93229 309.73438 60.572914Q309.92188 60.21354 310.25 59.979164Q310.5 59.80729 310.92188 59.68229Q311.34375 59.55729 311.84375 59.55729Q312.5625 59.55729 313.10938 59.77604Q313.67188 59.979164 313.9375 60.33854Q314.20312 60.697914 314.29688 61.291664L313.26562 61.43229Q313.20312 60.96354 312.85938 60.697914Q312.53125 60.416664 311.90625 60.416664Q311.1875 60.416664 310.875 60.666664Q310.5625 60.90104 310.5625 61.229164Q310.5625 61.43229 310.6875 61.58854Q310.82812 61.760414 311.09375 61.86979Q311.25 61.93229 312.03125 62.135414Q313.15625 62.447914 313.59375 62.635414Q314.03125 62.822914 314.28125 63.18229Q314.53125 63.541664 314.53125 64.08854Q314.53125 64.61979 314.21875 65.08854Q313.92188 65.541664 313.34375 65.80729Q312.76562 66.05729 312.03125 66.05729Q310.8125 66.05729 310.17188 65.55729Q309.54688 65.041664 309.375 64.05729Z" fill-rule="nonzero"/><path stroke="#fbbc04" stroke-width="4.0" stroke-linecap="butt" d="M332.0 61.916668L344.0 61.916668" fill-rule="nonzero"/><path fill="#1a1a1a" d="M352.79688 65.916664L352.79688 57.322914L353.85938 57.322914L353.85938 62.229164L356.34375 59.697914L357.71875 59.697914L355.32812 61.99479L357.95312 65.916664L356.65625 65.916664L354.59375 62.729164L353.85938 63.447914L353.85938 65.916664L352.79688 65.916664ZM358.5 61.68229Q358.5 60.15104 358.8125 59.229164Q359.125 58.291664 359.73438 57.791664Q360.35938 57.291664 361.29688 57.291664Q361.98438 57.291664 362.5 57.572914Q363.03125 57.854164 363.375 58.385414Q363.71875 58.90104 363.90625 59.65104Q364.09375 60.40104 364.09375 61.68229Q364.09375 63.197914 363.78125 64.11979Q363.48438 65.041664 362.85938 65.55729Q362.25 66.05729 361.29688 66.05729Q360.0625 66.05729 359.34375 65.166664Q358.5 64.104164 358.5 61.68229ZM359.57812 61.68229Q359.57812 63.791664 360.07812 64.49479Q360.57812 65.197914 361.29688 65.197914Q362.03125 65.197914 362.51562 64.49479Q363.01562 63.791664 363.01562 61.68229Q363.01562 59.55729 362.51562 58.86979Q362.03125 58.166664 361.28125 58.166664Q360.5625 58.166664 360.125 58.77604Q359.57812 59.55729 359.57812 61.68229ZM365.375 64.05729L366.40625 63.90104Q366.5 64.52604 366.89062 64.854164Q367.29688 65.18229 368.03125 65.18229Q368.75 65.18229 369.09375 64.90104Q369.45312 64.604164 369.45312 64.197914Q369.45312 63.83854 369.14062 63.635414Q368.92188 63.49479 368.0625 63.27604Q366.90625 62.979164 366.45312 62.77604Q366.01562 62.55729 365.78125 62.18229Q365.54688 61.80729 365.54688 61.33854Q365.54688 60.93229 365.73438 60.572914Q365.92188 60.21354 366.25 59.979164Q366.5 59.80729 366.92188 59.68229Q367.34375 59.55729 367.84375 59.55729Q368.5625 59.55729 369.10938 59.77604Q369.67188 59.979164 369.9375 60.33854Q370.20312 60.697914 370.29688 61.291664L369.26562 61.43229Q369.20312 60.96354 368.85938 60.697914Q368.53125 60.416664 367.90625 60.416664Q367.1875 60.416664 366.875 60.666664Q366.5625 60.90104 366.5625 61.229164Q366.5625 61.43229 366.6875 61.58854Q366.82812 61.760414 367.09375 61.86979Q367.25 61.93229 368.03125 62.135414Q369.15625 62.447914 369.59375 62.635414Q370.03125 62.822914 370.28125 63.18229Q370.53125 63.541664 370.53125 64.08854Q370.53125 64.61979 370.21875 65.08854Q369.92188 65.541664 369.34375 65.80729Q368.76562 66.05729 368.03125 66.05729Q366.8125 66.05729 366.17188 65.55729Q365.54688 65.041664 365.375 64.05729Z" fill-rule="nonzero"/><path stroke="#34a853" stroke-width="4.0" stroke-linecap="butt" d="M388.0 61.916668L400.0 61.916668" fill-rule="nonzero"/><path fill="#1a1a1a" d="M408.79688 65.916664L408.79688 57.322914L409.85938 57.322914L409.85938 62.229164L412.34375 59.697914L413.71875 59.697914L411.32812 61.99479L413.95312 65.916664L412.65625 65.916664L410.59375 62.729164L409.85938 63.447914L409.85938 65.916664L408.79688 65.916664ZM416.125 61.260414Q415.46875 61.010414 415.14062 60.572914Q414.82812 60.11979 414.82812 59.510414Q414.82812 58.572914 415.5 57.93229Q416.1875 57.291664 417.29688 57.291664Q418.42188 57.291664 419.10938 57.947914Q419.79688 58.604164 419.79688 59.541664Q419.79688 60.135414 419.48438 60.572914Q419.17188 61.010414 418.53125 61.260414Q419.32812 61.510414 419.73438 62.08854Q420.14062 62.666664 420.14062 63.46354Q420.14062 64.55729 419.35938 65.30729Q418.59375 66.05729 417.3125 66.05729Q416.04688 66.05729 415.26562 65.30729Q414.48438 64.55729 414.48438 63.43229Q414.48438 62.58854 414.90625 62.02604Q415.34375 61.46354 416.125 61.260414ZM415.90625 59.46354Q415.90625 60.072914 416.29688 60.46354Q416.70312 60.854164 417.32812 60.854164Q417.9375 60.854164 418.32812 60.479164Q418.71875 60.08854 418.71875 59.52604Q418.71875 58.947914 418.3125 58.55729Q417.90625 58.15104 417.3125 58.15104Q416.70312 58.15104 416.29688 58.541664Q415.90625 58.93229 415.90625 59.46354ZM415.57812 63.43229Q415.57812 63.885414 415.78125 64.30729Q416.0 64.729164 416.42188 64.96354Q416.84375 65.197914 417.32812 65.197914Q418.07812 65.197914 418.5625 64.71354Q419.0625 64.229164 419.0625 63.479164Q419.0625 62.71354 418.5625 62.21354Q418.0625 61.71354 417.29688 61.71354Q416.54688 61.71354 416.0625 62.21354Q415.57812 62.697914 415.57812 63.43229ZM421.375 64.05729L422.40625 63.90104Q422.5 64.52604 422.89062 64.854164Q423.29688 65.18229 424.03125 65.18229Q424.75 65.18229 425.09375 64.90104Q425.45312 64.604164 425.45312 64.197914Q425.45312 63.83854 425.14062 63.635414Q424.92188 63.49479 424.0625 63.27604Q422.90625 62.979164 422.45312 62.77604Q422.01562 62.55729 421.78125 62.18229Q421.54688 61.80729 421.54688 61.33854Q421.54688 60.93229 421.73438 60.572914Q421.92188 60.21354 422.25 59.979164Q422.5 59.80729 422.92188 59.68229Q423.34375 59.55729 423.84375 59.55729Q424.5625 59.55729 425.10938 59.77604Q425.67188 59.979164 425.9375 60.33854Q426.20312 60.697914 426.29688 61.291664L425.26562 61.43229Q425.20312 60.96354 424.85938 60.697914Q424.53125 60.416664 423.90625 60.416664Q423.1875 60.416664 422.875 60.666664Q422.5625 60.90104 422.5625 61.229164Q422.5625 61.43229 422.6875 61.58854Q422.82812 61.760414 423.09375 61.86979Q423.25 61.93229 424.03125 62.135414Q425.15625 62.447914 425.59375 62.635414Q426.03125 62.822914 426.28125 63.18229Q426.53125 63.541664 426.53125 64.08854Q426.53125 64.61979 426.21875 65.08854Q425.92188 65.541664 425.34375 65.80729Q424.76562 66.05729 424.03125 66.05729Q422.8125 66.05729 422.17188 65.55729Q421.54688 65.041664 421.375 64.05729Z" fill-rule="nonzero"/><path fill="#757575" d="M19.8625 37.55L19.8625 27.175L21.45625 27.175L21.45625 28.659374Q22.596874 26.940624 24.753124 26.940624Q25.690624 26.940624 26.471874 27.284374Q27.26875 27.6125 27.659374 28.159374Q28.05 28.70625 28.20625 29.45625Q28.3 29.95625 28.3 31.175L28.3 37.55L26.534374 37.55L26.534374 31.2375Q26.534374 30.159374 26.33125 29.628124Q26.128124 29.096874 25.596874 28.784374Q25.08125 28.471874 24.378124 28.471874Q23.253124 28.471874 22.440624 29.190624Q21.628124 29.89375 21.628124 31.878124L21.628124 37.55L19.8625 37.55ZM36.971874 34.20625L38.784374 34.440624Q38.3625 36.01875 37.190624 36.909374Q36.034374 37.784374 34.221874 37.784374Q31.95625 37.784374 30.6125 36.39375Q29.284374 34.9875 29.284374 32.45625Q29.284374 29.83125 30.628124 28.39375Q31.971874 26.940624 34.128124 26.940624Q36.20625 26.940624 37.51875 28.3625Q38.846874 29.76875 38.846874 32.346874Q38.846874 32.503124 38.83125 32.815624L31.096874 32.815624Q31.190624 34.51875 32.065624 35.425Q32.940624 36.33125 34.2375 36.33125Q35.20625 36.33125 35.878124 35.83125Q36.565624 35.315624 36.971874 34.20625ZM31.190624 31.3625L36.9875 31.3625Q36.878124 30.065624 36.33125 29.409374Q35.4875 28.39375 34.14375 28.39375Q32.940624 28.39375 32.1125 29.20625Q31.284374 30.003124 31.190624 31.3625ZM44.70625 35.971874L44.95625 37.534374Q44.221874 37.690624 43.628124 37.690624Q42.675 37.690624 42.14375 37.39375Q41.628124 37.08125 41.409374 36.596874Q41.190624 36.096874 41.190624 34.51875L41.190624 28.55L39.909374 28.55L39.909374 27.175L41.190624 27.175L41.190624 24.6125L42.940624 23.55L42.940624 27.175L44.70625 27.175L44.70625 28.55L42.940624 28.55L42.940624 34.6125Q42.940624 35.3625 43.034374 35.58125Q43.128124 35.784374 43.33125 35.925Q43.55 36.05 43.940624 36.05Q44.221874 36.05 44.70625 35.971874ZM48.784374 37.55L45.6125 27.175L47.425 27.175L49.08125 33.159374L49.690624 35.39375Q49.7375 35.221874 50.221874 33.253124L51.878124 27.175L53.690624 27.175L55.2375 33.190624L55.753124 35.175L56.346874 33.175L58.128124 27.175L59.83125 27.175L56.596874 37.55L54.76875 37.55L53.1125 31.33125L52.721874 29.565624L50.6125 37.55L48.784374 37.55ZM61.221874 32.3625Q61.221874 29.4875 62.815624 28.096874Q64.15938 26.940624 66.08125 26.940624Q68.22188 26.940624 69.56563 28.346874Q70.925 29.753124 70.925 32.221874Q70.925 34.221874 70.33125 35.378124Q69.7375 36.51875 68.58125 37.159374Q67.44063 37.784374 66.08125 37.784374Q63.89375 37.784374 62.55 36.39375Q61.221874 34.9875 61.221874 32.3625ZM63.01875 32.3625Q63.01875 34.3625 63.878124 35.346874Q64.75313 36.33125 66.08125 36.33125Q67.39375 36.33125 68.25313 35.346874Q69.12813 34.346874 69.12813 32.3Q69.12813 30.378124 68.25313 29.39375Q67.37813 28.39375 66.08125 28.39375Q64.75313 28.39375 63.878124 29.39375Q63.01875 30.378124 63.01875 32.3625ZM72.84688 37.55L72.84688 27.175L74.425 27.175L74.425 28.753124Q75.03438 27.64375 75.55 27.3Q76.06563 26.940624 76.675 26.940624Q77.56563 26.940624 78.4875 27.503124L77.87813 29.14375Q77.2375 28.753124 76.59688 28.753124Q76.01875 28.753124 75.55 29.1125Q75.09688 29.45625 74.89375 30.065624Q74.6125 31.003124 74.6125 32.1125L74.6125 37.55L72.84688 37.55ZM79.87813 37.55L79.87813 23.2375L81.64375 23.2375L81.64375 31.39375L85.8 27.175L88.06563 27.175L84.1125 31.01875L88.47188 37.55L86.3 37.55L82.87813 32.253124L81.64375 33.440624L81.64375 37.55L79.87813 37.55ZM95.22188 32.3625Q95.22188 29.4875 96.81563 28.096874Q98.15938 26.940624 100.08125 26.940624Q102.22188 26.940624 103.56563 28.346874Q104.925 29.753124 104.925 32.221874Q104.925 34.221874 104.33125 35.378124Q103.7375 36.51875 102.58125 37.159374Q101.44063 37.784374 100.08125 37.784374Q97.89375 37.784374 96.55 36.39375Q95.22188 34.9875 95.22188 32.3625ZM97.01875 32.3625Q97.01875 34.3625 97.87813 35.346874Q98.75313 36.33125 100.08125 36.33125Q101.39375 36.33125 102.25313 35.346874Q103.12813 34.346874 103.12813 32.3Q103.12813 30.378124 102.25313 29.39375Q101.37813 28.39375 100.08125 28.39375Q98.75313 28.39375 97.87813 29.39375Q97.01875 30.378124 97.01875 32.3625ZM113.65938 37.55L113.65938 36.01875Q112.45625 37.784374 110.37813 37.784374Q109.45625 37.784374 108.65938 37.440624Q107.8625 37.08125 107.47188 36.55Q107.09688 36.01875 106.94063 35.2375Q106.83125 34.721874 106.83125 33.596874L106.83125 27.175L108.58125 27.175L108.58125 32.925Q108.58125 34.3 108.69063 34.784374Q108.8625 35.471874 109.39375 35.878124Q109.94063 36.26875 110.72188 36.26875Q111.51875 36.26875 112.20625 35.8625Q112.90938 35.45625 113.19063 34.76875Q113.4875 34.065624 113.4875 32.7375L113.4875 27.175L115.2375 27.175L115.2375 37.55L113.65938 37.55ZM120.70625 35.971874L120.95625 37.534374Q120.22188 37.690624 119.62813 37.690624Q118.675 37.690624 118.14375 37.39375Q117.62813 37.08125 117.40938 36.596874Q117.19063 36.096874 117.19063 34.51875L117.19063 28.55L115.90938 28.55L115.90938 27.175L117.19063 27.175L117.19063 24.6125L118.94063 23.55L118.94063 27.175L120.70625 27.175L120.70625 28.55L118.94063 28.55L118.94063 34.6125Q118.94063 35.3625 119.03438 35.58125Q119.12813 35.784374 119.33125 35.925Q119.55 36.05 119.94063 36.05Q120.22188 36.05 120.70625 35.971874ZM132.22188 41.753124Q130.76875 39.925 129.76875 37.471874Q128.76875 35.003124 128.76875 32.3625Q128.76875 30.034374 129.51875 27.909374Q130.39375 25.440624 132.22188 22.9875L133.4875 22.9875Q132.3 25.01875 131.925 25.89375Q131.33125 27.2375 130.9875 28.70625Q130.56563 30.534374 130.56563 32.378124Q130.56563 37.065624 133.4875 41.753124L132.22188 41.753124ZM135.87813 25.253124L135.87813 23.2375L137.64375 23.2375L137.64375 25.253124L135.87813 25.253124ZM135.87813 37.55L135.87813 27.175L137.64375 27.175L137.64375 37.55L135.87813 37.55ZM139.8625 37.55L139.8625 27.175L141.45625 27.175L141.45625 28.659374Q142.59688 26.940624 144.75313 26.940624Q145.69063 26.940624 146.47188 27.284374Q147.26875 27.6125 147.65938 28.159374Q148.05 28.70625 148.20625 29.45625Q148.3 29.95625 148.3 31.175L148.3 37.55L146.53438 37.55L146.53438 31.2375Q146.53438 30.159374 146.33125 29.628124Q146.12813 29.096874 145.59688 28.784374Q145.08125 28.471874 144.37813 28.471874Q143.25313 28.471874 142.44063 29.190624Q141.62813 29.89375 141.62813 31.878124L141.62813 37.55L139.8625 37.55ZM153.70625 35.971874L153.95625 37.534374Q153.22188 37.690624 152.62813 37.690624Q151.675 37.690624 151.14375 37.39375Q150.62813 37.08125 150.40938 36.596874Q150.19063 36.096874 150.19063 34.51875L150.19063 28.55L148.90938 28.55L148.90938 27.175L150.19063 27.175L150.19063 24.6125L151.94063 23.55L151.94063 27.175L153.70625 27.175L153.70625 28.55L151.94063 28.55L151.94063 34.6125Q151.94063 35.3625 152.03438 35.58125Q152.12813 35.784374 152.33125 35.925Q152.55 36.05 152.94063 36.05Q153.22188 36.05 153.70625 35.971874ZM162.97188 34.20625L164.78438 34.440624Q164.3625 36.01875 163.19063 36.909374Q162.03438 37.784374 160.22188 37.784374Q157.95625 37.784374 156.6125 36.39375Q155.28438 34.9875 155.28438 32.45625Q155.28438 29.83125 156.62813 28.39375Q157.97188 26.940624 160.12813 26.940624Q162.20625 26.940624 163.51875 28.3625Q164.84688 29.76875 164.84688 32.346874Q164.84688 32.503124 164.83125 32.815624L157.09688 32.815624Q157.19063 34.51875 158.06563 35.425Q158.94063 36.33125 160.2375 36.33125Q161.20625 36.33125 161.87813 35.83125Q162.56563 35.315624 162.97188 34.20625ZM157.19063 31.3625L162.9875 31.3625Q162.87813 30.065624 162.33125 29.409374Q161.4875 28.39375 160.14375 28.39375Q158.94063 28.39375 158.1125 29.20625Q157.28438 30.003124 157.19063 31.3625ZM166.8625 37.55L166.8625 27.175L168.45625 27.175L168.45625 28.659374Q169.59688 26.940624 171.75313 26.940624Q172.69063 26.940624 173.47188 27.284374Q174.26875 27.6125 174.65938 28.159374Q175.05 28.70625 175.20625 29.45625Q175.3 29.95625 175.3 31.175L175.3 37.55L173.53438 37.55L173.53438 31.2375Q173.53438 30.159374 173.33125 29.628124Q173.12813 29.096874 172.59688 28.784374Q172.08125 28.471874 171.37813 28.471874Q170.25313 28.471874 169.44063 29.190624Q168.62813 29.89375 168.62813 31.878124L168.62813 37.55L166.8625 37.55ZM176.15938 34.45625L177.90938 34.175Q178.05 35.221874 178.72188 35.784374Q179.39375 36.33125 180.59688 36.33125Q181.8 36.33125 182.37813 35.846874Q182.97188 35.346874 182.97188 34.690624Q182.97188 34.096874 182.45625 33.753124Q182.09688 33.51875 180.65938 33.159374Q178.72188 32.659374 177.97188 32.315624Q177.2375 31.95625 176.84688 31.33125Q176.45625 30.690624 176.45625 29.925Q176.45625 29.2375 176.76875 28.64375Q177.09688 28.05 177.64375 27.659374Q178.05 27.3625 178.75313 27.159374Q179.47188 26.940624 180.28438 26.940624Q181.50313 26.940624 182.425 27.3Q183.34688 27.64375 183.78438 28.253124Q184.22188 28.846874 184.39375 29.846874L182.675 30.08125Q182.55 29.284374 181.9875 28.846874Q181.425 28.39375 180.40938 28.39375Q179.19063 28.39375 178.675 28.8Q178.15938 29.190624 178.15938 29.721874Q178.15938 30.065624 178.37813 30.346874Q178.58125 30.628124 179.05 30.815624Q179.31563 30.909374 180.59688 31.253124Q182.47188 31.753124 183.20625 32.08125Q183.94063 32.39375 184.3625 33.003124Q184.78438 33.596874 184.78438 34.503124Q184.78438 35.378124 184.26875 36.159374Q183.75313 36.940624 182.78438 37.3625Q181.81563 37.784374 180.59688 37.784374Q178.58125 37.784374 177.51875 36.940624Q176.45625 36.096874 176.15938 34.45625ZM186.87813 25.253124L186.87813 23.2375L188.64375 23.2375L188.64375 25.253124L186.87813 25.253124ZM186.87813 37.55L186.87813 27.175L188.64375 27.175L188.64375 37.55L186.87813 37.55ZM193.75313 37.55L189.8 27.175L191.65938 27.175L193.89375 33.39375Q194.25313 34.39375 194.55 35.471874Q194.78438 34.659374 195.20625 33.503124L197.50313 27.175L199.31563 27.175L195.39375 37.55L193.75313 37.55ZM206.97188 34.20625L208.78438 34.440624Q208.3625 36.01875 207.19063 36.909374Q206.03438 37.784374 204.22188 37.784374Q201.95625 37.784374 200.6125 36.39375Q199.28438 34.9875 199.28438 32.45625Q199.28438 29.83125 200.62813 28.39375Q201.97188 26.940624 204.12813 26.940624Q206.20625 26.940624 207.51875 28.3625Q208.84688 29.76875 208.84688 32.346874Q208.84688 32.503124 208.83125 32.815624L201.09688 32.815624Q201.19063 34.51875 202.06563 35.425Q202.94063 36.33125 204.2375 36.33125Q205.20625 36.33125 205.87813 35.83125Q206.56563 35.315624 206.97188 34.20625ZM201.19063 31.3625L206.9875 31.3625Q206.87813 30.065624 206.33125 29.409374Q205.4875 28.39375 204.14375 28.39375Q202.94063 28.39375 202.1125 29.20625Q201.28438 30.003124 201.19063 31.3625ZM212.01875 41.753124L210.76875 41.753124Q213.675 37.065624 213.675 32.378124Q213.675 30.534374 213.26875 28.7375Q212.925 27.26875 212.33125 25.925Q211.95625 25.034374 210.76875 22.9875L212.01875 22.9875Q213.8625 25.440624 214.7375 27.909374Q215.4875 30.034374 215.4875 32.3625Q215.4875 35.003124 214.47188 37.471874Q213.47188 39.925 212.01875 41.753124Z" fill-rule="nonzero"/></svg>