<svg width="200" height="55" viewBox="0 0 200 55" fill="none" xmlns="http://www.w3.org/2000/svg">
<path d="M31.187 11.7912L24.3884 0H0L31.187 54.1328L62.3739 0H37.9855L31.187 11.7912Z" fill="#0C1F6C"/>
<path d="M47.2874 26.1933L62.3739 0H37.9982L35.8034 3.79903L47.2874 26.1933Z" fill="#FF7521"/>
<path d="M31.2314 11.7912L24.4231 0H0L31.2314 54.1328L42.8821 33.9511L31.2314 11.7912Z" fill="#FF7521"/>
<path d="M69.526 40.8081L59.7885 24.2321H65.958L69.749 31.9626L73.0939 24.2321H78.8918L69.6746 40.8081H69.526Z" fill="#0C1F6C"/>
<path d="M95.1901 39.0241C94.4716 39.594 93.5672 40.0524 92.477 40.3993C91.4116 40.7461 90.3586 40.9196 89.3179 40.9196C86.5429 40.9196 84.3129 40.1639 82.6281 38.6525C80.968 37.141 80.138 35.035 80.138 32.3343C80.138 30.5255 80.5468 28.9893 81.3645 27.7257C82.1821 26.4373 83.2475 25.4586 84.5607 24.7896C85.8987 24.1206 87.2986 23.7861 88.7605 23.7861C90.2223 23.7861 91.4859 23.9843 92.5514 24.3808C93.6416 24.7772 94.5707 25.2975 95.3388 25.9417L92.8115 29.2867C92.4647 29.0141 91.9815 28.7416 91.3621 28.469C90.7674 28.1717 90.0613 28.023 89.2436 28.023C88.1782 28.023 87.2614 28.4319 86.4933 29.2495C85.7252 30.0424 85.3412 31.0706 85.3412 32.3343C85.3412 33.5484 85.7376 34.5766 86.5305 35.419C87.3482 36.2615 88.426 36.6827 89.7639 36.6827C90.9037 36.6827 91.8452 36.373 92.5885 35.7535L95.1901 39.0241Z" fill="#0C1F6C"/>
<path d="M99.1861 11.1497H104.389V40.4736H99.1861V11.1497Z" fill="#0C1F6C"/>
<path d="M114.988 41.2541C113.526 41.2541 112.3 40.8081 111.309 39.9161C110.318 38.9993 109.797 37.8224 109.748 36.3853V24.2321H114.951V34.4527C115.001 35.1713 115.186 35.7535 115.509 36.1995C115.831 36.6207 116.376 36.8313 117.144 36.8313C118.308 36.8313 119.225 36.2738 119.894 35.1589C120.563 34.0191 120.898 32.582 120.898 30.8476V24.2321H126.101V40.4736H121.381L121.009 37.872C120.464 38.8878 119.684 39.7055 118.668 40.3249C117.652 40.9444 116.425 41.2541 114.988 41.2541Z" fill="#0C1F6C"/>
<path d="M136.73 40.8081C135.392 40.8081 134.14 40.5727 132.976 40.1019C131.836 39.6312 130.87 38.9746 130.077 38.1321L132.233 35.2704C133.025 35.9889 133.756 36.5092 134.425 36.8313C135.119 37.1287 135.739 37.2773 136.284 37.2773C136.928 37.2773 137.461 37.1782 137.882 36.98C138.303 36.7818 138.514 36.4597 138.514 36.0137C138.514 35.5925 138.34 35.258 137.993 35.0102C137.671 34.7624 137.25 34.5642 136.73 34.4156C136.209 34.2421 135.652 34.0687 135.057 33.8952C133.571 33.4245 132.493 32.7431 131.824 31.8511C131.18 30.9344 130.857 29.9433 130.857 28.8778C130.857 28.0602 131.068 27.2426 131.489 26.4249C131.935 25.5825 132.629 24.8887 133.571 24.3436C134.537 23.7737 135.776 23.4888 137.287 23.4888C138.65 23.4888 139.802 23.6251 140.744 23.8976C141.685 24.1702 142.577 24.6162 143.42 25.2356L141.45 28.2832C140.979 27.9115 140.446 27.6018 139.852 27.3541C139.282 27.0815 138.749 26.9328 138.253 26.9081C137.584 26.8833 137.064 27.0072 136.692 27.2797C136.321 27.5275 136.135 27.8248 136.135 28.1717C136.11 28.6425 136.284 29.0141 136.655 29.2867C137.052 29.5592 137.547 29.7698 138.142 29.9185C138.737 30.0672 139.319 30.2406 139.889 30.4388C141.053 30.8352 141.982 31.4051 142.676 32.1484C143.37 32.867 143.717 33.8333 143.717 35.0474C143.717 36.0385 143.457 36.98 142.936 37.872C142.441 38.7392 141.673 39.4453 140.632 39.9904C139.616 40.5355 138.315 40.8081 136.73 40.8081Z" fill="#0C1F6C"/>
<path d="M149.599 17.0963H154.802V24.1578H158.742V28.2089H154.802V40.4736H149.599V28.2089H147.072V24.1578H149.599V17.0963Z" fill="#0C1F6C"/>
<path d="M170.693 40.9196C168.71 40.9196 167.026 40.5479 165.638 39.8046C164.275 39.0613 163.235 38.033 162.516 36.7198C161.798 35.4066 161.438 33.8952 161.438 32.1856C161.438 30.5503 161.859 29.0761 162.702 27.7629C163.544 26.4497 164.672 25.409 166.084 24.6409C167.496 23.8481 169.07 23.4516 170.804 23.4516C173.133 23.4516 175.041 24.133 176.528 25.4958C178.039 26.8337 179.018 28.7787 179.464 31.3308L167.571 35.1217C168.364 36.0385 169.441 36.4968 170.804 36.4968C171.374 36.4968 171.919 36.3977 172.439 36.1995C172.984 36.0013 173.517 35.7411 174.038 35.419L176.342 39.2843C175.475 39.7798 174.533 40.1763 173.517 40.4736C172.526 40.7709 171.585 40.9196 170.693 40.9196ZM166.567 31.8883C166.567 32.0122 166.567 32.1237 166.567 32.2228L173.703 29.807C173.48 29.1876 173.121 28.6549 172.625 28.2089C172.13 27.7381 171.386 27.5027 170.395 27.5027C169.231 27.5027 168.302 27.8991 167.608 28.692C166.914 29.4849 166.567 30.5503 166.567 31.8883Z" fill="#0C1F6C"/>
<path d="M187.928 24.2321L188.336 27.9487C188.807 27.0072 189.451 26.2019 190.269 25.5329C191.087 24.8392 191.892 24.3188 192.685 23.972C193.478 23.6003 194.085 23.4145 194.506 23.4145L194.246 28.6177C193.032 28.469 191.991 28.6672 191.124 29.2123C190.257 29.7574 189.588 30.476 189.117 31.368C188.646 32.2599 188.411 33.1767 188.411 34.1182V40.4736H183.245V24.2321H187.928Z" fill="#0C1F6C"/>
</svg>
