<svg width="878" height="200" viewBox="0 0 878 200" fill="none" xmlns="http://www.w3.org/2000/svg">
<path fill-rule="evenodd" clip-rule="evenodd" d="M130.643 120.224L110.479 85.2008L148.204 19L188.224 19.1805L130.643 120.224ZM103.53 62.9329L123.386 27.7294H48.641C30.5741 27.7294 19.2038 47.1964 28.0795 62.9329H103.53ZM87.9548 80.3551L47.9352 80.5357L105.516 181.579L125.68 146.556L87.9548 80.3551Z" fill="#F27405"/>
<path d="M292.154 74.14H318.424L290.024 149.4H261.624L233.224 74.14H259.494L275.824 125.26L292.154 74.14Z" fill="black"/>
<path d="M393.728 147.98C376.025 149.873 360.405 150.82 346.868 150.82C340.431 150.82 335.271 148.879 331.39 144.998C327.509 141.117 325.568 135.957 325.568 129.52V96.86C325.568 89.76 327.556 84.222 331.532 80.246C335.603 76.1753 341.188 74.14 348.288 74.14H393.728V93.31H356.098C352.311 93.31 350.418 95.2033 350.418 98.99V126.68C350.418 128.1 350.891 129.283 351.838 130.23C352.785 131.177 353.968 131.65 355.388 131.65C363.908 131.65 376.688 130.94 393.728 129.52V147.98Z" fill="black"/>
<path d="M447.66 149.4C441.318 150.347 435.259 150.82 429.484 150.82C423.804 150.82 419.024 148.879 415.142 144.998C411.261 141.117 409.32 135.957 409.32 129.52V50H434.17V125.97C434.17 127.39 434.644 128.573 435.59 129.52C436.537 130.467 437.72 130.94 439.14 130.94H447.66V149.4Z" fill="black"/>
<path d="M496.628 130.23C501.645 130.23 507.325 129.283 513.668 127.39V74.14H538.518V149.4H516.508L515.088 142.3C510.639 145.235 506.047 147.412 501.314 148.832C496.675 150.157 492.747 150.82 489.528 150.82H483.138C476.701 150.82 471.541 148.879 467.66 144.998C463.779 141.117 461.838 135.957 461.838 129.52V74.14H486.688V125.26C486.688 126.68 487.161 127.863 488.108 128.81C489.055 129.757 490.238 130.23 491.658 130.23H496.628Z" fill="black"/>
<path d="M554.088 129.52C573.306 130.94 588.452 131.65 599.528 131.65C600.948 131.65 602.132 131.177 603.078 130.23C604.025 129.283 604.498 128.1 604.498 126.68V121.71H573.968C567.531 121.71 562.372 119.769 558.49 115.888C554.609 112.007 552.668 106.847 552.668 100.41V95.44C552.668 89.0027 554.609 83.8433 558.49 79.962C562.372 76.0807 567.531 74.14 573.968 74.14H622.248V92.6H582.488C581.068 92.6 579.885 93.0733 578.938 94.02C577.992 94.9667 577.518 96.15 577.518 97.57C577.518 98.99 577.992 100.173 578.938 101.12C579.885 102.067 581.068 102.54 582.488 102.54H608.048C614.486 102.54 619.645 104.481 623.526 108.362C627.408 112.243 629.348 117.403 629.348 123.84V129.52C629.348 135.957 627.408 141.117 623.526 144.998C619.645 148.879 614.486 150.82 608.048 150.82C591.292 150.82 573.306 149.873 554.088 147.98V129.52Z" fill="black"/>
<path d="M696.099 149.4C686.917 150.347 677.923 150.82 669.119 150.82C662.682 150.82 657.523 148.879 653.641 144.998C649.76 141.117 647.819 135.957 647.819 129.52V93.31H639.299V74.14H647.819L650.659 57.1H672.669V74.14H690.419V93.31H672.669V125.97C672.669 127.39 673.143 128.573 674.089 129.52C675.036 130.467 676.219 130.94 677.639 130.94H696.099V149.4Z" fill="black"/>
<path d="M738.084 90.47C734.297 90.47 732.404 92.3633 732.404 96.15V103.96H756.544V96.15C756.544 92.3633 754.65 90.47 750.864 90.47H738.084ZM778.554 147.98C760.283 149.873 743.716 150.82 728.854 150.82C722.416 150.82 717.257 148.879 713.376 144.998C709.494 141.117 707.554 135.957 707.554 129.52V95.44C707.554 88.34 709.542 82.802 713.518 78.826C717.588 74.7553 723.174 72.72 730.274 72.72H758.674C765.774 72.72 771.312 74.7553 775.288 78.826C779.358 82.802 781.394 88.34 781.394 95.44V121.71H732.404V127.39C732.404 128.81 732.877 129.993 733.824 130.94C734.77 131.887 735.954 132.36 737.374 132.36C746.746 132.36 760.472 131.65 778.554 130.23V147.98Z" fill="black"/>
<path d="M841.688 94.73C835.724 94.73 829.571 96.15 823.228 98.99V149.4H798.378V74.14H820.388L821.808 83.37C829.949 76.27 838.469 72.72 847.368 72.72H853.758V94.73H841.688Z" fill="black"/>
</svg>
