<?xml version="1.0" encoding="UTF-8"?><svg id="Layer_1" xmlns="http://www.w3.org/2000/svg" viewBox="0 0 878 200"><defs><style>.cls-1,.cls-2{fill:#f27405;}.cls-2{fill-rule:evenodd;}</style></defs><path class="cls-1" d="M258.12,155.47c-5.93-11.57-11.96-25.09-18.09-40.64-6.13-15.56-11.86-32.48-17.31-50.76h27.42c1.17,4.47,2.53,9.43,4.08,14.68,1.56,5.25,3.21,10.6,4.86,15.95,1.65,5.35,3.4,10.6,5.06,15.75,1.65,5.15,3.31,9.72,4.96,13.9,1.56-4.18,3.11-8.85,4.86-13.9,1.75-5.06,3.5-10.31,5.15-15.75,1.65-5.35,3.31-10.7,4.86-15.95,1.56-5.25,2.92-10.21,4.08-14.68h26.93c-5.45,18.28-11.28,35.2-17.31,50.76-6.13,15.56-12.15,29.07-17.99,40.64h-21.59Z"/><path class="cls-2" d="M122.04,122.22l-22.56-39.09L141.68,9.14l44.73,.19L122.04,122.22Zm-30.34-63.98l22.17-39.38H30.35c-20.22,0-32.86,21.78-22.95,39.38H91.7Zm-17.4,19.45l-44.73,.19,64.37,112.98,22.56-39.18-42.2-73.99Z"/><path class="cls-1" d="M405.11,130.71c-1.28,.46-2.65,.88-4.14,1.27-2.44,.64-5.24,1.19-8.38,1.66-3.14,.47-6.69,.7-10.65,.7-6.28,0-11.64-1.02-16.06-3.05-4.42-2.03-8-4.8-10.74-8.29-2.74-3.49-4.71-7.65-5.93-12.48-1.22-4.83-1.83-7.29-1.83-12.87,0-6.98,.93-12.92,2.79-17.8,1.86-4.89,4.33-8.87,7.42-11.96s6.63-5.32,10.65-6.72c4.01-1.4,8.12-2.09,12.31-2.09,6.28,0,11.9,.7,16.84,2.09,.7,.2,1.35,.41,2.03,.62l6.01-23.18c-3.05-.93-6.56-1.77-10.57-2.49-4.19-.76-8.85-1.13-13.96-1.13-8.84,0-17.05,1.4-24.61,4.19-7.57,2.79-14.08,6.9-19.55,12.31-5.47,5.41-9.77,12.04-12.92,19.9-3.14,7.85-4.71,16.79-4.71,26.79,0,20.13,5.15,32.92,15.45,43.86,10.3,10.94,25.28,16.41,44.95,16.41,9.19,0,17.28-.93,24.26-2.79,4.73-1.26,8.72-2.63,12.01-4.11l-10.66-20.82Z"/><path class="cls-1" d="M459.55,133.01c-.78,.1-1.17,.1-2.24,.1-1.26,0-2.43-.29-3.69-.68-.39-.1-.68-.19-.97-.39-1.94-.88-3.4-1.94-4.38-3.21s-1.65-2.92-2.04-4.86c-.39-1.94-.58-4.08-.58-6.42V12.73l-26.64,13.22V122.8c0,5.06,.49,9.53,1.56,13.52,.97,3.99,2.92,7.39,5.74,10.21,2.82,2.82,6.61,4.96,11.47,6.51,3.89,1.26,8.85,2.04,14.68,2.33l3.69,.19h.49c4.86,0,7.97-.29,11.86-1.56,.88-.29,1.75-.58,2.53-.97l-11.47-20.03Z"/><path class="cls-1" d="M549.97,152.36c-4.38,1.26-10.11,2.43-17.02,3.6-6.9,1.07-14.29,1.65-21.88,1.65s-14.2-1.07-19.35-3.11c-5.15-2.04-9.24-4.96-12.25-8.75-3.01-3.79-5.15-8.26-6.42-13.42-1.26-5.25-1.94-10.99-1.94-17.21v-51.05h25.86v47.74c0,8.36,1.07,14.39,3.31,18.09,2.24,3.69,6.32,5.54,12.35,5.54,1.85,0,3.79-.1,5.93-.29,2.04-.19,3.89-.39,5.54-.58V64.07h25.86v88.29Z"/><path class="cls-1" d="M714.1,110.45c0-8.07,1.26-15.17,3.69-21.29,2.53-6.13,5.74-11.18,9.82-15.17,4.08-4.08,8.75-7.1,14-9.24,5.25-2.04,10.7-3.11,16.24-3.11,12.93,0,23.24,3.99,30.73,11.86,7.49,7.97,11.28,19.64,11.28,35,0,1.46-.1,3.11-.19,4.96-.1,1.75-.19,3.4-.39,4.76h-58.73c.58,5.35,3.11,9.53,7.49,12.64,4.38,3.11,10.31,4.67,17.7,4.67,4.76,0,9.43-.39,14-1.26,4.57-.88,8.26-1.94,11.18-3.21l3.5,21c-1.36,.68-3.21,1.36-5.54,2.04-2.33,.68-4.86,1.26-7.78,1.85-2.82,.49-5.83,.97-9.14,1.26-3.21,.39-6.51,.49-9.72,.49-8.26,0-15.36-1.26-21.49-3.69-6.13-2.43-11.08-5.74-15.07-10.01-3.99-4.18-6.9-9.24-8.85-15.07-1.75-5.54-2.72-11.77-2.72-18.47Zm60.87-9.92c-.1-2.24-.49-4.38-1.17-6.42-.68-2.04-1.65-3.89-2.92-5.54-1.36-1.65-3.01-2.92-5.06-3.99-2.04-1.07-4.57-1.56-7.58-1.56s-5.35,.49-7.49,1.46c-2.04,.97-3.79,2.33-5.25,3.89-1.36,1.65-2.43,3.5-3.21,5.64-.78,2.14-1.26,4.28-1.65,6.51,0,0,34.32,0,34.32,0Z"/><path class="cls-1" d="M869.67,87.02c-2.33-.58-5.06-1.17-8.17-1.85-3.11-.68-6.51-.97-10.11-.97-1.65,0-3.6,.1-5.83,.39-2.24,.29-3.99,.58-5.15,.97v69.81h-25.86V68.84c4.67-1.65,10.11-3.11,16.43-4.57,6.32-1.46,13.32-2.14,21.1-2.14,1.36,0,3.11,.1,5.06,.29,1.94,.19,3.89,.39,5.93,.68,1.94,.29,3.89,.68,5.93,1.07,1.94,.39,3.69,.88,5.06,1.46l-4.38,21.39Z"/><path class="cls-1" d="M715.56,148.57l-11.08-18.28c-2.53,.97-5.25,1.65-8.36,2.24-3.01,.58-6.03,.78-8.85,.78-5.93,0-9.92-1.65-11.86-5.06-1.94-3.31-2.92-7.78-2.92-13.42v-29.66h31.99v-22.17h-31.99V30.72l-26.64,14.29V115.22c0,6.13,.58,11.67,1.65,16.63,1.17,5.06,3.11,9.24,6.03,12.83,2.82,3.5,6.71,6.22,11.47,8.26,4.76,1.94,10.79,2.92,18.09,2.92,5.74,0,10.6-.49,14.49-1.46,1.56-.39,3.11-.78,4.57-1.26,4.67-1.17,11.57-3.21,13.42-4.57Z"/><path class="cls-1" d="M633.3,120.47c-.88-2.92-2.33-5.54-4.47-7.88-2.14-2.33-5.06-4.57-8.75-6.61-3.69-2.04-8.36-4.08-14.1-6.22-2.82-1.07-5.06-2.04-6.9-2.92-1.75-.88-3.21-1.65-4.28-2.43-1.07-.78-1.75-1.56-2.04-2.33-.39-.78-.49-1.75-.49-2.82,0-4.47,4.08-6.81,12.15-6.81,4.38,0,8.36,.39,11.86,1.26,3.5,.78,6.81,1.75,9.82,2.82l4.47-20.13c-3.01-1.17-7.1-2.24-12.15-3.21-5.06-.97-10.4-1.46-15.95-1.46-11.08,0-19.84,2.53-26.25,7.49-6.42,4.96-9.53,11.77-9.53,20.32,0,4.38,.68,8.17,1.94,11.28,1.26,3.11,3.11,5.83,5.35,8.07,2.33,2.24,5.15,4.18,8.46,5.83,3.31,1.65,7,3.21,10.99,4.67,5.25,1.94,9.04,3.69,11.67,5.35,2.53,1.56,3.79,3.4,3.79,5.45,0,2.63-.97,4.47-2.92,5.35-1.94,.97-5.35,1.36-10.11,1.36-4.47,0-9.14-.49-13.71-1.46-4.67-.97-9.14-2.33-13.52-4.08h0c-1.56-.68-3.4-1.46-4.38-2.04v23.04c2.04,.97,5.83,2.04,11.18,3.5,5.35,1.36,12.15,2.04,20.22,2.04,12.35,0,21.97-2.33,28.78-6.9,6.81-4.67,10.21-11.47,10.21-20.42-.1-3.89-.49-7.29-1.36-10.11Z"/></svg>