<svg version="1.1" viewBox="0.0 0.0 600.0 371.0" fill="none" stroke="none" stroke-linecap="square" stroke-miterlimit="10" width="600" height="371" xmlns:xlink="http://www.w3.org/1999/xlink" xmlns="http://www.w3.org/2000/svg"><path fill="#ffffff" d="M0 0L600.0 0L600.0 371.0L0 371.0L0 0Z" fill-rule="nonzero"/><path stroke="#333333" stroke-width="1.0" stroke-linecap="butt" d="M18.5 54.5L18.5 300.5" fill-rule="nonzero"/><path stroke="#cccccc" stroke-width="1.0" stroke-linecap="butt" d="M135.5 54.5L135.5 300.5" fill-rule="nonzero"/><path stroke="#cccccc" stroke-width="1.0" stroke-linecap="butt" d="M253.5 54.5L253.5 300.5" fill-rule="nonzero"/><path stroke="#cccccc" stroke-width="1.0" stroke-linecap="butt" d="M370.5 54.5L370.5 300.5" fill-rule="nonzero"/><path stroke="#cccccc" stroke-width="1.0" stroke-linecap="butt" d="M487.5 54.5L487.5 300.5" fill-rule="nonzero"/><clipPath id="id_0"><path d="M18.55 54.916668L487.61444 54.916668L487.61444 300.45L18.55 300.45L18.55 54.916668Z" clip-rule="nonzero"/></clipPath><path stroke="#000000" stroke-width="2.0" stroke-linecap="butt" stroke-opacity="0.0" clip-path="url(#id_0)" d="M19.0 137.0L19.0 119.0L137.0 119.0C138.10457 119.0 139.0 119.89543 139.0 121.0L139.0 135.0C139.0 136.10457 138.10457 137.0 137.0 137.0Z" fill-rule="nonzero"/><path fill="#4285f4" clip-path="url(#id_0)" d="M19.0 137.0L19.0 119.0L137.0 119.0C138.10457 119.0 139.0 119.89543 139.0 121.0L139.0 135.0C139.0 136.10457 138.10457 137.0 137.0 137.0Z" fill-rule="nonzero"/><path stroke="#000000" stroke-width="2.0" stroke-linecap="butt" stroke-opacity="0.0" clip-path="url(#id_0)" d="M19.0 157.0L19.0 139.0L137.0 139.0C138.10457 139.0 139.0 139.89543 139.0 141.0L139.0 155.0C139.0 156.10457 138.10457 157.0 137.0 157.0Z" fill-rule="nonzero"/><path fill="#ea4335" clip-path="url(#id_0)" d="M19.0 157.0L19.0 139.0L137.0 139.0C138.10457 139.0 139.0 139.89543 139.0 141.0L139.0 155.0C139.0 156.10457 138.10457 157.0 137.0 157.0Z" fill-rule="nonzero"/><path stroke="#000000" stroke-width="2.0" stroke-linecap="butt" stroke-opacity="0.0" clip-path="url(#id_0)" d="M19.0 177.0L19.0 159.0L135.0 159.0C136.10457 159.0 137.0 159.89543 137.0 161.0L137.0 175.0C137.0 176.10457 136.10457 177.0 135.0 177.0Z" fill-rule="nonzero"/><path fill="#fbbc04" clip-path="url(#id_0)" d="M19.0 177.0L19.0 159.0L135.0 159.0C136.10457 159.0 137.0 159.89543 137.0 161.0L137.0 175.0C137.0 176.10457 136.10457 177.0 135.0 177.0Z" fill-rule="nonzero"/><path stroke="#000000" stroke-width="2.0" stroke-linecap="butt" stroke-opacity="0.0" clip-path="url(#id_0)" d="M19.0 197.0L19.0 179.0L418.0 179.0C419.10458 179.0 420.0 179.89543 420.0 181.0L420.0 195.0C420.0 196.10457 419.10458 197.0 418.0 197.0Z" fill-rule="nonzero"/><path fill="#34a853" clip-path="url(#id_0)" d="M19.0 197.0L19.0 179.0L418.0 179.0C419.10458 179.0 420.0 179.89543 420.0 181.0L420.0 195.0C420.0 196.10457 419.10458 197.0 418.0 197.0Z" fill-rule="nonzero"/><path stroke="#000000" stroke-width="2.0" stroke-linecap="butt" stroke-opacity="0.0" clip-path="url(#id_0)" d="M19.0 217.0L19.0 199.0L135.0 199.0C136.10457 199.0 137.0 199.89543 137.0 201.0L137.0 215.0C137.0 216.10457 136.10457 217.0 135.0 217.0Z" fill-rule="nonzero"/><path fill="#ff6d01" clip-path="url(#id_0)" d="M19.0 217.0L19.0 199.0L135.0 199.0C136.10457 199.0 137.0 199.89543 137.0 201.0L137.0 215.0C137.0 216.10457 136.10457 217.0 135.0 217.0Z" fill-rule="nonzero"/><path stroke="#000000" stroke-width="2.0" stroke-linecap="butt" stroke-opacity="0.0" clip-path="url(#id_0)" d="M19.0 237.0L19.0 219.0L134.0 219.0C135.10457 219.0 136.0 219.89543 136.0 221.0L136.0 235.0C136.0 236.10457 135.10457 237.0 134.0 237.0Z" fill-rule="nonzero"/><path fill="#46bdc6" clip-path="url(#id_0)" d="M19.0 237.0L19.0 219.0L134.0 219.0C135.10457 219.0 136.0 219.89543 136.0 221.0L136.0 235.0C136.0 236.10457 135.10457 237.0 134.0 237.0Z" fill-rule="nonzero"/><path fill="#000000" d="M249.95723 347.59064L250.98848 347.4344Q251.08223 348.0594 251.47285 348.3875Q251.8791 348.71564 252.61348 348.71564Q253.33223 348.71564 253.67598 348.4344Q254.03535 348.1375 254.03535 347.73126Q254.03535 347.3719 253.72285 347.16876Q253.5041 347.02814 252.64473 346.8094Q251.48848 346.5125 251.03535 346.3094Q250.59785 346.09064 250.36348 345.71564Q250.1291 345.34064 250.1291 344.8719Q250.1291 344.46564 250.3166 344.10626Q250.5041 343.7469 250.83223 343.5125Q251.08223 343.34064 251.5041 343.21564Q251.92598 343.09064 252.42598 343.09064Q253.14473 343.09064 253.6916 343.3094Q254.2541 343.5125 254.51973 343.8719Q254.78535 344.23126 254.8791 344.825L253.84785 344.96564Q253.78535 344.4969 253.4416 344.23126Q253.11348 343.95 252.48848 343.95Q251.76973 343.95 251.45723 344.2Q251.14473 344.4344 251.14473 344.7625Q251.14473 344.96564 251.26973 345.1219Q251.41035 345.29376 251.67598 345.40314Q251.83223 345.46564 252.61348 345.66876Q253.73848 345.98126 254.17598 346.16876Q254.61348 346.35626 254.86348 346.71564Q255.11348 347.075 255.11348 347.6219Q255.11348 348.15314 254.80098 348.6219Q254.5041 349.075 253.92598 349.34064Q253.34785 349.59064 252.61348 349.59064Q251.39473 349.59064 250.7541 349.09064Q250.1291 348.575 249.95723 347.59064Z" fill-rule="nonzero"/><path fill="#000000" d="M7.05 313.21564Q7.05 311.6844 7.3625 310.7625Q7.675 309.825 8.284375 309.325Q8.909375 308.825 9.846875 308.825Q10.534375 308.825 11.05 309.10626Q11.58125 309.3875 11.925 309.91876Q12.26875 310.4344 12.45625 311.1844Q12.64375 311.9344 12.64375 313.21564Q12.64375 314.73126 12.33125 315.65314Q12.034375 316.575 11.409375 317.09064Q10.8 317.59064 9.846875 317.59064Q8.6125 317.59064 7.89375 316.7Q7.05 315.6375 7.05 313.21564ZM8.128125 313.21564Q8.128125 315.325 8.628125 316.02814Q9.128125 316.73126 9.846875 316.73126Q10.58125 316.73126 11.065625 316.02814Q11.565625 315.325 11.565625 313.21564Q11.565625 311.09064 11.065625 310.40314Q10.58125 309.7 9.83125 309.7Q9.1125 309.7 8.675 310.3094Q8.128125 311.09064 8.128125 313.21564ZM14.64375 317.45L14.64375 316.2469L15.846875 316.2469L15.846875 317.45L14.64375 317.45ZM17.05 313.21564Q17.05 311.6844 17.3625 310.7625Q17.675 309.825 18.284374 309.325Q18.909374 308.825 19.846874 308.825Q20.534374 308.825 21.05 309.10626Q21.58125 309.3875 21.925 309.91876Q22.26875 310.4344 22.45625 311.1844Q22.64375 311.9344 22.64375 313.21564Q22.64375 314.73126 22.33125 315.65314Q22.034374 316.575 21.409374 317.09064Q20.8 317.59064 19.846874 317.59064Q18.6125 317.59064 17.89375 316.7Q17.05 315.6375 17.05 313.21564ZM18.128124 313.21564Q18.128124 315.325 18.628124 316.02814Q19.128124 316.73126 19.846874 316.73126Q20.58125 316.73126 21.065624 316.02814Q21.565624 315.325 21.565624 313.21564Q21.565624 311.09064 21.065624 310.40314Q20.58125 309.7 19.83125 309.7Q19.1125 309.7 18.675 310.3094Q18.128124 311.09064 18.128124 313.21564ZM24.05 313.21564Q24.05 311.6844 24.3625 310.7625Q24.675 309.825 25.284374 309.325Q25.909374 308.825 26.846874 308.825Q27.534374 308.825 28.05 309.10626Q28.58125 309.3875 28.925 309.91876Q29.26875 310.4344 29.45625 311.1844Q29.64375 311.9344 29.64375 313.21564Q29.64375 314.73126 29.33125 315.65314Q29.034374 316.575 28.409374 317.09064Q27.8 317.59064 26.846874 317.59064Q25.6125 317.59064 24.89375 316.7Q24.05 315.6375 24.05 313.21564ZM25.128124 313.21564Q25.128124 315.325 25.628124 316.02814Q26.128124 316.73126 26.846874 316.73126Q27.58125 316.73126 28.065624 316.02814Q28.565624 315.325 28.565624 313.21564Q28.565624 311.09064 28.065624 310.40314Q27.58125 309.7 26.83125 309.7Q26.1125 309.7 25.675 310.3094Q25.128124 311.09064 25.128124 313.21564Z" fill-rule="nonzero"/><path fill="#000000" d="M124.31611 313.21564Q124.31611 311.6844 124.62861 310.7625Q124.94111 309.825 125.55048 309.325Q126.17548 308.825 127.11298 308.825Q127.80048 308.825 128.3161 309.10626Q128.84735 309.3875 129.1911 309.91876Q129.53485 310.4344 129.72235 311.1844Q129.90985 311.9344 129.90985 313.21564Q129.90985 314.73126 129.59735 315.65314Q129.30048 316.575 128.67548 317.09064Q128.0661 317.59064 127.11298 317.59064Q125.87861 317.59064 125.15986 316.7Q124.31611 315.6375 124.31611 313.21564ZM125.39423 313.21564Q125.39423 315.325 125.89423 316.02814Q126.39423 316.73126 127.11298 316.73126Q127.84736 316.73126 128.33173 316.02814Q128.83173 315.325 128.83173 313.21564Q128.83173 311.09064 128.33173 310.40314Q127.84736 309.7 127.09736 309.7Q126.37861 309.7 125.94111 310.3094Q125.39423 311.09064 125.39423 313.21564ZM131.90985 317.45L131.90985 316.2469L133.11298 316.2469L133.11298 317.45L131.90985 317.45ZM134.3161 313.21564Q134.3161 311.6844 134.6286 310.7625Q134.9411 309.825 135.55048 309.325Q136.17548 308.825 137.11298 308.825Q137.80048 308.825 138.3161 309.10626Q138.84735 309.3875 139.1911 309.91876Q139.53485 310.4344 139.72235 311.1844Q139.90985 311.9344 139.90985 313.21564Q139.90985 314.73126 139.59735 315.65314Q139.30048 316.575 138.67548 317.09064Q138.0661 317.59064 137.11298 317.59064Q135.8786 317.59064 135.15985 316.7Q134.3161 315.6375 134.3161 313.21564ZM135.39423 313.21564Q135.39423 315.325 135.89423 316.02814Q136.39423 316.73126 137.11298 316.73126Q137.84735 316.73126 138.33173 316.02814Q138.83173 315.325 138.83173 313.21564Q138.83173 311.09064 138.33173 310.40314Q137.84735 309.7 137.09735 309.7Q136.3786 309.7 135.9411 310.3094Q135.39423 311.09064 135.39423 313.21564ZM141.3161 315.2L142.42548 315.10626Q142.55048 315.91876 142.98798 316.325Q143.4411 316.73126 144.08173 316.73126Q144.83173 316.73126 145.36298 316.15314Q145.89423 315.575 145.89423 314.6375Q145.89423 313.73126 145.3786 313.21564Q144.8786 312.6844 144.05048 312.6844Q143.55048 312.6844 143.1286 312.91876Q142.72235 313.15314 142.48798 313.5125L141.5036 313.3875L142.33173 308.98126L146.61298 308.98126L146.61298 309.98126L143.17548 309.98126L142.72235 312.29376Q143.48798 311.7469 144.33173 311.7469Q145.45673 311.7469 146.22235 312.52814Q147.0036 313.3094 147.0036 314.54376Q147.0036 315.7 146.33173 316.5594Q145.5036 317.59064 144.08173 317.59064Q142.90985 317.59064 142.15985 316.9344Q141.42548 316.27814 141.3161 315.2Z" fill-rule="nonzero"/><path fill="#000000" d="M241.58223 313.21564Q241.58223 311.6844 241.89473 310.7625Q242.20723 309.825 242.8166 309.325Q243.4416 308.825 244.3791 308.825Q245.0666 308.825 245.58223 309.10626Q246.11348 309.3875 246.45723 309.91876Q246.80098 310.4344 246.98848 311.1844Q247.17598 311.9344 247.17598 313.21564Q247.17598 314.73126 246.86348 315.65314Q246.5666 316.575 245.9416 317.09064Q245.33223 317.59064 244.3791 317.59064Q243.14473 317.59064 242.42598 316.7Q241.58223 315.6375 241.58223 313.21564ZM242.66035 313.21564Q242.66035 315.325 243.16035 316.02814Q243.66035 316.73126 244.3791 316.73126Q245.11348 316.73126 245.59785 316.02814Q246.09785 315.325 246.09785 313.21564Q246.09785 311.09064 245.59785 310.40314Q245.11348 309.7 244.36348 309.7Q243.64473 309.7 243.20723 310.3094Q242.66035 311.09064 242.66035 313.21564ZM249.17598 317.45L249.17598 316.2469L250.3791 316.2469L250.3791 317.45L249.17598 317.45ZM255.55098 317.45L254.5041 317.45L254.5041 310.73126Q254.11348 311.09064 253.48848 311.46564Q252.8791 311.825 252.39473 311.9969L252.39473 310.98126Q253.26973 310.5594 253.92598 309.98126Q254.59785 309.3875 254.8791 308.825L255.55098 308.825L255.55098 317.45ZM258.5822 313.21564Q258.5822 311.6844 258.8947 310.7625Q259.2072 309.825 259.8166 309.325Q260.4416 308.825 261.3791 308.825Q262.0666 308.825 262.5822 309.10626Q263.11346 309.3875 263.4572 309.91876Q263.80096 310.4344 263.98846 311.1844Q264.17596 311.9344 264.17596 313.21564Q264.17596 314.73126 263.86346 315.65314Q263.5666 316.575 262.9416 317.09064Q262.3322 317.59064 261.3791 317.59064Q260.1447 317.59064 259.42596 316.7Q258.5822 315.6375 258.5822 313.21564ZM259.66034 313.21564Q259.66034 315.325 260.16034 316.02814Q260.66034 316.73126 261.3791 316.73126Q262.11346 316.73126 262.59784 316.02814Q263.09784 315.325 263.09784 313.21564Q263.09784 311.09064 262.59784 310.40314Q262.11346 309.7 261.36346 309.7Q260.6447 309.7 260.2072 310.3094Q259.66034 311.09064 259.66034 313.21564Z" fill-rule="nonzero"/><path fill="#000000" d="M358.84833 313.21564Q358.84833 311.6844 359.16083 310.7625Q359.47333 309.825 360.0827 309.325Q360.7077 308.825 361.6452 308.825Q362.3327 308.825 362.84833 309.10626Q363.37958 309.3875 363.72333 309.91876Q364.06708 310.4344 364.25458 311.1844Q364.44208 311.9344 364.44208 313.21564Q364.44208 314.73126 364.12958 315.65314Q363.8327 316.575 363.2077 317.09064Q362.59833 317.59064 361.6452 317.59064Q360.41083 317.59064 359.69208 316.7Q358.84833 315.6375 358.84833 313.21564ZM359.92645 313.21564Q359.92645 315.325 360.42645 316.02814Q360.92645 316.73126 361.6452 316.73126Q362.37958 316.73126 362.86395 316.02814Q363.36395 315.325 363.36395 313.21564Q363.36395 311.09064 362.86395 310.40314Q362.37958 309.7 361.62958 309.7Q360.91083 309.7 360.47333 310.3094Q359.92645 311.09064 359.92645 313.21564ZM366.44208 317.45L366.44208 316.2469L367.6452 316.2469L367.6452 317.45L366.44208 317.45ZM372.81708 317.45L371.7702 317.45L371.7702 310.73126Q371.37958 311.09064 370.75458 311.46564Q370.1452 311.825 369.66083 311.9969L369.66083 310.98126Q370.53583 310.5594 371.19208 309.98126Q371.86395 309.3875 372.1452 308.825L372.81708 308.825L372.81708 317.45ZM375.84833 315.2L376.9577 315.10626Q377.0827 315.91876 377.5202 316.325Q377.97333 316.73126 378.61395 316.73126Q379.36395 316.73126 379.8952 316.15314Q380.42645 315.575 380.42645 314.6375Q380.42645 313.73126 379.91083 313.21564Q379.41083 312.6844 378.5827 312.6844Q378.0827 312.6844 377.66083 312.91876Q377.25458 313.15314 377.0202 313.5125L376.03583 313.3875L376.86395 308.98126L381.1452 308.98126L381.1452 309.98126L377.7077 309.98126L377.25458 312.29376Q378.0202 311.7469 378.86395 311.7469Q379.98895 311.7469 380.75458 312.52814Q381.53583 313.3094 381.53583 314.54376Q381.53583 315.7 380.86395 316.5594Q380.03583 317.59064 378.61395 317.59064Q377.44208 317.59064 376.69208 316.9344Q375.9577 316.27814 375.84833 315.2Z" fill-rule="nonzero"/><path fill="#000000" d="M476.11444 313.21564Q476.11444 311.6844 476.42694 310.7625Q476.73944 309.825 477.34882 309.325Q477.97382 308.825 478.91132 308.825Q479.59882 308.825 480.11444 309.10626Q480.6457 309.3875 480.98944 309.91876Q481.3332 310.4344 481.5207 311.1844Q481.7082 311.9344 481.7082 313.21564Q481.7082 314.73126 481.3957 315.65314Q481.09882 316.575 480.47382 317.09064Q479.86444 317.59064 478.91132 317.59064Q477.67694 317.59064 476.9582 316.7Q476.11444 315.6375 476.11444 313.21564ZM477.19257 313.21564Q477.19257 315.325 477.69257 316.02814Q478.19257 316.73126 478.91132 316.73126Q479.6457 316.73126 480.13007 316.02814Q480.63007 315.325 480.63007 313.21564Q480.63007 311.09064 480.13007 310.40314Q479.6457 309.7 478.8957 309.7Q478.17694 309.7 477.73944 310.3094Q477.19257 311.09064 477.19257 313.21564ZM483.7082 317.45L483.7082 316.2469L484.91132 316.2469L484.91132 317.45L483.7082 317.45ZM491.66132 316.4344L491.66132 317.45L485.97382 317.45Q485.97382 317.075 486.09882 316.71564Q486.31757 316.1375 486.78632 315.575Q487.2707 315.0125 488.17694 314.27814Q489.5832 313.1219 490.06757 312.45Q490.56757 311.77814 490.56757 311.1844Q490.56757 310.5594 490.11444 310.1375Q489.66132 309.7 488.94257 309.7Q488.17694 309.7 487.72382 310.15314Q487.2707 310.60626 487.25507 311.41876L486.17694 311.3094Q486.28632 310.09064 487.00507 309.46564Q487.73944 308.825 488.97382 308.825Q490.2082 308.825 490.92694 309.5125Q491.6457 310.2 491.6457 311.21564Q491.6457 311.73126 491.42694 312.23126Q491.22382 312.71564 490.72382 313.27814Q490.23944 313.825 489.11444 314.77814Q488.16132 315.575 487.88007 315.8719Q487.61444 316.15314 487.44257 316.4344L491.66132 316.4344ZM493.11444 313.21564Q493.11444 311.6844 493.42694 310.7625Q493.73944 309.825 494.34882 309.325Q494.97382 308.825 495.91132 308.825Q496.59882 308.825 497.11444 309.10626Q497.6457 309.3875 497.98944 309.91876Q498.3332 310.4344 498.5207 311.1844Q498.7082 311.9344 498.7082 313.21564Q498.7082 314.73126 498.3957 315.65314Q498.09882 316.575 497.47382 317.09064Q496.86444 317.59064 495.91132 317.59064Q494.67694 317.59064 493.9582 316.7Q493.11444 315.6375 493.11444 313.21564ZM494.19257 313.21564Q494.19257 315.325 494.69257 316.02814Q495.19257 316.73126 495.91132 316.73126Q496.6457 316.73126 497.13007 316.02814Q497.63007 315.325 497.63007 313.21564Q497.63007 311.09064 497.13007 310.40314Q496.6457 309.7 495.8957 309.7Q495.17694 309.7 494.73944 310.3094Q494.19257 311.09064 494.19257 313.21564Z" fill-rule="nonzero"/><path fill="#4285f4" d="M507.45 56.916668C507.45 56.364384 507.8977 55.916668 508.45 55.916668L518.45 55.916668C519.00226 55.916668 519.45 56.364384 519.45 56.916668L519.45 66.916664C519.45 67.46895 519.00226 67.916664 518.45 67.916664L508.45 67.916664C507.8977 67.916664 507.45 67.46895 507.45 66.916664Z" fill-rule="nonzero"/><path fill="#1a1a1a" d="M528.2469 65.916664L528.2469 57.322914L529.3094 57.322914L529.3094 62.229164L531.79376 59.697914L533.16876 59.697914L530.77814 61.99479L533.40314 65.916664L532.10626 65.916664L530.04376 62.729164L529.3094 63.447914L529.3094 65.916664L528.2469 65.916664ZM535.575 61.260414Q534.91876 61.010414 534.59064 60.572914Q534.27814 60.11979 534.27814 59.510414Q534.27814 58.572914 534.95 57.93229Q535.6375 57.291664 536.7469 57.291664Q537.8719 57.291664 538.5594 57.947914Q539.2469 58.604164 539.2469 59.541664Q539.2469 60.135414 538.9344 60.572914Q538.6219 61.010414 537.98126 61.260414Q538.77814 61.510414 539.1844 62.08854Q539.59064 62.666664 539.59064 63.46354Q539.59064 64.55729 538.8094 65.30729Q538.04376 66.05729 536.7625 66.05729Q535.4969 66.05729 534.71564 65.30729Q533.9344 64.55729 533.9344 63.43229Q533.9344 62.58854 534.35626 62.02604Q534.79376 61.46354 535.575 61.260414ZM535.35626 59.46354Q535.35626 60.072914 535.7469 60.46354Q536.15314 60.854164 536.77814 60.854164Q537.3875 60.854164 537.77814 60.479164Q538.16876 60.08854 538.16876 59.52604Q538.16876 58.947914 537.7625 58.55729Q537.35626 58.15104 536.7625 58.15104Q536.15314 58.15104 535.7469 58.541664Q535.35626 58.93229 535.35626 59.46354ZM535.02814 63.43229Q535.02814 63.885414 535.23126 64.30729Q535.45 64.729164 535.8719 64.96354Q536.29376 65.197914 536.77814 65.197914Q537.52814 65.197914 538.0125 64.71354Q538.5125 64.229164 538.5125 63.479164Q538.5125 62.71354 538.0125 62.21354Q537.5125 61.71354 536.7469 61.71354Q535.9969 61.71354 535.5125 62.21354Q535.02814 62.697914 535.02814 63.43229ZM540.825 64.05729L541.85626 63.90104Q541.95 64.52604 542.34064 64.854164Q542.7469 65.18229 543.48126 65.18229Q544.2 65.18229 544.54376 64.90104Q544.90314 64.604164 544.90314 64.197914Q544.90314 63.83854 544.59064 63.635414Q544.3719 63.49479 543.5125 63.27604Q542.35626 62.979164 541.90314 62.77604Q541.46564 62.55729 541.23126 62.18229Q540.9969 61.80729 540.9969 61.33854Q540.9969 60.93229 541.1844 60.572914Q541.3719 60.21354 541.7 59.979164Q541.95 59.80729 542.3719 59.68229Q542.79376 59.55729 543.29376 59.55729Q544.0125 59.55729 544.5594 59.77604Q545.1219 59.979164 545.3875 60.33854Q545.65314 60.697914 545.7469 61.291664L544.71564 61.43229Q544.65314 60.96354 544.3094 60.697914Q543.98126 60.416664 543.35626 60.416664Q542.6375 60.416664 542.325 60.666664Q542.0125 60.90104 542.0125 61.229164Q542.0125 61.43229 542.1375 61.58854Q542.27814 61.760414 542.54376 61.86979Q542.7 61.93229 543.48126 62.135414Q544.60626 62.447914 545.04376 62.635414Q545.48126 62.822914 545.73126 63.18229Q545.98126 63.541664 545.98126 64.08854Q545.98126 64.61979 545.66876 65.08854Q545.3719 65.541664 544.79376 65.80729Q544.21564 66.05729 543.48126 66.05729Q542.2625 66.05729 541.6219 65.55729Q540.9969 65.041664 540.825 64.05729ZM550.95 63.65104L552.0125 63.510414Q552.1844 64.40104 552.6219 64.80729Q553.0594 65.197914 553.6844 65.197914Q554.4344 65.197914 554.95 64.68229Q555.46564 64.166664 555.46564 63.40104Q555.46564 62.68229 554.98126 62.21354Q554.5125 61.729164 553.77814 61.729164Q553.48126 61.729164 553.02814 61.854164L553.15314 60.916664Q553.2625 60.93229 553.325 60.93229Q553.9969 60.93229 554.52814 60.58854Q555.075 60.229164 555.075 59.49479Q555.075 58.916664 554.6844 58.541664Q554.29376 58.15104 553.66876 58.15104Q553.0594 58.15104 552.6375 58.541664Q552.23126 58.93229 552.1219 59.697914L551.0594 59.510414Q551.2469 58.46354 551.9344 57.885414Q552.6219 57.291664 553.6375 57.291664Q554.34064 57.291664 554.9344 57.604164Q555.52814 57.90104 555.84064 58.416664Q556.15314 58.93229 556.15314 59.52604Q556.15314 60.072914 555.85626 60.541664Q555.5594 60.99479 554.98126 61.260414Q555.73126 61.43229 556.15314 61.99479Q556.575 62.541664 556.575 63.385414Q556.575 64.510414 555.7469 65.291664Q554.9344 66.072914 553.6844 66.072914Q552.5594 66.072914 551.8094 65.40104Q551.0594 64.71354 550.95 63.65104Z" fill-rule="nonzero"/><path fill="#ea4335" d="M507.45 80.916664C507.45 80.36438 507.8977 79.916664 508.45 79.916664L518.45 79.916664C519.00226 79.916664 519.45 80.36438 519.45 80.916664L519.45 90.916664C519.45 91.46895 519.00226 91.916664 518.45 91.916664L508.45 91.916664C507.8977 91.916664 507.45 91.46895 507.45 90.916664Z" fill-rule="nonzero"/><path fill="#1a1a1a" d="M528.2469 89.916664L528.2469 81.322914L529.3094 81.322914L529.3094 86.229164L531.79376 83.697914L533.16876 83.697914L530.77814 85.99479L533.40314 89.916664L532.10626 89.916664L530.04376 86.729164L529.3094 87.447914L529.3094 89.916664L528.2469 89.916664ZM533.95 87.65104L535.0125 87.510414Q535.1844 88.40104 535.6219 88.80729Q536.0594 89.197914 536.6844 89.197914Q537.4344 89.197914 537.95 88.68229Q538.46564 88.166664 538.46564 87.40104Q538.46564 86.68229 537.98126 86.21354Q537.5125 85.729164 536.77814 85.729164Q536.48126 85.729164 536.02814 85.854164L536.15314 84.916664Q536.2625 84.93229 536.325 84.93229Q536.9969 84.93229 537.52814 84.58854Q538.075 84.229164 538.075 83.49479Q538.075 82.916664 537.6844 82.541664Q537.29376 82.15104 536.66876 82.15104Q536.0594 82.15104 535.6375 82.541664Q535.23126 82.93229 535.1219 83.697914L534.0594 83.510414Q534.2469 82.46354 534.9344 81.885414Q535.6219 81.291664 536.6375 81.291664Q537.34064 81.291664 537.9344 81.604164Q538.52814 81.90104 538.84064 82.416664Q539.15314 82.93229 539.15314 83.52604Q539.15314 84.072914 538.85626 84.541664Q538.5594 84.99479 537.98126 85.260414Q538.73126 85.43229 539.15314 85.99479Q539.575 86.541664 539.575 87.385414Q539.575 88.510414 538.7469 89.291664Q537.9344 90.072914 536.6844 90.072914Q535.5594 90.072914 534.8094 89.40104Q534.0594 88.71354 533.95 87.65104ZM540.825 88.05729L541.85626 87.90104Q541.95 88.52604 542.34064 88.854164Q542.7469 89.18229 543.48126 89.18229Q544.2 89.18229 544.54376 88.90104Q544.90314 88.604164 544.90314 88.197914Q544.90314 87.83854 544.59064 87.635414Q544.3719 87.49479 543.5125 87.27604Q542.35626 86.979164 541.90314 86.77604Q541.46564 86.55729 541.23126 86.18229Q540.9969 85.80729 540.9969 85.33854Q540.9969 84.93229 541.1844 84.572914Q541.3719 84.21354 541.7 83.979164Q541.95 83.80729 542.3719 83.68229Q542.79376 83.55729 543.29376 83.55729Q544.0125 83.55729 544.5594 83.77604Q545.1219 83.979164 545.3875 84.33854Q545.65314 84.697914 545.7469 85.291664L544.71564 85.43229Q544.65314 84.96354 544.3094 84.697914Q543.98126 84.416664 543.35626 84.416664Q542.6375 84.416664 542.325 84.666664Q542.0125 84.90104 542.0125 85.229164Q542.0125 85.43229 542.1375 85.58854Q542.27814 85.760414 542.54376 85.86979Q542.7 85.93229 543.48126 86.135414Q544.60626 86.447914 545.04376 86.635414Q545.48126 86.822914 545.73126 87.18229Q545.98126 87.541664 545.98126 88.08854Q545.98126 88.61979 545.66876 89.08854Q545.3719 89.541664 544.79376 89.80729Q544.21564 90.05729 543.48126 90.05729Q542.2625 90.05729 541.6219 89.55729Q540.9969 89.041664 540.825 88.05729ZM551.2469 92.30729L551.2469 83.697914L552.2 83.697914L552.2 84.49479Q552.54376 84.02604 552.96564 83.791664Q553.40314 83.55729 554.0125 83.55729Q554.8094 83.55729 555.41876 83.96354Q556.02814 84.36979 556.325 85.11979Q556.6375 85.86979 556.6375 86.760414Q556.6375 87.71354 556.29376 88.479164Q555.96564 89.24479 555.3094 89.65104Q554.65314 90.05729 553.9344 90.05729Q553.40314 90.05729 552.98126 89.83854Q552.5594 89.604164 552.29376 89.27604L552.29376 92.30729L551.2469 92.30729ZM552.2 86.83854Q552.2 88.041664 552.6844 88.61979Q553.16876 89.18229 553.85626 89.18229Q554.5594 89.18229 555.0594 88.58854Q555.5594 87.99479 555.5594 86.74479Q555.5594 85.55729 555.075 84.979164Q554.59064 84.385414 553.90314 84.385414Q553.23126 84.385414 552.71564 85.010414Q552.2 85.635414 552.2 86.83854ZM558.23126 89.916664L558.23126 83.697914L559.1844 83.697914L559.1844 84.635414Q559.54376 83.979164 559.84064 83.77604Q560.15314 83.55729 560.52814 83.55729Q561.0594 83.55729 561.60626 83.885414L561.2469 84.86979Q560.85626 84.635414 560.48126 84.635414Q560.1219 84.635414 559.84064 84.854164Q559.575 85.05729 559.46564 85.43229Q559.27814 85.99479 559.27814 86.65104L559.27814 89.916664L558.23126 89.916664ZM561.85626 86.80729Q561.85626 85.072914 562.8094 84.24479Q563.60626 83.55729 564.7625 83.55729Q566.04376 83.55729 566.85626 84.40104Q567.6844 85.229164 567.6844 86.71354Q567.6844 87.916664 567.325 88.604164Q566.96564 89.291664 566.2625 89.68229Q565.575 90.05729 564.7625 90.05729Q563.46564 90.05729 562.65314 89.229164Q561.85626 88.385414 561.85626 86.80729ZM562.9344 86.80729Q562.9344 87.99479 563.45 88.58854Q563.98126 89.18229 564.7625 89.18229Q565.5594 89.18229 566.075 88.58854Q566.59064 87.99479 566.59064 86.77604Q566.59064 85.61979 566.0594 85.02604Q565.54376 84.43229 564.7625 84.43229Q563.98126 84.43229 563.45 85.02604Q562.9344 85.604164 562.9344 86.80729ZM571.95 87.65104L573.0125 87.510414Q573.1844 88.40104 573.6219 88.80729Q574.0594 89.197914 574.6844 89.197914Q575.4344 89.197914 575.95 88.68229Q576.46564 88.166664 576.46564 87.40104Q576.46564 86.68229 575.98126 86.21354Q575.5125 85.729164 574.77814 85.729164Q574.48126 85.729164 574.02814 85.854164L574.15314 84.916664Q574.2625 84.93229 574.325 84.93229Q574.9969 84.93229 575.52814 84.58854Q576.075 84.229164 576.075 83.49479Q576.075 82.916664 575.6844 82.541664Q575.29376 82.15104 574.66876 82.15104Q574.0594 82.15104 573.6375 82.541664Q573.23126 82.93229 573.1219 83.697914L572.0594 83.510414Q572.2469 82.46354 572.9344 81.885414Q573.6219 81.291664 574.6375 81.291664Q575.34064 81.291664 575.9344 81.604164Q576.52814 81.90104 576.84064 82.416664Q577.15314 82.93229 577.15314 83.52604Q577.15314 84.072914 576.85626 84.541664Q576.5594 84.99479 575.98126 85.260414Q576.73126 85.43229 577.15314 85.99479Q577.575 86.541664 577.575 87.385414Q577.575 88.510414 576.7469 89.291664Q575.9344 90.072914 574.6844 90.072914Q573.5594 90.072914 572.8094 89.40104Q572.0594 88.71354 571.95 87.65104Z" fill-rule="nonzero"/><path fill="#fbbc04" d="M507.45 104.916664C507.45 104.36438 507.8977 103.916664 508.45 103.916664L518.45 103.916664C519.00226 103.916664 519.45 104.36438 519.45 104.916664L519.45 114.916664C519.45 115.46895 519.00226 115.916664 518.45 115.916664L508.45 115.916664C507.8977 115.916664 507.45 115.46895 507.45 114.916664Z" fill-rule="nonzero"/><path fill="#1a1a1a" d="M528.2469 113.916664L528.2469 105.322914L529.3094 105.322914L529.3094 110.229164L531.79376 107.697914L533.16876 107.697914L530.77814 109.99479L533.40314 113.916664L532.10626 113.916664L530.04376 110.729164L529.3094 111.447914L529.3094 113.916664L528.2469 113.916664ZM533.95 109.68229Q533.95 108.15104 534.2625 107.229164Q534.575 106.291664 535.1844 105.791664Q535.8094 105.291664 536.7469 105.291664Q537.4344 105.291664 537.95 105.572914Q538.48126 105.854164 538.825 106.385414Q539.16876 106.90104 539.35626 107.65104Q539.54376 108.40104 539.54376 109.68229Q539.54376 111.197914 539.23126 112.11979Q538.9344 113.041664 538.3094 113.55729Q537.7 114.05729 536.7469 114.05729Q535.5125 114.05729 534.79376 113.166664Q533.95 112.104164 533.95 109.68229ZM535.02814 109.68229Q535.02814 111.791664 535.52814 112.49479Q536.02814 113.197914 536.7469 113.197914Q537.48126 113.197914 537.96564 112.49479Q538.46564 111.791664 538.46564 109.68229Q538.46564 107.55729 537.96564 106.86979Q537.48126 106.166664 536.73126 106.166664Q536.0125 106.166664 535.575 106.77604Q535.02814 107.55729 535.02814 109.68229ZM540.825 112.05729L541.85626 111.90104Q541.95 112.52604 542.34064 112.854164Q542.7469 113.18229 543.48126 113.18229Q544.2 113.18229 544.54376 112.90104Q544.90314 112.604164 544.90314 112.197914Q544.90314 111.83854 544.59064 111.635414Q544.3719 111.49479 543.5125 111.27604Q542.35626 110.979164 541.90314 110.77604Q541.46564 110.55729 541.23126 110.18229Q540.9969 109.80729 540.9969 109.33854Q540.9969 108.93229 541.1844 108.572914Q541.3719 108.21354 541.7 107.979164Q541.95 107.80729 542.3719 107.68229Q542.79376 107.55729 543.29376 107.55729Q544.0125 107.55729 544.5594 107.77604Q545.1219 107.979164 545.3875 108.33854Q545.65314 108.697914 545.7469 109.291664L544.71564 109.43229Q544.65314 108.96354 544.3094 108.697914Q543.98126 108.416664 543.35626 108.416664Q542.6375 108.416664 542.325 108.666664Q542.0125 108.90104 542.0125 109.229164Q542.0125 109.43229 542.1375 109.58854Q542.27814 109.760414 542.54376 109.86979Q542.7 109.93229 543.48126 110.135414Q544.60626 110.447914 545.04376 110.635414Q545.48126 110.822914 545.73126 111.18229Q545.98126 111.541664 545.98126 112.08854Q545.98126 112.61979 545.66876 113.08854Q545.3719 113.541664 544.79376 113.80729Q544.21564 114.05729 543.48126 114.05729Q542.2625 114.05729 541.6219 113.55729Q540.9969 113.041664 540.825 112.05729Z" fill-rule="nonzero"/><path fill="#34a853" d="M507.45 128.91667C507.45 128.36438 507.8977 127.916664 508.45 127.916664L518.45 127.916664C519.00226 127.916664 519.45 128.36438 519.45 128.91667L519.45 138.91667C519.45 139.46895 519.00226 139.91667 518.45 139.91667L508.45 139.91667C507.8977 139.91667 507.45 139.46895 507.45 138.91667Z" fill-rule="nonzero"/><path fill="#1a1a1a" d="M528.2469 137.91667L528.2469 129.32292L529.3094 129.32292L529.3094 134.22917L531.79376 131.69792L533.16876 131.69792L530.77814 133.9948L533.40314 137.91667L532.10626 137.91667L530.04376 134.72917L529.3094 135.44792L529.3094 137.91667L528.2469 137.91667ZM533.95 135.65105L535.0125 135.51042Q535.1844 136.40105 535.6219 136.8073Q536.0594 137.19792 536.6844 137.19792Q537.4344 137.19792 537.95 136.6823Q538.46564 136.16667 538.46564 135.40105Q538.46564 134.6823 537.98126 134.21355Q537.5125 133.72917 536.77814 133.72917Q536.48126 133.72917 536.02814 133.85417L536.15314 132.91667Q536.2625 132.9323 536.325 132.9323Q536.9969 132.9323 537.52814 132.58855Q538.075 132.22917 538.075 131.4948Q538.075 130.91667 537.6844 130.54167Q537.29376 130.15105 536.66876 130.15105Q536.0594 130.15105 535.6375 130.54167Q535.23126 130.9323 535.1219 131.69792L534.0594 131.51042Q534.2469 130.46355 534.9344 129.88542Q535.6219 129.29167 536.6375 129.29167Q537.34064 129.29167 537.9344 129.60417Q538.52814 129.90105 538.84064 130.41667Q539.15314 130.9323 539.15314 131.52605Q539.15314 132.07292 538.85626 132.54167Q538.5594 132.9948 537.98126 133.26042Q538.73126 133.4323 539.15314 133.9948Q539.575 134.54167 539.575 135.38542Q539.575 136.51042 538.7469 137.29167Q537.9344 138.07292 536.6844 138.07292Q535.5594 138.07292 534.8094 137.40105Q534.0594 136.71355 533.95 135.65105ZM540.825 136.0573L541.85626 135.90105Q541.95 136.52605 542.34064 136.85417Q542.7469 137.1823 543.48126 137.1823Q544.2 137.1823 544.54376 136.90105Q544.90314 136.60417 544.90314 136.19792Q544.90314 135.83855 544.59064 135.63542Q544.3719 135.4948 543.5125 135.27605Q542.35626 134.97917 541.90314 134.77605Q541.46564 134.5573 541.23126 134.1823Q540.9969 133.8073 540.9969 133.33855Q540.9969 132.9323 541.1844 132.57292Q541.3719 132.21355 541.7 131.97917Q541.95 131.8073 542.3719 131.6823Q542.79376 131.5573 543.29376 131.5573Q544.0125 131.5573 544.5594 131.77605Q545.1219 131.97917 545.3875 132.33855Q545.65314 132.69792 545.7469 133.29167L544.71564 133.4323Q544.65314 132.96355 544.3094 132.69792Q543.98126 132.41667 543.35626 132.41667Q542.6375 132.41667 542.325 132.66667Q542.0125 132.90105 542.0125 133.22917Q542.0125 133.4323 542.1375 133.58855Q542.27814 133.76042 542.54376 133.8698Q542.7 133.9323 543.48126 134.13542Q544.60626 134.44792 545.04376 134.63542Q545.48126 134.82292 545.73126 135.1823Q545.98126 135.54167 545.98126 136.08855Q545.98126 136.6198 545.66876 137.08855Q545.3719 137.54167 544.79376 137.8073Q544.21564 138.0573 543.48126 138.0573Q542.2625 138.0573 541.6219 137.5573Q540.9969 137.04167 540.825 136.0573ZM550.85626 134.8073Q550.85626 133.07292 551.8094 132.2448Q552.60626 131.5573 553.7625 131.5573Q555.04376 131.5573 555.85626 132.40105Q556.6844 133.22917 556.6844 134.71355Q556.6844 135.91667 556.325 136.60417Q555.96564 137.29167 555.2625 137.6823Q554.575 138.0573 553.7625 138.0573Q552.46564 138.0573 551.65314 137.22917Q550.85626 136.38542 550.85626 134.8073ZM551.9344 134.8073Q551.9344 135.9948 552.45 136.58855Q552.98126 137.1823 553.7625 137.1823Q554.5594 137.1823 555.075 136.58855Q555.59064 135.9948 555.59064 134.77605Q555.59064 133.6198 555.0594 133.02605Q554.54376 132.4323 553.7625 132.4323Q552.98126 132.4323 552.45 133.02605Q551.9344 133.60417 551.9344 134.8073ZM557.825 136.0573L558.85626 135.90105Q558.95 136.52605 559.34064 136.85417Q559.7469 137.1823 560.48126 137.1823Q561.2 137.1823 561.54376 136.90105Q561.90314 136.60417 561.90314 136.19792Q561.90314 135.83855 561.59064 135.63542Q561.3719 135.4948 560.5125 135.27605Q559.35626 134.97917 558.90314 134.77605Q558.46564 134.5573 558.23126 134.1823Q557.9969 133.8073 557.9969 133.33855Q557.9969 132.9323 558.1844 132.57292Q558.3719 132.21355 558.7 131.97917Q558.95 131.8073 559.3719 131.6823Q559.79376 131.5573 560.29376 131.5573Q561.0125 131.5573 561.5594 131.77605Q562.1219 131.97917 562.3875 132.33855Q562.65314 132.69792 562.7469 133.29167L561.71564 133.4323Q561.65314 132.96355 561.3094 132.69792Q560.98126 132.41667 560.35626 132.41667Q559.6375 132.41667 559.325 132.66667Q559.0125 132.90105 559.0125 133.22917Q559.0125 133.4323 559.1375 133.58855Q559.27814 133.76042 559.54376 133.8698Q559.7 133.9323 560.48126 134.13542Q561.60626 134.44792 562.04376 134.63542Q562.48126 134.82292 562.73126 135.1823Q562.98126 135.54167 562.98126 136.08855Q562.98126 136.6198 562.66876 137.08855Q562.3719 137.54167 561.79376 137.8073Q561.21564 138.0573 560.48126 138.0573Q559.2625 138.0573 558.6219 137.5573Q557.9969 137.04167 557.825 136.0573ZM564.825 136.0573L565.85626 135.90105Q565.95 136.52605 566.34064 136.85417Q566.7469 137.1823 567.48126 137.1823Q568.2 137.1823 568.54376 136.90105Q568.90314 136.60417 568.90314 136.19792Q568.90314 135.83855 568.59064 135.63542Q568.3719 135.4948 567.5125 135.27605Q566.35626 134.97917 565.90314 134.77605Q565.46564 134.5573 565.23126 134.1823Q564.9969 133.8073 564.9969 133.33855Q564.9969 132.9323 565.1844 132.57292Q565.3719 132.21355 565.7 131.97917Q565.95 131.8073 566.3719 131.6823Q566.79376 131.5573 567.29376 131.5573Q568.0125 131.5573 568.5594 131.77605Q569.1219 131.97917 569.3875 132.33855Q569.65314 132.69792 569.7469 133.29167L568.71564 133.4323Q568.65314 132.96355 568.3094 132.69792Q567.98126 132.41667 567.35626 132.41667Q566.6375 132.41667 566.325 132.66667Q566.0125 132.90105 566.0125 133.22917Q566.0125 133.4323 566.1375 133.58855Q566.27814 133.76042 566.54376 133.8698Q566.7 133.9323 567.48126 134.13542Q568.60626 134.44792 569.04376 134.63542Q569.48126 134.82292 569.73126 135.1823Q569.98126 135.54167 569.98126 136.08855Q569.98126 136.6198 569.66876 137.08855Q569.3719 137.54167 568.79376 137.8073Q568.21564 138.0573 567.48126 138.0573Q566.2625 138.0573 565.6219 137.5573Q564.9969 137.04167 564.825 136.0573Z" fill-rule="nonzero"/><path fill="#ff6d01" d="M507.45 152.91667C507.45 152.36438 507.8977 151.91667 508.45 151.91667L518.45 151.91667C519.00226 151.91667 519.45 152.36438 519.45 152.91667L519.45 162.91667C519.45 163.46895 519.00226 163.91667 518.45 163.91667L508.45 163.91667C507.8977 163.91667 507.45 163.46895 507.45 162.91667Z" fill-rule="nonzero"/><path fill="#1a1a1a" d="M528.2469 161.91667L528.2469 153.32292L529.3094 153.32292L529.3094 158.22917L531.79376 155.69792L533.16876 155.69792L530.77814 157.9948L533.40314 161.91667L532.10626 161.91667L530.04376 158.72917L529.3094 159.44792L529.3094 161.91667L528.2469 161.91667ZM533.95 159.65105L535.0125 159.51042Q535.1844 160.40105 535.6219 160.8073Q536.0594 161.19792 536.6844 161.19792Q537.4344 161.19792 537.95 160.6823Q538.46564 160.16667 538.46564 159.40105Q538.46564 158.6823 537.98126 158.21355Q537.5125 157.72917 536.77814 157.72917Q536.48126 157.72917 536.02814 157.85417L536.15314 156.91667Q536.2625 156.9323 536.325 156.9323Q536.9969 156.9323 537.52814 156.58855Q538.075 156.22917 538.075 155.4948Q538.075 154.91667 537.6844 154.54167Q537.29376 154.15105 536.66876 154.15105Q536.0594 154.15105 535.6375 154.54167Q535.23126 154.9323 535.1219 155.69792L534.0594 155.51042Q534.2469 154.46355 534.9344 153.88542Q535.6219 153.29167 536.6375 153.29167Q537.34064 153.29167 537.9344 153.60417Q538.52814 153.90105 538.84064 154.41667Q539.15314 154.9323 539.15314 155.52605Q539.15314 156.07292 538.85626 156.54167Q538.5594 156.9948 537.98126 157.26042Q538.73126 157.4323 539.15314 157.9948Q539.575 158.54167 539.575 159.38542Q539.575 160.51042 538.7469 161.29167Q537.9344 162.07292 536.6844 162.07292Q535.5594 162.07292 534.8094 161.40105Q534.0594 160.71355 533.95 159.65105ZM540.825 160.0573L541.85626 159.90105Q541.95 160.52605 542.34064 160.85417Q542.7469 161.1823 543.48126 161.1823Q544.2 161.1823 544.54376 160.90105Q544.90314 160.60417 544.90314 160.19792Q544.90314 159.83855 544.59064 159.63542Q544.3719 159.4948 543.5125 159.27605Q542.35626 158.97917 541.90314 158.77605Q541.46564 158.5573 541.23126 158.1823Q540.9969 157.8073 540.9969 157.33855Q540.9969 156.9323 541.1844 156.57292Q541.3719 156.21355 541.7 155.97917Q541.95 155.8073 542.3719 155.6823Q542.79376 155.5573 543.29376 155.5573Q544.0125 155.5573 544.5594 155.77605Q545.1219 155.97917 545.3875 156.33855Q545.65314 156.69792 545.7469 157.29167L544.71564 157.4323Q544.65314 156.96355 544.3094 156.69792Q543.98126 156.41667 543.35626 156.41667Q542.6375 156.41667 542.325 156.66667Q542.0125 156.90105 542.0125 157.22917Q542.0125 157.4323 542.1375 157.58855Q542.27814 157.76042 542.54376 157.8698Q542.7 157.9323 543.48126 158.13542Q544.60626 158.44792 545.04376 158.63542Q545.48126 158.82292 545.73126 159.1823Q545.98126 159.54167 545.98126 160.08855Q545.98126 160.6198 545.66876 161.08855Q545.3719 161.54167 544.79376 161.8073Q544.21564 162.0573 543.48126 162.0573Q542.2625 162.0573 541.6219 161.5573Q540.9969 161.04167 540.825 160.0573ZM551.2469 164.3073L551.2469 155.69792L552.2 155.69792L552.2 156.4948Q552.54376 156.02605 552.96564 155.79167Q553.40314 155.5573 554.0125 155.5573Q554.8094 155.5573 555.41876 155.96355Q556.02814 156.3698 556.325 157.1198Q556.6375 157.8698 556.6375 158.76042Q556.6375 159.71355 556.29376 160.47917Q555.96564 161.2448 555.3094 161.65105Q554.65314 162.0573 553.9344 162.0573Q553.40314 162.0573 552.98126 161.83855Q552.5594 161.60417 552.29376 161.27605L552.29376 164.3073L551.2469 164.3073ZM552.2 158.83855Q552.2 160.04167 552.6844 160.6198Q553.16876 161.1823 553.85626 161.1823Q554.5594 161.1823 555.0594 160.58855Q555.5594 159.9948 555.5594 158.7448Q555.5594 157.5573 555.075 156.97917Q554.59064 156.38542 553.90314 156.38542Q553.23126 156.38542 552.71564 157.01042Q552.2 157.63542 552.2 158.83855ZM558.23126 161.91667L558.23126 155.69792L559.1844 155.69792L559.1844 156.63542Q559.54376 155.97917 559.84064 155.77605Q560.15314 155.5573 560.52814 155.5573Q561.0594 155.5573 561.60626 155.88542L561.2469 156.8698Q560.85626 156.63542 560.48126 156.63542Q560.1219 156.63542 559.84064 156.85417Q559.575 157.0573 559.46564 157.4323Q559.27814 157.9948 559.27814 158.65105L559.27814 161.91667L558.23126 161.91667ZM561.85626 158.8073Q561.85626 157.07292 562.8094 156.2448Q563.60626 155.5573 564.7625 155.5573Q566.04376 155.5573 566.85626 156.40105Q567.6844 157.22917 567.6844 158.71355Q567.6844 159.91667 567.325 160.60417Q566.96564 161.29167 566.2625 161.6823Q565.575 162.0573 564.7625 162.0573Q563.46564 162.0573 562.65314 161.22917Q561.85626 160.38542 561.85626 158.8073ZM562.9344 158.8073Q562.9344 159.9948 563.45 160.58855Q563.98126 161.1823 564.7625 161.1823Q565.5594 161.1823 566.075 160.58855Q566.59064 159.9948 566.59064 158.77605Q566.59064 157.6198 566.0594 157.02605Q565.54376 156.4323 564.7625 156.4323Q563.98126 156.4323 563.45 157.02605Q562.9344 157.60417 562.9344 158.8073Z" fill-rule="nonzero"/><path fill="#46bdc6" d="M507.45 176.91667C507.45 176.36438 507.8977 175.91667 508.45 175.91667L518.45 175.91667C519.00226 175.91667 519.45 176.36438 519.45 176.91667L519.45 186.91667C519.45 187.46895 519.00226 187.91667 518.45 187.91667L508.45 187.91667C507.8977 187.91667 507.45 187.46895 507.45 186.91667Z" fill-rule="nonzero"/><path fill="#1a1a1a" d="M528.2469 185.91667L528.2469 177.32292L529.3094 177.32292L529.3094 182.22917L531.79376 179.69792L533.16876 179.69792L530.77814 181.9948L533.40314 185.91667L532.10626 185.91667L530.04376 182.72917L529.3094 183.44792L529.3094 185.91667L528.2469 185.91667ZM535.575 181.26042Q534.91876 181.01042 534.59064 180.57292Q534.27814 180.1198 534.27814 179.51042Q534.27814 178.57292 534.95 177.9323Q535.6375 177.29167 536.7469 177.29167Q537.8719 177.29167 538.5594 177.94792Q539.2469 178.60417 539.2469 179.54167Q539.2469 180.13542 538.9344 180.57292Q538.6219 181.01042 537.98126 181.26042Q538.77814 181.51042 539.1844 182.08855Q539.59064 182.66667 539.59064 183.46355Q539.59064 184.5573 538.8094 185.3073Q538.04376 186.0573 536.7625 186.0573Q535.4969 186.0573 534.71564 185.3073Q533.9344 184.5573 533.9344 183.4323Q533.9344 182.58855 534.35626 182.02605Q534.79376 181.46355 535.575 181.26042ZM535.35626 179.46355Q535.35626 180.07292 535.7469 180.46355Q536.15314 180.85417 536.77814 180.85417Q537.3875 180.85417 537.77814 180.47917Q538.16876 180.08855 538.16876 179.52605Q538.16876 178.94792 537.7625 178.5573Q537.35626 178.15105 536.7625 178.15105Q536.15314 178.15105 535.7469 178.54167Q535.35626 178.9323 535.35626 179.46355ZM535.02814 183.4323Q535.02814 183.88542 535.23126 184.3073Q535.45 184.72917 535.8719 184.96355Q536.29376 185.19792 536.77814 185.19792Q537.52814 185.19792 538.0125 184.71355Q538.5125 184.22917 538.5125 183.47917Q538.5125 182.71355 538.0125 182.21355Q537.5125 181.71355 536.7469 181.71355Q535.9969 181.71355 535.5125 182.21355Q535.02814 182.69792 535.02814 183.4323ZM540.825 184.0573L541.85626 183.90105Q541.95 184.52605 542.34064 184.85417Q542.7469 185.1823 543.48126 185.1823Q544.2 185.1823 544.54376 184.90105Q544.90314 184.60417 544.90314 184.19792Q544.90314 183.83855 544.59064 183.63542Q544.3719 183.4948 543.5125 183.27605Q542.35626 182.97917 541.90314 182.77605Q541.46564 182.5573 541.23126 182.1823Q540.9969 181.8073 540.9969 181.33855Q540.9969 180.9323 541.1844 180.57292Q541.3719 180.21355 541.7 179.97917Q541.95 179.8073 542.3719 179.6823Q542.79376 179.5573 543.29376 179.5573Q544.0125 179.5573 544.5594 179.77605Q545.1219 179.97917 545.3875 180.33855Q545.65314 180.69792 545.7469 181.29167L544.71564 181.4323Q544.65314 180.96355 544.3094 180.69792Q543.98126 180.41667 543.35626 180.41667Q542.6375 180.41667 542.325 180.66667Q542.0125 180.90105 542.0125 181.22917Q542.0125 181.4323 542.1375 181.58855Q542.27814 181.76042 542.54376 181.8698Q542.7 181.9323 543.48126 182.13542Q544.60626 182.44792 545.04376 182.63542Q545.48126 182.82292 545.73126 183.1823Q545.98126 183.54167 545.98126 184.08855Q545.98126 184.6198 545.66876 185.08855Q545.3719 185.54167 544.79376 185.8073Q544.21564 186.0573 543.48126 186.0573Q542.2625 186.0573 541.6219 185.5573Q540.9969 185.04167 540.825 184.0573ZM554.91876 185.91667L553.8719 185.91667L553.8719 179.19792Q553.48126 179.5573 552.85626 179.9323Q552.2469 180.29167 551.7625 180.46355L551.7625 179.44792Q552.6375 179.02605 553.29376 178.44792Q553.96564 177.85417 554.2469 177.29167L554.91876 177.29167L554.91876 185.91667Z" fill-rule="nonzero"/><path fill="#757575" d="M26.64375 36.26875Q25.659374 37.096874 24.753124 37.440624Q23.846874 37.784374 22.815624 37.784374Q21.1125 37.784374 20.190624 36.95625Q19.26875 36.1125 19.26875 34.815624Q19.26875 34.05 19.6125 33.425Q19.971874 32.8 20.534374 32.425Q21.096874 32.034374 21.8 31.83125Q22.315624 31.70625 23.3625 31.565624Q25.4875 31.315624 26.4875 30.971874Q26.503124 30.6125 26.503124 30.503124Q26.503124 29.440624 26.003124 28.9875Q25.33125 28.39375 24.003124 28.39375Q22.753124 28.39375 22.159374 28.83125Q21.58125 29.26875 21.3 30.378124L19.58125 30.14375Q19.815624 29.034374 20.346874 28.3625Q20.878124 27.675 21.89375 27.315624Q22.909374 26.940624 24.253124 26.940624Q25.58125 26.940624 26.409374 27.253124Q27.2375 27.565624 27.628124 28.05Q28.01875 28.51875 28.175 29.2375Q28.26875 29.690624 28.26875 30.8625L28.26875 33.20625Q28.26875 35.659374 28.378124 36.315624Q28.4875 36.95625 28.83125 37.55L26.9875 37.55Q26.721874 37.003124 26.64375 36.26875ZM26.4875 32.346874Q25.534374 32.7375 23.6125 33.003124Q22.534374 33.159374 22.08125 33.3625Q21.64375 33.55 21.39375 33.925Q21.14375 34.3 21.14375 34.76875Q21.14375 35.471874 21.675 35.940624Q22.20625 36.409374 23.2375 36.409374Q24.253124 36.409374 25.034374 35.971874Q25.83125 35.51875 26.20625 34.753124Q26.4875 34.14375 26.4875 32.9875L26.4875 32.346874ZM33.753124 37.55L29.8 27.175L31.659374 27.175L33.89375 33.39375Q34.253124 34.39375 34.55 35.471874Q34.784374 34.659374 35.20625 33.503124L37.503124 27.175L39.315624 27.175L35.39375 37.55L33.753124 37.55ZM46.971874 34.20625L48.784374 34.440624Q48.3625 36.01875 47.190624 36.909374Q46.034374 37.784374 44.221874 37.784374Q41.95625 37.784374 40.6125 36.39375Q39.284374 34.9875 39.284374 32.45625Q39.284374 29.83125 40.628124 28.39375Q41.971874 26.940624 44.128124 26.940624Q46.20625 26.940624 47.51875 28.3625Q48.846874 29.76875 48.846874 32.346874Q48.846874 32.503124 48.83125 32.815624L41.096874 32.815624Q41.190624 34.51875 42.065624 35.425Q42.940624 36.33125 44.2375 36.33125Q45.20625 36.33125 45.878124 35.83125Q46.565624 35.315624 46.971874 34.20625ZM41.190624 31.3625L46.9875 31.3625Q46.878124 30.065624 46.33125 29.409374Q45.4875 28.39375 44.14375 28.39375Q42.940624 28.39375 42.1125 29.20625Q41.284374 30.003124 41.190624 31.3625ZM50.846874 37.55L50.846874 27.175L52.425 27.175L52.425 28.753124Q53.034374 27.64375 53.55 27.3Q54.065624 26.940624 54.675 26.940624Q55.565624 26.940624 56.4875 27.503124L55.878124 29.14375Q55.2375 28.753124 54.596874 28.753124Q54.01875 28.753124 53.55 29.1125Q53.096874 29.45625 52.89375 30.065624Q52.6125 31.003124 52.6125 32.1125L52.6125 37.55L50.846874 37.55ZM64.64375 36.26875Q63.659374 37.096874 62.753124 37.440624Q61.846874 37.784374 60.815624 37.784374Q59.1125 37.784374 58.190624 36.95625Q57.26875 36.1125 57.26875 34.815624Q57.26875 34.05 57.6125 33.425Q57.971874 32.8 58.534374 32.425Q59.096874 32.034374 59.8 31.83125Q60.315624 31.70625 61.3625 31.565624Q63.4875 31.315624 64.4875 30.971874Q64.50313 30.6125 64.50313 30.503124Q64.50313 29.440624 64.00313 28.9875Q63.33125 28.39375 62.003124 28.39375Q60.753124 28.39375 60.159374 28.83125Q59.58125 29.26875 59.3 30.378124L57.58125 30.14375Q57.815624 29.034374 58.346874 28.3625Q58.878124 27.675 59.89375 27.315624Q60.909374 26.940624 62.253124 26.940624Q63.58125 26.940624 64.40938 27.253124Q65.2375 27.565624 65.62813 28.05Q66.01875 28.51875 66.175 29.2375Q66.26875 29.690624 66.26875 30.8625L66.26875 33.20625Q66.26875 35.659374 66.37813 36.315624Q66.4875 36.95625 66.83125 37.55L64.9875 37.55Q64.72188 37.003124 64.64375 36.26875ZM64.4875 32.346874Q63.534374 32.7375 61.6125 33.003124Q60.534374 33.159374 60.08125 33.3625Q59.64375 33.55 59.39375 33.925Q59.14375 34.3 59.14375 34.76875Q59.14375 35.471874 59.675 35.940624Q60.20625 36.409374 61.2375 36.409374Q62.253124 36.409374 63.034374 35.971874Q63.83125 35.51875 64.20625 34.753124Q64.4875 34.14375 64.4875 32.9875L64.4875 32.346874ZM68.55 38.409374L70.25313 38.659374Q70.3625 39.45625 70.84688 39.815624Q71.50313 40.3 72.64375 40.3Q73.8625 40.3 74.51875 39.815624Q75.19063 39.33125 75.425 38.45625Q75.56563 37.909374 75.55 36.190624Q74.39375 37.55 72.675 37.55Q70.53438 37.55 69.3625 36.003124Q68.19063 34.45625 68.19063 32.3Q68.19063 30.815624 68.72188 29.565624Q69.26875 28.315624 70.28438 27.628124Q71.31563 26.940624 72.69063 26.940624Q74.51875 26.940624 75.72188 28.425L75.72188 27.175L77.33125 27.175L77.33125 36.14375Q77.33125 38.565624 76.83125 39.565624Q76.34688 40.58125 75.26875 41.159374Q74.20625 41.753124 72.64375 41.753124Q70.8 41.753124 69.64375 40.925Q68.50313 40.096874 68.55 38.409374ZM70.00313 32.175Q70.00313 34.221874 70.81563 35.159374Q71.62813 36.096874 72.84688 36.096874Q74.05 36.096874 74.8625 35.159374Q75.69063 34.221874 75.69063 32.2375Q75.69063 30.33125 74.84688 29.3625Q74.00313 28.39375 72.81563 28.39375Q71.64375 28.39375 70.81563 29.346874Q70.00313 30.3 70.00313 32.175ZM86.97188 34.20625L88.78438 34.440624Q88.3625 36.01875 87.19063 36.909374Q86.03438 37.784374 84.22188 37.784374Q81.95625 37.784374 80.6125 36.39375Q79.28438 34.9875 79.28438 32.45625Q79.28438 29.83125 80.62813 28.39375Q81.97188 26.940624 84.12813 26.940624Q86.20625 26.940624 87.51875 28.3625Q88.84688 29.76875 88.84688 32.346874Q88.84688 32.503124 88.83125 32.815624L81.09688 32.815624Q81.19063 34.51875 82.06563 35.425Q82.94063 36.33125 84.2375 36.33125Q85.20625 36.33125 85.87813 35.83125Q86.56563 35.315624 86.97188 34.20625ZM81.19063 31.3625L86.9875 31.3625Q86.87813 30.065624 86.33125 29.409374Q85.4875 28.39375 84.14375 28.39375Q82.94063 28.39375 82.1125 29.20625Q81.28438 30.003124 81.19063 31.3625ZM103.64375 36.26875Q102.65938 37.096874 101.75313 37.440624Q100.84688 37.784374 99.81563 37.784374Q98.1125 37.784374 97.19063 36.95625Q96.26875 36.1125 96.26875 34.815624Q96.26875 34.05 96.6125 33.425Q96.97188 32.8 97.53438 32.425Q98.09688 32.034374 98.8 31.83125Q99.31563 31.70625 100.3625 31.565624Q102.4875 31.315624 103.4875 30.971874Q103.50313 30.6125 103.50313 30.503124Q103.50313 29.440624 103.00313 28.9875Q102.33125 28.39375 101.00313 28.39375Q99.75313 28.39375 99.15938 28.83125Q98.58125 29.26875 98.3 30.378124L96.58125 30.14375Q96.81563 29.034374 97.34688 28.3625Q97.87813 27.675 98.89375 27.315624Q99.90938 26.940624 101.25313 26.940624Q102.58125 26.940624 103.40938 27.253124Q104.2375 27.565624 104.62813 28.05Q105.01875 28.51875 105.175 29.2375Q105.26875 29.690624 105.26875 30.8625L105.26875 33.20625Q105.26875 35.659374 105.37813 36.315624Q105.4875 36.95625 105.83125 37.55L103.9875 37.55Q103.72188 37.003124 103.64375 36.26875ZM103.4875 32.346874Q102.53438 32.7375 100.6125 33.003124Q99.53438 33.159374 99.08125 33.3625Q98.64375 33.55 98.39375 33.925Q98.14375 34.3 98.14375 34.76875Q98.14375 35.471874 98.675 35.940624Q99.20625 36.409374 100.2375 36.409374Q101.25313 36.409374 102.03438 35.971874Q102.83125 35.51875 103.20625 34.753124Q103.4875 34.14375 103.4875 32.9875L103.4875 32.346874ZM107.8625 41.51875L107.8625 27.175L109.47188 27.175L109.47188 28.51875Q110.03438 27.7375 110.7375 27.346874Q111.45625 26.940624 112.47188 26.940624Q113.8 26.940624 114.81563 27.628124Q115.83125 28.315624 116.34688 29.565624Q116.87813 30.8 116.87813 32.284374Q116.87813 33.878124 116.3 35.159374Q115.7375 36.425 114.64375 37.1125Q113.55 37.784374 112.34688 37.784374Q111.47188 37.784374 110.76875 37.409374Q110.08125 37.034374 109.62813 36.471874L109.62813 41.51875L107.8625 41.51875ZM109.45625 32.425Q109.45625 34.425 110.26875 35.378124Q111.08125 36.33125 112.2375 36.33125Q113.40938 36.33125 114.2375 35.346874Q115.08125 34.3625 115.08125 32.26875Q115.08125 30.3 114.25313 29.315624Q113.44063 28.315624 112.31563 28.315624Q111.19063 28.315624 110.31563 29.378124Q109.45625 30.425 109.45625 32.425ZM118.87813 25.253124L118.87813 23.2375L120.64375 23.2375L120.64375 25.253124L118.87813 25.253124ZM118.87813 37.55L118.87813 27.175L120.64375 27.175L120.64375 37.55L118.87813 37.55ZM128.84688 37.55L128.84688 27.175L130.425 27.175L130.425 28.753124Q131.03438 27.64375 131.55 27.3Q132.06563 26.940624 132.675 26.940624Q133.56563 26.940624 134.4875 27.503124L133.87813 29.14375Q133.2375 28.753124 132.59688 28.753124Q132.01875 28.753124 131.55 29.1125Q131.09688 29.45625 130.89375 30.065624Q130.6125 31.003124 130.6125 32.1125L130.6125 37.55L128.84688 37.55ZM142.97188 34.20625L144.78438 34.440624Q144.3625 36.01875 143.19063 36.909374Q142.03438 37.784374 140.22188 37.784374Q137.95625 37.784374 136.6125 36.39375Q135.28438 34.9875 135.28438 32.45625Q135.28438 29.83125 136.62813 28.39375Q137.97188 26.940624 140.12813 26.940624Q142.20625 26.940624 143.51875 28.3625Q144.84688 29.76875 144.84688 32.346874Q144.84688 32.503124 144.83125 32.815624L137.09688 32.815624Q137.19063 34.51875 138.06563 35.425Q138.94063 36.33125 140.2375 36.33125Q141.20625 36.33125 141.87813 35.83125Q142.56563 35.315624 142.97188 34.20625ZM137.19063 31.3625L142.9875 31.3625Q142.87813 30.065624 142.33125 29.409374Q141.4875 28.39375 140.14375 28.39375Q138.94063 28.39375 138.1125 29.20625Q137.28438 30.003124 137.19063 31.3625ZM146.15938 34.45625L147.90938 34.175Q148.05 35.221874 148.72188 35.784374Q149.39375 36.33125 150.59688 36.33125Q151.8 36.33125 152.37813 35.846874Q152.97188 35.346874 152.97188 34.690624Q152.97188 34.096874 152.45625 33.753124Q152.09688 33.51875 150.65938 33.159374Q148.72188 32.659374 147.97188 32.315624Q147.2375 31.95625 146.84688 31.33125Q146.45625 30.690624 146.45625 29.925Q146.45625 29.2375 146.76875 28.64375Q147.09688 28.05 147.64375 27.659374Q148.05 27.3625 148.75313 27.159374Q149.47188 26.940624 150.28438 26.940624Q151.50313 26.940624 152.425 27.3Q153.34688 27.64375 153.78438 28.253124Q154.22188 28.846874 154.39375 29.846874L152.675 30.08125Q152.55 29.284374 151.9875 28.846874Q151.425 28.39375 150.40938 28.39375Q149.19063 28.39375 148.675 28.8Q148.15938 29.190624 148.15938 29.721874Q148.15938 30.065624 148.37813 30.346874Q148.58125 30.628124 149.05 30.815624Q149.31563 30.909374 150.59688 31.253124Q152.47188 31.753124 153.20625 32.08125Q153.94063 32.39375 154.3625 33.003124Q154.78438 33.596874 154.78438 34.503124Q154.78438 35.378124 154.26875 36.159374Q153.75313 36.940624 152.78438 37.3625Q151.81563 37.784374 150.59688 37.784374Q148.58125 37.784374 147.51875 36.940624Q146.45625 36.096874 146.15938 34.45625ZM156.8625 41.51875L156.8625 27.175L158.47188 27.175L158.47188 28.51875Q159.03438 27.7375 159.7375 27.346874Q160.45625 26.940624 161.47188 26.940624Q162.8 26.940624 163.81563 27.628124Q164.83125 28.315624 165.34688 29.565624Q165.87813 30.8 165.87813 32.284374Q165.87813 33.878124 165.3 35.159374Q164.7375 36.425 163.64375 37.1125Q162.55 37.784374 161.34688 37.784374Q160.47188 37.784374 159.76875 37.409374Q159.08125 37.034374 158.62813 36.471874L158.62813 41.51875L156.8625 41.51875ZM158.45625 32.425Q158.45625 34.425 159.26875 35.378124Q160.08125 36.33125 161.2375 36.33125Q162.40938 36.33125 163.2375 35.346874Q164.08125 34.3625 164.08125 32.26875Q164.08125 30.3 163.25313 29.315624Q162.44063 28.315624 161.31563 28.315624Q160.19063 28.315624 159.31563 29.378124Q158.45625 30.425 158.45625 32.425ZM167.22188 32.3625Q167.22188 29.4875 168.81563 28.096874Q170.15938 26.940624 172.08125 26.940624Q174.22188 26.940624 175.56563 28.346874Q176.925 29.753124 176.925 32.221874Q176.925 34.221874 176.33125 35.378124Q175.7375 36.51875 174.58125 37.159374Q173.44063 37.784374 172.08125 37.784374Q169.89375 37.784374 168.55 36.39375Q167.22188 34.9875 167.22188 32.3625ZM169.01875 32.3625Q169.01875 34.3625 169.87813 35.346874Q170.75313 36.33125 172.08125 36.33125Q173.39375 36.33125 174.25313 35.346874Q175.12813 34.346874 175.12813 32.3Q175.12813 30.378124 174.25313 29.39375Q173.37813 28.39375 172.08125 28.39375Q170.75313 28.39375 169.87813 29.39375Q169.01875 30.378124 169.01875 32.3625ZM178.8625 37.55L178.8625 27.175L180.45625 27.175L180.45625 28.659374Q181.59688 26.940624 183.75313 26.940624Q184.69063 26.940624 185.47188 27.284374Q186.26875 27.6125 186.65938 28.159374Q187.05 28.70625 187.20625 29.45625Q187.3 29.95625 187.3 31.175L187.3 37.55L185.53438 37.55L185.53438 31.2375Q185.53438 30.159374 185.33125 29.628124Q185.12813 29.096874 184.59688 28.784374Q184.08125 28.471874 183.37813 28.471874Q182.25313 28.471874 181.44063 29.190624Q180.62813 29.89375 180.62813 31.878124L180.62813 37.55L178.8625 37.55ZM188.15938 34.45625L189.90938 34.175Q190.05 35.221874 190.72188 35.784374Q191.39375 36.33125 192.59688 36.33125Q193.8 36.33125 194.37813 35.846874Q194.97188 35.346874 194.97188 34.690624Q194.97188 34.096874 194.45625 33.753124Q194.09688 33.51875 192.65938 33.159374Q190.72188 32.659374 189.97188 32.315624Q189.2375 31.95625 188.84688 31.33125Q188.45625 30.690624 188.45625 29.925Q188.45625 29.2375 188.76875 28.64375Q189.09688 28.05 189.64375 27.659374Q190.05 27.3625 190.75313 27.159374Q191.47188 26.940624 192.28438 26.940624Q193.50313 26.940624 194.425 27.3Q195.34688 27.64375 195.78438 28.253124Q196.22188 28.846874 196.39375 29.846874L194.675 30.08125Q194.55 29.284374 193.9875 28.846874Q193.425 28.39375 192.40938 28.39375Q191.19063 28.39375 190.675 28.8Q190.15938 29.190624 190.15938 29.721874Q190.15938 30.065624 190.37813 30.346874Q190.58125 30.628124 191.05 30.815624Q191.31563 30.909374 192.59688 31.253124Q194.47188 31.753124 195.20625 32.08125Q195.94063 32.39375 196.3625 33.003124Q196.78438 33.596874 196.78438 34.503124Q196.78438 35.378124 196.26875 36.159374Q195.75313 36.940624 194.78438 37.3625Q193.81563 37.784374 192.59688 37.784374Q190.58125 37.784374 189.51875 36.940624Q188.45625 36.096874 188.15938 34.45625ZM205.97188 34.20625L207.78438 34.440624Q207.3625 36.01875 206.19063 36.909374Q205.03438 37.784374 203.22188 37.784374Q200.95625 37.784374 199.6125 36.39375Q198.28438 34.9875 198.28438 32.45625Q198.28438 29.83125 199.62813 28.39375Q200.97188 26.940624 203.12813 26.940624Q205.20625 26.940624 206.51875 28.3625Q207.84688 29.76875 207.84688 32.346874Q207.84688 32.503124 207.83125 32.815624L200.09688 32.815624Q200.19063 34.51875 201.06563 35.425Q201.94063 36.33125 203.2375 36.33125Q204.20625 36.33125 204.87813 35.83125Q205.56563 35.315624 205.97188 34.20625ZM200.19063 31.3625L205.9875 31.3625Q205.87813 30.065624 205.33125 29.409374Q204.4875 28.39375 203.14375 28.39375Q201.94063 28.39375 201.1125 29.20625Q200.28438 30.003124 200.19063 31.3625ZM219.70625 35.971874L219.95625 37.534374Q219.22188 37.690624 218.62813 37.690624Q217.675 37.690624 217.14375 37.39375Q216.62813 37.08125 216.40938 36.596874Q216.19063 36.096874 216.19063 34.51875L216.19063 28.55L214.90938 28.55L214.90938 27.175L216.19063 27.175L216.19063 24.6125L217.94063 23.55L217.94063 27.175L219.70625 27.175L219.70625 28.55L217.94063 28.55L217.94063 34.6125Q217.94063 35.3625 218.03438 35.58125Q218.12813 35.784374 218.33125 35.925Q218.55 36.05 218.94063 36.05Q219.22188 36.05 219.70625 35.971874ZM221.87813 25.253124L221.87813 23.2375L223.64375 23.2375L223.64375 25.253124L221.87813 25.253124ZM221.87813 37.55L221.87813 27.175L223.64375 27.175L223.64375 37.55L221.87813 37.55ZM225.8625 37.55L225.8625 27.175L227.44063 27.175L227.44063 28.628124Q227.925 27.878124 228.7375 27.409374Q229.55 26.940624 230.58125 26.940624Q231.7375 26.940624 232.47188 27.425Q233.20625 27.89375 233.51875 28.753124Q234.75313 26.940624 236.72188 26.940624Q238.26875 26.940624 239.09688 27.8Q239.925 28.659374 239.925 30.425L239.925 37.55L238.175 37.55L238.175 31.01875Q238.175 29.95625 238.00313 29.503124Q237.83125 29.034374 237.37813 28.753124Q236.94063 28.471874 236.33125 28.471874Q235.2375 28.471874 234.50313 29.20625Q233.78438 29.925 233.78438 31.51875L233.78438 37.55L232.03438 37.55L232.03438 30.815624Q232.03438 29.64375 231.59688 29.065624Q231.175 28.471874 230.19063 28.471874Q229.45625 28.471874 228.81563 28.8625Q228.19063 29.253124 227.90938 30.003124Q227.62813 30.753124 227.62813 32.175L227.62813 37.55L225.8625 37.55ZM248.97188 34.20625L250.78438 34.440624Q250.3625 36.01875 249.19063 36.909374Q248.03438 37.784374 246.22188 37.784374Q243.95625 37.784374 242.6125 36.39375Q241.28438 34.9875 241.28438 32.45625Q241.28438 29.83125 242.62813 28.39375Q243.97188 26.940624 246.12813 26.940624Q248.20625 26.940624 249.51875 28.3625Q250.84688 29.76875 250.84688 32.346874Q250.84688 32.503124 250.83125 32.815624L243.09688 32.815624Q243.19063 34.51875 244.06563 35.425Q244.94063 36.33125 246.2375 36.33125Q247.20625 36.33125 247.87813 35.83125Q248.56563 35.315624 248.97188 34.20625ZM243.19063 31.3625L248.9875 31.3625Q248.87813 30.065624 248.33125 29.409374Q247.4875 28.39375 246.14375 28.39375Q244.94063 28.39375 244.1125 29.20625Q243.28438 30.003124 243.19063 31.3625ZM258.8781 25.253124L258.8781 23.2375L260.64374 23.2375L260.64374 25.253124L258.8781 25.253124ZM258.8781 37.55L258.8781 27.175L260.64374 27.175L260.64374 37.55L258.8781 37.55ZM262.8625 37.55L262.8625 27.175L264.45624 27.175L264.45624 28.659374Q265.59686 26.940624 267.7531 26.940624Q268.6906 26.940624 269.47186 27.284374Q270.26874 27.6125 270.65936 28.159374Q271.05 28.70625 271.20624 29.45625Q271.3 29.95625 271.3 31.175L271.3 37.55L269.53436 37.55L269.53436 31.2375Q269.53436 30.159374 269.33124 29.628124Q269.1281 29.096874 268.59686 28.784374Q268.08124 28.471874 267.3781 28.471874Q266.2531 28.471874 265.4406 29.190624Q264.6281 29.89375 264.6281 31.878124L264.6281 37.55L262.8625 37.55ZM278.15936 34.45625L279.90936 34.175Q280.05 35.221874 280.72186 35.784374Q281.39374 36.33125 282.59686 36.33125Q283.8 36.33125 284.3781 35.846874Q284.97186 35.346874 284.97186 34.690624Q284.97186 34.096874 284.45624 33.753124Q284.09686 33.51875 282.65936 33.159374Q280.72186 32.659374 279.97186 32.315624Q279.2375 31.95625 278.84686 31.33125Q278.45624 30.690624 278.45624 29.925Q278.45624 29.2375 278.76874 28.64375Q279.09686 28.05 279.64374 27.659374Q280.05 27.3625 280.7531 27.159374Q281.47186 26.940624 282.28436 26.940624Q283.5031 26.940624 284.425 27.3Q285.34686 27.64375 285.78436 28.253124Q286.22186 28.846874 286.39374 29.846874L284.675 30.08125Q284.55 29.284374 283.9875 28.846874Q283.425 28.39375 282.40936 28.39375Q281.1906 28.39375 280.675 28.8Q280.15936 29.190624 280.15936 29.721874Q280.15936 30.065624 280.3781 30.346874Q280.58124 30.628124 281.05 30.815624Q281.3156 30.909374 282.59686 31.253124Q284.47186 31.753124 285.20624 32.08125Q285.9406 32.39375 286.3625 33.003124Q286.78436 33.596874 286.78436 34.503124Q286.78436 35.378124 286.26874 36.159374Q285.7531 36.940624 284.78436 37.3625Q283.8156 37.784374 282.59686 37.784374Q280.58124 37.784374 279.51874 36.940624Q278.45624 36.096874 278.15936 34.45625ZM298.22186 41.753124Q296.76874 39.925 295.76874 37.471874Q294.76874 35.003124 294.76874 32.3625Q294.76874 30.034374 295.51874 27.909374Q296.39374 25.440624 298.22186 22.9875L299.4875 22.9875Q298.3 25.01875 297.925 25.89375Q297.33124 27.2375 296.9875 28.70625Q296.5656 30.534374 296.5656 32.378124Q296.5656 37.065624 299.4875 41.753124L298.22186 41.753124ZM303.4875 37.55L301.8625 37.55L301.8625 23.2375L303.6125 23.2375L303.6125 28.346874Q304.7375 26.940624 306.45624 26.940624Q307.40936 26.940624 308.26874 27.33125Q309.1281 27.721874 309.675 28.425Q310.22186 29.1125 310.53436 30.096874Q310.84686 31.08125 310.84686 32.20625Q310.84686 34.878124 309.53436 36.33125Q308.22186 37.784374 306.3781 37.784374Q304.53436 37.784374 303.4875 36.253124L303.4875 37.55ZM303.47186 32.284374Q303.47186 34.14375 303.97186 34.9875Q304.8156 36.33125 306.22186 36.33125Q307.3781 36.33125 308.20624 35.33125Q309.05 34.33125 309.05 32.346874Q309.05 30.315624 308.2375 29.3625Q307.4406 28.39375 306.3 28.39375Q305.14374 28.39375 304.3 29.39375Q303.47186 30.39375 303.47186 32.284374ZM319.64374 36.26875Q318.65936 37.096874 317.7531 37.440624Q316.84686 37.784374 315.8156 37.784374Q314.1125 37.784374 313.1906 36.95625Q312.26874 36.1125 312.26874 34.815624Q312.26874 34.05 312.6125 33.425Q312.97186 32.8 313.53436 32.425Q314.09686 32.034374 314.8 31.83125Q315.3156 31.70625 316.3625 31.565624Q318.4875 31.315624 319.4875 30.971874Q319.5031 30.6125 319.5031 30.503124Q319.5031 29.440624 319.0031 28.9875Q318.33124 28.39375 317.0031 28.39375Q315.7531 28.39375 315.15936 28.83125Q314.58124 29.26875 314.3 30.378124L312.58124 30.14375Q312.8156 29.034374 313.34686 28.3625Q313.8781 27.675 314.89374 27.315624Q315.90936 26.940624 317.2531 26.940624Q318.58124 26.940624 319.40936 27.253124Q320.2375 27.565624 320.6281 28.05Q321.01874 28.51875 321.175 29.2375Q321.26874 29.690624 321.26874 30.8625L321.26874 33.20625Q321.26874 35.659374 321.3781 36.315624Q321.4875 36.95625 321.83124 37.55L319.9875 37.55Q319.72186 37.003124 319.64374 36.26875ZM319.4875 32.346874Q318.53436 32.7375 316.6125 33.003124Q315.53436 33.159374 315.08124 33.3625Q314.64374 33.55 314.39374 33.925Q314.14374 34.3 314.14374 34.76875Q314.14374 35.471874 314.675 35.940624Q315.20624 36.409374 316.2375 36.409374Q317.2531 36.409374 318.03436 35.971874Q318.83124 35.51875 319.20624 34.753124Q319.4875 34.14375 319.4875 32.9875L319.4875 32.346874ZM323.15936 34.45625L324.90936 34.175Q325.05 35.221874 325.72186 35.784374Q326.39374 36.33125 327.59686 36.33125Q328.8 36.33125 329.3781 35.846874Q329.97186 35.346874 329.97186 34.690624Q329.97186 34.096874 329.45624 33.753124Q329.09686 33.51875 327.65936 33.159374Q325.72186 32.659374 324.97186 32.315624Q324.2375 31.95625 323.84686 31.33125Q323.45624 30.690624 323.45624 29.925Q323.45624 29.2375 323.76874 28.64375Q324.09686 28.05 324.64374 27.659374Q325.05 27.3625 325.7531 27.159374Q326.47186 26.940624 327.28436 26.940624Q328.5031 26.940624 329.425 27.3Q330.34686 27.64375 330.78436 28.253124Q331.22186 28.846874 331.39374 29.846874L329.675 30.08125Q329.55 29.284374 328.9875 28.846874Q328.425 28.39375 327.40936 28.39375Q326.1906 28.39375 325.675 28.8Q325.15936 29.190624 325.15936 29.721874Q325.15936 30.065624 325.3781 30.346874Q325.58124 30.628124 326.05 30.815624Q326.3156 30.909374 327.59686 31.253124Q329.47186 31.753124 330.20624 32.08125Q330.9406 32.39375 331.3625 33.003124Q331.78436 33.596874 331.78436 34.503124Q331.78436 35.378124 331.26874 36.159374Q330.7531 36.940624 329.78436 37.3625Q328.8156 37.784374 327.59686 37.784374Q325.58124 37.784374 324.51874 36.940624Q323.45624 36.096874 323.15936 34.45625ZM340.97186 34.20625L342.78436 34.440624Q342.3625 36.01875 341.1906 36.909374Q340.03436 37.784374 338.22186 37.784374Q335.95624 37.784374 334.6125 36.39375Q333.28436 34.9875 333.28436 32.45625Q333.28436 29.83125 334.6281 28.39375Q335.97186 26.940624 338.1281 26.940624Q340.20624 26.940624 341.51874 28.3625Q342.84686 29.76875 342.84686 32.346874Q342.84686 32.503124 342.83124 32.815624L335.09686 32.815624Q335.1906 34.51875 336.0656 35.425Q336.9406 36.33125 338.2375 36.33125Q339.20624 36.33125 339.8781 35.83125Q340.5656 35.315624 340.97186 34.20625ZM335.1906 31.3625L340.9875 31.3625Q340.8781 30.065624 340.33124 29.409374Q339.4875 28.39375 338.14374 28.39375Q336.9406 28.39375 336.1125 29.20625Q335.28436 30.003124 335.1906 31.3625ZM344.83124 37.55L344.83124 23.2375L346.58124 23.2375L346.58124 37.55L344.83124 37.55ZM348.8781 25.253124L348.8781 23.2375L350.64374 23.2375L350.64374 25.253124L348.8781 25.253124ZM348.8781 37.55L348.8781 27.175L350.64374 27.175L350.64374 37.55L348.8781 37.55ZM352.8625 37.55L352.8625 27.175L354.45624 27.175L354.45624 28.659374Q355.59686 26.940624 357.7531 26.940624Q358.6906 26.940624 359.47186 27.284374Q360.26874 27.6125 360.65936 28.159374Q361.05 28.70625 361.20624 29.45625Q361.3 29.95625 361.3 31.175L361.3 37.55L359.53436 37.55L359.53436 31.2375Q359.53436 30.159374 359.33124 29.628124Q359.1281 29.096874 358.59686 28.784374Q358.08124 28.471874 357.3781 28.471874Q356.2531 28.471874 355.4406 29.190624Q354.6281 29.89375 354.6281 31.878124L354.6281 37.55L352.8625 37.55ZM369.97186 34.20625L371.78436 34.440624Q371.3625 36.01875 370.1906 36.909374Q369.03436 37.784374 367.22186 37.784374Q364.95624 37.784374 363.6125 36.39375Q362.28436 34.9875 362.28436 32.45625Q362.28436 29.83125 363.6281 28.39375Q364.97186 26.940624 367.1281 26.940624Q369.20624 26.940624 370.51874 28.3625Q371.84686 29.76875 371.84686 32.346874Q371.84686 32.503124 371.83124 32.815624L364.09686 32.815624Q364.1906 34.51875 365.0656 35.425Q365.9406 36.33125 367.2375 36.33125Q368.20624 36.33125 368.8781 35.83125Q369.5656 35.315624 369.97186 34.20625ZM364.1906 31.3625L369.9875 31.3625Q369.8781 30.065624 369.33124 29.409374Q368.4875 28.39375 367.14374 28.39375Q365.9406 28.39375 365.1125 29.20625Q364.28436 30.003124 364.1906 31.3625ZM375.01874 41.753124L373.76874 41.753124Q376.675 37.065624 376.675 32.378124Q376.675 30.534374 376.26874 28.7375Q375.925 27.26875 375.33124 25.925Q374.95624 25.034374 373.76874 22.9875L375.01874 22.9875Q376.8625 25.440624 377.7375 27.909374Q378.4875 30.034374 378.4875 32.3625Q378.4875 35.003124 377.47186 37.471874Q376.47186 39.925 375.01874 41.753124Z" fill-rule="nonzero"/></svg>