<svg version="1.1" viewBox="0.0 0.0 600.0 371.0" fill="none" stroke="none" stroke-linecap="square" stroke-miterlimit="10" width="600" height="371" xmlns:xlink="http://www.w3.org/1999/xlink" xmlns="http://www.w3.org/2000/svg"><path fill="#ffffff" d="M0 0L600.0 0L600.0 371.0L0 371.0L0 0Z" fill-rule="nonzero"/><path stroke="#333333" stroke-width="1.0" stroke-linecap="butt" d="M18.5 54.5L18.5 300.5" fill-rule="nonzero"/><path stroke="#cccccc" stroke-width="1.0" stroke-linecap="butt" d="M179.5 54.5L179.5 300.5" fill-rule="nonzero"/><path stroke="#cccccc" stroke-width="1.0" stroke-linecap="butt" d="M340.5 54.5L340.5 300.5" fill-rule="nonzero"/><path stroke="#cccccc" stroke-width="1.0" stroke-linecap="butt" d="M500.5 54.5L500.5 300.5" fill-rule="nonzero"/><clipPath id="id_0"><path d="M18.55 54.916668L500.9328 54.916668L500.9328 300.45L18.55 300.45L18.55 54.916668Z" clip-rule="nonzero"/></clipPath><path stroke="#000000" stroke-width="2.0" stroke-linecap="butt" stroke-opacity="0.0" clip-path="url(#id_0)" d="M19.0 137.0L19.0 119.0L72.0 119.0C73.10457 119.0 74.0 119.89543 74.0 121.0L74.0 135.0C74.0 136.10457 73.10457 137.0 72.0 137.0Z" fill-rule="nonzero"/><path fill="#4285f4" clip-path="url(#id_0)" d="M19.0 137.0L19.0 119.0L72.0 119.0C73.10457 119.0 74.0 119.89543 74.0 121.0L74.0 135.0C74.0 136.10457 73.10457 137.0 72.0 137.0Z" fill-rule="nonzero"/><path stroke="#000000" stroke-width="2.0" stroke-linecap="butt" stroke-opacity="0.0" clip-path="url(#id_0)" d="M19.0 157.0L19.0 139.0L129.0 139.0C130.10457 139.0 131.0 139.89543 131.0 141.0L131.0 155.0C131.0 156.10457 130.10457 157.0 129.0 157.0Z" fill-rule="nonzero"/><path fill="#ea4335" clip-path="url(#id_0)" d="M19.0 157.0L19.0 139.0L129.0 139.0C130.10457 139.0 131.0 139.89543 131.0 141.0L131.0 155.0C131.0 156.10457 130.10457 157.0 129.0 157.0Z" fill-rule="nonzero"/><path stroke="#000000" stroke-width="2.0" stroke-linecap="butt" stroke-opacity="0.0" clip-path="url(#id_0)" d="M19.0 177.0L19.0 159.0L66.0 159.0C67.10457 159.0 68.0 159.89543 68.0 161.0L68.0 175.0C68.0 176.10457 67.10457 177.0 66.0 177.0Z" fill-rule="nonzero"/><path fill="#fbbc04" clip-path="url(#id_0)" d="M19.0 177.0L19.0 159.0L66.0 159.0C67.10457 159.0 68.0 159.89543 68.0 161.0L68.0 175.0C68.0 176.10457 67.10457 177.0 66.0 177.0Z" fill-rule="nonzero"/><path stroke="#000000" stroke-width="2.0" stroke-linecap="butt" stroke-opacity="0.0" clip-path="url(#id_0)" d="M19.0 197.0L19.0 179.0L75.0 179.0C76.10457 179.0 77.0 179.89543 77.0 181.0L77.0 195.0C77.0 196.10457 76.10457 197.0 75.0 197.0Z" fill-rule="nonzero"/><path fill="#34a853" clip-path="url(#id_0)" d="M19.0 197.0L19.0 179.0L75.0 179.0C76.10457 179.0 77.0 179.89543 77.0 181.0L77.0 195.0C77.0 196.10457 76.10457 197.0 75.0 197.0Z" fill-rule="nonzero"/><path stroke="#000000" stroke-width="2.0" stroke-linecap="butt" stroke-opacity="0.0" clip-path="url(#id_0)" d="M19.0 217.0L19.0 199.0L468.0 199.0C469.10458 199.0 470.0 199.89543 470.0 201.0L470.0 215.0C470.0 216.10457 469.10458 217.0 468.0 217.0Z" fill-rule="nonzero"/><path fill="#ff6d01" clip-path="url(#id_0)" d="M19.0 217.0L19.0 199.0L468.0 199.0C469.10458 199.0 470.0 199.89543 470.0 201.0L470.0 215.0C470.0 216.10457 469.10458 217.0 468.0 217.0Z" fill-rule="nonzero"/><path stroke="#000000" stroke-width="2.0" stroke-linecap="butt" stroke-opacity="0.0" clip-path="url(#id_0)" d="M19.0 237.0L19.0 219.0L127.0 219.0C128.10457 219.0 129.0 219.89543 129.0 221.0L129.0 235.0C129.0 236.10457 128.10457 237.0 127.0 237.0Z" fill-rule="nonzero"/><path fill="#46bdc6" clip-path="url(#id_0)" d="M19.0 237.0L19.0 219.0L127.0 219.0C128.10457 219.0 129.0 219.89543 129.0 221.0L129.0 235.0C129.0 236.10457 128.10457 237.0 127.0 237.0Z" fill-rule="nonzero"/><path fill="#000000" d="M256.6164 347.59064L257.64764 347.4344Q257.7414 348.0594 258.13202 348.3875Q258.53827 348.71564 259.27264 348.71564Q259.9914 348.71564 260.33514 348.4344Q260.69452 348.1375 260.69452 347.73126Q260.69452 347.3719 260.38202 347.16876Q260.16327 347.02814 259.3039 346.8094Q258.14764 346.5125 257.69452 346.3094Q257.25702 346.09064 257.02264 345.71564Q256.78827 345.34064 256.78827 344.8719Q256.78827 344.46564 256.97577 344.10626Q257.16327 343.7469 257.4914 343.5125Q257.7414 343.34064 258.16327 343.21564Q258.58514 343.09064 259.08514 343.09064Q259.8039 343.09064 260.35077 343.3094Q260.91327 343.5125 261.1789 343.8719Q261.44452 344.23126 261.53827 344.825L260.50702 344.96564Q260.44452 344.4969 260.10077 344.23126Q259.77264 343.95 259.14764 343.95Q258.4289 343.95 258.1164 344.2Q257.8039 344.4344 257.8039 344.7625Q257.8039 344.96564 257.9289 345.1219Q258.06952 345.29376 258.33514 345.40314Q258.4914 345.46564 259.27264 345.66876Q260.39764 345.98126 260.83514 346.16876Q261.27264 346.35626 261.52264 346.71564Q261.77264 347.075 261.77264 347.6219Q261.77264 348.15314 261.46014 348.6219Q261.16327 349.075 260.58514 349.34064Q260.00702 349.59064 259.27264 349.59064Q258.0539 349.59064 257.41327 349.09064Q256.78827 348.575 256.6164 347.59064Z" fill-rule="nonzero"/><path fill="#000000" d="M10.55 313.21564Q10.55 311.6844 10.8625 310.7625Q11.175 309.825 11.784375 309.325Q12.409375 308.825 13.346875 308.825Q14.034375 308.825 14.55 309.10626Q15.08125 309.3875 15.425 309.91876Q15.76875 310.4344 15.95625 311.1844Q16.14375 311.9344 16.14375 313.21564Q16.14375 314.73126 15.83125 315.65314Q15.534375 316.575 14.909375 317.09064Q14.3 317.59064 13.346875 317.59064Q12.1125 317.59064 11.39375 316.7Q10.55 315.6375 10.55 313.21564ZM11.628125 313.21564Q11.628125 315.325 12.128125 316.02814Q12.628125 316.73126 13.346875 316.73126Q14.08125 316.73126 14.565625 316.02814Q15.065625 315.325 15.065625 313.21564Q15.065625 311.09064 14.565625 310.40314Q14.08125 309.7 13.33125 309.7Q12.6125 309.7 12.175 310.3094Q11.628125 311.09064 11.628125 313.21564ZM18.14375 317.45L18.14375 316.2469L19.346874 316.2469L19.346874 317.45L18.14375 317.45ZM20.55 313.21564Q20.55 311.6844 20.8625 310.7625Q21.175 309.825 21.784374 309.325Q22.409374 308.825 23.346874 308.825Q24.034374 308.825 24.55 309.10626Q25.08125 309.3875 25.425 309.91876Q25.76875 310.4344 25.95625 311.1844Q26.14375 311.9344 26.14375 313.21564Q26.14375 314.73126 25.83125 315.65314Q25.534374 316.575 24.909374 317.09064Q24.3 317.59064 23.346874 317.59064Q22.1125 317.59064 21.39375 316.7Q20.55 315.6375 20.55 313.21564ZM21.628124 313.21564Q21.628124 315.325 22.128124 316.02814Q22.628124 316.73126 23.346874 316.73126Q24.08125 316.73126 24.565624 316.02814Q25.065624 315.325 25.065624 313.21564Q25.065624 311.09064 24.565624 310.40314Q24.08125 309.7 23.33125 309.7Q22.6125 309.7 22.175 310.3094Q21.628124 311.09064 21.628124 313.21564Z" fill-rule="nonzero"/><path fill="#000000" d="M171.34427 313.21564Q171.34427 311.6844 171.65677 310.7625Q171.96927 309.825 172.57864 309.325Q173.20364 308.825 174.14114 308.825Q174.82864 308.825 175.34427 309.10626Q175.87552 309.3875 176.21927 309.91876Q176.56302 310.4344 176.75052 311.1844Q176.93802 311.9344 176.93802 313.21564Q176.93802 314.73126 176.62552 315.65314Q176.32864 316.575 175.70364 317.09064Q175.09427 317.59064 174.14114 317.59064Q172.90677 317.59064 172.18802 316.7Q171.34427 315.6375 171.34427 313.21564ZM172.4224 313.21564Q172.4224 315.325 172.9224 316.02814Q173.4224 316.73126 174.14114 316.73126Q174.87552 316.73126 175.3599 316.02814Q175.8599 315.325 175.8599 313.21564Q175.8599 311.09064 175.3599 310.40314Q174.87552 309.7 174.12552 309.7Q173.40677 309.7 172.96927 310.3094Q172.4224 311.09064 172.4224 313.21564ZM178.93802 317.45L178.93802 316.2469L180.14114 316.2469L180.14114 317.45L178.93802 317.45ZM181.34427 315.2L182.45364 315.10626Q182.57864 315.91876 183.01614 316.325Q183.46927 316.73126 184.1099 316.73126Q184.8599 316.73126 185.39114 316.15314Q185.9224 315.575 185.9224 314.6375Q185.9224 313.73126 185.40677 313.21564Q184.90677 312.6844 184.07864 312.6844Q183.57864 312.6844 183.15677 312.91876Q182.75052 313.15314 182.51614 313.5125L181.53177 313.3875L182.3599 308.98126L186.64114 308.98126L186.64114 309.98126L183.20364 309.98126L182.75052 312.29376Q183.51614 311.7469 184.3599 311.7469Q185.4849 311.7469 186.25052 312.52814Q187.03177 313.3094 187.03177 314.54376Q187.03177 315.7 186.3599 316.5594Q185.53177 317.59064 184.1099 317.59064Q182.93802 317.59064 182.18802 316.9344Q181.45364 316.27814 181.34427 315.2Z" fill-rule="nonzero"/><path fill="#000000" d="M336.1073 317.45L335.06042 317.45L335.06042 310.73126Q334.6698 311.09064 334.0448 311.46564Q333.43542 311.825 332.95105 311.9969L332.95105 310.98126Q333.82605 310.5594 334.4823 309.98126Q335.15417 309.3875 335.43542 308.825L336.1073 308.825L336.1073 317.45ZM339.7323 317.45L339.7323 316.2469L340.93542 316.2469L340.93542 317.45L339.7323 317.45ZM342.13855 313.21564Q342.13855 311.6844 342.45105 310.7625Q342.76355 309.825 343.37292 309.325Q343.99792 308.825 344.93542 308.825Q345.62292 308.825 346.13855 309.10626Q346.6698 309.3875 347.01355 309.91876Q347.3573 310.4344 347.5448 311.1844Q347.7323 311.9344 347.7323 313.21564Q347.7323 314.73126 347.4198 315.65314Q347.12292 316.575 346.49792 317.09064Q345.88855 317.59064 344.93542 317.59064Q343.70105 317.59064 342.9823 316.7Q342.13855 315.6375 342.13855 313.21564ZM343.21667 313.21564Q343.21667 315.325 343.71667 316.02814Q344.21667 316.73126 344.93542 316.73126Q345.6698 316.73126 346.15417 316.02814Q346.65417 315.325 346.65417 313.21564Q346.65417 311.09064 346.15417 310.40314Q345.6698 309.7 344.9198 309.7Q344.20105 309.7 343.76355 310.3094Q343.21667 311.09064 343.21667 313.21564Z" fill-rule="nonzero"/><path fill="#000000" d="M496.90155 317.45L495.85468 317.45L495.85468 310.73126Q495.46405 311.09064 494.83905 311.46564Q494.22968 311.825 493.7453 311.9969L493.7453 310.98126Q494.6203 310.5594 495.27655 309.98126Q495.94843 309.3875 496.22968 308.825L496.90155 308.825L496.90155 317.45ZM500.52655 317.45L500.52655 316.2469L501.72968 316.2469L501.72968 317.45L500.52655 317.45ZM502.9328 315.2L504.04218 315.10626Q504.16718 315.91876 504.60468 316.325Q505.0578 316.73126 505.69843 316.73126Q506.44843 316.73126 506.97968 316.15314Q507.51093 315.575 507.51093 314.6375Q507.51093 313.73126 506.9953 313.21564Q506.4953 312.6844 505.66718 312.6844Q505.16718 312.6844 504.7453 312.91876Q504.33905 313.15314 504.10468 313.5125L503.1203 313.3875L503.94843 308.98126L508.22968 308.98126L508.22968 309.98126L504.79218 309.98126L504.33905 312.29376Q505.10468 311.7469 505.94843 311.7469Q507.07343 311.7469 507.83905 312.52814Q508.6203 313.3094 508.6203 314.54376Q508.6203 315.7 507.94843 316.5594Q507.1203 317.59064 505.69843 317.59064Q504.52655 317.59064 503.77655 316.9344Q503.04218 316.27814 502.9328 315.2Z" fill-rule="nonzero"/><path fill="#4285f4" d="M519.7684 20.55C519.7684 19.997715 520.21606 19.55 520.7684 19.55L530.7684 19.55C531.3206 19.55 531.7684 19.997715 531.7684 20.55L531.7684 30.55C531.7684 31.102285 531.3206 31.55 530.7684 31.55L520.7684 31.55C520.21606 31.55 519.7684 31.102285 519.7684 30.55Z" fill-rule="nonzero"/><path fill="#1a1a1a" d="M540.56525 29.55L540.56525 20.95625L541.62775 20.95625L541.62775 25.8625L544.1121 23.33125L545.4871 23.33125L543.0965 25.628124L545.7215 29.55L544.4246 29.55L542.3621 26.3625L541.62775 27.08125L541.62775 29.55L540.56525 29.55ZM547.8934 24.89375Q547.2371 24.64375 546.909 24.20625Q546.5965 23.753124 546.5965 23.14375Q546.5965 22.20625 547.2684 21.565624Q547.9559 20.925 549.06525 20.925Q550.19025 20.925 550.87775 21.58125Q551.56525 22.2375 551.56525 23.175Q551.56525 23.76875 551.25275 24.20625Q550.94025 24.64375 550.2996 24.89375Q551.0965 25.14375 551.50275 25.721874Q551.909 26.3 551.909 27.096874Q551.909 28.190624 551.12775 28.940624Q550.3621 29.690624 549.0809 29.690624Q547.81525 29.690624 547.034 28.940624Q546.25275 28.190624 546.25275 27.065624Q546.25275 26.221874 546.6746 25.659374Q547.1121 25.096874 547.8934 24.89375ZM547.6746 23.096874Q547.6746 23.70625 548.06525 24.096874Q548.4715 24.4875 549.0965 24.4875Q549.7059 24.4875 550.0965 24.1125Q550.4871 23.721874 550.4871 23.159374Q550.4871 22.58125 550.0809 22.190624Q549.6746 21.784374 549.0809 21.784374Q548.4715 21.784374 548.06525 22.175Q547.6746 22.565624 547.6746 23.096874ZM547.3465 27.065624Q547.3465 27.51875 547.5496 27.940624Q547.7684 28.3625 548.19025 28.596874Q548.6121 28.83125 549.0965 28.83125Q549.8465 28.83125 550.3309 28.346874Q550.8309 27.8625 550.8309 27.1125Q550.8309 26.346874 550.3309 25.846874Q549.8309 25.346874 549.06525 25.346874Q548.31525 25.346874 547.8309 25.846874Q547.3465 26.33125 547.3465 27.065624ZM553.1434 27.690624L554.1746 27.534374Q554.2684 28.159374 554.659 28.4875Q555.06525 28.815624 555.7996 28.815624Q556.5184 28.815624 556.8621 28.534374Q557.2215 28.2375 557.2215 27.83125Q557.2215 27.471874 556.909 27.26875Q556.69025 27.128124 555.8309 26.909374Q554.6746 26.6125 554.2215 26.409374Q553.784 26.190624 553.5496 25.815624Q553.31525 25.440624 553.31525 24.971874Q553.31525 24.565624 553.50275 24.20625Q553.69025 23.846874 554.0184 23.6125Q554.2684 23.440624 554.69025 23.315624Q555.1121 23.190624 555.6121 23.190624Q556.3309 23.190624 556.87775 23.409374Q557.44025 23.6125 557.7059 23.971874Q557.9715 24.33125 558.06525 24.925L557.034 25.065624Q556.9715 24.596874 556.62775 24.33125Q556.2996 24.05 555.6746 24.05Q554.9559 24.05 554.6434 24.3Q554.3309 24.534374 554.3309 24.8625Q554.3309 25.065624 554.4559 25.221874Q554.5965 25.39375 554.8621 25.503124Q555.0184 25.565624 555.7996 25.76875Q556.9246 26.08125 557.3621 26.26875Q557.7996 26.45625 558.0496 26.815624Q558.2996 27.175 558.2996 27.721874Q558.2996 28.253124 557.9871 28.721874Q557.69025 29.175 557.1121 29.440624Q556.534 29.690624 555.7996 29.690624Q554.5809 29.690624 553.94025 29.190624Q553.31525 28.675 553.1434 27.690624ZM563.2684 27.284374L564.3309 27.14375Q564.50275 28.034374 564.94025 28.440624Q565.37775 28.83125 566.00275 28.83125Q566.75275 28.83125 567.2684 28.315624Q567.784 27.8 567.784 27.034374Q567.784 26.315624 567.2996 25.846874Q566.8309 25.3625 566.0965 25.3625Q565.7996 25.3625 565.3465 25.4875L565.4715 24.55Q565.5809 24.565624 565.6434 24.565624Q566.31525 24.565624 566.8465 24.221874Q567.3934 23.8625 567.3934 23.128124Q567.3934 22.55 567.00275 22.175Q566.6121 21.784374 565.9871 21.784374Q565.37775 21.784374 564.9559 22.175Q564.5496 22.565624 564.44025 23.33125L563.37775 23.14375Q563.56525 22.096874 564.25275 21.51875Q564.94025 20.925 565.9559 20.925Q566.659 20.925 567.25275 21.2375Q567.8465 21.534374 568.159 22.05Q568.4715 22.565624 568.4715 23.159374Q568.4715 23.70625 568.1746 24.175Q567.87775 24.628124 567.2996 24.89375Q568.0496 25.065624 568.4715 25.628124Q568.8934 26.175 568.8934 27.01875Q568.8934 28.14375 568.06525 28.925Q567.25275 29.70625 566.00275 29.70625Q564.87775 29.70625 564.12775 29.034374Q563.37775 28.346874 563.2684 27.284374Z" fill-rule="nonzero"/><path fill="#ea4335" d="M519.7684 44.55C519.7684 43.997715 520.21606 43.55 520.7684 43.55L530.7684 43.55C531.3206 43.55 531.7684 43.997715 531.7684 44.55L531.7684 54.55C531.7684 55.102283 531.3206 55.55 530.7684 55.55L520.7684 55.55C520.21606 55.55 519.7684 55.102283 519.7684 54.55Z" fill-rule="nonzero"/><path fill="#1a1a1a" d="M540.56525 53.55L540.56525 44.95625L541.62775 44.95625L541.62775 49.8625L544.1121 47.33125L545.4871 47.33125L543.0965 49.628124L545.7215 53.55L544.4246 53.55L542.3621 50.3625L541.62775 51.08125L541.62775 53.55L540.56525 53.55ZM546.2684 51.284374L547.3309 51.14375Q547.50275 52.034374 547.94025 52.440624Q548.37775 52.83125 549.00275 52.83125Q549.75275 52.83125 550.2684 52.315624Q550.784 51.8 550.784 51.034374Q550.784 50.315624 550.2996 49.846874Q549.8309 49.3625 549.0965 49.3625Q548.7996 49.3625 548.3465 49.4875L548.4715 48.55Q548.5809 48.565624 548.6434 48.565624Q549.31525 48.565624 549.8465 48.221874Q550.3934 47.8625 550.3934 47.128124Q550.3934 46.55 550.00275 46.175Q549.6121 45.784374 548.9871 45.784374Q548.37775 45.784374 547.9559 46.175Q547.5496 46.565624 547.44025 47.33125L546.37775 47.14375Q546.56525 46.096874 547.25275 45.51875Q547.94025 44.925 548.9559 44.925Q549.659 44.925 550.25275 45.2375Q550.8465 45.534374 551.159 46.05Q551.4715 46.565624 551.4715 47.159374Q551.4715 47.70625 551.1746 48.175Q550.87775 48.628124 550.2996 48.89375Q551.0496 49.065624 551.4715 49.628124Q551.8934 50.175 551.8934 51.01875Q551.8934 52.14375 551.06525 52.925Q550.25275 53.70625 549.00275 53.70625Q547.87775 53.70625 547.12775 53.034374Q546.37775 52.346874 546.2684 51.284374ZM553.1434 51.690624L554.1746 51.534374Q554.2684 52.159374 554.659 52.4875Q555.06525 52.815624 555.7996 52.815624Q556.5184 52.815624 556.8621 52.534374Q557.2215 52.2375 557.2215 51.83125Q557.2215 51.471874 556.909 51.26875Q556.69025 51.128124 555.8309 50.909374Q554.6746 50.6125 554.2215 50.409374Q553.784 50.190624 553.5496 49.815624Q553.31525 49.440624 553.31525 48.971874Q553.31525 48.565624 553.50275 48.20625Q553.69025 47.846874 554.0184 47.6125Q554.2684 47.440624 554.69025 47.315624Q555.1121 47.190624 555.6121 47.190624Q556.3309 47.190624 556.87775 47.409374Q557.44025 47.6125 557.7059 47.971874Q557.9715 48.33125 558.06525 48.925L557.034 49.065624Q556.9715 48.596874 556.62775 48.33125Q556.2996 48.05 555.6746 48.05Q554.9559 48.05 554.6434 48.3Q554.3309 48.534374 554.3309 48.8625Q554.3309 49.065624 554.4559 49.221874Q554.5965 49.39375 554.8621 49.503124Q555.0184 49.565624 555.7996 49.76875Q556.9246 50.08125 557.3621 50.26875Q557.7996 50.45625 558.0496 50.815624Q558.2996 51.175 558.2996 51.721874Q558.2996 52.253124 557.9871 52.721874Q557.69025 53.175 557.1121 53.440624Q556.534 53.690624 555.7996 53.690624Q554.5809 53.690624 553.94025 53.190624Q553.31525 52.675 553.1434 51.690624ZM563.56525 55.940624L563.56525 47.33125L564.5184 47.33125L564.5184 48.128124Q564.8621 47.659374 565.284 47.425Q565.7215 47.190624 566.3309 47.190624Q567.12775 47.190624 567.7371 47.596874Q568.3465 48.003124 568.6434 48.753124Q568.9559 49.503124 568.9559 50.39375Q568.9559 51.346874 568.6121 52.1125Q568.284 52.878124 567.62775 53.284374Q566.9715 53.690624 566.25275 53.690624Q565.7215 53.690624 565.2996 53.471874Q564.87775 53.2375 564.6121 52.909374L564.6121 55.940624L563.56525 55.940624ZM564.5184 50.471874Q564.5184 51.675 565.00275 52.253124Q565.4871 52.815624 566.1746 52.815624Q566.87775 52.815624 567.37775 52.221874Q567.87775 51.628124 567.87775 50.378124Q567.87775 49.190624 567.3934 48.6125Q566.909 48.01875 566.2215 48.01875Q565.5496 48.01875 565.034 48.64375Q564.5184 49.26875 564.5184 50.471874ZM570.5496 53.55L570.5496 47.33125L571.50275 47.33125L571.50275 48.26875Q571.8621 47.6125 572.159 47.409374Q572.4715 47.190624 572.8465 47.190624Q573.37775 47.190624 573.9246 47.51875L573.56525 48.503124Q573.1746 48.26875 572.7996 48.26875Q572.44025 48.26875 572.159 48.4875Q571.8934 48.690624 571.784 49.065624Q571.5965 49.628124 571.5965 50.284374L571.5965 53.55L570.5496 53.55ZM574.1746 50.440624Q574.1746 48.70625 575.12775 47.878124Q575.9246 47.190624 577.0809 47.190624Q578.3621 47.190624 579.1746 48.034374Q580.00275 48.8625 580.00275 50.346874Q580.00275 51.55 579.6434 52.2375Q579.284 52.925 578.5809 53.315624Q577.8934 53.690624 577.0809 53.690624Q575.784 53.690624 574.9715 52.8625Q574.1746 52.01875 574.1746 50.440624ZM575.25275 50.440624Q575.25275 51.628124 575.7684 52.221874Q576.2996 52.815624 577.0809 52.815624Q577.87775 52.815624 578.3934 52.221874Q578.909 51.628124 578.909 50.409374Q578.909 49.253124 578.37775 48.659374Q577.8621 48.065624 577.0809 48.065624Q576.2996 48.065624 575.7684 48.659374Q575.25275 49.2375 575.25275 50.440624ZM584.2684 51.284374L585.3309 51.14375Q585.50275 52.034374 585.94025 52.440624Q586.37775 52.83125 587.00275 52.83125Q587.75275 52.83125 588.2684 52.315624Q588.784 51.8 588.784 51.034374Q588.784 50.315624 588.2996 49.846874Q587.8309 49.3625 587.0965 49.3625Q586.7996 49.3625 586.3465 49.4875L586.4715 48.55Q586.5809 48.565624 586.6434 48.565624Q587.31525 48.565624 587.8465 48.221874Q588.3934 47.8625 588.3934 47.128124Q588.3934 46.55 588.00275 46.175Q587.6121 45.784374 586.9871 45.784374Q586.37775 45.784374 585.9559 46.175Q585.5496 46.565624 585.44025 47.33125L584.37775 47.14375Q584.56525 46.096874 585.25275 45.51875Q585.94025 44.925 586.9559 44.925Q587.659 44.925 588.25275 45.2375Q588.8465 45.534374 589.159 46.05Q589.4715 46.565624 589.4715 47.159374Q589.4715 47.70625 589.1746 48.175Q588.87775 48.628124 588.2996 48.89375Q589.0496 49.065624 589.4715 49.628124Q589.8934 50.175 589.8934 51.01875Q589.8934 52.14375 589.06525 52.925Q588.25275 53.70625 587.00275 53.70625Q585.87775 53.70625 585.12775 53.034374Q584.37775 52.346874 584.2684 51.284374Z" fill-rule="nonzero"/><path fill="#fbbc04" d="M519.7684 68.55C519.7684 67.99772 520.21606 67.55 520.7684 67.55L530.7684 67.55C531.3206 67.55 531.7684 67.99772 531.7684 68.55L531.7684 78.55C531.7684 79.10229 531.3206 79.55 530.7684 79.55L520.7684 79.55C520.21606 79.55 519.7684 79.10229 519.7684 78.55Z" fill-rule="nonzero"/><path fill="#1a1a1a" d="M540.56525 77.55L540.56525 68.95625L541.62775 68.95625L541.62775 73.8625L544.1121 71.33125L545.4871 71.33125L543.0965 73.62813L545.7215 77.55L544.4246 77.55L542.3621 74.3625L541.62775 75.08125L541.62775 77.55L540.56525 77.55ZM547.8934 72.89375Q547.2371 72.64375 546.909 72.20625Q546.5965 71.75313 546.5965 71.14375Q546.5965 70.20625 547.2684 69.56563Q547.9559 68.925 549.06525 68.925Q550.19025 68.925 550.87775 69.58125Q551.56525 70.2375 551.56525 71.175Q551.56525 71.76875 551.25275 72.20625Q550.94025 72.64375 550.2996 72.89375Q551.0965 73.14375 551.50275 73.72188Q551.909 74.3 551.909 75.09688Q551.909 76.19063 551.12775 76.94063Q550.3621 77.69063 549.0809 77.69063Q547.81525 77.69063 547.034 76.94063Q546.25275 76.19063 546.25275 75.06563Q546.25275 74.22188 546.6746 73.65938Q547.1121 73.09688 547.8934 72.89375ZM547.6746 71.09688Q547.6746 71.70625 548.06525 72.09688Q548.4715 72.4875 549.0965 72.4875Q549.7059 72.4875 550.0965 72.1125Q550.4871 71.72188 550.4871 71.15938Q550.4871 70.58125 550.0809 70.19063Q549.6746 69.78438 549.0809 69.78438Q548.4715 69.78438 548.06525 70.175Q547.6746 70.56563 547.6746 71.09688ZM547.3465 75.06563Q547.3465 75.51875 547.5496 75.94063Q547.7684 76.3625 548.19025 76.59688Q548.6121 76.83125 549.0965 76.83125Q549.8465 76.83125 550.3309 76.34688Q550.8309 75.8625 550.8309 75.1125Q550.8309 74.34688 550.3309 73.84688Q549.8309 73.34688 549.06525 73.34688Q548.31525 73.34688 547.8309 73.84688Q547.3465 74.33125 547.3465 75.06563ZM553.1434 75.69063L554.1746 75.53438Q554.2684 76.15938 554.659 76.4875Q555.06525 76.81563 555.7996 76.81563Q556.5184 76.81563 556.8621 76.53438Q557.2215 76.2375 557.2215 75.83125Q557.2215 75.47188 556.909 75.26875Q556.69025 75.12813 555.8309 74.90938Q554.6746 74.6125 554.2215 74.40938Q553.784 74.19063 553.5496 73.81563Q553.31525 73.44063 553.31525 72.97188Q553.31525 72.56563 553.50275 72.20625Q553.69025 71.84688 554.0184 71.6125Q554.2684 71.44063 554.69025 71.31563Q555.1121 71.19063 555.6121 71.19063Q556.3309 71.19063 556.87775 71.40938Q557.44025 71.6125 557.7059 71.97188Q557.9715 72.33125 558.06525 72.925L557.034 73.06563Q556.9715 72.59688 556.62775 72.33125Q556.2996 72.05 555.6746 72.05Q554.9559 72.05 554.6434 72.3Q554.3309 72.53438 554.3309 72.8625Q554.3309 73.06563 554.4559 73.22188Q554.5965 73.39375 554.8621 73.50313Q555.0184 73.56563 555.7996 73.76875Q556.9246 74.08125 557.3621 74.26875Q557.7996 74.45625 558.0496 74.81563Q558.2996 75.175 558.2996 75.72188Q558.2996 76.25313 557.9871 76.72188Q557.69025 77.175 557.1121 77.44063Q556.534 77.69063 555.7996 77.69063Q554.5809 77.69063 553.94025 77.19063Q553.31525 76.675 553.1434 75.69063ZM567.2371 77.55L566.19025 77.55L566.19025 70.83125Q565.7996 71.19063 565.1746 71.56563Q564.56525 71.925 564.0809 72.09688L564.0809 71.08125Q564.9559 70.65938 565.6121 70.08125Q566.284 69.4875 566.56525 68.925L567.2371 68.925L567.2371 77.55Z" fill-rule="nonzero"/><path fill="#34a853" d="M519.7684 92.55C519.7684 91.99772 520.21606 91.55 520.7684 91.55L530.7684 91.55C531.3206 91.55 531.7684 91.99772 531.7684 92.55L531.7684 102.55C531.7684 103.10229 531.3206 103.55 530.7684 103.55L520.7684 103.55C520.21606 103.55 519.7684 103.10229 519.7684 102.55Z" fill-rule="nonzero"/><path fill="#1a1a1a" d="M540.56525 101.55L540.56525 92.95625L541.62775 92.95625L541.62775 97.8625L544.1121 95.33125L545.4871 95.33125L543.0965 97.62813L545.7215 101.55L544.4246 101.55L542.3621 98.3625L541.62775 99.08125L541.62775 101.55L540.56525 101.55ZM546.2684 97.31563Q546.2684 95.78438 546.5809 94.8625Q546.8934 93.925 547.50275 93.425Q548.12775 92.925 549.06525 92.925Q549.75275 92.925 550.2684 93.20625Q550.7996 93.4875 551.1434 94.01875Q551.4871 94.53438 551.6746 95.28438Q551.8621 96.03438 551.8621 97.31563Q551.8621 98.83125 551.5496 99.75313Q551.25275 100.675 550.62775 101.19063Q550.0184 101.69063 549.06525 101.69063Q547.8309 101.69063 547.1121 100.8Q546.2684 99.7375 546.2684 97.31563ZM547.3465 97.31563Q547.3465 99.425 547.8465 100.12813Q548.3465 100.83125 549.06525 100.83125Q549.7996 100.83125 550.284 100.12813Q550.784 99.425 550.784 97.31563Q550.784 95.19063 550.284 94.50313Q549.7996 93.8 549.0496 93.8Q548.3309 93.8 547.8934 94.40938Q547.3465 95.19063 547.3465 97.31563ZM553.1434 99.69063L554.1746 99.53438Q554.2684 100.15938 554.659 100.4875Q555.06525 100.81563 555.7996 100.81563Q556.5184 100.81563 556.8621 100.53438Q557.2215 100.2375 557.2215 99.83125Q557.2215 99.47188 556.909 99.26875Q556.69025 99.12813 555.8309 98.90938Q554.6746 98.6125 554.2215 98.40938Q553.784 98.19063 553.5496 97.81563Q553.31525 97.44063 553.31525 96.97188Q553.31525 96.56563 553.50275 96.20625Q553.69025 95.84688 554.0184 95.6125Q554.2684 95.44063 554.69025 95.31563Q555.1121 95.19063 555.6121 95.19063Q556.3309 95.19063 556.87775 95.40938Q557.44025 95.6125 557.7059 95.97188Q557.9715 96.33125 558.06525 96.925L557.034 97.06563Q556.9715 96.59688 556.62775 96.33125Q556.2996 96.05 555.6746 96.05Q554.9559 96.05 554.6434 96.3Q554.3309 96.53438 554.3309 96.8625Q554.3309 97.06563 554.4559 97.22188Q554.5965 97.39375 554.8621 97.50313Q555.0184 97.56563 555.7996 97.76875Q556.9246 98.08125 557.3621 98.26875Q557.7996 98.45625 558.0496 98.81563Q558.2996 99.175 558.2996 99.72188Q558.2996 100.25313 557.9871 100.72188Q557.69025 101.175 557.1121 101.44063Q556.534 101.69063 555.7996 101.69063Q554.5809 101.69063 553.94025 101.19063Q553.31525 100.675 553.1434 99.69063Z" fill-rule="nonzero"/><path fill="#ff6d01" d="M519.7684 116.55C519.7684 115.99772 520.21606 115.55 520.7684 115.55L530.7684 115.55C531.3206 115.55 531.7684 115.99772 531.7684 116.55L531.7684 126.55C531.7684 127.10229 531.3206 127.55 530.7684 127.55L520.7684 127.55C520.21606 127.55 519.7684 127.10229 519.7684 126.55Z" fill-rule="nonzero"/><path fill="#1a1a1a" d="M540.56525 125.55L540.56525 116.95625L541.62775 116.95625L541.62775 121.8625L544.1121 119.33125L545.4871 119.33125L543.0965 121.62813L545.7215 125.55L544.4246 125.55L542.3621 122.3625L541.62775 123.08125L541.62775 125.55L540.56525 125.55ZM546.2684 123.28438L547.3309 123.14375Q547.50275 124.03438 547.94025 124.44063Q548.37775 124.83125 549.00275 124.83125Q549.75275 124.83125 550.2684 124.31563Q550.784 123.8 550.784 123.03438Q550.784 122.31563 550.2996 121.84688Q549.8309 121.3625 549.0965 121.3625Q548.7996 121.3625 548.3465 121.4875L548.4715 120.55Q548.5809 120.56563 548.6434 120.56563Q549.31525 120.56563 549.8465 120.22188Q550.3934 119.8625 550.3934 119.12813Q550.3934 118.55 550.00275 118.175Q549.6121 117.78438 548.9871 117.78438Q548.37775 117.78438 547.9559 118.175Q547.5496 118.56563 547.44025 119.33125L546.37775 119.14375Q546.56525 118.09688 547.25275 117.51875Q547.94025 116.925 548.9559 116.925Q549.659 116.925 550.25275 117.2375Q550.8465 117.53438 551.159 118.05Q551.4715 118.56563 551.4715 119.15938Q551.4715 119.70625 551.1746 120.175Q550.87775 120.62813 550.2996 120.89375Q551.0496 121.06563 551.4715 121.62813Q551.8934 122.175 551.8934 123.01875Q551.8934 124.14375 551.06525 124.925Q550.25275 125.70625 549.00275 125.70625Q547.87775 125.70625 547.12775 125.03438Q546.37775 124.34688 546.2684 123.28438ZM553.1434 123.69063L554.1746 123.53438Q554.2684 124.15938 554.659 124.4875Q555.06525 124.81563 555.7996 124.81563Q556.5184 124.81563 556.8621 124.53438Q557.2215 124.2375 557.2215 123.83125Q557.2215 123.47188 556.909 123.26875Q556.69025 123.12813 555.8309 122.90938Q554.6746 122.6125 554.2215 122.40938Q553.784 122.19063 553.5496 121.81563Q553.31525 121.44063 553.31525 120.97188Q553.31525 120.56563 553.50275 120.20625Q553.69025 119.84688 554.0184 119.6125Q554.2684 119.44063 554.69025 119.31563Q555.1121 119.19063 555.6121 119.19063Q556.3309 119.19063 556.87775 119.40938Q557.44025 119.6125 557.7059 119.97188Q557.9715 120.33125 558.06525 120.925L557.034 121.06563Q556.9715 120.59688 556.62775 120.33125Q556.2996 120.05 555.6746 120.05Q554.9559 120.05 554.6434 120.3Q554.3309 120.53438 554.3309 120.8625Q554.3309 121.06563 554.4559 121.22188Q554.5965 121.39375 554.8621 121.50313Q555.0184 121.56563 555.7996 121.76875Q556.9246 122.08125 557.3621 122.26875Q557.7996 122.45625 558.0496 122.81563Q558.2996 123.175 558.2996 123.72188Q558.2996 124.25313 557.9871 124.72188Q557.69025 125.175 557.1121 125.44063Q556.534 125.69063 555.7996 125.69063Q554.5809 125.69063 553.94025 125.19063Q553.31525 124.675 553.1434 123.69063ZM563.1746 122.44063Q563.1746 120.70625 564.12775 119.87813Q564.9246 119.19063 566.0809 119.19063Q567.3621 119.19063 568.1746 120.03438Q569.00275 120.8625 569.00275 122.34688Q569.00275 123.55 568.6434 124.2375Q568.284 124.925 567.5809 125.31563Q566.8934 125.69063 566.0809 125.69063Q564.784 125.69063 563.9715 124.8625Q563.1746 124.01875 563.1746 122.44063ZM564.25275 122.44063Q564.25275 123.62813 564.7684 124.22188Q565.2996 124.81563 566.0809 124.81563Q566.87775 124.81563 567.3934 124.22188Q567.909 123.62813 567.909 122.40938Q567.909 121.25313 567.37775 120.65938Q566.8621 120.06563 566.0809 120.06563Q565.2996 120.06563 564.7684 120.65938Q564.25275 121.2375 564.25275 122.44063ZM570.1434 123.69063L571.1746 123.53438Q571.2684 124.15938 571.659 124.4875Q572.06525 124.81563 572.7996 124.81563Q573.5184 124.81563 573.8621 124.53438Q574.2215 124.2375 574.2215 123.83125Q574.2215 123.47188 573.909 123.26875Q573.69025 123.12813 572.8309 122.90938Q571.6746 122.6125 571.2215 122.40938Q570.784 122.19063 570.5496 121.81563Q570.31525 121.44063 570.31525 120.97188Q570.31525 120.56563 570.50275 120.20625Q570.69025 119.84688 571.0184 119.6125Q571.2684 119.44063 571.69025 119.31563Q572.1121 119.19063 572.6121 119.19063Q573.3309 119.19063 573.87775 119.40938Q574.44025 119.6125 574.7059 119.97188Q574.9715 120.33125 575.06525 120.925L574.034 121.06563Q573.9715 120.59688 573.62775 120.33125Q573.2996 120.05 572.6746 120.05Q571.9559 120.05 571.6434 120.3Q571.3309 120.53438 571.3309 120.8625Q571.3309 121.06563 571.4559 121.22188Q571.5965 121.39375 571.8621 121.50313Q572.0184 121.56563 572.7996 121.76875Q573.9246 122.08125 574.3621 122.26875Q574.7996 122.45625 575.0496 122.81563Q575.2996 123.175 575.2996 123.72188Q575.2996 124.25313 574.9871 124.72188Q574.69025 125.175 574.1121 125.44063Q573.534 125.69063 572.7996 125.69063Q571.5809 125.69063 570.94025 125.19063Q570.31525 124.675 570.1434 123.69063ZM577.1434 123.69063L578.1746 123.53438Q578.2684 124.15938 578.659 124.4875Q579.06525 124.81563 579.7996 124.81563Q580.5184 124.81563 580.8621 124.53438Q581.2215 124.2375 581.2215 123.83125Q581.2215 123.47188 580.909 123.26875Q580.69025 123.12813 579.8309 122.90938Q578.6746 122.6125 578.2215 122.40938Q577.784 122.19063 577.5496 121.81563Q577.31525 121.44063 577.31525 120.97188Q577.31525 120.56563 577.50275 120.20625Q577.69025 119.84688 578.0184 119.6125Q578.2684 119.44063 578.69025 119.31563Q579.1121 119.19063 579.6121 119.19063Q580.3309 119.19063 580.87775 119.40938Q581.44025 119.6125 581.7059 119.97188Q581.9715 120.33125 582.06525 120.925L581.034 121.06563Q580.9715 120.59688 580.62775 120.33125Q580.2996 120.05 579.6746 120.05Q578.9559 120.05 578.6434 120.3Q578.3309 120.53438 578.3309 120.8625Q578.3309 121.06563 578.4559 121.22188Q578.5965 121.39375 578.8621 121.50313Q579.0184 121.56563 579.7996 121.76875Q580.9246 122.08125 581.3621 122.26875Q581.7996 122.45625 582.0496 122.81563Q582.2996 123.175 582.2996 123.72188Q582.2996 124.25313 581.9871 124.72188Q581.69025 125.175 581.1121 125.44063Q580.534 125.69063 579.7996 125.69063Q578.5809 125.69063 577.94025 125.19063Q577.31525 124.675 577.1434 123.69063Z" fill-rule="nonzero"/><path fill="#46bdc6" d="M519.7684 140.55C519.7684 139.99771 520.21606 139.55 520.7684 139.55L530.7684 139.55C531.3206 139.55 531.7684 139.99771 531.7684 140.55L531.7684 150.55C531.7684 151.10228 531.3206 151.55 530.7684 151.55L520.7684 151.55C520.21606 151.55 519.7684 151.10228 519.7684 150.55Z" fill-rule="nonzero"/><path fill="#1a1a1a" d="M540.56525 149.55L540.56525 140.95625L541.62775 140.95625L541.62775 145.8625L544.1121 143.33125L545.4871 143.33125L543.0965 145.62813L545.7215 149.55L544.4246 149.55L542.3621 146.3625L541.62775 147.08125L541.62775 149.55L540.56525 149.55ZM546.2684 147.28438L547.3309 147.14375Q547.50275 148.03438 547.94025 148.44063Q548.37775 148.83125 549.00275 148.83125Q549.75275 148.83125 550.2684 148.31563Q550.784 147.8 550.784 147.03438Q550.784 146.31563 550.2996 145.84688Q549.8309 145.3625 549.0965 145.3625Q548.7996 145.3625 548.3465 145.4875L548.4715 144.55Q548.5809 144.56563 548.6434 144.56563Q549.31525 144.56563 549.8465 144.22188Q550.3934 143.8625 550.3934 143.12813Q550.3934 142.55 550.00275 142.175Q549.6121 141.78438 548.9871 141.78438Q548.37775 141.78438 547.9559 142.175Q547.5496 142.56563 547.44025 143.33125L546.37775 143.14375Q546.56525 142.09688 547.25275 141.51875Q547.94025 140.925 548.9559 140.925Q549.659 140.925 550.25275 141.2375Q550.8465 141.53438 551.159 142.05Q551.4715 142.56563 551.4715 143.15938Q551.4715 143.70625 551.1746 144.175Q550.87775 144.62813 550.2996 144.89375Q551.0496 145.06563 551.4715 145.62813Q551.8934 146.175 551.8934 147.01875Q551.8934 148.14375 551.06525 148.925Q550.25275 149.70625 549.00275 149.70625Q547.87775 149.70625 547.12775 149.03438Q546.37775 148.34688 546.2684 147.28438ZM553.1434 147.69063L554.1746 147.53438Q554.2684 148.15938 554.659 148.4875Q555.06525 148.81563 555.7996 148.81563Q556.5184 148.81563 556.8621 148.53438Q557.2215 148.2375 557.2215 147.83125Q557.2215 147.47188 556.909 147.26875Q556.69025 147.12813 555.8309 146.90938Q554.6746 146.6125 554.2215 146.40938Q553.784 146.19063 553.5496 145.81563Q553.31525 145.44063 553.31525 144.97188Q553.31525 144.56563 553.50275 144.20625Q553.69025 143.84688 554.0184 143.6125Q554.2684 143.44063 554.69025 143.31563Q555.1121 143.19063 555.6121 143.19063Q556.3309 143.19063 556.87775 143.40938Q557.44025 143.6125 557.7059 143.97188Q557.9715 144.33125 558.06525 144.925L557.034 145.06563Q556.9715 144.59688 556.62775 144.33125Q556.2996 144.05 555.6746 144.05Q554.9559 144.05 554.6434 144.3Q554.3309 144.53438 554.3309 144.8625Q554.3309 145.06563 554.4559 145.22188Q554.5965 145.39375 554.8621 145.50313Q555.0184 145.56563 555.7996 145.76875Q556.9246 146.08125 557.3621 146.26875Q557.7996 146.45625 558.0496 146.81563Q558.2996 147.175 558.2996 147.72188Q558.2996 148.25313 557.9871 148.72188Q557.69025 149.175 557.1121 149.44063Q556.534 149.69063 555.7996 149.69063Q554.5809 149.69063 553.94025 149.19063Q553.31525 148.675 553.1434 147.69063ZM563.56525 151.94063L563.56525 143.33125L564.5184 143.33125L564.5184 144.12813Q564.8621 143.65938 565.284 143.425Q565.7215 143.19063 566.3309 143.19063Q567.12775 143.19063 567.7371 143.59688Q568.3465 144.00313 568.6434 144.75313Q568.9559 145.50313 568.9559 146.39375Q568.9559 147.34688 568.6121 148.1125Q568.284 148.87813 567.62775 149.28438Q566.9715 149.69063 566.25275 149.69063Q565.7215 149.69063 565.2996 149.47188Q564.87775 149.2375 564.6121 148.90938L564.6121 151.94063L563.56525 151.94063ZM564.5184 146.47188Q564.5184 147.675 565.00275 148.25313Q565.4871 148.81563 566.1746 148.81563Q566.87775 148.81563 567.37775 148.22188Q567.87775 147.62813 567.87775 146.37813Q567.87775 145.19063 567.3934 144.6125Q566.909 144.01875 566.2215 144.01875Q565.5496 144.01875 565.034 144.64375Q564.5184 145.26875 564.5184 146.47188ZM570.5496 149.55L570.5496 143.33125L571.50275 143.33125L571.50275 144.26875Q571.8621 143.6125 572.159 143.40938Q572.4715 143.19063 572.8465 143.19063Q573.37775 143.19063 573.9246 143.51875L573.56525 144.50313Q573.1746 144.26875 572.7996 144.26875Q572.44025 144.26875 572.159 144.4875Q571.8934 144.69063 571.784 145.06563Q571.5965 145.62813 571.5965 146.28438L571.5965 149.55L570.5496 149.55ZM574.1746 146.44063Q574.1746 144.70625 575.12775 143.87813Q575.9246 143.19063 577.0809 143.19063Q578.3621 143.19063 579.1746 144.03438Q580.00275 144.8625 580.00275 146.34688Q580.00275 147.55 579.6434 148.2375Q579.284 148.925 578.5809 149.31563Q577.8934 149.69063 577.0809 149.69063Q575.784 149.69063 574.9715 148.8625Q574.1746 148.01875 574.1746 146.44063ZM575.25275 146.44063Q575.25275 147.62813 575.7684 148.22188Q576.2996 148.81563 577.0809 148.81563Q577.87775 148.81563 578.3934 148.22188Q578.909 147.62813 578.909 146.40938Q578.909 145.25313 578.37775 144.65938Q577.8621 144.06563 577.0809 144.06563Q576.2996 144.06563 575.7684 144.65938Q575.25275 145.2375 575.25275 146.44063ZM588.2371 149.55L587.19025 149.55L587.19025 142.83125Q586.7996 143.19063 586.1746 143.56563Q585.56525 143.925 585.0809 144.09688L585.0809 143.08125Q585.9559 142.65938 586.6121 142.08125Q587.284 141.4875 587.56525 140.925L588.2371 140.925L588.2371 149.55Z" fill-rule="nonzero"/><path fill="#757575" d="M25.64375 36.26875Q24.659374 37.096874 23.753124 37.440624Q22.846874 37.784374 21.815624 37.784374Q20.1125 37.784374 19.190624 36.95625Q18.26875 36.1125 18.26875 34.815624Q18.26875 34.05 18.6125 33.425Q18.971874 32.8 19.534374 32.425Q20.096874 32.034374 20.8 31.83125Q21.315624 31.70625 22.3625 31.565624Q24.4875 31.315624 25.4875 30.971874Q25.503124 30.6125 25.503124 30.503124Q25.503124 29.440624 25.003124 28.9875Q24.33125 28.39375 23.003124 28.39375Q21.753124 28.39375 21.159374 28.83125Q20.58125 29.26875 20.3 30.378124L18.58125 30.14375Q18.815624 29.034374 19.346874 28.3625Q19.878124 27.675 20.89375 27.315624Q21.909374 26.940624 23.253124 26.940624Q24.58125 26.940624 25.409374 27.253124Q26.2375 27.565624 26.628124 28.05Q27.01875 28.51875 27.175 29.2375Q27.26875 29.690624 27.26875 30.8625L27.26875 33.20625Q27.26875 35.659374 27.378124 36.315624Q27.4875 36.95625 27.83125 37.55L25.9875 37.55Q25.721874 37.003124 25.64375 36.26875ZM25.4875 32.346874Q24.534374 32.7375 22.6125 33.003124Q21.534374 33.159374 21.08125 33.3625Q20.64375 33.55 20.39375 33.925Q20.14375 34.3 20.14375 34.76875Q20.14375 35.471874 20.675 35.940624Q21.20625 36.409374 22.2375 36.409374Q23.253124 36.409374 24.034374 35.971874Q24.83125 35.51875 25.20625 34.753124Q25.4875 34.14375 25.4875 32.9875L25.4875 32.346874ZM32.753124 37.55L28.8 27.175L30.659374 27.175L32.89375 33.39375Q33.253124 34.39375 33.55 35.471874Q33.784374 34.659374 34.20625 33.503124L36.503124 27.175L38.315624 27.175L34.39375 37.55L32.753124 37.55ZM45.971874 34.20625L47.784374 34.440624Q47.3625 36.01875 46.190624 36.909374Q45.034374 37.784374 43.221874 37.784374Q40.95625 37.784374 39.6125 36.39375Q38.284374 34.9875 38.284374 32.45625Q38.284374 29.83125 39.628124 28.39375Q40.971874 26.940624 43.128124 26.940624Q45.20625 26.940624 46.51875 28.3625Q47.846874 29.76875 47.846874 32.346874Q47.846874 32.503124 47.83125 32.815624L40.096874 32.815624Q40.190624 34.51875 41.065624 35.425Q41.940624 36.33125 43.2375 36.33125Q44.20625 36.33125 44.878124 35.83125Q45.565624 35.315624 45.971874 34.20625ZM40.190624 31.3625L45.9875 31.3625Q45.878124 30.065624 45.33125 29.409374Q44.4875 28.39375 43.14375 28.39375Q41.940624 28.39375 41.1125 29.20625Q40.284374 30.003124 40.190624 31.3625ZM49.846874 37.55L49.846874 27.175L51.425 27.175L51.425 28.753124Q52.034374 27.64375 52.55 27.3Q53.065624 26.940624 53.675 26.940624Q54.565624 26.940624 55.4875 27.503124L54.878124 29.14375Q54.2375 28.753124 53.596874 28.753124Q53.01875 28.753124 52.55 29.1125Q52.096874 29.45625 51.89375 30.065624Q51.6125 31.003124 51.6125 32.1125L51.6125 37.55L49.846874 37.55ZM63.64375 36.26875Q62.659374 37.096874 61.753124 37.440624Q60.846874 37.784374 59.815624 37.784374Q58.1125 37.784374 57.190624 36.95625Q56.26875 36.1125 56.26875 34.815624Q56.26875 34.05 56.6125 33.425Q56.971874 32.8 57.534374 32.425Q58.096874 32.034374 58.8 31.83125Q59.315624 31.70625 60.3625 31.565624Q62.4875 31.315624 63.4875 30.971874Q63.503124 30.6125 63.503124 30.503124Q63.503124 29.440624 63.003124 28.9875Q62.33125 28.39375 61.003124 28.39375Q59.753124 28.39375 59.159374 28.83125Q58.58125 29.26875 58.3 30.378124L56.58125 30.14375Q56.815624 29.034374 57.346874 28.3625Q57.878124 27.675 58.89375 27.315624Q59.909374 26.940624 61.253124 26.940624Q62.58125 26.940624 63.409374 27.253124Q64.2375 27.565624 64.62813 28.05Q65.01875 28.51875 65.175 29.2375Q65.26875 29.690624 65.26875 30.8625L65.26875 33.20625Q65.26875 35.659374 65.37813 36.315624Q65.4875 36.95625 65.83125 37.55L63.9875 37.55Q63.721874 37.003124 63.64375 36.26875ZM63.4875 32.346874Q62.534374 32.7375 60.6125 33.003124Q59.534374 33.159374 59.08125 33.3625Q58.64375 33.55 58.39375 33.925Q58.14375 34.3 58.14375 34.76875Q58.14375 35.471874 58.675 35.940624Q59.20625 36.409374 60.2375 36.409374Q61.253124 36.409374 62.034374 35.971874Q62.83125 35.51875 63.20625 34.753124Q63.4875 34.14375 63.4875 32.9875L63.4875 32.346874ZM67.55 38.409374L69.25313 38.659374Q69.3625 39.45625 69.84688 39.815624Q70.50313 40.3 71.64375 40.3Q72.8625 40.3 73.51875 39.815624Q74.19063 39.33125 74.425 38.45625Q74.56563 37.909374 74.55 36.190624Q73.39375 37.55 71.675 37.55Q69.53438 37.55 68.3625 36.003124Q67.19063 34.45625 67.19063 32.3Q67.19063 30.815624 67.72188 29.565624Q68.26875 28.315624 69.28438 27.628124Q70.31563 26.940624 71.69063 26.940624Q73.51875 26.940624 74.72188 28.425L74.72188 27.175L76.33125 27.175L76.33125 36.14375Q76.33125 38.565624 75.83125 39.565624Q75.34688 40.58125 74.26875 41.159374Q73.20625 41.753124 71.64375 41.753124Q69.8 41.753124 68.64375 40.925Q67.50313 40.096874 67.55 38.409374ZM69.00313 32.175Q69.00313 34.221874 69.81563 35.159374Q70.62813 36.096874 71.84688 36.096874Q73.05 36.096874 73.8625 35.159374Q74.69063 34.221874 74.69063 32.2375Q74.69063 30.33125 73.84688 29.3625Q73.00313 28.39375 71.81563 28.39375Q70.64375 28.39375 69.81563 29.346874Q69.00313 30.3 69.00313 32.175ZM85.97188 34.20625L87.78438 34.440624Q87.3625 36.01875 86.19063 36.909374Q85.03438 37.784374 83.22188 37.784374Q80.95625 37.784374 79.6125 36.39375Q78.28438 34.9875 78.28438 32.45625Q78.28438 29.83125 79.62813 28.39375Q80.97188 26.940624 83.12813 26.940624Q85.20625 26.940624 86.51875 28.3625Q87.84688 29.76875 87.84688 32.346874Q87.84688 32.503124 87.83125 32.815624L80.09688 32.815624Q80.19063 34.51875 81.06563 35.425Q81.94063 36.33125 83.2375 36.33125Q84.20625 36.33125 84.87813 35.83125Q85.56563 35.315624 85.97188 34.20625ZM80.19063 31.3625L85.9875 31.3625Q85.87813 30.065624 85.33125 29.409374Q84.4875 28.39375 83.14375 28.39375Q81.94063 28.39375 81.1125 29.20625Q80.28438 30.003124 80.19063 31.3625ZM102.64375 36.26875Q101.65938 37.096874 100.75313 37.440624Q99.84688 37.784374 98.81563 37.784374Q97.1125 37.784374 96.19063 36.95625Q95.26875 36.1125 95.26875 34.815624Q95.26875 34.05 95.6125 33.425Q95.97188 32.8 96.53438 32.425Q97.09688 32.034374 97.8 31.83125Q98.31563 31.70625 99.3625 31.565624Q101.4875 31.315624 102.4875 30.971874Q102.50313 30.6125 102.50313 30.503124Q102.50313 29.440624 102.00313 28.9875Q101.33125 28.39375 100.00313 28.39375Q98.75313 28.39375 98.15938 28.83125Q97.58125 29.26875 97.3 30.378124L95.58125 30.14375Q95.81563 29.034374 96.34688 28.3625Q96.87813 27.675 97.89375 27.315624Q98.90938 26.940624 100.25313 26.940624Q101.58125 26.940624 102.40938 27.253124Q103.2375 27.565624 103.62813 28.05Q104.01875 28.51875 104.175 29.2375Q104.26875 29.690624 104.26875 30.8625L104.26875 33.20625Q104.26875 35.659374 104.37813 36.315624Q104.4875 36.95625 104.83125 37.55L102.9875 37.55Q102.72188 37.003124 102.64375 36.26875ZM102.4875 32.346874Q101.53438 32.7375 99.6125 33.003124Q98.53438 33.159374 98.08125 33.3625Q97.64375 33.55 97.39375 33.925Q97.14375 34.3 97.14375 34.76875Q97.14375 35.471874 97.675 35.940624Q98.20625 36.409374 99.2375 36.409374Q100.25313 36.409374 101.03438 35.971874Q101.83125 35.51875 102.20625 34.753124Q102.4875 34.14375 102.4875 32.9875L102.4875 32.346874ZM106.8625 41.51875L106.8625 27.175L108.47188 27.175L108.47188 28.51875Q109.03438 27.7375 109.7375 27.346874Q110.45625 26.940624 111.47188 26.940624Q112.8 26.940624 113.81563 27.628124Q114.83125 28.315624 115.34688 29.565624Q115.87813 30.8 115.87813 32.284374Q115.87813 33.878124 115.3 35.159374Q114.7375 36.425 113.64375 37.1125Q112.55 37.784374 111.34688 37.784374Q110.47188 37.784374 109.76875 37.409374Q109.08125 37.034374 108.62813 36.471874L108.62813 41.51875L106.8625 41.51875ZM108.45625 32.425Q108.45625 34.425 109.26875 35.378124Q110.08125 36.33125 111.2375 36.33125Q112.40938 36.33125 113.2375 35.346874Q114.08125 34.3625 114.08125 32.26875Q114.08125 30.3 113.25313 29.315624Q112.44063 28.315624 111.31563 28.315624Q110.19063 28.315624 109.31563 29.378124Q108.45625 30.425 108.45625 32.425ZM117.87813 25.253124L117.87813 23.2375L119.64375 23.2375L119.64375 25.253124L117.87813 25.253124ZM117.87813 37.55L117.87813 27.175L119.64375 27.175L119.64375 37.55L117.87813 37.55ZM127.84688 37.55L127.84688 27.175L129.425 27.175L129.425 28.753124Q130.03438 27.64375 130.55 27.3Q131.06563 26.940624 131.675 26.940624Q132.56563 26.940624 133.4875 27.503124L132.87813 29.14375Q132.2375 28.753124 131.59688 28.753124Q131.01875 28.753124 130.55 29.1125Q130.09688 29.45625 129.89375 30.065624Q129.6125 31.003124 129.6125 32.1125L129.6125 37.55L127.84688 37.55ZM141.97188 34.20625L143.78438 34.440624Q143.3625 36.01875 142.19063 36.909374Q141.03438 37.784374 139.22188 37.784374Q136.95625 37.784374 135.6125 36.39375Q134.28438 34.9875 134.28438 32.45625Q134.28438 29.83125 135.62813 28.39375Q136.97188 26.940624 139.12813 26.940624Q141.20625 26.940624 142.51875 28.3625Q143.84688 29.76875 143.84688 32.346874Q143.84688 32.503124 143.83125 32.815624L136.09688 32.815624Q136.19063 34.51875 137.06563 35.425Q137.94063 36.33125 139.2375 36.33125Q140.20625 36.33125 140.87813 35.83125Q141.56563 35.315624 141.97188 34.20625ZM136.19063 31.3625L141.9875 31.3625Q141.87813 30.065624 141.33125 29.409374Q140.4875 28.39375 139.14375 28.39375Q137.94063 28.39375 137.1125 29.20625Q136.28438 30.003124 136.19063 31.3625ZM145.15938 34.45625L146.90938 34.175Q147.05 35.221874 147.72188 35.784374Q148.39375 36.33125 149.59688 36.33125Q150.8 36.33125 151.37813 35.846874Q151.97188 35.346874 151.97188 34.690624Q151.97188 34.096874 151.45625 33.753124Q151.09688 33.51875 149.65938 33.159374Q147.72188 32.659374 146.97188 32.315624Q146.2375 31.95625 145.84688 31.33125Q145.45625 30.690624 145.45625 29.925Q145.45625 29.2375 145.76875 28.64375Q146.09688 28.05 146.64375 27.659374Q147.05 27.3625 147.75313 27.159374Q148.47188 26.940624 149.28438 26.940624Q150.50313 26.940624 151.425 27.3Q152.34688 27.64375 152.78438 28.253124Q153.22188 28.846874 153.39375 29.846874L151.675 30.08125Q151.55 29.284374 150.9875 28.846874Q150.425 28.39375 149.40938 28.39375Q148.19063 28.39375 147.675 28.8Q147.15938 29.190624 147.15938 29.721874Q147.15938 30.065624 147.37813 30.346874Q147.58125 30.628124 148.05 30.815624Q148.31563 30.909374 149.59688 31.253124Q151.47188 31.753124 152.20625 32.08125Q152.94063 32.39375 153.3625 33.003124Q153.78438 33.596874 153.78438 34.503124Q153.78438 35.378124 153.26875 36.159374Q152.75313 36.940624 151.78438 37.3625Q150.81563 37.784374 149.59688 37.784374Q147.58125 37.784374 146.51875 36.940624Q145.45625 36.096874 145.15938 34.45625ZM155.8625 41.51875L155.8625 27.175L157.47188 27.175L157.47188 28.51875Q158.03438 27.7375 158.7375 27.346874Q159.45625 26.940624 160.47188 26.940624Q161.8 26.940624 162.81563 27.628124Q163.83125 28.315624 164.34688 29.565624Q164.87813 30.8 164.87813 32.284374Q164.87813 33.878124 164.3 35.159374Q163.7375 36.425 162.64375 37.1125Q161.55 37.784374 160.34688 37.784374Q159.47188 37.784374 158.76875 37.409374Q158.08125 37.034374 157.62813 36.471874L157.62813 41.51875L155.8625 41.51875ZM157.45625 32.425Q157.45625 34.425 158.26875 35.378124Q159.08125 36.33125 160.2375 36.33125Q161.40938 36.33125 162.2375 35.346874Q163.08125 34.3625 163.08125 32.26875Q163.08125 30.3 162.25313 29.315624Q161.44063 28.315624 160.31563 28.315624Q159.19063 28.315624 158.31563 29.378124Q157.45625 30.425 157.45625 32.425ZM166.22188 32.3625Q166.22188 29.4875 167.81563 28.096874Q169.15938 26.940624 171.08125 26.940624Q173.22188 26.940624 174.56563 28.346874Q175.925 29.753124 175.925 32.221874Q175.925 34.221874 175.33125 35.378124Q174.7375 36.51875 173.58125 37.159374Q172.44063 37.784374 171.08125 37.784374Q168.89375 37.784374 167.55 36.39375Q166.22188 34.9875 166.22188 32.3625ZM168.01875 32.3625Q168.01875 34.3625 168.87813 35.346874Q169.75313 36.33125 171.08125 36.33125Q172.39375 36.33125 173.25313 35.346874Q174.12813 34.346874 174.12813 32.3Q174.12813 30.378124 173.25313 29.39375Q172.37813 28.39375 171.08125 28.39375Q169.75313 28.39375 168.87813 29.39375Q168.01875 30.378124 168.01875 32.3625ZM177.8625 37.55L177.8625 27.175L179.45625 27.175L179.45625 28.659374Q180.59688 26.940624 182.75313 26.940624Q183.69063 26.940624 184.47188 27.284374Q185.26875 27.6125 185.65938 28.159374Q186.05 28.70625 186.20625 29.45625Q186.3 29.95625 186.3 31.175L186.3 37.55L184.53438 37.55L184.53438 31.2375Q184.53438 30.159374 184.33125 29.628124Q184.12813 29.096874 183.59688 28.784374Q183.08125 28.471874 182.37813 28.471874Q181.25313 28.471874 180.44063 29.190624Q179.62813 29.89375 179.62813 31.878124L179.62813 37.55L177.8625 37.55ZM187.15938 34.45625L188.90938 34.175Q189.05 35.221874 189.72188 35.784374Q190.39375 36.33125 191.59688 36.33125Q192.8 36.33125 193.37813 35.846874Q193.97188 35.346874 193.97188 34.690624Q193.97188 34.096874 193.45625 33.753124Q193.09688 33.51875 191.65938 33.159374Q189.72188 32.659374 188.97188 32.315624Q188.2375 31.95625 187.84688 31.33125Q187.45625 30.690624 187.45625 29.925Q187.45625 29.2375 187.76875 28.64375Q188.09688 28.05 188.64375 27.659374Q189.05 27.3625 189.75313 27.159374Q190.47188 26.940624 191.28438 26.940624Q192.50313 26.940624 193.425 27.3Q194.34688 27.64375 194.78438 28.253124Q195.22188 28.846874 195.39375 29.846874L193.675 30.08125Q193.55 29.284374 192.9875 28.846874Q192.425 28.39375 191.40938 28.39375Q190.19063 28.39375 189.675 28.8Q189.15938 29.190624 189.15938 29.721874Q189.15938 30.065624 189.37813 30.346874Q189.58125 30.628124 190.05 30.815624Q190.31563 30.909374 191.59688 31.253124Q193.47188 31.753124 194.20625 32.08125Q194.94063 32.39375 195.3625 33.003124Q195.78438 33.596874 195.78438 34.503124Q195.78438 35.378124 195.26875 36.159374Q194.75313 36.940624 193.78438 37.3625Q192.81563 37.784374 191.59688 37.784374Q189.58125 37.784374 188.51875 36.940624Q187.45625 36.096874 187.15938 34.45625ZM204.97188 34.20625L206.78438 34.440624Q206.3625 36.01875 205.19063 36.909374Q204.03438 37.784374 202.22188 37.784374Q199.95625 37.784374 198.6125 36.39375Q197.28438 34.9875 197.28438 32.45625Q197.28438 29.83125 198.62813 28.39375Q199.97188 26.940624 202.12813 26.940624Q204.20625 26.940624 205.51875 28.3625Q206.84688 29.76875 206.84688 32.346874Q206.84688 32.503124 206.83125 32.815624L199.09688 32.815624Q199.19063 34.51875 200.06563 35.425Q200.94063 36.33125 202.2375 36.33125Q203.20625 36.33125 203.87813 35.83125Q204.56563 35.315624 204.97188 34.20625ZM199.19063 31.3625L204.9875 31.3625Q204.87813 30.065624 204.33125 29.409374Q203.4875 28.39375 202.14375 28.39375Q200.94063 28.39375 200.1125 29.20625Q199.28438 30.003124 199.19063 31.3625ZM218.70625 35.971874L218.95625 37.534374Q218.22188 37.690624 217.62813 37.690624Q216.675 37.690624 216.14375 37.39375Q215.62813 37.08125 215.40938 36.596874Q215.19063 36.096874 215.19063 34.51875L215.19063 28.55L213.90938 28.55L213.90938 27.175L215.19063 27.175L215.19063 24.6125L216.94063 23.55L216.94063 27.175L218.70625 27.175L218.70625 28.55L216.94063 28.55L216.94063 34.6125Q216.94063 35.3625 217.03438 35.58125Q217.12813 35.784374 217.33125 35.925Q217.55 36.05 217.94063 36.05Q218.22188 36.05 218.70625 35.971874ZM220.87813 25.253124L220.87813 23.2375L222.64375 23.2375L222.64375 25.253124L220.87813 25.253124ZM220.87813 37.55L220.87813 27.175L222.64375 27.175L222.64375 37.55L220.87813 37.55ZM224.8625 37.55L224.8625 27.175L226.44063 27.175L226.44063 28.628124Q226.925 27.878124 227.7375 27.409374Q228.55 26.940624 229.58125 26.940624Q230.7375 26.940624 231.47188 27.425Q232.20625 27.89375 232.51875 28.753124Q233.75313 26.940624 235.72188 26.940624Q237.26875 26.940624 238.09688 27.8Q238.925 28.659374 238.925 30.425L238.925 37.55L237.175 37.55L237.175 31.01875Q237.175 29.95625 237.00313 29.503124Q236.83125 29.034374 236.37813 28.753124Q235.94063 28.471874 235.33125 28.471874Q234.2375 28.471874 233.50313 29.20625Q232.78438 29.925 232.78438 31.51875L232.78438 37.55L231.03438 37.55L231.03438 30.815624Q231.03438 29.64375 230.59688 29.065624Q230.175 28.471874 229.19063 28.471874Q228.45625 28.471874 227.81563 28.8625Q227.19063 29.253124 226.90938 30.003124Q226.62813 30.753124 226.62813 32.175L226.62813 37.55L224.8625 37.55ZM247.97188 34.20625L249.78438 34.440624Q249.3625 36.01875 248.19063 36.909374Q247.03438 37.784374 245.22188 37.784374Q242.95625 37.784374 241.6125 36.39375Q240.28438 34.9875 240.28438 32.45625Q240.28438 29.83125 241.62813 28.39375Q242.97188 26.940624 245.12813 26.940624Q247.20625 26.940624 248.51875 28.3625Q249.84688 29.76875 249.84688 32.346874Q249.84688 32.503124 249.83125 32.815624L242.09688 32.815624Q242.19063 34.51875 243.06563 35.425Q243.94063 36.33125 245.2375 36.33125Q246.20625 36.33125 246.87813 35.83125Q247.56563 35.315624 247.97188 34.20625ZM242.19063 31.3625L247.9875 31.3625Q247.87813 30.065624 247.33125 29.409374Q246.4875 28.39375 245.14375 28.39375Q243.94063 28.39375 243.1125 29.20625Q242.28438 30.003124 242.19063 31.3625ZM257.8781 25.253124L257.8781 23.2375L259.64374 23.2375L259.64374 25.253124L257.8781 25.253124ZM257.8781 37.55L257.8781 27.175L259.64374 27.175L259.64374 37.55L257.8781 37.55ZM261.8625 37.55L261.8625 27.175L263.45624 27.175L263.45624 28.659374Q264.59686 26.940624 266.7531 26.940624Q267.6906 26.940624 268.47186 27.284374Q269.26874 27.6125 269.65936 28.159374Q270.05 28.70625 270.20624 29.45625Q270.3 29.95625 270.3 31.175L270.3 37.55L268.53436 37.55L268.53436 31.2375Q268.53436 30.159374 268.33124 29.628124Q268.1281 29.096874 267.59686 28.784374Q267.08124 28.471874 266.3781 28.471874Q265.2531 28.471874 264.4406 29.190624Q263.6281 29.89375 263.6281 31.878124L263.6281 37.55L261.8625 37.55ZM277.15936 34.45625L278.90936 34.175Q279.05 35.221874 279.72186 35.784374Q280.39374 36.33125 281.59686 36.33125Q282.8 36.33125 283.3781 35.846874Q283.97186 35.346874 283.97186 34.690624Q283.97186 34.096874 283.45624 33.753124Q283.09686 33.51875 281.65936 33.159374Q279.72186 32.659374 278.97186 32.315624Q278.2375 31.95625 277.84686 31.33125Q277.45624 30.690624 277.45624 29.925Q277.45624 29.2375 277.76874 28.64375Q278.09686 28.05 278.64374 27.659374Q279.05 27.3625 279.7531 27.159374Q280.47186 26.940624 281.28436 26.940624Q282.5031 26.940624 283.425 27.3Q284.34686 27.64375 284.78436 28.253124Q285.22186 28.846874 285.39374 29.846874L283.675 30.08125Q283.55 29.284374 282.9875 28.846874Q282.425 28.39375 281.40936 28.39375Q280.1906 28.39375 279.675 28.8Q279.15936 29.190624 279.15936 29.721874Q279.15936 30.065624 279.3781 30.346874Q279.58124 30.628124 280.05 30.815624Q280.3156 30.909374 281.59686 31.253124Q283.47186 31.753124 284.20624 32.08125Q284.9406 32.39375 285.3625 33.003124Q285.78436 33.596874 285.78436 34.503124Q285.78436 35.378124 285.26874 36.159374Q284.7531 36.940624 283.78436 37.3625Q282.8156 37.784374 281.59686 37.784374Q279.58124 37.784374 278.51874 36.940624Q277.45624 36.096874 277.15936 34.45625ZM303.22186 41.753124Q301.76874 39.925 300.76874 37.471874Q299.76874 35.003124 299.76874 32.3625Q299.76874 30.034374 300.51874 27.909374Q301.39374 25.440624 303.22186 22.9875L304.4875 22.9875Q303.3 25.01875 302.925 25.89375Q302.33124 27.2375 301.9875 28.70625Q301.5656 30.534374 301.5656 32.378124Q301.5656 37.065624 304.4875 41.753124L303.22186 41.753124ZM306.8781 25.253124L306.8781 23.2375L308.64374 23.2375L308.64374 25.253124L306.8781 25.253124ZM306.8781 37.55L306.8781 27.175L308.64374 27.175L308.64374 37.55L306.8781 37.55ZM310.8625 37.55L310.8625 27.175L312.45624 27.175L312.45624 28.659374Q313.59686 26.940624 315.7531 26.940624Q316.6906 26.940624 317.47186 27.284374Q318.26874 27.6125 318.65936 28.159374Q319.05 28.70625 319.20624 29.45625Q319.3 29.95625 319.3 31.175L319.3 37.55L317.53436 37.55L317.53436 31.2375Q317.53436 30.159374 317.33124 29.628124Q317.1281 29.096874 316.59686 28.784374Q316.08124 28.471874 315.3781 28.471874Q314.2531 28.471874 313.4406 29.190624Q312.6281 29.89375 312.6281 31.878124L312.6281 37.55L310.8625 37.55ZM324.70624 35.971874L324.95624 37.534374Q324.22186 37.690624 323.6281 37.690624Q322.675 37.690624 322.14374 37.39375Q321.6281 37.08125 321.40936 36.596874Q321.1906 36.096874 321.1906 34.51875L321.1906 28.55L319.90936 28.55L319.90936 27.175L321.1906 27.175L321.1906 24.6125L322.9406 23.55L322.9406 27.175L324.70624 27.175L324.70624 28.55L322.9406 28.55L322.9406 34.6125Q322.9406 35.3625 323.03436 35.58125Q323.1281 35.784374 323.33124 35.925Q323.55 36.05 323.9406 36.05Q324.22186 36.05 324.70624 35.971874ZM333.97186 34.20625L335.78436 34.440624Q335.3625 36.01875 334.1906 36.909374Q333.03436 37.784374 331.22186 37.784374Q328.95624 37.784374 327.6125 36.39375Q326.28436 34.9875 326.28436 32.45625Q326.28436 29.83125 327.6281 28.39375Q328.97186 26.940624 331.1281 26.940624Q333.20624 26.940624 334.51874 28.3625Q335.84686 29.76875 335.84686 32.346874Q335.84686 32.503124 335.83124 32.815624L328.09686 32.815624Q328.1906 34.51875 329.0656 35.425Q329.9406 36.33125 331.2375 36.33125Q332.20624 36.33125 332.8781 35.83125Q333.5656 35.315624 333.97186 34.20625ZM328.1906 31.3625L333.9875 31.3625Q333.8781 30.065624 333.33124 29.409374Q332.4875 28.39375 331.14374 28.39375Q329.9406 28.39375 329.1125 29.20625Q328.28436 30.003124 328.1906 31.3625ZM337.8625 37.55L337.8625 27.175L339.45624 27.175L339.45624 28.659374Q340.59686 26.940624 342.7531 26.940624Q343.6906 26.940624 344.47186 27.284374Q345.26874 27.6125 345.65936 28.159374Q346.05 28.70625 346.20624 29.45625Q346.3 29.95625 346.3 31.175L346.3 37.55L344.53436 37.55L344.53436 31.2375Q344.53436 30.159374 344.33124 29.628124Q344.1281 29.096874 343.59686 28.784374Q343.08124 28.471874 342.3781 28.471874Q341.2531 28.471874 340.4406 29.190624Q339.6281 29.89375 339.6281 31.878124L339.6281 37.55L337.8625 37.55ZM347.15936 34.45625L348.90936 34.175Q349.05 35.221874 349.72186 35.784374Q350.39374 36.33125 351.59686 36.33125Q352.8 36.33125 353.3781 35.846874Q353.97186 35.346874 353.97186 34.690624Q353.97186 34.096874 353.45624 33.753124Q353.09686 33.51875 351.65936 33.159374Q349.72186 32.659374 348.97186 32.315624Q348.2375 31.95625 347.84686 31.33125Q347.45624 30.690624 347.45624 29.925Q347.45624 29.2375 347.76874 28.64375Q348.09686 28.05 348.64374 27.659374Q349.05 27.3625 349.7531 27.159374Q350.47186 26.940624 351.28436 26.940624Q352.5031 26.940624 353.425 27.3Q354.34686 27.64375 354.78436 28.253124Q355.22186 28.846874 355.39374 29.846874L353.675 30.08125Q353.55 29.284374 352.9875 28.846874Q352.425 28.39375 351.40936 28.39375Q350.1906 28.39375 349.675 28.8Q349.15936 29.190624 349.15936 29.721874Q349.15936 30.065624 349.3781 30.346874Q349.58124 30.628124 350.05 30.815624Q350.3156 30.909374 351.59686 31.253124Q353.47186 31.753124 354.20624 32.08125Q354.9406 32.39375 355.3625 33.003124Q355.78436 33.596874 355.78436 34.503124Q355.78436 35.378124 355.26874 36.159374Q354.7531 36.940624 353.78436 37.3625Q352.8156 37.784374 351.59686 37.784374Q349.58124 37.784374 348.51874 36.940624Q347.45624 36.096874 347.15936 34.45625ZM357.8781 25.253124L357.8781 23.2375L359.64374 23.2375L359.64374 25.253124L357.8781 25.253124ZM357.8781 37.55L357.8781 27.175L359.64374 27.175L359.64374 37.55L357.8781 37.55ZM364.7531 37.55L360.8 27.175L362.65936 27.175L364.89374 33.39375Q365.2531 34.39375 365.55 35.471874Q365.78436 34.659374 366.20624 33.503124L368.5031 27.175L370.3156 27.175L366.39374 37.55L364.7531 37.55ZM377.97186 34.20625L379.78436 34.440624Q379.3625 36.01875 378.1906 36.909374Q377.03436 37.784374 375.22186 37.784374Q372.95624 37.784374 371.6125 36.39375Q370.28436 34.9875 370.28436 32.45625Q370.28436 29.83125 371.6281 28.39375Q372.97186 26.940624 375.1281 26.940624Q377.20624 26.940624 378.51874 28.3625Q379.84686 29.76875 379.84686 32.346874Q379.84686 32.503124 379.83124 32.815624L372.09686 32.815624Q372.1906 34.51875 373.0656 35.425Q373.9406 36.33125 375.2375 36.33125Q376.20624 36.33125 376.8781 35.83125Q377.5656 35.315624 377.97186 34.20625ZM372.1906 31.3625L377.9875 31.3625Q377.8781 30.065624 377.33124 29.409374Q376.4875 28.39375 375.14374 28.39375Q373.9406 28.39375 373.1125 29.20625Q372.28436 30.003124 372.1906 31.3625ZM383.01874 41.753124L381.76874 41.753124Q384.675 37.065624 384.675 32.378124Q384.675 30.534374 384.26874 28.7375Q383.925 27.26875 383.33124 25.925Q382.95624 25.034374 381.76874 22.9875L383.01874 22.9875Q384.8625 25.440624 385.7375 27.909374Q386.4875 30.034374 386.4875 32.3625Q386.4875 35.003124 385.47186 37.471874Q384.47186 39.925 383.01874 41.753124Z" fill-rule="nonzero"/></svg>