<svg version="1.1" viewBox="0.0 0.0 600.0 371.0" fill="none" stroke="none" stroke-linecap="square" stroke-miterlimit="10" width="600" height="371" xmlns:xlink="http://www.w3.org/1999/xlink" xmlns="http://www.w3.org/2000/svg"><path fill="#ffffff" d="M0 0L600.0 0L600.0 371.0L0 371.0L0 0Z" fill-rule="nonzero"/><path stroke="#333333" stroke-width="1.0" stroke-linecap="butt" d="M77.5 88.5L77.5 300.5" fill-rule="nonzero"/><path stroke="#cccccc" stroke-width="1.0" stroke-linecap="butt" d="M197.5 88.5L197.5 300.5" fill-rule="nonzero"/><path stroke="#cccccc" stroke-width="1.0" stroke-linecap="butt" d="M317.5 88.5L317.5 300.5" fill-rule="nonzero"/><path stroke="#cccccc" stroke-width="1.0" stroke-linecap="butt" d="M437.5 88.5L437.5 300.5" fill-rule="nonzero"/><path stroke="#cccccc" stroke-width="1.0" stroke-linecap="butt" d="M557.5 88.5L557.5 300.5" fill-rule="nonzero"/><path stroke="#333333" stroke-width="1.0" stroke-linecap="butt" d="M77.5 300.5L581.5 300.5" fill-rule="nonzero"/><path stroke="#cccccc" stroke-width="1.0" stroke-linecap="butt" d="M77.5 247.5L581.5 247.5" fill-rule="nonzero"/><path stroke="#cccccc" stroke-width="1.0" stroke-linecap="butt" d="M77.5 194.5L581.5 194.5" fill-rule="nonzero"/><path stroke="#cccccc" stroke-width="1.0" stroke-linecap="butt" d="M77.5 141.5L581.5 141.5" fill-rule="nonzero"/><path stroke="#cccccc" stroke-width="1.0" stroke-linecap="butt" d="M77.5 88.5L581.5 88.5" fill-rule="nonzero"/><clipPath id="id_0"><path d="M77.55 88.28333L581.45 88.28333L581.45 300.45L77.55 300.45L77.55 88.28333Z" clip-rule="nonzero"/></clipPath><path stroke="#4285f4" stroke-width="2.0" stroke-linecap="butt" clip-path="url(#id_0)" d="M77.55 269.2729L113.542854 284.40536L149.53572 289.86L185.52856 280.15652L221.52142 286.5428L257.51428 285.0731L293.50714 283.59186L329.5 284.3199L365.49286 281.7534L401.48572 284.0856L437.47858 281.64694L473.47144 295.21075L509.4643 287.25568L545.45715 289.26767L581.45 289.14545" fill-rule="nonzero"/><path stroke="#ea4335" stroke-width="2.0" stroke-linecap="butt" clip-path="url(#id_0)" d="M77.55 117.35758L113.542854 264.8712L149.53572 263.95877L185.52856 285.7928L221.52142 280.22522L257.51428 266.1576L293.50714 264.06464L329.5 282.4933L365.49286 280.55447L401.48572 268.33575L437.47858 278.2061L473.47144 286.85544L509.4643 291.14548L545.45715 292.96976L581.45 292.52173" fill-rule="nonzero"/><path stroke="#fbbc04" stroke-width="2.0" stroke-linecap="butt" clip-path="url(#id_0)" d="M77.55 291.04376L113.542854 269.89313L149.53572 278.94617L185.52856 287.61493L221.52142 278.3385L257.51428 286.4812L293.50714 276.8837L329.5 288.60913L365.49286 285.81204L401.48572 280.787L437.47858 285.3415L473.47144 285.80063L509.4643 290.06647L545.45715 287.41342L581.45 290.31912" fill-rule="nonzero"/><path stroke="#34a853" stroke-width="2.0" stroke-linecap="butt" clip-path="url(#id_0)" d="M77.55 226.59572L113.542854 285.13882L149.53572 286.71008L185.52856 284.1685L221.52142 282.18002L257.51428 283.7238L293.50714 285.17737L329.5 284.36713L365.49286 280.61862L401.48572 287.35016L437.47858 286.92743L473.47144 285.77405L509.4643 289.4402L545.45715 291.89325L581.45 290.25687" fill-rule="nonzero"/><path fill="#000000" fill-opacity="0.0" clip-path="url(#id_0)" d="M80.55 269.2729C80.55 270.92975 79.206856 272.2729 77.55 272.2729C75.89314 272.2729 74.55 270.92975 74.55 269.2729C74.55 267.61606 75.89314 266.2729 77.55 266.2729C79.206856 266.2729 80.55 267.61606 80.55 269.2729Z" fill-rule="nonzero"/><path fill="#000000" fill-opacity="0.0" clip-path="url(#id_0)" d="M116.542854 284.40536C116.542854 286.06223 115.199715 287.40536 113.542854 287.40536C111.886 287.40536 110.542854 286.06223 110.542854 284.40536C110.542854 282.74854 111.886 281.40536 113.542854 281.40536C115.199715 281.40536 116.542854 282.74854 116.542854 284.40536Z" fill-rule="nonzero"/><path fill="#000000" fill-opacity="0.0" clip-path="url(#id_0)" d="M152.53572 289.86C152.53572 291.51685 151.19257 292.86 149.53572 292.86C147.87886 292.86 146.53572 291.51685 146.53572 289.86C146.53572 288.20312 147.87886 286.86 149.53572 286.86C151.19257 286.86 152.53572 288.20312 152.53572 289.86Z" fill-rule="nonzero"/><path fill="#000000" fill-opacity="0.0" clip-path="url(#id_0)" d="M188.52856 280.15652C188.52856 281.8134 187.18542 283.15652 185.52856 283.15652C183.87172 283.15652 182.52856 281.8134 182.52856 280.15652C182.52856 278.49966 183.87172 277.15652 185.52856 277.15652C187.18542 277.15652 188.52856 278.49966 188.52856 280.15652Z" fill-rule="nonzero"/><path fill="#000000" fill-opacity="0.0" clip-path="url(#id_0)" d="M224.52142 286.5428C224.52142 288.19962 223.17828 289.5428 221.52142 289.5428C219.86458 289.5428 218.52142 288.19962 218.52142 286.5428C218.52142 284.88593 219.86458 283.5428 221.52142 283.5428C223.17828 283.5428 224.52142 284.88593 224.52142 286.5428Z" fill-rule="nonzero"/><path fill="#000000" fill-opacity="0.0" clip-path="url(#id_0)" d="M260.51428 285.0731C260.51428 286.72995 259.17114 288.0731 257.51428 288.0731C255.85744 288.0731 254.51428 286.72995 254.51428 285.0731C254.51428 283.41623 255.85744 282.0731 257.51428 282.0731C259.17114 282.0731 260.51428 283.41623 260.51428 285.0731Z" fill-rule="nonzero"/><path fill="#000000" fill-opacity="0.0" clip-path="url(#id_0)" d="M296.50714 283.59186C296.50714 285.24872 295.164 286.59186 293.50714 286.59186C291.85028 286.59186 290.50714 285.24872 290.50714 283.59186C290.50714 281.935 291.85028 280.59186 293.50714 280.59186C295.164 280.59186 296.50714 281.935 296.50714 283.59186Z" fill-rule="nonzero"/><path fill="#000000" fill-opacity="0.0" clip-path="url(#id_0)" d="M332.5 284.3199C332.5 285.97675 331.15686 287.3199 329.5 287.3199C327.84314 287.3199 326.5 285.97675 326.5 284.3199C326.5 282.66302 327.84314 281.3199 329.5 281.3199C331.15686 281.3199 332.5 282.66302 332.5 284.3199Z" fill-rule="nonzero"/><path fill="#000000" fill-opacity="0.0" clip-path="url(#id_0)" d="M368.49286 281.7534C368.49286 283.41025 367.14972 284.7534 365.49286 284.7534C363.836 284.7534 362.49286 283.41025 362.49286 281.7534C362.49286 280.09653 363.836 278.7534 365.49286 278.7534C367.14972 278.7534 368.49286 280.09653 368.49286 281.7534Z" fill-rule="nonzero"/><path fill="#000000" fill-opacity="0.0" clip-path="url(#id_0)" d="M404.48572 284.0856C404.48572 285.74246 403.14258 287.0856 401.48572 287.0856C399.82886 287.0856 398.48572 285.74246 398.48572 284.0856C398.48572 282.42874 399.82886 281.0856 401.48572 281.0856C403.14258 281.0856 404.48572 282.42874 404.48572 284.0856Z" fill-rule="nonzero"/><path fill="#000000" fill-opacity="0.0" clip-path="url(#id_0)" d="M440.47858 281.64694C440.47858 283.30377 439.13544 284.64694 437.47858 284.64694C435.82172 284.64694 434.47858 283.30377 434.47858 281.64694C434.47858 279.99008 435.82172 278.64694 437.47858 278.64694C439.13544 278.64694 440.47858 279.99008 440.47858 281.64694Z" fill-rule="nonzero"/><path fill="#000000" fill-opacity="0.0" clip-path="url(#id_0)" d="M476.47144 295.21075C476.47144 296.8676 475.1283 298.21075 473.47144 298.21075C471.81458 298.21075 470.47144 296.8676 470.47144 295.21075C470.47144 293.55392 471.81458 292.21075 473.47144 292.21075C475.1283 292.21075 476.47144 293.55392 476.47144 295.21075Z" fill-rule="nonzero"/><path fill="#000000" fill-opacity="0.0" clip-path="url(#id_0)" d="M512.4643 287.25568C512.4643 288.9125 511.12115 290.25568 509.4643 290.25568C507.80743 290.25568 506.4643 288.9125 506.4643 287.25568C506.4643 285.59882 507.80743 284.25568 509.4643 284.25568C511.12115 284.25568 512.4643 285.59882 512.4643 287.25568Z" fill-rule="nonzero"/><path fill="#000000" fill-opacity="0.0" clip-path="url(#id_0)" d="M548.45715 289.26767C548.45715 290.92453 547.114 292.26767 545.45715 292.26767C543.8003 292.26767 542.45715 290.92453 542.45715 289.26767C542.45715 287.6108 543.8003 286.26767 545.45715 286.26767C547.114 286.26767 548.45715 287.6108 548.45715 289.26767Z" fill-rule="nonzero"/><path fill="#000000" fill-opacity="0.0" clip-path="url(#id_0)" d="M584.45 289.14545C584.45 290.8023 583.1069 292.14545 581.45 292.14545C579.79315 292.14545 578.45 290.8023 578.45 289.14545C578.45 287.4886 579.79315 286.14545 581.45 286.14545C583.1069 286.14545 584.45 287.4886 584.45 289.14545Z" fill-rule="nonzero"/><path fill="#000000" fill-opacity="0.0" clip-path="url(#id_0)" d="M80.55 117.35758C80.55 119.014435 79.206856 120.35758 77.55 120.35758C75.89314 120.35758 74.55 119.014435 74.55 117.35758C74.55 115.70073 75.89314 114.35758 77.55 114.35758C79.206856 114.35758 80.55 115.70073 80.55 117.35758Z" fill-rule="nonzero"/><path fill="#000000" fill-opacity="0.0" clip-path="url(#id_0)" d="M116.542854 264.8712C116.542854 266.52805 115.199715 267.8712 113.542854 267.8712C111.886 267.8712 110.542854 266.52805 110.542854 264.8712C110.542854 263.21432 111.886 261.8712 113.542854 261.8712C115.199715 261.8712 116.542854 263.21432 116.542854 264.8712Z" fill-rule="nonzero"/><path fill="#000000" fill-opacity="0.0" clip-path="url(#id_0)" d="M152.53572 263.95877C152.53572 265.61563 151.19257 266.95877 149.53572 266.95877C147.87886 266.95877 146.53572 265.61563 146.53572 263.95877C146.53572 262.3019 147.87886 260.95877 149.53572 260.95877C151.19257 260.95877 152.53572 262.3019 152.53572 263.95877Z" fill-rule="nonzero"/><path fill="#000000" fill-opacity="0.0" clip-path="url(#id_0)" d="M188.52856 285.7928C188.52856 287.44965 187.18542 288.7928 185.52856 288.7928C183.87172 288.7928 182.52856 287.44965 182.52856 285.7928C182.52856 284.13593 183.87172 282.7928 185.52856 282.7928C187.18542 282.7928 188.52856 284.13593 188.52856 285.7928Z" fill-rule="nonzero"/><path fill="#000000" fill-opacity="0.0" clip-path="url(#id_0)" d="M224.52142 280.22522C224.52142 281.88208 223.17828 283.22522 221.52142 283.22522C219.86458 283.22522 218.52142 281.88208 218.52142 280.22522C218.52142 278.56836 219.86458 277.22522 221.52142 277.22522C223.17828 277.22522 224.52142 278.56836 224.52142 280.22522Z" fill-rule="nonzero"/><path fill="#000000" fill-opacity="0.0" clip-path="url(#id_0)" d="M260.51428 266.1576C260.51428 267.81445 259.17114 269.1576 257.51428 269.1576C255.85744 269.1576 254.51428 267.81445 254.51428 266.1576C254.51428 264.50073 255.85744 263.1576 257.51428 263.1576C259.17114 263.1576 260.51428 264.50073 260.51428 266.1576Z" fill-rule="nonzero"/><path fill="#000000" fill-opacity="0.0" clip-path="url(#id_0)" d="M296.50714 264.06464C296.50714 265.7215 295.164 267.06464 293.50714 267.06464C291.85028 267.06464 290.50714 265.7215 290.50714 264.06464C290.50714 262.40778 291.85028 261.06464 293.50714 261.06464C295.164 261.06464 296.50714 262.40778 296.50714 264.06464Z" fill-rule="nonzero"/><path fill="#000000" fill-opacity="0.0" clip-path="url(#id_0)" d="M332.5 282.4933C332.5 284.15015 331.15686 285.4933 329.5 285.4933C327.84314 285.4933 326.5 284.15015 326.5 282.4933C326.5 280.83643 327.84314 279.4933 329.5 279.4933C331.15686 279.4933 332.5 280.83643 332.5 282.4933Z" fill-rule="nonzero"/><path fill="#000000" fill-opacity="0.0" clip-path="url(#id_0)" d="M368.49286 280.55447C368.49286 282.21133 367.14972 283.55447 365.49286 283.55447C363.836 283.55447 362.49286 282.21133 362.49286 280.55447C362.49286 278.8976 363.836 277.55447 365.49286 277.55447C367.14972 277.55447 368.49286 278.8976 368.49286 280.55447Z" fill-rule="nonzero"/><path fill="#000000" fill-opacity="0.0" clip-path="url(#id_0)" d="M404.48572 268.33575C404.48572 269.9926 403.14258 271.33575 401.48572 271.33575C399.82886 271.33575 398.48572 269.9926 398.48572 268.33575C398.48572 266.6789 399.82886 265.33575 401.48572 265.33575C403.14258 265.33575 404.48572 266.6789 404.48572 268.33575Z" fill-rule="nonzero"/><path fill="#000000" fill-opacity="0.0" clip-path="url(#id_0)" d="M440.47858 278.2061C440.47858 279.86295 439.13544 281.2061 437.47858 281.2061C435.82172 281.2061 434.47858 279.86295 434.47858 278.2061C434.47858 276.54922 435.82172 275.2061 437.47858 275.2061C439.13544 275.2061 440.47858 276.54922 440.47858 278.2061Z" fill-rule="nonzero"/><path fill="#000000" fill-opacity="0.0" clip-path="url(#id_0)" d="M476.47144 286.85544C476.47144 288.51227 475.1283 289.85544 473.47144 289.85544C471.81458 289.85544 470.47144 288.51227 470.47144 286.85544C470.47144 285.19858 471.81458 283.85544 473.47144 283.85544C475.1283 283.85544 476.47144 285.19858 476.47144 286.85544Z" fill-rule="nonzero"/><path fill="#000000" fill-opacity="0.0" clip-path="url(#id_0)" d="M512.4643 291.14548C512.4643 292.8023 511.12115 294.14548 509.4643 294.14548C507.80743 294.14548 506.4643 292.8023 506.4643 291.14548C506.4643 289.48862 507.80743 288.14548 509.4643 288.14548C511.12115 288.14548 512.4643 289.48862 512.4643 291.14548Z" fill-rule="nonzero"/><path fill="#000000" fill-opacity="0.0" clip-path="url(#id_0)" d="M548.45715 292.96976C548.45715 294.6266 547.114 295.96976 545.45715 295.96976C543.8003 295.96976 542.45715 294.6266 542.45715 292.96976C542.45715 291.3129 543.8003 289.96976 545.45715 289.96976C547.114 289.96976 548.45715 291.3129 548.45715 292.96976Z" fill-rule="nonzero"/><path fill="#000000" fill-opacity="0.0" clip-path="url(#id_0)" d="M584.45 292.52173C584.45 294.1786 583.1069 295.52173 581.45 295.52173C579.79315 295.52173 578.45 294.1786 578.45 292.52173C578.45 290.8649 579.79315 289.52173 581.45 289.52173C583.1069 289.52173 584.45 290.8649 584.45 292.52173Z" fill-rule="nonzero"/><path fill="#000000" fill-opacity="0.0" clip-path="url(#id_0)" d="M80.55 291.04376C80.55 292.70062 79.206856 294.04376 77.55 294.04376C75.89314 294.04376 74.55 292.70062 74.55 291.04376C74.55 289.3869 75.89314 288.04376 77.55 288.04376C79.206856 288.04376 80.55 289.3869 80.55 291.04376Z" fill-rule="nonzero"/><path fill="#000000" fill-opacity="0.0" clip-path="url(#id_0)" d="M116.542854 269.89313C116.542854 271.55 115.199715 272.89313 113.542854 272.89313C111.886 272.89313 110.542854 271.55 110.542854 269.89313C110.542854 268.2363 111.886 266.89313 113.542854 266.89313C115.199715 266.89313 116.542854 268.2363 116.542854 269.89313Z" fill-rule="nonzero"/><path fill="#000000" fill-opacity="0.0" clip-path="url(#id_0)" d="M152.53572 278.94617C152.53572 280.60303 151.19257 281.94617 149.53572 281.94617C147.87886 281.94617 146.53572 280.60303 146.53572 278.94617C146.53572 277.2893 147.87886 275.94617 149.53572 275.94617C151.19257 275.94617 152.53572 277.2893 152.53572 278.94617Z" fill-rule="nonzero"/><path fill="#000000" fill-opacity="0.0" clip-path="url(#id_0)" d="M188.52856 287.61493C188.52856 289.2718 187.18542 290.61493 185.52856 290.61493C183.87172 290.61493 182.52856 289.2718 182.52856 287.61493C182.52856 285.9581 183.87172 284.61493 185.52856 284.61493C187.18542 284.61493 188.52856 285.9581 188.52856 287.61493Z" fill-rule="nonzero"/><path fill="#000000" fill-opacity="0.0" clip-path="url(#id_0)" d="M224.52142 278.3385C224.52142 279.99536 223.17828 281.3385 221.52142 281.3385C219.86458 281.3385 218.52142 279.99536 218.52142 278.3385C218.52142 276.68164 219.86458 275.3385 221.52142 275.3385C223.17828 275.3385 224.52142 276.68164 224.52142 278.3385Z" fill-rule="nonzero"/><path fill="#000000" fill-opacity="0.0" clip-path="url(#id_0)" d="M260.51428 286.4812C260.51428 288.13806 259.17114 289.4812 257.51428 289.4812C255.85744 289.4812 254.51428 288.13806 254.51428 286.4812C254.51428 284.82434 255.85744 283.4812 257.51428 283.4812C259.17114 283.4812 260.51428 284.82434 260.51428 286.4812Z" fill-rule="nonzero"/><path fill="#000000" fill-opacity="0.0" clip-path="url(#id_0)" d="M296.50714 276.8837C296.50714 278.54053 295.164 279.8837 293.50714 279.8837C291.85028 279.8837 290.50714 278.54053 290.50714 276.8837C290.50714 275.22684 291.85028 273.8837 293.50714 273.8837C295.164 273.8837 296.50714 275.22684 296.50714 276.8837Z" fill-rule="nonzero"/><path fill="#000000" fill-opacity="0.0" clip-path="url(#id_0)" d="M332.5 288.60913C332.5 290.266 331.15686 291.60913 329.5 291.60913C327.84314 291.60913 326.5 290.266 326.5 288.60913C326.5 286.9523 327.84314 285.60913 329.5 285.60913C331.15686 285.60913 332.5 286.9523 332.5 288.60913Z" fill-rule="nonzero"/><path fill="#000000" fill-opacity="0.0" clip-path="url(#id_0)" d="M368.49286 285.81204C368.49286 287.4689 367.14972 288.81204 365.49286 288.81204C363.836 288.81204 362.49286 287.4689 362.49286 285.81204C362.49286 284.15518 363.836 282.81204 365.49286 282.81204C367.14972 282.81204 368.49286 284.15518 368.49286 285.81204Z" fill-rule="nonzero"/><path fill="#000000" fill-opacity="0.0" clip-path="url(#id_0)" d="M404.48572 280.787C404.48572 282.44385 403.14258 283.787 401.48572 283.787C399.82886 283.787 398.48572 282.44385 398.48572 280.787C398.48572 279.13013 399.82886 277.787 401.48572 277.787C403.14258 277.787 404.48572 279.13013 404.48572 280.787Z" fill-rule="nonzero"/><path fill="#000000" fill-opacity="0.0" clip-path="url(#id_0)" d="M440.47858 285.3415C440.47858 286.99832 439.13544 288.3415 437.47858 288.3415C435.82172 288.3415 434.47858 286.99832 434.47858 285.3415C434.47858 283.68463 435.82172 282.3415 437.47858 282.3415C439.13544 282.3415 440.47858 283.68463 440.47858 285.3415Z" fill-rule="nonzero"/><path fill="#000000" fill-opacity="0.0" clip-path="url(#id_0)" d="M476.47144 285.80063C476.47144 287.45746 475.1283 288.80063 473.47144 288.80063C471.81458 288.80063 470.47144 287.45746 470.47144 285.80063C470.47144 284.14377 471.81458 282.80063 473.47144 282.80063C475.1283 282.80063 476.47144 284.14377 476.47144 285.80063Z" fill-rule="nonzero"/><path fill="#000000" fill-opacity="0.0" clip-path="url(#id_0)" d="M512.4643 290.06647C512.4643 291.7233 511.12115 293.06647 509.4643 293.06647C507.80743 293.06647 506.4643 291.7233 506.4643 290.06647C506.4643 288.4096 507.80743 287.06647 509.4643 287.06647C511.12115 287.06647 512.4643 288.4096 512.4643 290.06647Z" fill-rule="nonzero"/><path fill="#000000" fill-opacity="0.0" clip-path="url(#id_0)" d="M548.45715 287.41342C548.45715 289.07028 547.114 290.41342 545.45715 290.41342C543.8003 290.41342 542.45715 289.07028 542.45715 287.41342C542.45715 285.7566 543.8003 284.41342 545.45715 284.41342C547.114 284.41342 548.45715 285.7566 548.45715 287.41342Z" fill-rule="nonzero"/><path fill="#000000" fill-opacity="0.0" clip-path="url(#id_0)" d="M584.45 290.31912C584.45 291.97598 583.1069 293.31912 581.45 293.31912C579.79315 293.31912 578.45 291.97598 578.45 290.31912C578.45 288.66226 579.79315 287.31912 581.45 287.31912C583.1069 287.31912 584.45 288.66226 584.45 290.31912Z" fill-rule="nonzero"/><path fill="#000000" fill-opacity="0.0" clip-path="url(#id_0)" d="M80.55 226.59572C80.55 228.25256 79.206856 229.59572 77.55 229.59572C75.89314 229.59572 74.55 228.25256 74.55 226.59572C74.55 224.93886 75.89314 223.59572 77.55 223.59572C79.206856 223.59572 80.55 224.93886 80.55 226.59572Z" fill-rule="nonzero"/><path fill="#000000" fill-opacity="0.0" clip-path="url(#id_0)" d="M116.542854 285.13882C116.542854 286.79565 115.199715 288.13882 113.542854 288.13882C111.886 288.13882 110.542854 286.79565 110.542854 285.13882C110.542854 283.48196 111.886 282.13882 113.542854 282.13882C115.199715 282.13882 116.542854 283.48196 116.542854 285.13882Z" fill-rule="nonzero"/><path fill="#000000" fill-opacity="0.0" clip-path="url(#id_0)" d="M152.53572 286.71008C152.53572 288.36694 151.19257 289.71008 149.53572 289.71008C147.87886 289.71008 146.53572 288.36694 146.53572 286.71008C146.53572 285.05325 147.87886 283.71008 149.53572 283.71008C151.19257 283.71008 152.53572 285.05325 152.53572 286.71008Z" fill-rule="nonzero"/><path fill="#000000" fill-opacity="0.0" clip-path="url(#id_0)" d="M188.52856 284.1685C188.52856 285.82535 187.18542 287.1685 185.52856 287.1685C183.87172 287.1685 182.52856 285.82535 182.52856 284.1685C182.52856 282.51163 183.87172 281.1685 185.52856 281.1685C187.18542 281.1685 188.52856 282.51163 188.52856 284.1685Z" fill-rule="nonzero"/><path fill="#000000" fill-opacity="0.0" clip-path="url(#id_0)" d="M224.52142 282.18002C224.52142 283.83688 223.17828 285.18002 221.52142 285.18002C219.86458 285.18002 218.52142 283.83688 218.52142 282.18002C218.52142 280.5232 219.86458 279.18002 221.52142 279.18002C223.17828 279.18002 224.52142 280.5232 224.52142 282.18002Z" fill-rule="nonzero"/><path fill="#000000" fill-opacity="0.0" clip-path="url(#id_0)" d="M260.51428 283.7238C260.51428 285.38065 259.17114 286.7238 257.51428 286.7238C255.85744 286.7238 254.51428 285.38065 254.51428 283.7238C254.51428 282.06696 255.85744 280.7238 257.51428 280.7238C259.17114 280.7238 260.51428 282.06696 260.51428 283.7238Z" fill-rule="nonzero"/><path fill="#000000" fill-opacity="0.0" clip-path="url(#id_0)" d="M296.50714 285.17737C296.50714 286.83423 295.164 288.17737 293.50714 288.17737C291.85028 288.17737 290.50714 286.83423 290.50714 285.17737C290.50714 283.52054 291.85028 282.17737 293.50714 282.17737C295.164 282.17737 296.50714 283.52054 296.50714 285.17737Z" fill-rule="nonzero"/><path fill="#000000" fill-opacity="0.0" clip-path="url(#id_0)" d="M332.5 284.36713C332.5 286.024 331.15686 287.36713 329.5 287.36713C327.84314 287.36713 326.5 286.024 326.5 284.36713C326.5 282.71027 327.84314 281.36713 329.5 281.36713C331.15686 281.36713 332.5 282.71027 332.5 284.36713Z" fill-rule="nonzero"/><path fill="#000000" fill-opacity="0.0" clip-path="url(#id_0)" d="M368.49286 280.61862C368.49286 282.27548 367.14972 283.61862 365.49286 283.61862C363.836 283.61862 362.49286 282.27548 362.49286 280.61862C362.49286 278.96176 363.836 277.61862 365.49286 277.61862C367.14972 277.61862 368.49286 278.96176 368.49286 280.61862Z" fill-rule="nonzero"/><path fill="#000000" fill-opacity="0.0" clip-path="url(#id_0)" d="M404.48572 287.35016C404.48572 289.00702 403.14258 290.35016 401.48572 290.35016C399.82886 290.35016 398.48572 289.00702 398.48572 287.35016C398.48572 285.6933 399.82886 284.35016 401.48572 284.35016C403.14258 284.35016 404.48572 285.6933 404.48572 287.35016Z" fill-rule="nonzero"/><path fill="#000000" fill-opacity="0.0" clip-path="url(#id_0)" d="M440.47858 286.92743C440.47858 288.5843 439.13544 289.92743 437.47858 289.92743C435.82172 289.92743 434.47858 288.5843 434.47858 286.92743C434.47858 285.27057 435.82172 283.92743 437.47858 283.92743C439.13544 283.92743 440.47858 285.27057 440.47858 286.92743Z" fill-rule="nonzero"/><path fill="#000000" fill-opacity="0.0" clip-path="url(#id_0)" d="M476.47144 285.77405C476.47144 287.4309 475.1283 288.77405 473.47144 288.77405C471.81458 288.77405 470.47144 287.4309 470.47144 285.77405C470.47144 284.1172 471.81458 282.77405 473.47144 282.77405C475.1283 282.77405 476.47144 284.1172 476.47144 285.77405Z" fill-rule="nonzero"/><path fill="#000000" fill-opacity="0.0" clip-path="url(#id_0)" d="M512.4643 289.4402C512.4643 291.09705 511.12115 292.4402 509.4643 292.4402C507.80743 292.4402 506.4643 291.09705 506.4643 289.4402C506.4643 287.78333 507.80743 286.4402 509.4643 286.4402C511.12115 286.4402 512.4643 287.78333 512.4643 289.4402Z" fill-rule="nonzero"/><path fill="#000000" fill-opacity="0.0" clip-path="url(#id_0)" d="M548.45715 291.89325C548.45715 293.5501 547.114 294.89325 545.45715 294.89325C543.8003 294.89325 542.45715 293.5501 542.45715 291.89325C542.45715 290.2364 543.8003 288.89325 545.45715 288.89325C547.114 288.89325 548.45715 290.2364 548.45715 291.89325Z" fill-rule="nonzero"/><path fill="#000000" fill-opacity="0.0" clip-path="url(#id_0)" d="M584.45 290.25687C584.45 291.91373 583.1069 293.25687 581.45 293.25687C579.79315 293.25687 578.45 291.91373 578.45 290.25687C578.45 288.60004 579.79315 287.25687 581.45 287.25687C583.1069 287.25687 584.45 288.60004 584.45 290.25687Z" fill-rule="nonzero"/><path fill="#000000" d="M264.59375 348.5125L264.75 349.4344Q264.29688 349.52814 263.95312 349.52814Q263.375 349.52814 263.0625 349.35626Q262.75 349.16876 262.60938 348.8719Q262.48438 348.575 262.48438 347.6219L262.48438 344.04376L261.71875 344.04376L261.71875 343.23126L262.48438 343.23126L262.48438 341.6844L263.53125 341.0594L263.53125 343.23126L264.59375 343.23126L264.59375 344.04376L263.53125 344.04376L263.53125 347.6844Q263.53125 348.1375 263.57812 348.2625Q263.64062 348.3875 263.76562 348.46564Q263.89062 348.54376 264.125 348.54376Q264.3125 348.54376 264.59375 348.5125ZM265.29688 342.075L265.29688 340.85626L266.35938 340.85626L266.35938 342.075L265.29688 342.075ZM265.29688 349.45L265.29688 343.23126L266.35938 343.23126L266.35938 349.45L265.29688 349.45ZM268.29688 349.45L268.29688 343.23126L269.23438 343.23126L269.23438 344.10626Q269.53125 343.6375 270.01562 343.3719Q270.5 343.09064 271.125 343.09064Q271.8125 343.09064 272.25 343.3719Q272.70312 343.65314 272.875 344.16876Q273.625 343.09064 274.79688 343.09064Q275.73438 343.09064 276.21875 343.60626Q276.71875 344.10626 276.71875 345.1844L276.71875 349.45L275.67188 349.45L275.67188 345.52814Q275.67188 344.90314 275.5625 344.6219Q275.46875 344.34064 275.20312 344.16876Q274.9375 343.9969 274.5625 343.9969Q273.90625 343.9969 273.46875 344.4344Q273.04688 344.8719 273.04688 345.84064L273.04688 349.45L271.98438 349.45L271.98438 345.40314Q271.98438 344.7 271.71875 344.35626Q271.46875 343.9969 270.89062 343.9969Q270.4375 343.9969 270.0625 344.23126Q269.6875 344.46564 269.51562 344.91876Q269.34375 345.3719 269.34375 346.21564L269.34375 349.45L268.29688 349.45ZM283.54688 347.45L284.64062 347.575Q284.39062 348.52814 283.6875 349.0594Q282.98438 349.59064 281.90625 349.59064Q280.54688 349.59064 279.73438 348.7469Q278.9375 347.90314 278.9375 346.3875Q278.9375 344.825 279.75 343.96564Q280.5625 343.09064 281.84375 343.09064Q283.09375 343.09064 283.875 343.9344Q284.67188 344.77814 284.67188 346.325Q284.67188 346.41876 284.67188 346.60626L280.03125 346.60626Q280.09375 347.6375 280.60938 348.1844Q281.125 348.71564 281.90625 348.71564Q282.48438 348.71564 282.89062 348.41876Q283.3125 348.10626 283.54688 347.45ZM280.09375 345.7469L283.5625 345.7469Q283.5 344.95 283.17188 344.5594Q282.65625 343.95 281.85938 343.95Q281.125 343.95 280.625 344.4344Q280.14062 344.91876 280.09375 345.7469ZM293.54688 347.45L294.64062 347.575Q294.39062 348.52814 293.6875 349.0594Q292.98438 349.59064 291.90625 349.59064Q290.54688 349.59064 289.73438 348.7469Q288.9375 347.90314 288.9375 346.3875Q288.9375 344.825 289.75 343.96564Q290.5625 343.09064 291.84375 343.09064Q293.09375 343.09064 293.875 343.9344Q294.67188 344.77814 294.67188 346.325Q294.67188 346.41876 294.67188 346.60626L290.03125 346.60626Q290.09375 347.6375 290.60938 348.1844Q291.125 348.71564 291.90625 348.71564Q292.48438 348.71564 292.89062 348.41876Q293.3125 348.10626 293.54688 347.45ZM290.09375 345.7469L293.5625 345.7469Q293.5 344.95 293.17188 344.5594Q292.65625 343.95 291.85938 343.95Q291.125 343.95 290.625 344.4344Q290.14062 344.91876 290.09375 345.7469ZM296.26562 349.45L296.26562 340.85626L297.32812 340.85626L297.32812 349.45L296.26562 349.45ZM303.35938 348.6844Q302.76562 349.1844 302.21875 349.3875Q301.6875 349.59064 301.0625 349.59064Q300.03125 349.59064 299.48438 349.09064Q298.9375 348.59064 298.9375 347.8094Q298.9375 347.35626 299.14062 346.98126Q299.34375 346.59064 299.6875 346.3719Q300.03125 346.1375 300.45312 346.02814Q300.75 345.9344 301.39062 345.85626Q302.65625 345.71564 303.26562 345.4969Q303.26562 345.27814 303.26562 345.23126Q303.26562 344.575 302.96875 344.3094Q302.5625 343.96564 301.76562 343.96564Q301.03125 343.96564 300.67188 344.23126Q300.3125 344.48126 300.14062 345.1375L299.10938 344.9969Q299.25 344.34064 299.57812 343.9344Q299.90625 343.52814 300.51562 343.3094Q301.125 343.09064 301.92188 343.09064Q302.71875 343.09064 303.21875 343.27814Q303.71875 343.46564 303.95312 343.7469Q304.1875 344.02814 304.28125 344.46564Q304.32812 344.73126 304.32812 345.4344L304.32812 346.84064Q304.32812 348.3094 304.39062 348.7Q304.46875 349.09064 304.67188 349.45L303.5625 349.45Q303.40625 349.1219 303.35938 348.6844ZM303.26562 346.325Q302.6875 346.5594 301.54688 346.73126Q300.89062 346.825 300.625 346.95Q300.35938 347.0594 300.20312 347.27814Q300.0625 347.4969 300.0625 347.77814Q300.0625 348.2 300.375 348.48126Q300.70312 348.7625 301.3125 348.7625Q301.92188 348.7625 302.39062 348.4969Q302.875 348.23126 303.09375 347.7625Q303.26562 347.40314 303.26562 346.71564L303.26562 346.325ZM306.29688 351.84064L306.29688 343.23126L307.25 343.23126L307.25 344.02814Q307.59375 343.5594 308.01562 343.325Q308.45312 343.09064 309.0625 343.09064Q309.85938 343.09064 310.46875 343.4969Q311.07812 343.90314 311.375 344.65314Q311.6875 345.40314 311.6875 346.29376Q311.6875 347.2469 311.34375 348.0125Q311.01562 348.77814 310.35938 349.1844Q309.70312 349.59064 308.98438 349.59064Q308.45312 349.59064 308.03125 349.3719Q307.60938 349.1375 307.34375 348.8094L307.34375 351.84064L306.29688 351.84064ZM307.25 346.3719Q307.25 347.575 307.73438 348.15314Q308.21875 348.71564 308.90625 348.71564Q309.60938 348.71564 310.10938 348.1219Q310.60938 347.52814 310.60938 346.27814Q310.60938 345.09064 310.125 344.5125Q309.64062 343.91876 308.95312 343.91876Q308.28125 343.91876 307.76562 344.54376Q307.25 345.16876 307.25 346.3719ZM312.875 347.59064L313.90625 347.4344Q314.0 348.0594 314.39062 348.3875Q314.79688 348.71564 315.53125 348.71564Q316.25 348.71564 316.59375 348.4344Q316.95312 348.1375 316.95312 347.73126Q316.95312 347.3719 316.64062 347.16876Q316.42188 347.02814 315.5625 346.8094Q314.40625 346.5125 313.95312 346.3094Q313.51562 346.09064 313.28125 345.71564Q313.04688 345.34064 313.04688 344.8719Q313.04688 344.46564 313.23438 344.10626Q313.42188 343.7469 313.75 343.5125Q314.0 343.34064 314.42188 343.21564Q314.84375 343.09064 315.34375 343.09064Q316.0625 343.09064 316.60938 343.3094Q317.17188 343.5125 317.4375 343.8719Q317.70312 344.23126 317.79688 344.825L316.76562 344.96564Q316.70312 344.4969 316.35938 344.23126Q316.03125 343.95 315.40625 343.95Q314.6875 343.95 314.375 344.2Q314.0625 344.4344 314.0625 344.7625Q314.0625 344.96564 314.1875 345.1219Q314.32812 345.29376 314.59375 345.40314Q314.75 345.46564 315.53125 345.66876Q316.65625 345.98126 317.09375 346.16876Q317.53125 346.35626 317.78125 346.71564Q318.03125 347.075 318.03125 347.6219Q318.03125 348.15314 317.71875 348.6219Q317.42188 349.075 316.84375 349.34064Q316.26562 349.59064 315.53125 349.59064Q314.3125 349.59064 313.67188 349.09064Q313.04688 348.575 312.875 347.59064ZM324.54688 347.45L325.64062 347.575Q325.39062 348.52814 324.6875 349.0594Q323.98438 349.59064 322.90625 349.59064Q321.54688 349.59064 320.73438 348.7469Q319.9375 347.90314 319.9375 346.3875Q319.9375 344.825 320.75 343.96564Q321.5625 343.09064 322.84375 343.09064Q324.09375 343.09064 324.875 343.9344Q325.67188 344.77814 325.67188 346.325Q325.67188 346.41876 325.67188 346.60626L321.03125 346.60626Q321.09375 347.6375 321.60938 348.1844Q322.125 348.71564 322.90625 348.71564Q323.48438 348.71564 323.89062 348.41876Q324.3125 348.10626 324.54688 347.45ZM321.09375 345.7469L324.5625 345.7469Q324.5 344.95 324.17188 344.5594Q323.65625 343.95 322.85938 343.95Q322.125 343.95 321.625 344.4344Q321.14062 344.91876 321.09375 345.7469ZM331.32812 349.45L331.32812 348.66876Q330.73438 349.59064 329.59375 349.59064Q328.84375 349.59064 328.21875 349.1844Q327.59375 348.7625 327.25 348.02814Q326.90625 347.29376 326.90625 346.34064Q326.90625 345.41876 327.21875 344.65314Q327.53125 343.8875 328.15625 343.4969Q328.78125 343.09064 329.54688 343.09064Q330.10938 343.09064 330.54688 343.325Q330.98438 343.5594 331.26562 343.9344L331.26562 340.85626L332.3125 340.85626L332.3125 349.45L331.32812 349.45ZM328.0 346.34064Q328.0 347.54376 328.5 348.1375Q329.0 348.71564 329.6875 348.71564Q330.375 348.71564 330.85938 348.15314Q331.34375 347.59064 331.34375 346.4344Q331.34375 345.15314 330.84375 344.5594Q330.35938 343.96564 329.64062 343.96564Q328.9375 343.96564 328.46875 344.54376Q328.0 345.10626 328.0 346.34064ZM337.29688 342.075L337.29688 340.85626L338.35938 340.85626L338.35938 342.075L337.29688 342.075ZM337.29688 349.45L337.29688 343.23126L338.35938 343.23126L338.35938 349.45L337.29688 349.45ZM340.29688 349.45L340.29688 343.23126L341.23438 343.23126L341.23438 344.10626Q341.92188 343.09064 343.21875 343.09064Q343.78125 343.09064 344.25 343.29376Q344.73438 343.4969 344.96875 343.825Q345.20312 344.15314 345.29688 344.59064Q345.34375 344.8875 345.34375 345.6219L345.34375 349.45L344.29688 349.45L344.29688 345.66876Q344.29688 345.0125 344.17188 344.7Q344.04688 344.3875 343.73438 344.2Q343.42188 343.9969 343.0 343.9969Q342.32812 343.9969 341.82812 344.4344Q341.34375 344.85626 341.34375 346.04376L341.34375 349.45L340.29688 349.45ZM349.875 347.59064L350.90625 347.4344Q351.0 348.0594 351.39062 348.3875Q351.79688 348.71564 352.53125 348.71564Q353.25 348.71564 353.59375 348.4344Q353.95312 348.1375 353.95312 347.73126Q353.95312 347.3719 353.64062 347.16876Q353.42188 347.02814 352.5625 346.8094Q351.40625 346.5125 350.95312 346.3094Q350.51562 346.09064 350.28125 345.71564Q350.04688 345.34064 350.04688 344.8719Q350.04688 344.46564 350.23438 344.10626Q350.42188 343.7469 350.75 343.5125Q351.0 343.34064 351.42188 343.21564Q351.84375 343.09064 352.34375 343.09064Q353.0625 343.09064 353.60938 343.3094Q354.17188 343.5125 354.4375 343.8719Q354.70312 344.23126 354.79688 344.825L353.76562 344.96564Q353.70312 344.4969 353.35938 344.23126Q353.03125 343.95 352.40625 343.95Q351.6875 343.95 351.375 344.2Q351.0625 344.4344 351.0625 344.7625Q351.0625 344.96564 351.1875 345.1219Q351.32812 345.29376 351.59375 345.40314Q351.75 345.46564 352.53125 345.66876Q353.65625 345.98126 354.09375 346.16876Q354.53125 346.35626 354.78125 346.71564Q355.03125 347.075 355.03125 347.6219Q355.03125 348.15314 354.71875 348.6219Q354.42188 349.075 353.84375 349.34064Q353.26562 349.59064 352.53125 349.59064Q351.3125 349.59064 350.67188 349.09064Q350.04688 348.575 349.875 347.59064ZM361.54688 347.45L362.64062 347.575Q362.39062 348.52814 361.6875 349.0594Q360.98438 349.59064 359.90625 349.59064Q358.54688 349.59064 357.73438 348.7469Q356.9375 347.90314 356.9375 346.3875Q356.9375 344.825 357.75 343.96564Q358.5625 343.09064 359.84375 343.09064Q361.09375 343.09064 361.875 343.9344Q362.67188 344.77814 362.67188 346.325Q362.67188 346.41876 362.67188 346.60626L358.03125 346.60626Q358.09375 347.6375 358.60938 348.1844Q359.125 348.71564 359.90625 348.71564Q360.48438 348.71564 360.89062 348.41876Q361.3125 348.10626 361.54688 347.45ZM358.09375 345.7469L361.5625 345.7469Q361.5 344.95 361.17188 344.5594Q360.65625 343.95 359.85938 343.95Q359.125 343.95 358.625 344.4344Q358.14062 344.91876 358.09375 345.7469ZM368.35938 347.16876L369.39062 347.3094Q369.21875 348.3719 368.51562 348.98126Q367.8125 349.59064 366.79688 349.59064Q365.51562 349.59064 364.73438 348.7625Q363.96875 347.91876 363.96875 346.35626Q363.96875 345.35626 364.29688 344.60626Q364.64062 343.84064 365.3125 343.46564Q366.0 343.09064 366.8125 343.09064Q367.8125 343.09064 368.45312 343.60626Q369.10938 344.10626 369.29688 345.0594L368.26562 345.21564Q368.125 344.59064 367.75 344.27814Q367.375 343.95 366.84375 343.95Q366.04688 343.95 365.54688 344.52814Q365.04688 345.09064 365.04688 346.325Q365.04688 347.59064 365.53125 348.15314Q366.01562 348.71564 366.78125 348.71564Q367.40625 348.71564 367.8125 348.34064Q368.23438 347.96564 368.35938 347.16876ZM369.90625 346.34064Q369.90625 344.60626 370.85938 343.77814Q371.65625 343.09064 372.8125 343.09064Q374.09375 343.09064 374.90625 343.9344Q375.73438 344.7625 375.73438 346.2469Q375.73438 347.45 375.375 348.1375Q375.01562 348.825 374.3125 349.21564Q373.625 349.59064 372.8125 349.59064Q371.51562 349.59064 370.70312 348.7625Q369.90625 347.91876 369.90625 346.34064ZM370.98438 346.34064Q370.98438 347.52814 371.5 348.1219Q372.03125 348.71564 372.8125 348.71564Q373.60938 348.71564 374.125 348.1219Q374.64062 347.52814 374.64062 346.3094Q374.64062 345.15314 374.10938 344.5594Q373.59375 343.96564 372.8125 343.96564Q372.03125 343.96564 371.5 344.5594Q370.98438 345.1375 370.98438 346.34064ZM377.29688 349.45L377.29688 343.23126L378.23438 343.23126L378.23438 344.10626Q378.92188 343.09064 380.21875 343.09064Q380.78125 343.09064 381.25 343.29376Q381.73438 343.4969 381.96875 343.825Q382.20312 344.15314 382.29688 344.59064Q382.34375 344.8875 382.34375 345.6219L382.34375 349.45L381.29688 349.45L381.29688 345.66876Q381.29688 345.0125 381.17188 344.7Q381.04688 344.3875 380.73438 344.2Q380.42188 343.9969 380.0 343.9969Q379.32812 343.9969 378.82812 344.4344Q378.34375 344.85626 378.34375 346.04376L378.34375 349.45L377.29688 349.45ZM388.32812 349.45L388.32812 348.66876Q387.73438 349.59064 386.59375 349.59064Q385.84375 349.59064 385.21875 349.1844Q384.59375 348.7625 384.25 348.02814Q383.90625 347.29376 383.90625 346.34064Q383.90625 345.41876 384.21875 344.65314Q384.53125 343.8875 385.15625 343.4969Q385.78125 343.09064 386.54688 343.09064Q387.10938 343.09064 387.54688 343.325Q387.98438 343.5594 388.26562 343.9344L388.26562 340.85626L389.3125 340.85626L389.3125 349.45L388.32812 349.45ZM385.0 346.34064Q385.0 347.54376 385.5 348.1375Q386.0 348.71564 386.6875 348.71564Q387.375 348.71564 387.85938 348.15314Q388.34375 347.59064 388.34375 346.4344Q388.34375 345.15314 387.84375 344.5594Q387.35938 343.96564 386.64062 343.96564Q385.9375 343.96564 385.46875 344.54376Q385.0 345.10626 385.0 346.34064ZM390.875 347.59064L391.90625 347.4344Q392.0 348.0594 392.39062 348.3875Q392.79688 348.71564 393.53125 348.71564Q394.25 348.71564 394.59375 348.4344Q394.95312 348.1375 394.95312 347.73126Q394.95312 347.3719 394.64062 347.16876Q394.42188 347.02814 393.5625 346.8094Q392.40625 346.5125 391.95312 346.3094Q391.51562 346.09064 391.28125 345.71564Q391.04688 345.34064 391.04688 344.8719Q391.04688 344.46564 391.23438 344.10626Q391.42188 343.7469 391.75 343.5125Q392.0 343.34064 392.42188 343.21564Q392.84375 343.09064 393.34375 343.09064Q394.0625 343.09064 394.60938 343.3094Q395.17188 343.5125 395.4375 343.8719Q395.70312 344.23126 395.79688 344.825L394.76562 344.96564Q394.70312 344.4969 394.35938 344.23126Q394.03125 343.95 393.40625 343.95Q392.6875 343.95 392.375 344.2Q392.0625 344.4344 392.0625 344.7625Q392.0625 344.96564 392.1875 345.1219Q392.32812 345.29376 392.59375 345.40314Q392.75 345.46564 393.53125 345.66876Q394.65625 345.98126 395.09375 346.16876Q395.53125 346.35626 395.78125 346.71564Q396.03125 347.075 396.03125 347.6219Q396.03125 348.15314 395.71875 348.6219Q395.42188 349.075 394.84375 349.34064Q394.26562 349.59064 393.53125 349.59064Q392.3125 349.59064 391.67188 349.09064Q391.04688 348.575 390.875 347.59064Z" fill-rule="nonzero"/><path fill="#000000" d="M29.550013 213.85104L23.331263 216.21042L23.331263 215.10104L27.050013 213.7573Q27.659388 213.55417 28.300013 213.36667Q27.815638 213.22604 27.128138 212.97604L23.331263 211.58542L23.331263 210.5073L29.550013 212.86667L29.550013 213.85104ZM26.534388 204.30417L26.831263 203.17917Q28.221888 203.53854 28.956263 204.46042Q29.690638 205.3823 29.690638 206.72604Q29.690638 208.11667 29.128138 208.99167Q28.565638 209.86667 27.503138 210.3198Q26.425013 210.77292 25.190638 210.77292Q23.846888 210.77292 22.846888 210.2573Q21.846888 209.74167 21.331263 208.80417Q20.815638 207.85104 20.815638 206.71042Q20.815638 205.42917 21.471888 204.55417Q22.128138 203.66354 23.315638 203.3198L23.581263 204.4448Q22.643763 204.74167 22.221888 205.3198Q21.784388 205.8823 21.784388 206.74167Q21.784388 207.72604 22.268763 208.39792Q22.737513 209.05417 23.534388 209.33542Q24.331263 209.60104 25.190638 209.60104Q26.284388 209.60104 27.096888 209.28854Q27.909388 208.96042 28.315638 208.28854Q28.721888 207.61667 28.721888 206.8198Q28.721888 205.86667 28.175013 205.21042Q27.628138 204.53854 26.534388 204.30417ZM29.550013 201.4448L20.956263 201.4448L20.956263 198.1948Q20.956263 197.35104 21.034388 196.89792Q21.143763 196.2573 21.440638 195.83542Q21.737513 195.39792 22.268763 195.14792Q22.800013 194.8823 23.440638 194.8823Q24.534388 194.8823 25.300013 195.58542Q26.050013 196.27292 26.050013 198.10104L26.050013 200.30417L29.550013 200.30417L29.550013 201.4448ZM25.050013 200.30417L25.050013 198.08542Q25.050013 196.97604 24.643763 196.52292Q24.221888 196.05417 23.471888 196.05417Q22.940638 196.05417 22.565638 196.33542Q22.175013 196.60104 22.050013 197.03854Q21.971888 197.33542 21.971888 198.10104L21.971888 200.30417L25.050013 200.30417ZM20.956263 187.80417L20.956263 186.66354L25.925013 186.66354Q27.221888 186.66354 27.987513 186.96042Q28.737513 187.2573 29.221888 188.02292Q29.690638 188.78854 29.690638 190.02292Q29.690638 191.22604 29.284388 192.0073Q28.862513 192.77292 28.081263 193.10104Q27.284388 193.42917 25.925013 193.42917L20.956263 193.42917L20.956263 192.28854L25.909388 192.28854Q27.034388 192.28854 27.565638 192.08542Q28.096888 191.86667 28.393763 191.36667Q28.675013 190.85104 28.675013 190.11667Q28.675013 188.86667 28.112513 188.33542Q27.534388 187.80417 25.909388 187.80417L20.956263 187.80417Z" fill-rule="nonzero"/><path fill="#000000" d="M55.05 300.21564Q55.05 298.6844 55.3625 297.7625Q55.675 296.825 56.284374 296.325Q56.909374 295.825 57.846874 295.825Q58.534374 295.825 59.05 296.10626Q59.58125 296.3875 59.925 296.91876Q60.26875 297.4344 60.45625 298.1844Q60.64375 298.9344 60.64375 300.21564Q60.64375 301.73126 60.33125 302.65314Q60.034374 303.575 59.409374 304.09064Q58.8 304.59064 57.846874 304.59064Q56.6125 304.59064 55.89375 303.7Q55.05 302.6375 55.05 300.21564ZM56.128124 300.21564Q56.128124 302.325 56.628124 303.02814Q57.128124 303.73126 57.846874 303.73126Q58.58125 303.73126 59.065624 303.02814Q59.565624 302.325 59.565624 300.21564Q59.565624 298.09064 59.065624 297.40314Q58.58125 296.7 57.83125 296.7Q57.1125 296.7 56.675 297.3094Q56.128124 298.09064 56.128124 300.21564ZM62.64375 304.45L62.64375 303.2469L63.846874 303.2469L63.846874 304.45L62.64375 304.45ZM65.05 300.21564Q65.05 298.6844 65.3625 297.7625Q65.675 296.825 66.28438 296.325Q66.90938 295.825 67.84688 295.825Q68.53438 295.825 69.05 296.10626Q69.58125 296.3875 69.925 296.91876Q70.26875 297.4344 70.45625 298.1844Q70.64375 298.9344 70.64375 300.21564Q70.64375 301.73126 70.33125 302.65314Q70.03438 303.575 69.40938 304.09064Q68.8 304.59064 67.84688 304.59064Q66.6125 304.59064 65.89375 303.7Q65.05 302.6375 65.05 300.21564ZM66.12813 300.21564Q66.12813 302.325 66.62813 303.02814Q67.12813 303.73126 67.84688 303.73126Q68.58125 303.73126 69.06563 303.02814Q69.56563 302.325 69.56563 300.21564Q69.56563 298.09064 69.06563 297.40314Q68.58125 296.7 67.83125 296.7Q67.1125 296.7 66.675 297.3094Q66.12813 298.09064 66.12813 300.21564Z" fill-rule="nonzero"/><path fill="#000000" d="M55.05 247.17397Q55.05 245.64272 55.3625 244.72084Q55.675 243.78334 56.284374 243.28334Q56.909374 242.78334 57.846874 242.78334Q58.534374 242.78334 59.05 243.06459Q59.58125 243.34584 59.925 243.87709Q60.26875 244.39272 60.45625 245.14272Q60.64375 245.89272 60.64375 247.17397Q60.64375 248.68959 60.33125 249.61147Q60.034374 250.53334 59.409374 251.04897Q58.8 251.54897 57.846874 251.54897Q56.6125 251.54897 55.89375 250.65834Q55.05 249.59584 55.05 247.17397ZM56.128124 247.17397Q56.128124 249.28334 56.628124 249.98647Q57.128124 250.68959 57.846874 250.68959Q58.58125 250.68959 59.065624 249.98647Q59.565624 249.28334 59.565624 247.17397Q59.565624 245.04897 59.065624 244.36147Q58.58125 243.65834 57.83125 243.65834Q57.1125 243.65834 56.675 244.26772Q56.128124 245.04897 56.128124 247.17397ZM62.64375 251.40834L62.64375 250.20522L63.846874 250.20522L63.846874 251.40834L62.64375 251.40834ZM70.59688 250.39272L70.59688 251.40834L64.90938 251.40834Q64.90938 251.03334 65.03438 250.67397Q65.25313 250.09584 65.72188 249.53334Q66.20625 248.97084 67.1125 248.23647Q68.51875 247.08022 69.00313 246.40834Q69.50313 245.73647 69.50313 245.14272Q69.50313 244.51772 69.05 244.09584Q68.59688 243.65834 67.87813 243.65834Q67.1125 243.65834 66.65938 244.11147Q66.20625 244.56459 66.19063 245.37709L65.1125 245.26772Q65.22188 244.04897 65.94063 243.42397Q66.675 242.78334 67.90938 242.78334Q69.14375 242.78334 69.8625 243.47084Q70.58125 244.15834 70.58125 245.17397Q70.58125 245.68959 70.3625 246.18959Q70.15938 246.67397 69.65938 247.23647Q69.175 247.78334 68.05 248.73647Q67.09688 249.53334 66.81563 249.83022Q66.55 250.11147 66.37813 250.39272L70.59688 250.39272Z" fill-rule="nonzero"/><path fill="#000000" d="M55.05 194.1323Q55.05 192.60104 55.3625 191.67917Q55.675 190.74167 56.284374 190.24167Q56.909374 189.74167 57.846874 189.74167Q58.534374 189.74167 59.05 190.02292Q59.58125 190.30417 59.925 190.83542Q60.26875 191.35104 60.45625 192.10104Q60.64375 192.85104 60.64375 194.1323Q60.64375 195.64792 60.33125 196.5698Q60.034374 197.49167 59.409374 198.0073Q58.8 198.5073 57.846874 198.5073Q56.6125 198.5073 55.89375 197.61667Q55.05 196.55417 55.05 194.1323ZM56.128124 194.1323Q56.128124 196.24167 56.628124 196.9448Q57.128124 197.64792 57.846874 197.64792Q58.58125 197.64792 59.065624 196.9448Q59.565624 196.24167 59.565624 194.1323Q59.565624 192.0073 59.065624 191.3198Q58.58125 190.61667 57.83125 190.61667Q57.1125 190.61667 56.675 191.22604Q56.128124 192.0073 56.128124 194.1323ZM62.64375 198.36667L62.64375 197.16354L63.846874 197.16354L63.846874 198.36667L62.64375 198.36667ZM68.425 198.36667L68.425 196.30417L64.70625 196.30417L64.70625 195.33542L68.62813 189.77292L69.4875 189.77292L69.4875 195.33542L70.64375 195.33542L70.64375 196.30417L69.4875 196.30417L69.4875 198.36667L68.425 198.36667ZM68.425 195.33542L68.425 191.47604L65.7375 195.33542L68.425 195.33542Z" fill-rule="nonzero"/><path fill="#000000" d="M55.05 141.09062Q55.05 139.55937 55.3625 138.6375Q55.675 137.7 56.284374 137.2Q56.909374 136.7 57.846874 136.7Q58.534374 136.7 59.05 136.98125Q59.58125 137.2625 59.925 137.79375Q60.26875 138.30937 60.45625 139.05937Q60.64375 139.80937 60.64375 141.09062Q60.64375 142.60625 60.33125 143.52812Q60.034374 144.45 59.409374 144.96562Q58.8 145.46562 57.846874 145.46562Q56.6125 145.46562 55.89375 144.575Q55.05 143.5125 55.05 141.09062ZM56.128124 141.09062Q56.128124 143.2 56.628124 143.90312Q57.128124 144.60625 57.846874 144.60625Q58.58125 144.60625 59.065624 143.90312Q59.565624 143.2 59.565624 141.09062Q59.565624 138.96562 59.065624 138.27812Q58.58125 137.575 57.83125 137.575Q57.1125 137.575 56.675 138.18437Q56.128124 138.96562 56.128124 141.09062ZM62.64375 145.325L62.64375 144.12187L63.846874 144.12187L63.846874 145.325L62.64375 145.325ZM70.51875 138.84062L69.47188 138.91875Q69.33125 138.29375 69.08125 138.0125Q68.64375 137.55937 68.01875 137.55937Q67.51875 137.55937 67.12813 137.84062Q66.64375 138.21562 66.34688 138.91875Q66.06563 139.60625 66.05 140.8875Q66.425 140.30937 66.97188 140.02812Q67.53438 139.74687 68.14375 139.74687Q69.19063 139.74687 69.925 140.52812Q70.675 141.30937 70.675 142.52812Q70.675 143.34062 70.31563 144.04375Q69.97188 144.73125 69.3625 145.10625Q68.75313 145.46562 67.9875 145.46562Q66.65938 145.46562 65.83125 144.49687Q65.00313 143.52812 65.00313 141.30937Q65.00313 138.80937 65.925 137.68437Q66.72188 136.7 68.08125 136.7Q69.09688 136.7 69.7375 137.27812Q70.39375 137.84062 70.51875 138.84062ZM66.22188 142.54375Q66.22188 143.09062 66.44063 143.59062Q66.675 144.075 67.08125 144.34062Q67.50313 144.60625 67.97188 144.60625Q68.62813 144.60625 69.1125 144.075Q69.59688 143.52812 69.59688 142.60625Q69.59688 141.71562 69.1125 141.2Q68.64375 140.68437 67.925 140.68437Q67.20625 140.68437 66.70625 141.2Q66.22188 141.71562 66.22188 142.54375Z" fill-rule="nonzero"/><path fill="#000000" d="M55.05 88.04896Q55.05 86.51771 55.3625 85.59583Q55.675 84.65833 56.284374 84.15833Q56.909374 83.65833 57.846874 83.65833Q58.534374 83.65833 59.05 83.93958Q59.58125 84.22083 59.925 84.75208Q60.26875 85.26771 60.45625 86.01771Q60.64375 86.76771 60.64375 88.04896Q60.64375 89.56458 60.33125 90.48646Q60.034374 91.40833 59.409374 91.92396Q58.8 92.42396 57.846874 92.42396Q56.6125 92.42396 55.89375 91.53333Q55.05 90.47083 55.05 88.04896ZM56.128124 88.04896Q56.128124 90.15833 56.628124 90.86146Q57.128124 91.56458 57.846874 91.56458Q58.58125 91.56458 59.065624 90.86146Q59.565624 90.15833 59.565624 88.04896Q59.565624 85.92396 59.065624 85.23646Q58.58125 84.53333 57.83125 84.53333Q57.1125 84.53333 56.675 85.14271Q56.128124 85.92396 56.128124 88.04896ZM62.64375 92.28333L62.64375 91.08021L63.846874 91.08021L63.846874 92.28333L62.64375 92.28333ZM66.675 87.62708Q66.01875 87.37708 65.69063 86.93958Q65.37813 86.48646 65.37813 85.87708Q65.37813 84.93958 66.05 84.29896Q66.7375 83.65833 67.84688 83.65833Q68.97188 83.65833 69.65938 84.31458Q70.34688 84.97083 70.34688 85.90833Q70.34688 86.50208 70.03438 86.93958Q69.72188 87.37708 69.08125 87.62708Q69.87813 87.87708 70.28438 88.45521Q70.69063 89.03333 70.69063 89.83021Q70.69063 90.92396 69.90938 91.67396Q69.14375 92.42396 67.8625 92.42396Q66.59688 92.42396 65.81563 91.67396Q65.03438 90.92396 65.03438 89.79896Q65.03438 88.95521 65.45625 88.39271Q65.89375 87.83021 66.675 87.62708ZM66.45625 85.83021Q66.45625 86.43958 66.84688 86.83021Q67.25313 87.22083 67.87813 87.22083Q68.4875 87.22083 68.87813 86.84583Q69.26875 86.45521 69.26875 85.89271Q69.26875 85.31458 68.8625 84.92396Q68.45625 84.51771 67.8625 84.51771Q67.25313 84.51771 66.84688 84.90833Q66.45625 85.29896 66.45625 85.83021ZM66.12813 89.79896Q66.12813 90.25208 66.33125 90.67396Q66.55 91.09583 66.97188 91.33021Q67.39375 91.56458 67.87813 91.56458Q68.62813 91.56458 69.1125 91.08021Q69.6125 90.59583 69.6125 89.84583Q69.6125 89.08021 69.1125 88.58021Q68.6125 88.08021 67.84688 88.08021Q67.09688 88.08021 66.6125 88.58021Q66.12813 89.06458 66.12813 89.79896Z" fill-rule="nonzero"/><path fill="#000000" d="M74.55 313.21564Q74.55 311.6844 74.8625 310.7625Q75.175 309.825 75.78438 309.325Q76.40938 308.825 77.34688 308.825Q78.03438 308.825 78.55 309.10626Q79.08125 309.3875 79.425 309.91876Q79.76875 310.4344 79.95625 311.1844Q80.14375 311.9344 80.14375 313.21564Q80.14375 314.73126 79.83125 315.65314Q79.53438 316.575 78.90938 317.09064Q78.3 317.59064 77.34688 317.59064Q76.1125 317.59064 75.39375 316.7Q74.55 315.6375 74.55 313.21564ZM75.62813 313.21564Q75.62813 315.325 76.12813 316.02814Q76.62813 316.73126 77.34688 316.73126Q78.08125 316.73126 78.56563 316.02814Q79.06563 315.325 79.06563 313.21564Q79.06563 311.09064 78.56563 310.40314Q78.08125 309.7 77.33125 309.7Q76.6125 309.7 76.175 310.3094Q75.62813 311.09064 75.62813 313.21564Z" fill-rule="nonzero"/><path fill="#000000" d="M191.49493 317.45L190.44806 317.45L190.44806 310.73126Q190.05743 311.09064 189.43243 311.46564Q188.82306 311.825 188.33868 311.9969L188.33868 310.98126Q189.21368 310.5594 189.86993 309.98126Q190.54181 309.3875 190.82306 308.825L191.49493 308.825L191.49493 317.45ZM194.52618 313.21564Q194.52618 311.6844 194.83868 310.7625Q195.15118 309.825 195.76056 309.325Q196.38556 308.825 197.32306 308.825Q198.01056 308.825 198.52618 309.10626Q199.05743 309.3875 199.40118 309.91876Q199.74493 310.4344 199.93243 311.1844Q200.11993 311.9344 200.11993 313.21564Q200.11993 314.73126 199.80743 315.65314Q199.51056 316.575 198.88556 317.09064Q198.27618 317.59064 197.32306 317.59064Q196.08868 317.59064 195.36993 316.7Q194.52618 315.6375 194.52618 313.21564ZM195.60431 313.21564Q195.60431 315.325 196.10431 316.02814Q196.60431 316.73126 197.32306 316.73126Q198.05743 316.73126 198.54181 316.02814Q199.04181 315.325 199.04181 313.21564Q199.04181 311.09064 198.54181 310.40314Q198.05743 309.7 197.30743 309.7Q196.58868 309.7 196.15118 310.3094Q195.60431 311.09064 195.60431 313.21564ZM201.52618 313.21564Q201.52618 311.6844 201.83868 310.7625Q202.15118 309.825 202.76056 309.325Q203.38556 308.825 204.32306 308.825Q205.01056 308.825 205.52618 309.10626Q206.05743 309.3875 206.40118 309.91876Q206.74493 310.4344 206.93243 311.1844Q207.11993 311.9344 207.11993 313.21564Q207.11993 314.73126 206.80743 315.65314Q206.51056 316.575 205.88556 317.09064Q205.27618 317.59064 204.32306 317.59064Q203.08868 317.59064 202.36993 316.7Q201.52618 315.6375 201.52618 313.21564ZM202.60431 313.21564Q202.60431 315.325 203.10431 316.02814Q203.60431 316.73126 204.32306 316.73126Q205.05743 316.73126 205.54181 316.02814Q206.04181 315.325 206.04181 313.21564Q206.04181 311.09064 205.54181 310.40314Q205.05743 309.7 204.30743 309.7Q203.58868 309.7 203.15118 310.3094Q202.60431 311.09064 202.60431 313.21564Z" fill-rule="nonzero"/><path fill="#000000" d="M313.04926 316.4344L313.04926 317.45L307.36176 317.45Q307.36176 317.075 307.48676 316.71564Q307.7055 316.1375 308.17426 315.575Q308.65863 315.0125 309.56488 314.27814Q310.97113 313.1219 311.4555 312.45Q311.9555 311.77814 311.9555 311.1844Q311.9555 310.5594 311.50238 310.1375Q311.04926 309.7 310.3305 309.7Q309.56488 309.7 309.11176 310.15314Q308.65863 310.60626 308.643 311.41876L307.56488 311.3094Q307.67426 310.09064 308.393 309.46564Q309.12738 308.825 310.36176 308.825Q311.59613 308.825 312.31488 309.5125Q313.03363 310.2 313.03363 311.21564Q313.03363 311.73126 312.81488 312.23126Q312.61176 312.71564 312.11176 313.27814Q311.62738 313.825 310.50238 314.77814Q309.54926 315.575 309.268 315.8719Q309.00238 316.15314 308.8305 316.4344L313.04926 316.4344ZM314.50238 313.21564Q314.50238 311.6844 314.81488 310.7625Q315.12738 309.825 315.73676 309.325Q316.36176 308.825 317.29926 308.825Q317.98676 308.825 318.50238 309.10626Q319.03363 309.3875 319.37738 309.91876Q319.72113 310.4344 319.90863 311.1844Q320.09613 311.9344 320.09613 313.21564Q320.09613 314.73126 319.78363 315.65314Q319.48676 316.575 318.86176 317.09064Q318.25238 317.59064 317.29926 317.59064Q316.06488 317.59064 315.34613 316.7Q314.50238 315.6375 314.50238 313.21564ZM315.5805 313.21564Q315.5805 315.325 316.0805 316.02814Q316.5805 316.73126 317.29926 316.73126Q318.03363 316.73126 318.518 316.02814Q319.018 315.325 319.018 313.21564Q319.018 311.09064 318.518 310.40314Q318.03363 309.7 317.28363 309.7Q316.56488 309.7 316.12738 310.3094Q315.5805 311.09064 315.5805 313.21564ZM321.50238 313.21564Q321.50238 311.6844 321.81488 310.7625Q322.12738 309.825 322.73676 309.325Q323.36176 308.825 324.29926 308.825Q324.98676 308.825 325.50238 309.10626Q326.03363 309.3875 326.37738 309.91876Q326.72113 310.4344 326.90863 311.1844Q327.09613 311.9344 327.09613 313.21564Q327.09613 314.73126 326.78363 315.65314Q326.48676 316.575 325.86176 317.09064Q325.25238 317.59064 324.29926 317.59064Q323.06488 317.59064 322.34613 316.7Q321.50238 315.6375 321.50238 313.21564ZM322.5805 313.21564Q322.5805 315.325 323.0805 316.02814Q323.5805 316.73126 324.29926 316.73126Q325.03363 316.73126 325.518 316.02814Q326.018 315.325 326.018 313.21564Q326.018 311.09064 325.518 310.40314Q325.03363 309.7 324.28363 309.7Q323.56488 309.7 323.12738 310.3094Q322.5805 311.09064 322.5805 313.21564Z" fill-rule="nonzero"/><path fill="#000000" d="M427.47858 315.1844L428.54108 315.04376Q428.71295 315.9344 429.15045 316.34064Q429.58795 316.73126 430.21295 316.73126Q430.96295 316.73126 431.47858 316.21564Q431.9942 315.7 431.9942 314.9344Q431.9942 314.21564 431.50983 313.7469Q431.04108 313.2625 430.3067 313.2625Q430.00983 313.2625 429.5567 313.3875L429.6817 312.45Q429.79108 312.46564 429.85358 312.46564Q430.52545 312.46564 431.0567 312.1219Q431.60358 311.7625 431.60358 311.02814Q431.60358 310.45 431.21295 310.075Q430.82233 309.6844 430.19733 309.6844Q429.58795 309.6844 429.16608 310.075Q428.75983 310.46564 428.65045 311.23126L427.58795 311.04376Q427.77545 309.9969 428.46295 309.41876Q429.15045 308.825 430.16608 308.825Q430.8692 308.825 431.46295 309.1375Q432.0567 309.4344 432.3692 309.95Q432.6817 310.46564 432.6817 311.0594Q432.6817 311.60626 432.38483 312.075Q432.08795 312.52814 431.50983 312.79376Q432.25983 312.96564 432.6817 313.52814Q433.10358 314.075 433.10358 314.91876Q433.10358 316.04376 432.27545 316.825Q431.46295 317.60626 430.21295 317.60626Q429.08795 317.60626 428.33795 316.9344Q427.58795 316.2469 427.47858 315.1844ZM434.47858 313.21564Q434.47858 311.6844 434.79108 310.7625Q435.10358 309.825 435.71295 309.325Q436.33795 308.825 437.27545 308.825Q437.96295 308.825 438.47858 309.10626Q439.00983 309.3875 439.35358 309.91876Q439.69733 310.4344 439.88483 311.1844Q440.07233 311.9344 440.07233 313.21564Q440.07233 314.73126 439.75983 315.65314Q439.46295 316.575 438.83795 317.09064Q438.22858 317.59064 437.27545 317.59064Q436.04108 317.59064 435.32233 316.7Q434.47858 315.6375 434.47858 313.21564ZM435.5567 313.21564Q435.5567 315.325 436.0567 316.02814Q436.5567 316.73126 437.27545 316.73126Q438.00983 316.73126 438.4942 316.02814Q438.9942 315.325 438.9942 313.21564Q438.9942 311.09064 438.4942 310.40314Q438.00983 309.7 437.25983 309.7Q436.54108 309.7 436.10358 310.3094Q435.5567 311.09064 435.5567 313.21564ZM441.47858 313.21564Q441.47858 311.6844 441.79108 310.7625Q442.10358 309.825 442.71295 309.325Q443.33795 308.825 444.27545 308.825Q444.96295 308.825 445.47858 309.10626Q446.00983 309.3875 446.35358 309.91876Q446.69733 310.4344 446.88483 311.1844Q447.07233 311.9344 447.07233 313.21564Q447.07233 314.73126 446.75983 315.65314Q446.46295 316.575 445.83795 317.09064Q445.22858 317.59064 444.27545 317.59064Q443.04108 317.59064 442.32233 316.7Q441.47858 315.6375 441.47858 313.21564ZM442.5567 313.21564Q442.5567 315.325 443.0567 316.02814Q443.5567 316.73126 444.27545 316.73126Q445.00983 316.73126 445.4942 316.02814Q445.9942 315.325 445.9942 313.21564Q445.9942 311.09064 445.4942 310.40314Q445.00983 309.7 444.25983 309.7Q443.54108 309.7 443.10358 310.3094Q442.5567 311.09064 442.5567 313.21564Z" fill-rule="nonzero"/><path fill="#000000" d="M550.8298 317.45L550.8298 315.3875L547.111 315.3875L547.111 314.41876L551.0329 308.85626L551.8923 308.85626L551.8923 314.41876L553.0485 314.41876L553.0485 315.3875L551.8923 315.3875L551.8923 317.45L550.8298 317.45ZM550.8298 314.41876L550.8298 310.5594L548.1423 314.41876L550.8298 314.41876ZM554.4548 313.21564Q554.4548 311.6844 554.7673 310.7625Q555.0798 309.825 555.68915 309.325Q556.31415 308.825 557.25165 308.825Q557.93915 308.825 558.4548 309.10626Q558.986 309.3875 559.3298 309.91876Q559.6735 310.4344 559.861 311.1844Q560.0485 311.9344 560.0485 313.21564Q560.0485 314.73126 559.736 315.65314Q559.43915 316.575 558.81415 317.09064Q558.2048 317.59064 557.25165 317.59064Q556.0173 317.59064 555.2985 316.7Q554.4548 315.6375 554.4548 313.21564ZM555.5329 313.21564Q555.5329 315.325 556.0329 316.02814Q556.5329 316.73126 557.25165 316.73126Q557.986 316.73126 558.4704 316.02814Q558.9704 315.325 558.9704 313.21564Q558.9704 311.09064 558.4704 310.40314Q557.986 309.7 557.236 309.7Q556.5173 309.7 556.0798 310.3094Q555.5329 311.09064 555.5329 313.21564ZM561.4548 313.21564Q561.4548 311.6844 561.7673 310.7625Q562.0798 309.825 562.68915 309.325Q563.31415 308.825 564.25165 308.825Q564.93915 308.825 565.4548 309.10626Q565.986 309.3875 566.3298 309.91876Q566.6735 310.4344 566.861 311.1844Q567.0485 311.9344 567.0485 313.21564Q567.0485 314.73126 566.736 315.65314Q566.43915 316.575 565.81415 317.09064Q565.2048 317.59064 564.25165 317.59064Q563.0173 317.59064 562.2985 316.7Q561.4548 315.6375 561.4548 313.21564ZM562.5329 313.21564Q562.5329 315.325 563.0329 316.02814Q563.5329 316.73126 564.25165 316.73126Q564.986 316.73126 565.4704 316.02814Q565.9704 315.325 565.9704 313.21564Q565.9704 311.09064 565.4704 310.40314Q564.986 309.7 564.236 309.7Q563.5173 309.7 563.0798 310.3094Q562.5329 311.09064 562.5329 313.21564Z" fill-rule="nonzero"/><path stroke="#4285f4" stroke-width="4.0" stroke-linecap="butt" d="M168.5 61.916668L180.5 61.916668" fill-rule="nonzero"/><path fill="#1a1a1a" d="M189.29688 65.916664L189.29688 57.322914L190.35938 57.322914L190.35938 62.229164L192.84375 59.697914L194.21875 59.697914L191.82812 61.99479L194.45312 65.916664L193.15625 65.916664L191.09375 62.729164L190.35938 63.447914L190.35938 65.916664L189.29688 65.916664ZM195.0 63.65104L196.0625 63.510414Q196.23438 64.40104 196.67188 64.80729Q197.10938 65.197914 197.73438 65.197914Q198.48438 65.197914 199.0 64.68229Q199.51562 64.166664 199.51562 63.40104Q199.51562 62.68229 199.03125 62.21354Q198.5625 61.729164 197.82812 61.729164Q197.53125 61.729164 197.07812 61.854164L197.20312 60.916664Q197.3125 60.93229 197.375 60.93229Q198.04688 60.93229 198.57812 60.58854Q199.125 60.229164 199.125 59.49479Q199.125 58.916664 198.73438 58.541664Q198.34375 58.15104 197.71875 58.15104Q197.10938 58.15104 196.6875 58.541664Q196.28125 58.93229 196.17188 59.697914L195.10938 59.510414Q195.29688 58.46354 195.98438 57.885414Q196.67188 57.291664 197.6875 57.291664Q198.39062 57.291664 198.98438 57.604164Q199.57812 57.90104 199.89062 58.416664Q200.20312 58.93229 200.20312 59.52604Q200.20312 60.072914 199.90625 60.541664Q199.60938 60.99479 199.03125 61.260414Q199.78125 61.43229 200.20312 61.99479Q200.625 62.541664 200.625 63.385414Q200.625 64.510414 199.79688 65.291664Q198.98438 66.072914 197.73438 66.072914Q196.60938 66.072914 195.85938 65.40104Q195.10938 64.71354 195.0 63.65104ZM201.875 64.05729L202.90625 63.90104Q203.0 64.52604 203.39062 64.854164Q203.79688 65.18229 204.53125 65.18229Q205.25 65.18229 205.59375 64.90104Q205.95312 64.604164 205.95312 64.197914Q205.95312 63.83854 205.64062 63.635414Q205.42188 63.49479 204.5625 63.27604Q203.40625 62.979164 202.95312 62.77604Q202.51562 62.55729 202.28125 62.18229Q202.04688 61.80729 202.04688 61.33854Q202.04688 60.93229 202.23438 60.572914Q202.42188 60.21354 202.75 59.979164Q203.0 59.80729 203.42188 59.68229Q203.84375 59.55729 204.34375 59.55729Q205.0625 59.55729 205.60938 59.77604Q206.17188 59.979164 206.4375 60.33854Q206.70312 60.697914 206.79688 61.291664L205.76562 61.43229Q205.70312 60.96354 205.35938 60.697914Q205.03125 60.416664 204.40625 60.416664Q203.6875 60.416664 203.375 60.666664Q203.0625 60.90104 203.0625 61.229164Q203.0625 61.43229 203.1875 61.58854Q203.32812 61.760414 203.59375 61.86979Q203.75 61.93229 204.53125 62.135414Q205.65625 62.447914 206.09375 62.635414Q206.53125 62.822914 206.78125 63.18229Q207.03125 63.541664 207.03125 64.08854Q207.03125 64.61979 206.71875 65.08854Q206.42188 65.541664 205.84375 65.80729Q205.26562 66.05729 204.53125 66.05729Q203.3125 66.05729 202.67188 65.55729Q202.04688 65.041664 201.875 64.05729ZM212.29688 68.30729L212.29688 59.697914L213.25 59.697914L213.25 60.49479Q213.59375 60.02604 214.01562 59.791664Q214.45312 59.55729 215.0625 59.55729Q215.85938 59.55729 216.46875 59.96354Q217.07812 60.36979 217.375 61.11979Q217.6875 61.86979 217.6875 62.760414Q217.6875 63.71354 217.34375 64.479164Q217.01562 65.24479 216.35938 65.65104Q215.70312 66.05729 214.98438 66.05729Q214.45312 66.05729 214.03125 65.83854Q213.60938 65.604164 213.34375 65.27604L213.34375 68.30729L212.29688 68.30729ZM213.25 62.83854Q213.25 64.041664 213.73438 64.61979Q214.21875 65.18229 214.90625 65.18229Q215.60938 65.18229 216.10938 64.58854Q216.60938 63.99479 216.60938 62.74479Q216.60938 61.55729 216.125 60.979164Q215.64062 60.385414 214.95312 60.385414Q214.28125 60.385414 213.76562 61.010414Q213.25 61.635414 213.25 62.83854ZM219.28125 65.916664L219.28125 59.697914L220.23438 59.697914L220.23438 60.635414Q220.59375 59.979164 220.89062 59.77604Q221.20312 59.55729 221.57812 59.55729Q222.10938 59.55729 222.65625 59.885414L222.29688 60.86979Q221.90625 60.635414 221.53125 60.635414Q221.17188 60.635414 220.89062 60.854164Q220.625 61.05729 220.51562 61.43229Q220.32812 61.99479 220.32812 62.65104L220.32812 65.916664L219.28125 65.916664ZM222.90625 62.80729Q222.90625 61.072914 223.85938 60.24479Q224.65625 59.55729 225.8125 59.55729Q227.09375 59.55729 227.90625 60.40104Q228.73438 61.229164 228.73438 62.71354Q228.73438 63.916664 228.375 64.604164Q228.01562 65.291664 227.3125 65.68229Q226.625 66.05729 225.8125 66.05729Q224.51562 66.05729 223.70312 65.229164Q222.90625 64.385414 222.90625 62.80729ZM223.98438 62.80729Q223.98438 63.99479 224.5 64.58854Q225.03125 65.18229 225.8125 65.18229Q226.60938 65.18229 227.125 64.58854Q227.64062 63.99479 227.64062 62.77604Q227.64062 61.61979 227.10938 61.02604Q226.59375 60.43229 225.8125 60.43229Q225.03125 60.43229 224.5 61.02604Q223.98438 61.604164 223.98438 62.80729ZM236.96875 65.916664L235.92188 65.916664L235.92188 59.197914Q235.53125 59.55729 234.90625 59.93229Q234.29688 60.291664 233.8125 60.46354L233.8125 59.447914Q234.6875 59.02604 235.34375 58.447914Q236.01562 57.854164 236.29688 57.291664L236.96875 57.291664L236.96875 65.916664Z" fill-rule="nonzero"/><path stroke="#ea4335" stroke-width="4.0" stroke-linecap="butt" d="M255.5 61.916668L267.5 61.916668" fill-rule="nonzero"/><path fill="#1a1a1a" d="M276.29688 65.916664L276.29688 57.322914L277.35938 57.322914L277.35938 62.229164L279.84375 59.697914L281.21875 59.697914L278.82812 61.99479L281.45312 65.916664L280.15625 65.916664L278.09375 62.729164L277.35938 63.447914L277.35938 65.916664L276.29688 65.916664ZM282.0 63.65104L283.0625 63.510414Q283.23438 64.40104 283.67188 64.80729Q284.10938 65.197914 284.73438 65.197914Q285.48438 65.197914 286.0 64.68229Q286.51562 64.166664 286.51562 63.40104Q286.51562 62.68229 286.03125 62.21354Q285.5625 61.729164 284.82812 61.729164Q284.53125 61.729164 284.07812 61.854164L284.20312 60.916664Q284.3125 60.93229 284.375 60.93229Q285.04688 60.93229 285.57812 60.58854Q286.125 60.229164 286.125 59.49479Q286.125 58.916664 285.73438 58.541664Q285.34375 58.15104 284.71875 58.15104Q284.10938 58.15104 283.6875 58.541664Q283.28125 58.93229 283.17188 59.697914L282.10938 59.510414Q282.29688 58.46354 282.98438 57.885414Q283.67188 57.291664 284.6875 57.291664Q285.39062 57.291664 285.98438 57.604164Q286.57812 57.90104 286.89062 58.416664Q287.20312 58.93229 287.20312 59.52604Q287.20312 60.072914 286.90625 60.541664Q286.60938 60.99479 286.03125 61.260414Q286.78125 61.43229 287.20312 61.99479Q287.625 62.541664 287.625 63.385414Q287.625 64.510414 286.79688 65.291664Q285.98438 66.072914 284.73438 66.072914Q283.60938 66.072914 282.85938 65.40104Q282.10938 64.71354 282.0 63.65104ZM288.875 64.05729L289.90625 63.90104Q290.0 64.52604 290.39062 64.854164Q290.79688 65.18229 291.53125 65.18229Q292.25 65.18229 292.59375 64.90104Q292.95312 64.604164 292.95312 64.197914Q292.95312 63.83854 292.64062 63.635414Q292.42188 63.49479 291.5625 63.27604Q290.40625 62.979164 289.95312 62.77604Q289.51562 62.55729 289.28125 62.18229Q289.04688 61.80729 289.04688 61.33854Q289.04688 60.93229 289.23438 60.572914Q289.42188 60.21354 289.75 59.979164Q290.0 59.80729 290.42188 59.68229Q290.84375 59.55729 291.34375 59.55729Q292.0625 59.55729 292.60938 59.77604Q293.17188 59.979164 293.4375 60.33854Q293.70312 60.697914 293.79688 61.291664L292.76562 61.43229Q292.70312 60.96354 292.35938 60.697914Q292.03125 60.416664 291.40625 60.416664Q290.6875 60.416664 290.375 60.666664Q290.0625 60.90104 290.0625 61.229164Q290.0625 61.43229 290.1875 61.58854Q290.32812 61.760414 290.59375 61.86979Q290.75 61.93229 291.53125 62.135414Q292.65625 62.447914 293.09375 62.635414Q293.53125 62.822914 293.78125 63.18229Q294.03125 63.541664 294.03125 64.08854Q294.03125 64.61979 293.71875 65.08854Q293.42188 65.541664 292.84375 65.80729Q292.26562 66.05729 291.53125 66.05729Q290.3125 66.05729 289.67188 65.55729Q289.04688 65.041664 288.875 64.05729ZM298.90625 62.80729Q298.90625 61.072914 299.85938 60.24479Q300.65625 59.55729 301.8125 59.55729Q303.09375 59.55729 303.90625 60.40104Q304.73438 61.229164 304.73438 62.71354Q304.73438 63.916664 304.375 64.604164Q304.01562 65.291664 303.3125 65.68229Q302.625 66.05729 301.8125 66.05729Q300.51562 66.05729 299.70312 65.229164Q298.90625 64.385414 298.90625 62.80729ZM299.98438 62.80729Q299.98438 63.99479 300.5 64.58854Q301.03125 65.18229 301.8125 65.18229Q302.60938 65.18229 303.125 64.58854Q303.64062 63.99479 303.64062 62.77604Q303.64062 61.61979 303.10938 61.02604Q302.59375 60.43229 301.8125 60.43229Q301.03125 60.43229 300.5 61.02604Q299.98438 61.604164 299.98438 62.80729ZM305.875 64.05729L306.90625 63.90104Q307.0 64.52604 307.39062 64.854164Q307.79688 65.18229 308.53125 65.18229Q309.25 65.18229 309.59375 64.90104Q309.95312 64.604164 309.95312 64.197914Q309.95312 63.83854 309.64062 63.635414Q309.42188 63.49479 308.5625 63.27604Q307.40625 62.979164 306.95312 62.77604Q306.51562 62.55729 306.28125 62.18229Q306.04688 61.80729 306.04688 61.33854Q306.04688 60.93229 306.23438 60.572914Q306.42188 60.21354 306.75 59.979164Q307.0 59.80729 307.42188 59.68229Q307.84375 59.55729 308.34375 59.55729Q309.0625 59.55729 309.60938 59.77604Q310.17188 59.979164 310.4375 60.33854Q310.70312 60.697914 310.79688 61.291664L309.76562 61.43229Q309.70312 60.96354 309.35938 60.697914Q309.03125 60.416664 308.40625 60.416664Q307.6875 60.416664 307.375 60.666664Q307.0625 60.90104 307.0625 61.229164Q307.0625 61.43229 307.1875 61.58854Q307.32812 61.760414 307.59375 61.86979Q307.75 61.93229 308.53125 62.135414Q309.65625 62.447914 310.09375 62.635414Q310.53125 62.822914 310.78125 63.18229Q311.03125 63.541664 311.03125 64.08854Q311.03125 64.61979 310.71875 65.08854Q310.42188 65.541664 309.84375 65.80729Q309.26562 66.05729 308.53125 66.05729Q307.3125 66.05729 306.67188 65.55729Q306.04688 65.041664 305.875 64.05729ZM312.875 64.05729L313.90625 63.90104Q314.0 64.52604 314.39062 64.854164Q314.79688 65.18229 315.53125 65.18229Q316.25 65.18229 316.59375 64.90104Q316.95312 64.604164 316.95312 64.197914Q316.95312 63.83854 316.64062 63.635414Q316.42188 63.49479 315.5625 63.27604Q314.40625 62.979164 313.95312 62.77604Q313.51562 62.55729 313.28125 62.18229Q313.04688 61.80729 313.04688 61.33854Q313.04688 60.93229 313.23438 60.572914Q313.42188 60.21354 313.75 59.979164Q314.0 59.80729 314.42188 59.68229Q314.84375 59.55729 315.34375 59.55729Q316.0625 59.55729 316.60938 59.77604Q317.17188 59.979164 317.4375 60.33854Q317.70312 60.697914 317.79688 61.291664L316.76562 61.43229Q316.70312 60.96354 316.35938 60.697914Q316.03125 60.416664 315.40625 60.416664Q314.6875 60.416664 314.375 60.666664Q314.0625 60.90104 314.0625 61.229164Q314.0625 61.43229 314.1875 61.58854Q314.32812 61.760414 314.59375 61.86979Q314.75 61.93229 315.53125 62.135414Q316.65625 62.447914 317.09375 62.635414Q317.53125 62.822914 317.78125 63.18229Q318.03125 63.541664 318.03125 64.08854Q318.03125 64.61979 317.71875 65.08854Q317.42188 65.541664 316.84375 65.80729Q316.26562 66.05729 315.53125 66.05729Q314.3125 66.05729 313.67188 65.55729Q313.04688 65.041664 312.875 64.05729Z" fill-rule="nonzero"/><path stroke="#fbbc04" stroke-width="4.0" stroke-linecap="butt" d="M335.5 61.916668L347.5 61.916668" fill-rule="nonzero"/><path fill="#1a1a1a" d="M356.29688 65.916664L356.29688 57.322914L357.35938 57.322914L357.35938 62.229164L359.84375 59.697914L361.21875 59.697914L358.82812 61.99479L361.45312 65.916664L360.15625 65.916664L358.09375 62.729164L357.35938 63.447914L357.35938 65.916664L356.29688 65.916664ZM362.0 61.68229Q362.0 60.15104 362.3125 59.229164Q362.625 58.291664 363.23438 57.791664Q363.85938 57.291664 364.79688 57.291664Q365.48438 57.291664 366.0 57.572914Q366.53125 57.854164 366.875 58.385414Q367.21875 58.90104 367.40625 59.65104Q367.59375 60.40104 367.59375 61.68229Q367.59375 63.197914 367.28125 64.11979Q366.98438 65.041664 366.35938 65.55729Q365.75 66.05729 364.79688 66.05729Q363.5625 66.05729 362.84375 65.166664Q362.0 64.104164 362.0 61.68229ZM363.07812 61.68229Q363.07812 63.791664 363.57812 64.49479Q364.07812 65.197914 364.79688 65.197914Q365.53125 65.197914 366.01562 64.49479Q366.51562 63.791664 366.51562 61.68229Q366.51562 59.55729 366.01562 58.86979Q365.53125 58.166664 364.78125 58.166664Q364.0625 58.166664 363.625 58.77604Q363.07812 59.55729 363.07812 61.68229ZM368.875 64.05729L369.90625 63.90104Q370.0 64.52604 370.39062 64.854164Q370.79688 65.18229 371.53125 65.18229Q372.25 65.18229 372.59375 64.90104Q372.95312 64.604164 372.95312 64.197914Q372.95312 63.83854 372.64062 63.635414Q372.42188 63.49479 371.5625 63.27604Q370.40625 62.979164 369.95312 62.77604Q369.51562 62.55729 369.28125 62.18229Q369.04688 61.80729 369.04688 61.33854Q369.04688 60.93229 369.23438 60.572914Q369.42188 60.21354 369.75 59.979164Q370.0 59.80729 370.42188 59.68229Q370.84375 59.55729 371.34375 59.55729Q372.0625 59.55729 372.60938 59.77604Q373.17188 59.979164 373.4375 60.33854Q373.70312 60.697914 373.79688 61.291664L372.76562 61.43229Q372.70312 60.96354 372.35938 60.697914Q372.03125 60.416664 371.40625 60.416664Q370.6875 60.416664 370.375 60.666664Q370.0625 60.90104 370.0625 61.229164Q370.0625 61.43229 370.1875 61.58854Q370.32812 61.760414 370.59375 61.86979Q370.75 61.93229 371.53125 62.135414Q372.65625 62.447914 373.09375 62.635414Q373.53125 62.822914 373.78125 63.18229Q374.03125 63.541664 374.03125 64.08854Q374.03125 64.61979 373.71875 65.08854Q373.42188 65.541664 372.84375 65.80729Q372.26562 66.05729 371.53125 66.05729Q370.3125 66.05729 369.67188 65.55729Q369.04688 65.041664 368.875 64.05729Z" fill-rule="nonzero"/><path stroke="#34a853" stroke-width="4.0" stroke-linecap="butt" d="M391.5 61.916668L403.5 61.916668" fill-rule="nonzero"/><path fill="#1a1a1a" d="M412.29688 65.916664L412.29688 57.322914L413.35938 57.322914L413.35938 62.229164L415.84375 59.697914L417.21875 59.697914L414.82812 61.99479L417.45312 65.916664L416.15625 65.916664L414.09375 62.729164L413.35938 63.447914L413.35938 65.916664L412.29688 65.916664ZM419.625 61.260414Q418.96875 61.010414 418.64062 60.572914Q418.32812 60.11979 418.32812 59.510414Q418.32812 58.572914 419.0 57.93229Q419.6875 57.291664 420.79688 57.291664Q421.92188 57.291664 422.60938 57.947914Q423.29688 58.604164 423.29688 59.541664Q423.29688 60.135414 422.98438 60.572914Q422.67188 61.010414 422.03125 61.260414Q422.82812 61.510414 423.23438 62.08854Q423.64062 62.666664 423.64062 63.46354Q423.64062 64.55729 422.85938 65.30729Q422.09375 66.05729 420.8125 66.05729Q419.54688 66.05729 418.76562 65.30729Q417.98438 64.55729 417.98438 63.43229Q417.98438 62.58854 418.40625 62.02604Q418.84375 61.46354 419.625 61.260414ZM419.40625 59.46354Q419.40625 60.072914 419.79688 60.46354Q420.20312 60.854164 420.82812 60.854164Q421.4375 60.854164 421.82812 60.479164Q422.21875 60.08854 422.21875 59.52604Q422.21875 58.947914 421.8125 58.55729Q421.40625 58.15104 420.8125 58.15104Q420.20312 58.15104 419.79688 58.541664Q419.40625 58.93229 419.40625 59.46354ZM419.07812 63.43229Q419.07812 63.885414 419.28125 64.30729Q419.5 64.729164 419.92188 64.96354Q420.34375 65.197914 420.82812 65.197914Q421.57812 65.197914 422.0625 64.71354Q422.5625 64.229164 422.5625 63.479164Q422.5625 62.71354 422.0625 62.21354Q421.5625 61.71354 420.79688 61.71354Q420.04688 61.71354 419.5625 62.21354Q419.07812 62.697914 419.07812 63.43229ZM424.875 64.05729L425.90625 63.90104Q426.0 64.52604 426.39062 64.854164Q426.79688 65.18229 427.53125 65.18229Q428.25 65.18229 428.59375 64.90104Q428.95312 64.604164 428.95312 64.197914Q428.95312 63.83854 428.64062 63.635414Q428.42188 63.49479 427.5625 63.27604Q426.40625 62.979164 425.95312 62.77604Q425.51562 62.55729 425.28125 62.18229Q425.04688 61.80729 425.04688 61.33854Q425.04688 60.93229 425.23438 60.572914Q425.42188 60.21354 425.75 59.979164Q426.0 59.80729 426.42188 59.68229Q426.84375 59.55729 427.34375 59.55729Q428.0625 59.55729 428.60938 59.77604Q429.17188 59.979164 429.4375 60.33854Q429.70312 60.697914 429.79688 61.291664L428.76562 61.43229Q428.70312 60.96354 428.35938 60.697914Q428.03125 60.416664 427.40625 60.416664Q426.6875 60.416664 426.375 60.666664Q426.0625 60.90104 426.0625 61.229164Q426.0625 61.43229 426.1875 61.58854Q426.32812 61.760414 426.59375 61.86979Q426.75 61.93229 427.53125 62.135414Q428.65625 62.447914 429.09375 62.635414Q429.53125 62.822914 429.78125 63.18229Q430.03125 63.541664 430.03125 64.08854Q430.03125 64.61979 429.71875 65.08854Q429.42188 65.541664 428.84375 65.80729Q428.26562 66.05729 427.53125 66.05729Q426.3125 66.05729 425.67188 65.55729Q425.04688 65.041664 424.875 64.05729Z" fill-rule="nonzero"/><path fill="#757575" d="M26.64375 34.753124L28.3625 34.971874Q28.08125 36.76875 26.909374 37.784374Q25.753124 38.784374 24.05 38.784374Q21.925 38.784374 20.628124 37.39375Q19.33125 36.003124 19.33125 33.409374Q19.33125 31.721874 19.878124 30.471874Q20.440624 29.20625 21.58125 28.58125Q22.721874 27.940624 24.065624 27.940624Q25.753124 27.940624 26.815624 28.8Q27.89375 29.659374 28.20625 31.221874L26.4875 31.4875Q26.253124 30.440624 25.628124 29.925Q25.003124 29.39375 24.128124 29.39375Q22.8 29.39375 21.971874 30.346874Q21.14375 31.3 21.14375 33.346874Q21.14375 35.440624 21.940624 36.39375Q22.7375 37.33125 24.034374 37.33125Q25.065624 37.33125 25.753124 36.70625Q26.45625 36.065624 26.64375 34.753124ZM29.8625 42.51875L29.8625 28.175L31.471874 28.175L31.471874 29.51875Q32.034374 28.7375 32.7375 28.346874Q33.45625 27.940624 34.471874 27.940624Q35.8 27.940624 36.815624 28.628124Q37.83125 29.315624 38.346874 30.565624Q38.878124 31.8 38.878124 33.284374Q38.878124 34.878124 38.3 36.159374Q37.7375 37.425 36.64375 38.1125Q35.55 38.784374 34.346874 38.784374Q33.471874 38.784374 32.76875 38.409374Q32.08125 38.034374 31.628124 37.471874L31.628124 42.51875L29.8625 42.51875ZM31.45625 33.425Q31.45625 35.425 32.26875 36.378124Q33.08125 37.33125 34.2375 37.33125Q35.409374 37.33125 36.2375 36.346874Q37.08125 35.3625 37.08125 33.26875Q37.08125 31.3 36.253124 30.315624Q35.440624 29.315624 34.315624 29.315624Q33.190624 29.315624 32.315624 30.378124Q31.45625 31.425 31.45625 33.425ZM47.659374 38.55L47.659374 37.01875Q46.45625 38.784374 44.378124 38.784374Q43.45625 38.784374 42.659374 38.440624Q41.8625 38.08125 41.471874 37.55Q41.096874 37.01875 40.940624 36.2375Q40.83125 35.721874 40.83125 34.596874L40.83125 28.175L42.58125 28.175L42.58125 33.925Q42.58125 35.3 42.690624 35.784374Q42.8625 36.471874 43.39375 36.878124Q43.940624 37.26875 44.721874 37.26875Q45.51875 37.26875 46.20625 36.8625Q46.909374 36.45625 47.190624 35.76875Q47.4875 35.065624 47.4875 33.7375L47.4875 28.175L49.2375 28.175L49.2375 38.55L47.659374 38.55ZM63.659374 38.55L63.659374 37.01875Q62.45625 38.784374 60.378124 38.784374Q59.45625 38.784374 58.659374 38.440624Q57.8625 38.08125 57.471874 37.55Q57.096874 37.01875 56.940624 36.2375Q56.83125 35.721874 56.83125 34.596874L56.83125 28.175L58.58125 28.175L58.58125 33.925Q58.58125 35.3 58.690624 35.784374Q58.8625 36.471874 59.39375 36.878124Q59.940624 37.26875 60.721874 37.26875Q61.51875 37.26875 62.20625 36.8625Q62.909374 36.45625 63.190624 35.76875Q63.4875 35.065624 63.4875 33.7375L63.4875 28.175L65.2375 28.175L65.2375 38.55L63.659374 38.55ZM66.15938 35.45625L67.90938 35.175Q68.05 36.221874 68.72188 36.784374Q69.39375 37.33125 70.59688 37.33125Q71.8 37.33125 72.37813 36.846874Q72.97188 36.346874 72.97188 35.690624Q72.97188 35.096874 72.45625 34.753124Q72.09688 34.51875 70.65938 34.159374Q68.72188 33.659374 67.97188 33.315624Q67.2375 32.95625 66.84688 32.33125Q66.45625 31.690624 66.45625 30.925Q66.45625 30.2375 66.76875 29.64375Q67.09688 29.05 67.64375 28.659374Q68.05 28.3625 68.75313 28.159374Q69.47188 27.940624 70.28438 27.940624Q71.50313 27.940624 72.425 28.3Q73.34688 28.64375 73.78438 29.253124Q74.22188 29.846874 74.39375 30.846874L72.675 31.08125Q72.55 30.284374 71.9875 29.846874Q71.425 29.39375 70.40938 29.39375Q69.19063 29.39375 68.675 29.8Q68.15938 30.190624 68.15938 30.721874Q68.15938 31.065624 68.37813 31.346874Q68.58125 31.628124 69.05 31.815624Q69.31563 31.909374 70.59688 32.253124Q72.47188 32.753124 73.20625 33.08125Q73.94063 33.39375 74.3625 34.003124Q74.78438 34.596874 74.78438 35.503124Q74.78438 36.378124 74.26875 37.159374Q73.75313 37.940624 72.78438 38.3625Q71.81563 38.784374 70.59688 38.784374Q68.58125 38.784374 67.51875 37.940624Q66.45625 37.096874 66.15938 35.45625ZM83.64375 37.26875Q82.65938 38.096874 81.75313 38.440624Q80.84688 38.784374 79.81563 38.784374Q78.1125 38.784374 77.19063 37.95625Q76.26875 37.1125 76.26875 35.815624Q76.26875 35.05 76.6125 34.425Q76.97188 33.8 77.53438 33.425Q78.09688 33.034374 78.8 32.83125Q79.31563 32.70625 80.3625 32.565624Q82.4875 32.315624 83.4875 31.971874Q83.50313 31.6125 83.50313 31.503124Q83.50313 30.440624 83.00313 29.9875Q82.33125 29.39375 81.00313 29.39375Q79.75313 29.39375 79.15938 29.83125Q78.58125 30.26875 78.3 31.378124L76.58125 31.14375Q76.81563 30.034374 77.34688 29.3625Q77.87813 28.675 78.89375 28.315624Q79.90938 27.940624 81.25313 27.940624Q82.58125 27.940624 83.40938 28.253124Q84.2375 28.565624 84.62813 29.05Q85.01875 29.51875 85.175 30.2375Q85.26875 30.690624 85.26875 31.8625L85.26875 34.20625Q85.26875 36.659374 85.37813 37.315624Q85.4875 37.95625 85.83125 38.55L83.9875 38.55Q83.72188 38.003124 83.64375 37.26875ZM83.4875 33.346874Q82.53438 33.7375 80.6125 34.003124Q79.53438 34.159374 79.08125 34.3625Q78.64375 34.55 78.39375 34.925Q78.14375 35.3 78.14375 35.76875Q78.14375 36.471874 78.675 36.940624Q79.20625 37.409374 80.2375 37.409374Q81.25313 37.409374 82.03438 36.971874Q82.83125 36.51875 83.20625 35.753124Q83.4875 35.14375 83.4875 33.9875L83.4875 33.346874ZM87.55 39.409374L89.25313 39.659374Q89.3625 40.45625 89.84688 40.815624Q90.50313 41.3 91.64375 41.3Q92.8625 41.3 93.51875 40.815624Q94.19063 40.33125 94.425 39.45625Q94.56563 38.909374 94.55 37.190624Q93.39375 38.55 91.675 38.55Q89.53438 38.55 88.3625 37.003124Q87.19063 35.45625 87.19063 33.3Q87.19063 31.815624 87.72188 30.565624Q88.26875 29.315624 89.28438 28.628124Q90.31563 27.940624 91.69063 27.940624Q93.51875 27.940624 94.72188 29.425L94.72188 28.175L96.33125 28.175L96.33125 37.14375Q96.33125 39.565624 95.83125 40.565624Q95.34688 41.58125 94.26875 42.159374Q93.20625 42.753124 91.64375 42.753124Q89.8 42.753124 88.64375 41.925Q87.50313 41.096874 87.55 39.409374ZM89.00313 33.175Q89.00313 35.221874 89.81563 36.159374Q90.62813 37.096874 91.84688 37.096874Q93.05 37.096874 93.8625 36.159374Q94.69063 35.221874 94.69063 33.2375Q94.69063 31.33125 93.84688 30.3625Q93.00313 29.39375 91.81563 29.39375Q90.64375 29.39375 89.81563 30.346874Q89.00313 31.3 89.00313 33.175ZM105.97188 35.20625L107.78438 35.440624Q107.3625 37.01875 106.19063 37.909374Q105.03438 38.784374 103.22188 38.784374Q100.95625 38.784374 99.6125 37.39375Q98.28438 35.9875 98.28438 33.45625Q98.28438 30.83125 99.62813 29.39375Q100.97188 27.940624 103.12813 27.940624Q105.20625 27.940624 106.51875 29.3625Q107.84688 30.76875 107.84688 33.346874Q107.84688 33.503124 107.83125 33.815624L100.09688 33.815624Q100.19063 35.51875 101.06563 36.425Q101.94063 37.33125 103.2375 37.33125Q104.20625 37.33125 104.87813 36.83125Q105.56563 36.315624 105.97188 35.20625ZM100.19063 32.3625L105.9875 32.3625Q105.87813 31.065624 105.33125 30.409374Q104.4875 29.39375 103.14375 29.39375Q101.94063 29.39375 101.1125 30.20625Q100.28438 31.003124 100.19063 32.3625ZM115.22188 33.3625Q115.22188 30.4875 116.81563 29.096874Q118.15938 27.940624 120.08125 27.940624Q122.22188 27.940624 123.56563 29.346874Q124.925 30.753124 124.925 33.221874Q124.925 35.221874 124.33125 36.378124Q123.7375 37.51875 122.58125 38.159374Q121.44063 38.784374 120.08125 38.784374Q117.89375 38.784374 116.55 37.39375Q115.22188 35.9875 115.22188 33.3625ZM117.01875 33.3625Q117.01875 35.3625 117.87813 36.346874Q118.75313 37.33125 120.08125 37.33125Q121.39375 37.33125 122.25313 36.346874Q123.12813 35.346874 123.12813 33.3Q123.12813 31.378124 122.25313 30.39375Q121.37813 29.39375 120.08125 29.39375Q118.75313 29.39375 117.87813 30.39375Q117.01875 31.378124 117.01875 33.3625ZM129.75313 38.55L125.8 28.175L127.65938 28.175L129.89375 34.39375Q130.25313 35.39375 130.55 36.471874Q130.78438 35.659374 131.20625 34.503124L133.50313 28.175L135.31563 28.175L131.39375 38.55L129.75313 38.55ZM142.97188 35.20625L144.78438 35.440624Q144.3625 37.01875 143.19063 37.909374Q142.03438 38.784374 140.22188 38.784374Q137.95625 38.784374 136.6125 37.39375Q135.28438 35.9875 135.28438 33.45625Q135.28438 30.83125 136.62813 29.39375Q137.97188 27.940624 140.12813 27.940624Q142.20625 27.940624 143.51875 29.3625Q144.84688 30.76875 144.84688 33.346874Q144.84688 33.503124 144.83125 33.815624L137.09688 33.815624Q137.19063 35.51875 138.06563 36.425Q138.94063 37.33125 140.2375 37.33125Q141.20625 37.33125 141.87813 36.83125Q142.56563 36.315624 142.97188 35.20625ZM137.19063 32.3625L142.9875 32.3625Q142.87813 31.065624 142.33125 30.409374Q141.4875 29.39375 140.14375 29.39375Q138.94063 29.39375 138.1125 30.20625Q137.28438 31.003124 137.19063 32.3625ZM146.84688 38.55L146.84688 28.175L148.425 28.175L148.425 29.753124Q149.03438 28.64375 149.55 28.3Q150.06563 27.940624 150.675 27.940624Q151.56563 27.940624 152.4875 28.503124L151.87813 30.14375Q151.2375 29.753124 150.59688 29.753124Q150.01875 29.753124 149.55 30.1125Q149.09688 30.45625 148.89375 31.065624Q148.6125 32.003124 148.6125 33.1125L148.6125 38.55L146.84688 38.55ZM163.70625 36.971874L163.95625 38.534374Q163.22188 38.690624 162.62813 38.690624Q161.675 38.690624 161.14375 38.39375Q160.62813 38.08125 160.40938 37.596874Q160.19063 37.096874 160.19063 35.51875L160.19063 29.55L158.90938 29.55L158.90938 28.175L160.19063 28.175L160.19063 25.6125L161.94063 24.55L161.94063 28.175L163.70625 28.175L163.70625 29.55L161.94063 29.55L161.94063 35.6125Q161.94063 36.3625 162.03438 36.58125Q162.12813 36.784374 162.33125 36.925Q162.55 37.05 162.94063 37.05Q163.22188 37.05 163.70625 36.971874ZM165.87813 26.253124L165.87813 24.2375L167.64375 24.2375L167.64375 26.253124L165.87813 26.253124ZM165.87813 38.55L165.87813 28.175L167.64375 28.175L167.64375 38.55L165.87813 38.55ZM169.8625 38.55L169.8625 28.175L171.44063 28.175L171.44063 29.628124Q171.925 28.878124 172.7375 28.409374Q173.55 27.940624 174.58125 27.940624Q175.7375 27.940624 176.47188 28.425Q177.20625 28.89375 177.51875 29.753124Q178.75313 27.940624 180.72188 27.940624Q182.26875 27.940624 183.09688 28.8Q183.925 29.659374 183.925 31.425L183.925 38.55L182.175 38.55L182.175 32.01875Q182.175 30.95625 182.00313 30.503124Q181.83125 30.034374 181.37813 29.753124Q180.94063 29.471874 180.33125 29.471874Q179.2375 29.471874 178.50313 30.20625Q177.78438 30.925 177.78438 32.51875L177.78438 38.55L176.03438 38.55L176.03438 31.815624Q176.03438 30.64375 175.59688 30.065624Q175.175 29.471874 174.19063 29.471874Q173.45625 29.471874 172.81563 29.8625Q172.19063 30.253124 171.90938 31.003124Q171.62813 31.753124 171.62813 33.175L171.62813 38.55L169.8625 38.55ZM192.97188 35.20625L194.78438 35.440624Q194.3625 37.01875 193.19063 37.909374Q192.03438 38.784374 190.22188 38.784374Q187.95625 38.784374 186.6125 37.39375Q185.28438 35.9875 185.28438 33.45625Q185.28438 30.83125 186.62813 29.39375Q187.97188 27.940624 190.12813 27.940624Q192.20625 27.940624 193.51875 29.3625Q194.84688 30.76875 194.84688 33.346874Q194.84688 33.503124 194.83125 33.815624L187.09688 33.815624Q187.19063 35.51875 188.06563 36.425Q188.94063 37.33125 190.2375 37.33125Q191.20625 37.33125 191.87813 36.83125Q192.56563 36.315624 192.97188 35.20625ZM187.19063 32.3625L192.9875 32.3625Q192.87813 31.065624 192.33125 30.409374Q191.4875 29.39375 190.14375 29.39375Q188.94063 29.39375 188.1125 30.20625Q187.28438 31.003124 187.19063 32.3625ZM206.22188 42.753124Q204.76875 40.925 203.76875 38.471874Q202.76875 36.003124 202.76875 33.3625Q202.76875 31.034374 203.51875 28.909374Q204.39375 26.440624 206.22188 23.9875L207.4875 23.9875Q206.3 26.01875 205.925 26.89375Q205.33125 28.2375 204.9875 29.70625Q204.56563 31.534374 204.56563 33.378124Q204.56563 38.065624 207.4875 42.753124L206.22188 42.753124ZM209.87813 26.253124L209.87813 24.2375L211.64375 24.2375L211.64375 26.253124L209.87813 26.253124ZM209.87813 38.55L209.87813 28.175L211.64375 28.175L211.64375 38.55L209.87813 38.55ZM213.8625 38.55L213.8625 28.175L215.45625 28.175L215.45625 29.659374Q216.59688 27.940624 218.75313 27.940624Q219.69063 27.940624 220.47188 28.284374Q221.26875 28.6125 221.65938 29.159374Q222.05 29.70625 222.20625 30.45625Q222.3 30.95625 222.3 32.175L222.3 38.55L220.53438 38.55L220.53438 32.2375Q220.53438 31.159374 220.33125 30.628124Q220.12813 30.096874 219.59688 29.784374Q219.08125 29.471874 218.37813 29.471874Q217.25313 29.471874 216.44063 30.190624Q215.62813 30.89375 215.62813 32.878124L215.62813 38.55L213.8625 38.55ZM236.64375 34.753124L238.3625 34.971874Q238.08125 36.76875 236.90938 37.784374Q235.75313 38.784374 234.05 38.784374Q231.925 38.784374 230.62813 37.39375Q229.33125 36.003124 229.33125 33.409374Q229.33125 31.721874 229.87813 30.471874Q230.44063 29.20625 231.58125 28.58125Q232.72188 27.940624 234.06563 27.940624Q235.75313 27.940624 236.81563 28.8Q237.89375 29.659374 238.20625 31.221874L236.4875 31.4875Q236.25313 30.440624 235.62813 29.925Q235.00313 29.39375 234.12813 29.39375Q232.8 29.39375 231.97188 30.346874Q231.14375 31.3 231.14375 33.346874Q231.14375 35.440624 231.94063 36.39375Q232.7375 37.33125 234.03438 37.33125Q235.06563 37.33125 235.75313 36.70625Q236.45625 36.065624 236.64375 34.753124ZM239.8625 42.51875L239.8625 28.175L241.47188 28.175L241.47188 29.51875Q242.03438 28.7375 242.7375 28.346874Q243.45625 27.940624 244.47188 27.940624Q245.8 27.940624 246.81563 28.628124Q247.83125 29.315624 248.34688 30.565624Q248.87813 31.8 248.87813 33.284374Q248.87813 34.878124 248.3 36.159374Q247.7375 37.425 246.64375 38.1125Q245.55 38.784374 244.34688 38.784374Q243.47188 38.784374 242.76875 38.409374Q242.08125 38.034374 241.62813 37.471874L241.62813 42.51875L239.8625 42.51875ZM241.45625 33.425Q241.45625 35.425 242.26875 36.378124Q243.08125 37.33125 244.2375 37.33125Q245.40938 37.33125 246.2375 36.346874Q247.08125 35.3625 247.08125 33.26875Q247.08125 31.3 246.25313 30.315624Q245.44063 29.315624 244.31563 29.315624Q243.19063 29.315624 242.31563 30.378124Q241.45625 31.425 241.45625 33.425ZM257.65936 38.55L257.65936 37.01875Q256.45624 38.784374 254.37813 38.784374Q253.45625 38.784374 252.65938 38.440624Q251.8625 38.08125 251.47188 37.55Q251.09688 37.01875 250.94063 36.2375Q250.83125 35.721874 250.83125 34.596874L250.83125 28.175L252.58125 28.175L252.58125 33.925Q252.58125 35.3 252.69063 35.784374Q252.8625 36.471874 253.39375 36.878124Q253.94063 37.26875 254.72188 37.26875Q255.51875 37.26875 256.20624 36.8625Q256.90936 36.45625 257.1906 35.76875Q257.4875 35.065624 257.4875 33.7375L257.4875 28.175L259.2375 28.175L259.2375 38.55L257.65936 38.55ZM262.01874 42.753124L260.76874 42.753124Q263.675 38.065624 263.675 33.378124Q263.675 31.534374 263.26874 29.7375Q262.925 28.26875 262.33124 26.925Q261.95624 26.034374 260.76874 23.9875L262.01874 23.9875Q263.8625 26.440624 264.7375 28.909374Q265.4875 31.034374 265.4875 33.3625Q265.4875 36.003124 264.47186 38.471874Q263.47186 40.925 262.01874 42.753124ZM277.22186 42.753124Q275.76874 40.925 274.76874 38.471874Q273.76874 36.003124 273.76874 33.3625Q273.76874 31.034374 274.51874 28.909374Q275.39374 26.440624 277.22186 23.9875L278.4875 23.9875Q277.3 26.01875 276.925 26.89375Q276.33124 28.2375 275.9875 29.70625Q275.5656 31.534374 275.5656 33.378124Q275.5656 38.065624 278.4875 42.753124L277.22186 42.753124ZM282.4875 38.55L280.8625 38.55L280.8625 24.2375L282.6125 24.2375L282.6125 29.346874Q283.7375 27.940624 285.45624 27.940624Q286.40936 27.940624 287.26874 28.33125Q288.1281 28.721874 288.675 29.425Q289.22186 30.1125 289.53436 31.096874Q289.84686 32.08125 289.84686 33.20625Q289.84686 35.878124 288.53436 37.33125Q287.22186 38.784374 285.3781 38.784374Q283.53436 38.784374 282.4875 37.253124L282.4875 38.55ZM282.47186 33.284374Q282.47186 35.14375 282.97186 35.9875Q283.8156 37.33125 285.22186 37.33125Q286.3781 37.33125 287.20624 36.33125Q288.05 35.33125 288.05 33.346874Q288.05 31.315624 287.2375 30.3625Q286.4406 29.39375 285.3 29.39375Q284.14374 29.39375 283.3 30.39375Q282.47186 31.39375 282.47186 33.284374ZM298.64374 37.26875Q297.65936 38.096874 296.7531 38.440624Q295.84686 38.784374 294.8156 38.784374Q293.1125 38.784374 292.1906 37.95625Q291.26874 37.1125 291.26874 35.815624Q291.26874 35.05 291.6125 34.425Q291.97186 33.8 292.53436 33.425Q293.09686 33.034374 293.8 32.83125Q294.3156 32.70625 295.3625 32.565624Q297.4875 32.315624 298.4875 31.971874Q298.5031 31.6125 298.5031 31.503124Q298.5031 30.440624 298.0031 29.9875Q297.33124 29.39375 296.0031 29.39375Q294.7531 29.39375 294.15936 29.83125Q293.58124 30.26875 293.3 31.378124L291.58124 31.14375Q291.8156 30.034374 292.34686 29.3625Q292.8781 28.675 293.89374 28.315624Q294.90936 27.940624 296.2531 27.940624Q297.58124 27.940624 298.40936 28.253124Q299.2375 28.565624 299.6281 29.05Q300.01874 29.51875 300.175 30.2375Q300.26874 30.690624 300.26874 31.8625L300.26874 34.20625Q300.26874 36.659374 300.3781 37.315624Q300.4875 37.95625 300.83124 38.55L298.9875 38.55Q298.72186 38.003124 298.64374 37.26875ZM298.4875 33.346874Q297.53436 33.7375 295.6125 34.003124Q294.53436 34.159374 294.08124 34.3625Q293.64374 34.55 293.39374 34.925Q293.14374 35.3 293.14374 35.76875Q293.14374 36.471874 293.675 36.940624Q294.20624 37.409374 295.2375 37.409374Q296.2531 37.409374 297.03436 36.971874Q297.83124 36.51875 298.20624 35.753124Q298.4875 35.14375 298.4875 33.9875L298.4875 33.346874ZM302.15936 35.45625L303.90936 35.175Q304.05 36.221874 304.72186 36.784374Q305.39374 37.33125 306.59686 37.33125Q307.8 37.33125 308.3781 36.846874Q308.97186 36.346874 308.97186 35.690624Q308.97186 35.096874 308.45624 34.753124Q308.09686 34.51875 306.65936 34.159374Q304.72186 33.659374 303.97186 33.315624Q303.2375 32.95625 302.84686 32.33125Q302.45624 31.690624 302.45624 30.925Q302.45624 30.2375 302.76874 29.64375Q303.09686 29.05 303.64374 28.659374Q304.05 28.3625 304.7531 28.159374Q305.47186 27.940624 306.28436 27.940624Q307.5031 27.940624 308.425 28.3Q309.34686 28.64375 309.78436 29.253124Q310.22186 29.846874 310.39374 30.846874L308.675 31.08125Q308.55 30.284374 307.9875 29.846874Q307.425 29.39375 306.40936 29.39375Q305.1906 29.39375 304.675 29.8Q304.15936 30.190624 304.15936 30.721874Q304.15936 31.065624 304.3781 31.346874Q304.58124 31.628124 305.05 31.815624Q305.3156 31.909374 306.59686 32.253124Q308.47186 32.753124 309.20624 33.08125Q309.9406 33.39375 310.3625 34.003124Q310.78436 34.596874 310.78436 35.503124Q310.78436 36.378124 310.26874 37.159374Q309.7531 37.940624 308.78436 38.3625Q307.8156 38.784374 306.59686 38.784374Q304.58124 38.784374 303.51874 37.940624Q302.45624 37.096874 302.15936 35.45625ZM319.97186 35.20625L321.78436 35.440624Q321.3625 37.01875 320.1906 37.909374Q319.03436 38.784374 317.22186 38.784374Q314.95624 38.784374 313.6125 37.39375Q312.28436 35.9875 312.28436 33.45625Q312.28436 30.83125 313.6281 29.39375Q314.97186 27.940624 317.1281 27.940624Q319.20624 27.940624 320.51874 29.3625Q321.84686 30.76875 321.84686 33.346874Q321.84686 33.503124 321.83124 33.815624L314.09686 33.815624Q314.1906 35.51875 315.0656 36.425Q315.9406 37.33125 317.2375 37.33125Q318.20624 37.33125 318.8781 36.83125Q319.5656 36.315624 319.97186 35.20625ZM314.1906 32.3625L319.9875 32.3625Q319.8781 31.065624 319.33124 30.409374Q318.4875 29.39375 317.14374 29.39375Q315.9406 29.39375 315.1125 30.20625Q314.28436 31.003124 314.1906 32.3625ZM323.83124 38.55L323.83124 24.2375L325.58124 24.2375L325.58124 38.55L323.83124 38.55ZM327.8781 26.253124L327.8781 24.2375L329.64374 24.2375L329.64374 26.253124L327.8781 26.253124ZM327.8781 38.55L327.8781 28.175L329.64374 28.175L329.64374 38.55L327.8781 38.55ZM331.8625 38.55L331.8625 28.175L333.45624 28.175L333.45624 29.659374Q334.59686 27.940624 336.7531 27.940624Q337.6906 27.940624 338.47186 28.284374Q339.26874 28.6125 339.65936 29.159374Q340.05 29.70625 340.20624 30.45625Q340.3 30.95625 340.3 32.175L340.3 38.55L338.53436 38.55L338.53436 32.2375Q338.53436 31.159374 338.33124 30.628124Q338.1281 30.096874 337.59686 29.784374Q337.08124 29.471874 336.3781 29.471874Q335.2531 29.471874 334.4406 30.190624Q333.6281 30.89375 333.6281 32.878124L333.6281 38.55L331.8625 38.55ZM348.97186 35.20625L350.78436 35.440624Q350.3625 37.01875 349.1906 37.909374Q348.03436 38.784374 346.22186 38.784374Q343.95624 38.784374 342.6125 37.39375Q341.28436 35.9875 341.28436 33.45625Q341.28436 30.83125 342.6281 29.39375Q343.97186 27.940624 346.1281 27.940624Q348.20624 27.940624 349.51874 29.3625Q350.84686 30.76875 350.84686 33.346874Q350.84686 33.503124 350.83124 33.815624L343.09686 33.815624Q343.1906 35.51875 344.0656 36.425Q344.9406 37.33125 346.2375 37.33125Q347.20624 37.33125 347.8781 36.83125Q348.5656 36.315624 348.97186 35.20625ZM343.1906 32.3625L348.9875 32.3625Q348.8781 31.065624 348.33124 30.409374Q347.4875 29.39375 346.14374 29.39375Q344.9406 29.39375 344.1125 30.20625Q343.28436 31.003124 343.1906 32.3625ZM354.01874 42.753124L352.76874 42.753124Q355.675 38.065624 355.675 33.378124Q355.675 31.534374 355.26874 29.7375Q354.925 28.26875 354.33124 26.925Q353.95624 26.034374 352.76874 23.9875L354.01874 23.9875Q355.8625 26.440624 356.7375 28.909374Q357.4875 31.034374 357.4875 33.3625Q357.4875 36.003124 356.47186 38.471874Q355.47186 40.925 354.01874 42.753124Z" fill-rule="nonzero"/></svg>