<svg version="1.1" viewBox="0.0 0.0 600.0 371.0" fill="none" stroke="none" stroke-linecap="square" stroke-miterlimit="10" width="600" height="371" xmlns:xlink="http://www.w3.org/1999/xlink" xmlns="http://www.w3.org/2000/svg"><path fill="#ffffff" d="M0 0L600.0 0L600.0 371.0L0 371.0L0 0Z" fill-rule="nonzero"/><path stroke="#333333" stroke-width="1.0" stroke-linecap="butt" d="M87.5 88.5L87.5 300.5" fill-rule="nonzero"/><path stroke="#cccccc" stroke-width="1.0" stroke-linecap="butt" d="M224.5 88.5L224.5 300.5" fill-rule="nonzero"/><path stroke="#cccccc" stroke-width="1.0" stroke-linecap="butt" d="M361.5 88.5L361.5 300.5" fill-rule="nonzero"/><path stroke="#cccccc" stroke-width="1.0" stroke-linecap="butt" d="M499.5 88.5L499.5 300.5" fill-rule="nonzero"/><path stroke="#333333" stroke-width="1.0" stroke-linecap="butt" d="M87.5 300.5L581.5 300.5" fill-rule="nonzero"/><path stroke="#cccccc" stroke-width="1.0" stroke-linecap="butt" d="M87.5 247.5L581.5 247.5" fill-rule="nonzero"/><path stroke="#cccccc" stroke-width="1.0" stroke-linecap="butt" d="M87.5 194.5L581.5 194.5" fill-rule="nonzero"/><path stroke="#cccccc" stroke-width="1.0" stroke-linecap="butt" d="M87.5 141.5L581.5 141.5" fill-rule="nonzero"/><path stroke="#cccccc" stroke-width="1.0" stroke-linecap="butt" d="M87.5 88.5L581.5 88.5" fill-rule="nonzero"/><clipPath id="id_0"><path d="M87.55 88.28333L581.45 88.28333L581.45 300.45L87.55 300.45L87.55 88.28333Z" clip-rule="nonzero"/></clipPath><path stroke="#4285f4" stroke-width="2.0" stroke-linecap="butt" clip-path="url(#id_0)" d="M87.55 126.64307L128.70833 126.64307L169.86667 126.64307L211.025 126.64307L252.18333 126.64307L293.34167 126.64307L334.5 126.64307L375.65833 126.64307L416.81668 126.64307L457.975 126.64307L499.13333 126.64307L540.2917 126.64307L581.45 126.64307" fill-rule="nonzero"/><path stroke="#ea4335" stroke-width="2.0" stroke-linecap="butt" clip-path="url(#id_0)" d="M87.55 126.64307L128.70833 126.64307L169.86667 126.64307L211.025 126.64307L252.18333 126.64307L293.34167 126.64307L334.5 126.64307L375.65833 126.64307L416.81668 126.64307L457.975 126.64307L499.13333 126.64307L540.2917 126.64307L581.45 126.64307" fill-rule="nonzero"/><path stroke="#fbbc04" stroke-width="2.0" stroke-linecap="butt" clip-path="url(#id_0)" d="M87.55 170.0948L128.70833 170.0948L169.86667 170.0948L211.025 170.0948L252.18333 170.0948L293.34167 170.0948L334.5 170.0948L375.65833 170.0948L416.81668 170.0948L457.975 170.0948L499.13333 170.0948L540.2917 170.0948L581.45 170.0948" fill-rule="nonzero"/><path stroke="#34a853" stroke-width="2.0" stroke-linecap="butt" clip-path="url(#id_0)" d="M87.55 126.64307L128.70833 126.64307L169.86667 126.64307L211.025 126.64307L252.18333 126.64307L293.34167 126.64307L334.5 126.64307L375.65833 126.64307L416.81668 126.64307L457.975 126.64307L499.13333 126.64307L540.2917 126.64307L581.45 126.64307" fill-rule="nonzero"/><path fill="#000000" fill-opacity="0.0" clip-path="url(#id_0)" d="M90.55 126.64307C90.55 128.29993 89.206856 129.64307 87.55 129.64307C85.89314 129.64307 84.55 128.29993 84.55 126.64307C84.55 124.98621 85.89314 123.64307 87.55 123.64307C89.206856 123.64307 90.55 124.98621 90.55 126.64307Z" fill-rule="nonzero"/><path fill="#000000" fill-opacity="0.0" clip-path="url(#id_0)" d="M131.70833 126.64307C131.70833 128.29993 130.36519 129.64307 128.70833 129.64307C127.051476 129.64307 125.708336 128.29993 125.708336 126.64307C125.708336 124.98621 127.051476 123.64307 128.70833 123.64307C130.36519 123.64307 131.70833 124.98621 131.70833 126.64307Z" fill-rule="nonzero"/><path fill="#000000" fill-opacity="0.0" clip-path="url(#id_0)" d="M172.86667 126.64307C172.86667 128.29993 171.52351 129.64307 169.86667 129.64307C168.20981 129.64307 166.86667 128.29993 166.86667 126.64307C166.86667 124.98621 168.20981 123.64307 169.86667 123.64307C171.52351 123.64307 172.86667 124.98621 172.86667 126.64307Z" fill-rule="nonzero"/><path fill="#000000" fill-opacity="0.0" clip-path="url(#id_0)" d="M214.025 126.64307C214.025 128.29993 212.68185 129.64307 211.025 129.64307C209.36815 129.64307 208.025 128.29993 208.025 126.64307C208.025 124.98621 209.36815 123.64307 211.025 123.64307C212.68185 123.64307 214.025 124.98621 214.025 126.64307Z" fill-rule="nonzero"/><path fill="#000000" fill-opacity="0.0" clip-path="url(#id_0)" d="M255.18333 126.64307C255.18333 128.29993 253.8402 129.64307 252.18333 129.64307C250.52647 129.64307 249.18333 128.29993 249.18333 126.64307C249.18333 124.98621 250.52647 123.64307 252.18333 123.64307C253.8402 123.64307 255.18333 124.98621 255.18333 126.64307Z" fill-rule="nonzero"/><path fill="#000000" fill-opacity="0.0" clip-path="url(#id_0)" d="M296.34167 126.64307C296.34167 128.29993 294.99854 129.64307 293.34167 129.64307C291.6848 129.64307 290.34167 128.29993 290.34167 126.64307C290.34167 124.98621 291.6848 123.64307 293.34167 123.64307C294.99854 123.64307 296.34167 124.98621 296.34167 126.64307Z" fill-rule="nonzero"/><path fill="#000000" fill-opacity="0.0" clip-path="url(#id_0)" d="M337.5 126.64307C337.5 128.29993 336.15686 129.64307 334.5 129.64307C332.84314 129.64307 331.5 128.29993 331.5 126.64307C331.5 124.98621 332.84314 123.64307 334.5 123.64307C336.15686 123.64307 337.5 124.98621 337.5 126.64307Z" fill-rule="nonzero"/><path fill="#000000" fill-opacity="0.0" clip-path="url(#id_0)" d="M378.65833 126.64307C378.65833 128.29993 377.3152 129.64307 375.65833 129.64307C374.00146 129.64307 372.65833 128.29993 372.65833 126.64307C372.65833 124.98621 374.00146 123.64307 375.65833 123.64307C377.3152 123.64307 378.65833 124.98621 378.65833 126.64307Z" fill-rule="nonzero"/><path fill="#000000" fill-opacity="0.0" clip-path="url(#id_0)" d="M419.81668 126.64307C419.81668 128.29993 418.4735 129.64307 416.81668 129.64307C415.15982 129.64307 413.81668 128.29993 413.81668 126.64307C413.81668 124.98621 415.15982 123.64307 416.81668 123.64307C418.4735 123.64307 419.81668 124.98621 419.81668 126.64307Z" fill-rule="nonzero"/><path fill="#000000" fill-opacity="0.0" clip-path="url(#id_0)" d="M460.975 126.64307C460.975 128.29993 459.63187 129.64307 457.975 129.64307C456.31815 129.64307 454.975 128.29993 454.975 126.64307C454.975 124.98621 456.31815 123.64307 457.975 123.64307C459.63187 123.64307 460.975 124.98621 460.975 126.64307Z" fill-rule="nonzero"/><path fill="#000000" fill-opacity="0.0" clip-path="url(#id_0)" d="M502.13333 126.64307C502.13333 128.29993 500.7902 129.64307 499.13333 129.64307C497.47647 129.64307 496.13333 128.29993 496.13333 126.64307C496.13333 124.98621 497.47647 123.64307 499.13333 123.64307C500.7902 123.64307 502.13333 124.98621 502.13333 126.64307Z" fill-rule="nonzero"/><path fill="#000000" fill-opacity="0.0" clip-path="url(#id_0)" d="M543.2917 126.64307C543.2917 128.29993 541.94855 129.64307 540.2917 129.64307C538.6348 129.64307 537.2917 128.29993 537.2917 126.64307C537.2917 124.98621 538.6348 123.64307 540.2917 123.64307C541.94855 123.64307 543.2917 124.98621 543.2917 126.64307Z" fill-rule="nonzero"/><path fill="#000000" fill-opacity="0.0" clip-path="url(#id_0)" d="M584.45 126.64307C584.45 128.29993 583.1069 129.64307 581.45 129.64307C579.79315 129.64307 578.45 128.29993 578.45 126.64307C578.45 124.98621 579.79315 123.64307 581.45 123.64307C583.1069 123.64307 584.45 124.98621 584.45 126.64307Z" fill-rule="nonzero"/><path fill="#000000" fill-opacity="0.0" clip-path="url(#id_0)" d="M90.55 126.64307C90.55 128.29993 89.206856 129.64307 87.55 129.64307C85.89314 129.64307 84.55 128.29993 84.55 126.64307C84.55 124.98621 85.89314 123.64307 87.55 123.64307C89.206856 123.64307 90.55 124.98621 90.55 126.64307Z" fill-rule="nonzero"/><path fill="#000000" fill-opacity="0.0" clip-path="url(#id_0)" d="M131.70833 126.64307C131.70833 128.29993 130.36519 129.64307 128.70833 129.64307C127.051476 129.64307 125.708336 128.29993 125.708336 126.64307C125.708336 124.98621 127.051476 123.64307 128.70833 123.64307C130.36519 123.64307 131.70833 124.98621 131.70833 126.64307Z" fill-rule="nonzero"/><path fill="#000000" fill-opacity="0.0" clip-path="url(#id_0)" d="M172.86667 126.64307C172.86667 128.29993 171.52351 129.64307 169.86667 129.64307C168.20981 129.64307 166.86667 128.29993 166.86667 126.64307C166.86667 124.98621 168.20981 123.64307 169.86667 123.64307C171.52351 123.64307 172.86667 124.98621 172.86667 126.64307Z" fill-rule="nonzero"/><path fill="#000000" fill-opacity="0.0" clip-path="url(#id_0)" d="M214.025 126.64307C214.025 128.29993 212.68185 129.64307 211.025 129.64307C209.36815 129.64307 208.025 128.29993 208.025 126.64307C208.025 124.98621 209.36815 123.64307 211.025 123.64307C212.68185 123.64307 214.025 124.98621 214.025 126.64307Z" fill-rule="nonzero"/><path fill="#000000" fill-opacity="0.0" clip-path="url(#id_0)" d="M255.18333 126.64307C255.18333 128.29993 253.8402 129.64307 252.18333 129.64307C250.52647 129.64307 249.18333 128.29993 249.18333 126.64307C249.18333 124.98621 250.52647 123.64307 252.18333 123.64307C253.8402 123.64307 255.18333 124.98621 255.18333 126.64307Z" fill-rule="nonzero"/><path fill="#000000" fill-opacity="0.0" clip-path="url(#id_0)" d="M296.34167 126.64307C296.34167 128.29993 294.99854 129.64307 293.34167 129.64307C291.6848 129.64307 290.34167 128.29993 290.34167 126.64307C290.34167 124.98621 291.6848 123.64307 293.34167 123.64307C294.99854 123.64307 296.34167 124.98621 296.34167 126.64307Z" fill-rule="nonzero"/><path fill="#000000" fill-opacity="0.0" clip-path="url(#id_0)" d="M337.5 126.64307C337.5 128.29993 336.15686 129.64307 334.5 129.64307C332.84314 129.64307 331.5 128.29993 331.5 126.64307C331.5 124.98621 332.84314 123.64307 334.5 123.64307C336.15686 123.64307 337.5 124.98621 337.5 126.64307Z" fill-rule="nonzero"/><path fill="#000000" fill-opacity="0.0" clip-path="url(#id_0)" d="M378.65833 126.64307C378.65833 128.29993 377.3152 129.64307 375.65833 129.64307C374.00146 129.64307 372.65833 128.29993 372.65833 126.64307C372.65833 124.98621 374.00146 123.64307 375.65833 123.64307C377.3152 123.64307 378.65833 124.98621 378.65833 126.64307Z" fill-rule="nonzero"/><path fill="#000000" fill-opacity="0.0" clip-path="url(#id_0)" d="M419.81668 126.64307C419.81668 128.29993 418.4735 129.64307 416.81668 129.64307C415.15982 129.64307 413.81668 128.29993 413.81668 126.64307C413.81668 124.98621 415.15982 123.64307 416.81668 123.64307C418.4735 123.64307 419.81668 124.98621 419.81668 126.64307Z" fill-rule="nonzero"/><path fill="#000000" fill-opacity="0.0" clip-path="url(#id_0)" d="M460.975 126.64307C460.975 128.29993 459.63187 129.64307 457.975 129.64307C456.31815 129.64307 454.975 128.29993 454.975 126.64307C454.975 124.98621 456.31815 123.64307 457.975 123.64307C459.63187 123.64307 460.975 124.98621 460.975 126.64307Z" fill-rule="nonzero"/><path fill="#000000" fill-opacity="0.0" clip-path="url(#id_0)" d="M502.13333 126.64307C502.13333 128.29993 500.7902 129.64307 499.13333 129.64307C497.47647 129.64307 496.13333 128.29993 496.13333 126.64307C496.13333 124.98621 497.47647 123.64307 499.13333 123.64307C500.7902 123.64307 502.13333 124.98621 502.13333 126.64307Z" fill-rule="nonzero"/><path fill="#000000" fill-opacity="0.0" clip-path="url(#id_0)" d="M543.2917 126.64307C543.2917 128.29993 541.94855 129.64307 540.2917 129.64307C538.6348 129.64307 537.2917 128.29993 537.2917 126.64307C537.2917 124.98621 538.6348 123.64307 540.2917 123.64307C541.94855 123.64307 543.2917 124.98621 543.2917 126.64307Z" fill-rule="nonzero"/><path fill="#000000" fill-opacity="0.0" clip-path="url(#id_0)" d="M584.45 126.64307C584.45 128.29993 583.1069 129.64307 581.45 129.64307C579.79315 129.64307 578.45 128.29993 578.45 126.64307C578.45 124.98621 579.79315 123.64307 581.45 123.64307C583.1069 123.64307 584.45 124.98621 584.45 126.64307Z" fill-rule="nonzero"/><path fill="#000000" fill-opacity="0.0" clip-path="url(#id_0)" d="M90.55 170.0948C90.55 171.75165 89.206856 173.0948 87.55 173.0948C85.89314 173.0948 84.55 171.75165 84.55 170.0948C84.55 168.43794 85.89314 167.0948 87.55 167.0948C89.206856 167.0948 90.55 168.43794 90.55 170.0948Z" fill-rule="nonzero"/><path fill="#000000" fill-opacity="0.0" clip-path="url(#id_0)" d="M131.70833 170.0948C131.70833 171.75165 130.36519 173.0948 128.70833 173.0948C127.051476 173.0948 125.708336 171.75165 125.708336 170.0948C125.708336 168.43794 127.051476 167.0948 128.70833 167.0948C130.36519 167.0948 131.70833 168.43794 131.70833 170.0948Z" fill-rule="nonzero"/><path fill="#000000" fill-opacity="0.0" clip-path="url(#id_0)" d="M172.86667 170.0948C172.86667 171.75165 171.52351 173.0948 169.86667 173.0948C168.20981 173.0948 166.86667 171.75165 166.86667 170.0948C166.86667 168.43794 168.20981 167.0948 169.86667 167.0948C171.52351 167.0948 172.86667 168.43794 172.86667 170.0948Z" fill-rule="nonzero"/><path fill="#000000" fill-opacity="0.0" clip-path="url(#id_0)" d="M214.025 170.0948C214.025 171.75165 212.68185 173.0948 211.025 173.0948C209.36815 173.0948 208.025 171.75165 208.025 170.0948C208.025 168.43794 209.36815 167.0948 211.025 167.0948C212.68185 167.0948 214.025 168.43794 214.025 170.0948Z" fill-rule="nonzero"/><path fill="#000000" fill-opacity="0.0" clip-path="url(#id_0)" d="M255.18333 170.0948C255.18333 171.75165 253.8402 173.0948 252.18333 173.0948C250.52647 173.0948 249.18333 171.75165 249.18333 170.0948C249.18333 168.43794 250.52647 167.0948 252.18333 167.0948C253.8402 167.0948 255.18333 168.43794 255.18333 170.0948Z" fill-rule="nonzero"/><path fill="#000000" fill-opacity="0.0" clip-path="url(#id_0)" d="M296.34167 170.0948C296.34167 171.75165 294.99854 173.0948 293.34167 173.0948C291.6848 173.0948 290.34167 171.75165 290.34167 170.0948C290.34167 168.43794 291.6848 167.0948 293.34167 167.0948C294.99854 167.0948 296.34167 168.43794 296.34167 170.0948Z" fill-rule="nonzero"/><path fill="#000000" fill-opacity="0.0" clip-path="url(#id_0)" d="M337.5 170.0948C337.5 171.75165 336.15686 173.0948 334.5 173.0948C332.84314 173.0948 331.5 171.75165 331.5 170.0948C331.5 168.43794 332.84314 167.0948 334.5 167.0948C336.15686 167.0948 337.5 168.43794 337.5 170.0948Z" fill-rule="nonzero"/><path fill="#000000" fill-opacity="0.0" clip-path="url(#id_0)" d="M378.65833 170.0948C378.65833 171.75165 377.3152 173.0948 375.65833 173.0948C374.00146 173.0948 372.65833 171.75165 372.65833 170.0948C372.65833 168.43794 374.00146 167.0948 375.65833 167.0948C377.3152 167.0948 378.65833 168.43794 378.65833 170.0948Z" fill-rule="nonzero"/><path fill="#000000" fill-opacity="0.0" clip-path="url(#id_0)" d="M419.81668 170.0948C419.81668 171.75165 418.4735 173.0948 416.81668 173.0948C415.15982 173.0948 413.81668 171.75165 413.81668 170.0948C413.81668 168.43794 415.15982 167.0948 416.81668 167.0948C418.4735 167.0948 419.81668 168.43794 419.81668 170.0948Z" fill-rule="nonzero"/><path fill="#000000" fill-opacity="0.0" clip-path="url(#id_0)" d="M460.975 170.0948C460.975 171.75165 459.63187 173.0948 457.975 173.0948C456.31815 173.0948 454.975 171.75165 454.975 170.0948C454.975 168.43794 456.31815 167.0948 457.975 167.0948C459.63187 167.0948 460.975 168.43794 460.975 170.0948Z" fill-rule="nonzero"/><path fill="#000000" fill-opacity="0.0" clip-path="url(#id_0)" d="M502.13333 170.0948C502.13333 171.75165 500.7902 173.0948 499.13333 173.0948C497.47647 173.0948 496.13333 171.75165 496.13333 170.0948C496.13333 168.43794 497.47647 167.0948 499.13333 167.0948C500.7902 167.0948 502.13333 168.43794 502.13333 170.0948Z" fill-rule="nonzero"/><path fill="#000000" fill-opacity="0.0" clip-path="url(#id_0)" d="M543.2917 170.0948C543.2917 171.75165 541.94855 173.0948 540.2917 173.0948C538.6348 173.0948 537.2917 171.75165 537.2917 170.0948C537.2917 168.43794 538.6348 167.0948 540.2917 167.0948C541.94855 167.0948 543.2917 168.43794 543.2917 170.0948Z" fill-rule="nonzero"/><path fill="#000000" fill-opacity="0.0" clip-path="url(#id_0)" d="M584.45 170.0948C584.45 171.75165 583.1069 173.0948 581.45 173.0948C579.79315 173.0948 578.45 171.75165 578.45 170.0948C578.45 168.43794 579.79315 167.0948 581.45 167.0948C583.1069 167.0948 584.45 168.43794 584.45 170.0948Z" fill-rule="nonzero"/><path fill="#000000" fill-opacity="0.0" clip-path="url(#id_0)" d="M90.55 126.64307C90.55 128.29993 89.206856 129.64307 87.55 129.64307C85.89314 129.64307 84.55 128.29993 84.55 126.64307C84.55 124.98621 85.89314 123.64307 87.55 123.64307C89.206856 123.64307 90.55 124.98621 90.55 126.64307Z" fill-rule="nonzero"/><path fill="#000000" fill-opacity="0.0" clip-path="url(#id_0)" d="M131.70833 126.64307C131.70833 128.29993 130.36519 129.64307 128.70833 129.64307C127.051476 129.64307 125.708336 128.29993 125.708336 126.64307C125.708336 124.98621 127.051476 123.64307 128.70833 123.64307C130.36519 123.64307 131.70833 124.98621 131.70833 126.64307Z" fill-rule="nonzero"/><path fill="#000000" fill-opacity="0.0" clip-path="url(#id_0)" d="M172.86667 126.64307C172.86667 128.29993 171.52351 129.64307 169.86667 129.64307C168.20981 129.64307 166.86667 128.29993 166.86667 126.64307C166.86667 124.98621 168.20981 123.64307 169.86667 123.64307C171.52351 123.64307 172.86667 124.98621 172.86667 126.64307Z" fill-rule="nonzero"/><path fill="#000000" fill-opacity="0.0" clip-path="url(#id_0)" d="M214.025 126.64307C214.025 128.29993 212.68185 129.64307 211.025 129.64307C209.36815 129.64307 208.025 128.29993 208.025 126.64307C208.025 124.98621 209.36815 123.64307 211.025 123.64307C212.68185 123.64307 214.025 124.98621 214.025 126.64307Z" fill-rule="nonzero"/><path fill="#000000" fill-opacity="0.0" clip-path="url(#id_0)" d="M255.18333 126.64307C255.18333 128.29993 253.8402 129.64307 252.18333 129.64307C250.52647 129.64307 249.18333 128.29993 249.18333 126.64307C249.18333 124.98621 250.52647 123.64307 252.18333 123.64307C253.8402 123.64307 255.18333 124.98621 255.18333 126.64307Z" fill-rule="nonzero"/><path fill="#000000" fill-opacity="0.0" clip-path="url(#id_0)" d="M296.34167 126.64307C296.34167 128.29993 294.99854 129.64307 293.34167 129.64307C291.6848 129.64307 290.34167 128.29993 290.34167 126.64307C290.34167 124.98621 291.6848 123.64307 293.34167 123.64307C294.99854 123.64307 296.34167 124.98621 296.34167 126.64307Z" fill-rule="nonzero"/><path fill="#000000" fill-opacity="0.0" clip-path="url(#id_0)" d="M337.5 126.64307C337.5 128.29993 336.15686 129.64307 334.5 129.64307C332.84314 129.64307 331.5 128.29993 331.5 126.64307C331.5 124.98621 332.84314 123.64307 334.5 123.64307C336.15686 123.64307 337.5 124.98621 337.5 126.64307Z" fill-rule="nonzero"/><path fill="#000000" fill-opacity="0.0" clip-path="url(#id_0)" d="M378.65833 126.64307C378.65833 128.29993 377.3152 129.64307 375.65833 129.64307C374.00146 129.64307 372.65833 128.29993 372.65833 126.64307C372.65833 124.98621 374.00146 123.64307 375.65833 123.64307C377.3152 123.64307 378.65833 124.98621 378.65833 126.64307Z" fill-rule="nonzero"/><path fill="#000000" fill-opacity="0.0" clip-path="url(#id_0)" d="M419.81668 126.64307C419.81668 128.29993 418.4735 129.64307 416.81668 129.64307C415.15982 129.64307 413.81668 128.29993 413.81668 126.64307C413.81668 124.98621 415.15982 123.64307 416.81668 123.64307C418.4735 123.64307 419.81668 124.98621 419.81668 126.64307Z" fill-rule="nonzero"/><path fill="#000000" fill-opacity="0.0" clip-path="url(#id_0)" d="M460.975 126.64307C460.975 128.29993 459.63187 129.64307 457.975 129.64307C456.31815 129.64307 454.975 128.29993 454.975 126.64307C454.975 124.98621 456.31815 123.64307 457.975 123.64307C459.63187 123.64307 460.975 124.98621 460.975 126.64307Z" fill-rule="nonzero"/><path fill="#000000" fill-opacity="0.0" clip-path="url(#id_0)" d="M502.13333 126.64307C502.13333 128.29993 500.7902 129.64307 499.13333 129.64307C497.47647 129.64307 496.13333 128.29993 496.13333 126.64307C496.13333 124.98621 497.47647 123.64307 499.13333 123.64307C500.7902 123.64307 502.13333 124.98621 502.13333 126.64307Z" fill-rule="nonzero"/><path fill="#000000" fill-opacity="0.0" clip-path="url(#id_0)" d="M543.2917 126.64307C543.2917 128.29993 541.94855 129.64307 540.2917 129.64307C538.6348 129.64307 537.2917 128.29993 537.2917 126.64307C537.2917 124.98621 538.6348 123.64307 540.2917 123.64307C541.94855 123.64307 543.2917 124.98621 543.2917 126.64307Z" fill-rule="nonzero"/><path fill="#000000" fill-opacity="0.0" clip-path="url(#id_0)" d="M584.45 126.64307C584.45 128.29993 583.1069 129.64307 581.45 129.64307C579.79315 129.64307 578.45 128.29993 578.45 126.64307C578.45 124.98621 579.79315 123.64307 581.45 123.64307C583.1069 123.64307 584.45 124.98621 584.45 126.64307Z" fill-rule="nonzero"/><path fill="#000000" d="M316.54688 349.45L316.54688 344.04376L315.60938 344.04376L315.60938 343.23126L316.54688 343.23126L316.54688 342.5594Q316.54688 341.9344 316.65625 341.6375Q316.8125 341.21564 317.1875 340.96564Q317.57812 340.71564 318.26562 340.71564Q318.71875 340.71564 319.25 340.825L319.09375 341.73126Q318.76562 341.6844 318.46875 341.6844Q317.98438 341.6844 317.78125 341.8875Q317.59375 342.09064 317.59375 342.65314L317.59375 343.23126L318.8125 343.23126L318.8125 344.04376L317.59375 344.04376L317.59375 349.45L316.54688 349.45ZM318.875 347.59064L319.90625 347.4344Q320.0 348.0594 320.39062 348.3875Q320.79688 348.71564 321.53125 348.71564Q322.25 348.71564 322.59375 348.4344Q322.95312 348.1375 322.95312 347.73126Q322.95312 347.3719 322.64062 347.16876Q322.42188 347.02814 321.5625 346.8094Q320.40625 346.5125 319.95312 346.3094Q319.51562 346.09064 319.28125 345.71564Q319.04688 345.34064 319.04688 344.8719Q319.04688 344.46564 319.23438 344.10626Q319.42188 343.7469 319.75 343.5125Q320.0 343.34064 320.42188 343.21564Q320.84375 343.09064 321.34375 343.09064Q322.0625 343.09064 322.60938 343.3094Q323.17188 343.5125 323.4375 343.8719Q323.70312 344.23126 323.79688 344.825L322.76562 344.96564Q322.70312 344.4969 322.35938 344.23126Q322.03125 343.95 321.40625 343.95Q320.6875 343.95 320.375 344.2Q320.0625 344.4344 320.0625 344.7625Q320.0625 344.96564 320.1875 345.1219Q320.32812 345.29376 320.59375 345.40314Q320.75 345.46564 321.53125 345.66876Q322.65625 345.98126 323.09375 346.16876Q323.53125 346.35626 323.78125 346.71564Q324.03125 347.075 324.03125 347.6219Q324.03125 348.15314 323.71875 348.6219Q323.42188 349.075 322.84375 349.34064Q322.26562 349.59064 321.53125 349.59064Q320.3125 349.59064 319.67188 349.09064Q319.04688 348.575 318.875 347.59064ZM329.28125 349.45L329.28125 343.23126L330.23438 343.23126L330.23438 344.16876Q330.59375 343.5125 330.89062 343.3094Q331.20312 343.09064 331.57812 343.09064Q332.10938 343.09064 332.65625 343.41876L332.29688 344.40314Q331.90625 344.16876 331.53125 344.16876Q331.17188 344.16876 330.89062 344.3875Q330.625 344.59064 330.51562 344.96564Q330.32812 345.52814 330.32812 346.1844L330.32812 349.45L329.28125 349.45ZM337.54688 347.45L338.64062 347.575Q338.39062 348.52814 337.6875 349.0594Q336.98438 349.59064 335.90625 349.59064Q334.54688 349.59064 333.73438 348.7469Q332.9375 347.90314 332.9375 346.3875Q332.9375 344.825 333.75 343.96564Q334.5625 343.09064 335.84375 343.09064Q337.09375 343.09064 337.875 343.9344Q338.67188 344.77814 338.67188 346.325Q338.67188 346.41876 338.67188 346.60626L334.03125 346.60626Q334.09375 347.6375 334.60938 348.1844Q335.125 348.71564 335.90625 348.71564Q336.48438 348.71564 336.89062 348.41876Q337.3125 348.10626 337.54688 347.45ZM334.09375 345.7469L337.5625 345.7469Q337.5 344.95 337.17188 344.5594Q336.65625 343.95 335.85938 343.95Q335.125 343.95 334.625 344.4344Q334.14062 344.91876 334.09375 345.7469ZM344.35938 348.6844Q343.76562 349.1844 343.21875 349.3875Q342.6875 349.59064 342.0625 349.59064Q341.03125 349.59064 340.48438 349.09064Q339.9375 348.59064 339.9375 347.8094Q339.9375 347.35626 340.14062 346.98126Q340.34375 346.59064 340.6875 346.3719Q341.03125 346.1375 341.45312 346.02814Q341.75 345.9344 342.39062 345.85626Q343.65625 345.71564 344.26562 345.4969Q344.26562 345.27814 344.26562 345.23126Q344.26562 344.575 343.96875 344.3094Q343.5625 343.96564 342.76562 343.96564Q342.03125 343.96564 341.67188 344.23126Q341.3125 344.48126 341.14062 345.1375L340.10938 344.9969Q340.25 344.34064 340.57812 343.9344Q340.90625 343.52814 341.51562 343.3094Q342.125 343.09064 342.92188 343.09064Q343.71875 343.09064 344.21875 343.27814Q344.71875 343.46564 344.95312 343.7469Q345.1875 344.02814 345.28125 344.46564Q345.32812 344.73126 345.32812 345.4344L345.32812 346.84064Q345.32812 348.3094 345.39062 348.7Q345.46875 349.09064 345.67188 349.45L344.5625 349.45Q344.40625 349.1219 344.35938 348.6844ZM344.26562 346.325Q343.6875 346.5594 342.54688 346.73126Q341.89062 346.825 341.625 346.95Q341.35938 347.0594 341.20312 347.27814Q341.0625 347.4969 341.0625 347.77814Q341.0625 348.2 341.375 348.48126Q341.70312 348.7625 342.3125 348.7625Q342.92188 348.7625 343.39062 348.4969Q343.875 348.23126 344.09375 347.7625Q344.26562 347.40314 344.26562 346.71564L344.26562 346.325ZM351.32812 349.45L351.32812 348.66876Q350.73438 349.59064 349.59375 349.59064Q348.84375 349.59064 348.21875 349.1844Q347.59375 348.7625 347.25 348.02814Q346.90625 347.29376 346.90625 346.34064Q346.90625 345.41876 347.21875 344.65314Q347.53125 343.8875 348.15625 343.4969Q348.78125 343.09064 349.54688 343.09064Q350.10938 343.09064 350.54688 343.325Q350.98438 343.5594 351.26562 343.9344L351.26562 340.85626L352.3125 340.85626L352.3125 349.45L351.32812 349.45ZM348.0 346.34064Q348.0 347.54376 348.5 348.1375Q349.0 348.71564 349.6875 348.71564Q350.375 348.71564 350.85938 348.15314Q351.34375 347.59064 351.34375 346.4344Q351.34375 345.15314 350.84375 344.5594Q350.35938 343.96564 349.64062 343.96564Q348.9375 343.96564 348.46875 344.54376Q348.0 345.10626 348.0 346.34064Z" fill-rule="nonzero"/><path fill="#000000" d="M29.550013 213.47604L20.956263 213.47604L20.956263 211.7573L27.034388 209.72604Q27.893763 209.4448 28.315638 209.3198Q27.846888 209.17917 26.940638 208.86667L20.956263 206.80417L20.956263 205.27292L29.550013 205.27292L29.550013 206.36667L22.362513 206.36667L29.550013 208.86667L29.550013 209.89792L22.237513 212.3823L29.550013 212.3823L29.550013 213.47604ZM29.550013 204.49167L20.956263 204.49167L20.956263 201.2573Q20.956263 200.27292 21.221888 199.67917Q21.487513 199.08542 22.034388 198.7573Q22.565638 198.41354 23.159388 198.41354Q23.706263 198.41354 24.190638 198.71042Q24.675013 199.0073 24.971888 199.61667Q25.206263 198.83542 25.768763 198.42917Q26.315638 198.0073 27.065638 198.0073Q27.659388 198.0073 28.190638 198.2573Q28.706263 198.5073 28.987513 198.8823Q29.268763 199.2573 29.409388 199.83542Q29.550013 200.39792 29.550013 201.21042L29.550013 204.49167ZM24.565638 203.35104L24.565638 201.49167Q24.565638 200.74167 24.471888 200.41354Q24.346888 199.97604 24.050013 199.7573Q23.737513 199.53854 23.284388 199.53854Q22.862513 199.53854 22.534388 199.74167Q22.206263 199.9448 22.096888 200.33542Q21.971888 200.71042 21.971888 201.6323L21.971888 203.35104L24.565638 203.35104ZM28.534388 203.35104L28.534388 201.21042Q28.534388 200.66354 28.487513 200.4448Q28.425013 200.03854 28.268763 199.78854Q28.096888 199.52292 27.784388 199.35104Q27.471888 199.17917 27.065638 199.17917Q26.581263 199.17917 26.221888 199.42917Q25.862513 199.66354 25.721888 200.10104Q25.581263 200.53854 25.581263 201.36667L25.581263 203.35104L28.534388 203.35104ZM29.690638 197.36667L20.815638 194.8823L20.815638 194.03854L29.690638 196.52292L29.690638 197.36667ZM27.690638 193.99167L27.534388 192.96042Q28.159388 192.86667 28.487513 192.47604Q28.815638 192.0698 28.815638 191.33542Q28.815638 190.61667 28.534388 190.27292Q28.237513 189.91354 27.831263 189.91354Q27.471888 189.91354 27.268763 190.22604Q27.128138 190.4448 26.909388 191.30417Q26.612513 192.46042 26.409388 192.91354Q26.190638 193.35104 25.815638 193.58542Q25.440638 193.8198 24.971888 193.8198Q24.565638 193.8198 24.206263 193.6323Q23.846888 193.4448 23.612513 193.11667Q23.440638 192.86667 23.315638 192.4448Q23.190638 192.02292 23.190638 191.52292Q23.190638 190.80417 23.409388 190.2573Q23.612513 189.6948 23.971888 189.42917Q24.331263 189.16354 24.925013 189.0698L25.065638 190.10104Q24.596888 190.16354 24.331263 190.5073Q24.050013 190.83542 24.050013 191.46042Q24.050013 192.17917 24.300013 192.49167Q24.534388 192.80417 24.862513 192.80417Q25.065638 192.80417 25.221888 192.67917Q25.393763 192.53854 25.503138 192.27292Q25.565638 192.11667 25.768763 191.33542Q26.081263 190.21042 26.268763 189.77292Q26.456263 189.33542 26.815638 189.08542Q27.175013 188.83542 27.721888 188.83542Q28.253138 188.83542 28.721888 189.14792Q29.175013 189.4448 29.440638 190.02292Q29.690638 190.60104 29.690638 191.33542Q29.690638 192.55417 29.190638 193.1948Q28.675013 193.8198 27.690638 193.99167Z" fill-rule="nonzero"/><path fill="#000000" d="M51.05 300.21564Q51.05 298.6844 51.3625 297.7625Q51.675 296.825 52.284374 296.325Q52.909374 295.825 53.846874 295.825Q54.534374 295.825 55.05 296.10626Q55.58125 296.3875 55.925 296.91876Q56.26875 297.4344 56.45625 298.1844Q56.64375 298.9344 56.64375 300.21564Q56.64375 301.73126 56.33125 302.65314Q56.034374 303.575 55.409374 304.09064Q54.8 304.59064 53.846874 304.59064Q52.6125 304.59064 51.89375 303.7Q51.05 302.6375 51.05 300.21564ZM52.128124 300.21564Q52.128124 302.325 52.628124 303.02814Q53.128124 303.73126 53.846874 303.73126Q54.58125 303.73126 55.065624 303.02814Q55.565624 302.325 55.565624 300.21564Q55.565624 298.09064 55.065624 297.40314Q54.58125 296.7 53.83125 296.7Q53.1125 296.7 52.675 297.3094Q52.128124 298.09064 52.128124 300.21564ZM58.64375 304.45L58.64375 303.2469L59.846874 303.2469L59.846874 304.45L58.64375 304.45ZM61.05 300.21564Q61.05 298.6844 61.3625 297.7625Q61.675 296.825 62.284374 296.325Q62.909374 295.825 63.846874 295.825Q64.53438 295.825 65.05 296.10626Q65.58125 296.3875 65.925 296.91876Q66.26875 297.4344 66.45625 298.1844Q66.64375 298.9344 66.64375 300.21564Q66.64375 301.73126 66.33125 302.65314Q66.03438 303.575 65.40938 304.09064Q64.8 304.59064 63.846874 304.59064Q62.6125 304.59064 61.89375 303.7Q61.05 302.6375 61.05 300.21564ZM62.128124 300.21564Q62.128124 302.325 62.628124 303.02814Q63.128124 303.73126 63.846874 303.73126Q64.58125 303.73126 65.06563 303.02814Q65.56563 302.325 65.56563 300.21564Q65.56563 298.09064 65.06563 297.40314Q64.58125 296.7 63.83125 296.7Q63.1125 296.7 62.675 297.3094Q62.128124 298.09064 62.128124 300.21564ZM68.05 300.21564Q68.05 298.6844 68.3625 297.7625Q68.675 296.825 69.28438 296.325Q69.90938 295.825 70.84688 295.825Q71.53438 295.825 72.05 296.10626Q72.58125 296.3875 72.925 296.91876Q73.26875 297.4344 73.45625 298.1844Q73.64375 298.9344 73.64375 300.21564Q73.64375 301.73126 73.33125 302.65314Q73.03438 303.575 72.40938 304.09064Q71.8 304.59064 70.84688 304.59064Q69.6125 304.59064 68.89375 303.7Q68.05 302.6375 68.05 300.21564ZM69.12813 300.21564Q69.12813 302.325 69.62813 303.02814Q70.12813 303.73126 70.84688 303.73126Q71.58125 303.73126 72.06563 303.02814Q72.56563 302.325 72.56563 300.21564Q72.56563 298.09064 72.06563 297.40314Q71.58125 296.7 70.83125 296.7Q70.1125 296.7 69.675 297.3094Q69.12813 298.09064 69.12813 300.21564ZM75.05 300.21564Q75.05 298.6844 75.3625 297.7625Q75.675 296.825 76.28438 296.325Q76.90938 295.825 77.84688 295.825Q78.53438 295.825 79.05 296.10626Q79.58125 296.3875 79.925 296.91876Q80.26875 297.4344 80.45625 298.1844Q80.64375 298.9344 80.64375 300.21564Q80.64375 301.73126 80.33125 302.65314Q80.03438 303.575 79.40938 304.09064Q78.8 304.59064 77.84688 304.59064Q76.6125 304.59064 75.89375 303.7Q75.05 302.6375 75.05 300.21564ZM76.12813 300.21564Q76.12813 302.325 76.62813 303.02814Q77.12813 303.73126 77.84688 303.73126Q78.58125 303.73126 79.06563 303.02814Q79.56563 302.325 79.56563 300.21564Q79.56563 298.09064 79.06563 297.40314Q78.58125 296.7 77.83125 296.7Q77.1125 296.7 76.675 297.3094Q76.12813 298.09064 76.12813 300.21564Z" fill-rule="nonzero"/><path fill="#000000" d="M51.05 247.17397Q51.05 245.64272 51.3625 244.72084Q51.675 243.78334 52.284374 243.28334Q52.909374 242.78334 53.846874 242.78334Q54.534374 242.78334 55.05 243.06459Q55.58125 243.34584 55.925 243.87709Q56.26875 244.39272 56.45625 245.14272Q56.64375 245.89272 56.64375 247.17397Q56.64375 248.68959 56.33125 249.61147Q56.034374 250.53334 55.409374 251.04897Q54.8 251.54897 53.846874 251.54897Q52.6125 251.54897 51.89375 250.65834Q51.05 249.59584 51.05 247.17397ZM52.128124 247.17397Q52.128124 249.28334 52.628124 249.98647Q53.128124 250.68959 53.846874 250.68959Q54.58125 250.68959 55.065624 249.98647Q55.565624 249.28334 55.565624 247.17397Q55.565624 245.04897 55.065624 244.36147Q54.58125 243.65834 53.83125 243.65834Q53.1125 243.65834 52.675 244.26772Q52.128124 245.04897 52.128124 247.17397ZM58.64375 251.40834L58.64375 250.20522L59.846874 250.20522L59.846874 251.40834L58.64375 251.40834ZM61.05 247.17397Q61.05 245.64272 61.3625 244.72084Q61.675 243.78334 62.284374 243.28334Q62.909374 242.78334 63.846874 242.78334Q64.53438 242.78334 65.05 243.06459Q65.58125 243.34584 65.925 243.87709Q66.26875 244.39272 66.45625 245.14272Q66.64375 245.89272 66.64375 247.17397Q66.64375 248.68959 66.33125 249.61147Q66.03438 250.53334 65.40938 251.04897Q64.8 251.54897 63.846874 251.54897Q62.6125 251.54897 61.89375 250.65834Q61.05 249.59584 61.05 247.17397ZM62.128124 247.17397Q62.128124 249.28334 62.628124 249.98647Q63.128124 250.68959 63.846874 250.68959Q64.58125 250.68959 65.06563 249.98647Q65.56563 249.28334 65.56563 247.17397Q65.56563 245.04897 65.06563 244.36147Q64.58125 243.65834 63.83125 243.65834Q63.1125 243.65834 62.675 244.26772Q62.128124 245.04897 62.128124 247.17397ZM68.05 247.17397Q68.05 245.64272 68.3625 244.72084Q68.675 243.78334 69.28438 243.28334Q69.90938 242.78334 70.84688 242.78334Q71.53438 242.78334 72.05 243.06459Q72.58125 243.34584 72.925 243.87709Q73.26875 244.39272 73.45625 245.14272Q73.64375 245.89272 73.64375 247.17397Q73.64375 248.68959 73.33125 249.61147Q73.03438 250.53334 72.40938 251.04897Q71.8 251.54897 70.84688 251.54897Q69.6125 251.54897 68.89375 250.65834Q68.05 249.59584 68.05 247.17397ZM69.12813 247.17397Q69.12813 249.28334 69.62813 249.98647Q70.12813 250.68959 70.84688 250.68959Q71.58125 250.68959 72.06563 249.98647Q72.56563 249.28334 72.56563 247.17397Q72.56563 245.04897 72.06563 244.36147Q71.58125 243.65834 70.83125 243.65834Q70.1125 243.65834 69.675 244.26772Q69.12813 245.04897 69.12813 247.17397ZM75.05 249.15834L76.15938 249.06459Q76.28438 249.87709 76.72188 250.28334Q77.175 250.68959 77.81563 250.68959Q78.56563 250.68959 79.09688 250.11147Q79.62813 249.53334 79.62813 248.59584Q79.62813 247.68959 79.1125 247.17397Q78.6125 246.64272 77.78438 246.64272Q77.28438 246.64272 76.8625 246.87709Q76.45625 247.11147 76.22188 247.47084L75.2375 247.34584L76.06563 242.93959L80.34688 242.93959L80.34688 243.93959L76.90938 243.93959L76.45625 246.25209Q77.22188 245.70522 78.06563 245.70522Q79.19063 245.70522 79.95625 246.48647Q80.7375 247.26772 80.7375 248.50209Q80.7375 249.65834 80.06563 250.51772Q79.2375 251.54897 77.81563 251.54897Q76.64375 251.54897 75.89375 250.89272Q75.15938 250.23647 75.05 249.15834Z" fill-rule="nonzero"/><path fill="#000000" d="M51.05 194.1323Q51.05 192.60104 51.3625 191.67917Q51.675 190.74167 52.284374 190.24167Q52.909374 189.74167 53.846874 189.74167Q54.534374 189.74167 55.05 190.02292Q55.58125 190.30417 55.925 190.83542Q56.26875 191.35104 56.45625 192.10104Q56.64375 192.85104 56.64375 194.1323Q56.64375 195.64792 56.33125 196.5698Q56.034374 197.49167 55.409374 198.0073Q54.8 198.5073 53.846874 198.5073Q52.6125 198.5073 51.89375 197.61667Q51.05 196.55417 51.05 194.1323ZM52.128124 194.1323Q52.128124 196.24167 52.628124 196.9448Q53.128124 197.64792 53.846874 197.64792Q54.58125 197.64792 55.065624 196.9448Q55.565624 196.24167 55.565624 194.1323Q55.565624 192.0073 55.065624 191.3198Q54.58125 190.61667 53.83125 190.61667Q53.1125 190.61667 52.675 191.22604Q52.128124 192.0073 52.128124 194.1323ZM58.64375 198.36667L58.64375 197.16354L59.846874 197.16354L59.846874 198.36667L58.64375 198.36667ZM61.05 194.1323Q61.05 192.60104 61.3625 191.67917Q61.675 190.74167 62.284374 190.24167Q62.909374 189.74167 63.846874 189.74167Q64.53438 189.74167 65.05 190.02292Q65.58125 190.30417 65.925 190.83542Q66.26875 191.35104 66.45625 192.10104Q66.64375 192.85104 66.64375 194.1323Q66.64375 195.64792 66.33125 196.5698Q66.03438 197.49167 65.40938 198.0073Q64.8 198.5073 63.846874 198.5073Q62.6125 198.5073 61.89375 197.61667Q61.05 196.55417 61.05 194.1323ZM62.128124 194.1323Q62.128124 196.24167 62.628124 196.9448Q63.128124 197.64792 63.846874 197.64792Q64.58125 197.64792 65.06563 196.9448Q65.56563 196.24167 65.56563 194.1323Q65.56563 192.0073 65.06563 191.3198Q64.58125 190.61667 63.83125 190.61667Q63.1125 190.61667 62.675 191.22604Q62.128124 192.0073 62.128124 194.1323ZM72.01875 198.36667L70.97188 198.36667L70.97188 191.64792Q70.58125 192.0073 69.95625 192.3823Q69.34688 192.74167 68.8625 192.91354L68.8625 191.89792Q69.7375 191.47604 70.39375 190.89792Q71.06563 190.30417 71.34688 189.74167L72.01875 189.74167L72.01875 198.36667ZM75.05 194.1323Q75.05 192.60104 75.3625 191.67917Q75.675 190.74167 76.28438 190.24167Q76.90938 189.74167 77.84688 189.74167Q78.53438 189.74167 79.05 190.02292Q79.58125 190.30417 79.925 190.83542Q80.26875 191.35104 80.45625 192.10104Q80.64375 192.85104 80.64375 194.1323Q80.64375 195.64792 80.33125 196.5698Q80.03438 197.49167 79.40938 198.0073Q78.8 198.5073 77.84688 198.5073Q76.6125 198.5073 75.89375 197.61667Q75.05 196.55417 75.05 194.1323ZM76.12813 194.1323Q76.12813 196.24167 76.62813 196.9448Q77.12813 197.64792 77.84688 197.64792Q78.58125 197.64792 79.06563 196.9448Q79.56563 196.24167 79.56563 194.1323Q79.56563 192.0073 79.06563 191.3198Q78.58125 190.61667 77.83125 190.61667Q77.1125 190.61667 76.675 191.22604Q76.12813 192.0073 76.12813 194.1323Z" fill-rule="nonzero"/><path fill="#000000" d="M51.05 141.09062Q51.05 139.55937 51.3625 138.6375Q51.675 137.7 52.284374 137.2Q52.909374 136.7 53.846874 136.7Q54.534374 136.7 55.05 136.98125Q55.58125 137.2625 55.925 137.79375Q56.26875 138.30937 56.45625 139.05937Q56.64375 139.80937 56.64375 141.09062Q56.64375 142.60625 56.33125 143.52812Q56.034374 144.45 55.409374 144.96562Q54.8 145.46562 53.846874 145.46562Q52.6125 145.46562 51.89375 144.575Q51.05 143.5125 51.05 141.09062ZM52.128124 141.09062Q52.128124 143.2 52.628124 143.90312Q53.128124 144.60625 53.846874 144.60625Q54.58125 144.60625 55.065624 143.90312Q55.565624 143.2 55.565624 141.09062Q55.565624 138.96562 55.065624 138.27812Q54.58125 137.575 53.83125 137.575Q53.1125 137.575 52.675 138.18437Q52.128124 138.96562 52.128124 141.09062ZM58.64375 145.325L58.64375 144.12187L59.846874 144.12187L59.846874 145.325L58.64375 145.325ZM61.05 141.09062Q61.05 139.55937 61.3625 138.6375Q61.675 137.7 62.284374 137.2Q62.909374 136.7 63.846874 136.7Q64.53438 136.7 65.05 136.98125Q65.58125 137.2625 65.925 137.79375Q66.26875 138.30937 66.45625 139.05937Q66.64375 139.80937 66.64375 141.09062Q66.64375 142.60625 66.33125 143.52812Q66.03438 144.45 65.40938 144.96562Q64.8 145.46562 63.846874 145.46562Q62.6125 145.46562 61.89375 144.575Q61.05 143.5125 61.05 141.09062ZM62.128124 141.09062Q62.128124 143.2 62.628124 143.90312Q63.128124 144.60625 63.846874 144.60625Q64.58125 144.60625 65.06563 143.90312Q65.56563 143.2 65.56563 141.09062Q65.56563 138.96562 65.06563 138.27812Q64.58125 137.575 63.83125 137.575Q63.1125 137.575 62.675 138.18437Q62.128124 138.96562 62.128124 141.09062ZM72.01875 145.325L70.97188 145.325L70.97188 138.60625Q70.58125 138.96562 69.95625 139.34062Q69.34688 139.7 68.8625 139.87187L68.8625 138.85625Q69.7375 138.43437 70.39375 137.85625Q71.06563 137.2625 71.34688 136.7L72.01875 136.7L72.01875 145.325ZM75.05 143.075L76.15938 142.98125Q76.28438 143.79375 76.72188 144.2Q77.175 144.60625 77.81563 144.60625Q78.56563 144.60625 79.09688 144.02812Q79.62813 143.45 79.62813 142.5125Q79.62813 141.60625 79.1125 141.09062Q78.6125 140.55937 77.78438 140.55937Q77.28438 140.55937 76.8625 140.79375Q76.45625 141.02812 76.22188 141.3875L75.2375 141.2625L76.06563 136.85625L80.34688 136.85625L80.34688 137.85625L76.90938 137.85625L76.45625 140.16875Q77.22188 139.62187 78.06563 139.62187Q79.19063 139.62187 79.95625 140.40312Q80.7375 141.18437 80.7375 142.41875Q80.7375 143.575 80.06563 144.43437Q79.2375 145.46562 77.81563 145.46562Q76.64375 145.46562 75.89375 144.80937Q75.15938 144.15312 75.05 143.075Z" fill-rule="nonzero"/><path fill="#000000" d="M51.05 88.04896Q51.05 86.51771 51.3625 85.59583Q51.675 84.65833 52.284374 84.15833Q52.909374 83.65833 53.846874 83.65833Q54.534374 83.65833 55.05 83.93958Q55.58125 84.22083 55.925 84.75208Q56.26875 85.26771 56.45625 86.01771Q56.64375 86.76771 56.64375 88.04896Q56.64375 89.56458 56.33125 90.48646Q56.034374 91.40833 55.409374 91.92396Q54.8 92.42396 53.846874 92.42396Q52.6125 92.42396 51.89375 91.53333Q51.05 90.47083 51.05 88.04896ZM52.128124 88.04896Q52.128124 90.15833 52.628124 90.86146Q53.128124 91.56458 53.846874 91.56458Q54.58125 91.56458 55.065624 90.86146Q55.565624 90.15833 55.565624 88.04896Q55.565624 85.92396 55.065624 85.23646Q54.58125 84.53333 53.83125 84.53333Q53.1125 84.53333 52.675 85.14271Q52.128124 85.92396 52.128124 88.04896ZM58.64375 92.28333L58.64375 91.08021L59.846874 91.08021L59.846874 92.28333L58.64375 92.28333ZM61.05 88.04896Q61.05 86.51771 61.3625 85.59583Q61.675 84.65833 62.284374 84.15833Q62.909374 83.65833 63.846874 83.65833Q64.53438 83.65833 65.05 83.93958Q65.58125 84.22083 65.925 84.75208Q66.26875 85.26771 66.45625 86.01771Q66.64375 86.76771 66.64375 88.04896Q66.64375 89.56458 66.33125 90.48646Q66.03438 91.40833 65.40938 91.92396Q64.8 92.42396 63.846874 92.42396Q62.6125 92.42396 61.89375 91.53333Q61.05 90.47083 61.05 88.04896ZM62.128124 88.04896Q62.128124 90.15833 62.628124 90.86146Q63.128124 91.56458 63.846874 91.56458Q64.58125 91.56458 65.06563 90.86146Q65.56563 90.15833 65.56563 88.04896Q65.56563 85.92396 65.06563 85.23646Q64.58125 84.53333 63.83125 84.53333Q63.1125 84.53333 62.675 85.14271Q62.128124 85.92396 62.128124 88.04896ZM73.59688 91.26771L73.59688 92.28333L67.90938 92.28333Q67.90938 91.90833 68.03438 91.54896Q68.25313 90.97083 68.72188 90.40833Q69.20625 89.84583 70.1125 89.11146Q71.51875 87.95521 72.00313 87.28333Q72.50313 86.61146 72.50313 86.01771Q72.50313 85.39271 72.05 84.97083Q71.59688 84.53333 70.87813 84.53333Q70.1125 84.53333 69.65938 84.98646Q69.20625 85.43958 69.19063 86.25208L68.1125 86.14271Q68.22188 84.92396 68.94063 84.29896Q69.675 83.65833 70.90938 83.65833Q72.14375 83.65833 72.8625 84.34583Q73.58125 85.03333 73.58125 86.04896Q73.58125 86.56458 73.3625 87.06458Q73.15938 87.54896 72.65938 88.11146Q72.175 88.65833 71.05 89.61146Q70.09688 90.40833 69.81563 90.70521Q69.55 90.98646 69.37813 91.26771L73.59688 91.26771ZM75.05 88.04896Q75.05 86.51771 75.3625 85.59583Q75.675 84.65833 76.28438 84.15833Q76.90938 83.65833 77.84688 83.65833Q78.53438 83.65833 79.05 83.93958Q79.58125 84.22083 79.925 84.75208Q80.26875 85.26771 80.45625 86.01771Q80.64375 86.76771 80.64375 88.04896Q80.64375 89.56458 80.33125 90.48646Q80.03438 91.40833 79.40938 91.92396Q78.8 92.42396 77.84688 92.42396Q76.6125 92.42396 75.89375 91.53333Q75.05 90.47083 75.05 88.04896ZM76.12813 88.04896Q76.12813 90.15833 76.62813 90.86146Q77.12813 91.56458 77.84688 91.56458Q78.58125 91.56458 79.06563 90.86146Q79.56563 90.15833 79.56563 88.04896Q79.56563 85.92396 79.06563 85.23646Q78.58125 84.53333 77.83125 84.53333Q77.1125 84.53333 76.675 85.14271Q76.12813 85.92396 76.12813 88.04896Z" fill-rule="nonzero"/><path fill="#000000" d="M84.55 313.21564Q84.55 311.6844 84.8625 310.7625Q85.175 309.825 85.78438 309.325Q86.40938 308.825 87.34688 308.825Q88.03438 308.825 88.55 309.10626Q89.08125 309.3875 89.425 309.91876Q89.76875 310.4344 89.95625 311.1844Q90.14375 311.9344 90.14375 313.21564Q90.14375 314.73126 89.83125 315.65314Q89.53438 316.575 88.90938 317.09064Q88.3 317.59064 87.34688 317.59064Q86.1125 317.59064 85.39375 316.7Q84.55 315.6375 84.55 313.21564ZM85.62813 313.21564Q85.62813 315.325 86.12813 316.02814Q86.62813 316.73126 87.34688 316.73126Q88.08125 316.73126 88.56563 316.02814Q89.06563 315.325 89.06563 313.21564Q89.06563 311.09064 88.56563 310.40314Q88.08125 309.7 87.33125 309.7Q86.6125 309.7 86.175 310.3094Q85.62813 311.09064 85.62813 313.21564Z" fill-rule="nonzero"/><path fill="#000000" d="M218.7132 317.45L217.66632 317.45L217.66632 310.73126Q217.2757 311.09064 216.6507 311.46564Q216.04132 311.825 215.55695 311.9969L215.55695 310.98126Q216.43195 310.5594 217.0882 309.98126Q217.76007 309.3875 218.04132 308.825L218.7132 308.825L218.7132 317.45ZM221.74445 313.21564Q221.74445 311.6844 222.05695 310.7625Q222.36945 309.825 222.97882 309.325Q223.60382 308.825 224.54132 308.825Q225.22882 308.825 225.74445 309.10626Q226.2757 309.3875 226.61945 309.91876Q226.9632 310.4344 227.1507 311.1844Q227.3382 311.9344 227.3382 313.21564Q227.3382 314.73126 227.0257 315.65314Q226.72882 316.575 226.10382 317.09064Q225.49445 317.59064 224.54132 317.59064Q223.30695 317.59064 222.5882 316.7Q221.74445 315.6375 221.74445 313.21564ZM222.82257 313.21564Q222.82257 315.325 223.32257 316.02814Q223.82257 316.73126 224.54132 316.73126Q225.2757 316.73126 225.76007 316.02814Q226.26007 315.325 226.26007 313.21564Q226.26007 311.09064 225.76007 310.40314Q225.2757 309.7 224.5257 309.7Q223.80695 309.7 223.36945 310.3094Q222.82257 311.09064 222.82257 313.21564ZM228.74445 313.21564Q228.74445 311.6844 229.05695 310.7625Q229.36945 309.825 229.97882 309.325Q230.60382 308.825 231.54132 308.825Q232.22882 308.825 232.74445 309.10626Q233.2757 309.3875 233.61945 309.91876Q233.9632 310.4344 234.1507 311.1844Q234.3382 311.9344 234.3382 313.21564Q234.3382 314.73126 234.0257 315.65314Q233.72882 316.575 233.10382 317.09064Q232.49445 317.59064 231.54132 317.59064Q230.30695 317.59064 229.5882 316.7Q228.74445 315.6375 228.74445 313.21564ZM229.82257 313.21564Q229.82257 315.325 230.32257 316.02814Q230.82257 316.73126 231.54132 316.73126Q232.2757 316.73126 232.76007 316.02814Q233.26007 315.325 233.26007 313.21564Q233.26007 311.09064 232.76007 310.40314Q232.2757 309.7 231.5257 309.7Q230.80695 309.7 230.36945 310.3094Q229.82257 311.09064 229.82257 313.21564Z" fill-rule="nonzero"/><path fill="#000000" d="M357.48578 316.4344L357.48578 317.45L351.79828 317.45Q351.79828 317.075 351.92328 316.71564Q352.14203 316.1375 352.61078 315.575Q353.09515 315.0125 354.0014 314.27814Q355.40765 313.1219 355.89203 312.45Q356.39203 311.77814 356.39203 311.1844Q356.39203 310.5594 355.9389 310.1375Q355.48578 309.7 354.76703 309.7Q354.0014 309.7 353.54828 310.15314Q353.09515 310.60626 353.07953 311.41876L352.0014 311.3094Q352.11078 310.09064 352.82953 309.46564Q353.5639 308.825 354.79828 308.825Q356.03265 308.825 356.7514 309.5125Q357.47015 310.2 357.47015 311.21564Q357.47015 311.73126 357.2514 312.23126Q357.04828 312.71564 356.54828 313.27814Q356.0639 313.825 354.9389 314.77814Q353.98578 315.575 353.70453 315.8719Q353.4389 316.15314 353.26703 316.4344L357.48578 316.4344ZM358.9389 313.21564Q358.9389 311.6844 359.2514 310.7625Q359.5639 309.825 360.17328 309.325Q360.79828 308.825 361.73578 308.825Q362.42328 308.825 362.9389 309.10626Q363.47015 309.3875 363.8139 309.91876Q364.15765 310.4344 364.34515 311.1844Q364.53265 311.9344 364.53265 313.21564Q364.53265 314.73126 364.22015 315.65314Q363.92328 316.575 363.29828 317.09064Q362.6889 317.59064 361.73578 317.59064Q360.5014 317.59064 359.78265 316.7Q358.9389 315.6375 358.9389 313.21564ZM360.01703 313.21564Q360.01703 315.325 360.51703 316.02814Q361.01703 316.73126 361.73578 316.73126Q362.47015 316.73126 362.95453 316.02814Q363.45453 315.325 363.45453 313.21564Q363.45453 311.09064 362.95453 310.40314Q362.47015 309.7 361.72015 309.7Q361.0014 309.7 360.5639 310.3094Q360.01703 311.09064 360.01703 313.21564ZM365.9389 313.21564Q365.9389 311.6844 366.2514 310.7625Q366.5639 309.825 367.17328 309.325Q367.79828 308.825 368.73578 308.825Q369.42328 308.825 369.9389 309.10626Q370.47015 309.3875 370.8139 309.91876Q371.15765 310.4344 371.34515 311.1844Q371.53265 311.9344 371.53265 313.21564Q371.53265 314.73126 371.22015 315.65314Q370.92328 316.575 370.29828 317.09064Q369.6889 317.59064 368.73578 317.59064Q367.5014 317.59064 366.78265 316.7Q365.9389 315.6375 365.9389 313.21564ZM367.01703 313.21564Q367.01703 315.325 367.51703 316.02814Q368.01703 316.73126 368.73578 316.73126Q369.47015 316.73126 369.95453 316.02814Q370.45453 315.325 370.45453 313.21564Q370.45453 311.09064 369.95453 310.40314Q369.47015 309.7 368.72015 309.7Q368.0014 309.7 367.5639 310.3094Q367.01703 311.09064 367.01703 313.21564Z" fill-rule="nonzero"/><path fill="#000000" d="M489.13333 315.1844L490.19583 315.04376Q490.3677 315.9344 490.8052 316.34064Q491.2427 316.73126 491.8677 316.73126Q492.6177 316.73126 493.13333 316.21564Q493.64896 315.7 493.64896 314.9344Q493.64896 314.21564 493.16458 313.7469Q492.69583 313.2625 491.96146 313.2625Q491.66458 313.2625 491.21146 313.3875L491.33646 312.45Q491.44583 312.46564 491.50833 312.46564Q492.1802 312.46564 492.71146 312.1219Q493.25833 311.7625 493.25833 311.02814Q493.25833 310.45 492.8677 310.075Q492.47708 309.6844 491.85208 309.6844Q491.2427 309.6844 490.82083 310.075Q490.41458 310.46564 490.3052 311.23126L489.2427 311.04376Q489.4302 309.9969 490.1177 309.41876Q490.8052 308.825 491.82083 308.825Q492.52396 308.825 493.1177 309.1375Q493.71146 309.4344 494.02396 309.95Q494.33646 310.46564 494.33646 311.0594Q494.33646 311.60626 494.03958 312.075Q493.7427 312.52814 493.16458 312.79376Q493.91458 312.96564 494.33646 313.52814Q494.75833 314.075 494.75833 314.91876Q494.75833 316.04376 493.9302 316.825Q493.1177 317.60626 491.8677 317.60626Q490.7427 317.60626 489.9927 316.9344Q489.2427 316.2469 489.13333 315.1844ZM496.13333 313.21564Q496.13333 311.6844 496.44583 310.7625Q496.75833 309.825 497.3677 309.325Q497.9927 308.825 498.9302 308.825Q499.6177 308.825 500.13333 309.10626Q500.66458 309.3875 501.00833 309.91876Q501.35208 310.4344 501.53958 311.1844Q501.72708 311.9344 501.72708 313.21564Q501.72708 314.73126 501.41458 315.65314Q501.1177 316.575 500.4927 317.09064Q499.88333 317.59064 498.9302 317.59064Q497.69583 317.59064 496.97708 316.7Q496.13333 315.6375 496.13333 313.21564ZM497.21146 313.21564Q497.21146 315.325 497.71146 316.02814Q498.21146 316.73126 498.9302 316.73126Q499.66458 316.73126 500.14896 316.02814Q500.64896 315.325 500.64896 313.21564Q500.64896 311.09064 500.14896 310.40314Q499.66458 309.7 498.91458 309.7Q498.19583 309.7 497.75833 310.3094Q497.21146 311.09064 497.21146 313.21564ZM503.13333 313.21564Q503.13333 311.6844 503.44583 310.7625Q503.75833 309.825 504.3677 309.325Q504.9927 308.825 505.9302 308.825Q506.6177 308.825 507.13333 309.10626Q507.66458 309.3875 508.00833 309.91876Q508.35208 310.4344 508.53958 311.1844Q508.72708 311.9344 508.72708 313.21564Q508.72708 314.73126 508.41458 315.65314Q508.1177 316.575 507.4927 317.09064Q506.88333 317.59064 505.9302 317.59064Q504.69583 317.59064 503.97708 316.7Q503.13333 315.6375 503.13333 313.21564ZM504.21146 313.21564Q504.21146 315.325 504.71146 316.02814Q505.21146 316.73126 505.9302 316.73126Q506.66458 316.73126 507.14896 316.02814Q507.64896 315.325 507.64896 313.21564Q507.64896 311.09064 507.14896 310.40314Q506.66458 309.7 505.91458 309.7Q505.19583 309.7 504.75833 310.3094Q504.21146 311.09064 504.21146 313.21564Z" fill-rule="nonzero"/><path stroke="#4285f4" stroke-width="4.0" stroke-linecap="butt" d="M173.5 61.916668L185.5 61.916668" fill-rule="nonzero"/><path fill="#1a1a1a" d="M194.29688 65.916664L194.29688 57.322914L195.35938 57.322914L195.35938 62.229164L197.84375 59.697914L199.21875 59.697914L196.82812 61.99479L199.45312 65.916664L198.15625 65.916664L196.09375 62.729164L195.35938 63.447914L195.35938 65.916664L194.29688 65.916664ZM200.0 63.65104L201.0625 63.510414Q201.23438 64.40104 201.67188 64.80729Q202.10938 65.197914 202.73438 65.197914Q203.48438 65.197914 204.0 64.68229Q204.51562 64.166664 204.51562 63.40104Q204.51562 62.68229 204.03125 62.21354Q203.5625 61.729164 202.82812 61.729164Q202.53125 61.729164 202.07812 61.854164L202.20312 60.916664Q202.3125 60.93229 202.375 60.93229Q203.04688 60.93229 203.57812 60.58854Q204.125 60.229164 204.125 59.49479Q204.125 58.916664 203.73438 58.541664Q203.34375 58.15104 202.71875 58.15104Q202.10938 58.15104 201.6875 58.541664Q201.28125 58.93229 201.17188 59.697914L200.10938 59.510414Q200.29688 58.46354 200.98438 57.885414Q201.67188 57.291664 202.6875 57.291664Q203.39062 57.291664 203.98438 57.604164Q204.57812 57.90104 204.89062 58.416664Q205.20312 58.93229 205.20312 59.52604Q205.20312 60.072914 204.90625 60.541664Q204.60938 60.99479 204.03125 61.260414Q204.78125 61.43229 205.20312 61.99479Q205.625 62.541664 205.625 63.385414Q205.625 64.510414 204.79688 65.291664Q203.98438 66.072914 202.73438 66.072914Q201.60938 66.072914 200.85938 65.40104Q200.10938 64.71354 200.0 63.65104ZM206.875 64.05729L207.90625 63.90104Q208.0 64.52604 208.39062 64.854164Q208.79688 65.18229 209.53125 65.18229Q210.25 65.18229 210.59375 64.90104Q210.95312 64.604164 210.95312 64.197914Q210.95312 63.83854 210.64062 63.635414Q210.42188 63.49479 209.5625 63.27604Q208.40625 62.979164 207.95312 62.77604Q207.51562 62.55729 207.28125 62.18229Q207.04688 61.80729 207.04688 61.33854Q207.04688 60.93229 207.23438 60.572914Q207.42188 60.21354 207.75 59.979164Q208.0 59.80729 208.42188 59.68229Q208.84375 59.55729 209.34375 59.55729Q210.0625 59.55729 210.60938 59.77604Q211.17188 59.979164 211.4375 60.33854Q211.70312 60.697914 211.79688 61.291664L210.76562 61.43229Q210.70312 60.96354 210.35938 60.697914Q210.03125 60.416664 209.40625 60.416664Q208.6875 60.416664 208.375 60.666664Q208.0625 60.90104 208.0625 61.229164Q208.0625 61.43229 208.1875 61.58854Q208.32812 61.760414 208.59375 61.86979Q208.75 61.93229 209.53125 62.135414Q210.65625 62.447914 211.09375 62.635414Q211.53125 62.822914 211.78125 63.18229Q212.03125 63.541664 212.03125 64.08854Q212.03125 64.61979 211.71875 65.08854Q211.42188 65.541664 210.84375 65.80729Q210.26562 66.05729 209.53125 66.05729Q208.3125 66.05729 207.67188 65.55729Q207.04688 65.041664 206.875 64.05729ZM217.29688 68.30729L217.29688 59.697914L218.25 59.697914L218.25 60.49479Q218.59375 60.02604 219.01562 59.791664Q219.45312 59.55729 220.0625 59.55729Q220.85938 59.55729 221.46875 59.96354Q222.07812 60.36979 222.375 61.11979Q222.6875 61.86979 222.6875 62.760414Q222.6875 63.71354 222.34375 64.479164Q222.01562 65.24479 221.35938 65.65104Q220.70312 66.05729 219.98438 66.05729Q219.45312 66.05729 219.03125 65.83854Q218.60938 65.604164 218.34375 65.27604L218.34375 68.30729L217.29688 68.30729ZM218.25 62.83854Q218.25 64.041664 218.73438 64.61979Q219.21875 65.18229 219.90625 65.18229Q220.60938 65.18229 221.10938 64.58854Q221.60938 63.99479 221.60938 62.74479Q221.60938 61.55729 221.125 60.979164Q220.64062 60.385414 219.95312 60.385414Q219.28125 60.385414 218.76562 61.010414Q218.25 61.635414 218.25 62.83854ZM224.28125 65.916664L224.28125 59.697914L225.23438 59.697914L225.23438 60.635414Q225.59375 59.979164 225.89062 59.77604Q226.20312 59.55729 226.57812 59.55729Q227.10938 59.55729 227.65625 59.885414L227.29688 60.86979Q226.90625 60.635414 226.53125 60.635414Q226.17188 60.635414 225.89062 60.854164Q225.625 61.05729 225.51562 61.43229Q225.32812 61.99479 225.32812 62.65104L225.32812 65.916664L224.28125 65.916664ZM227.90625 62.80729Q227.90625 61.072914 228.85938 60.24479Q229.65625 59.55729 230.8125 59.55729Q232.09375 59.55729 232.90625 60.40104Q233.73438 61.229164 233.73438 62.71354Q233.73438 63.916664 233.375 64.604164Q233.01562 65.291664 232.3125 65.68229Q231.625 66.05729 230.8125 66.05729Q229.51562 66.05729 228.70312 65.229164Q227.90625 64.385414 227.90625 62.80729ZM228.98438 62.80729Q228.98438 63.99479 229.5 64.58854Q230.03125 65.18229 230.8125 65.18229Q231.60938 65.18229 232.125 64.58854Q232.64062 63.99479 232.64062 62.77604Q232.64062 61.61979 232.10938 61.02604Q231.59375 60.43229 230.8125 60.43229Q230.03125 60.43229 229.5 61.02604Q228.98438 61.604164 228.98438 62.80729Z" fill-rule="nonzero"/><path stroke="#ea4335" stroke-width="4.0" stroke-linecap="butt" d="M250.5 61.916668L262.5 61.916668" fill-rule="nonzero"/><path fill="#1a1a1a" d="M271.29688 65.916664L271.29688 57.322914L272.35938 57.322914L272.35938 62.229164L274.84375 59.697914L276.21875 59.697914L273.82812 61.99479L276.45312 65.916664L275.15625 65.916664L273.09375 62.729164L272.35938 63.447914L272.35938 65.916664L271.29688 65.916664ZM277.0 63.65104L278.0625 63.510414Q278.23438 64.40104 278.67188 64.80729Q279.10938 65.197914 279.73438 65.197914Q280.48438 65.197914 281.0 64.68229Q281.51562 64.166664 281.51562 63.40104Q281.51562 62.68229 281.03125 62.21354Q280.5625 61.729164 279.82812 61.729164Q279.53125 61.729164 279.07812 61.854164L279.20312 60.916664Q279.3125 60.93229 279.375 60.93229Q280.04688 60.93229 280.57812 60.58854Q281.125 60.229164 281.125 59.49479Q281.125 58.916664 280.73438 58.541664Q280.34375 58.15104 279.71875 58.15104Q279.10938 58.15104 278.6875 58.541664Q278.28125 58.93229 278.17188 59.697914L277.10938 59.510414Q277.29688 58.46354 277.98438 57.885414Q278.67188 57.291664 279.6875 57.291664Q280.39062 57.291664 280.98438 57.604164Q281.57812 57.90104 281.89062 58.416664Q282.20312 58.93229 282.20312 59.52604Q282.20312 60.072914 281.90625 60.541664Q281.60938 60.99479 281.03125 61.260414Q281.78125 61.43229 282.20312 61.99479Q282.625 62.541664 282.625 63.385414Q282.625 64.510414 281.79688 65.291664Q280.98438 66.072914 279.73438 66.072914Q278.60938 66.072914 277.85938 65.40104Q277.10938 64.71354 277.0 63.65104ZM283.875 64.05729L284.90625 63.90104Q285.0 64.52604 285.39062 64.854164Q285.79688 65.18229 286.53125 65.18229Q287.25 65.18229 287.59375 64.90104Q287.95312 64.604164 287.95312 64.197914Q287.95312 63.83854 287.64062 63.635414Q287.42188 63.49479 286.5625 63.27604Q285.40625 62.979164 284.95312 62.77604Q284.51562 62.55729 284.28125 62.18229Q284.04688 61.80729 284.04688 61.33854Q284.04688 60.93229 284.23438 60.572914Q284.42188 60.21354 284.75 59.979164Q285.0 59.80729 285.42188 59.68229Q285.84375 59.55729 286.34375 59.55729Q287.0625 59.55729 287.60938 59.77604Q288.17188 59.979164 288.4375 60.33854Q288.70312 60.697914 288.79688 61.291664L287.76562 61.43229Q287.70312 60.96354 287.35938 60.697914Q287.03125 60.416664 286.40625 60.416664Q285.6875 60.416664 285.375 60.666664Q285.0625 60.90104 285.0625 61.229164Q285.0625 61.43229 285.1875 61.58854Q285.32812 61.760414 285.59375 61.86979Q285.75 61.93229 286.53125 62.135414Q287.65625 62.447914 288.09375 62.635414Q288.53125 62.822914 288.78125 63.18229Q289.03125 63.541664 289.03125 64.08854Q289.03125 64.61979 288.71875 65.08854Q288.42188 65.541664 287.84375 65.80729Q287.26562 66.05729 286.53125 66.05729Q285.3125 66.05729 284.67188 65.55729Q284.04688 65.041664 283.875 64.05729ZM293.90625 62.80729Q293.90625 61.072914 294.85938 60.24479Q295.65625 59.55729 296.8125 59.55729Q298.09375 59.55729 298.90625 60.40104Q299.73438 61.229164 299.73438 62.71354Q299.73438 63.916664 299.375 64.604164Q299.01562 65.291664 298.3125 65.68229Q297.625 66.05729 296.8125 66.05729Q295.51562 66.05729 294.70312 65.229164Q293.90625 64.385414 293.90625 62.80729ZM294.98438 62.80729Q294.98438 63.99479 295.5 64.58854Q296.03125 65.18229 296.8125 65.18229Q297.60938 65.18229 298.125 64.58854Q298.64062 63.99479 298.64062 62.77604Q298.64062 61.61979 298.10938 61.02604Q297.59375 60.43229 296.8125 60.43229Q296.03125 60.43229 295.5 61.02604Q294.98438 61.604164 294.98438 62.80729ZM300.875 64.05729L301.90625 63.90104Q302.0 64.52604 302.39062 64.854164Q302.79688 65.18229 303.53125 65.18229Q304.25 65.18229 304.59375 64.90104Q304.95312 64.604164 304.95312 64.197914Q304.95312 63.83854 304.64062 63.635414Q304.42188 63.49479 303.5625 63.27604Q302.40625 62.979164 301.95312 62.77604Q301.51562 62.55729 301.28125 62.18229Q301.04688 61.80729 301.04688 61.33854Q301.04688 60.93229 301.23438 60.572914Q301.42188 60.21354 301.75 59.979164Q302.0 59.80729 302.42188 59.68229Q302.84375 59.55729 303.34375 59.55729Q304.0625 59.55729 304.60938 59.77604Q305.17188 59.979164 305.4375 60.33854Q305.70312 60.697914 305.79688 61.291664L304.76562 61.43229Q304.70312 60.96354 304.35938 60.697914Q304.03125 60.416664 303.40625 60.416664Q302.6875 60.416664 302.375 60.666664Q302.0625 60.90104 302.0625 61.229164Q302.0625 61.43229 302.1875 61.58854Q302.32812 61.760414 302.59375 61.86979Q302.75 61.93229 303.53125 62.135414Q304.65625 62.447914 305.09375 62.635414Q305.53125 62.822914 305.78125 63.18229Q306.03125 63.541664 306.03125 64.08854Q306.03125 64.61979 305.71875 65.08854Q305.42188 65.541664 304.84375 65.80729Q304.26562 66.05729 303.53125 66.05729Q302.3125 66.05729 301.67188 65.55729Q301.04688 65.041664 300.875 64.05729ZM307.875 64.05729L308.90625 63.90104Q309.0 64.52604 309.39062 64.854164Q309.79688 65.18229 310.53125 65.18229Q311.25 65.18229 311.59375 64.90104Q311.95312 64.604164 311.95312 64.197914Q311.95312 63.83854 311.64062 63.635414Q311.42188 63.49479 310.5625 63.27604Q309.40625 62.979164 308.95312 62.77604Q308.51562 62.55729 308.28125 62.18229Q308.04688 61.80729 308.04688 61.33854Q308.04688 60.93229 308.23438 60.572914Q308.42188 60.21354 308.75 59.979164Q309.0 59.80729 309.42188 59.68229Q309.84375 59.55729 310.34375 59.55729Q311.0625 59.55729 311.60938 59.77604Q312.17188 59.979164 312.4375 60.33854Q312.70312 60.697914 312.79688 61.291664L311.76562 61.43229Q311.70312 60.96354 311.35938 60.697914Q311.03125 60.416664 310.40625 60.416664Q309.6875 60.416664 309.375 60.666664Q309.0625 60.90104 309.0625 61.229164Q309.0625 61.43229 309.1875 61.58854Q309.32812 61.760414 309.59375 61.86979Q309.75 61.93229 310.53125 62.135414Q311.65625 62.447914 312.09375 62.635414Q312.53125 62.822914 312.78125 63.18229Q313.03125 63.541664 313.03125 64.08854Q313.03125 64.61979 312.71875 65.08854Q312.42188 65.541664 311.84375 65.80729Q311.26562 66.05729 310.53125 66.05729Q309.3125 66.05729 308.67188 65.55729Q308.04688 65.041664 307.875 64.05729Z" fill-rule="nonzero"/><path stroke="#fbbc04" stroke-width="4.0" stroke-linecap="butt" d="M330.5 61.916668L342.5 61.916668" fill-rule="nonzero"/><path fill="#1a1a1a" d="M351.29688 65.916664L351.29688 57.322914L352.35938 57.322914L352.35938 62.229164L354.84375 59.697914L356.21875 59.697914L353.82812 61.99479L356.45312 65.916664L355.15625 65.916664L353.09375 62.729164L352.35938 63.447914L352.35938 65.916664L351.29688 65.916664ZM357.0 61.68229Q357.0 60.15104 357.3125 59.229164Q357.625 58.291664 358.23438 57.791664Q358.85938 57.291664 359.79688 57.291664Q360.48438 57.291664 361.0 57.572914Q361.53125 57.854164 361.875 58.385414Q362.21875 58.90104 362.40625 59.65104Q362.59375 60.40104 362.59375 61.68229Q362.59375 63.197914 362.28125 64.11979Q361.98438 65.041664 361.35938 65.55729Q360.75 66.05729 359.79688 66.05729Q358.5625 66.05729 357.84375 65.166664Q357.0 64.104164 357.0 61.68229ZM358.07812 61.68229Q358.07812 63.791664 358.57812 64.49479Q359.07812 65.197914 359.79688 65.197914Q360.53125 65.197914 361.01562 64.49479Q361.51562 63.791664 361.51562 61.68229Q361.51562 59.55729 361.01562 58.86979Q360.53125 58.166664 359.78125 58.166664Q359.0625 58.166664 358.625 58.77604Q358.07812 59.55729 358.07812 61.68229ZM363.875 64.05729L364.90625 63.90104Q365.0 64.52604 365.39062 64.854164Q365.79688 65.18229 366.53125 65.18229Q367.25 65.18229 367.59375 64.90104Q367.95312 64.604164 367.95312 64.197914Q367.95312 63.83854 367.64062 63.635414Q367.42188 63.49479 366.5625 63.27604Q365.40625 62.979164 364.95312 62.77604Q364.51562 62.55729 364.28125 62.18229Q364.04688 61.80729 364.04688 61.33854Q364.04688 60.93229 364.23438 60.572914Q364.42188 60.21354 364.75 59.979164Q365.0 59.80729 365.42188 59.68229Q365.84375 59.55729 366.34375 59.55729Q367.0625 59.55729 367.60938 59.77604Q368.17188 59.979164 368.4375 60.33854Q368.70312 60.697914 368.79688 61.291664L367.76562 61.43229Q367.70312 60.96354 367.35938 60.697914Q367.03125 60.416664 366.40625 60.416664Q365.6875 60.416664 365.375 60.666664Q365.0625 60.90104 365.0625 61.229164Q365.0625 61.43229 365.1875 61.58854Q365.32812 61.760414 365.59375 61.86979Q365.75 61.93229 366.53125 62.135414Q367.65625 62.447914 368.09375 62.635414Q368.53125 62.822914 368.78125 63.18229Q369.03125 63.541664 369.03125 64.08854Q369.03125 64.61979 368.71875 65.08854Q368.42188 65.541664 367.84375 65.80729Q367.26562 66.05729 366.53125 66.05729Q365.3125 66.05729 364.67188 65.55729Q364.04688 65.041664 363.875 64.05729Z" fill-rule="nonzero"/><path stroke="#34a853" stroke-width="4.0" stroke-linecap="butt" d="M386.5 61.916668L398.5 61.916668" fill-rule="nonzero"/><path fill="#1a1a1a" d="M407.29688 65.916664L407.29688 57.322914L408.35938 57.322914L408.35938 62.229164L410.84375 59.697914L412.21875 59.697914L409.82812 61.99479L412.45312 65.916664L411.15625 65.916664L409.09375 62.729164L408.35938 63.447914L408.35938 65.916664L407.29688 65.916664ZM414.625 61.260414Q413.96875 61.010414 413.64062 60.572914Q413.32812 60.11979 413.32812 59.510414Q413.32812 58.572914 414.0 57.93229Q414.6875 57.291664 415.79688 57.291664Q416.92188 57.291664 417.60938 57.947914Q418.29688 58.604164 418.29688 59.541664Q418.29688 60.135414 417.98438 60.572914Q417.67188 61.010414 417.03125 61.260414Q417.82812 61.510414 418.23438 62.08854Q418.64062 62.666664 418.64062 63.46354Q418.64062 64.55729 417.85938 65.30729Q417.09375 66.05729 415.8125 66.05729Q414.54688 66.05729 413.76562 65.30729Q412.98438 64.55729 412.98438 63.43229Q412.98438 62.58854 413.40625 62.02604Q413.84375 61.46354 414.625 61.260414ZM414.40625 59.46354Q414.40625 60.072914 414.79688 60.46354Q415.20312 60.854164 415.82812 60.854164Q416.4375 60.854164 416.82812 60.479164Q417.21875 60.08854 417.21875 59.52604Q417.21875 58.947914 416.8125 58.55729Q416.40625 58.15104 415.8125 58.15104Q415.20312 58.15104 414.79688 58.541664Q414.40625 58.93229 414.40625 59.46354ZM414.07812 63.43229Q414.07812 63.885414 414.28125 64.30729Q414.5 64.729164 414.92188 64.96354Q415.34375 65.197914 415.82812 65.197914Q416.57812 65.197914 417.0625 64.71354Q417.5625 64.229164 417.5625 63.479164Q417.5625 62.71354 417.0625 62.21354Q416.5625 61.71354 415.79688 61.71354Q415.04688 61.71354 414.5625 62.21354Q414.07812 62.697914 414.07812 63.43229ZM419.875 64.05729L420.90625 63.90104Q421.0 64.52604 421.39062 64.854164Q421.79688 65.18229 422.53125 65.18229Q423.25 65.18229 423.59375 64.90104Q423.95312 64.604164 423.95312 64.197914Q423.95312 63.83854 423.64062 63.635414Q423.42188 63.49479 422.5625 63.27604Q421.40625 62.979164 420.95312 62.77604Q420.51562 62.55729 420.28125 62.18229Q420.04688 61.80729 420.04688 61.33854Q420.04688 60.93229 420.23438 60.572914Q420.42188 60.21354 420.75 59.979164Q421.0 59.80729 421.42188 59.68229Q421.84375 59.55729 422.34375 59.55729Q423.0625 59.55729 423.60938 59.77604Q424.17188 59.979164 424.4375 60.33854Q424.70312 60.697914 424.79688 61.291664L423.76562 61.43229Q423.70312 60.96354 423.35938 60.697914Q423.03125 60.416664 422.40625 60.416664Q421.6875 60.416664 421.375 60.666664Q421.0625 60.90104 421.0625 61.229164Q421.0625 61.43229 421.1875 61.58854Q421.32812 61.760414 421.59375 61.86979Q421.75 61.93229 422.53125 62.135414Q423.65625 62.447914 424.09375 62.635414Q424.53125 62.822914 424.78125 63.18229Q425.03125 63.541664 425.03125 64.08854Q425.03125 64.61979 424.71875 65.08854Q424.42188 65.541664 423.84375 65.80729Q423.26562 66.05729 422.53125 66.05729Q421.3125 66.05729 420.67188 65.55729Q420.04688 65.041664 419.875 64.05729Z" fill-rule="nonzero"/><path fill="#757575" d="M20.284374 37.55L20.284374 28.55L18.7375 28.55L18.7375 27.175L20.284374 27.175L20.284374 26.08125Q20.284374 25.034374 20.471874 24.51875Q20.721874 23.83125 21.3625 23.409374Q22.003124 22.9875 23.159374 22.9875Q23.909374 22.9875 24.8 23.159374L24.534374 24.690624Q23.9875 24.596874 23.503124 24.596874Q22.70625 24.596874 22.3625 24.940624Q22.034374 25.284374 22.034374 26.221874L22.034374 27.175L24.065624 27.175L24.065624 28.55L22.034374 28.55L22.034374 37.55L20.284374 37.55ZM25.159374 34.45625L26.909374 34.175Q27.05 35.221874 27.721874 35.784374Q28.39375 36.33125 29.596874 36.33125Q30.8 36.33125 31.378124 35.846874Q31.971874 35.346874 31.971874 34.690624Q31.971874 34.096874 31.45625 33.753124Q31.096874 33.51875 29.659374 33.159374Q27.721874 32.659374 26.971874 32.315624Q26.2375 31.95625 25.846874 31.33125Q25.45625 30.690624 25.45625 29.925Q25.45625 29.2375 25.76875 28.64375Q26.096874 28.05 26.64375 27.659374Q27.05 27.3625 27.753124 27.159374Q28.471874 26.940624 29.284374 26.940624Q30.503124 26.940624 31.425 27.3Q32.346874 27.64375 32.784374 28.253124Q33.221874 28.846874 33.39375 29.846874L31.675 30.08125Q31.55 29.284374 30.9875 28.846874Q30.425 28.39375 29.409374 28.39375Q28.190624 28.39375 27.675 28.8Q27.159374 29.190624 27.159374 29.721874Q27.159374 30.065624 27.378124 30.346874Q27.58125 30.628124 28.05 30.815624Q28.315624 30.909374 29.596874 31.253124Q31.471874 31.753124 32.20625 32.08125Q32.940624 32.39375 33.3625 33.003124Q33.784374 33.596874 33.784374 34.503124Q33.784374 35.378124 33.26875 36.159374Q32.753124 36.940624 31.784374 37.3625Q30.815624 37.784374 29.596874 37.784374Q27.58125 37.784374 26.51875 36.940624Q25.45625 36.096874 25.159374 34.45625ZM41.846874 37.55L41.846874 27.175L43.425 27.175L43.425 28.753124Q44.034374 27.64375 44.55 27.3Q45.065624 26.940624 45.675 26.940624Q46.565624 26.940624 47.4875 27.503124L46.878124 29.14375Q46.2375 28.753124 45.596874 28.753124Q45.01875 28.753124 44.55 29.1125Q44.096874 29.45625 43.89375 30.065624Q43.6125 31.003124 43.6125 32.1125L43.6125 37.55L41.846874 37.55ZM55.971874 34.20625L57.784374 34.440624Q57.3625 36.01875 56.190624 36.909374Q55.034374 37.784374 53.221874 37.784374Q50.95625 37.784374 49.6125 36.39375Q48.284374 34.9875 48.284374 32.45625Q48.284374 29.83125 49.628124 28.39375Q50.971874 26.940624 53.128124 26.940624Q55.20625 26.940624 56.51875 28.3625Q57.846874 29.76875 57.846874 32.346874Q57.846874 32.503124 57.83125 32.815624L50.096874 32.815624Q50.190624 34.51875 51.065624 35.425Q51.940624 36.33125 53.2375 36.33125Q54.20625 36.33125 54.878124 35.83125Q55.565624 35.315624 55.971874 34.20625ZM50.190624 31.3625L55.9875 31.3625Q55.878124 30.065624 55.33125 29.409374Q54.4875 28.39375 53.14375 28.39375Q51.940624 28.39375 51.1125 29.20625Q50.284374 30.003124 50.190624 31.3625ZM66.64375 36.26875Q65.65938 37.096874 64.75313 37.440624Q63.846874 37.784374 62.815624 37.784374Q61.1125 37.784374 60.190624 36.95625Q59.26875 36.1125 59.26875 34.815624Q59.26875 34.05 59.6125 33.425Q59.971874 32.8 60.534374 32.425Q61.096874 32.034374 61.8 31.83125Q62.315624 31.70625 63.3625 31.565624Q65.4875 31.315624 66.4875 30.971874Q66.50313 30.6125 66.50313 30.503124Q66.50313 29.440624 66.00313 28.9875Q65.33125 28.39375 64.00313 28.39375Q62.753124 28.39375 62.159374 28.83125Q61.58125 29.26875 61.3 30.378124L59.58125 30.14375Q59.815624 29.034374 60.346874 28.3625Q60.878124 27.675 61.89375 27.315624Q62.909374 26.940624 64.25313 26.940624Q65.58125 26.940624 66.40938 27.253124Q67.2375 27.565624 67.62813 28.05Q68.01875 28.51875 68.175 29.2375Q68.26875 29.690624 68.26875 30.8625L68.26875 33.20625Q68.26875 35.659374 68.37813 36.315624Q68.4875 36.95625 68.83125 37.55L66.9875 37.55Q66.72188 37.003124 66.64375 36.26875ZM66.4875 32.346874Q65.53438 32.7375 63.6125 33.003124Q62.534374 33.159374 62.08125 33.3625Q61.64375 33.55 61.39375 33.925Q61.14375 34.3 61.14375 34.76875Q61.14375 35.471874 61.675 35.940624Q62.20625 36.409374 63.2375 36.409374Q64.25313 36.409374 65.03438 35.971874Q65.83125 35.51875 66.20625 34.753124Q66.4875 34.14375 66.4875 32.9875L66.4875 32.346874ZM77.59688 37.55L77.59688 36.2375Q76.6125 37.784374 74.69063 37.784374Q73.45625 37.784374 72.40938 37.096874Q71.37813 36.409374 70.8 35.190624Q70.2375 33.971874 70.2375 32.378124Q70.2375 30.815624 70.75313 29.55Q71.26875 28.284374 72.3 27.6125Q73.34688 26.940624 74.6125 26.940624Q75.55 26.940624 76.28438 27.346874Q77.01875 27.7375 77.4875 28.3625L77.4875 23.2375L79.22188 23.2375L79.22188 37.55L77.59688 37.55ZM72.03438 32.378124Q72.03438 34.3625 72.87813 35.346874Q73.72188 36.33125 74.8625 36.33125Q76.01875 36.33125 76.81563 35.39375Q77.62813 34.45625 77.62813 32.51875Q77.62813 30.39375 76.8 29.39375Q75.9875 28.39375 74.78438 28.39375Q73.6125 28.39375 72.81563 29.3625Q72.03438 30.315624 72.03438 32.378124ZM87.22188 32.3625Q87.22188 29.4875 88.81563 28.096874Q90.15938 26.940624 92.08125 26.940624Q94.22188 26.940624 95.56563 28.346874Q96.925 29.753124 96.925 32.221874Q96.925 34.221874 96.33125 35.378124Q95.7375 36.51875 94.58125 37.159374Q93.44063 37.784374 92.08125 37.784374Q89.89375 37.784374 88.55 36.39375Q87.22188 34.9875 87.22188 32.3625ZM89.01875 32.3625Q89.01875 34.3625 89.87813 35.346874Q90.75313 36.33125 92.08125 36.33125Q93.39375 36.33125 94.25313 35.346874Q95.12813 34.346874 95.12813 32.3Q95.12813 30.378124 94.25313 29.39375Q93.37813 28.39375 92.08125 28.39375Q90.75313 28.39375 89.87813 29.39375Q89.01875 30.378124 89.01875 32.3625ZM101.75313 37.55L97.8 27.175L99.65938 27.175L101.89375 33.39375Q102.25313 34.39375 102.55 35.471874Q102.78438 34.659374 103.20625 33.503124L105.50313 27.175L107.31563 27.175L103.39375 37.55L101.75313 37.55ZM114.97188 34.20625L116.78438 34.440624Q116.3625 36.01875 115.19063 36.909374Q114.03438 37.784374 112.22188 37.784374Q109.95625 37.784374 108.6125 36.39375Q107.28438 34.9875 107.28438 32.45625Q107.28438 29.83125 108.62813 28.39375Q109.97188 26.940624 112.12813 26.940624Q114.20625 26.940624 115.51875 28.3625Q116.84688 29.76875 116.84688 32.346874Q116.84688 32.503124 116.83125 32.815624L109.09688 32.815624Q109.19063 34.51875 110.06563 35.425Q110.94063 36.33125 112.2375 36.33125Q113.20625 36.33125 113.87813 35.83125Q114.56563 35.315624 114.97188 34.20625ZM109.19063 31.3625L114.9875 31.3625Q114.87813 30.065624 114.33125 29.409374Q113.4875 28.39375 112.14375 28.39375Q110.94063 28.39375 110.1125 29.20625Q109.28438 30.003124 109.19063 31.3625ZM118.84688 37.55L118.84688 27.175L120.425 27.175L120.425 28.753124Q121.03438 27.64375 121.55 27.3Q122.06563 26.940624 122.675 26.940624Q123.56563 26.940624 124.4875 27.503124L123.87813 29.14375Q123.2375 28.753124 122.59688 28.753124Q122.01875 28.753124 121.55 29.1125Q121.09688 29.45625 120.89375 30.065624Q120.6125 31.003124 120.6125 32.1125L120.6125 37.55L118.84688 37.55ZM135.70625 35.971874L135.95625 37.534374Q135.22188 37.690624 134.62813 37.690624Q133.675 37.690624 133.14375 37.39375Q132.62813 37.08125 132.40938 36.596874Q132.19063 36.096874 132.19063 34.51875L132.19063 28.55L130.90938 28.55L130.90938 27.175L132.19063 27.175L132.19063 24.6125L133.94063 23.55L133.94063 27.175L135.70625 27.175L135.70625 28.55L133.94063 28.55L133.94063 34.6125Q133.94063 35.3625 134.03438 35.58125Q134.12813 35.784374 134.33125 35.925Q134.55 36.05 134.94063 36.05Q135.22188 36.05 135.70625 35.971874ZM137.87813 25.253124L137.87813 23.2375L139.64375 23.2375L139.64375 25.253124L137.87813 25.253124ZM137.87813 37.55L137.87813 27.175L139.64375 27.175L139.64375 37.55L137.87813 37.55ZM141.8625 37.55L141.8625 27.175L143.44063 27.175L143.44063 28.628124Q143.925 27.878124 144.7375 27.409374Q145.55 26.940624 146.58125 26.940624Q147.7375 26.940624 148.47188 27.425Q149.20625 27.89375 149.51875 28.753124Q150.75313 26.940624 152.72188 26.940624Q154.26875 26.940624 155.09688 27.8Q155.925 28.659374 155.925 30.425L155.925 37.55L154.175 37.55L154.175 31.01875Q154.175 29.95625 154.00313 29.503124Q153.83125 29.034374 153.37813 28.753124Q152.94063 28.471874 152.33125 28.471874Q151.2375 28.471874 150.50313 29.20625Q149.78438 29.925 149.78438 31.51875L149.78438 37.55L148.03438 37.55L148.03438 30.815624Q148.03438 29.64375 147.59688 29.065624Q147.175 28.471874 146.19063 28.471874Q145.45625 28.471874 144.81563 28.8625Q144.19063 29.253124 143.90938 30.003124Q143.62813 30.753124 143.62813 32.175L143.62813 37.55L141.8625 37.55ZM164.97188 34.20625L166.78438 34.440624Q166.3625 36.01875 165.19063 36.909374Q164.03438 37.784374 162.22188 37.784374Q159.95625 37.784374 158.6125 36.39375Q157.28438 34.9875 157.28438 32.45625Q157.28438 29.83125 158.62813 28.39375Q159.97188 26.940624 162.12813 26.940624Q164.20625 26.940624 165.51875 28.3625Q166.84688 29.76875 166.84688 32.346874Q166.84688 32.503124 166.83125 32.815624L159.09688 32.815624Q159.19063 34.51875 160.06563 35.425Q160.94063 36.33125 162.2375 36.33125Q163.20625 36.33125 163.87813 35.83125Q164.56563 35.315624 164.97188 34.20625ZM159.19063 31.3625L164.9875 31.3625Q164.87813 30.065624 164.33125 29.409374Q163.4875 28.39375 162.14375 28.39375Q160.94063 28.39375 160.1125 29.20625Q159.28438 30.003124 159.19063 31.3625ZM178.22188 41.753124Q176.76875 39.925 175.76875 37.471874Q174.76875 35.003124 174.76875 32.3625Q174.76875 30.034374 175.51875 27.909374Q176.39375 25.440624 178.22188 22.9875L179.4875 22.9875Q178.3 25.01875 177.925 25.89375Q177.33125 27.2375 176.9875 28.70625Q176.56563 30.534374 176.56563 32.378124Q176.56563 37.065624 179.4875 41.753124L178.22188 41.753124ZM181.87813 25.253124L181.87813 23.2375L183.64375 23.2375L183.64375 25.253124L181.87813 25.253124ZM181.87813 37.55L181.87813 27.175L183.64375 27.175L183.64375 37.55L181.87813 37.55ZM185.8625 37.55L185.8625 27.175L187.45625 27.175L187.45625 28.659374Q188.59688 26.940624 190.75313 26.940624Q191.69063 26.940624 192.47188 27.284374Q193.26875 27.6125 193.65938 28.159374Q194.05 28.70625 194.20625 29.45625Q194.3 29.95625 194.3 31.175L194.3 37.55L192.53438 37.55L192.53438 31.2375Q192.53438 30.159374 192.33125 29.628124Q192.12813 29.096874 191.59688 28.784374Q191.08125 28.471874 190.37813 28.471874Q189.25313 28.471874 188.44063 29.190624Q187.62813 29.89375 187.62813 31.878124L187.62813 37.55L185.8625 37.55ZM202.03438 37.55L202.03438 23.2375L204.89375 23.2375L208.26875 33.3625Q208.7375 34.784374 208.95625 35.4875Q209.20625 34.70625 209.72188 33.190624L213.14375 23.2375L215.69063 23.2375L215.69063 37.55L213.87813 37.55L213.87813 25.565624L209.70625 37.55L208.00313 37.55L203.8625 25.3625L203.8625 37.55L202.03438 37.55ZM219.01875 37.55L219.01875 23.2375L224.39375 23.2375Q226.03438 23.2375 227.01875 23.675Q228.00313 24.096874 228.56563 25.003124Q229.12813 25.909374 229.12813 26.89375Q229.12813 27.815624 228.62813 28.628124Q228.14375 29.440624 227.12813 29.925Q228.425 30.315624 229.12813 31.2375Q229.83125 32.14375 229.83125 33.39375Q229.83125 34.409374 229.39375 35.26875Q228.97188 36.128124 228.34688 36.596874Q227.72188 37.065624 226.78438 37.315624Q225.84688 37.55 224.47188 37.55L219.01875 37.55ZM220.90938 29.253124L224.00313 29.253124Q225.26875 29.253124 225.81563 29.08125Q226.53438 28.8625 226.89375 28.378124Q227.26875 27.878124 227.26875 27.1125Q227.26875 26.409374 226.925 25.8625Q226.58125 25.315624 225.94063 25.128124Q225.31563 24.925 223.76875 24.925L220.90938 24.925L220.90938 29.253124ZM220.90938 35.8625L224.47188 35.8625Q225.39375 35.8625 225.76875 35.784374Q226.425 35.675 226.8625 35.409374Q227.3 35.128124 227.58125 34.6125Q227.8625 34.08125 227.8625 33.39375Q227.8625 32.596874 227.45625 32.003124Q227.05 31.409374 226.31563 31.175Q225.58125 30.940624 224.22188 30.940624L220.90938 30.940624L220.90938 35.8625ZM230.55 37.8L234.70625 22.9875L236.1125 22.9875L231.97188 37.8L230.55 37.8ZM237.15938 34.45625L238.90938 34.175Q239.05 35.221874 239.72188 35.784374Q240.39375 36.33125 241.59688 36.33125Q242.8 36.33125 243.37813 35.846874Q243.97188 35.346874 243.97188 34.690624Q243.97188 34.096874 243.45625 33.753124Q243.09688 33.51875 241.65938 33.159374Q239.72188 32.659374 238.97188 32.315624Q238.2375 31.95625 237.84688 31.33125Q237.45625 30.690624 237.45625 29.925Q237.45625 29.2375 237.76875 28.64375Q238.09688 28.05 238.64375 27.659374Q239.05 27.3625 239.75313 27.159374Q240.47188 26.940624 241.28438 26.940624Q242.50313 26.940624 243.425 27.3Q244.34688 27.64375 244.78438 28.253124Q245.22188 28.846874 245.39375 29.846874L243.675 30.08125Q243.55 29.284374 242.9875 28.846874Q242.425 28.39375 241.40938 28.39375Q240.19063 28.39375 239.675 28.8Q239.15938 29.190624 239.15938 29.721874Q239.15938 30.065624 239.37813 30.346874Q239.58125 30.628124 240.05 30.815624Q240.31563 30.909374 241.59688 31.253124Q243.47188 31.753124 244.20625 32.08125Q244.94063 32.39375 245.3625 33.003124Q245.78438 33.596874 245.78438 34.503124Q245.78438 35.378124 245.26875 36.159374Q244.75313 36.940624 243.78438 37.3625Q242.81563 37.784374 241.59688 37.784374Q239.58125 37.784374 238.51875 36.940624Q237.45625 36.096874 237.15938 34.45625ZM249.01875 41.753124L247.76875 41.753124Q250.675 37.065624 250.675 32.378124Q250.675 30.534374 250.26875 28.7375Q249.925 27.26875 249.33125 25.925Q248.95625 25.034374 247.76875 22.9875L249.01875 22.9875Q250.8625 25.440624 251.7375 27.909374Q252.4875 30.034374 252.4875 32.3625Q252.4875 35.003124 251.47188 37.471874Q250.47188 39.925 249.01875 41.753124ZM264.22186 41.753124Q262.76874 39.925 261.76874 37.471874Q260.76874 35.003124 260.76874 32.3625Q260.76874 30.034374 261.51874 27.909374Q262.39374 25.440624 264.22186 22.9875L265.4875 22.9875Q264.3 25.01875 263.925 25.89375Q263.33124 27.2375 262.9875 28.70625Q262.5656 30.534374 262.5656 32.378124Q262.5656 37.065624 265.4875 41.753124L264.22186 41.753124ZM267.8781 25.253124L267.8781 23.2375L269.64374 23.2375L269.64374 25.253124L267.8781 25.253124ZM267.8781 37.55L267.8781 27.175L269.64374 27.175L269.64374 37.55L267.8781 37.55ZM271.8625 37.55L271.8625 27.175L273.45624 27.175L273.45624 28.659374Q274.59686 26.940624 276.7531 26.940624Q277.6906 26.940624 278.47186 27.284374Q279.26874 27.6125 279.65936 28.159374Q280.05 28.70625 280.20624 29.45625Q280.3 29.95625 280.3 31.175L280.3 37.55L278.53436 37.55L278.53436 31.2375Q278.53436 30.159374 278.33124 29.628124Q278.1281 29.096874 277.59686 28.784374Q277.08124 28.471874 276.3781 28.471874Q275.2531 28.471874 274.4406 29.190624Q273.6281 29.89375 273.6281 31.878124L273.6281 37.55L271.8625 37.55ZM285.70624 35.971874L285.95624 37.534374Q285.22186 37.690624 284.6281 37.690624Q283.675 37.690624 283.14374 37.39375Q282.6281 37.08125 282.40936 36.596874Q282.1906 36.096874 282.1906 34.51875L282.1906 28.55L280.90936 28.55L280.90936 27.175L282.1906 27.175L282.1906 24.6125L283.9406 23.55L283.9406 27.175L285.70624 27.175L285.70624 28.55L283.9406 28.55L283.9406 34.6125Q283.9406 35.3625 284.03436 35.58125Q284.1281 35.784374 284.33124 35.925Q284.55 36.05 284.9406 36.05Q285.22186 36.05 285.70624 35.971874ZM294.97186 34.20625L296.78436 34.440624Q296.3625 36.01875 295.1906 36.909374Q294.03436 37.784374 292.22186 37.784374Q289.95624 37.784374 288.6125 36.39375Q287.28436 34.9875 287.28436 32.45625Q287.28436 29.83125 288.6281 28.39375Q289.97186 26.940624 292.1281 26.940624Q294.20624 26.940624 295.51874 28.3625Q296.84686 29.76875 296.84686 32.346874Q296.84686 32.503124 296.83124 32.815624L289.09686 32.815624Q289.1906 34.51875 290.0656 35.425Q290.9406 36.33125 292.2375 36.33125Q293.20624 36.33125 293.8781 35.83125Q294.5656 35.315624 294.97186 34.20625ZM289.1906 31.3625L294.9875 31.3625Q294.8781 30.065624 294.33124 29.409374Q293.4875 28.39375 292.14374 28.39375Q290.9406 28.39375 290.1125 29.20625Q289.28436 30.003124 289.1906 31.3625ZM298.8625 37.55L298.8625 27.175L300.45624 27.175L300.45624 28.659374Q301.59686 26.940624 303.7531 26.940624Q304.6906 26.940624 305.47186 27.284374Q306.26874 27.6125 306.65936 28.159374Q307.05 28.70625 307.20624 29.45625Q307.3 29.95625 307.3 31.175L307.3 37.55L305.53436 37.55L305.53436 31.2375Q305.53436 30.159374 305.33124 29.628124Q305.1281 29.096874 304.59686 28.784374Q304.08124 28.471874 303.3781 28.471874Q302.2531 28.471874 301.4406 29.190624Q300.6281 29.89375 300.6281 31.878124L300.6281 37.55L298.8625 37.55ZM308.15936 34.45625L309.90936 34.175Q310.05 35.221874 310.72186 35.784374Q311.39374 36.33125 312.59686 36.33125Q313.8 36.33125 314.3781 35.846874Q314.97186 35.346874 314.97186 34.690624Q314.97186 34.096874 314.45624 33.753124Q314.09686 33.51875 312.65936 33.159374Q310.72186 32.659374 309.97186 32.315624Q309.2375 31.95625 308.84686 31.33125Q308.45624 30.690624 308.45624 29.925Q308.45624 29.2375 308.76874 28.64375Q309.09686 28.05 309.64374 27.659374Q310.05 27.3625 310.7531 27.159374Q311.47186 26.940624 312.28436 26.940624Q313.5031 26.940624 314.425 27.3Q315.34686 27.64375 315.78436 28.253124Q316.22186 28.846874 316.39374 29.846874L314.675 30.08125Q314.55 29.284374 313.9875 28.846874Q313.425 28.39375 312.40936 28.39375Q311.1906 28.39375 310.675 28.8Q310.15936 29.190624 310.15936 29.721874Q310.15936 30.065624 310.3781 30.346874Q310.58124 30.628124 311.05 30.815624Q311.3156 30.909374 312.59686 31.253124Q314.47186 31.753124 315.20624 32.08125Q315.9406 32.39375 316.3625 33.003124Q316.78436 33.596874 316.78436 34.503124Q316.78436 35.378124 316.26874 36.159374Q315.7531 36.940624 314.78436 37.3625Q313.8156 37.784374 312.59686 37.784374Q310.58124 37.784374 309.51874 36.940624Q308.45624 36.096874 308.15936 34.45625ZM318.8781 25.253124L318.8781 23.2375L320.64374 23.2375L320.64374 25.253124L318.8781 25.253124ZM318.8781 37.55L318.8781 27.175L320.64374 27.175L320.64374 37.55L318.8781 37.55ZM325.7531 37.55L321.8 27.175L323.65936 27.175L325.89374 33.39375Q326.2531 34.39375 326.55 35.471874Q326.78436 34.659374 327.20624 33.503124L329.5031 27.175L331.3156 27.175L327.39374 37.55L325.7531 37.55ZM338.97186 34.20625L340.78436 34.440624Q340.3625 36.01875 339.1906 36.909374Q338.03436 37.784374 336.22186 37.784374Q333.95624 37.784374 332.6125 36.39375Q331.28436 34.9875 331.28436 32.45625Q331.28436 29.83125 332.6281 28.39375Q333.97186 26.940624 336.1281 26.940624Q338.20624 26.940624 339.51874 28.3625Q340.84686 29.76875 340.84686 32.346874Q340.84686 32.503124 340.83124 32.815624L333.09686 32.815624Q333.1906 34.51875 334.0656 35.425Q334.9406 36.33125 336.2375 36.33125Q337.20624 36.33125 337.8781 35.83125Q338.5656 35.315624 338.97186 34.20625ZM333.1906 31.3625L338.9875 31.3625Q338.8781 30.065624 338.33124 29.409374Q337.4875 28.39375 336.14374 28.39375Q334.9406 28.39375 334.1125 29.20625Q333.28436 30.003124 333.1906 31.3625ZM355.65936 37.55L355.65936 36.01875Q354.45624 37.784374 352.3781 37.784374Q351.45624 37.784374 350.65936 37.440624Q349.8625 37.08125 349.47186 36.55Q349.09686 36.01875 348.9406 35.2375Q348.83124 34.721874 348.83124 33.596874L348.83124 27.175L350.58124 27.175L350.58124 32.925Q350.58124 34.3 350.6906 34.784374Q350.8625 35.471874 351.39374 35.878124Q351.9406 36.26875 352.72186 36.26875Q353.51874 36.26875 354.20624 35.8625Q354.90936 35.45625 355.1906 34.76875Q355.4875 34.065624 355.4875 32.7375L355.4875 27.175L357.2375 27.175L357.2375 37.55L355.65936 37.55ZM358.15936 34.45625L359.90936 34.175Q360.05 35.221874 360.72186 35.784374Q361.39374 36.33125 362.59686 36.33125Q363.8 36.33125 364.3781 35.846874Q364.97186 35.346874 364.97186 34.690624Q364.97186 34.096874 364.45624 33.753124Q364.09686 33.51875 362.65936 33.159374Q360.72186 32.659374 359.97186 32.315624Q359.2375 31.95625 358.84686 31.33125Q358.45624 30.690624 358.45624 29.925Q358.45624 29.2375 358.76874 28.64375Q359.09686 28.05 359.64374 27.659374Q360.05 27.3625 360.7531 27.159374Q361.47186 26.940624 362.28436 26.940624Q363.5031 26.940624 364.425 27.3Q365.34686 27.64375 365.78436 28.253124Q366.22186 28.846874 366.39374 29.846874L364.675 30.08125Q364.55 29.284374 363.9875 28.846874Q363.425 28.39375 362.40936 28.39375Q361.1906 28.39375 360.675 28.8Q360.15936 29.190624 360.15936 29.721874Q360.15936 30.065624 360.3781 30.346874Q360.58124 30.628124 361.05 30.815624Q361.3156 30.909374 362.59686 31.253124Q364.47186 31.753124 365.20624 32.08125Q365.9406 32.39375 366.3625 33.003124Q366.78436 33.596874 366.78436 34.503124Q366.78436 35.378124 366.26874 36.159374Q365.7531 36.940624 364.78436 37.3625Q363.8156 37.784374 362.59686 37.784374Q360.58124 37.784374 359.51874 36.940624Q358.45624 36.096874 358.15936 34.45625ZM375.64374 36.26875Q374.65936 37.096874 373.7531 37.440624Q372.84686 37.784374 371.8156 37.784374Q370.1125 37.784374 369.1906 36.95625Q368.26874 36.1125 368.26874 34.815624Q368.26874 34.05 368.6125 33.425Q368.97186 32.8 369.53436 32.425Q370.09686 32.034374 370.8 31.83125Q371.3156 31.70625 372.3625 31.565624Q374.4875 31.315624 375.4875 30.971874Q375.5031 30.6125 375.5031 30.503124Q375.5031 29.440624 375.0031 28.9875Q374.33124 28.39375 373.0031 28.39375Q371.7531 28.39375 371.15936 28.83125Q370.58124 29.26875 370.3 30.378124L368.58124 30.14375Q368.8156 29.034374 369.34686 28.3625Q369.8781 27.675 370.89374 27.315624Q371.90936 26.940624 373.2531 26.940624Q374.58124 26.940624 375.40936 27.253124Q376.2375 27.565624 376.6281 28.05Q377.01874 28.51875 377.175 29.2375Q377.26874 29.690624 377.26874 30.8625L377.26874 33.20625Q377.26874 35.659374 377.3781 36.315624Q377.4875 36.95625 377.83124 37.55L375.9875 37.55Q375.72186 37.003124 375.64374 36.26875ZM375.4875 32.346874Q374.53436 32.7375 372.6125 33.003124Q371.53436 33.159374 371.08124 33.3625Q370.64374 33.55 370.39374 33.925Q370.14374 34.3 370.14374 34.76875Q370.14374 35.471874 370.675 35.940624Q371.20624 36.409374 372.2375 36.409374Q373.2531 36.409374 374.03436 35.971874Q374.83124 35.51875 375.20624 34.753124Q375.4875 34.14375 375.4875 32.9875L375.4875 32.346874ZM379.55 38.409374L381.2531 38.659374Q381.3625 39.45625 381.84686 39.815624Q382.5031 40.3 383.64374 40.3Q384.8625 40.3 385.51874 39.815624Q386.1906 39.33125 386.425 38.45625Q386.5656 37.909374 386.55 36.190624Q385.39374 37.55 383.675 37.55Q381.53436 37.55 380.3625 36.003124Q379.1906 34.45625 379.1906 32.3Q379.1906 30.815624 379.72186 29.565624Q380.26874 28.315624 381.28436 27.628124Q382.3156 26.940624 383.6906 26.940624Q385.51874 26.940624 386.72186 28.425L386.72186 27.175L388.33124 27.175L388.33124 36.14375Q388.33124 38.565624 387.83124 39.565624Q387.34686 40.58125 386.26874 41.159374Q385.20624 41.753124 383.64374 41.753124Q381.8 41.753124 380.64374 40.925Q379.5031 40.096874 379.55 38.409374ZM381.0031 32.175Q381.0031 34.221874 381.8156 35.159374Q382.6281 36.096874 383.84686 36.096874Q385.05 36.096874 385.8625 35.159374Q386.6906 34.221874 386.6906 32.2375Q386.6906 30.33125 385.84686 29.3625Q385.0031 28.39375 383.8156 28.39375Q382.64374 28.39375 381.8156 29.346874Q381.0031 30.3 381.0031 32.175ZM397.97186 34.20625L399.78436 34.440624Q399.3625 36.01875 398.1906 36.909374Q397.03436 37.784374 395.22186 37.784374Q392.95624 37.784374 391.6125 36.39375Q390.28436 34.9875 390.28436 32.45625Q390.28436 29.83125 391.6281 28.39375Q392.97186 26.940624 395.1281 26.940624Q397.20624 26.940624 398.51874 28.3625Q399.84686 29.76875 399.84686 32.346874Q399.84686 32.503124 399.83124 32.815624L392.09686 32.815624Q392.1906 34.51875 393.0656 35.425Q393.9406 36.33125 395.2375 36.33125Q396.20624 36.33125 396.8781 35.83125Q397.5656 35.315624 397.97186 34.20625ZM392.1906 31.3625L397.9875 31.3625Q397.8781 30.065624 397.33124 29.409374Q396.4875 28.39375 395.14374 28.39375Q393.9406 28.39375 393.1125 29.20625Q392.28436 30.003124 392.1906 31.3625ZM403.01874 41.753124L401.76874 41.753124Q404.675 37.065624 404.675 32.378124Q404.675 30.534374 404.26874 28.7375Q403.925 27.26875 403.33124 25.925Q402.95624 25.034374 401.76874 22.9875L403.01874 22.9875Q404.8625 25.440624 405.7375 27.909374Q406.4875 30.034374 406.4875 32.3625Q406.4875 35.003124 405.47186 37.471874Q404.47186 39.925 403.01874 41.753124Z" fill-rule="nonzero"/></svg>