<svg version="1.1" viewBox="0.0 0.0 600.0 371.0" fill="none" stroke="none" stroke-linecap="square" stroke-miterlimit="10" width="600" height="371" xmlns:xlink="http://www.w3.org/1999/xlink" xmlns="http://www.w3.org/2000/svg"><path fill="#ffffff" d="M0 0L600.0 0L600.0 371.0L0 371.0L0 0Z" fill-rule="nonzero"/><path stroke="#333333" stroke-width="1.0" stroke-linecap="butt" d="M77.5 88.5L77.5 300.5" fill-rule="nonzero"/><path stroke="#cccccc" stroke-width="1.0" stroke-linecap="butt" d="M206.5 88.5L206.5 300.5" fill-rule="nonzero"/><path stroke="#cccccc" stroke-width="1.0" stroke-linecap="butt" d="M335.5 88.5L335.5 300.5" fill-rule="nonzero"/><path stroke="#cccccc" stroke-width="1.0" stroke-linecap="butt" d="M465.5 88.5L465.5 300.5" fill-rule="nonzero"/><path stroke="#333333" stroke-width="1.0" stroke-linecap="butt" d="M77.5 300.5L581.5 300.5" fill-rule="nonzero"/><path stroke="#cccccc" stroke-width="1.0" stroke-linecap="butt" d="M77.5 247.5L581.5 247.5" fill-rule="nonzero"/><path stroke="#cccccc" stroke-width="1.0" stroke-linecap="butt" d="M77.5 194.5L581.5 194.5" fill-rule="nonzero"/><path stroke="#cccccc" stroke-width="1.0" stroke-linecap="butt" d="M77.5 141.5L581.5 141.5" fill-rule="nonzero"/><path stroke="#cccccc" stroke-width="1.0" stroke-linecap="butt" d="M77.5 88.5L581.5 88.5" fill-rule="nonzero"/><clipPath id="id_0"><path d="M77.55 88.28333L581.45 88.28333L581.45 300.45L77.55 300.45L77.55 88.28333Z" clip-rule="nonzero"/></clipPath><path stroke="#4285f4" stroke-width="2.0" stroke-linecap="butt" clip-path="url(#id_0)" d="M77.55 90.195755L116.31154 90.195755L155.07307 90.195755L193.83461 90.195755L232.59616 90.195755L271.3577 90.195755L310.11923 90.195755L348.88077 90.195755L387.6423 90.195755L426.40384 90.195755L465.16537 90.195755L503.9269 90.195755L542.6885 90.195755L581.45 90.195755" fill-rule="nonzero"/><path stroke="#ea4335" stroke-width="2.0" stroke-linecap="butt" clip-path="url(#id_0)" d="M77.55 91.14735L116.31154 91.14735L155.07307 91.14735L193.83461 91.14735L232.59616 91.14735L271.3577 91.14735L310.11923 91.14735L348.88077 91.14735L387.6423 91.14735L426.40384 91.14735L465.16537 91.14735L503.9269 91.14735L542.6885 91.14735L581.45 91.14735" fill-rule="nonzero"/><path stroke="#fbbc04" stroke-width="2.0" stroke-linecap="butt" clip-path="url(#id_0)" d="M77.55 128.73418L116.31154 128.73418L155.07307 128.73418L193.83461 128.73418L232.59616 128.73418L271.3577 128.73418L310.11923 128.73418L348.88077 128.73418L387.6423 128.73418L426.40384 128.73418L465.16537 128.73418L503.9269 128.73418L542.6885 128.73418L581.45 128.73418" fill-rule="nonzero"/><path stroke="#34a853" stroke-width="2.0" stroke-linecap="butt" clip-path="url(#id_0)" d="M77.55 145.40878L116.31154 145.34035L155.07307 143.59576L193.83461 142.24115L232.59616 141.8957L271.3577 138.61401L310.11923 137.91444L348.88077 137.51035L387.6423 137.47124L426.40384 137.03455L465.16537 136.81078L503.9269 136.72061L542.6885 136.58809L581.45 135.94717" fill-rule="nonzero"/><path fill="#000000" fill-opacity="0.0" clip-path="url(#id_0)" d="M80.55 90.195755C80.55 91.85261 79.206856 93.195755 77.55 93.195755C75.89314 93.195755 74.55 91.85261 74.55 90.195755C74.55 88.5389 75.89314 87.195755 77.55 87.195755C79.206856 87.195755 80.55 88.5389 80.55 90.195755Z" fill-rule="nonzero"/><path fill="#000000" fill-opacity="0.0" clip-path="url(#id_0)" d="M119.31154 90.195755C119.31154 91.85261 117.96839 93.195755 116.31154 93.195755C114.654686 93.195755 113.31154 91.85261 113.31154 90.195755C113.31154 88.5389 114.654686 87.195755 116.31154 87.195755C117.96839 87.195755 119.31154 88.5389 119.31154 90.195755Z" fill-rule="nonzero"/><path fill="#000000" fill-opacity="0.0" clip-path="url(#id_0)" d="M158.07307 90.195755C158.07307 91.85261 156.72993 93.195755 155.07307 93.195755C153.41623 93.195755 152.07307 91.85261 152.07307 90.195755C152.07307 88.5389 153.41623 87.195755 155.07307 87.195755C156.72993 87.195755 158.07307 88.5389 158.07307 90.195755Z" fill-rule="nonzero"/><path fill="#000000" fill-opacity="0.0" clip-path="url(#id_0)" d="M196.83461 90.195755C196.83461 91.85261 195.49147 93.195755 193.83461 93.195755C192.17776 93.195755 190.83461 91.85261 190.83461 90.195755C190.83461 88.5389 192.17776 87.195755 193.83461 87.195755C195.49147 87.195755 196.83461 88.5389 196.83461 90.195755Z" fill-rule="nonzero"/><path fill="#000000" fill-opacity="0.0" clip-path="url(#id_0)" d="M235.59616 90.195755C235.59616 91.85261 234.253 93.195755 232.59616 93.195755C230.9393 93.195755 229.59616 91.85261 229.59616 90.195755C229.59616 88.5389 230.9393 87.195755 232.59616 87.195755C234.253 87.195755 235.59616 88.5389 235.59616 90.195755Z" fill-rule="nonzero"/><path fill="#000000" fill-opacity="0.0" clip-path="url(#id_0)" d="M274.3577 90.195755C274.3577 91.85261 273.01456 93.195755 271.3577 93.195755C269.70084 93.195755 268.3577 91.85261 268.3577 90.195755C268.3577 88.5389 269.70084 87.195755 271.3577 87.195755C273.01456 87.195755 274.3577 88.5389 274.3577 90.195755Z" fill-rule="nonzero"/><path fill="#000000" fill-opacity="0.0" clip-path="url(#id_0)" d="M313.11923 90.195755C313.11923 91.85261 311.7761 93.195755 310.11923 93.195755C308.46237 93.195755 307.11923 91.85261 307.11923 90.195755C307.11923 88.5389 308.46237 87.195755 310.11923 87.195755C311.7761 87.195755 313.11923 88.5389 313.11923 90.195755Z" fill-rule="nonzero"/><path fill="#000000" fill-opacity="0.0" clip-path="url(#id_0)" d="M351.88077 90.195755C351.88077 91.85261 350.53763 93.195755 348.88077 93.195755C347.2239 93.195755 345.88077 91.85261 345.88077 90.195755C345.88077 88.5389 347.2239 87.195755 348.88077 87.195755C350.53763 87.195755 351.88077 88.5389 351.88077 90.195755Z" fill-rule="nonzero"/><path fill="#000000" fill-opacity="0.0" clip-path="url(#id_0)" d="M390.6423 90.195755C390.6423 91.85261 389.29916 93.195755 387.6423 93.195755C385.98544 93.195755 384.6423 91.85261 384.6423 90.195755C384.6423 88.5389 385.98544 87.195755 387.6423 87.195755C389.29916 87.195755 390.6423 88.5389 390.6423 90.195755Z" fill-rule="nonzero"/><path fill="#000000" fill-opacity="0.0" clip-path="url(#id_0)" d="M429.40384 90.195755C429.40384 91.85261 428.0607 93.195755 426.40384 93.195755C424.74698 93.195755 423.40384 91.85261 423.40384 90.195755C423.40384 88.5389 424.74698 87.195755 426.40384 87.195755C428.0607 87.195755 429.40384 88.5389 429.40384 90.195755Z" fill-rule="nonzero"/><path fill="#000000" fill-opacity="0.0" clip-path="url(#id_0)" d="M468.16537 90.195755C468.16537 91.85261 466.82224 93.195755 465.16537 93.195755C463.50854 93.195755 462.16537 91.85261 462.16537 90.195755C462.16537 88.5389 463.50854 87.195755 465.16537 87.195755C466.82224 87.195755 468.16537 88.5389 468.16537 90.195755Z" fill-rule="nonzero"/><path fill="#000000" fill-opacity="0.0" clip-path="url(#id_0)" d="M506.9269 90.195755C506.9269 91.85261 505.58377 93.195755 503.9269 93.195755C502.27008 93.195755 500.9269 91.85261 500.9269 90.195755C500.9269 88.5389 502.27008 87.195755 503.9269 87.195755C505.58377 87.195755 506.9269 88.5389 506.9269 90.195755Z" fill-rule="nonzero"/><path fill="#000000" fill-opacity="0.0" clip-path="url(#id_0)" d="M545.6885 90.195755C545.6885 91.85261 544.34534 93.195755 542.6885 93.195755C541.0316 93.195755 539.6885 91.85261 539.6885 90.195755C539.6885 88.5389 541.0316 87.195755 542.6885 87.195755C544.34534 87.195755 545.6885 88.5389 545.6885 90.195755Z" fill-rule="nonzero"/><path fill="#000000" fill-opacity="0.0" clip-path="url(#id_0)" d="M584.45 90.195755C584.45 91.85261 583.1069 93.195755 581.45 93.195755C579.79315 93.195755 578.45 91.85261 578.45 90.195755C578.45 88.5389 579.79315 87.195755 581.45 87.195755C583.1069 87.195755 584.45 88.5389 584.45 90.195755Z" fill-rule="nonzero"/><path fill="#000000" fill-opacity="0.0" clip-path="url(#id_0)" d="M80.55 91.14735C80.55 92.8042 79.206856 94.14735 77.55 94.14735C75.89314 94.14735 74.55 92.8042 74.55 91.14735C74.55 89.49049 75.89314 88.14735 77.55 88.14735C79.206856 88.14735 80.55 89.49049 80.55 91.14735Z" fill-rule="nonzero"/><path fill="#000000" fill-opacity="0.0" clip-path="url(#id_0)" d="M119.31154 91.14735C119.31154 92.8042 117.96839 94.14735 116.31154 94.14735C114.654686 94.14735 113.31154 92.8042 113.31154 91.14735C113.31154 89.49049 114.654686 88.14735 116.31154 88.14735C117.96839 88.14735 119.31154 89.49049 119.31154 91.14735Z" fill-rule="nonzero"/><path fill="#000000" fill-opacity="0.0" clip-path="url(#id_0)" d="M158.07307 91.14735C158.07307 92.8042 156.72993 94.14735 155.07307 94.14735C153.41623 94.14735 152.07307 92.8042 152.07307 91.14735C152.07307 89.49049 153.41623 88.14735 155.07307 88.14735C156.72993 88.14735 158.07307 89.49049 158.07307 91.14735Z" fill-rule="nonzero"/><path fill="#000000" fill-opacity="0.0" clip-path="url(#id_0)" d="M196.83461 91.14735C196.83461 92.8042 195.49147 94.14735 193.83461 94.14735C192.17776 94.14735 190.83461 92.8042 190.83461 91.14735C190.83461 89.49049 192.17776 88.14735 193.83461 88.14735C195.49147 88.14735 196.83461 89.49049 196.83461 91.14735Z" fill-rule="nonzero"/><path fill="#000000" fill-opacity="0.0" clip-path="url(#id_0)" d="M235.59616 91.14735C235.59616 92.8042 234.253 94.14735 232.59616 94.14735C230.9393 94.14735 229.59616 92.8042 229.59616 91.14735C229.59616 89.49049 230.9393 88.14735 232.59616 88.14735C234.253 88.14735 235.59616 89.49049 235.59616 91.14735Z" fill-rule="nonzero"/><path fill="#000000" fill-opacity="0.0" clip-path="url(#id_0)" d="M274.3577 91.14735C274.3577 92.8042 273.01456 94.14735 271.3577 94.14735C269.70084 94.14735 268.3577 92.8042 268.3577 91.14735C268.3577 89.49049 269.70084 88.14735 271.3577 88.14735C273.01456 88.14735 274.3577 89.49049 274.3577 91.14735Z" fill-rule="nonzero"/><path fill="#000000" fill-opacity="0.0" clip-path="url(#id_0)" d="M313.11923 91.14735C313.11923 92.8042 311.7761 94.14735 310.11923 94.14735C308.46237 94.14735 307.11923 92.8042 307.11923 91.14735C307.11923 89.49049 308.46237 88.14735 310.11923 88.14735C311.7761 88.14735 313.11923 89.49049 313.11923 91.14735Z" fill-rule="nonzero"/><path fill="#000000" fill-opacity="0.0" clip-path="url(#id_0)" d="M351.88077 91.14735C351.88077 92.8042 350.53763 94.14735 348.88077 94.14735C347.2239 94.14735 345.88077 92.8042 345.88077 91.14735C345.88077 89.49049 347.2239 88.14735 348.88077 88.14735C350.53763 88.14735 351.88077 89.49049 351.88077 91.14735Z" fill-rule="nonzero"/><path fill="#000000" fill-opacity="0.0" clip-path="url(#id_0)" d="M390.6423 91.14735C390.6423 92.8042 389.29916 94.14735 387.6423 94.14735C385.98544 94.14735 384.6423 92.8042 384.6423 91.14735C384.6423 89.49049 385.98544 88.14735 387.6423 88.14735C389.29916 88.14735 390.6423 89.49049 390.6423 91.14735Z" fill-rule="nonzero"/><path fill="#000000" fill-opacity="0.0" clip-path="url(#id_0)" d="M429.40384 91.14735C429.40384 92.8042 428.0607 94.14735 426.40384 94.14735C424.74698 94.14735 423.40384 92.8042 423.40384 91.14735C423.40384 89.49049 424.74698 88.14735 426.40384 88.14735C428.0607 88.14735 429.40384 89.49049 429.40384 91.14735Z" fill-rule="nonzero"/><path fill="#000000" fill-opacity="0.0" clip-path="url(#id_0)" d="M468.16537 91.14735C468.16537 92.8042 466.82224 94.14735 465.16537 94.14735C463.50854 94.14735 462.16537 92.8042 462.16537 91.14735C462.16537 89.49049 463.50854 88.14735 465.16537 88.14735C466.82224 88.14735 468.16537 89.49049 468.16537 91.14735Z" fill-rule="nonzero"/><path fill="#000000" fill-opacity="0.0" clip-path="url(#id_0)" d="M506.9269 91.14735C506.9269 92.8042 505.58377 94.14735 503.9269 94.14735C502.27008 94.14735 500.9269 92.8042 500.9269 91.14735C500.9269 89.49049 502.27008 88.14735 503.9269 88.14735C505.58377 88.14735 506.9269 89.49049 506.9269 91.14735Z" fill-rule="nonzero"/><path fill="#000000" fill-opacity="0.0" clip-path="url(#id_0)" d="M545.6885 91.14735C545.6885 92.8042 544.34534 94.14735 542.6885 94.14735C541.0316 94.14735 539.6885 92.8042 539.6885 91.14735C539.6885 89.49049 541.0316 88.14735 542.6885 88.14735C544.34534 88.14735 545.6885 89.49049 545.6885 91.14735Z" fill-rule="nonzero"/><path fill="#000000" fill-opacity="0.0" clip-path="url(#id_0)" d="M584.45 91.14735C584.45 92.8042 583.1069 94.14735 581.45 94.14735C579.79315 94.14735 578.45 92.8042 578.45 91.14735C578.45 89.49049 579.79315 88.14735 581.45 88.14735C583.1069 88.14735 584.45 89.49049 584.45 91.14735Z" fill-rule="nonzero"/><path fill="#000000" fill-opacity="0.0" clip-path="url(#id_0)" d="M80.55 128.73418C80.55 130.39104 79.206856 131.73418 77.55 131.73418C75.89314 131.73418 74.55 130.39104 74.55 128.73418C74.55 127.077324 75.89314 125.734184 77.55 125.734184C79.206856 125.734184 80.55 127.077324 80.55 128.73418Z" fill-rule="nonzero"/><path fill="#000000" fill-opacity="0.0" clip-path="url(#id_0)" d="M119.31154 128.73418C119.31154 130.39104 117.96839 131.73418 116.31154 131.73418C114.654686 131.73418 113.31154 130.39104 113.31154 128.73418C113.31154 127.077324 114.654686 125.734184 116.31154 125.734184C117.96839 125.734184 119.31154 127.077324 119.31154 128.73418Z" fill-rule="nonzero"/><path fill="#000000" fill-opacity="0.0" clip-path="url(#id_0)" d="M158.07307 128.73418C158.07307 130.39104 156.72993 131.73418 155.07307 131.73418C153.41623 131.73418 152.07307 130.39104 152.07307 128.73418C152.07307 127.077324 153.41623 125.734184 155.07307 125.734184C156.72993 125.734184 158.07307 127.077324 158.07307 128.73418Z" fill-rule="nonzero"/><path fill="#000000" fill-opacity="0.0" clip-path="url(#id_0)" d="M196.83461 128.73418C196.83461 130.39104 195.49147 131.73418 193.83461 131.73418C192.17776 131.73418 190.83461 130.39104 190.83461 128.73418C190.83461 127.077324 192.17776 125.734184 193.83461 125.734184C195.49147 125.734184 196.83461 127.077324 196.83461 128.73418Z" fill-rule="nonzero"/><path fill="#000000" fill-opacity="0.0" clip-path="url(#id_0)" d="M235.59616 128.73418C235.59616 130.39104 234.253 131.73418 232.59616 131.73418C230.9393 131.73418 229.59616 130.39104 229.59616 128.73418C229.59616 127.077324 230.9393 125.734184 232.59616 125.734184C234.253 125.734184 235.59616 127.077324 235.59616 128.73418Z" fill-rule="nonzero"/><path fill="#000000" fill-opacity="0.0" clip-path="url(#id_0)" d="M274.3577 128.73418C274.3577 130.39104 273.01456 131.73418 271.3577 131.73418C269.70084 131.73418 268.3577 130.39104 268.3577 128.73418C268.3577 127.077324 269.70084 125.734184 271.3577 125.734184C273.01456 125.734184 274.3577 127.077324 274.3577 128.73418Z" fill-rule="nonzero"/><path fill="#000000" fill-opacity="0.0" clip-path="url(#id_0)" d="M313.11923 128.73418C313.11923 130.39104 311.7761 131.73418 310.11923 131.73418C308.46237 131.73418 307.11923 130.39104 307.11923 128.73418C307.11923 127.077324 308.46237 125.734184 310.11923 125.734184C311.7761 125.734184 313.11923 127.077324 313.11923 128.73418Z" fill-rule="nonzero"/><path fill="#000000" fill-opacity="0.0" clip-path="url(#id_0)" d="M351.88077 128.73418C351.88077 130.39104 350.53763 131.73418 348.88077 131.73418C347.2239 131.73418 345.88077 130.39104 345.88077 128.73418C345.88077 127.077324 347.2239 125.734184 348.88077 125.734184C350.53763 125.734184 351.88077 127.077324 351.88077 128.73418Z" fill-rule="nonzero"/><path fill="#000000" fill-opacity="0.0" clip-path="url(#id_0)" d="M390.6423 128.73418C390.6423 130.39104 389.29916 131.73418 387.6423 131.73418C385.98544 131.73418 384.6423 130.39104 384.6423 128.73418C384.6423 127.077324 385.98544 125.734184 387.6423 125.734184C389.29916 125.734184 390.6423 127.077324 390.6423 128.73418Z" fill-rule="nonzero"/><path fill="#000000" fill-opacity="0.0" clip-path="url(#id_0)" d="M429.40384 128.73418C429.40384 130.39104 428.0607 131.73418 426.40384 131.73418C424.74698 131.73418 423.40384 130.39104 423.40384 128.73418C423.40384 127.077324 424.74698 125.734184 426.40384 125.734184C428.0607 125.734184 429.40384 127.077324 429.40384 128.73418Z" fill-rule="nonzero"/><path fill="#000000" fill-opacity="0.0" clip-path="url(#id_0)" d="M468.16537 128.73418C468.16537 130.39104 466.82224 131.73418 465.16537 131.73418C463.50854 131.73418 462.16537 130.39104 462.16537 128.73418C462.16537 127.077324 463.50854 125.734184 465.16537 125.734184C466.82224 125.734184 468.16537 127.077324 468.16537 128.73418Z" fill-rule="nonzero"/><path fill="#000000" fill-opacity="0.0" clip-path="url(#id_0)" d="M506.9269 128.73418C506.9269 130.39104 505.58377 131.73418 503.9269 131.73418C502.27008 131.73418 500.9269 130.39104 500.9269 128.73418C500.9269 127.077324 502.27008 125.734184 503.9269 125.734184C505.58377 125.734184 506.9269 127.077324 506.9269 128.73418Z" fill-rule="nonzero"/><path fill="#000000" fill-opacity="0.0" clip-path="url(#id_0)" d="M545.6885 128.73418C545.6885 130.39104 544.34534 131.73418 542.6885 131.73418C541.0316 131.73418 539.6885 130.39104 539.6885 128.73418C539.6885 127.077324 541.0316 125.734184 542.6885 125.734184C544.34534 125.734184 545.6885 127.077324 545.6885 128.73418Z" fill-rule="nonzero"/><path fill="#000000" fill-opacity="0.0" clip-path="url(#id_0)" d="M584.45 128.73418C584.45 130.39104 583.1069 131.73418 581.45 131.73418C579.79315 131.73418 578.45 130.39104 578.45 128.73418C578.45 127.077324 579.79315 125.734184 581.45 125.734184C583.1069 125.734184 584.45 127.077324 584.45 128.73418Z" fill-rule="nonzero"/><path fill="#000000" fill-opacity="0.0" clip-path="url(#id_0)" d="M80.55 145.40878C80.55 147.06564 79.206856 148.40878 77.55 148.40878C75.89314 148.40878 74.55 147.06564 74.55 145.40878C74.55 143.75192 75.89314 142.40878 77.55 142.40878C79.206856 142.40878 80.55 143.75192 80.55 145.40878Z" fill-rule="nonzero"/><path fill="#000000" fill-opacity="0.0" clip-path="url(#id_0)" d="M119.31154 145.34035C119.31154 146.99721 117.96839 148.34035 116.31154 148.34035C114.654686 148.34035 113.31154 146.99721 113.31154 145.34035C113.31154 143.68349 114.654686 142.34035 116.31154 142.34035C117.96839 142.34035 119.31154 143.68349 119.31154 145.34035Z" fill-rule="nonzero"/><path fill="#000000" fill-opacity="0.0" clip-path="url(#id_0)" d="M158.07307 143.59576C158.07307 145.25261 156.72993 146.59576 155.07307 146.59576C153.41623 146.59576 152.07307 145.25261 152.07307 143.59576C152.07307 141.9389 153.41623 140.59576 155.07307 140.59576C156.72993 140.59576 158.07307 141.9389 158.07307 143.59576Z" fill-rule="nonzero"/><path fill="#000000" fill-opacity="0.0" clip-path="url(#id_0)" d="M196.83461 142.24115C196.83461 143.89801 195.49147 145.24115 193.83461 145.24115C192.17776 145.24115 190.83461 143.89801 190.83461 142.24115C190.83461 140.5843 192.17776 139.24115 193.83461 139.24115C195.49147 139.24115 196.83461 140.5843 196.83461 142.24115Z" fill-rule="nonzero"/><path fill="#000000" fill-opacity="0.0" clip-path="url(#id_0)" d="M235.59616 141.8957C235.59616 143.55257 234.253 144.8957 232.59616 144.8957C230.9393 144.8957 229.59616 143.55257 229.59616 141.8957C229.59616 140.23886 230.9393 138.8957 232.59616 138.8957C234.253 138.8957 235.59616 140.23886 235.59616 141.8957Z" fill-rule="nonzero"/><path fill="#000000" fill-opacity="0.0" clip-path="url(#id_0)" d="M274.3577 138.61401C274.3577 140.27087 273.01456 141.61401 271.3577 141.61401C269.70084 141.61401 268.3577 140.27087 268.3577 138.61401C268.3577 136.95717 269.70084 135.61401 271.3577 135.61401C273.01456 135.61401 274.3577 136.95717 274.3577 138.61401Z" fill-rule="nonzero"/><path fill="#000000" fill-opacity="0.0" clip-path="url(#id_0)" d="M313.11923 137.91444C313.11923 139.5713 311.7761 140.91444 310.11923 140.91444C308.46237 140.91444 307.11923 139.5713 307.11923 137.91444C307.11923 136.2576 308.46237 134.91444 310.11923 134.91444C311.7761 134.91444 313.11923 136.2576 313.11923 137.91444Z" fill-rule="nonzero"/><path fill="#000000" fill-opacity="0.0" clip-path="url(#id_0)" d="M351.88077 137.51035C351.88077 139.1672 350.53763 140.51035 348.88077 140.51035C347.2239 140.51035 345.88077 139.1672 345.88077 137.51035C345.88077 135.85349 347.2239 134.51035 348.88077 134.51035C350.53763 134.51035 351.88077 135.85349 351.88077 137.51035Z" fill-rule="nonzero"/><path fill="#000000" fill-opacity="0.0" clip-path="url(#id_0)" d="M390.6423 137.47124C390.6423 139.1281 389.29916 140.47124 387.6423 140.47124C385.98544 140.47124 384.6423 139.1281 384.6423 137.47124C384.6423 135.81438 385.98544 134.47124 387.6423 134.47124C389.29916 134.47124 390.6423 135.81438 390.6423 137.47124Z" fill-rule="nonzero"/><path fill="#000000" fill-opacity="0.0" clip-path="url(#id_0)" d="M429.40384 137.03455C429.40384 138.6914 428.0607 140.03455 426.40384 140.03455C424.74698 140.03455 423.40384 138.6914 423.40384 137.03455C423.40384 135.3777 424.74698 134.03455 426.40384 134.03455C428.0607 134.03455 429.40384 135.3777 429.40384 137.03455Z" fill-rule="nonzero"/><path fill="#000000" fill-opacity="0.0" clip-path="url(#id_0)" d="M468.16537 136.81078C468.16537 138.46762 466.82224 139.81078 465.16537 139.81078C463.50854 139.81078 462.16537 138.46762 462.16537 136.81078C462.16537 135.15392 463.50854 133.81078 465.16537 133.81078C466.82224 133.81078 468.16537 135.15392 468.16537 136.81078Z" fill-rule="nonzero"/><path fill="#000000" fill-opacity="0.0" clip-path="url(#id_0)" d="M506.9269 136.72061C506.9269 138.37746 505.58377 139.72061 503.9269 139.72061C502.27008 139.72061 500.9269 138.37746 500.9269 136.72061C500.9269 135.06375 502.27008 133.72061 503.9269 133.72061C505.58377 133.72061 506.9269 135.06375 506.9269 136.72061Z" fill-rule="nonzero"/><path fill="#000000" fill-opacity="0.0" clip-path="url(#id_0)" d="M545.6885 136.58809C545.6885 138.24493 544.34534 139.58809 542.6885 139.58809C541.0316 139.58809 539.6885 138.24493 539.6885 136.58809C539.6885 134.93123 541.0316 133.58809 542.6885 133.58809C544.34534 133.58809 545.6885 134.93123 545.6885 136.58809Z" fill-rule="nonzero"/><path fill="#000000" fill-opacity="0.0" clip-path="url(#id_0)" d="M584.45 135.94717C584.45 137.60402 583.1069 138.94717 581.45 138.94717C579.79315 138.94717 578.45 137.60402 578.45 135.94717C578.45 134.29031 579.79315 132.94717 581.45 132.94717C583.1069 132.94717 584.45 134.29031 584.45 135.94717Z" fill-rule="nonzero"/><path fill="#000000" d="M281.09375 348.5125L281.25 349.4344Q280.79688 349.52814 280.45312 349.52814Q279.875 349.52814 279.5625 349.35626Q279.25 349.16876 279.10938 348.8719Q278.98438 348.575 278.98438 347.6219L278.98438 344.04376L278.21875 344.04376L278.21875 343.23126L278.98438 343.23126L278.98438 341.6844L280.03125 341.0594L280.03125 343.23126L281.09375 343.23126L281.09375 344.04376L280.03125 344.04376L280.03125 347.6844Q280.03125 348.1375 280.07812 348.2625Q280.14062 348.3875 280.26562 348.46564Q280.39062 348.54376 280.625 348.54376Q280.8125 348.54376 281.09375 348.5125ZM281.79688 342.075L281.79688 340.85626L282.85938 340.85626L282.85938 342.075L281.79688 342.075ZM281.79688 349.45L281.79688 343.23126L282.85938 343.23126L282.85938 349.45L281.79688 349.45ZM284.79688 349.45L284.79688 343.23126L285.73438 343.23126L285.73438 344.10626Q286.03125 343.6375 286.51562 343.3719Q287.0 343.09064 287.625 343.09064Q288.3125 343.09064 288.75 343.3719Q289.20312 343.65314 289.375 344.16876Q290.125 343.09064 291.29688 343.09064Q292.23438 343.09064 292.71875 343.60626Q293.21875 344.10626 293.21875 345.1844L293.21875 349.45L292.17188 349.45L292.17188 345.52814Q292.17188 344.90314 292.0625 344.6219Q291.96875 344.34064 291.70312 344.16876Q291.4375 343.9969 291.0625 343.9969Q290.40625 343.9969 289.96875 344.4344Q289.54688 344.8719 289.54688 345.84064L289.54688 349.45L288.48438 349.45L288.48438 345.40314Q288.48438 344.7 288.21875 344.35626Q287.96875 343.9969 287.39062 343.9969Q286.9375 343.9969 286.5625 344.23126Q286.1875 344.46564 286.01562 344.91876Q285.84375 345.3719 285.84375 346.21564L285.84375 349.45L284.79688 349.45ZM300.04688 347.45L301.14062 347.575Q300.89062 348.52814 300.1875 349.0594Q299.48438 349.59064 298.40625 349.59064Q297.04688 349.59064 296.23438 348.7469Q295.4375 347.90314 295.4375 346.3875Q295.4375 344.825 296.25 343.96564Q297.0625 343.09064 298.34375 343.09064Q299.59375 343.09064 300.375 343.9344Q301.17188 344.77814 301.17188 346.325Q301.17188 346.41876 301.17188 346.60626L296.53125 346.60626Q296.59375 347.6375 297.10938 348.1844Q297.625 348.71564 298.40625 348.71564Q298.98438 348.71564 299.39062 348.41876Q299.8125 348.10626 300.04688 347.45ZM296.59375 345.7469L300.0625 345.7469Q300.0 344.95 299.67188 344.5594Q299.15625 343.95 298.35938 343.95Q297.625 343.95 297.125 344.4344Q296.64062 344.91876 296.59375 345.7469ZM310.04688 347.45L311.14062 347.575Q310.89062 348.52814 310.1875 349.0594Q309.48438 349.59064 308.40625 349.59064Q307.04688 349.59064 306.23438 348.7469Q305.4375 347.90314 305.4375 346.3875Q305.4375 344.825 306.25 343.96564Q307.0625 343.09064 308.34375 343.09064Q309.59375 343.09064 310.375 343.9344Q311.17188 344.77814 311.17188 346.325Q311.17188 346.41876 311.17188 346.60626L306.53125 346.60626Q306.59375 347.6375 307.10938 348.1844Q307.625 348.71564 308.40625 348.71564Q308.98438 348.71564 309.39062 348.41876Q309.8125 348.10626 310.04688 347.45ZM306.59375 345.7469L310.0625 345.7469Q310.0 344.95 309.67188 344.5594Q309.15625 343.95 308.35938 343.95Q307.625 343.95 307.125 344.4344Q306.64062 344.91876 306.59375 345.7469ZM312.76562 349.45L312.76562 340.85626L313.82812 340.85626L313.82812 349.45L312.76562 349.45ZM319.85938 348.6844Q319.26562 349.1844 318.71875 349.3875Q318.1875 349.59064 317.5625 349.59064Q316.53125 349.59064 315.98438 349.09064Q315.4375 348.59064 315.4375 347.8094Q315.4375 347.35626 315.64062 346.98126Q315.84375 346.59064 316.1875 346.3719Q316.53125 346.1375 316.95312 346.02814Q317.25 345.9344 317.89062 345.85626Q319.15625 345.71564 319.76562 345.4969Q319.76562 345.27814 319.76562 345.23126Q319.76562 344.575 319.46875 344.3094Q319.0625 343.96564 318.26562 343.96564Q317.53125 343.96564 317.17188 344.23126Q316.8125 344.48126 316.64062 345.1375L315.60938 344.9969Q315.75 344.34064 316.07812 343.9344Q316.40625 343.52814 317.01562 343.3094Q317.625 343.09064 318.42188 343.09064Q319.21875 343.09064 319.71875 343.27814Q320.21875 343.46564 320.45312 343.7469Q320.6875 344.02814 320.78125 344.46564Q320.82812 344.73126 320.82812 345.4344L320.82812 346.84064Q320.82812 348.3094 320.89062 348.7Q320.96875 349.09064 321.17188 349.45L320.0625 349.45Q319.90625 349.1219 319.85938 348.6844ZM319.76562 346.325Q319.1875 346.5594 318.04688 346.73126Q317.39062 346.825 317.125 346.95Q316.85938 347.0594 316.70312 347.27814Q316.5625 347.4969 316.5625 347.77814Q316.5625 348.2 316.875 348.48126Q317.20312 348.7625 317.8125 348.7625Q318.42188 348.7625 318.89062 348.4969Q319.375 348.23126 319.59375 347.7625Q319.76562 347.40314 319.76562 346.71564L319.76562 346.325ZM322.79688 351.84064L322.79688 343.23126L323.75 343.23126L323.75 344.02814Q324.09375 343.5594 324.51562 343.325Q324.95312 343.09064 325.5625 343.09064Q326.35938 343.09064 326.96875 343.4969Q327.57812 343.90314 327.875 344.65314Q328.1875 345.40314 328.1875 346.29376Q328.1875 347.2469 327.84375 348.0125Q327.51562 348.77814 326.85938 349.1844Q326.20312 349.59064 325.48438 349.59064Q324.95312 349.59064 324.53125 349.3719Q324.10938 349.1375 323.84375 348.8094L323.84375 351.84064L322.79688 351.84064ZM323.75 346.3719Q323.75 347.575 324.23438 348.15314Q324.71875 348.71564 325.40625 348.71564Q326.10938 348.71564 326.60938 348.1219Q327.10938 347.52814 327.10938 346.27814Q327.10938 345.09064 326.625 344.5125Q326.14062 343.91876 325.45312 343.91876Q324.78125 343.91876 324.26562 344.54376Q323.75 345.16876 323.75 346.3719ZM329.375 347.59064L330.40625 347.4344Q330.5 348.0594 330.89062 348.3875Q331.29688 348.71564 332.03125 348.71564Q332.75 348.71564 333.09375 348.4344Q333.45312 348.1375 333.45312 347.73126Q333.45312 347.3719 333.14062 347.16876Q332.92188 347.02814 332.0625 346.8094Q330.90625 346.5125 330.45312 346.3094Q330.01562 346.09064 329.78125 345.71564Q329.54688 345.34064 329.54688 344.8719Q329.54688 344.46564 329.73438 344.10626Q329.92188 343.7469 330.25 343.5125Q330.5 343.34064 330.92188 343.21564Q331.34375 343.09064 331.84375 343.09064Q332.5625 343.09064 333.10938 343.3094Q333.67188 343.5125 333.9375 343.8719Q334.20312 344.23126 334.29688 344.825L333.26562 344.96564Q333.20312 344.4969 332.85938 344.23126Q332.53125 343.95 331.90625 343.95Q331.1875 343.95 330.875 344.2Q330.5625 344.4344 330.5625 344.7625Q330.5625 344.96564 330.6875 345.1219Q330.82812 345.29376 331.09375 345.40314Q331.25 345.46564 332.03125 345.66876Q333.15625 345.98126 333.59375 346.16876Q334.03125 346.35626 334.28125 346.71564Q334.53125 347.075 334.53125 347.6219Q334.53125 348.15314 334.21875 348.6219Q333.92188 349.075 333.34375 349.34064Q332.76562 349.59064 332.03125 349.59064Q330.8125 349.59064 330.17188 349.09064Q329.54688 348.575 329.375 347.59064ZM341.04688 347.45L342.14062 347.575Q341.89062 348.52814 341.1875 349.0594Q340.48438 349.59064 339.40625 349.59064Q338.04688 349.59064 337.23438 348.7469Q336.4375 347.90314 336.4375 346.3875Q336.4375 344.825 337.25 343.96564Q338.0625 343.09064 339.34375 343.09064Q340.59375 343.09064 341.375 343.9344Q342.17188 344.77814 342.17188 346.325Q342.17188 346.41876 342.17188 346.60626L337.53125 346.60626Q337.59375 347.6375 338.10938 348.1844Q338.625 348.71564 339.40625 348.71564Q339.98438 348.71564 340.39062 348.41876Q340.8125 348.10626 341.04688 347.45ZM337.59375 345.7469L341.0625 345.7469Q341.0 344.95 340.67188 344.5594Q340.15625 343.95 339.35938 343.95Q338.625 343.95 338.125 344.4344Q337.64062 344.91876 337.59375 345.7469ZM347.82812 349.45L347.82812 348.66876Q347.23438 349.59064 346.09375 349.59064Q345.34375 349.59064 344.71875 349.1844Q344.09375 348.7625 343.75 348.02814Q343.40625 347.29376 343.40625 346.34064Q343.40625 345.41876 343.71875 344.65314Q344.03125 343.8875 344.65625 343.4969Q345.28125 343.09064 346.04688 343.09064Q346.60938 343.09064 347.04688 343.325Q347.48438 343.5594 347.76562 343.9344L347.76562 340.85626L348.8125 340.85626L348.8125 349.45L347.82812 349.45ZM344.5 346.34064Q344.5 347.54376 345.0 348.1375Q345.5 348.71564 346.1875 348.71564Q346.875 348.71564 347.35938 348.15314Q347.84375 347.59064 347.84375 346.4344Q347.84375 345.15314 347.34375 344.5594Q346.85938 343.96564 346.14062 343.96564Q345.4375 343.96564 344.96875 344.54376Q344.5 345.10626 344.5 346.34064ZM355.8125 351.98126Q354.9375 350.8719 354.32812 349.40314Q353.73438 347.91876 353.73438 346.34064Q353.73438 344.95 354.17188 343.66876Q354.70312 342.1844 355.8125 340.71564L356.5625 340.71564Q355.85938 341.9344 355.625 342.45Q355.26562 343.2625 355.0625 344.1375Q354.8125 345.23126 354.8125 346.34064Q354.8125 349.16876 356.5625 351.98126L355.8125 351.98126ZM357.79688 342.075L357.79688 340.85626L358.85938 340.85626L358.85938 342.075L357.79688 342.075ZM357.79688 349.45L357.79688 343.23126L358.85938 343.23126L358.85938 349.45L357.79688 349.45ZM360.79688 349.45L360.79688 343.23126L361.73438 343.23126L361.73438 344.10626Q362.42188 343.09064 363.71875 343.09064Q364.28125 343.09064 364.75 343.29376Q365.23438 343.4969 365.46875 343.825Q365.70312 344.15314 365.79688 344.59064Q365.84375 344.8875 365.84375 345.6219L365.84375 349.45L364.79688 349.45L364.79688 345.66876Q364.79688 345.0125 364.67188 344.7Q364.54688 344.3875 364.23438 344.2Q363.92188 343.9969 363.5 343.9969Q362.82812 343.9969 362.32812 344.4344Q361.84375 344.85626 361.84375 346.04376L361.84375 349.45L360.79688 349.45ZM370.375 347.59064L371.40625 347.4344Q371.5 348.0594 371.89062 348.3875Q372.29688 348.71564 373.03125 348.71564Q373.75 348.71564 374.09375 348.4344Q374.45312 348.1375 374.45312 347.73126Q374.45312 347.3719 374.14062 347.16876Q373.92188 347.02814 373.0625 346.8094Q371.90625 346.5125 371.45312 346.3094Q371.01562 346.09064 370.78125 345.71564Q370.54688 345.34064 370.54688 344.8719Q370.54688 344.46564 370.73438 344.10626Q370.92188 343.7469 371.25 343.5125Q371.5 343.34064 371.92188 343.21564Q372.34375 343.09064 372.84375 343.09064Q373.5625 343.09064 374.10938 343.3094Q374.67188 343.5125 374.9375 343.8719Q375.20312 344.23126 375.29688 344.825L374.26562 344.96564Q374.20312 344.4969 373.85938 344.23126Q373.53125 343.95 372.90625 343.95Q372.1875 343.95 371.875 344.2Q371.5625 344.4344 371.5625 344.7625Q371.5625 344.96564 371.6875 345.1219Q371.82812 345.29376 372.09375 345.40314Q372.25 345.46564 373.03125 345.66876Q374.15625 345.98126 374.59375 346.16876Q375.03125 346.35626 375.28125 346.71564Q375.53125 347.075 375.53125 347.6219Q375.53125 348.15314 375.21875 348.6219Q374.92188 349.075 374.34375 349.34064Q373.76562 349.59064 373.03125 349.59064Q371.8125 349.59064 371.17188 349.09064Q370.54688 348.575 370.375 347.59064ZM378.48438 351.98126L377.73438 351.98126Q379.48438 349.16876 379.48438 346.34064Q379.48438 345.2469 379.23438 344.15314Q379.03125 343.27814 378.67188 342.46564Q378.4375 341.95 377.73438 340.71564L378.48438 340.71564Q379.57812 342.1844 380.10938 343.66876Q380.5625 344.95 380.5625 346.34064Q380.5625 347.91876 379.95312 349.40314Q379.34375 350.8719 378.48438 351.98126Z" fill-rule="nonzero"/><path fill="#000000" d="M26.175013 204.41354L25.175013 204.41354L25.159388 200.78854L28.346888 200.78854Q29.018763 201.61667 29.362513 202.5073Q29.690638 203.39792 29.690638 204.33542Q29.690638 205.60104 29.159388 206.64792Q28.612513 207.67917 27.596888 208.21042Q26.565638 208.72604 25.300013 208.72604Q24.034388 208.72604 22.956263 208.21042Q21.862513 207.67917 21.346888 206.6948Q20.815638 205.71042 20.815638 204.42917Q20.815638 203.49167 21.112513 202.74167Q21.409388 201.99167 21.956263 201.5698Q22.487513 201.1323 23.362513 200.91354L23.643763 201.92917Q22.987513 202.1323 22.612513 202.42917Q22.237513 202.71042 22.018763 203.24167Q21.784388 203.77292 21.784388 204.41354Q21.784388 205.1948 22.018763 205.77292Q22.253138 206.33542 22.643763 206.6948Q23.034388 207.03854 23.503138 207.22604Q24.300013 207.55417 25.221888 207.55417Q26.378138 207.55417 27.159388 207.16354Q27.925013 206.7573 28.300013 206.0073Q28.675013 205.2573 28.675013 204.39792Q28.675013 203.66354 28.393763 202.96042Q28.096888 202.2573 27.784388 201.89792L26.175013 201.89792L26.175013 204.41354ZM29.550013 199.49167L20.956263 199.49167L20.956263 196.2573Q20.956263 195.27292 21.221888 194.67917Q21.487513 194.08542 22.034388 193.7573Q22.565638 193.41354 23.159388 193.41354Q23.706263 193.41354 24.190638 193.71042Q24.675013 194.0073 24.971888 194.61667Q25.206263 193.83542 25.768763 193.42917Q26.315638 193.0073 27.065638 193.0073Q27.659388 193.0073 28.190638 193.2573Q28.706263 193.5073 28.987513 193.8823Q29.268763 194.2573 29.409388 194.83542Q29.550013 195.39792 29.550013 196.21042L29.550013 199.49167ZM24.565638 198.35104L24.565638 196.49167Q24.565638 195.74167 24.471888 195.41354Q24.346888 194.97604 24.050013 194.7573Q23.737513 194.53854 23.284388 194.53854Q22.862513 194.53854 22.534388 194.74167Q22.206263 194.9448 22.096888 195.33542Q21.971888 195.71042 21.971888 196.6323L21.971888 198.35104L24.565638 198.35104ZM28.534388 198.35104L28.534388 196.21042Q28.534388 195.66354 28.487513 195.4448Q28.425013 195.03854 28.268763 194.78854Q28.096888 194.52292 27.784388 194.35104Q27.471888 194.17917 27.065638 194.17917Q26.581263 194.17917 26.221888 194.42917Q25.862513 194.66354 25.721888 195.10104Q25.581263 195.53854 25.581263 196.36667L25.581263 198.35104L28.534388 198.35104Z" fill-rule="nonzero"/><path fill="#000000" d="M55.05 300.21564Q55.05 298.6844 55.3625 297.7625Q55.675 296.825 56.284374 296.325Q56.909374 295.825 57.846874 295.825Q58.534374 295.825 59.05 296.10626Q59.58125 296.3875 59.925 296.91876Q60.26875 297.4344 60.45625 298.1844Q60.64375 298.9344 60.64375 300.21564Q60.64375 301.73126 60.33125 302.65314Q60.034374 303.575 59.409374 304.09064Q58.8 304.59064 57.846874 304.59064Q56.6125 304.59064 55.89375 303.7Q55.05 302.6375 55.05 300.21564ZM56.128124 300.21564Q56.128124 302.325 56.628124 303.02814Q57.128124 303.73126 57.846874 303.73126Q58.58125 303.73126 59.065624 303.02814Q59.565624 302.325 59.565624 300.21564Q59.565624 298.09064 59.065624 297.40314Q58.58125 296.7 57.83125 296.7Q57.1125 296.7 56.675 297.3094Q56.128124 298.09064 56.128124 300.21564ZM62.64375 304.45L62.64375 303.2469L63.846874 303.2469L63.846874 304.45L62.64375 304.45ZM65.05 300.21564Q65.05 298.6844 65.3625 297.7625Q65.675 296.825 66.28438 296.325Q66.90938 295.825 67.84688 295.825Q68.53438 295.825 69.05 296.10626Q69.58125 296.3875 69.925 296.91876Q70.26875 297.4344 70.45625 298.1844Q70.64375 298.9344 70.64375 300.21564Q70.64375 301.73126 70.33125 302.65314Q70.03438 303.575 69.40938 304.09064Q68.8 304.59064 67.84688 304.59064Q66.6125 304.59064 65.89375 303.7Q65.05 302.6375 65.05 300.21564ZM66.12813 300.21564Q66.12813 302.325 66.62813 303.02814Q67.12813 303.73126 67.84688 303.73126Q68.58125 303.73126 69.06563 303.02814Q69.56563 302.325 69.56563 300.21564Q69.56563 298.09064 69.06563 297.40314Q68.58125 296.7 67.83125 296.7Q67.1125 296.7 66.675 297.3094Q66.12813 298.09064 66.12813 300.21564Z" fill-rule="nonzero"/><path fill="#000000" d="M55.05 247.17397Q55.05 245.64272 55.3625 244.72084Q55.675 243.78334 56.284374 243.28334Q56.909374 242.78334 57.846874 242.78334Q58.534374 242.78334 59.05 243.06459Q59.58125 243.34584 59.925 243.87709Q60.26875 244.39272 60.45625 245.14272Q60.64375 245.89272 60.64375 247.17397Q60.64375 248.68959 60.33125 249.61147Q60.034374 250.53334 59.409374 251.04897Q58.8 251.54897 57.846874 251.54897Q56.6125 251.54897 55.89375 250.65834Q55.05 249.59584 55.05 247.17397ZM56.128124 247.17397Q56.128124 249.28334 56.628124 249.98647Q57.128124 250.68959 57.846874 250.68959Q58.58125 250.68959 59.065624 249.98647Q59.565624 249.28334 59.565624 247.17397Q59.565624 245.04897 59.065624 244.36147Q58.58125 243.65834 57.83125 243.65834Q57.1125 243.65834 56.675 244.26772Q56.128124 245.04897 56.128124 247.17397ZM62.64375 251.40834L62.64375 250.20522L63.846874 250.20522L63.846874 251.40834L62.64375 251.40834ZM70.59688 250.39272L70.59688 251.40834L64.90938 251.40834Q64.90938 251.03334 65.03438 250.67397Q65.25313 250.09584 65.72188 249.53334Q66.20625 248.97084 67.1125 248.23647Q68.51875 247.08022 69.00313 246.40834Q69.50313 245.73647 69.50313 245.14272Q69.50313 244.51772 69.05 244.09584Q68.59688 243.65834 67.87813 243.65834Q67.1125 243.65834 66.65938 244.11147Q66.20625 244.56459 66.19063 245.37709L65.1125 245.26772Q65.22188 244.04897 65.94063 243.42397Q66.675 242.78334 67.90938 242.78334Q69.14375 242.78334 69.8625 243.47084Q70.58125 244.15834 70.58125 245.17397Q70.58125 245.68959 70.3625 246.18959Q70.15938 246.67397 69.65938 247.23647Q69.175 247.78334 68.05 248.73647Q67.09688 249.53334 66.81563 249.83022Q66.55 250.11147 66.37813 250.39272L70.59688 250.39272Z" fill-rule="nonzero"/><path fill="#000000" d="M55.05 194.1323Q55.05 192.60104 55.3625 191.67917Q55.675 190.74167 56.284374 190.24167Q56.909374 189.74167 57.846874 189.74167Q58.534374 189.74167 59.05 190.02292Q59.58125 190.30417 59.925 190.83542Q60.26875 191.35104 60.45625 192.10104Q60.64375 192.85104 60.64375 194.1323Q60.64375 195.64792 60.33125 196.5698Q60.034374 197.49167 59.409374 198.0073Q58.8 198.5073 57.846874 198.5073Q56.6125 198.5073 55.89375 197.61667Q55.05 196.55417 55.05 194.1323ZM56.128124 194.1323Q56.128124 196.24167 56.628124 196.9448Q57.128124 197.64792 57.846874 197.64792Q58.58125 197.64792 59.065624 196.9448Q59.565624 196.24167 59.565624 194.1323Q59.565624 192.0073 59.065624 191.3198Q58.58125 190.61667 57.83125 190.61667Q57.1125 190.61667 56.675 191.22604Q56.128124 192.0073 56.128124 194.1323ZM62.64375 198.36667L62.64375 197.16354L63.846874 197.16354L63.846874 198.36667L62.64375 198.36667ZM68.425 198.36667L68.425 196.30417L64.70625 196.30417L64.70625 195.33542L68.62813 189.77292L69.4875 189.77292L69.4875 195.33542L70.64375 195.33542L70.64375 196.30417L69.4875 196.30417L69.4875 198.36667L68.425 198.36667ZM68.425 195.33542L68.425 191.47604L65.7375 195.33542L68.425 195.33542Z" fill-rule="nonzero"/><path fill="#000000" d="M55.05 141.09062Q55.05 139.55937 55.3625 138.6375Q55.675 137.7 56.284374 137.2Q56.909374 136.7 57.846874 136.7Q58.534374 136.7 59.05 136.98125Q59.58125 137.2625 59.925 137.79375Q60.26875 138.30937 60.45625 139.05937Q60.64375 139.80937 60.64375 141.09062Q60.64375 142.60625 60.33125 143.52812Q60.034374 144.45 59.409374 144.96562Q58.8 145.46562 57.846874 145.46562Q56.6125 145.46562 55.89375 144.575Q55.05 143.5125 55.05 141.09062ZM56.128124 141.09062Q56.128124 143.2 56.628124 143.90312Q57.128124 144.60625 57.846874 144.60625Q58.58125 144.60625 59.065624 143.90312Q59.565624 143.2 59.565624 141.09062Q59.565624 138.96562 59.065624 138.27812Q58.58125 137.575 57.83125 137.575Q57.1125 137.575 56.675 138.18437Q56.128124 138.96562 56.128124 141.09062ZM62.64375 145.325L62.64375 144.12187L63.846874 144.12187L63.846874 145.325L62.64375 145.325ZM70.51875 138.84062L69.47188 138.91875Q69.33125 138.29375 69.08125 138.0125Q68.64375 137.55937 68.01875 137.55937Q67.51875 137.55937 67.12813 137.84062Q66.64375 138.21562 66.34688 138.91875Q66.06563 139.60625 66.05 140.8875Q66.425 140.30937 66.97188 140.02812Q67.53438 139.74687 68.14375 139.74687Q69.19063 139.74687 69.925 140.52812Q70.675 141.30937 70.675 142.52812Q70.675 143.34062 70.31563 144.04375Q69.97188 144.73125 69.3625 145.10625Q68.75313 145.46562 67.9875 145.46562Q66.65938 145.46562 65.83125 144.49687Q65.00313 143.52812 65.00313 141.30937Q65.00313 138.80937 65.925 137.68437Q66.72188 136.7 68.08125 136.7Q69.09688 136.7 69.7375 137.27812Q70.39375 137.84062 70.51875 138.84062ZM66.22188 142.54375Q66.22188 143.09062 66.44063 143.59062Q66.675 144.075 67.08125 144.34062Q67.50313 144.60625 67.97188 144.60625Q68.62813 144.60625 69.1125 144.075Q69.59688 143.52812 69.59688 142.60625Q69.59688 141.71562 69.1125 141.2Q68.64375 140.68437 67.925 140.68437Q67.20625 140.68437 66.70625 141.2Q66.22188 141.71562 66.22188 142.54375Z" fill-rule="nonzero"/><path fill="#000000" d="M55.05 88.04896Q55.05 86.51771 55.3625 85.59583Q55.675 84.65833 56.284374 84.15833Q56.909374 83.65833 57.846874 83.65833Q58.534374 83.65833 59.05 83.93958Q59.58125 84.22083 59.925 84.75208Q60.26875 85.26771 60.45625 86.01771Q60.64375 86.76771 60.64375 88.04896Q60.64375 89.56458 60.33125 90.48646Q60.034374 91.40833 59.409374 91.92396Q58.8 92.42396 57.846874 92.42396Q56.6125 92.42396 55.89375 91.53333Q55.05 90.47083 55.05 88.04896ZM56.128124 88.04896Q56.128124 90.15833 56.628124 90.86146Q57.128124 91.56458 57.846874 91.56458Q58.58125 91.56458 59.065624 90.86146Q59.565624 90.15833 59.565624 88.04896Q59.565624 85.92396 59.065624 85.23646Q58.58125 84.53333 57.83125 84.53333Q57.1125 84.53333 56.675 85.14271Q56.128124 85.92396 56.128124 88.04896ZM62.64375 92.28333L62.64375 91.08021L63.846874 91.08021L63.846874 92.28333L62.64375 92.28333ZM66.675 87.62708Q66.01875 87.37708 65.69063 86.93958Q65.37813 86.48646 65.37813 85.87708Q65.37813 84.93958 66.05 84.29896Q66.7375 83.65833 67.84688 83.65833Q68.97188 83.65833 69.65938 84.31458Q70.34688 84.97083 70.34688 85.90833Q70.34688 86.50208 70.03438 86.93958Q69.72188 87.37708 69.08125 87.62708Q69.87813 87.87708 70.28438 88.45521Q70.69063 89.03333 70.69063 89.83021Q70.69063 90.92396 69.90938 91.67396Q69.14375 92.42396 67.8625 92.42396Q66.59688 92.42396 65.81563 91.67396Q65.03438 90.92396 65.03438 89.79896Q65.03438 88.95521 65.45625 88.39271Q65.89375 87.83021 66.675 87.62708ZM66.45625 85.83021Q66.45625 86.43958 66.84688 86.83021Q67.25313 87.22083 67.87813 87.22083Q68.4875 87.22083 68.87813 86.84583Q69.26875 86.45521 69.26875 85.89271Q69.26875 85.31458 68.8625 84.92396Q68.45625 84.51771 67.8625 84.51771Q67.25313 84.51771 66.84688 84.90833Q66.45625 85.29896 66.45625 85.83021ZM66.12813 89.79896Q66.12813 90.25208 66.33125 90.67396Q66.55 91.09583 66.97188 91.33021Q67.39375 91.56458 67.87813 91.56458Q68.62813 91.56458 69.1125 91.08021Q69.6125 90.59583 69.6125 89.84583Q69.6125 89.08021 69.1125 88.58021Q68.6125 88.08021 67.84688 88.08021Q67.09688 88.08021 66.6125 88.58021Q66.12813 89.06458 66.12813 89.79896Z" fill-rule="nonzero"/><path fill="#000000" d="M74.55 313.21564Q74.55 311.6844 74.8625 310.7625Q75.175 309.825 75.78438 309.325Q76.40938 308.825 77.34688 308.825Q78.03438 308.825 78.55 309.10626Q79.08125 309.3875 79.425 309.91876Q79.76875 310.4344 79.95625 311.1844Q80.14375 311.9344 80.14375 313.21564Q80.14375 314.73126 79.83125 315.65314Q79.53438 316.575 78.90938 317.09064Q78.3 317.59064 77.34688 317.59064Q76.1125 317.59064 75.39375 316.7Q74.55 315.6375 74.55 313.21564ZM75.62813 313.21564Q75.62813 315.325 76.12813 316.02814Q76.62813 316.73126 77.34688 316.73126Q78.08125 316.73126 78.56563 316.02814Q79.06563 315.325 79.06563 313.21564Q79.06563 311.09064 78.56563 310.40314Q78.08125 309.7 77.33125 309.7Q76.6125 309.7 76.175 310.3094Q75.62813 311.09064 75.62813 313.21564Z" fill-rule="nonzero"/><path fill="#000000" d="M200.72388 317.45L199.677 317.45L199.677 310.73126Q199.28638 311.09064 198.66138 311.46564Q198.052 311.825 197.56763 311.9969L197.56763 310.98126Q198.44263 310.5594 199.09888 309.98126Q199.77075 309.3875 200.052 308.825L200.72388 308.825L200.72388 317.45ZM203.75513 313.21564Q203.75513 311.6844 204.06763 310.7625Q204.38013 309.825 204.9895 309.325Q205.6145 308.825 206.552 308.825Q207.2395 308.825 207.75513 309.10626Q208.28638 309.3875 208.63013 309.91876Q208.97388 310.4344 209.16138 311.1844Q209.34888 311.9344 209.34888 313.21564Q209.34888 314.73126 209.03638 315.65314Q208.7395 316.575 208.1145 317.09064Q207.50513 317.59064 206.552 317.59064Q205.31763 317.59064 204.59888 316.7Q203.75513 315.6375 203.75513 313.21564ZM204.83325 313.21564Q204.83325 315.325 205.33325 316.02814Q205.83325 316.73126 206.552 316.73126Q207.28638 316.73126 207.77075 316.02814Q208.27075 315.325 208.27075 313.21564Q208.27075 311.09064 207.77075 310.40314Q207.28638 309.7 206.53638 309.7Q205.81763 309.7 205.38013 310.3094Q204.83325 311.09064 204.83325 313.21564ZM210.75513 313.21564Q210.75513 311.6844 211.06763 310.7625Q211.38013 309.825 211.9895 309.325Q212.6145 308.825 213.552 308.825Q214.2395 308.825 214.75513 309.10626Q215.28638 309.3875 215.63013 309.91876Q215.97388 310.4344 216.16138 311.1844Q216.34888 311.9344 216.34888 313.21564Q216.34888 314.73126 216.03638 315.65314Q215.7395 316.575 215.1145 317.09064Q214.50513 317.59064 213.552 317.59064Q212.31763 317.59064 211.59888 316.7Q210.75513 315.6375 210.75513 313.21564ZM211.83325 313.21564Q211.83325 315.325 212.33325 316.02814Q212.83325 316.73126 213.552 316.73126Q214.28638 316.73126 214.77075 316.02814Q215.27075 315.325 215.27075 313.21564Q215.27075 311.09064 214.77075 310.40314Q214.28638 309.7 213.53638 309.7Q212.81763 309.7 212.38013 310.3094Q211.83325 311.09064 211.83325 313.21564Z" fill-rule="nonzero"/><path fill="#000000" d="M331.50714 316.4344L331.50714 317.45L325.81964 317.45Q325.81964 317.075 325.94464 316.71564Q326.1634 316.1375 326.63214 315.575Q327.11652 315.0125 328.02277 314.27814Q329.42902 313.1219 329.9134 312.45Q330.4134 311.77814 330.4134 311.1844Q330.4134 310.5594 329.96027 310.1375Q329.50714 309.7 328.7884 309.7Q328.02277 309.7 327.56964 310.15314Q327.11652 310.60626 327.1009 311.41876L326.02277 311.3094Q326.13214 310.09064 326.8509 309.46564Q327.58527 308.825 328.81964 308.825Q330.05402 308.825 330.77277 309.5125Q331.49152 310.2 331.49152 311.21564Q331.49152 311.73126 331.27277 312.23126Q331.06964 312.71564 330.56964 313.27814Q330.08527 313.825 328.96027 314.77814Q328.00714 315.575 327.7259 315.8719Q327.46027 316.15314 327.2884 316.4344L331.50714 316.4344ZM332.96027 313.21564Q332.96027 311.6844 333.27277 310.7625Q333.58527 309.825 334.19464 309.325Q334.81964 308.825 335.75714 308.825Q336.44464 308.825 336.96027 309.10626Q337.49152 309.3875 337.83527 309.91876Q338.17902 310.4344 338.36652 311.1844Q338.55402 311.9344 338.55402 313.21564Q338.55402 314.73126 338.24152 315.65314Q337.94464 316.575 337.31964 317.09064Q336.71027 317.59064 335.75714 317.59064Q334.52277 317.59064 333.80402 316.7Q332.96027 315.6375 332.96027 313.21564ZM334.0384 313.21564Q334.0384 315.325 334.5384 316.02814Q335.0384 316.73126 335.75714 316.73126Q336.49152 316.73126 336.9759 316.02814Q337.4759 315.325 337.4759 313.21564Q337.4759 311.09064 336.9759 310.40314Q336.49152 309.7 335.74152 309.7Q335.02277 309.7 334.58527 310.3094Q334.0384 311.09064 334.0384 313.21564ZM339.96027 313.21564Q339.96027 311.6844 340.27277 310.7625Q340.58527 309.825 341.19464 309.325Q341.81964 308.825 342.75714 308.825Q343.44464 308.825 343.96027 309.10626Q344.49152 309.3875 344.83527 309.91876Q345.17902 310.4344 345.36652 311.1844Q345.55402 311.9344 345.55402 313.21564Q345.55402 314.73126 345.24152 315.65314Q344.94464 316.575 344.31964 317.09064Q343.71027 317.59064 342.75714 317.59064Q341.52277 317.59064 340.80402 316.7Q339.96027 315.6375 339.96027 313.21564ZM341.0384 313.21564Q341.0384 315.325 341.5384 316.02814Q342.0384 316.73126 342.75714 316.73126Q343.49152 316.73126 343.9759 316.02814Q344.4759 315.325 344.4759 313.21564Q344.4759 311.09064 343.9759 310.40314Q343.49152 309.7 342.74152 309.7Q342.02277 309.7 341.58527 310.3094Q341.0384 311.09064 341.0384 313.21564Z" fill-rule="nonzero"/><path fill="#000000" d="M455.16537 315.1844L456.22787 315.04376Q456.39975 315.9344 456.83725 316.34064Q457.27475 316.73126 457.89975 316.73126Q458.64975 316.73126 459.16537 316.21564Q459.681 315.7 459.681 314.9344Q459.681 314.21564 459.19662 313.7469Q458.72787 313.2625 457.9935 313.2625Q457.69662 313.2625 457.2435 313.3875L457.3685 312.45Q457.47787 312.46564 457.54037 312.46564Q458.21225 312.46564 458.7435 312.1219Q459.29037 311.7625 459.29037 311.02814Q459.29037 310.45 458.89975 310.075Q458.50912 309.6844 457.88412 309.6844Q457.27475 309.6844 456.85287 310.075Q456.44662 310.46564 456.33725 311.23126L455.27475 311.04376Q455.46225 309.9969 456.14975 309.41876Q456.83725 308.825 457.85287 308.825Q458.556 308.825 459.14975 309.1375Q459.7435 309.4344 460.056 309.95Q460.3685 310.46564 460.3685 311.0594Q460.3685 311.60626 460.07162 312.075Q459.77475 312.52814 459.19662 312.79376Q459.94662 312.96564 460.3685 313.52814Q460.79037 314.075 460.79037 314.91876Q460.79037 316.04376 459.96225 316.825Q459.14975 317.60626 457.89975 317.60626Q456.77475 317.60626 456.02475 316.9344Q455.27475 316.2469 455.16537 315.1844ZM462.16537 313.21564Q462.16537 311.6844 462.47787 310.7625Q462.79037 309.825 463.39975 309.325Q464.02475 308.825 464.96225 308.825Q465.64975 308.825 466.16537 309.10626Q466.69662 309.3875 467.04037 309.91876Q467.38412 310.4344 467.57162 311.1844Q467.75912 311.9344 467.75912 313.21564Q467.75912 314.73126 467.44662 315.65314Q467.14975 316.575 466.52475 317.09064Q465.91537 317.59064 464.96225 317.59064Q463.72787 317.59064 463.00912 316.7Q462.16537 315.6375 462.16537 313.21564ZM463.2435 313.21564Q463.2435 315.325 463.7435 316.02814Q464.2435 316.73126 464.96225 316.73126Q465.69662 316.73126 466.181 316.02814Q466.681 315.325 466.681 313.21564Q466.681 311.09064 466.181 310.40314Q465.69662 309.7 464.94662 309.7Q464.22787 309.7 463.79037 310.3094Q463.2435 311.09064 463.2435 313.21564ZM469.16537 313.21564Q469.16537 311.6844 469.47787 310.7625Q469.79037 309.825 470.39975 309.325Q471.02475 308.825 471.96225 308.825Q472.64975 308.825 473.16537 309.10626Q473.69662 309.3875 474.04037 309.91876Q474.38412 310.4344 474.57162 311.1844Q474.75912 311.9344 474.75912 313.21564Q474.75912 314.73126 474.44662 315.65314Q474.14975 316.575 473.52475 317.09064Q472.91537 317.59064 471.96225 317.59064Q470.72787 317.59064 470.00912 316.7Q469.16537 315.6375 469.16537 313.21564ZM470.2435 313.21564Q470.2435 315.325 470.7435 316.02814Q471.2435 316.73126 471.96225 316.73126Q472.69662 316.73126 473.181 316.02814Q473.681 315.325 473.681 313.21564Q473.681 311.09064 473.181 310.40314Q472.69662 309.7 471.94662 309.7Q471.22787 309.7 470.79037 310.3094Q470.2435 311.09064 470.2435 313.21564Z" fill-rule="nonzero"/><path stroke="#4285f4" stroke-width="4.0" stroke-linecap="butt" d="M164.0 61.916668L176.0 61.916668" fill-rule="nonzero"/><path fill="#1a1a1a" d="M184.79688 65.916664L184.79688 57.322914L185.85938 57.322914L185.85938 62.229164L188.34375 59.697914L189.71875 59.697914L187.32812 61.99479L189.95312 65.916664L188.65625 65.916664L186.59375 62.729164L185.85938 63.447914L185.85938 65.916664L184.79688 65.916664ZM190.5 63.65104L191.5625 63.510414Q191.73438 64.40104 192.17188 64.80729Q192.60938 65.197914 193.23438 65.197914Q193.98438 65.197914 194.5 64.68229Q195.01562 64.166664 195.01562 63.40104Q195.01562 62.68229 194.53125 62.21354Q194.0625 61.729164 193.32812 61.729164Q193.03125 61.729164 192.57812 61.854164L192.70312 60.916664Q192.8125 60.93229 192.875 60.93229Q193.54688 60.93229 194.07812 60.58854Q194.625 60.229164 194.625 59.49479Q194.625 58.916664 194.23438 58.541664Q193.84375 58.15104 193.21875 58.15104Q192.60938 58.15104 192.1875 58.541664Q191.78125 58.93229 191.67188 59.697914L190.60938 59.510414Q190.79688 58.46354 191.48438 57.885414Q192.17188 57.291664 193.1875 57.291664Q193.89062 57.291664 194.48438 57.604164Q195.07812 57.90104 195.39062 58.416664Q195.70312 58.93229 195.70312 59.52604Q195.70312 60.072914 195.40625 60.541664Q195.10938 60.99479 194.53125 61.260414Q195.28125 61.43229 195.70312 61.99479Q196.125 62.541664 196.125 63.385414Q196.125 64.510414 195.29688 65.291664Q194.48438 66.072914 193.23438 66.072914Q192.10938 66.072914 191.35938 65.40104Q190.60938 64.71354 190.5 63.65104ZM197.375 64.05729L198.40625 63.90104Q198.5 64.52604 198.89062 64.854164Q199.29688 65.18229 200.03125 65.18229Q200.75 65.18229 201.09375 64.90104Q201.45312 64.604164 201.45312 64.197914Q201.45312 63.83854 201.14062 63.635414Q200.92188 63.49479 200.0625 63.27604Q198.90625 62.979164 198.45312 62.77604Q198.01562 62.55729 197.78125 62.18229Q197.54688 61.80729 197.54688 61.33854Q197.54688 60.93229 197.73438 60.572914Q197.92188 60.21354 198.25 59.979164Q198.5 59.80729 198.92188 59.68229Q199.34375 59.55729 199.84375 59.55729Q200.5625 59.55729 201.10938 59.77604Q201.67188 59.979164 201.9375 60.33854Q202.20312 60.697914 202.29688 61.291664L201.26562 61.43229Q201.20312 60.96354 200.85938 60.697914Q200.53125 60.416664 199.90625 60.416664Q199.1875 60.416664 198.875 60.666664Q198.5625 60.90104 198.5625 61.229164Q198.5625 61.43229 198.6875 61.58854Q198.82812 61.760414 199.09375 61.86979Q199.25 61.93229 200.03125 62.135414Q201.15625 62.447914 201.59375 62.635414Q202.03125 62.822914 202.28125 63.18229Q202.53125 63.541664 202.53125 64.08854Q202.53125 64.61979 202.21875 65.08854Q201.92188 65.541664 201.34375 65.80729Q200.76562 66.05729 200.03125 66.05729Q198.8125 66.05729 198.17188 65.55729Q197.54688 65.041664 197.375 64.05729ZM207.79688 68.30729L207.79688 59.697914L208.75 59.697914L208.75 60.49479Q209.09375 60.02604 209.51562 59.791664Q209.95312 59.55729 210.5625 59.55729Q211.35938 59.55729 211.96875 59.96354Q212.57812 60.36979 212.875 61.11979Q213.1875 61.86979 213.1875 62.760414Q213.1875 63.71354 212.84375 64.479164Q212.51562 65.24479 211.85938 65.65104Q211.20312 66.05729 210.48438 66.05729Q209.95312 66.05729 209.53125 65.83854Q209.10938 65.604164 208.84375 65.27604L208.84375 68.30729L207.79688 68.30729ZM208.75 62.83854Q208.75 64.041664 209.23438 64.61979Q209.71875 65.18229 210.40625 65.18229Q211.10938 65.18229 211.60938 64.58854Q212.10938 63.99479 212.10938 62.74479Q212.10938 61.55729 211.625 60.979164Q211.14062 60.385414 210.45312 60.385414Q209.78125 60.385414 209.26562 61.010414Q208.75 61.635414 208.75 62.83854ZM214.78125 65.916664L214.78125 59.697914L215.73438 59.697914L215.73438 60.635414Q216.09375 59.979164 216.39062 59.77604Q216.70312 59.55729 217.07812 59.55729Q217.60938 59.55729 218.15625 59.885414L217.79688 60.86979Q217.40625 60.635414 217.03125 60.635414Q216.67188 60.635414 216.39062 60.854164Q216.125 61.05729 216.01562 61.43229Q215.82812 61.99479 215.82812 62.65104L215.82812 65.916664L214.78125 65.916664ZM218.40625 62.80729Q218.40625 61.072914 219.35938 60.24479Q220.15625 59.55729 221.3125 59.55729Q222.59375 59.55729 223.40625 60.40104Q224.23438 61.229164 224.23438 62.71354Q224.23438 63.916664 223.875 64.604164Q223.51562 65.291664 222.8125 65.68229Q222.125 66.05729 221.3125 66.05729Q220.01562 66.05729 219.20312 65.229164Q218.40625 64.385414 218.40625 62.80729ZM219.48438 62.80729Q219.48438 63.99479 220.0 64.58854Q220.53125 65.18229 221.3125 65.18229Q222.10938 65.18229 222.625 64.58854Q223.14062 63.99479 223.14062 62.77604Q223.14062 61.61979 222.60938 61.02604Q222.09375 60.43229 221.3125 60.43229Q220.53125 60.43229 220.0 61.02604Q219.48438 61.604164 219.48438 62.80729Z" fill-rule="nonzero"/><path stroke="#ea4335" stroke-width="4.0" stroke-linecap="butt" d="M244.0 61.916668L256.0 61.916668" fill-rule="nonzero"/><path fill="#1a1a1a" d="M264.79688 65.916664L264.79688 57.322914L265.85938 57.322914L265.85938 62.229164L268.34375 59.697914L269.71875 59.697914L267.32812 61.99479L269.95312 65.916664L268.65625 65.916664L266.59375 62.729164L265.85938 63.447914L265.85938 65.916664L264.79688 65.916664ZM270.5 63.65104L271.5625 63.510414Q271.73438 64.40104 272.17188 64.80729Q272.60938 65.197914 273.23438 65.197914Q273.98438 65.197914 274.5 64.68229Q275.01562 64.166664 275.01562 63.40104Q275.01562 62.68229 274.53125 62.21354Q274.0625 61.729164 273.32812 61.729164Q273.03125 61.729164 272.57812 61.854164L272.70312 60.916664Q272.8125 60.93229 272.875 60.93229Q273.54688 60.93229 274.07812 60.58854Q274.625 60.229164 274.625 59.49479Q274.625 58.916664 274.23438 58.541664Q273.84375 58.15104 273.21875 58.15104Q272.60938 58.15104 272.1875 58.541664Q271.78125 58.93229 271.67188 59.697914L270.60938 59.510414Q270.79688 58.46354 271.48438 57.885414Q272.17188 57.291664 273.1875 57.291664Q273.89062 57.291664 274.48438 57.604164Q275.07812 57.90104 275.39062 58.416664Q275.70312 58.93229 275.70312 59.52604Q275.70312 60.072914 275.40625 60.541664Q275.10938 60.99479 274.53125 61.260414Q275.28125 61.43229 275.70312 61.99479Q276.125 62.541664 276.125 63.385414Q276.125 64.510414 275.29688 65.291664Q274.48438 66.072914 273.23438 66.072914Q272.10938 66.072914 271.35938 65.40104Q270.60938 64.71354 270.5 63.65104ZM277.375 64.05729L278.40625 63.90104Q278.5 64.52604 278.89062 64.854164Q279.29688 65.18229 280.03125 65.18229Q280.75 65.18229 281.09375 64.90104Q281.45312 64.604164 281.45312 64.197914Q281.45312 63.83854 281.14062 63.635414Q280.92188 63.49479 280.0625 63.27604Q278.90625 62.979164 278.45312 62.77604Q278.01562 62.55729 277.78125 62.18229Q277.54688 61.80729 277.54688 61.33854Q277.54688 60.93229 277.73438 60.572914Q277.92188 60.21354 278.25 59.979164Q278.5 59.80729 278.92188 59.68229Q279.34375 59.55729 279.84375 59.55729Q280.5625 59.55729 281.10938 59.77604Q281.67188 59.979164 281.9375 60.33854Q282.20312 60.697914 282.29688 61.291664L281.26562 61.43229Q281.20312 60.96354 280.85938 60.697914Q280.53125 60.416664 279.90625 60.416664Q279.1875 60.416664 278.875 60.666664Q278.5625 60.90104 278.5625 61.229164Q278.5625 61.43229 278.6875 61.58854Q278.82812 61.760414 279.09375 61.86979Q279.25 61.93229 280.03125 62.135414Q281.15625 62.447914 281.59375 62.635414Q282.03125 62.822914 282.28125 63.18229Q282.53125 63.541664 282.53125 64.08854Q282.53125 64.61979 282.21875 65.08854Q281.92188 65.541664 281.34375 65.80729Q280.76562 66.05729 280.03125 66.05729Q278.8125 66.05729 278.17188 65.55729Q277.54688 65.041664 277.375 64.05729ZM287.40625 62.80729Q287.40625 61.072914 288.35938 60.24479Q289.15625 59.55729 290.3125 59.55729Q291.59375 59.55729 292.40625 60.40104Q293.23438 61.229164 293.23438 62.71354Q293.23438 63.916664 292.875 64.604164Q292.51562 65.291664 291.8125 65.68229Q291.125 66.05729 290.3125 66.05729Q289.01562 66.05729 288.20312 65.229164Q287.40625 64.385414 287.40625 62.80729ZM288.48438 62.80729Q288.48438 63.99479 289.0 64.58854Q289.53125 65.18229 290.3125 65.18229Q291.10938 65.18229 291.625 64.58854Q292.14062 63.99479 292.14062 62.77604Q292.14062 61.61979 291.60938 61.02604Q291.09375 60.43229 290.3125 60.43229Q289.53125 60.43229 289.0 61.02604Q288.48438 61.604164 288.48438 62.80729ZM294.375 64.05729L295.40625 63.90104Q295.5 64.52604 295.89062 64.854164Q296.29688 65.18229 297.03125 65.18229Q297.75 65.18229 298.09375 64.90104Q298.45312 64.604164 298.45312 64.197914Q298.45312 63.83854 298.14062 63.635414Q297.92188 63.49479 297.0625 63.27604Q295.90625 62.979164 295.45312 62.77604Q295.01562 62.55729 294.78125 62.18229Q294.54688 61.80729 294.54688 61.33854Q294.54688 60.93229 294.73438 60.572914Q294.92188 60.21354 295.25 59.979164Q295.5 59.80729 295.92188 59.68229Q296.34375 59.55729 296.84375 59.55729Q297.5625 59.55729 298.10938 59.77604Q298.67188 59.979164 298.9375 60.33854Q299.20312 60.697914 299.29688 61.291664L298.26562 61.43229Q298.20312 60.96354 297.85938 60.697914Q297.53125 60.416664 296.90625 60.416664Q296.1875 60.416664 295.875 60.666664Q295.5625 60.90104 295.5625 61.229164Q295.5625 61.43229 295.6875 61.58854Q295.82812 61.760414 296.09375 61.86979Q296.25 61.93229 297.03125 62.135414Q298.15625 62.447914 298.59375 62.635414Q299.03125 62.822914 299.28125 63.18229Q299.53125 63.541664 299.53125 64.08854Q299.53125 64.61979 299.21875 65.08854Q298.92188 65.541664 298.34375 65.80729Q297.76562 66.05729 297.03125 66.05729Q295.8125 66.05729 295.17188 65.55729Q294.54688 65.041664 294.375 64.05729ZM301.375 64.05729L302.40625 63.90104Q302.5 64.52604 302.89062 64.854164Q303.29688 65.18229 304.03125 65.18229Q304.75 65.18229 305.09375 64.90104Q305.45312 64.604164 305.45312 64.197914Q305.45312 63.83854 305.14062 63.635414Q304.92188 63.49479 304.0625 63.27604Q302.90625 62.979164 302.45312 62.77604Q302.01562 62.55729 301.78125 62.18229Q301.54688 61.80729 301.54688 61.33854Q301.54688 60.93229 301.73438 60.572914Q301.92188 60.21354 302.25 59.979164Q302.5 59.80729 302.92188 59.68229Q303.34375 59.55729 303.84375 59.55729Q304.5625 59.55729 305.10938 59.77604Q305.67188 59.979164 305.9375 60.33854Q306.20312 60.697914 306.29688 61.291664L305.26562 61.43229Q305.20312 60.96354 304.85938 60.697914Q304.53125 60.416664 303.90625 60.416664Q303.1875 60.416664 302.875 60.666664Q302.5625 60.90104 302.5625 61.229164Q302.5625 61.43229 302.6875 61.58854Q302.82812 61.760414 303.09375 61.86979Q303.25 61.93229 304.03125 62.135414Q305.15625 62.447914 305.59375 62.635414Q306.03125 62.822914 306.28125 63.18229Q306.53125 63.541664 306.53125 64.08854Q306.53125 64.61979 306.21875 65.08854Q305.92188 65.541664 305.34375 65.80729Q304.76562 66.05729 304.03125 66.05729Q302.8125 66.05729 302.17188 65.55729Q301.54688 65.041664 301.375 64.05729Z" fill-rule="nonzero"/><path stroke="#fbbc04" stroke-width="4.0" stroke-linecap="butt" d="M327.0 61.916668L339.0 61.916668" fill-rule="nonzero"/><path fill="#1a1a1a" d="M347.79688 65.916664L347.79688 57.322914L348.85938 57.322914L348.85938 62.229164L351.34375 59.697914L352.71875 59.697914L350.32812 61.99479L352.95312 65.916664L351.65625 65.916664L349.59375 62.729164L348.85938 63.447914L348.85938 65.916664L347.79688 65.916664ZM355.125 61.260414Q354.46875 61.010414 354.14062 60.572914Q353.82812 60.11979 353.82812 59.510414Q353.82812 58.572914 354.5 57.93229Q355.1875 57.291664 356.29688 57.291664Q357.42188 57.291664 358.10938 57.947914Q358.79688 58.604164 358.79688 59.541664Q358.79688 60.135414 358.48438 60.572914Q358.17188 61.010414 357.53125 61.260414Q358.32812 61.510414 358.73438 62.08854Q359.14062 62.666664 359.14062 63.46354Q359.14062 64.55729 358.35938 65.30729Q357.59375 66.05729 356.3125 66.05729Q355.04688 66.05729 354.26562 65.30729Q353.48438 64.55729 353.48438 63.43229Q353.48438 62.58854 353.90625 62.02604Q354.34375 61.46354 355.125 61.260414ZM354.90625 59.46354Q354.90625 60.072914 355.29688 60.46354Q355.70312 60.854164 356.32812 60.854164Q356.9375 60.854164 357.32812 60.479164Q357.71875 60.08854 357.71875 59.52604Q357.71875 58.947914 357.3125 58.55729Q356.90625 58.15104 356.3125 58.15104Q355.70312 58.15104 355.29688 58.541664Q354.90625 58.93229 354.90625 59.46354ZM354.57812 63.43229Q354.57812 63.885414 354.78125 64.30729Q355.0 64.729164 355.42188 64.96354Q355.84375 65.197914 356.32812 65.197914Q357.07812 65.197914 357.5625 64.71354Q358.0625 64.229164 358.0625 63.479164Q358.0625 62.71354 357.5625 62.21354Q357.0625 61.71354 356.29688 61.71354Q355.54688 61.71354 355.0625 62.21354Q354.57812 62.697914 354.57812 63.43229ZM360.375 64.05729L361.40625 63.90104Q361.5 64.52604 361.89062 64.854164Q362.29688 65.18229 363.03125 65.18229Q363.75 65.18229 364.09375 64.90104Q364.45312 64.604164 364.45312 64.197914Q364.45312 63.83854 364.14062 63.635414Q363.92188 63.49479 363.0625 63.27604Q361.90625 62.979164 361.45312 62.77604Q361.01562 62.55729 360.78125 62.18229Q360.54688 61.80729 360.54688 61.33854Q360.54688 60.93229 360.73438 60.572914Q360.92188 60.21354 361.25 59.979164Q361.5 59.80729 361.92188 59.68229Q362.34375 59.55729 362.84375 59.55729Q363.5625 59.55729 364.10938 59.77604Q364.67188 59.979164 364.9375 60.33854Q365.20312 60.697914 365.29688 61.291664L364.26562 61.43229Q364.20312 60.96354 363.85938 60.697914Q363.53125 60.416664 362.90625 60.416664Q362.1875 60.416664 361.875 60.666664Q361.5625 60.90104 361.5625 61.229164Q361.5625 61.43229 361.6875 61.58854Q361.82812 61.760414 362.09375 61.86979Q362.25 61.93229 363.03125 62.135414Q364.15625 62.447914 364.59375 62.635414Q365.03125 62.822914 365.28125 63.18229Q365.53125 63.541664 365.53125 64.08854Q365.53125 64.61979 365.21875 65.08854Q364.92188 65.541664 364.34375 65.80729Q363.76562 66.05729 363.03125 66.05729Q361.8125 66.05729 361.17188 65.55729Q360.54688 65.041664 360.375 64.05729ZM374.46875 65.916664L373.42188 65.916664L373.42188 59.197914Q373.03125 59.55729 372.40625 59.93229Q371.79688 60.291664 371.3125 60.46354L371.3125 59.447914Q372.1875 59.02604 372.84375 58.447914Q373.51562 57.854164 373.79688 57.291664L374.46875 57.291664L374.46875 65.916664Z" fill-rule="nonzero"/><path stroke="#34a853" stroke-width="4.0" stroke-linecap="butt" d="M396.0 61.916668L408.0 61.916668" fill-rule="nonzero"/><path fill="#1a1a1a" d="M416.79688 65.916664L416.79688 57.322914L417.85938 57.322914L417.85938 62.229164L420.34375 59.697914L421.71875 59.697914L419.32812 61.99479L421.95312 65.916664L420.65625 65.916664L418.59375 62.729164L417.85938 63.447914L417.85938 65.916664L416.79688 65.916664ZM422.5 61.68229Q422.5 60.15104 422.8125 59.229164Q423.125 58.291664 423.73438 57.791664Q424.35938 57.291664 425.29688 57.291664Q425.98438 57.291664 426.5 57.572914Q427.03125 57.854164 427.375 58.385414Q427.71875 58.90104 427.90625 59.65104Q428.09375 60.40104 428.09375 61.68229Q428.09375 63.197914 427.78125 64.11979Q427.48438 65.041664 426.85938 65.55729Q426.25 66.05729 425.29688 66.05729Q424.0625 66.05729 423.34375 65.166664Q422.5 64.104164 422.5 61.68229ZM423.57812 61.68229Q423.57812 63.791664 424.07812 64.49479Q424.57812 65.197914 425.29688 65.197914Q426.03125 65.197914 426.51562 64.49479Q427.01562 63.791664 427.01562 61.68229Q427.01562 59.55729 426.51562 58.86979Q426.03125 58.166664 425.28125 58.166664Q424.5625 58.166664 424.125 58.77604Q423.57812 59.55729 423.57812 61.68229ZM429.375 64.05729L430.40625 63.90104Q430.5 64.52604 430.89062 64.854164Q431.29688 65.18229 432.03125 65.18229Q432.75 65.18229 433.09375 64.90104Q433.45312 64.604164 433.45312 64.197914Q433.45312 63.83854 433.14062 63.635414Q432.92188 63.49479 432.0625 63.27604Q430.90625 62.979164 430.45312 62.77604Q430.01562 62.55729 429.78125 62.18229Q429.54688 61.80729 429.54688 61.33854Q429.54688 60.93229 429.73438 60.572914Q429.92188 60.21354 430.25 59.979164Q430.5 59.80729 430.92188 59.68229Q431.34375 59.55729 431.84375 59.55729Q432.5625 59.55729 433.10938 59.77604Q433.67188 59.979164 433.9375 60.33854Q434.20312 60.697914 434.29688 61.291664L433.26562 61.43229Q433.20312 60.96354 432.85938 60.697914Q432.53125 60.416664 431.90625 60.416664Q431.1875 60.416664 430.875 60.666664Q430.5625 60.90104 430.5625 61.229164Q430.5625 61.43229 430.6875 61.58854Q430.82812 61.760414 431.09375 61.86979Q431.25 61.93229 432.03125 62.135414Q433.15625 62.447914 433.59375 62.635414Q434.03125 62.822914 434.28125 63.18229Q434.53125 63.541664 434.53125 64.08854Q434.53125 64.61979 434.21875 65.08854Q433.92188 65.541664 433.34375 65.80729Q432.76562 66.05729 432.03125 66.05729Q430.8125 66.05729 430.17188 65.55729Q429.54688 65.041664 429.375 64.05729Z" fill-rule="nonzero"/><path fill="#757575" d="M19.8625 37.55L19.8625 27.175L21.440624 27.175L21.440624 28.628124Q21.925 27.878124 22.7375 27.409374Q23.55 26.940624 24.58125 26.940624Q25.7375 26.940624 26.471874 27.425Q27.20625 27.89375 27.51875 28.753124Q28.753124 26.940624 30.721874 26.940624Q32.26875 26.940624 33.096874 27.8Q33.925 28.659374 33.925 30.425L33.925 37.55L32.175 37.55L32.175 31.01875Q32.175 29.95625 32.003124 29.503124Q31.83125 29.034374 31.378124 28.753124Q30.940624 28.471874 30.33125 28.471874Q29.2375 28.471874 28.503124 29.20625Q27.784374 29.925 27.784374 31.51875L27.784374 37.55L26.034374 37.55L26.034374 30.815624Q26.034374 29.64375 25.596874 29.065624Q25.175 28.471874 24.190624 28.471874Q23.45625 28.471874 22.815624 28.8625Q22.190624 29.253124 21.909374 30.003124Q21.628124 30.753124 21.628124 32.175L21.628124 37.55L19.8625 37.55ZM42.971874 34.20625L44.784374 34.440624Q44.3625 36.01875 43.190624 36.909374Q42.034374 37.784374 40.221874 37.784374Q37.95625 37.784374 36.6125 36.39375Q35.284374 34.9875 35.284374 32.45625Q35.284374 29.83125 36.628124 28.39375Q37.971874 26.940624 40.128124 26.940624Q42.20625 26.940624 43.51875 28.3625Q44.846874 29.76875 44.846874 32.346874Q44.846874 32.503124 44.83125 32.815624L37.096874 32.815624Q37.190624 34.51875 38.065624 35.425Q38.940624 36.33125 40.2375 36.33125Q41.20625 36.33125 41.878124 35.83125Q42.565624 35.315624 42.971874 34.20625ZM37.190624 31.3625L42.9875 31.3625Q42.878124 30.065624 42.33125 29.409374Q41.4875 28.39375 40.14375 28.39375Q38.940624 28.39375 38.1125 29.20625Q37.284374 30.003124 37.190624 31.3625ZM46.8625 37.55L46.8625 27.175L48.440624 27.175L48.440624 28.628124Q48.925 27.878124 49.7375 27.409374Q50.55 26.940624 51.58125 26.940624Q52.7375 26.940624 53.471874 27.425Q54.20625 27.89375 54.51875 28.753124Q55.753124 26.940624 57.721874 26.940624Q59.26875 26.940624 60.096874 27.8Q60.925 28.659374 60.925 30.425L60.925 37.55L59.175 37.55L59.175 31.01875Q59.175 29.95625 59.003124 29.503124Q58.83125 29.034374 58.378124 28.753124Q57.940624 28.471874 57.33125 28.471874Q56.2375 28.471874 55.503124 29.20625Q54.784374 29.925 54.784374 31.51875L54.784374 37.55L53.034374 37.55L53.034374 30.815624Q53.034374 29.64375 52.596874 29.065624Q52.175 28.471874 51.190624 28.471874Q50.45625 28.471874 49.815624 28.8625Q49.190624 29.253124 48.909374 30.003124Q48.628124 30.753124 48.628124 32.175L48.628124 37.55L46.8625 37.55ZM62.221874 32.3625Q62.221874 29.4875 63.815624 28.096874Q65.15938 26.940624 67.08125 26.940624Q69.22188 26.940624 70.56563 28.346874Q71.925 29.753124 71.925 32.221874Q71.925 34.221874 71.33125 35.378124Q70.7375 36.51875 69.58125 37.159374Q68.44063 37.784374 67.08125 37.784374Q64.89375 37.784374 63.55 36.39375Q62.221874 34.9875 62.221874 32.3625ZM64.01875 32.3625Q64.01875 34.3625 64.87813 35.346874Q65.75313 36.33125 67.08125 36.33125Q68.39375 36.33125 69.25313 35.346874Q70.12813 34.346874 70.12813 32.3Q70.12813 30.378124 69.25313 29.39375Q68.37813 28.39375 67.08125 28.39375Q65.75313 28.39375 64.87813 29.39375Q64.01875 30.378124 64.01875 32.3625ZM73.84688 37.55L73.84688 27.175L75.425 27.175L75.425 28.753124Q76.03438 27.64375 76.55 27.3Q77.06563 26.940624 77.675 26.940624Q78.56563 26.940624 79.4875 27.503124L78.87813 29.14375Q78.2375 28.753124 77.59688 28.753124Q77.01875 28.753124 76.55 29.1125Q76.09688 29.45625 75.89375 30.065624Q75.6125 31.003124 75.6125 32.1125L75.6125 37.55L73.84688 37.55ZM80.78438 41.55L80.59688 39.89375Q81.175 40.05 81.59688 40.05Q82.19063 40.05 82.53438 39.846874Q82.89375 39.659374 83.1125 39.315624Q83.28438 39.05 83.65938 38.003124Q83.70625 37.846874 83.81563 37.565624L79.87813 27.175L81.76875 27.175L83.925 33.190624Q84.34688 34.33125 84.675 35.58125Q84.9875 34.378124 85.39375 33.221874L87.6125 27.175L89.37813 27.175L85.425 37.721874Q84.8 39.440624 84.44063 40.08125Q83.97188 40.95625 83.3625 41.346874Q82.76875 41.753124 81.925 41.753124Q81.40938 41.753124 80.78438 41.55ZM103.65938 37.55L103.65938 36.01875Q102.45625 37.784374 100.37813 37.784374Q99.45625 37.784374 98.65938 37.440624Q97.8625 37.08125 97.47188 36.55Q97.09688 36.01875 96.94063 35.2375Q96.83125 34.721874 96.83125 33.596874L96.83125 27.175L98.58125 27.175L98.58125 32.925Q98.58125 34.3 98.69063 34.784374Q98.8625 35.471874 99.39375 35.878124Q99.94063 36.26875 100.72188 36.26875Q101.51875 36.26875 102.20625 35.8625Q102.90938 35.45625 103.19063 34.76875Q103.4875 34.065624 103.4875 32.7375L103.4875 27.175L105.2375 27.175L105.2375 37.55L103.65938 37.55ZM106.15938 34.45625L107.90938 34.175Q108.05 35.221874 108.72188 35.784374Q109.39375 36.33125 110.59688 36.33125Q111.8 36.33125 112.37813 35.846874Q112.97188 35.346874 112.97188 34.690624Q112.97188 34.096874 112.45625 33.753124Q112.09688 33.51875 110.65938 33.159374Q108.72188 32.659374 107.97188 32.315624Q107.2375 31.95625 106.84688 31.33125Q106.45625 30.690624 106.45625 29.925Q106.45625 29.2375 106.76875 28.64375Q107.09688 28.05 107.64375 27.659374Q108.05 27.3625 108.75313 27.159374Q109.47188 26.940624 110.28438 26.940624Q111.50313 26.940624 112.425 27.3Q113.34688 27.64375 113.78438 28.253124Q114.22188 28.846874 114.39375 29.846874L112.675 30.08125Q112.55 29.284374 111.9875 28.846874Q111.425 28.39375 110.40938 28.39375Q109.19063 28.39375 108.675 28.8Q108.15938 29.190624 108.15938 29.721874Q108.15938 30.065624 108.37813 30.346874Q108.58125 30.628124 109.05 30.815624Q109.31563 30.909374 110.59688 31.253124Q112.47188 31.753124 113.20625 32.08125Q113.94063 32.39375 114.3625 33.003124Q114.78438 33.596874 114.78438 34.503124Q114.78438 35.378124 114.26875 36.159374Q113.75313 36.940624 112.78438 37.3625Q111.81563 37.784374 110.59688 37.784374Q108.58125 37.784374 107.51875 36.940624Q106.45625 36.096874 106.15938 34.45625ZM123.64375 36.26875Q122.65938 37.096874 121.75313 37.440624Q120.84688 37.784374 119.81563 37.784374Q118.1125 37.784374 117.19063 36.95625Q116.26875 36.1125 116.26875 34.815624Q116.26875 34.05 116.6125 33.425Q116.97188 32.8 117.53438 32.425Q118.09688 32.034374 118.8 31.83125Q119.31563 31.70625 120.3625 31.565624Q122.4875 31.315624 123.4875 30.971874Q123.50313 30.6125 123.50313 30.503124Q123.50313 29.440624 123.00313 28.9875Q122.33125 28.39375 121.00313 28.39375Q119.75313 28.39375 119.15938 28.83125Q118.58125 29.26875 118.3 30.378124L116.58125 30.14375Q116.81563 29.034374 117.34688 28.3625Q117.87813 27.675 118.89375 27.315624Q119.90938 26.940624 121.25313 26.940624Q122.58125 26.940624 123.40938 27.253124Q124.2375 27.565624 124.62813 28.05Q125.01875 28.51875 125.175 29.2375Q125.26875 29.690624 125.26875 30.8625L125.26875 33.20625Q125.26875 35.659374 125.37813 36.315624Q125.4875 36.95625 125.83125 37.55L123.9875 37.55Q123.72188 37.003124 123.64375 36.26875ZM123.4875 32.346874Q122.53438 32.7375 120.6125 33.003124Q119.53438 33.159374 119.08125 33.3625Q118.64375 33.55 118.39375 33.925Q118.14375 34.3 118.14375 34.76875Q118.14375 35.471874 118.675 35.940624Q119.20625 36.409374 120.2375 36.409374Q121.25313 36.409374 122.03438 35.971874Q122.83125 35.51875 123.20625 34.753124Q123.4875 34.14375 123.4875 32.9875L123.4875 32.346874ZM127.55 38.409374L129.25313 38.659374Q129.3625 39.45625 129.84688 39.815624Q130.50313 40.3 131.64375 40.3Q132.8625 40.3 133.51875 39.815624Q134.19063 39.33125 134.425 38.45625Q134.56563 37.909374 134.55 36.190624Q133.39375 37.55 131.675 37.55Q129.53438 37.55 128.3625 36.003124Q127.19063 34.45625 127.19063 32.3Q127.19063 30.815624 127.72188 29.565624Q128.26875 28.315624 129.28438 27.628124Q130.31563 26.940624 131.69063 26.940624Q133.51875 26.940624 134.72188 28.425L134.72188 27.175L136.33125 27.175L136.33125 36.14375Q136.33125 38.565624 135.83125 39.565624Q135.34688 40.58125 134.26875 41.159374Q133.20625 41.753124 131.64375 41.753124Q129.8 41.753124 128.64375 40.925Q127.50313 40.096874 127.55 38.409374ZM129.00313 32.175Q129.00313 34.221874 129.81563 35.159374Q130.62813 36.096874 131.84688 36.096874Q133.05 36.096874 133.8625 35.159374Q134.69063 34.221874 134.69063 32.2375Q134.69063 30.33125 133.84688 29.3625Q133.00313 28.39375 131.81563 28.39375Q130.64375 28.39375 129.81563 29.346874Q129.00313 30.3 129.00313 32.175ZM145.97188 34.20625L147.78438 34.440624Q147.3625 36.01875 146.19063 36.909374Q145.03438 37.784374 143.22188 37.784374Q140.95625 37.784374 139.6125 36.39375Q138.28438 34.9875 138.28438 32.45625Q138.28438 29.83125 139.62813 28.39375Q140.97188 26.940624 143.12813 26.940624Q145.20625 26.940624 146.51875 28.3625Q147.84688 29.76875 147.84688 32.346874Q147.84688 32.503124 147.83125 32.815624L140.09688 32.815624Q140.19063 34.51875 141.06563 35.425Q141.94063 36.33125 143.2375 36.33125Q144.20625 36.33125 144.87813 35.83125Q145.56563 35.315624 145.97188 34.20625ZM140.19063 31.3625L145.9875 31.3625Q145.87813 30.065624 145.33125 29.409374Q144.4875 28.39375 143.14375 28.39375Q141.94063 28.39375 141.1125 29.20625Q140.28438 30.003124 140.19063 31.3625ZM155.22188 32.3625Q155.22188 29.4875 156.81563 28.096874Q158.15938 26.940624 160.08125 26.940624Q162.22188 26.940624 163.56563 28.346874Q164.925 29.753124 164.925 32.221874Q164.925 34.221874 164.33125 35.378124Q163.7375 36.51875 162.58125 37.159374Q161.44063 37.784374 160.08125 37.784374Q157.89375 37.784374 156.55 36.39375Q155.22188 34.9875 155.22188 32.3625ZM157.01875 32.3625Q157.01875 34.3625 157.87813 35.346874Q158.75313 36.33125 160.08125 36.33125Q161.39375 36.33125 162.25313 35.346874Q163.12813 34.346874 163.12813 32.3Q163.12813 30.378124 162.25313 29.39375Q161.37813 28.39375 160.08125 28.39375Q158.75313 28.39375 157.87813 29.39375Q157.01875 30.378124 157.01875 32.3625ZM169.75313 37.55L165.8 27.175L167.65938 27.175L169.89375 33.39375Q170.25313 34.39375 170.55 35.471874Q170.78438 34.659374 171.20625 33.503124L173.50313 27.175L175.31563 27.175L171.39375 37.55L169.75313 37.55ZM182.97188 34.20625L184.78438 34.440624Q184.3625 36.01875 183.19063 36.909374Q182.03438 37.784374 180.22188 37.784374Q177.95625 37.784374 176.6125 36.39375Q175.28438 34.9875 175.28438 32.45625Q175.28438 29.83125 176.62813 28.39375Q177.97188 26.940624 180.12813 26.940624Q182.20625 26.940624 183.51875 28.3625Q184.84688 29.76875 184.84688 32.346874Q184.84688 32.503124 184.83125 32.815624L177.09688 32.815624Q177.19063 34.51875 178.06563 35.425Q178.94063 36.33125 180.2375 36.33125Q181.20625 36.33125 181.87813 35.83125Q182.56563 35.315624 182.97188 34.20625ZM177.19063 31.3625L182.9875 31.3625Q182.87813 30.065624 182.33125 29.409374Q181.4875 28.39375 180.14375 28.39375Q178.94063 28.39375 178.1125 29.20625Q177.28438 30.003124 177.19063 31.3625ZM186.84688 37.55L186.84688 27.175L188.425 27.175L188.425 28.753124Q189.03438 27.64375 189.55 27.3Q190.06563 26.940624 190.675 26.940624Q191.56563 26.940624 192.4875 27.503124L191.87813 29.14375Q191.2375 28.753124 190.59688 28.753124Q190.01875 28.753124 189.55 29.1125Q189.09688 29.45625 188.89375 30.065624Q188.6125 31.003124 188.6125 32.1125L188.6125 37.55L186.84688 37.55ZM203.70625 35.971874L203.95625 37.534374Q203.22188 37.690624 202.62813 37.690624Q201.675 37.690624 201.14375 37.39375Q200.62813 37.08125 200.40938 36.596874Q200.19063 36.096874 200.19063 34.51875L200.19063 28.55L198.90938 28.55L198.90938 27.175L200.19063 27.175L200.19063 24.6125L201.94063 23.55L201.94063 27.175L203.70625 27.175L203.70625 28.55L201.94063 28.55L201.94063 34.6125Q201.94063 35.3625 202.03438 35.58125Q202.12813 35.784374 202.33125 35.925Q202.55 36.05 202.94063 36.05Q203.22188 36.05 203.70625 35.971874ZM205.87813 25.253124L205.87813 23.2375L207.64375 23.2375L207.64375 25.253124L205.87813 25.253124ZM205.87813 37.55L205.87813 27.175L207.64375 27.175L207.64375 37.55L205.87813 37.55ZM209.8625 37.55L209.8625 27.175L211.44063 27.175L211.44063 28.628124Q211.925 27.878124 212.7375 27.409374Q213.55 26.940624 214.58125 26.940624Q215.7375 26.940624 216.47188 27.425Q217.20625 27.89375 217.51875 28.753124Q218.75313 26.940624 220.72188 26.940624Q222.26875 26.940624 223.09688 27.8Q223.925 28.659374 223.925 30.425L223.925 37.55L222.175 37.55L222.175 31.01875Q222.175 29.95625 222.00313 29.503124Q221.83125 29.034374 221.37813 28.753124Q220.94063 28.471874 220.33125 28.471874Q219.2375 28.471874 218.50313 29.20625Q217.78438 29.925 217.78438 31.51875L217.78438 37.55L216.03438 37.55L216.03438 30.815624Q216.03438 29.64375 215.59688 29.065624Q215.175 28.471874 214.19063 28.471874Q213.45625 28.471874 212.81563 28.8625Q212.19063 29.253124 211.90938 30.003124Q211.62813 30.753124 211.62813 32.175L211.62813 37.55L209.8625 37.55ZM232.97188 34.20625L234.78438 34.440624Q234.3625 36.01875 233.19063 36.909374Q232.03438 37.784374 230.22188 37.784374Q227.95625 37.784374 226.6125 36.39375Q225.28438 34.9875 225.28438 32.45625Q225.28438 29.83125 226.62813 28.39375Q227.97188 26.940624 230.12813 26.940624Q232.20625 26.940624 233.51875 28.3625Q234.84688 29.76875 234.84688 32.346874Q234.84688 32.503124 234.83125 32.815624L227.09688 32.815624Q227.19063 34.51875 228.06563 35.425Q228.94063 36.33125 230.2375 36.33125Q231.20625 36.33125 231.87813 35.83125Q232.56563 35.315624 232.97188 34.20625ZM227.19063 31.3625L232.9875 31.3625Q232.87813 30.065624 232.33125 29.409374Q231.4875 28.39375 230.14375 28.39375Q228.94063 28.39375 228.1125 29.20625Q227.28438 30.003124 227.19063 31.3625ZM246.22188 41.753124Q244.76875 39.925 243.76875 37.471874Q242.76875 35.003124 242.76875 32.3625Q242.76875 30.034374 243.51875 27.909374Q244.39375 25.440624 246.22188 22.9875L247.4875 22.9875Q246.3 25.01875 245.925 25.89375Q245.33125 27.2375 244.9875 28.70625Q244.56563 30.534374 244.56563 32.378124Q244.56563 37.065624 247.4875 41.753124L246.22188 41.753124ZM251.4875 37.55L249.8625 37.55L249.8625 23.2375L251.6125 23.2375L251.6125 28.346874Q252.7375 26.940624 254.45625 26.940624Q255.40938 26.940624 256.26874 27.33125Q257.1281 27.721874 257.675 28.425Q258.22186 29.1125 258.53436 30.096874Q258.84686 31.08125 258.84686 32.20625Q258.84686 34.878124 257.53436 36.33125Q256.22186 37.784374 254.37813 37.784374Q252.53438 37.784374 251.4875 36.253124L251.4875 37.55ZM251.47188 32.284374Q251.47188 34.14375 251.97188 34.9875Q252.81563 36.33125 254.22188 36.33125Q255.37813 36.33125 256.20624 35.33125Q257.05 34.33125 257.05 32.346874Q257.05 30.315624 256.2375 29.3625Q255.44063 28.39375 254.3 28.39375Q253.14375 28.39375 252.3 29.39375Q251.47188 30.39375 251.47188 32.284374ZM267.64374 36.26875Q266.65936 37.096874 265.7531 37.440624Q264.84686 37.784374 263.8156 37.784374Q262.1125 37.784374 261.1906 36.95625Q260.26874 36.1125 260.26874 34.815624Q260.26874 34.05 260.6125 33.425Q260.97186 32.8 261.53436 32.425Q262.09686 32.034374 262.8 31.83125Q263.3156 31.70625 264.3625 31.565624Q266.4875 31.315624 267.4875 30.971874Q267.5031 30.6125 267.5031 30.503124Q267.5031 29.440624 267.0031 28.9875Q266.33124 28.39375 265.0031 28.39375Q263.7531 28.39375 263.15936 28.83125Q262.58124 29.26875 262.3 30.378124L260.58124 30.14375Q260.8156 29.034374 261.34686 28.3625Q261.8781 27.675 262.89374 27.315624Q263.90936 26.940624 265.2531 26.940624Q266.58124 26.940624 267.40936 27.253124Q268.2375 27.565624 268.6281 28.05Q269.01874 28.51875 269.175 29.2375Q269.26874 29.690624 269.26874 30.8625L269.26874 33.20625Q269.26874 35.659374 269.3781 36.315624Q269.4875 36.95625 269.83124 37.55L267.9875 37.55Q267.72186 37.003124 267.64374 36.26875ZM267.4875 32.346874Q266.53436 32.7375 264.6125 33.003124Q263.53436 33.159374 263.08124 33.3625Q262.64374 33.55 262.39374 33.925Q262.14374 34.3 262.14374 34.76875Q262.14374 35.471874 262.675 35.940624Q263.20624 36.409374 264.2375 36.409374Q265.2531 36.409374 266.03436 35.971874Q266.83124 35.51875 267.20624 34.753124Q267.4875 34.14375 267.4875 32.9875L267.4875 32.346874ZM271.15936 34.45625L272.90936 34.175Q273.05 35.221874 273.72186 35.784374Q274.39374 36.33125 275.59686 36.33125Q276.8 36.33125 277.3781 35.846874Q277.97186 35.346874 277.97186 34.690624Q277.97186 34.096874 277.45624 33.753124Q277.09686 33.51875 275.65936 33.159374Q273.72186 32.659374 272.97186 32.315624Q272.2375 31.95625 271.84686 31.33125Q271.45624 30.690624 271.45624 29.925Q271.45624 29.2375 271.76874 28.64375Q272.09686 28.05 272.64374 27.659374Q273.05 27.3625 273.7531 27.159374Q274.47186 26.940624 275.28436 26.940624Q276.5031 26.940624 277.425 27.3Q278.34686 27.64375 278.78436 28.253124Q279.22186 28.846874 279.39374 29.846874L277.675 30.08125Q277.55 29.284374 276.9875 28.846874Q276.425 28.39375 275.40936 28.39375Q274.1906 28.39375 273.675 28.8Q273.15936 29.190624 273.15936 29.721874Q273.15936 30.065624 273.3781 30.346874Q273.58124 30.628124 274.05 30.815624Q274.3156 30.909374 275.59686 31.253124Q277.47186 31.753124 278.20624 32.08125Q278.9406 32.39375 279.3625 33.003124Q279.78436 33.596874 279.78436 34.503124Q279.78436 35.378124 279.26874 36.159374Q278.7531 36.940624 277.78436 37.3625Q276.8156 37.784374 275.59686 37.784374Q273.58124 37.784374 272.51874 36.940624Q271.45624 36.096874 271.15936 34.45625ZM288.97186 34.20625L290.78436 34.440624Q290.3625 36.01875 289.1906 36.909374Q288.03436 37.784374 286.22186 37.784374Q283.95624 37.784374 282.6125 36.39375Q281.28436 34.9875 281.28436 32.45625Q281.28436 29.83125 282.6281 28.39375Q283.97186 26.940624 286.1281 26.940624Q288.20624 26.940624 289.51874 28.3625Q290.84686 29.76875 290.84686 32.346874Q290.84686 32.503124 290.83124 32.815624L283.09686 32.815624Q283.1906 34.51875 284.0656 35.425Q284.9406 36.33125 286.2375 36.33125Q287.20624 36.33125 287.8781 35.83125Q288.5656 35.315624 288.97186 34.20625ZM283.1906 31.3625L288.9875 31.3625Q288.8781 30.065624 288.33124 29.409374Q287.4875 28.39375 286.14374 28.39375Q284.9406 28.39375 284.1125 29.20625Q283.28436 30.003124 283.1906 31.3625ZM292.83124 37.55L292.83124 23.2375L294.58124 23.2375L294.58124 37.55L292.83124 37.55ZM296.8781 25.253124L296.8781 23.2375L298.64374 23.2375L298.64374 25.253124L296.8781 25.253124ZM296.8781 37.55L296.8781 27.175L298.64374 27.175L298.64374 37.55L296.8781 37.55ZM300.8625 37.55L300.8625 27.175L302.45624 27.175L302.45624 28.659374Q303.59686 26.940624 305.7531 26.940624Q306.6906 26.940624 307.47186 27.284374Q308.26874 27.6125 308.65936 28.159374Q309.05 28.70625 309.20624 29.45625Q309.3 29.95625 309.3 31.175L309.3 37.55L307.53436 37.55L307.53436 31.2375Q307.53436 30.159374 307.33124 29.628124Q307.1281 29.096874 306.59686 28.784374Q306.08124 28.471874 305.3781 28.471874Q304.2531 28.471874 303.4406 29.190624Q302.6281 29.89375 302.6281 31.878124L302.6281 37.55L300.8625 37.55ZM317.97186 34.20625L319.78436 34.440624Q319.3625 36.01875 318.1906 36.909374Q317.03436 37.784374 315.22186 37.784374Q312.95624 37.784374 311.6125 36.39375Q310.28436 34.9875 310.28436 32.45625Q310.28436 29.83125 311.6281 28.39375Q312.97186 26.940624 315.1281 26.940624Q317.20624 26.940624 318.51874 28.3625Q319.84686 29.76875 319.84686 32.346874Q319.84686 32.503124 319.83124 32.815624L312.09686 32.815624Q312.1906 34.51875 313.0656 35.425Q313.9406 36.33125 315.2375 36.33125Q316.20624 36.33125 316.8781 35.83125Q317.5656 35.315624 317.97186 34.20625ZM312.1906 31.3625L317.9875 31.3625Q317.8781 30.065624 317.33124 29.409374Q316.4875 28.39375 315.14374 28.39375Q313.9406 28.39375 313.1125 29.20625Q312.28436 30.003124 312.1906 31.3625ZM323.01874 41.753124L321.76874 41.753124Q324.675 37.065624 324.675 32.378124Q324.675 30.534374 324.26874 28.7375Q323.925 27.26875 323.33124 25.925Q322.95624 25.034374 321.76874 22.9875L323.01874 22.9875Q324.8625 25.440624 325.7375 27.909374Q326.4875 30.034374 326.4875 32.3625Q326.4875 35.003124 325.47186 37.471874Q324.47186 39.925 323.01874 41.753124Z" fill-rule="nonzero"/></svg>