<svg version="1.1" viewBox="0.0 0.0 600.0 371.0" fill="none" stroke="none" stroke-linecap="square" stroke-miterlimit="10" width="600" height="371" xmlns:xlink="http://www.w3.org/1999/xlink" xmlns="http://www.w3.org/2000/svg"><path fill="#ffffff" d="M0 0L600.0 0L600.0 371.0L0 371.0L0 0Z" fill-rule="nonzero"/><path stroke="#333333" stroke-width="1.0" stroke-linecap="butt" d="M77.5 88.5L77.5 300.5" fill-rule="nonzero"/><path stroke="#cccccc" stroke-width="1.0" stroke-linecap="butt" d="M206.5 88.5L206.5 300.5" fill-rule="nonzero"/><path stroke="#cccccc" stroke-width="1.0" stroke-linecap="butt" d="M335.5 88.5L335.5 300.5" fill-rule="nonzero"/><path stroke="#cccccc" stroke-width="1.0" stroke-linecap="butt" d="M465.5 88.5L465.5 300.5" fill-rule="nonzero"/><path stroke="#333333" stroke-width="1.0" stroke-linecap="butt" d="M77.5 300.5L581.5 300.5" fill-rule="nonzero"/><path stroke="#cccccc" stroke-width="1.0" stroke-linecap="butt" d="M77.5 229.5L581.5 229.5" fill-rule="nonzero"/><path stroke="#cccccc" stroke-width="1.0" stroke-linecap="butt" d="M77.5 159.5L581.5 159.5" fill-rule="nonzero"/><path stroke="#cccccc" stroke-width="1.0" stroke-linecap="butt" d="M77.5 88.5L581.5 88.5" fill-rule="nonzero"/><clipPath id="id_0"><path d="M77.55 88.28333L581.45 88.28333L581.45 300.45L77.55 300.45L77.55 88.28333Z" clip-rule="nonzero"/></clipPath><path stroke="#4285f4" stroke-width="2.0" stroke-linecap="butt" clip-path="url(#id_0)" d="M77.55 291.97614L116.31154 291.93256L155.07307 289.95215L193.83461 289.73117L232.59616 289.31937L271.3577 289.0974L310.11923 288.75616L348.88077 288.65994L387.6423 288.26282L426.40384 288.0349L465.16537 287.66705L503.9269 287.6031L542.6885 287.17764L581.45 287.1233" fill-rule="nonzero"/><path stroke="#ea4335" stroke-width="2.0" stroke-linecap="butt" clip-path="url(#id_0)" d="M77.55 299.73566L116.31154 299.68256L155.07307 297.97208L193.83461 297.59207L232.59616 297.28305L271.3577 297.1771L310.11923 296.9592L348.88077 296.73898L387.6423 296.5291L426.40384 296.3083L465.16537 295.98978L503.9269 295.70013L542.6885 295.46457L581.45 295.41702" fill-rule="nonzero"/><path stroke="#fbbc04" stroke-width="2.0" stroke-linecap="butt" clip-path="url(#id_0)" d="M77.55 294.36008L116.31154 294.28937L155.07307 292.50513L193.83461 292.15067L232.59616 291.93994L271.3577 291.7377L310.11923 291.53918L348.88077 291.17395L387.6423 290.9693L426.40384 290.75607L465.16537 290.53677L503.9269 290.1752L542.6885 289.98026L581.45 289.93478" fill-rule="nonzero"/><path stroke="#34a853" stroke-width="2.0" stroke-linecap="butt" clip-path="url(#id_0)" d="M77.55 184.02675L116.31154 181.02489L155.07307 163.82083L193.83461 156.43256L232.59616 152.62386L271.3577 148.712L310.11923 144.93594L348.88077 140.98857L387.6423 137.36879L426.40384 129.98213L465.16537 126.1002L503.9269 120.48939L542.6885 114.57902L581.45 114.39083" fill-rule="nonzero"/><path fill="#000000" fill-opacity="0.0" clip-path="url(#id_0)" d="M80.55 291.97614C80.55 293.633 79.206856 294.97614 77.55 294.97614C75.89314 294.97614 74.55 293.633 74.55 291.97614C74.55 290.3193 75.89314 288.97614 77.55 288.97614C79.206856 288.97614 80.55 290.3193 80.55 291.97614Z" fill-rule="nonzero"/><path fill="#000000" fill-opacity="0.0" clip-path="url(#id_0)" d="M119.31154 291.93256C119.31154 293.58942 117.96839 294.93256 116.31154 294.93256C114.654686 294.93256 113.31154 293.58942 113.31154 291.93256C113.31154 290.2757 114.654686 288.93256 116.31154 288.93256C117.96839 288.93256 119.31154 290.2757 119.31154 291.93256Z" fill-rule="nonzero"/><path fill="#000000" fill-opacity="0.0" clip-path="url(#id_0)" d="M158.07307 289.95215C158.07307 291.60898 156.72993 292.95215 155.07307 292.95215C153.41623 292.95215 152.07307 291.60898 152.07307 289.95215C152.07307 288.2953 153.41623 286.95215 155.07307 286.95215C156.72993 286.95215 158.07307 288.2953 158.07307 289.95215Z" fill-rule="nonzero"/><path fill="#000000" fill-opacity="0.0" clip-path="url(#id_0)" d="M196.83461 289.73117C196.83461 291.38803 195.49147 292.73117 193.83461 292.73117C192.17776 292.73117 190.83461 291.38803 190.83461 289.73117C190.83461 288.07434 192.17776 286.73117 193.83461 286.73117C195.49147 286.73117 196.83461 288.07434 196.83461 289.73117Z" fill-rule="nonzero"/><path fill="#000000" fill-opacity="0.0" clip-path="url(#id_0)" d="M235.59616 289.31937C235.59616 290.97623 234.253 292.31937 232.59616 292.31937C230.9393 292.31937 229.59616 290.97623 229.59616 289.31937C229.59616 287.6625 230.9393 286.31937 232.59616 286.31937C234.253 286.31937 235.59616 287.6625 235.59616 289.31937Z" fill-rule="nonzero"/><path fill="#000000" fill-opacity="0.0" clip-path="url(#id_0)" d="M274.3577 289.0974C274.3577 290.75427 273.01456 292.0974 271.3577 292.0974C269.70084 292.0974 268.3577 290.75427 268.3577 289.0974C268.3577 287.44058 269.70084 286.0974 271.3577 286.0974C273.01456 286.0974 274.3577 287.44058 274.3577 289.0974Z" fill-rule="nonzero"/><path fill="#000000" fill-opacity="0.0" clip-path="url(#id_0)" d="M313.11923 288.75616C313.11923 290.413 311.7761 291.75616 310.11923 291.75616C308.46237 291.75616 307.11923 290.413 307.11923 288.75616C307.11923 287.0993 308.46237 285.75616 310.11923 285.75616C311.7761 285.75616 313.11923 287.0993 313.11923 288.75616Z" fill-rule="nonzero"/><path fill="#000000" fill-opacity="0.0" clip-path="url(#id_0)" d="M351.88077 288.65994C351.88077 290.3168 350.53763 291.65994 348.88077 291.65994C347.2239 291.65994 345.88077 290.3168 345.88077 288.65994C345.88077 287.00308 347.2239 285.65994 348.88077 285.65994C350.53763 285.65994 351.88077 287.00308 351.88077 288.65994Z" fill-rule="nonzero"/><path fill="#000000" fill-opacity="0.0" clip-path="url(#id_0)" d="M390.6423 288.26282C390.6423 289.91968 389.29916 291.26282 387.6423 291.26282C385.98544 291.26282 384.6423 289.91968 384.6423 288.26282C384.6423 286.60596 385.98544 285.26282 387.6423 285.26282C389.29916 285.26282 390.6423 286.60596 390.6423 288.26282Z" fill-rule="nonzero"/><path fill="#000000" fill-opacity="0.0" clip-path="url(#id_0)" d="M429.40384 288.0349C429.40384 289.69177 428.0607 291.0349 426.40384 291.0349C424.74698 291.0349 423.40384 289.69177 423.40384 288.0349C423.40384 286.37808 424.74698 285.0349 426.40384 285.0349C428.0607 285.0349 429.40384 286.37808 429.40384 288.0349Z" fill-rule="nonzero"/><path fill="#000000" fill-opacity="0.0" clip-path="url(#id_0)" d="M468.16537 287.66705C468.16537 289.32388 466.82224 290.66705 465.16537 290.66705C463.50854 290.66705 462.16537 289.32388 462.16537 287.66705C462.16537 286.0102 463.50854 284.66705 465.16537 284.66705C466.82224 284.66705 468.16537 286.0102 468.16537 287.66705Z" fill-rule="nonzero"/><path fill="#000000" fill-opacity="0.0" clip-path="url(#id_0)" d="M506.9269 287.6031C506.9269 289.25995 505.58377 290.6031 503.9269 290.6031C502.27008 290.6031 500.9269 289.25995 500.9269 287.6031C500.9269 285.94626 502.27008 284.6031 503.9269 284.6031C505.58377 284.6031 506.9269 285.94626 506.9269 287.6031Z" fill-rule="nonzero"/><path fill="#000000" fill-opacity="0.0" clip-path="url(#id_0)" d="M545.6885 287.17764C545.6885 288.8345 544.34534 290.17764 542.6885 290.17764C541.0316 290.17764 539.6885 288.8345 539.6885 287.17764C539.6885 285.52078 541.0316 284.17764 542.6885 284.17764C544.34534 284.17764 545.6885 285.52078 545.6885 287.17764Z" fill-rule="nonzero"/><path fill="#000000" fill-opacity="0.0" clip-path="url(#id_0)" d="M584.45 287.1233C584.45 288.78015 583.1069 290.1233 581.45 290.1233C579.79315 290.1233 578.45 288.78015 578.45 287.1233C578.45 285.46643 579.79315 284.1233 581.45 284.1233C583.1069 284.1233 584.45 285.46643 584.45 287.1233Z" fill-rule="nonzero"/><path fill="#000000" fill-opacity="0.0" clip-path="url(#id_0)" d="M80.55 299.73566C80.55 301.39252 79.206856 302.73566 77.55 302.73566C75.89314 302.73566 74.55 301.39252 74.55 299.73566C74.55 298.0788 75.89314 296.73566 77.55 296.73566C79.206856 296.73566 80.55 298.0788 80.55 299.73566Z" fill-rule="nonzero"/><path fill="#000000" fill-opacity="0.0" clip-path="url(#id_0)" d="M119.31154 299.68256C119.31154 301.3394 117.96839 302.68256 116.31154 302.68256C114.654686 302.68256 113.31154 301.3394 113.31154 299.68256C113.31154 298.0257 114.654686 296.68256 116.31154 296.68256C117.96839 296.68256 119.31154 298.0257 119.31154 299.68256Z" fill-rule="nonzero"/><path fill="#000000" fill-opacity="0.0" clip-path="url(#id_0)" d="M158.07307 297.97208C158.07307 299.62894 156.72993 300.97208 155.07307 300.97208C153.41623 300.97208 152.07307 299.62894 152.07307 297.97208C152.07307 296.31525 153.41623 294.97208 155.07307 294.97208C156.72993 294.97208 158.07307 296.31525 158.07307 297.97208Z" fill-rule="nonzero"/><path fill="#000000" fill-opacity="0.0" clip-path="url(#id_0)" d="M196.83461 297.59207C196.83461 299.24893 195.49147 300.59207 193.83461 300.59207C192.17776 300.59207 190.83461 299.24893 190.83461 297.59207C190.83461 295.9352 192.17776 294.59207 193.83461 294.59207C195.49147 294.59207 196.83461 295.9352 196.83461 297.59207Z" fill-rule="nonzero"/><path fill="#000000" fill-opacity="0.0" clip-path="url(#id_0)" d="M235.59616 297.28305C235.59616 298.9399 234.253 300.28305 232.59616 300.28305C230.9393 300.28305 229.59616 298.9399 229.59616 297.28305C229.59616 295.6262 230.9393 294.28305 232.59616 294.28305C234.253 294.28305 235.59616 295.6262 235.59616 297.28305Z" fill-rule="nonzero"/><path fill="#000000" fill-opacity="0.0" clip-path="url(#id_0)" d="M274.3577 297.1771C274.3577 298.83392 273.01456 300.1771 271.3577 300.1771C269.70084 300.1771 268.3577 298.83392 268.3577 297.1771C268.3577 295.52023 269.70084 294.1771 271.3577 294.1771C273.01456 294.1771 274.3577 295.52023 274.3577 297.1771Z" fill-rule="nonzero"/><path fill="#000000" fill-opacity="0.0" clip-path="url(#id_0)" d="M313.11923 296.9592C313.11923 298.61603 311.7761 299.9592 310.11923 299.9592C308.46237 299.9592 307.11923 298.61603 307.11923 296.9592C307.11923 295.30234 308.46237 293.9592 310.11923 293.9592C311.7761 293.9592 313.11923 295.30234 313.11923 296.9592Z" fill-rule="nonzero"/><path fill="#000000" fill-opacity="0.0" clip-path="url(#id_0)" d="M351.88077 296.73898C351.88077 298.39584 350.53763 299.73898 348.88077 299.73898C347.2239 299.73898 345.88077 298.39584 345.88077 296.73898C345.88077 295.08212 347.2239 293.73898 348.88077 293.73898C350.53763 293.73898 351.88077 295.08212 351.88077 296.73898Z" fill-rule="nonzero"/><path fill="#000000" fill-opacity="0.0" clip-path="url(#id_0)" d="M390.6423 296.5291C390.6423 298.18597 389.29916 299.5291 387.6423 299.5291C385.98544 299.5291 384.6423 298.18597 384.6423 296.5291C384.6423 294.87225 385.98544 293.5291 387.6423 293.5291C389.29916 293.5291 390.6423 294.87225 390.6423 296.5291Z" fill-rule="nonzero"/><path fill="#000000" fill-opacity="0.0" clip-path="url(#id_0)" d="M429.40384 296.3083C429.40384 297.96512 428.0607 299.3083 426.40384 299.3083C424.74698 299.3083 423.40384 297.96512 423.40384 296.3083C423.40384 294.65143 424.74698 293.3083 426.40384 293.3083C428.0607 293.3083 429.40384 294.65143 429.40384 296.3083Z" fill-rule="nonzero"/><path fill="#000000" fill-opacity="0.0" clip-path="url(#id_0)" d="M468.16537 295.98978C468.16537 297.64664 466.82224 298.98978 465.16537 298.98978C463.50854 298.98978 462.16537 297.64664 462.16537 295.98978C462.16537 294.33295 463.50854 292.98978 465.16537 292.98978C466.82224 292.98978 468.16537 294.33295 468.16537 295.98978Z" fill-rule="nonzero"/><path fill="#000000" fill-opacity="0.0" clip-path="url(#id_0)" d="M506.9269 295.70013C506.9269 297.357 505.58377 298.70013 503.9269 298.70013C502.27008 298.70013 500.9269 297.357 500.9269 295.70013C500.9269 294.0433 502.27008 292.70013 503.9269 292.70013C505.58377 292.70013 506.9269 294.0433 506.9269 295.70013Z" fill-rule="nonzero"/><path fill="#000000" fill-opacity="0.0" clip-path="url(#id_0)" d="M545.6885 295.46457C545.6885 297.1214 544.34534 298.46457 542.6885 298.46457C541.0316 298.46457 539.6885 297.1214 539.6885 295.46457C539.6885 293.8077 541.0316 292.46457 542.6885 292.46457C544.34534 292.46457 545.6885 293.8077 545.6885 295.46457Z" fill-rule="nonzero"/><path fill="#000000" fill-opacity="0.0" clip-path="url(#id_0)" d="M584.45 295.41702C584.45 297.07388 583.1069 298.41702 581.45 298.41702C579.79315 298.41702 578.45 297.07388 578.45 295.41702C578.45 293.7602 579.79315 292.41702 581.45 292.41702C583.1069 292.41702 584.45 293.7602 584.45 295.41702Z" fill-rule="nonzero"/><path fill="#000000" fill-opacity="0.0" clip-path="url(#id_0)" d="M80.55 294.36008C80.55 296.01694 79.206856 297.36008 77.55 297.36008C75.89314 297.36008 74.55 296.01694 74.55 294.36008C74.55 292.70325 75.89314 291.36008 77.55 291.36008C79.206856 291.36008 80.55 292.70325 80.55 294.36008Z" fill-rule="nonzero"/><path fill="#000000" fill-opacity="0.0" clip-path="url(#id_0)" d="M119.31154 294.28937C119.31154 295.94623 117.96839 297.28937 116.31154 297.28937C114.654686 297.28937 113.31154 295.94623 113.31154 294.28937C113.31154 292.6325 114.654686 291.28937 116.31154 291.28937C117.96839 291.28937 119.31154 292.6325 119.31154 294.28937Z" fill-rule="nonzero"/><path fill="#000000" fill-opacity="0.0" clip-path="url(#id_0)" d="M158.07307 292.50513C158.07307 294.162 156.72993 295.50513 155.07307 295.50513C153.41623 295.50513 152.07307 294.162 152.07307 292.50513C152.07307 290.8483 153.41623 289.50513 155.07307 289.50513C156.72993 289.50513 158.07307 290.8483 158.07307 292.50513Z" fill-rule="nonzero"/><path fill="#000000" fill-opacity="0.0" clip-path="url(#id_0)" d="M196.83461 292.15067C196.83461 293.8075 195.49147 295.15067 193.83461 295.15067C192.17776 295.15067 190.83461 293.8075 190.83461 292.15067C190.83461 290.4938 192.17776 289.15067 193.83461 289.15067C195.49147 289.15067 196.83461 290.4938 196.83461 292.15067Z" fill-rule="nonzero"/><path fill="#000000" fill-opacity="0.0" clip-path="url(#id_0)" d="M235.59616 291.93994C235.59616 293.5968 234.253 294.93994 232.59616 294.93994C230.9393 294.93994 229.59616 293.5968 229.59616 291.93994C229.59616 290.28308 230.9393 288.93994 232.59616 288.93994C234.253 288.93994 235.59616 290.28308 235.59616 291.93994Z" fill-rule="nonzero"/><path fill="#000000" fill-opacity="0.0" clip-path="url(#id_0)" d="M274.3577 291.7377C274.3577 293.39456 273.01456 294.7377 271.3577 294.7377C269.70084 294.7377 268.3577 293.39456 268.3577 291.7377C268.3577 290.08084 269.70084 288.7377 271.3577 288.7377C273.01456 288.7377 274.3577 290.08084 274.3577 291.7377Z" fill-rule="nonzero"/><path fill="#000000" fill-opacity="0.0" clip-path="url(#id_0)" d="M313.11923 291.53918C313.11923 293.196 311.7761 294.53918 310.11923 294.53918C308.46237 294.53918 307.11923 293.196 307.11923 291.53918C307.11923 289.88232 308.46237 288.53918 310.11923 288.53918C311.7761 288.53918 313.11923 289.88232 313.11923 291.53918Z" fill-rule="nonzero"/><path fill="#000000" fill-opacity="0.0" clip-path="url(#id_0)" d="M351.88077 291.17395C351.88077 292.8308 350.53763 294.17395 348.88077 294.17395C347.2239 294.17395 345.88077 292.8308 345.88077 291.17395C345.88077 289.5171 347.2239 288.17395 348.88077 288.17395C350.53763 288.17395 351.88077 289.5171 351.88077 291.17395Z" fill-rule="nonzero"/><path fill="#000000" fill-opacity="0.0" clip-path="url(#id_0)" d="M390.6423 290.9693C390.6423 292.62616 389.29916 293.9693 387.6423 293.9693C385.98544 293.9693 384.6423 292.62616 384.6423 290.9693C384.6423 289.31244 385.98544 287.9693 387.6423 287.9693C389.29916 287.9693 390.6423 289.31244 390.6423 290.9693Z" fill-rule="nonzero"/><path fill="#000000" fill-opacity="0.0" clip-path="url(#id_0)" d="M429.40384 290.75607C429.40384 292.41293 428.0607 293.75607 426.40384 293.75607C424.74698 293.75607 423.40384 292.41293 423.40384 290.75607C423.40384 289.09924 424.74698 287.75607 426.40384 287.75607C428.0607 287.75607 429.40384 289.09924 429.40384 290.75607Z" fill-rule="nonzero"/><path fill="#000000" fill-opacity="0.0" clip-path="url(#id_0)" d="M468.16537 290.53677C468.16537 292.19363 466.82224 293.53677 465.16537 293.53677C463.50854 293.53677 462.16537 292.19363 462.16537 290.53677C462.16537 288.8799 463.50854 287.53677 465.16537 287.53677C466.82224 287.53677 468.16537 288.8799 468.16537 290.53677Z" fill-rule="nonzero"/><path fill="#000000" fill-opacity="0.0" clip-path="url(#id_0)" d="M506.9269 290.1752C506.9269 291.83206 505.58377 293.1752 503.9269 293.1752C502.27008 293.1752 500.9269 291.83206 500.9269 290.1752C500.9269 288.51834 502.27008 287.1752 503.9269 287.1752C505.58377 287.1752 506.9269 288.51834 506.9269 290.1752Z" fill-rule="nonzero"/><path fill="#000000" fill-opacity="0.0" clip-path="url(#id_0)" d="M545.6885 289.98026C545.6885 291.63712 544.34534 292.98026 542.6885 292.98026C541.0316 292.98026 539.6885 291.63712 539.6885 289.98026C539.6885 288.3234 541.0316 286.98026 542.6885 286.98026C544.34534 286.98026 545.6885 288.3234 545.6885 289.98026Z" fill-rule="nonzero"/><path fill="#000000" fill-opacity="0.0" clip-path="url(#id_0)" d="M584.45 289.93478C584.45 291.59164 583.1069 292.93478 581.45 292.93478C579.79315 292.93478 578.45 291.59164 578.45 289.93478C578.45 288.27792 579.79315 286.93478 581.45 286.93478C583.1069 286.93478 584.45 288.27792 584.45 289.93478Z" fill-rule="nonzero"/><path fill="#000000" fill-opacity="0.0" clip-path="url(#id_0)" d="M80.55 184.02675C80.55 185.68361 79.206856 187.02675 77.55 187.02675C75.89314 187.02675 74.55 185.68361 74.55 184.02675C74.55 182.36989 75.89314 181.02675 77.55 181.02675C79.206856 181.02675 80.55 182.36989 80.55 184.02675Z" fill-rule="nonzero"/><path fill="#000000" fill-opacity="0.0" clip-path="url(#id_0)" d="M119.31154 181.02489C119.31154 182.68175 117.96839 184.02489 116.31154 184.02489C114.654686 184.02489 113.31154 182.68175 113.31154 181.02489C113.31154 179.36803 114.654686 178.02489 116.31154 178.02489C117.96839 178.02489 119.31154 179.36803 119.31154 181.02489Z" fill-rule="nonzero"/><path fill="#000000" fill-opacity="0.0" clip-path="url(#id_0)" d="M158.07307 163.82083C158.07307 165.47769 156.72993 166.82083 155.07307 166.82083C153.41623 166.82083 152.07307 165.47769 152.07307 163.82083C152.07307 162.16399 153.41623 160.82083 155.07307 160.82083C156.72993 160.82083 158.07307 162.16399 158.07307 163.82083Z" fill-rule="nonzero"/><path fill="#000000" fill-opacity="0.0" clip-path="url(#id_0)" d="M196.83461 156.43256C196.83461 158.08942 195.49147 159.43256 193.83461 159.43256C192.17776 159.43256 190.83461 158.08942 190.83461 156.43256C190.83461 154.77571 192.17776 153.43256 193.83461 153.43256C195.49147 153.43256 196.83461 154.77571 196.83461 156.43256Z" fill-rule="nonzero"/><path fill="#000000" fill-opacity="0.0" clip-path="url(#id_0)" d="M235.59616 152.62386C235.59616 154.28072 234.253 155.62386 232.59616 155.62386C230.9393 155.62386 229.59616 154.28072 229.59616 152.62386C229.59616 150.96701 230.9393 149.62386 232.59616 149.62386C234.253 149.62386 235.59616 150.96701 235.59616 152.62386Z" fill-rule="nonzero"/><path fill="#000000" fill-opacity="0.0" clip-path="url(#id_0)" d="M274.3577 148.712C274.3577 150.36885 273.01456 151.712 271.3577 151.712C269.70084 151.712 268.3577 150.36885 268.3577 148.712C268.3577 147.05515 269.70084 145.712 271.3577 145.712C273.01456 145.712 274.3577 147.05515 274.3577 148.712Z" fill-rule="nonzero"/><path fill="#000000" fill-opacity="0.0" clip-path="url(#id_0)" d="M313.11923 144.93594C313.11923 146.5928 311.7761 147.93594 310.11923 147.93594C308.46237 147.93594 307.11923 146.5928 307.11923 144.93594C307.11923 143.27908 308.46237 141.93594 310.11923 141.93594C311.7761 141.93594 313.11923 143.27908 313.11923 144.93594Z" fill-rule="nonzero"/><path fill="#000000" fill-opacity="0.0" clip-path="url(#id_0)" d="M351.88077 140.98857C351.88077 142.64542 350.53763 143.98857 348.88077 143.98857C347.2239 143.98857 345.88077 142.64542 345.88077 140.98857C345.88077 139.33171 347.2239 137.98857 348.88077 137.98857C350.53763 137.98857 351.88077 139.33171 351.88077 140.98857Z" fill-rule="nonzero"/><path fill="#000000" fill-opacity="0.0" clip-path="url(#id_0)" d="M390.6423 137.36879C390.6423 139.02565 389.29916 140.36879 387.6423 140.36879C385.98544 140.36879 384.6423 139.02565 384.6423 137.36879C384.6423 135.71193 385.98544 134.36879 387.6423 134.36879C389.29916 134.36879 390.6423 135.71193 390.6423 137.36879Z" fill-rule="nonzero"/><path fill="#000000" fill-opacity="0.0" clip-path="url(#id_0)" d="M429.40384 129.98213C429.40384 131.63899 428.0607 132.98213 426.40384 132.98213C424.74698 132.98213 423.40384 131.63899 423.40384 129.98213C423.40384 128.32529 424.74698 126.98214 426.40384 126.98214C428.0607 126.98214 429.40384 128.32529 429.40384 129.98213Z" fill-rule="nonzero"/><path fill="#000000" fill-opacity="0.0" clip-path="url(#id_0)" d="M468.16537 126.1002C468.16537 127.75706 466.82224 129.1002 465.16537 129.1002C463.50854 129.1002 462.16537 127.75706 462.16537 126.1002C462.16537 124.443344 463.50854 123.1002 465.16537 123.1002C466.82224 123.1002 468.16537 124.443344 468.16537 126.1002Z" fill-rule="nonzero"/><path fill="#000000" fill-opacity="0.0" clip-path="url(#id_0)" d="M506.9269 120.48939C506.9269 122.14625 505.58377 123.48939 503.9269 123.48939C502.27008 123.48939 500.9269 122.14625 500.9269 120.48939C500.9269 118.832535 502.27008 117.48939 503.9269 117.48939C505.58377 117.48939 506.9269 118.832535 506.9269 120.48939Z" fill-rule="nonzero"/><path fill="#000000" fill-opacity="0.0" clip-path="url(#id_0)" d="M545.6885 114.57902C545.6885 116.23587 544.34534 117.57902 542.6885 117.57902C541.0316 117.57902 539.6885 116.23587 539.6885 114.57902C539.6885 112.922165 541.0316 111.57902 542.6885 111.57902C544.34534 111.57902 545.6885 112.922165 545.6885 114.57902Z" fill-rule="nonzero"/><path fill="#000000" fill-opacity="0.0" clip-path="url(#id_0)" d="M584.45 114.39083C584.45 116.04768 583.1069 117.39083 581.45 117.39083C579.79315 117.39083 578.45 116.04768 578.45 114.39083C578.45 112.73397 579.79315 111.39083 581.45 111.39083C583.1069 111.39083 584.45 112.73397 584.45 114.39083Z" fill-rule="nonzero"/><path fill="#000000" d="M264.59375 348.5125L264.75 349.4344Q264.29688 349.52814 263.95312 349.52814Q263.375 349.52814 263.0625 349.35626Q262.75 349.16876 262.60938 348.8719Q262.48438 348.575 262.48438 347.6219L262.48438 344.04376L261.71875 344.04376L261.71875 343.23126L262.48438 343.23126L262.48438 341.6844L263.53125 341.0594L263.53125 343.23126L264.59375 343.23126L264.59375 344.04376L263.53125 344.04376L263.53125 347.6844Q263.53125 348.1375 263.57812 348.2625Q263.64062 348.3875 263.76562 348.46564Q263.89062 348.54376 264.125 348.54376Q264.3125 348.54376 264.59375 348.5125ZM265.29688 342.075L265.29688 340.85626L266.35938 340.85626L266.35938 342.075L265.29688 342.075ZM265.29688 349.45L265.29688 343.23126L266.35938 343.23126L266.35938 349.45L265.29688 349.45ZM268.29688 349.45L268.29688 343.23126L269.23438 343.23126L269.23438 344.10626Q269.53125 343.6375 270.01562 343.3719Q270.5 343.09064 271.125 343.09064Q271.8125 343.09064 272.25 343.3719Q272.70312 343.65314 272.875 344.16876Q273.625 343.09064 274.79688 343.09064Q275.73438 343.09064 276.21875 343.60626Q276.71875 344.10626 276.71875 345.1844L276.71875 349.45L275.67188 349.45L275.67188 345.52814Q275.67188 344.90314 275.5625 344.6219Q275.46875 344.34064 275.20312 344.16876Q274.9375 343.9969 274.5625 343.9969Q273.90625 343.9969 273.46875 344.4344Q273.04688 344.8719 273.04688 345.84064L273.04688 349.45L271.98438 349.45L271.98438 345.40314Q271.98438 344.7 271.71875 344.35626Q271.46875 343.9969 270.89062 343.9969Q270.4375 343.9969 270.0625 344.23126Q269.6875 344.46564 269.51562 344.91876Q269.34375 345.3719 269.34375 346.21564L269.34375 349.45L268.29688 349.45ZM283.54688 347.45L284.64062 347.575Q284.39062 348.52814 283.6875 349.0594Q282.98438 349.59064 281.90625 349.59064Q280.54688 349.59064 279.73438 348.7469Q278.9375 347.90314 278.9375 346.3875Q278.9375 344.825 279.75 343.96564Q280.5625 343.09064 281.84375 343.09064Q283.09375 343.09064 283.875 343.9344Q284.67188 344.77814 284.67188 346.325Q284.67188 346.41876 284.67188 346.60626L280.03125 346.60626Q280.09375 347.6375 280.60938 348.1844Q281.125 348.71564 281.90625 348.71564Q282.48438 348.71564 282.89062 348.41876Q283.3125 348.10626 283.54688 347.45ZM280.09375 345.7469L283.5625 345.7469Q283.5 344.95 283.17188 344.5594Q282.65625 343.95 281.85938 343.95Q281.125 343.95 280.625 344.4344Q280.14062 344.91876 280.09375 345.7469ZM293.54688 347.45L294.64062 347.575Q294.39062 348.52814 293.6875 349.0594Q292.98438 349.59064 291.90625 349.59064Q290.54688 349.59064 289.73438 348.7469Q288.9375 347.90314 288.9375 346.3875Q288.9375 344.825 289.75 343.96564Q290.5625 343.09064 291.84375 343.09064Q293.09375 343.09064 293.875 343.9344Q294.67188 344.77814 294.67188 346.325Q294.67188 346.41876 294.67188 346.60626L290.03125 346.60626Q290.09375 347.6375 290.60938 348.1844Q291.125 348.71564 291.90625 348.71564Q292.48438 348.71564 292.89062 348.41876Q293.3125 348.10626 293.54688 347.45ZM290.09375 345.7469L293.5625 345.7469Q293.5 344.95 293.17188 344.5594Q292.65625 343.95 291.85938 343.95Q291.125 343.95 290.625 344.4344Q290.14062 344.91876 290.09375 345.7469ZM296.26562 349.45L296.26562 340.85626L297.32812 340.85626L297.32812 349.45L296.26562 349.45ZM303.35938 348.6844Q302.76562 349.1844 302.21875 349.3875Q301.6875 349.59064 301.0625 349.59064Q300.03125 349.59064 299.48438 349.09064Q298.9375 348.59064 298.9375 347.8094Q298.9375 347.35626 299.14062 346.98126Q299.34375 346.59064 299.6875 346.3719Q300.03125 346.1375 300.45312 346.02814Q300.75 345.9344 301.39062 345.85626Q302.65625 345.71564 303.26562 345.4969Q303.26562 345.27814 303.26562 345.23126Q303.26562 344.575 302.96875 344.3094Q302.5625 343.96564 301.76562 343.96564Q301.03125 343.96564 300.67188 344.23126Q300.3125 344.48126 300.14062 345.1375L299.10938 344.9969Q299.25 344.34064 299.57812 343.9344Q299.90625 343.52814 300.51562 343.3094Q301.125 343.09064 301.92188 343.09064Q302.71875 343.09064 303.21875 343.27814Q303.71875 343.46564 303.95312 343.7469Q304.1875 344.02814 304.28125 344.46564Q304.32812 344.73126 304.32812 345.4344L304.32812 346.84064Q304.32812 348.3094 304.39062 348.7Q304.46875 349.09064 304.67188 349.45L303.5625 349.45Q303.40625 349.1219 303.35938 348.6844ZM303.26562 346.325Q302.6875 346.5594 301.54688 346.73126Q300.89062 346.825 300.625 346.95Q300.35938 347.0594 300.20312 347.27814Q300.0625 347.4969 300.0625 347.77814Q300.0625 348.2 300.375 348.48126Q300.70312 348.7625 301.3125 348.7625Q301.92188 348.7625 302.39062 348.4969Q302.875 348.23126 303.09375 347.7625Q303.26562 347.40314 303.26562 346.71564L303.26562 346.325ZM306.29688 351.84064L306.29688 343.23126L307.25 343.23126L307.25 344.02814Q307.59375 343.5594 308.01562 343.325Q308.45312 343.09064 309.0625 343.09064Q309.85938 343.09064 310.46875 343.4969Q311.07812 343.90314 311.375 344.65314Q311.6875 345.40314 311.6875 346.29376Q311.6875 347.2469 311.34375 348.0125Q311.01562 348.77814 310.35938 349.1844Q309.70312 349.59064 308.98438 349.59064Q308.45312 349.59064 308.03125 349.3719Q307.60938 349.1375 307.34375 348.8094L307.34375 351.84064L306.29688 351.84064ZM307.25 346.3719Q307.25 347.575 307.73438 348.15314Q308.21875 348.71564 308.90625 348.71564Q309.60938 348.71564 310.10938 348.1219Q310.60938 347.52814 310.60938 346.27814Q310.60938 345.09064 310.125 344.5125Q309.64062 343.91876 308.95312 343.91876Q308.28125 343.91876 307.76562 344.54376Q307.25 345.16876 307.25 346.3719ZM312.875 347.59064L313.90625 347.4344Q314.0 348.0594 314.39062 348.3875Q314.79688 348.71564 315.53125 348.71564Q316.25 348.71564 316.59375 348.4344Q316.95312 348.1375 316.95312 347.73126Q316.95312 347.3719 316.64062 347.16876Q316.42188 347.02814 315.5625 346.8094Q314.40625 346.5125 313.95312 346.3094Q313.51562 346.09064 313.28125 345.71564Q313.04688 345.34064 313.04688 344.8719Q313.04688 344.46564 313.23438 344.10626Q313.42188 343.7469 313.75 343.5125Q314.0 343.34064 314.42188 343.21564Q314.84375 343.09064 315.34375 343.09064Q316.0625 343.09064 316.60938 343.3094Q317.17188 343.5125 317.4375 343.8719Q317.70312 344.23126 317.79688 344.825L316.76562 344.96564Q316.70312 344.4969 316.35938 344.23126Q316.03125 343.95 315.40625 343.95Q314.6875 343.95 314.375 344.2Q314.0625 344.4344 314.0625 344.7625Q314.0625 344.96564 314.1875 345.1219Q314.32812 345.29376 314.59375 345.40314Q314.75 345.46564 315.53125 345.66876Q316.65625 345.98126 317.09375 346.16876Q317.53125 346.35626 317.78125 346.71564Q318.03125 347.075 318.03125 347.6219Q318.03125 348.15314 317.71875 348.6219Q317.42188 349.075 316.84375 349.34064Q316.26562 349.59064 315.53125 349.59064Q314.3125 349.59064 313.67188 349.09064Q313.04688 348.575 312.875 347.59064ZM324.54688 347.45L325.64062 347.575Q325.39062 348.52814 324.6875 349.0594Q323.98438 349.59064 322.90625 349.59064Q321.54688 349.59064 320.73438 348.7469Q319.9375 347.90314 319.9375 346.3875Q319.9375 344.825 320.75 343.96564Q321.5625 343.09064 322.84375 343.09064Q324.09375 343.09064 324.875 343.9344Q325.67188 344.77814 325.67188 346.325Q325.67188 346.41876 325.67188 346.60626L321.03125 346.60626Q321.09375 347.6375 321.60938 348.1844Q322.125 348.71564 322.90625 348.71564Q323.48438 348.71564 323.89062 348.41876Q324.3125 348.10626 324.54688 347.45ZM321.09375 345.7469L324.5625 345.7469Q324.5 344.95 324.17188 344.5594Q323.65625 343.95 322.85938 343.95Q322.125 343.95 321.625 344.4344Q321.14062 344.91876 321.09375 345.7469ZM331.32812 349.45L331.32812 348.66876Q330.73438 349.59064 329.59375 349.59064Q328.84375 349.59064 328.21875 349.1844Q327.59375 348.7625 327.25 348.02814Q326.90625 347.29376 326.90625 346.34064Q326.90625 345.41876 327.21875 344.65314Q327.53125 343.8875 328.15625 343.4969Q328.78125 343.09064 329.54688 343.09064Q330.10938 343.09064 330.54688 343.325Q330.98438 343.5594 331.26562 343.9344L331.26562 340.85626L332.3125 340.85626L332.3125 349.45L331.32812 349.45ZM328.0 346.34064Q328.0 347.54376 328.5 348.1375Q329.0 348.71564 329.6875 348.71564Q330.375 348.71564 330.85938 348.15314Q331.34375 347.59064 331.34375 346.4344Q331.34375 345.15314 330.84375 344.5594Q330.35938 343.96564 329.64062 343.96564Q328.9375 343.96564 328.46875 344.54376Q328.0 345.10626 328.0 346.34064ZM337.29688 342.075L337.29688 340.85626L338.35938 340.85626L338.35938 342.075L337.29688 342.075ZM337.29688 349.45L337.29688 343.23126L338.35938 343.23126L338.35938 349.45L337.29688 349.45ZM340.29688 349.45L340.29688 343.23126L341.23438 343.23126L341.23438 344.10626Q341.92188 343.09064 343.21875 343.09064Q343.78125 343.09064 344.25 343.29376Q344.73438 343.4969 344.96875 343.825Q345.20312 344.15314 345.29688 344.59064Q345.34375 344.8875 345.34375 345.6219L345.34375 349.45L344.29688 349.45L344.29688 345.66876Q344.29688 345.0125 344.17188 344.7Q344.04688 344.3875 343.73438 344.2Q343.42188 343.9969 343.0 343.9969Q342.32812 343.9969 341.82812 344.4344Q341.34375 344.85626 341.34375 346.04376L341.34375 349.45L340.29688 349.45ZM349.875 347.59064L350.90625 347.4344Q351.0 348.0594 351.39062 348.3875Q351.79688 348.71564 352.53125 348.71564Q353.25 348.71564 353.59375 348.4344Q353.95312 348.1375 353.95312 347.73126Q353.95312 347.3719 353.64062 347.16876Q353.42188 347.02814 352.5625 346.8094Q351.40625 346.5125 350.95312 346.3094Q350.51562 346.09064 350.28125 345.71564Q350.04688 345.34064 350.04688 344.8719Q350.04688 344.46564 350.23438 344.10626Q350.42188 343.7469 350.75 343.5125Q351.0 343.34064 351.42188 343.21564Q351.84375 343.09064 352.34375 343.09064Q353.0625 343.09064 353.60938 343.3094Q354.17188 343.5125 354.4375 343.8719Q354.70312 344.23126 354.79688 344.825L353.76562 344.96564Q353.70312 344.4969 353.35938 344.23126Q353.03125 343.95 352.40625 343.95Q351.6875 343.95 351.375 344.2Q351.0625 344.4344 351.0625 344.7625Q351.0625 344.96564 351.1875 345.1219Q351.32812 345.29376 351.59375 345.40314Q351.75 345.46564 352.53125 345.66876Q353.65625 345.98126 354.09375 346.16876Q354.53125 346.35626 354.78125 346.71564Q355.03125 347.075 355.03125 347.6219Q355.03125 348.15314 354.71875 348.6219Q354.42188 349.075 353.84375 349.34064Q353.26562 349.59064 352.53125 349.59064Q351.3125 349.59064 350.67188 349.09064Q350.04688 348.575 349.875 347.59064ZM361.54688 347.45L362.64062 347.575Q362.39062 348.52814 361.6875 349.0594Q360.98438 349.59064 359.90625 349.59064Q358.54688 349.59064 357.73438 348.7469Q356.9375 347.90314 356.9375 346.3875Q356.9375 344.825 357.75 343.96564Q358.5625 343.09064 359.84375 343.09064Q361.09375 343.09064 361.875 343.9344Q362.67188 344.77814 362.67188 346.325Q362.67188 346.41876 362.67188 346.60626L358.03125 346.60626Q358.09375 347.6375 358.60938 348.1844Q359.125 348.71564 359.90625 348.71564Q360.48438 348.71564 360.89062 348.41876Q361.3125 348.10626 361.54688 347.45ZM358.09375 345.7469L361.5625 345.7469Q361.5 344.95 361.17188 344.5594Q360.65625 343.95 359.85938 343.95Q359.125 343.95 358.625 344.4344Q358.14062 344.91876 358.09375 345.7469ZM368.35938 347.16876L369.39062 347.3094Q369.21875 348.3719 368.51562 348.98126Q367.8125 349.59064 366.79688 349.59064Q365.51562 349.59064 364.73438 348.7625Q363.96875 347.91876 363.96875 346.35626Q363.96875 345.35626 364.29688 344.60626Q364.64062 343.84064 365.3125 343.46564Q366.0 343.09064 366.8125 343.09064Q367.8125 343.09064 368.45312 343.60626Q369.10938 344.10626 369.29688 345.0594L368.26562 345.21564Q368.125 344.59064 367.75 344.27814Q367.375 343.95 366.84375 343.95Q366.04688 343.95 365.54688 344.52814Q365.04688 345.09064 365.04688 346.325Q365.04688 347.59064 365.53125 348.15314Q366.01562 348.71564 366.78125 348.71564Q367.40625 348.71564 367.8125 348.34064Q368.23438 347.96564 368.35938 347.16876ZM369.90625 346.34064Q369.90625 344.60626 370.85938 343.77814Q371.65625 343.09064 372.8125 343.09064Q374.09375 343.09064 374.90625 343.9344Q375.73438 344.7625 375.73438 346.2469Q375.73438 347.45 375.375 348.1375Q375.01562 348.825 374.3125 349.21564Q373.625 349.59064 372.8125 349.59064Q371.51562 349.59064 370.70312 348.7625Q369.90625 347.91876 369.90625 346.34064ZM370.98438 346.34064Q370.98438 347.52814 371.5 348.1219Q372.03125 348.71564 372.8125 348.71564Q373.60938 348.71564 374.125 348.1219Q374.64062 347.52814 374.64062 346.3094Q374.64062 345.15314 374.10938 344.5594Q373.59375 343.96564 372.8125 343.96564Q372.03125 343.96564 371.5 344.5594Q370.98438 345.1375 370.98438 346.34064ZM377.29688 349.45L377.29688 343.23126L378.23438 343.23126L378.23438 344.10626Q378.92188 343.09064 380.21875 343.09064Q380.78125 343.09064 381.25 343.29376Q381.73438 343.4969 381.96875 343.825Q382.20312 344.15314 382.29688 344.59064Q382.34375 344.8875 382.34375 345.6219L382.34375 349.45L381.29688 349.45L381.29688 345.66876Q381.29688 345.0125 381.17188 344.7Q381.04688 344.3875 380.73438 344.2Q380.42188 343.9969 380.0 343.9969Q379.32812 343.9969 378.82812 344.4344Q378.34375 344.85626 378.34375 346.04376L378.34375 349.45L377.29688 349.45ZM388.32812 349.45L388.32812 348.66876Q387.73438 349.59064 386.59375 349.59064Q385.84375 349.59064 385.21875 349.1844Q384.59375 348.7625 384.25 348.02814Q383.90625 347.29376 383.90625 346.34064Q383.90625 345.41876 384.21875 344.65314Q384.53125 343.8875 385.15625 343.4969Q385.78125 343.09064 386.54688 343.09064Q387.10938 343.09064 387.54688 343.325Q387.98438 343.5594 388.26562 343.9344L388.26562 340.85626L389.3125 340.85626L389.3125 349.45L388.32812 349.45ZM385.0 346.34064Q385.0 347.54376 385.5 348.1375Q386.0 348.71564 386.6875 348.71564Q387.375 348.71564 387.85938 348.15314Q388.34375 347.59064 388.34375 346.4344Q388.34375 345.15314 387.84375 344.5594Q387.35938 343.96564 386.64062 343.96564Q385.9375 343.96564 385.46875 344.54376Q385.0 345.10626 385.0 346.34064ZM390.875 347.59064L391.90625 347.4344Q392.0 348.0594 392.39062 348.3875Q392.79688 348.71564 393.53125 348.71564Q394.25 348.71564 394.59375 348.4344Q394.95312 348.1375 394.95312 347.73126Q394.95312 347.3719 394.64062 347.16876Q394.42188 347.02814 393.5625 346.8094Q392.40625 346.5125 391.95312 346.3094Q391.51562 346.09064 391.28125 345.71564Q391.04688 345.34064 391.04688 344.8719Q391.04688 344.46564 391.23438 344.10626Q391.42188 343.7469 391.75 343.5125Q392.0 343.34064 392.42188 343.21564Q392.84375 343.09064 393.34375 343.09064Q394.0625 343.09064 394.60938 343.3094Q395.17188 343.5125 395.4375 343.8719Q395.70312 344.23126 395.79688 344.825L394.76562 344.96564Q394.70312 344.4969 394.35938 344.23126Q394.03125 343.95 393.40625 343.95Q392.6875 343.95 392.375 344.2Q392.0625 344.4344 392.0625 344.7625Q392.0625 344.96564 392.1875 345.1219Q392.32812 345.29376 392.59375 345.40314Q392.75 345.46564 393.53125 345.66876Q394.65625 345.98126 395.09375 346.16876Q395.53125 346.35626 395.78125 346.71564Q396.03125 347.075 396.03125 347.6219Q396.03125 348.15314 395.71875 348.6219Q395.42188 349.075 394.84375 349.34064Q394.26562 349.59064 393.53125 349.59064Q392.3125 349.59064 391.67188 349.09064Q391.04688 348.575 390.875 347.59064Z" fill-rule="nonzero"/><path fill="#000000" d="M29.550013 213.47604L20.956263 213.47604L20.956263 211.7573L27.034388 209.72604Q27.893763 209.4448 28.315638 209.3198Q27.846888 209.17917 26.940638 208.86667L20.956263 206.80417L20.956263 205.27292L29.550013 205.27292L29.550013 206.36667L22.362513 206.36667L29.550013 208.86667L29.550013 209.89792L22.237513 212.3823L29.550013 212.3823L29.550013 213.47604ZM29.550013 204.49167L20.956263 204.49167L20.956263 201.2573Q20.956263 200.27292 21.221888 199.67917Q21.487513 199.08542 22.034388 198.7573Q22.565638 198.41354 23.159388 198.41354Q23.706263 198.41354 24.190638 198.71042Q24.675013 199.0073 24.971888 199.61667Q25.206263 198.83542 25.768763 198.42917Q26.315638 198.0073 27.065638 198.0073Q27.659388 198.0073 28.190638 198.2573Q28.706263 198.5073 28.987513 198.8823Q29.268763 199.2573 29.409388 199.83542Q29.550013 200.39792 29.550013 201.21042L29.550013 204.49167ZM24.565638 203.35104L24.565638 201.49167Q24.565638 200.74167 24.471888 200.41354Q24.346888 199.97604 24.050013 199.7573Q23.737513 199.53854 23.284388 199.53854Q22.862513 199.53854 22.534388 199.74167Q22.206263 199.9448 22.096888 200.33542Q21.971888 200.71042 21.971888 201.6323L21.971888 203.35104L24.565638 203.35104ZM28.534388 203.35104L28.534388 201.21042Q28.534388 200.66354 28.487513 200.4448Q28.425013 200.03854 28.268763 199.78854Q28.096888 199.52292 27.784388 199.35104Q27.471888 199.17917 27.065638 199.17917Q26.581263 199.17917 26.221888 199.42917Q25.862513 199.66354 25.721888 200.10104Q25.581263 200.53854 25.581263 201.36667L25.581263 203.35104L28.534388 203.35104ZM29.690638 197.36667L20.815638 194.8823L20.815638 194.03854L29.690638 196.52292L29.690638 197.36667ZM27.690638 193.99167L27.534388 192.96042Q28.159388 192.86667 28.487513 192.47604Q28.815638 192.0698 28.815638 191.33542Q28.815638 190.61667 28.534388 190.27292Q28.237513 189.91354 27.831263 189.91354Q27.471888 189.91354 27.268763 190.22604Q27.128138 190.4448 26.909388 191.30417Q26.612513 192.46042 26.409388 192.91354Q26.190638 193.35104 25.815638 193.58542Q25.440638 193.8198 24.971888 193.8198Q24.565638 193.8198 24.206263 193.6323Q23.846888 193.4448 23.612513 193.11667Q23.440638 192.86667 23.315638 192.4448Q23.190638 192.02292 23.190638 191.52292Q23.190638 190.80417 23.409388 190.2573Q23.612513 189.6948 23.971888 189.42917Q24.331263 189.16354 24.925013 189.0698L25.065638 190.10104Q24.596888 190.16354 24.331263 190.5073Q24.050013 190.83542 24.050013 191.46042Q24.050013 192.17917 24.300013 192.49167Q24.534388 192.80417 24.862513 192.80417Q25.065638 192.80417 25.221888 192.67917Q25.393763 192.53854 25.503138 192.27292Q25.565638 192.11667 25.768763 191.33542Q26.081263 190.21042 26.268763 189.77292Q26.456263 189.33542 26.815638 189.08542Q27.175013 188.83542 27.721888 188.83542Q28.253138 188.83542 28.721888 189.14792Q29.175013 189.4448 29.440638 190.02292Q29.690638 190.60104 29.690638 191.33542Q29.690638 192.55417 29.190638 193.1948Q28.675013 193.8198 27.690638 193.99167Z" fill-rule="nonzero"/><path fill="#000000" d="M65.05 300.21564Q65.05 298.6844 65.3625 297.7625Q65.675 296.825 66.28438 296.325Q66.90938 295.825 67.84688 295.825Q68.53438 295.825 69.05 296.10626Q69.58125 296.3875 69.925 296.91876Q70.26875 297.4344 70.45625 298.1844Q70.64375 298.9344 70.64375 300.21564Q70.64375 301.73126 70.33125 302.65314Q70.03438 303.575 69.40938 304.09064Q68.8 304.59064 67.84688 304.59064Q66.6125 304.59064 65.89375 303.7Q65.05 302.6375 65.05 300.21564ZM66.12813 300.21564Q66.12813 302.325 66.62813 303.02814Q67.12813 303.73126 67.84688 303.73126Q68.58125 303.73126 69.06563 303.02814Q69.56563 302.325 69.56563 300.21564Q69.56563 298.09064 69.06563 297.40314Q68.58125 296.7 67.83125 296.7Q67.1125 296.7 66.675 297.3094Q66.12813 298.09064 66.12813 300.21564Z" fill-rule="nonzero"/><path fill="#000000" d="M55.01875 233.72778L53.971874 233.72778L53.971874 227.00903Q53.58125 227.36841 52.95625 227.74341Q52.346874 228.10278 51.8625 228.27466L51.8625 227.25903Q52.7375 226.83716 53.39375 226.25903Q54.065624 225.66528 54.346874 225.10278L55.01875 225.10278L55.01875 233.72778ZM58.05 229.49341Q58.05 227.96216 58.3625 227.04028Q58.675 226.10278 59.284374 225.60278Q59.909374 225.10278 60.846874 225.10278Q61.534374 225.10278 62.05 225.38403Q62.58125 225.66528 62.925 226.19653Q63.26875 226.71216 63.45625 227.46216Q63.64375 228.21216 63.64375 229.49341Q63.64375 231.00903 63.33125 231.93091Q63.034374 232.85278 62.409374 233.36841Q61.8 233.86841 60.846874 233.86841Q59.6125 233.86841 58.89375 232.97778Q58.05 231.91528 58.05 229.49341ZM59.128124 229.49341Q59.128124 231.60278 59.628124 232.30591Q60.128124 233.00903 60.846874 233.00903Q61.58125 233.00903 62.065624 232.30591Q62.565624 231.60278 62.565624 229.49341Q62.565624 227.36841 62.065624 226.68091Q61.58125 225.97778 60.83125 225.97778Q60.1125 225.97778 59.675 226.58716Q59.128124 227.36841 59.128124 229.49341ZM65.05 229.49341Q65.05 227.96216 65.3625 227.04028Q65.675 226.10278 66.28438 225.60278Q66.90938 225.10278 67.84688 225.10278Q68.53438 225.10278 69.05 225.38403Q69.58125 225.66528 69.925 226.19653Q70.26875 226.71216 70.45625 227.46216Q70.64375 228.21216 70.64375 229.49341Q70.64375 231.00903 70.33125 231.93091Q70.03438 232.85278 69.40938 233.36841Q68.8 233.86841 67.84688 233.86841Q66.6125 233.86841 65.89375 232.97778Q65.05 231.91528 65.05 229.49341ZM66.12813 229.49341Q66.12813 231.60278 66.62813 232.30591Q67.12813 233.00903 67.84688 233.00903Q68.58125 233.00903 69.06563 232.30591Q69.56563 231.60278 69.56563 229.49341Q69.56563 227.36841 69.06563 226.68091Q68.58125 225.97778 67.83125 225.97778Q67.1125 225.97778 66.675 226.58716Q66.12813 227.36841 66.12813 229.49341Z" fill-rule="nonzero"/><path fill="#000000" d="M56.596874 161.98993L56.596874 163.00555L50.909374 163.00555Q50.909374 162.63055 51.034374 162.27118Q51.253124 161.69305 51.721874 161.13055Q52.20625 160.56805 53.1125 159.83368Q54.51875 158.67743 55.003124 158.00555Q55.503124 157.33368 55.503124 156.73993Q55.503124 156.11493 55.05 155.69305Q54.596874 155.25555 53.878124 155.25555Q53.1125 155.25555 52.659374 155.70868Q52.20625 156.1618 52.190624 156.9743L51.1125 156.86493Q51.221874 155.64618 51.940624 155.02118Q52.675 154.38055 53.909374 154.38055Q55.14375 154.38055 55.8625 155.06805Q56.58125 155.75555 56.58125 156.77118Q56.58125 157.2868 56.3625 157.7868Q56.159374 158.27118 55.659374 158.83368Q55.175 159.38055 54.05 160.33368Q53.096874 161.13055 52.815624 161.42743Q52.55 161.70868 52.378124 161.98993L56.596874 161.98993ZM58.05 158.77118Q58.05 157.23993 58.3625 156.31805Q58.675 155.38055 59.284374 154.88055Q59.909374 154.38055 60.846874 154.38055Q61.534374 154.38055 62.05 154.6618Q62.58125 154.94305 62.925 155.4743Q63.26875 155.98993 63.45625 156.73993Q63.64375 157.48993 63.64375 158.77118Q63.64375 160.2868 63.33125 161.20868Q63.034374 162.13055 62.409374 162.64618Q61.8 163.14618 60.846874 163.14618Q59.6125 163.14618 58.89375 162.25555Q58.05 161.19305 58.05 158.77118ZM59.128124 158.77118Q59.128124 160.88055 59.628124 161.58368Q60.128124 162.2868 60.846874 162.2868Q61.58125 162.2868 62.065624 161.58368Q62.565624 160.88055 62.565624 158.77118Q62.565624 156.64618 62.065624 155.95868Q61.58125 155.25555 60.83125 155.25555Q60.1125 155.25555 59.675 155.86493Q59.128124 156.64618 59.128124 158.77118ZM65.05 158.77118Q65.05 157.23993 65.3625 156.31805Q65.675 155.38055 66.28438 154.88055Q66.90938 154.38055 67.84688 154.38055Q68.53438 154.38055 69.05 154.6618Q69.58125 154.94305 69.925 155.4743Q70.26875 155.98993 70.45625 156.73993Q70.64375 157.48993 70.64375 158.77118Q70.64375 160.2868 70.33125 161.20868Q70.03438 162.13055 69.40938 162.64618Q68.8 163.14618 67.84688 163.14618Q66.6125 163.14618 65.89375 162.25555Q65.05 161.19305 65.05 158.77118ZM66.12813 158.77118Q66.12813 160.88055 66.62813 161.58368Q67.12813 162.2868 67.84688 162.2868Q68.58125 162.2868 69.06563 161.58368Q69.56563 160.88055 69.56563 158.77118Q69.56563 156.64618 69.06563 155.95868Q68.58125 155.25555 67.83125 155.25555Q67.1125 155.25555 66.675 155.86493Q66.12813 156.64618 66.12813 158.77118Z" fill-rule="nonzero"/><path fill="#000000" d="M51.05 90.01771L52.1125 89.87708Q52.284374 90.76771 52.721874 91.17396Q53.159374 91.56458 53.784374 91.56458Q54.534374 91.56458 55.05 91.04896Q55.565624 90.53333 55.565624 89.76771Q55.565624 89.04896 55.08125 88.58021Q54.6125 88.09583 53.878124 88.09583Q53.58125 88.09583 53.128124 88.22083L53.253124 87.28333Q53.3625 87.29896 53.425 87.29896Q54.096874 87.29896 54.628124 86.95521Q55.175 86.59583 55.175 85.86146Q55.175 85.28333 54.784374 84.90833Q54.39375 84.51771 53.76875 84.51771Q53.159374 84.51771 52.7375 84.90833Q52.33125 85.29896 52.221874 86.06458L51.159374 85.87708Q51.346874 84.83021 52.034374 84.25208Q52.721874 83.65833 53.7375 83.65833Q54.440624 83.65833 55.034374 83.97083Q55.628124 84.26771 55.940624 84.78333Q56.253124 85.29896 56.253124 85.89271Q56.253124 86.43958 55.95625 86.90833Q55.659374 87.36146 55.08125 87.62708Q55.83125 87.79896 56.253124 88.36146Q56.675 88.90833 56.675 89.75208Q56.675 90.87708 55.846874 91.65833Q55.034374 92.43958 53.784374 92.43958Q52.659374 92.43958 51.909374 91.76771Q51.159374 91.08021 51.05 90.01771ZM58.05 88.04896Q58.05 86.51771 58.3625 85.59583Q58.675 84.65833 59.284374 84.15833Q59.909374 83.65833 60.846874 83.65833Q61.534374 83.65833 62.05 83.93958Q62.58125 84.22083 62.925 84.75208Q63.26875 85.26771 63.45625 86.01771Q63.64375 86.76771 63.64375 88.04896Q63.64375 89.56458 63.33125 90.48646Q63.034374 91.40833 62.409374 91.92396Q61.8 92.42396 60.846874 92.42396Q59.6125 92.42396 58.89375 91.53333Q58.05 90.47083 58.05 88.04896ZM59.128124 88.04896Q59.128124 90.15833 59.628124 90.86146Q60.128124 91.56458 60.846874 91.56458Q61.58125 91.56458 62.065624 90.86146Q62.565624 90.15833 62.565624 88.04896Q62.565624 85.92396 62.065624 85.23646Q61.58125 84.53333 60.83125 84.53333Q60.1125 84.53333 59.675 85.14271Q59.128124 85.92396 59.128124 88.04896ZM65.05 88.04896Q65.05 86.51771 65.3625 85.59583Q65.675 84.65833 66.28438 84.15833Q66.90938 83.65833 67.84688 83.65833Q68.53438 83.65833 69.05 83.93958Q69.58125 84.22083 69.925 84.75208Q70.26875 85.26771 70.45625 86.01771Q70.64375 86.76771 70.64375 88.04896Q70.64375 89.56458 70.33125 90.48646Q70.03438 91.40833 69.40938 91.92396Q68.8 92.42396 67.84688 92.42396Q66.6125 92.42396 65.89375 91.53333Q65.05 90.47083 65.05 88.04896ZM66.12813 88.04896Q66.12813 90.15833 66.62813 90.86146Q67.12813 91.56458 67.84688 91.56458Q68.58125 91.56458 69.06563 90.86146Q69.56563 90.15833 69.56563 88.04896Q69.56563 85.92396 69.06563 85.23646Q68.58125 84.53333 67.83125 84.53333Q67.1125 84.53333 66.675 85.14271Q66.12813 85.92396 66.12813 88.04896Z" fill-rule="nonzero"/><path fill="#000000" d="M74.55 313.21564Q74.55 311.6844 74.8625 310.7625Q75.175 309.825 75.78438 309.325Q76.40938 308.825 77.34688 308.825Q78.03438 308.825 78.55 309.10626Q79.08125 309.3875 79.425 309.91876Q79.76875 310.4344 79.95625 311.1844Q80.14375 311.9344 80.14375 313.21564Q80.14375 314.73126 79.83125 315.65314Q79.53438 316.575 78.90938 317.09064Q78.3 317.59064 77.34688 317.59064Q76.1125 317.59064 75.39375 316.7Q74.55 315.6375 74.55 313.21564ZM75.62813 313.21564Q75.62813 315.325 76.12813 316.02814Q76.62813 316.73126 77.34688 316.73126Q78.08125 316.73126 78.56563 316.02814Q79.06563 315.325 79.06563 313.21564Q79.06563 311.09064 78.56563 310.40314Q78.08125 309.7 77.33125 309.7Q76.6125 309.7 76.175 310.3094Q75.62813 311.09064 75.62813 313.21564Z" fill-rule="nonzero"/><path fill="#000000" d="M200.72388 317.45L199.677 317.45L199.677 310.73126Q199.28638 311.09064 198.66138 311.46564Q198.052 311.825 197.56763 311.9969L197.56763 310.98126Q198.44263 310.5594 199.09888 309.98126Q199.77075 309.3875 200.052 308.825L200.72388 308.825L200.72388 317.45ZM203.75513 313.21564Q203.75513 311.6844 204.06763 310.7625Q204.38013 309.825 204.9895 309.325Q205.6145 308.825 206.552 308.825Q207.2395 308.825 207.75513 309.10626Q208.28638 309.3875 208.63013 309.91876Q208.97388 310.4344 209.16138 311.1844Q209.34888 311.9344 209.34888 313.21564Q209.34888 314.73126 209.03638 315.65314Q208.7395 316.575 208.1145 317.09064Q207.50513 317.59064 206.552 317.59064Q205.31763 317.59064 204.59888 316.7Q203.75513 315.6375 203.75513 313.21564ZM204.83325 313.21564Q204.83325 315.325 205.33325 316.02814Q205.83325 316.73126 206.552 316.73126Q207.28638 316.73126 207.77075 316.02814Q208.27075 315.325 208.27075 313.21564Q208.27075 311.09064 207.77075 310.40314Q207.28638 309.7 206.53638 309.7Q205.81763 309.7 205.38013 310.3094Q204.83325 311.09064 204.83325 313.21564ZM210.75513 313.21564Q210.75513 311.6844 211.06763 310.7625Q211.38013 309.825 211.9895 309.325Q212.6145 308.825 213.552 308.825Q214.2395 308.825 214.75513 309.10626Q215.28638 309.3875 215.63013 309.91876Q215.97388 310.4344 216.16138 311.1844Q216.34888 311.9344 216.34888 313.21564Q216.34888 314.73126 216.03638 315.65314Q215.7395 316.575 215.1145 317.09064Q214.50513 317.59064 213.552 317.59064Q212.31763 317.59064 211.59888 316.7Q210.75513 315.6375 210.75513 313.21564ZM211.83325 313.21564Q211.83325 315.325 212.33325 316.02814Q212.83325 316.73126 213.552 316.73126Q214.28638 316.73126 214.77075 316.02814Q215.27075 315.325 215.27075 313.21564Q215.27075 311.09064 214.77075 310.40314Q214.28638 309.7 213.53638 309.7Q212.81763 309.7 212.38013 310.3094Q211.83325 311.09064 211.83325 313.21564Z" fill-rule="nonzero"/><path fill="#000000" d="M331.50714 316.4344L331.50714 317.45L325.81964 317.45Q325.81964 317.075 325.94464 316.71564Q326.1634 316.1375 326.63214 315.575Q327.11652 315.0125 328.02277 314.27814Q329.42902 313.1219 329.9134 312.45Q330.4134 311.77814 330.4134 311.1844Q330.4134 310.5594 329.96027 310.1375Q329.50714 309.7 328.7884 309.7Q328.02277 309.7 327.56964 310.15314Q327.11652 310.60626 327.1009 311.41876L326.02277 311.3094Q326.13214 310.09064 326.8509 309.46564Q327.58527 308.825 328.81964 308.825Q330.05402 308.825 330.77277 309.5125Q331.49152 310.2 331.49152 311.21564Q331.49152 311.73126 331.27277 312.23126Q331.06964 312.71564 330.56964 313.27814Q330.08527 313.825 328.96027 314.77814Q328.00714 315.575 327.7259 315.8719Q327.46027 316.15314 327.2884 316.4344L331.50714 316.4344ZM332.96027 313.21564Q332.96027 311.6844 333.27277 310.7625Q333.58527 309.825 334.19464 309.325Q334.81964 308.825 335.75714 308.825Q336.44464 308.825 336.96027 309.10626Q337.49152 309.3875 337.83527 309.91876Q338.17902 310.4344 338.36652 311.1844Q338.55402 311.9344 338.55402 313.21564Q338.55402 314.73126 338.24152 315.65314Q337.94464 316.575 337.31964 317.09064Q336.71027 317.59064 335.75714 317.59064Q334.52277 317.59064 333.80402 316.7Q332.96027 315.6375 332.96027 313.21564ZM334.0384 313.21564Q334.0384 315.325 334.5384 316.02814Q335.0384 316.73126 335.75714 316.73126Q336.49152 316.73126 336.9759 316.02814Q337.4759 315.325 337.4759 313.21564Q337.4759 311.09064 336.9759 310.40314Q336.49152 309.7 335.74152 309.7Q335.02277 309.7 334.58527 310.3094Q334.0384 311.09064 334.0384 313.21564ZM339.96027 313.21564Q339.96027 311.6844 340.27277 310.7625Q340.58527 309.825 341.19464 309.325Q341.81964 308.825 342.75714 308.825Q343.44464 308.825 343.96027 309.10626Q344.49152 309.3875 344.83527 309.91876Q345.17902 310.4344 345.36652 311.1844Q345.55402 311.9344 345.55402 313.21564Q345.55402 314.73126 345.24152 315.65314Q344.94464 316.575 344.31964 317.09064Q343.71027 317.59064 342.75714 317.59064Q341.52277 317.59064 340.80402 316.7Q339.96027 315.6375 339.96027 313.21564ZM341.0384 313.21564Q341.0384 315.325 341.5384 316.02814Q342.0384 316.73126 342.75714 316.73126Q343.49152 316.73126 343.9759 316.02814Q344.4759 315.325 344.4759 313.21564Q344.4759 311.09064 343.9759 310.40314Q343.49152 309.7 342.74152 309.7Q342.02277 309.7 341.58527 310.3094Q341.0384 311.09064 341.0384 313.21564Z" fill-rule="nonzero"/><path fill="#000000" d="M455.16537 315.1844L456.22787 315.04376Q456.39975 315.9344 456.83725 316.34064Q457.27475 316.73126 457.89975 316.73126Q458.64975 316.73126 459.16537 316.21564Q459.681 315.7 459.681 314.9344Q459.681 314.21564 459.19662 313.7469Q458.72787 313.2625 457.9935 313.2625Q457.69662 313.2625 457.2435 313.3875L457.3685 312.45Q457.47787 312.46564 457.54037 312.46564Q458.21225 312.46564 458.7435 312.1219Q459.29037 311.7625 459.29037 311.02814Q459.29037 310.45 458.89975 310.075Q458.50912 309.6844 457.88412 309.6844Q457.27475 309.6844 456.85287 310.075Q456.44662 310.46564 456.33725 311.23126L455.27475 311.04376Q455.46225 309.9969 456.14975 309.41876Q456.83725 308.825 457.85287 308.825Q458.556 308.825 459.14975 309.1375Q459.7435 309.4344 460.056 309.95Q460.3685 310.46564 460.3685 311.0594Q460.3685 311.60626 460.07162 312.075Q459.77475 312.52814 459.19662 312.79376Q459.94662 312.96564 460.3685 313.52814Q460.79037 314.075 460.79037 314.91876Q460.79037 316.04376 459.96225 316.825Q459.14975 317.60626 457.89975 317.60626Q456.77475 317.60626 456.02475 316.9344Q455.27475 316.2469 455.16537 315.1844ZM462.16537 313.21564Q462.16537 311.6844 462.47787 310.7625Q462.79037 309.825 463.39975 309.325Q464.02475 308.825 464.96225 308.825Q465.64975 308.825 466.16537 309.10626Q466.69662 309.3875 467.04037 309.91876Q467.38412 310.4344 467.57162 311.1844Q467.75912 311.9344 467.75912 313.21564Q467.75912 314.73126 467.44662 315.65314Q467.14975 316.575 466.52475 317.09064Q465.91537 317.59064 464.96225 317.59064Q463.72787 317.59064 463.00912 316.7Q462.16537 315.6375 462.16537 313.21564ZM463.2435 313.21564Q463.2435 315.325 463.7435 316.02814Q464.2435 316.73126 464.96225 316.73126Q465.69662 316.73126 466.181 316.02814Q466.681 315.325 466.681 313.21564Q466.681 311.09064 466.181 310.40314Q465.69662 309.7 464.94662 309.7Q464.22787 309.7 463.79037 310.3094Q463.2435 311.09064 463.2435 313.21564ZM469.16537 313.21564Q469.16537 311.6844 469.47787 310.7625Q469.79037 309.825 470.39975 309.325Q471.02475 308.825 471.96225 308.825Q472.64975 308.825 473.16537 309.10626Q473.69662 309.3875 474.04037 309.91876Q474.38412 310.4344 474.57162 311.1844Q474.75912 311.9344 474.75912 313.21564Q474.75912 314.73126 474.44662 315.65314Q474.14975 316.575 473.52475 317.09064Q472.91537 317.59064 471.96225 317.59064Q470.72787 317.59064 470.00912 316.7Q469.16537 315.6375 469.16537 313.21564ZM470.2435 313.21564Q470.2435 315.325 470.7435 316.02814Q471.2435 316.73126 471.96225 316.73126Q472.69662 316.73126 473.181 316.02814Q473.681 315.325 473.681 313.21564Q473.681 311.09064 473.181 310.40314Q472.69662 309.7 471.94662 309.7Q471.22787 309.7 470.79037 310.3094Q470.2435 311.09064 470.2435 313.21564Z" fill-rule="nonzero"/><path stroke="#4285f4" stroke-width="4.0" stroke-linecap="butt" d="M172.0 61.916668L184.0 61.916668" fill-rule="nonzero"/><path fill="#1a1a1a" d="M192.79688 65.916664L192.79688 57.322914L193.85938 57.322914L193.85938 62.229164L196.34375 59.697914L197.71875 59.697914L195.32812 61.99479L197.95312 65.916664L196.65625 65.916664L194.59375 62.729164L193.85938 63.447914L193.85938 65.916664L192.79688 65.916664ZM198.5 63.65104L199.5625 63.510414Q199.73438 64.40104 200.17188 64.80729Q200.60938 65.197914 201.23438 65.197914Q201.98438 65.197914 202.5 64.68229Q203.01562 64.166664 203.01562 63.40104Q203.01562 62.68229 202.53125 62.21354Q202.0625 61.729164 201.32812 61.729164Q201.03125 61.729164 200.57812 61.854164L200.70312 60.916664Q200.8125 60.93229 200.875 60.93229Q201.54688 60.93229 202.07812 60.58854Q202.625 60.229164 202.625 59.49479Q202.625 58.916664 202.23438 58.541664Q201.84375 58.15104 201.21875 58.15104Q200.60938 58.15104 200.1875 58.541664Q199.78125 58.93229 199.67188 59.697914L198.60938 59.510414Q198.79688 58.46354 199.48438 57.885414Q200.17188 57.291664 201.1875 57.291664Q201.89062 57.291664 202.48438 57.604164Q203.07812 57.90104 203.39062 58.416664Q203.70312 58.93229 203.70312 59.52604Q203.70312 60.072914 203.40625 60.541664Q203.10938 60.99479 202.53125 61.260414Q203.28125 61.43229 203.70312 61.99479Q204.125 62.541664 204.125 63.385414Q204.125 64.510414 203.29688 65.291664Q202.48438 66.072914 201.23438 66.072914Q200.10938 66.072914 199.35938 65.40104Q198.60938 64.71354 198.5 63.65104ZM205.375 64.05729L206.40625 63.90104Q206.5 64.52604 206.89062 64.854164Q207.29688 65.18229 208.03125 65.18229Q208.75 65.18229 209.09375 64.90104Q209.45312 64.604164 209.45312 64.197914Q209.45312 63.83854 209.14062 63.635414Q208.92188 63.49479 208.0625 63.27604Q206.90625 62.979164 206.45312 62.77604Q206.01562 62.55729 205.78125 62.18229Q205.54688 61.80729 205.54688 61.33854Q205.54688 60.93229 205.73438 60.572914Q205.92188 60.21354 206.25 59.979164Q206.5 59.80729 206.92188 59.68229Q207.34375 59.55729 207.84375 59.55729Q208.5625 59.55729 209.10938 59.77604Q209.67188 59.979164 209.9375 60.33854Q210.20312 60.697914 210.29688 61.291664L209.26562 61.43229Q209.20312 60.96354 208.85938 60.697914Q208.53125 60.416664 207.90625 60.416664Q207.1875 60.416664 206.875 60.666664Q206.5625 60.90104 206.5625 61.229164Q206.5625 61.43229 206.6875 61.58854Q206.82812 61.760414 207.09375 61.86979Q207.25 61.93229 208.03125 62.135414Q209.15625 62.447914 209.59375 62.635414Q210.03125 62.822914 210.28125 63.18229Q210.53125 63.541664 210.53125 64.08854Q210.53125 64.61979 210.21875 65.08854Q209.92188 65.541664 209.34375 65.80729Q208.76562 66.05729 208.03125 66.05729Q206.8125 66.05729 206.17188 65.55729Q205.54688 65.041664 205.375 64.05729ZM215.79688 68.30729L215.79688 59.697914L216.75 59.697914L216.75 60.49479Q217.09375 60.02604 217.51562 59.791664Q217.95312 59.55729 218.5625 59.55729Q219.35938 59.55729 219.96875 59.96354Q220.57812 60.36979 220.875 61.11979Q221.1875 61.86979 221.1875 62.760414Q221.1875 63.71354 220.84375 64.479164Q220.51562 65.24479 219.85938 65.65104Q219.20312 66.05729 218.48438 66.05729Q217.95312 66.05729 217.53125 65.83854Q217.10938 65.604164 216.84375 65.27604L216.84375 68.30729L215.79688 68.30729ZM216.75 62.83854Q216.75 64.041664 217.23438 64.61979Q217.71875 65.18229 218.40625 65.18229Q219.10938 65.18229 219.60938 64.58854Q220.10938 63.99479 220.10938 62.74479Q220.10938 61.55729 219.625 60.979164Q219.14062 60.385414 218.45312 60.385414Q217.78125 60.385414 217.26562 61.010414Q216.75 61.635414 216.75 62.83854ZM222.78125 65.916664L222.78125 59.697914L223.73438 59.697914L223.73438 60.635414Q224.09375 59.979164 224.39062 59.77604Q224.70312 59.55729 225.07812 59.55729Q225.60938 59.55729 226.15625 59.885414L225.79688 60.86979Q225.40625 60.635414 225.03125 60.635414Q224.67188 60.635414 224.39062 60.854164Q224.125 61.05729 224.01562 61.43229Q223.82812 61.99479 223.82812 62.65104L223.82812 65.916664L222.78125 65.916664ZM226.40625 62.80729Q226.40625 61.072914 227.35938 60.24479Q228.15625 59.55729 229.3125 59.55729Q230.59375 59.55729 231.40625 60.40104Q232.23438 61.229164 232.23438 62.71354Q232.23438 63.916664 231.875 64.604164Q231.51562 65.291664 230.8125 65.68229Q230.125 66.05729 229.3125 66.05729Q228.01562 66.05729 227.20312 65.229164Q226.40625 64.385414 226.40625 62.80729ZM227.48438 62.80729Q227.48438 63.99479 228.0 64.58854Q228.53125 65.18229 229.3125 65.18229Q230.10938 65.18229 230.625 64.58854Q231.14062 63.99479 231.14062 62.77604Q231.14062 61.61979 230.60938 61.02604Q230.09375 60.43229 229.3125 60.43229Q228.53125 60.43229 228.0 61.02604Q227.48438 61.604164 227.48438 62.80729Z" fill-rule="nonzero"/><path stroke="#ea4335" stroke-width="4.0" stroke-linecap="butt" d="M252.0 61.916668L264.0 61.916668" fill-rule="nonzero"/><path fill="#1a1a1a" d="M272.79688 65.916664L272.79688 57.322914L273.85938 57.322914L273.85938 62.229164L276.34375 59.697914L277.71875 59.697914L275.32812 61.99479L277.95312 65.916664L276.65625 65.916664L274.59375 62.729164L273.85938 63.447914L273.85938 65.916664L272.79688 65.916664ZM278.5 63.65104L279.5625 63.510414Q279.73438 64.40104 280.17188 64.80729Q280.60938 65.197914 281.23438 65.197914Q281.98438 65.197914 282.5 64.68229Q283.01562 64.166664 283.01562 63.40104Q283.01562 62.68229 282.53125 62.21354Q282.0625 61.729164 281.32812 61.729164Q281.03125 61.729164 280.57812 61.854164L280.70312 60.916664Q280.8125 60.93229 280.875 60.93229Q281.54688 60.93229 282.07812 60.58854Q282.625 60.229164 282.625 59.49479Q282.625 58.916664 282.23438 58.541664Q281.84375 58.15104 281.21875 58.15104Q280.60938 58.15104 280.1875 58.541664Q279.78125 58.93229 279.67188 59.697914L278.60938 59.510414Q278.79688 58.46354 279.48438 57.885414Q280.17188 57.291664 281.1875 57.291664Q281.89062 57.291664 282.48438 57.604164Q283.07812 57.90104 283.39062 58.416664Q283.70312 58.93229 283.70312 59.52604Q283.70312 60.072914 283.40625 60.541664Q283.10938 60.99479 282.53125 61.260414Q283.28125 61.43229 283.70312 61.99479Q284.125 62.541664 284.125 63.385414Q284.125 64.510414 283.29688 65.291664Q282.48438 66.072914 281.23438 66.072914Q280.10938 66.072914 279.35938 65.40104Q278.60938 64.71354 278.5 63.65104ZM285.375 64.05729L286.40625 63.90104Q286.5 64.52604 286.89062 64.854164Q287.29688 65.18229 288.03125 65.18229Q288.75 65.18229 289.09375 64.90104Q289.45312 64.604164 289.45312 64.197914Q289.45312 63.83854 289.14062 63.635414Q288.92188 63.49479 288.0625 63.27604Q286.90625 62.979164 286.45312 62.77604Q286.01562 62.55729 285.78125 62.18229Q285.54688 61.80729 285.54688 61.33854Q285.54688 60.93229 285.73438 60.572914Q285.92188 60.21354 286.25 59.979164Q286.5 59.80729 286.92188 59.68229Q287.34375 59.55729 287.84375 59.55729Q288.5625 59.55729 289.10938 59.77604Q289.67188 59.979164 289.9375 60.33854Q290.20312 60.697914 290.29688 61.291664L289.26562 61.43229Q289.20312 60.96354 288.85938 60.697914Q288.53125 60.416664 287.90625 60.416664Q287.1875 60.416664 286.875 60.666664Q286.5625 60.90104 286.5625 61.229164Q286.5625 61.43229 286.6875 61.58854Q286.82812 61.760414 287.09375 61.86979Q287.25 61.93229 288.03125 62.135414Q289.15625 62.447914 289.59375 62.635414Q290.03125 62.822914 290.28125 63.18229Q290.53125 63.541664 290.53125 64.08854Q290.53125 64.61979 290.21875 65.08854Q289.92188 65.541664 289.34375 65.80729Q288.76562 66.05729 288.03125 66.05729Q286.8125 66.05729 286.17188 65.55729Q285.54688 65.041664 285.375 64.05729ZM295.40625 62.80729Q295.40625 61.072914 296.35938 60.24479Q297.15625 59.55729 298.3125 59.55729Q299.59375 59.55729 300.40625 60.40104Q301.23438 61.229164 301.23438 62.71354Q301.23438 63.916664 300.875 64.604164Q300.51562 65.291664 299.8125 65.68229Q299.125 66.05729 298.3125 66.05729Q297.01562 66.05729 296.20312 65.229164Q295.40625 64.385414 295.40625 62.80729ZM296.48438 62.80729Q296.48438 63.99479 297.0 64.58854Q297.53125 65.18229 298.3125 65.18229Q299.10938 65.18229 299.625 64.58854Q300.14062 63.99479 300.14062 62.77604Q300.14062 61.61979 299.60938 61.02604Q299.09375 60.43229 298.3125 60.43229Q297.53125 60.43229 297.0 61.02604Q296.48438 61.604164 296.48438 62.80729ZM302.375 64.05729L303.40625 63.90104Q303.5 64.52604 303.89062 64.854164Q304.29688 65.18229 305.03125 65.18229Q305.75 65.18229 306.09375 64.90104Q306.45312 64.604164 306.45312 64.197914Q306.45312 63.83854 306.14062 63.635414Q305.92188 63.49479 305.0625 63.27604Q303.90625 62.979164 303.45312 62.77604Q303.01562 62.55729 302.78125 62.18229Q302.54688 61.80729 302.54688 61.33854Q302.54688 60.93229 302.73438 60.572914Q302.92188 60.21354 303.25 59.979164Q303.5 59.80729 303.92188 59.68229Q304.34375 59.55729 304.84375 59.55729Q305.5625 59.55729 306.10938 59.77604Q306.67188 59.979164 306.9375 60.33854Q307.20312 60.697914 307.29688 61.291664L306.26562 61.43229Q306.20312 60.96354 305.85938 60.697914Q305.53125 60.416664 304.90625 60.416664Q304.1875 60.416664 303.875 60.666664Q303.5625 60.90104 303.5625 61.229164Q303.5625 61.43229 303.6875 61.58854Q303.82812 61.760414 304.09375 61.86979Q304.25 61.93229 305.03125 62.135414Q306.15625 62.447914 306.59375 62.635414Q307.03125 62.822914 307.28125 63.18229Q307.53125 63.541664 307.53125 64.08854Q307.53125 64.61979 307.21875 65.08854Q306.92188 65.541664 306.34375 65.80729Q305.76562 66.05729 305.03125 66.05729Q303.8125 66.05729 303.17188 65.55729Q302.54688 65.041664 302.375 64.05729ZM309.375 64.05729L310.40625 63.90104Q310.5 64.52604 310.89062 64.854164Q311.29688 65.18229 312.03125 65.18229Q312.75 65.18229 313.09375 64.90104Q313.45312 64.604164 313.45312 64.197914Q313.45312 63.83854 313.14062 63.635414Q312.92188 63.49479 312.0625 63.27604Q310.90625 62.979164 310.45312 62.77604Q310.01562 62.55729 309.78125 62.18229Q309.54688 61.80729 309.54688 61.33854Q309.54688 60.93229 309.73438 60.572914Q309.92188 60.21354 310.25 59.979164Q310.5 59.80729 310.92188 59.68229Q311.34375 59.55729 311.84375 59.55729Q312.5625 59.55729 313.10938 59.77604Q313.67188 59.979164 313.9375 60.33854Q314.20312 60.697914 314.29688 61.291664L313.26562 61.43229Q313.20312 60.96354 312.85938 60.697914Q312.53125 60.416664 311.90625 60.416664Q311.1875 60.416664 310.875 60.666664Q310.5625 60.90104 310.5625 61.229164Q310.5625 61.43229 310.6875 61.58854Q310.82812 61.760414 311.09375 61.86979Q311.25 61.93229 312.03125 62.135414Q313.15625 62.447914 313.59375 62.635414Q314.03125 62.822914 314.28125 63.18229Q314.53125 63.541664 314.53125 64.08854Q314.53125 64.61979 314.21875 65.08854Q313.92188 65.541664 313.34375 65.80729Q312.76562 66.05729 312.03125 66.05729Q310.8125 66.05729 310.17188 65.55729Q309.54688 65.041664 309.375 64.05729Z" fill-rule="nonzero"/><path stroke="#fbbc04" stroke-width="4.0" stroke-linecap="butt" d="M332.0 61.916668L344.0 61.916668" fill-rule="nonzero"/><path fill="#1a1a1a" d="M352.79688 65.916664L352.79688 57.322914L353.85938 57.322914L353.85938 62.229164L356.34375 59.697914L357.71875 59.697914L355.32812 61.99479L357.95312 65.916664L356.65625 65.916664L354.59375 62.729164L353.85938 63.447914L353.85938 65.916664L352.79688 65.916664ZM358.5 61.68229Q358.5 60.15104 358.8125 59.229164Q359.125 58.291664 359.73438 57.791664Q360.35938 57.291664 361.29688 57.291664Q361.98438 57.291664 362.5 57.572914Q363.03125 57.854164 363.375 58.385414Q363.71875 58.90104 363.90625 59.65104Q364.09375 60.40104 364.09375 61.68229Q364.09375 63.197914 363.78125 64.11979Q363.48438 65.041664 362.85938 65.55729Q362.25 66.05729 361.29688 66.05729Q360.0625 66.05729 359.34375 65.166664Q358.5 64.104164 358.5 61.68229ZM359.57812 61.68229Q359.57812 63.791664 360.07812 64.49479Q360.57812 65.197914 361.29688 65.197914Q362.03125 65.197914 362.51562 64.49479Q363.01562 63.791664 363.01562 61.68229Q363.01562 59.55729 362.51562 58.86979Q362.03125 58.166664 361.28125 58.166664Q360.5625 58.166664 360.125 58.77604Q359.57812 59.55729 359.57812 61.68229ZM365.375 64.05729L366.40625 63.90104Q366.5 64.52604 366.89062 64.854164Q367.29688 65.18229 368.03125 65.18229Q368.75 65.18229 369.09375 64.90104Q369.45312 64.604164 369.45312 64.197914Q369.45312 63.83854 369.14062 63.635414Q368.92188 63.49479 368.0625 63.27604Q366.90625 62.979164 366.45312 62.77604Q366.01562 62.55729 365.78125 62.18229Q365.54688 61.80729 365.54688 61.33854Q365.54688 60.93229 365.73438 60.572914Q365.92188 60.21354 366.25 59.979164Q366.5 59.80729 366.92188 59.68229Q367.34375 59.55729 367.84375 59.55729Q368.5625 59.55729 369.10938 59.77604Q369.67188 59.979164 369.9375 60.33854Q370.20312 60.697914 370.29688 61.291664L369.26562 61.43229Q369.20312 60.96354 368.85938 60.697914Q368.53125 60.416664 367.90625 60.416664Q367.1875 60.416664 366.875 60.666664Q366.5625 60.90104 366.5625 61.229164Q366.5625 61.43229 366.6875 61.58854Q366.82812 61.760414 367.09375 61.86979Q367.25 61.93229 368.03125 62.135414Q369.15625 62.447914 369.59375 62.635414Q370.03125 62.822914 370.28125 63.18229Q370.53125 63.541664 370.53125 64.08854Q370.53125 64.61979 370.21875 65.08854Q369.92188 65.541664 369.34375 65.80729Q368.76562 66.05729 368.03125 66.05729Q366.8125 66.05729 366.17188 65.55729Q365.54688 65.041664 365.375 64.05729Z" fill-rule="nonzero"/><path stroke="#34a853" stroke-width="4.0" stroke-linecap="butt" d="M388.0 61.916668L400.0 61.916668" fill-rule="nonzero"/><path fill="#1a1a1a" d="M408.79688 65.916664L408.79688 57.322914L409.85938 57.322914L409.85938 62.229164L412.34375 59.697914L413.71875 59.697914L411.32812 61.99479L413.95312 65.916664L412.65625 65.916664L410.59375 62.729164L409.85938 63.447914L409.85938 65.916664L408.79688 65.916664ZM416.125 61.260414Q415.46875 61.010414 415.14062 60.572914Q414.82812 60.11979 414.82812 59.510414Q414.82812 58.572914 415.5 57.93229Q416.1875 57.291664 417.29688 57.291664Q418.42188 57.291664 419.10938 57.947914Q419.79688 58.604164 419.79688 59.541664Q419.79688 60.135414 419.48438 60.572914Q419.17188 61.010414 418.53125 61.260414Q419.32812 61.510414 419.73438 62.08854Q420.14062 62.666664 420.14062 63.46354Q420.14062 64.55729 419.35938 65.30729Q418.59375 66.05729 417.3125 66.05729Q416.04688 66.05729 415.26562 65.30729Q414.48438 64.55729 414.48438 63.43229Q414.48438 62.58854 414.90625 62.02604Q415.34375 61.46354 416.125 61.260414ZM415.90625 59.46354Q415.90625 60.072914 416.29688 60.46354Q416.70312 60.854164 417.32812 60.854164Q417.9375 60.854164 418.32812 60.479164Q418.71875 60.08854 418.71875 59.52604Q418.71875 58.947914 418.3125 58.55729Q417.90625 58.15104 417.3125 58.15104Q416.70312 58.15104 416.29688 58.541664Q415.90625 58.93229 415.90625 59.46354ZM415.57812 63.43229Q415.57812 63.885414 415.78125 64.30729Q416.0 64.729164 416.42188 64.96354Q416.84375 65.197914 417.32812 65.197914Q418.07812 65.197914 418.5625 64.71354Q419.0625 64.229164 419.0625 63.479164Q419.0625 62.71354 418.5625 62.21354Q418.0625 61.71354 417.29688 61.71354Q416.54688 61.71354 416.0625 62.21354Q415.57812 62.697914 415.57812 63.43229ZM421.375 64.05729L422.40625 63.90104Q422.5 64.52604 422.89062 64.854164Q423.29688 65.18229 424.03125 65.18229Q424.75 65.18229 425.09375 64.90104Q425.45312 64.604164 425.45312 64.197914Q425.45312 63.83854 425.14062 63.635414Q424.92188 63.49479 424.0625 63.27604Q422.90625 62.979164 422.45312 62.77604Q422.01562 62.55729 421.78125 62.18229Q421.54688 61.80729 421.54688 61.33854Q421.54688 60.93229 421.73438 60.572914Q421.92188 60.21354 422.25 59.979164Q422.5 59.80729 422.92188 59.68229Q423.34375 59.55729 423.84375 59.55729Q424.5625 59.55729 425.10938 59.77604Q425.67188 59.979164 425.9375 60.33854Q426.20312 60.697914 426.29688 61.291664L425.26562 61.43229Q425.20312 60.96354 424.85938 60.697914Q424.53125 60.416664 423.90625 60.416664Q423.1875 60.416664 422.875 60.666664Q422.5625 60.90104 422.5625 61.229164Q422.5625 61.43229 422.6875 61.58854Q422.82812 61.760414 423.09375 61.86979Q423.25 61.93229 424.03125 62.135414Q425.15625 62.447914 425.59375 62.635414Q426.03125 62.822914 426.28125 63.18229Q426.53125 63.541664 426.53125 64.08854Q426.53125 64.61979 426.21875 65.08854Q425.92188 65.541664 425.34375 65.80729Q424.76562 66.05729 424.03125 66.05729Q422.8125 66.05729 422.17188 65.55729Q421.54688 65.041664 421.375 64.05729Z" fill-rule="nonzero"/><path fill="#757575" d="M19.8625 37.55L19.8625 27.175L21.45625 27.175L21.45625 28.659374Q22.596874 26.940624 24.753124 26.940624Q25.690624 26.940624 26.471874 27.284374Q27.26875 27.6125 27.659374 28.159374Q28.05 28.70625 28.20625 29.45625Q28.3 29.95625 28.3 31.175L28.3 37.55L26.534374 37.55L26.534374 31.2375Q26.534374 30.159374 26.33125 29.628124Q26.128124 29.096874 25.596874 28.784374Q25.08125 28.471874 24.378124 28.471874Q23.253124 28.471874 22.440624 29.190624Q21.628124 29.89375 21.628124 31.878124L21.628124 37.55L19.8625 37.55ZM36.971874 34.20625L38.784374 34.440624Q38.3625 36.01875 37.190624 36.909374Q36.034374 37.784374 34.221874 37.784374Q31.95625 37.784374 30.6125 36.39375Q29.284374 34.9875 29.284374 32.45625Q29.284374 29.83125 30.628124 28.39375Q31.971874 26.940624 34.128124 26.940624Q36.20625 26.940624 37.51875 28.3625Q38.846874 29.76875 38.846874 32.346874Q38.846874 32.503124 38.83125 32.815624L31.096874 32.815624Q31.190624 34.51875 32.065624 35.425Q32.940624 36.33125 34.2375 36.33125Q35.20625 36.33125 35.878124 35.83125Q36.565624 35.315624 36.971874 34.20625ZM31.190624 31.3625L36.9875 31.3625Q36.878124 30.065624 36.33125 29.409374Q35.4875 28.39375 34.14375 28.39375Q32.940624 28.39375 32.1125 29.20625Q31.284374 30.003124 31.190624 31.3625ZM44.70625 35.971874L44.95625 37.534374Q44.221874 37.690624 43.628124 37.690624Q42.675 37.690624 42.14375 37.39375Q41.628124 37.08125 41.409374 36.596874Q41.190624 36.096874 41.190624 34.51875L41.190624 28.55L39.909374 28.55L39.909374 27.175L41.190624 27.175L41.190624 24.6125L42.940624 23.55L42.940624 27.175L44.70625 27.175L44.70625 28.55L42.940624 28.55L42.940624 34.6125Q42.940624 35.3625 43.034374 35.58125Q43.128124 35.784374 43.33125 35.925Q43.55 36.05 43.940624 36.05Q44.221874 36.05 44.70625 35.971874ZM48.784374 37.55L45.6125 27.175L47.425 27.175L49.08125 33.159374L49.690624 35.39375Q49.7375 35.221874 50.221874 33.253124L51.878124 27.175L53.690624 27.175L55.2375 33.190624L55.753124 35.175L56.346874 33.175L58.128124 27.175L59.83125 27.175L56.596874 37.55L54.76875 37.55L53.1125 31.33125L52.721874 29.565624L50.6125 37.55L48.784374 37.55ZM61.221874 32.3625Q61.221874 29.4875 62.815624 28.096874Q64.15938 26.940624 66.08125 26.940624Q68.22188 26.940624 69.56563 28.346874Q70.925 29.753124 70.925 32.221874Q70.925 34.221874 70.33125 35.378124Q69.7375 36.51875 68.58125 37.159374Q67.44063 37.784374 66.08125 37.784374Q63.89375 37.784374 62.55 36.39375Q61.221874 34.9875 61.221874 32.3625ZM63.01875 32.3625Q63.01875 34.3625 63.878124 35.346874Q64.75313 36.33125 66.08125 36.33125Q67.39375 36.33125 68.25313 35.346874Q69.12813 34.346874 69.12813 32.3Q69.12813 30.378124 68.25313 29.39375Q67.37813 28.39375 66.08125 28.39375Q64.75313 28.39375 63.878124 29.39375Q63.01875 30.378124 63.01875 32.3625ZM72.84688 37.55L72.84688 27.175L74.425 27.175L74.425 28.753124Q75.03438 27.64375 75.55 27.3Q76.06563 26.940624 76.675 26.940624Q77.56563 26.940624 78.4875 27.503124L77.87813 29.14375Q77.2375 28.753124 76.59688 28.753124Q76.01875 28.753124 75.55 29.1125Q75.09688 29.45625 74.89375 30.065624Q74.6125 31.003124 74.6125 32.1125L74.6125 37.55L72.84688 37.55ZM79.87813 37.55L79.87813 23.2375L81.64375 23.2375L81.64375 31.39375L85.8 27.175L88.06563 27.175L84.1125 31.01875L88.47188 37.55L86.3 37.55L82.87813 32.253124L81.64375 33.440624L81.64375 37.55L79.87813 37.55ZM95.87813 25.253124L95.87813 23.2375L97.64375 23.2375L97.64375 25.253124L95.87813 25.253124ZM95.87813 37.55L95.87813 27.175L97.64375 27.175L97.64375 37.55L95.87813 37.55ZM99.8625 37.55L99.8625 27.175L101.45625 27.175L101.45625 28.659374Q102.59688 26.940624 104.75313 26.940624Q105.69063 26.940624 106.47188 27.284374Q107.26875 27.6125 107.65938 28.159374Q108.05 28.70625 108.20625 29.45625Q108.3 29.95625 108.3 31.175L108.3 37.55L106.53438 37.55L106.53438 31.2375Q106.53438 30.159374 106.33125 29.628124Q106.12813 29.096874 105.59688 28.784374Q105.08125 28.471874 104.37813 28.471874Q103.25313 28.471874 102.44063 29.190624Q101.62813 29.89375 101.62813 31.878124L101.62813 37.55L99.8625 37.55ZM119.22188 41.753124Q117.76875 39.925 116.76875 37.471874Q115.76875 35.003124 115.76875 32.3625Q115.76875 30.034374 116.51875 27.909374Q117.39375 25.440624 119.22188 22.9875L120.4875 22.9875Q119.3 25.01875 118.925 25.89375Q118.33125 27.2375 117.9875 28.70625Q117.56563 30.534374 117.56563 32.378124Q117.56563 37.065624 120.4875 41.753124L119.22188 41.753124ZM122.87813 25.253124L122.87813 23.2375L124.64375 23.2375L124.64375 25.253124L122.87813 25.253124ZM122.87813 37.55L122.87813 27.175L124.64375 27.175L124.64375 37.55L122.87813 37.55ZM126.8625 37.55L126.8625 27.175L128.45625 27.175L128.45625 28.659374Q129.59688 26.940624 131.75313 26.940624Q132.69063 26.940624 133.47188 27.284374Q134.26875 27.6125 134.65938 28.159374Q135.05 28.70625 135.20625 29.45625Q135.3 29.95625 135.3 31.175L135.3 37.55L133.53438 37.55L133.53438 31.2375Q133.53438 30.159374 133.33125 29.628124Q133.12813 29.096874 132.59688 28.784374Q132.08125 28.471874 131.37813 28.471874Q130.25313 28.471874 129.44063 29.190624Q128.62813 29.89375 128.62813 31.878124L128.62813 37.55L126.8625 37.55ZM140.70625 35.971874L140.95625 37.534374Q140.22188 37.690624 139.62813 37.690624Q138.675 37.690624 138.14375 37.39375Q137.62813 37.08125 137.40938 36.596874Q137.19063 36.096874 137.19063 34.51875L137.19063 28.55L135.90938 28.55L135.90938 27.175L137.19063 27.175L137.19063 24.6125L138.94063 23.55L138.94063 27.175L140.70625 27.175L140.70625 28.55L138.94063 28.55L138.94063 34.6125Q138.94063 35.3625 139.03438 35.58125Q139.12813 35.784374 139.33125 35.925Q139.55 36.05 139.94063 36.05Q140.22188 36.05 140.70625 35.971874ZM149.97188 34.20625L151.78438 34.440624Q151.3625 36.01875 150.19063 36.909374Q149.03438 37.784374 147.22188 37.784374Q144.95625 37.784374 143.6125 36.39375Q142.28438 34.9875 142.28438 32.45625Q142.28438 29.83125 143.62813 28.39375Q144.97188 26.940624 147.12813 26.940624Q149.20625 26.940624 150.51875 28.3625Q151.84688 29.76875 151.84688 32.346874Q151.84688 32.503124 151.83125 32.815624L144.09688 32.815624Q144.19063 34.51875 145.06563 35.425Q145.94063 36.33125 147.2375 36.33125Q148.20625 36.33125 148.87813 35.83125Q149.56563 35.315624 149.97188 34.20625ZM144.19063 31.3625L149.9875 31.3625Q149.87813 30.065624 149.33125 29.409374Q148.4875 28.39375 147.14375 28.39375Q145.94063 28.39375 145.1125 29.20625Q144.28438 30.003124 144.19063 31.3625ZM153.8625 37.55L153.8625 27.175L155.45625 27.175L155.45625 28.659374Q156.59688 26.940624 158.75313 26.940624Q159.69063 26.940624 160.47188 27.284374Q161.26875 27.6125 161.65938 28.159374Q162.05 28.70625 162.20625 29.45625Q162.3 29.95625 162.3 31.175L162.3 37.55L160.53438 37.55L160.53438 31.2375Q160.53438 30.159374 160.33125 29.628124Q160.12813 29.096874 159.59688 28.784374Q159.08125 28.471874 158.37813 28.471874Q157.25313 28.471874 156.44063 29.190624Q155.62813 29.89375 155.62813 31.878124L155.62813 37.55L153.8625 37.55ZM163.15938 34.45625L164.90938 34.175Q165.05 35.221874 165.72188 35.784374Q166.39375 36.33125 167.59688 36.33125Q168.8 36.33125 169.37813 35.846874Q169.97188 35.346874 169.97188 34.690624Q169.97188 34.096874 169.45625 33.753124Q169.09688 33.51875 167.65938 33.159374Q165.72188 32.659374 164.97188 32.315624Q164.2375 31.95625 163.84688 31.33125Q163.45625 30.690624 163.45625 29.925Q163.45625 29.2375 163.76875 28.64375Q164.09688 28.05 164.64375 27.659374Q165.05 27.3625 165.75313 27.159374Q166.47188 26.940624 167.28438 26.940624Q168.50313 26.940624 169.425 27.3Q170.34688 27.64375 170.78438 28.253124Q171.22188 28.846874 171.39375 29.846874L169.675 30.08125Q169.55 29.284374 168.9875 28.846874Q168.425 28.39375 167.40938 28.39375Q166.19063 28.39375 165.675 28.8Q165.15938 29.190624 165.15938 29.721874Q165.15938 30.065624 165.37813 30.346874Q165.58125 30.628124 166.05 30.815624Q166.31563 30.909374 167.59688 31.253124Q169.47188 31.753124 170.20625 32.08125Q170.94063 32.39375 171.3625 33.003124Q171.78438 33.596874 171.78438 34.503124Q171.78438 35.378124 171.26875 36.159374Q170.75313 36.940624 169.78438 37.3625Q168.81563 37.784374 167.59688 37.784374Q165.58125 37.784374 164.51875 36.940624Q163.45625 36.096874 163.15938 34.45625ZM173.87813 25.253124L173.87813 23.2375L175.64375 23.2375L175.64375 25.253124L173.87813 25.253124ZM173.87813 37.55L173.87813 27.175L175.64375 27.175L175.64375 37.55L173.87813 37.55ZM180.75313 37.55L176.8 27.175L178.65938 27.175L180.89375 33.39375Q181.25313 34.39375 181.55 35.471874Q181.78438 34.659374 182.20625 33.503124L184.50313 27.175L186.31563 27.175L182.39375 37.55L180.75313 37.55ZM193.97188 34.20625L195.78438 34.440624Q195.3625 36.01875 194.19063 36.909374Q193.03438 37.784374 191.22188 37.784374Q188.95625 37.784374 187.6125 36.39375Q186.28438 34.9875 186.28438 32.45625Q186.28438 29.83125 187.62813 28.39375Q188.97188 26.940624 191.12813 26.940624Q193.20625 26.940624 194.51875 28.3625Q195.84688 29.76875 195.84688 32.346874Q195.84688 32.503124 195.83125 32.815624L188.09688 32.815624Q188.19063 34.51875 189.06563 35.425Q189.94063 36.33125 191.2375 36.33125Q192.20625 36.33125 192.87813 35.83125Q193.56563 35.315624 193.97188 34.20625ZM188.19063 31.3625L193.9875 31.3625Q193.87813 30.065624 193.33125 29.409374Q192.4875 28.39375 191.14375 28.39375Q189.94063 28.39375 189.1125 29.20625Q188.28438 30.003124 188.19063 31.3625ZM199.01875 41.753124L197.76875 41.753124Q200.675 37.065624 200.675 32.378124Q200.675 30.534374 200.26875 28.7375Q199.925 27.26875 199.33125 25.925Q198.95625 25.034374 197.76875 22.9875L199.01875 22.9875Q200.8625 25.440624 201.7375 27.909374Q202.4875 30.034374 202.4875 32.3625Q202.4875 35.003124 201.47188 37.471874Q200.47188 39.925 199.01875 41.753124Z" fill-rule="nonzero"/></svg>